ISO-10303-21;
HEADER;
FILE_DESCRIPTION((''),'2;1');
FILE_NAME('1025_ASM','2026-04-04T08:11:27',('Administrator'),(''),
'CREO PARAMETRIC BY PTC INC, 2018100','CREO PARAMETRIC BY PTC INC, 2018100','');
FILE_SCHEMA(('AUTOMOTIVE_DESIGN { 1 0 10303 214 1 1 1 1 }'));
ENDSEC;
DATA;
#19=CARTESIAN_POINT('',(0.E0,0.E0,0.E0));
#20=DIRECTION('',(0.E0,1.E0,0.E0));
#21=DIRECTION('',(2.364665156260E-11,0.E0,1.E0));
#22=AXIS2_PLACEMENT_3D('',#19,#20,#21);
#24=CARTESIAN_POINT('',(0.E0,0.E0,0.E0));
#25=DIRECTION('',(0.E0,1.E0,0.E0));
#26=DIRECTION('',(-1.E0,0.E0,1.077724692596E-11));
#27=AXIS2_PLACEMENT_3D('',#24,#25,#26);
#29=CARTESIAN_POINT('',(0.E0,0.E0,0.E0));
#30=DIRECTION('',(0.E0,-1.E0,0.E0));
#31=DIRECTION('',(0.E0,0.E0,1.E0));
#32=AXIS2_PLACEMENT_3D('',#29,#30,#31);
#34=CARTESIAN_POINT('',(0.E0,0.E0,0.E0));
#35=DIRECTION('',(0.E0,-1.E0,0.E0));
#36=DIRECTION('',(0.E0,0.E0,-1.E0));
#37=AXIS2_PLACEMENT_3D('',#34,#35,#36);
#39=CARTESIAN_POINT('',(2.533422083228E-11,2.5E-1,4.749977422528E0));
#40=DIRECTION('',(1.E0,0.E0,-5.333546104769E-12));
#41=DIRECTION('',(5.333327162973E-12,9.060806411096E-3,9.999589500510E-1));
#42=AXIS2_PLACEMENT_3D('',#39,#40,#41);
#44=CARTESIAN_POINT('',(0.E0,2.522652016032E-1,0.E0));
#45=DIRECTION('',(0.E0,1.E0,0.E0));
#46=DIRECTION('',(5.437425140562E-12,0.E0,1.E0));
#47=AXIS2_PLACEMENT_3D('',#44,#45,#46);
#49=CARTESIAN_POINT('',(0.E0,7.940954244926E-1,0.E0));
#50=DIRECTION('',(0.E0,1.E0,0.E0));
#51=DIRECTION('',(-1.277289981641E-11,0.E0,1.E0));
#52=AXIS2_PLACEMENT_3D('',#49,#50,#51);
#54=CARTESIAN_POINT('',(-4.2E0,2.450165564729E-1,-3.957764671547E-12));
#55=DIRECTION('',(9.423260782793E-13,0.E0,-1.E0));
#56=DIRECTION('',(-9.999589500510E-1,9.060806412863E-3,-9.422873958418E-13));
#57=AXIS2_PLACEMENT_3D('',#54,#55,#56);
#59=CARTESIAN_POINT('',(0.E0,2.522652016032E-1,0.E0));
#60=DIRECTION('',(0.E0,1.E0,0.E0));
#61=DIRECTION('',(-1.E0,0.E0,-9.423995752228E-13));
#62=AXIS2_PLACEMENT_3D('',#59,#60,#61);
#64=CARTESIAN_POINT('',(2.283733618880E-11,2.450165564729E-1,4.2E0));
#65=DIRECTION('',(-1.E0,0.E0,5.437461245150E-12));
#66=DIRECTION('',(5.437238037644E-12,9.060806412864E-3,9.999589500510E-1));
#67=AXIS2_PLACEMENT_3D('',#64,#65,#66);
#69=CARTESIAN_POINT('',(-4.749977422528E0,2.5E-1,-5.799860591793E-12));
#70=DIRECTION('',(-1.221026751930E-12,0.E0,1.E0));
#71=DIRECTION('',(-9.999589500510E-1,9.060806412611E-3,-1.220976628844E-12));
#72=AXIS2_PLACEMENT_3D('',#69,#70,#71);
#74=CARTESIAN_POINT('',(0.E0,1.E0,5.E0));
#75=DIRECTION('',(-1.E0,0.E0,0.E0));
#76=DIRECTION('',(0.E0,6.863485850246E-1,-7.272727272727E-1));
#77=AXIS2_PLACEMENT_3D('',#74,#75,#76);
#79=CARTESIAN_POINT('',(0.E0,7.940954244926E-1,0.E0));
#80=DIRECTION('',(0.E0,-1.E0,0.E0));
#81=DIRECTION('',(0.E0,0.E0,1.E0));
#82=AXIS2_PLACEMENT_3D('',#79,#80,#81);
#84=CARTESIAN_POINT('',(0.E0,7.940954244926E-1,0.E0));
#85=DIRECTION('',(0.E0,-1.E0,0.E0));
#86=DIRECTION('',(-1.E0,0.E0,0.E0));
#87=AXIS2_PLACEMENT_3D('',#84,#85,#86);
#89=CARTESIAN_POINT('',(0.E0,1.E0,-5.E0));
#90=DIRECTION('',(-1.E0,0.E0,0.E0));
#91=DIRECTION('',(0.E0,-6.863485850246E-1,7.272727272727E-1));
#92=AXIS2_PLACEMENT_3D('',#89,#90,#91);
#94=CARTESIAN_POINT('',(0.E0,1.205904575507E0,0.E0));
#95=DIRECTION('',(0.E0,1.E0,0.E0));
#96=DIRECTION('',(0.E0,0.E0,-1.E0));
#97=AXIS2_PLACEMENT_3D('',#94,#95,#96);
#99=CARTESIAN_POINT('',(0.E0,1.205904575507E0,0.E0));
#100=DIRECTION('',(0.E0,1.E0,0.E0));
#101=DIRECTION('',(-1.E0,0.E0,0.E0));
#102=AXIS2_PLACEMENT_3D('',#99,#100,#101);
#104=CARTESIAN_POINT('',(0.E0,1.754983443527E0,0.E0));
#105=DIRECTION('',(0.E0,1.E0,0.E0));
#106=DIRECTION('',(1.E0,0.E0,0.E0));
#107=AXIS2_PLACEMENT_3D('',#104,#105,#106);
#109=CARTESIAN_POINT('',(0.E0,1.205904575507E0,0.E0));
#110=DIRECTION('',(0.E0,-1.E0,0.E0));
#111=DIRECTION('',(-3.932716135215E-12,0.E0,-1.E0));
#112=AXIS2_PLACEMENT_3D('',#109,#110,#111);
#114=CARTESIAN_POINT('',(-5.363129385039E-11,1.754983443527E0,4.2E0));
#115=DIRECTION('',(1.E0,0.E0,1.276935501782E-11));
#116=DIRECTION('',(-1.276935501782E-11,-1.412758798836E-13,1.E0));
#117=AXIS2_PLACEMENT_3D('',#114,#115,#116);
#119=CARTESIAN_POINT('',(0.E0,2.485E1,0.E0));
#120=DIRECTION('',(0.E0,-1.E0,0.E0));
#121=DIRECTION('',(-1.E0,0.E0,0.E0));
#122=AXIS2_PLACEMENT_3D('',#119,#120,#121);
#124=DIRECTION('',(0.E0,1.E0,-8.617837656476E-14));
#125=VECTOR('',#124,2.309501655647E1);
#126=CARTESIAN_POINT('',(5.E0,1.754983443527E0,1.992577424376E-12));
#127=LINE('',#126,#125);
#128=CARTESIAN_POINT('',(-4.85E0,2.485E1,9.736655925963E-14));
#129=DIRECTION('',(-2.007595478748E-14,0.E0,-1.E0));
#130=DIRECTION('',(-1.E0,-2.368475785867E-14,2.007595478748E-14));
#131=AXIS2_PLACEMENT_3D('',#128,#129,#130);
#133=CARTESIAN_POINT('',(4.85E0,2.485E1,-9.844208781473E-14));
#134=DIRECTION('',(2.029626466893E-14,0.E0,1.E0));
#135=DIRECTION('',(1.E0,-2.368475785867E-14,-2.029626466893E-14));
#136=AXIS2_PLACEMENT_3D('',#133,#134,#135);
#138=CARTESIAN_POINT('',(0.E0,2.485E1,0.E0));
#139=DIRECTION('',(0.E0,-1.E0,0.E0));
#140=DIRECTION('',(1.E0,0.E0,0.E0));
#141=AXIS2_PLACEMENT_3D('',#138,#139,#140);
#143=CARTESIAN_POINT('',(0.E0,1.754983443527E0,0.E0));
#144=DIRECTION('',(0.E0,1.E0,0.E0));
#145=DIRECTION('',(0.E0,0.E0,1.E0));
#146=AXIS2_PLACEMENT_3D('',#143,#144,#145);
#148=CARTESIAN_POINT('',(0.E0,1.754983443527E0,0.E0));
#149=DIRECTION('',(0.E0,1.E0,0.E0));
#150=DIRECTION('',(-1.E0,0.E0,0.E0));
#151=AXIS2_PLACEMENT_3D('',#148,#149,#150);
#153=DIRECTION('',(0.E0,1.E0,1.017187937447E-13));
#154=VECTOR('',#153,2.309501655647E1);
#155=CARTESIAN_POINT('',(-5.E0,1.754983443527E0,-2.352315374092E-12));
#156=LINE('',#155,#154);
#157=CARTESIAN_POINT('',(-4.2E0,1.754983443527E0,-5.316597856408E-11));
#158=DIRECTION('',(-1.265856690302E-11,0.E0,1.E0));
#159=DIRECTION('',(-1.E0,-1.368349877851E-13,-1.265856690302E-11));
#160=AXIS2_PLACEMENT_3D('',#157,#158,#159);
#162=CARTESIAN_POINT('',(0.E0,2.5E1,0.E0));
#163=DIRECTION('',(0.E0,-1.E0,0.E0));
#164=DIRECTION('',(-1.E0,0.E0,0.E0));
#165=AXIS2_PLACEMENT_3D('',#162,#163,#164);
#167=CARTESIAN_POINT('',(0.E0,2.5E1,0.E0));
#168=DIRECTION('',(0.E0,-1.E0,0.E0));
#169=DIRECTION('',(1.E0,0.E0,0.E0));
#170=AXIS2_PLACEMENT_3D('',#167,#168,#169);
#172=CARTESIAN_POINT('',(0.E0,2.5E1,0.E0));
#173=DIRECTION('',(0.E0,1.E0,0.E0));
#174=DIRECTION('',(-1.E0,0.E0,0.E0));
#175=AXIS2_PLACEMENT_3D('',#172,#173,#174);
#177=CARTESIAN_POINT('',(0.E0,2.5E1,0.E0));
#178=DIRECTION('',(0.E0,1.E0,0.E0));
#179=DIRECTION('',(1.E0,0.E0,0.E0));
#180=AXIS2_PLACEMENT_3D('',#177,#178,#179);
#182=DIRECTION('',(0.E0,-1.E0,0.E0));
#183=VECTOR('',#182,2.E-2);
#184=CARTESIAN_POINT('',(-3.5E0,2.5E1,0.E0));
#185=LINE('',#184,#183);
#186=DIRECTION('',(0.E0,-1.E0,0.E0));
#187=VECTOR('',#186,2.E-2);
#188=CARTESIAN_POINT('',(3.5E0,2.5E1,0.E0));
#189=LINE('',#188,#187);
#190=CARTESIAN_POINT('',(0.E0,2.498E1,0.E0));
#191=DIRECTION('',(0.E0,1.E0,0.E0));
#192=DIRECTION('',(-1.E0,0.E0,0.E0));
#193=AXIS2_PLACEMENT_3D('',#190,#191,#192);
#195=CARTESIAN_POINT('',(0.E0,2.498E1,0.E0));
#196=DIRECTION('',(0.E0,1.E0,0.E0));
#197=DIRECTION('',(1.E0,0.E0,0.E0));
#198=AXIS2_PLACEMENT_3D('',#195,#196,#197);
#200=DIRECTION('',(0.E0,1.E0,0.E0));
#201=VECTOR('',#200,1.E-1);
#202=CARTESIAN_POINT('',(0.E0,0.E0,3.7E0));
#203=LINE('',#202,#201);
#204=DIRECTION('',(0.E0,1.E0,0.E0));
#205=VECTOR('',#204,1.E-1);
#206=CARTESIAN_POINT('',(0.E0,0.E0,-3.7E0));
#207=LINE('',#206,#205);
#208=CARTESIAN_POINT('',(0.E0,1.E-1,0.E0));
#209=DIRECTION('',(0.E0,-1.E0,0.E0));
#210=DIRECTION('',(0.E0,0.E0,1.E0));
#211=AXIS2_PLACEMENT_3D('',#208,#209,#210);
#213=CARTESIAN_POINT('',(0.E0,1.E-1,0.E0));
#214=DIRECTION('',(0.E0,-1.E0,0.E0));
#215=DIRECTION('',(0.E0,0.E0,-1.E0));
#216=AXIS2_PLACEMENT_3D('',#213,#214,#215);
#218=CARTESIAN_POINT('',(0.E0,1.E-1,2.5E0));
#219=DIRECTION('',(0.E0,-1.E0,0.E0));
#220=DIRECTION('',(0.E0,0.E0,-1.E0));
#221=AXIS2_PLACEMENT_3D('',#218,#219,#220);
#223=CARTESIAN_POINT('',(0.E0,1.E-1,2.5E0));
#224=DIRECTION('',(0.E0,-1.E0,0.E0));
#225=DIRECTION('',(0.E0,0.E0,1.E0));
#226=AXIS2_PLACEMENT_3D('',#223,#224,#225);
#228=CARTESIAN_POINT('',(0.E0,1.E-1,-2.5E0));
#229=DIRECTION('',(0.E0,-1.E0,0.E0));
#230=DIRECTION('',(-1.E0,0.E0,0.E0));
#231=AXIS2_PLACEMENT_3D('',#228,#229,#230);
#233=CARTESIAN_POINT('',(0.E0,1.E-1,-2.5E0));
#234=DIRECTION('',(0.E0,-1.E0,0.E0));
#235=DIRECTION('',(1.E0,0.E0,0.E0));
#236=AXIS2_PLACEMENT_3D('',#233,#234,#235);
#238=DIRECTION('',(0.E0,-1.E0,0.E0));
#239=VECTOR('',#238,2.E1);
#240=CARTESIAN_POINT('',(0.E0,1.E-1,2.2E0));
#241=LINE('',#240,#239);
#242=DIRECTION('',(0.E0,-1.E0,0.E0));
#243=VECTOR('',#242,2.E1);
#244=CARTESIAN_POINT('',(0.E0,1.E-1,2.8E0));
#245=LINE('',#244,#243);
#246=CARTESIAN_POINT('',(0.E0,-1.99E1,2.5E0));
#247=DIRECTION('',(0.E0,-1.E0,0.E0));
#248=DIRECTION('',(0.E0,0.E0,-1.E0));
#249=AXIS2_PLACEMENT_3D('',#246,#247,#248);
#251=CARTESIAN_POINT('',(0.E0,-1.99E1,2.5E0));
#252=DIRECTION('',(0.E0,-1.E0,0.E0));
#253=DIRECTION('',(0.E0,0.E0,1.E0));
#254=AXIS2_PLACEMENT_3D('',#251,#252,#253);
#256=DIRECTION('',(0.E0,-1.E0,0.E0));
#257=VECTOR('',#256,2.5E1);
#258=CARTESIAN_POINT('',(-3.E-1,1.E-1,-2.5E0));
#259=LINE('',#258,#257);
#260=DIRECTION('',(0.E0,-1.E0,0.E0));
#261=VECTOR('',#260,2.5E1);
#262=CARTESIAN_POINT('',(3.E-1,1.E-1,-2.5E0));
#263=LINE('',#262,#261);
#264=CARTESIAN_POINT('',(0.E0,-2.49E1,-2.5E0));
#265=DIRECTION('',(0.E0,-1.E0,0.E0));
#266=DIRECTION('',(-1.E0,0.E0,0.E0));
#267=AXIS2_PLACEMENT_3D('',#264,#265,#266);
#269=CARTESIAN_POINT('',(0.E0,-2.49E1,-2.5E0));
#270=DIRECTION('',(0.E0,-1.E0,0.E0));
#271=DIRECTION('',(1.E0,0.E0,0.E0));
#272=AXIS2_PLACEMENT_3D('',#269,#270,#271);
#274=CARTESIAN_POINT('',(-5.E0,2.485E1,0.E0));
#275=CARTESIAN_POINT('',(5.E0,2.485E1,0.E0));
#276=VERTEX_POINT('',#274);
#277=VERTEX_POINT('',#275);
#278=CARTESIAN_POINT('',(-4.85E0,2.5E1,0.E0));
#279=CARTESIAN_POINT('',(4.85E0,2.5E1,0.E0));
#280=VERTEX_POINT('',#278);
#281=VERTEX_POINT('',#279);
#282=CARTESIAN_POINT('',(5.E0,1.754983443527E0,1.992577424376E-12));
#283=VERTEX_POINT('',#282);
#284=CARTESIAN_POINT('',(-5.E0,1.754983443527E0,-2.352315374092E-12));
#285=VERTEX_POINT('',#284);
#286=CARTESIAN_POINT('',(0.E0,1.205904575507E0,4.781818181818E0));
#287=CARTESIAN_POINT('',(0.E0,7.940954244926E-1,4.781818181818E0));
#288=VERTEX_POINT('',#286);
#289=VERTEX_POINT('',#287);
#290=CARTESIAN_POINT('',(0.E0,7.940954244926E-1,-4.781818181818E0));
#291=CARTESIAN_POINT('',(0.E0,1.205904575507E0,-4.781818181818E0));
#292=VERTEX_POINT('',#290);
#293=VERTEX_POINT('',#291);
#294=CARTESIAN_POINT('',(0.E0,1.E-1,3.7E0));
#295=CARTESIAN_POINT('',(0.E0,1.E-1,-3.7E0));
#296=VERTEX_POINT('',#294);
#297=VERTEX_POINT('',#295);
#298=CARTESIAN_POINT('',(0.E0,0.E0,3.7E0));
#299=CARTESIAN_POINT('',(0.E0,0.E0,-3.7E0));
#300=VERTEX_POINT('',#298);
#301=VERTEX_POINT('',#299);
#302=CARTESIAN_POINT('',(0.E0,-1.99E1,2.2E0));
#303=CARTESIAN_POINT('',(0.E0,-1.99E1,2.8E0));
#304=VERTEX_POINT('',#302);
#305=VERTEX_POINT('',#303);
#306=CARTESIAN_POINT('',(0.E0,1.E-1,2.2E0));
#307=CARTESIAN_POINT('',(0.E0,1.E-1,2.8E0));
#308=VERTEX_POINT('',#306);
#309=VERTEX_POINT('',#307);
#310=CARTESIAN_POINT('',(-3.E-1,-2.49E1,-2.5E0));
#311=CARTESIAN_POINT('',(3.E-1,-2.49E1,-2.5E0));
#312=VERTEX_POINT('',#310);
#313=VERTEX_POINT('',#311);
#314=CARTESIAN_POINT('',(-3.E-1,1.E-1,-2.5E0));
#315=CARTESIAN_POINT('',(3.E-1,1.E-1,-2.5E0));
#316=VERTEX_POINT('',#314);
#317=VERTEX_POINT('',#315);
#318=CARTESIAN_POINT('',(-4.781818181818E0,1.205904575507E0,0.E0));
#319=VERTEX_POINT('',#318);
#320=CARTESIAN_POINT('',(0.E0,1.754983443527E0,5.E0));
#321=VERTEX_POINT('',#320);
#322=CARTESIAN_POINT('',(-4.781818181818E0,7.940954244926E-1,0.E0));
#323=VERTEX_POINT('',#322);
#324=CARTESIAN_POINT('',(2.718694713799E-11,2.522652016032E-1,
4.999967160041E0));
#325=CARTESIAN_POINT('',(-4.999967160041E0,2.522652016032E-1,
-4.712689772707E-12));
#326=VERTEX_POINT('',#324);
#327=VERTEX_POINT('',#325);
#328=CARTESIAN_POINT('',(1.123210610407E-10,0.E0,4.749977422528E0));
#329=CARTESIAN_POINT('',(-4.749977422528E0,0.E0,5.118937886753E-11));
#330=VERTEX_POINT('',#328);
#331=VERTEX_POINT('',#329);
#332=CARTESIAN_POINT('',(-3.5E0,2.498E1,0.E0));
#333=CARTESIAN_POINT('',(3.5E0,2.498E1,0.E0));
#334=VERTEX_POINT('',#332);
#335=VERTEX_POINT('',#333);
#336=CARTESIAN_POINT('',(-3.5E0,2.5E1,0.E0));
#337=CARTESIAN_POINT('',(3.5E0,2.5E1,0.E0));
#338=VERTEX_POINT('',#336);
#339=VERTEX_POINT('',#337);
#340=CARTESIAN_POINT('',(0.E0,0.E0,0.E0));
#341=DIRECTION('',(0.E0,1.E0,0.E0));
#342=DIRECTION('',(1.E0,0.E0,0.E0));
#343=AXIS2_PLACEMENT_3D('',#340,#341,#342);
#344=PLANE('',#343);
#346=ORIENTED_EDGE('',*,*,#345,.T.);
#348=ORIENTED_EDGE('',*,*,#347,.T.);
#349=EDGE_LOOP('',(#346,#348));
#350=FACE_OUTER_BOUND('',#349,.F.);
#352=ORIENTED_EDGE('',*,*,#351,.T.);
#354=ORIENTED_EDGE('',*,*,#353,.T.);
#355=EDGE_LOOP('',(#352,#354));
#356=FACE_BOUND('',#355,.F.);
#358=FILL_AREA_STYLE_COLOUR('',#5);
#359=FILL_AREA_STYLE('',(#358));
#360=SURFACE_STYLE_FILL_AREA(#359);
#361=SURFACE_SIDE_STYLE('',(#360));
#362=SURFACE_STYLE_USAGE(.POSITIVE.,#361);
#363=PRESENTATION_STYLE_ASSIGNMENT((#362));
#364=STYLED_ITEM('',(#363),#357);
#365=CARTESIAN_POINT('',(0.E0,2.5E-1,0.E0));
#366=DIRECTION('',(0.E0,1.E0,0.E0));
#367=DIRECTION('',(-9.364713265288E-3,0.E0,9.999561501113E-1));
#368=AXIS2_PLACEMENT_3D('',#365,#366,#367);
#369=TOROIDAL_SURFACE('',#368,4.749977422528E0,2.5E-1);
#371=ORIENTED_EDGE('',*,*,#370,.T.);
#373=ORIENTED_EDGE('',*,*,#372,.T.);
#374=ORIENTED_EDGE('',*,*,#345,.F.);
#376=ORIENTED_EDGE('',*,*,#375,.F.);
#377=EDGE_LOOP('',(#371,#373,#374,#376));
#378=FACE_OUTER_BOUND('',#377,.F.);
#380=FILL_AREA_STYLE_COLOUR('',#5);
#381=FILL_AREA_STYLE('',(#380));
#382=SURFACE_STYLE_FILL_AREA(#381);
#383=SURFACE_SIDE_STYLE('',(#382));
#384=SURFACE_STYLE_USAGE(.POSITIVE.,#383);
#385=PRESENTATION_STYLE_ASSIGNMENT((#384));
#386=STYLED_ITEM('',(#385),#379);
#387=CARTESIAN_POINT('',(0.E0,2.450165564729E-1,0.E0));
#388=DIRECTION('',(0.E0,1.E0,0.E0));
#389=DIRECTION('',(-1.334821096008E-2,0.E0,-9.999109086634E-1));
#390=AXIS2_PLACEMENT_3D('',#387,#388,#389);
#391=TOROIDAL_SURFACE('',#390,4.2E0,8.E-1);
#392=ORIENTED_EDGE('',*,*,#370,.F.);
#394=ORIENTED_EDGE('',*,*,#393,.T.);
#396=ORIENTED_EDGE('',*,*,#395,.T.);
#398=ORIENTED_EDGE('',*,*,#397,.F.);
#400=ORIENTED_EDGE('',*,*,#399,.F.);
#401=EDGE_LOOP('',(#392,#394,#396,#398,#400));
#402=FACE_OUTER_BOUND('',#401,.F.);
#404=FILL_AREA_STYLE_COLOUR('',#5);
#405=FILL_AREA_STYLE('',(#404));
#406=SURFACE_STYLE_FILL_AREA(#405);
#407=SURFACE_SIDE_STYLE('',(#406));
#408=SURFACE_STYLE_USAGE(.POSITIVE.,#407);
#409=PRESENTATION_STYLE_ASSIGNMENT((#408));
#410=STYLED_ITEM('',(#409),#403);
#411=CARTESIAN_POINT('',(0.E0,2.450165564729E-1,0.E0));
#412=DIRECTION('',(0.E0,1.E0,0.E0));
#413=DIRECTION('',(1.334821096008E-2,0.E0,9.999109086634E-1));
#414=AXIS2_PLACEMENT_3D('',#411,#412,#413);
#415=TOROIDAL_SURFACE('',#414,4.2E0,8.E-1);
#417=ORIENTED_EDGE('',*,*,#416,.F.);
#418=ORIENTED_EDGE('',*,*,#399,.T.);
#420=ORIENTED_EDGE('',*,*,#419,.F.);
#421=ORIENTED_EDGE('',*,*,#393,.F.);
#422=EDGE_LOOP('',(#417,#418,#420,#421));
#423=FACE_OUTER_BOUND('',#422,.F.);
#425=FILL_AREA_STYLE_COLOUR('',#5);
#426=FILL_AREA_STYLE('',(#425));
#427=SURFACE_STYLE_FILL_AREA(#426);
#428=SURFACE_SIDE_STYLE('',(#427));
#429=SURFACE_STYLE_USAGE(.POSITIVE.,#428);
#430=PRESENTATION_STYLE_ASSIGNMENT((#429));
#431=STYLED_ITEM('',(#430),#424);
#432=CARTESIAN_POINT('',(0.E0,2.5E-1,0.E0));
#433=DIRECTION('',(0.E0,1.E0,0.E0));
#434=DIRECTION('',(-9.999561501113E-1,0.E0,-9.364713265176E-3));
#435=AXIS2_PLACEMENT_3D('',#432,#433,#434);
#436=TOROIDAL_SURFACE('',#435,4.749977422528E0,2.5E-1);
#437=ORIENTED_EDGE('',*,*,#416,.T.);
#438=ORIENTED_EDGE('',*,*,#375,.T.);
#439=ORIENTED_EDGE('',*,*,#347,.F.);
#440=ORIENTED_EDGE('',*,*,#372,.F.);
#441=EDGE_LOOP('',(#437,#438,#439,#440));
#442=FACE_OUTER_BOUND('',#441,.F.);
#444=FILL_AREA_STYLE_COLOUR('',#5);
#445=FILL_AREA_STYLE('',(#444));
#446=SURFACE_STYLE_FILL_AREA(#445);
#447=SURFACE_SIDE_STYLE('',(#446));
#448=SURFACE_STYLE_USAGE(.POSITIVE.,#447);
#449=PRESENTATION_STYLE_ASSIGNMENT((#448));
#450=STYLED_ITEM('',(#449),#443);
#451=CARTESIAN_POINT('',(0.E0,1.E0,0.E0));
#452=DIRECTION('',(0.E0,1.E0,0.E0));
#453=DIRECTION('',(0.E0,0.E0,-1.E0));
#454=AXIS2_PLACEMENT_3D('',#451,#452,#453);
#455=TOROIDAL_SURFACE('',#454,5.E0,3.E-1);
#457=ORIENTED_EDGE('',*,*,#456,.T.);
#458=ORIENTED_EDGE('',*,*,#419,.T.);
#459=ORIENTED_EDGE('',*,*,#397,.T.);
#461=ORIENTED_EDGE('',*,*,#460,.T.);
#463=ORIENTED_EDGE('',*,*,#462,.T.);
#465=ORIENTED_EDGE('',*,*,#464,.T.);
#466=EDGE_LOOP('',(#457,#458,#459,#461,#463,#465));
#467=FACE_OUTER_BOUND('',#466,.F.);
#469=FILL_AREA_STYLE_COLOUR('',#5);
#470=FILL_AREA_STYLE('',(#469));
#471=SURFACE_STYLE_FILL_AREA(#470);
#472=SURFACE_SIDE_STYLE('',(#471));
#473=SURFACE_STYLE_USAGE(.POSITIVE.,#472);
#474=PRESENTATION_STYLE_ASSIGNMENT((#473));
#475=STYLED_ITEM('',(#474),#468);
#476=CARTESIAN_POINT('',(0.E0,1.E0,0.E0));
#477=DIRECTION('',(0.E0,1.E0,0.E0));
#478=DIRECTION('',(0.E0,0.E0,-1.E0));
#479=AXIS2_PLACEMENT_3D('',#476,#477,#478);
#480=TOROIDAL_SURFACE('',#479,5.E0,3.E-1);
#481=ORIENTED_EDGE('',*,*,#456,.F.);
#483=ORIENTED_EDGE('',*,*,#482,.F.);
#484=ORIENTED_EDGE('',*,*,#460,.F.);
#485=ORIENTED_EDGE('',*,*,#395,.F.);
#486=EDGE_LOOP('',(#481,#483,#484,#485));
#487=FACE_OUTER_BOUND('',#486,.F.);
#489=FILL_AREA_STYLE_COLOUR('',#5);
#490=FILL_AREA_STYLE('',(#489));
#491=SURFACE_STYLE_FILL_AREA(#490);
#492=SURFACE_SIDE_STYLE('',(#491));
#493=SURFACE_STYLE_USAGE(.POSITIVE.,#492);
#494=PRESENTATION_STYLE_ASSIGNMENT((#493));
#495=STYLED_ITEM('',(#494),#488);
#496=CARTESIAN_POINT('',(0.E0,1.754983443527E0,0.E0));
#497=DIRECTION('',(0.E0,1.E0,0.E0));
#498=DIRECTION('',(9.999571362705E-1,0.E0,9.258813192205E-3));
#499=AXIS2_PLACEMENT_3D('',#496,#497,#498);
#500=TOROIDAL_SURFACE('',#499,4.2E0,8.E-1);
#502=ORIENTED_EDGE('',*,*,#501,.T.);
#504=ORIENTED_EDGE('',*,*,#503,.T.);
#505=ORIENTED_EDGE('',*,*,#462,.F.);
#506=ORIENTED_EDGE('',*,*,#482,.T.);
#508=ORIENTED_EDGE('',*,*,#507,.F.);
#510=ORIENTED_EDGE('',*,*,#509,.T.);
#511=EDGE_LOOP('',(#502,#504,#505,#506,#508,#510));
#512=FACE_OUTER_BOUND('',#511,.F.);
#514=FILL_AREA_STYLE_COLOUR('',#5);
#515=FILL_AREA_STYLE('',(#514));
#516=SURFACE_STYLE_FILL_AREA(#515);
#517=SURFACE_SIDE_STYLE('',(#516));
#518=SURFACE_STYLE_USAGE(.POSITIVE.,#517);
#519=PRESENTATION_STYLE_ASSIGNMENT((#518));
#520=STYLED_ITEM('',(#519),#513);
#521=CARTESIAN_POINT('',(0.E0,0.E0,0.E0));
#522=DIRECTION('',(0.E0,1.E0,0.E0));
#523=DIRECTION('',(1.E0,0.E0,0.E0));
#524=AXIS2_PLACEMENT_3D('',#521,#522,#523);
#525=CYLINDRICAL_SURFACE('',#524,5.E0);
#527=ORIENTED_EDGE('',*,*,#526,.F.);
#529=ORIENTED_EDGE('',*,*,#528,.F.);
#530=ORIENTED_EDGE('',*,*,#501,.F.);
#532=ORIENTED_EDGE('',*,*,#531,.T.);
#533=EDGE_LOOP('',(#527,#529,#530,#532));
#534=FACE_OUTER_BOUND('',#533,.F.);
#536=FILL_AREA_STYLE_COLOUR('',#5);
#537=FILL_AREA_STYLE('',(#536));
#538=SURFACE_STYLE_FILL_AREA(#537);
#539=SURFACE_SIDE_STYLE('',(#538));
#540=SURFACE_STYLE_USAGE(.POSITIVE.,#539);
#541=PRESENTATION_STYLE_ASSIGNMENT((#540));
#542=STYLED_ITEM('',(#541),#535);
#543=CARTESIAN_POINT('',(0.E0,2.485E1,0.E0));
#544=DIRECTION('',(0.E0,1.E0,0.E0));
#545=DIRECTION('',(-9.999639337493E-1,0.E0,8.493008920993E-3));
#546=AXIS2_PLACEMENT_3D('',#543,#544,#545);
#547=TOROIDAL_SURFACE('',#546,4.85E0,1.5E-1);
#548=ORIENTED_EDGE('',*,*,#526,.T.);
#550=ORIENTED_EDGE('',*,*,#549,.T.);
#552=ORIENTED_EDGE('',*,*,#551,.F.);
#554=ORIENTED_EDGE('',*,*,#553,.F.);
#555=EDGE_LOOP('',(#548,#550,#552,#554));
#556=FACE_OUTER_BOUND('',#555,.F.);
#558=FILL_AREA_STYLE_COLOUR('',#5);
#559=FILL_AREA_STYLE('',(#558));
#560=SURFACE_STYLE_FILL_AREA(#559);
#561=SURFACE_SIDE_STYLE('',(#560));
#562=SURFACE_STYLE_USAGE(.POSITIVE.,#561);
#563=PRESENTATION_STYLE_ASSIGNMENT((#562));
#564=STYLED_ITEM('',(#563),#557);
#565=CARTESIAN_POINT('',(0.E0,2.485E1,0.E0));
#566=DIRECTION('',(0.E0,1.E0,0.E0));
#567=DIRECTION('',(9.999639337493E-1,0.E0,-8.493008920993E-3));
#568=AXIS2_PLACEMENT_3D('',#565,#566,#567);
#569=TOROIDAL_SURFACE('',#568,4.85E0,1.5E-1);
#571=ORIENTED_EDGE('',*,*,#570,.T.);
#572=ORIENTED_EDGE('',*,*,#553,.T.);
#574=ORIENTED_EDGE('',*,*,#573,.F.);
#575=ORIENTED_EDGE('',*,*,#549,.F.);
#576=EDGE_LOOP('',(#571,#572,#574,#575));
#577=FACE_OUTER_BOUND('',#576,.F.);
#579=FILL_AREA_STYLE_COLOUR('',#5);
#580=FILL_AREA_STYLE('',(#579));
#581=SURFACE_STYLE_FILL_AREA(#580);
#582=SURFACE_SIDE_STYLE('',(#581));
#583=SURFACE_STYLE_USAGE(.POSITIVE.,#582);
#584=PRESENTATION_STYLE_ASSIGNMENT((#583));
#585=STYLED_ITEM('',(#584),#578);
#586=CARTESIAN_POINT('',(0.E0,0.E0,0.E0));
#587=DIRECTION('',(0.E0,1.E0,0.E0));
#588=DIRECTION('',(1.E0,0.E0,0.E0));
#589=AXIS2_PLACEMENT_3D('',#586,#587,#588);
#590=CYLINDRICAL_SURFACE('',#589,5.E0);
#591=ORIENTED_EDGE('',*,*,#570,.F.);
#592=ORIENTED_EDGE('',*,*,#531,.F.);
#593=ORIENTED_EDGE('',*,*,#509,.F.);
#595=ORIENTED_EDGE('',*,*,#594,.F.);
#596=ORIENTED_EDGE('',*,*,#528,.T.);
#597=EDGE_LOOP('',(#591,#592,#593,#595,#596));
#598=FACE_OUTER_BOUND('',#597,.F.);
#600=FILL_AREA_STYLE_COLOUR('',#5);
#601=FILL_AREA_STYLE('',(#600));
#602=SURFACE_STYLE_FILL_AREA(#601);
#603=SURFACE_SIDE_STYLE('',(#602));
#604=SURFACE_STYLE_USAGE(.POSITIVE.,#603);
#605=PRESENTATION_STYLE_ASSIGNMENT((#604));
#606=STYLED_ITEM('',(#605),#599);
#607=CARTESIAN_POINT('',(0.E0,1.754983443527E0,0.E0));
#608=DIRECTION('',(0.E0,1.E0,0.E0));
#609=DIRECTION('',(-9.999571362705E-1,0.E0,-9.258813192205E-3));
#610=AXIS2_PLACEMENT_3D('',#607,#608,#609);
#611=TOROIDAL_SURFACE('',#610,4.2E0,8.E-1);
#612=ORIENTED_EDGE('',*,*,#594,.T.);
#613=ORIENTED_EDGE('',*,*,#507,.T.);
#614=ORIENTED_EDGE('',*,*,#464,.F.);
#615=ORIENTED_EDGE('',*,*,#503,.F.);
#616=EDGE_LOOP('',(#612,#613,#614,#615));
#617=FACE_OUTER_BOUND('',#616,.F.);
#619=FILL_AREA_STYLE_COLOUR('',#5);
#620=FILL_AREA_STYLE('',(#619));
#621=SURFACE_STYLE_FILL_AREA(#620);
#622=SURFACE_SIDE_STYLE('',(#621));
#623=SURFACE_STYLE_USAGE(.POSITIVE.,#622);
#624=PRESENTATION_STYLE_ASSIGNMENT((#623));
#625=STYLED_ITEM('',(#624),#618);
#626=CARTESIAN_POINT('',(0.E0,2.5E1,0.E0));
#627=DIRECTION('',(0.E0,1.E0,0.E0));
#628=DIRECTION('',(1.E0,0.E0,0.E0));
#629=AXIS2_PLACEMENT_3D('',#626,#627,#628);
#630=PLANE('',#629);
#631=ORIENTED_EDGE('',*,*,#551,.T.);
#632=ORIENTED_EDGE('',*,*,#573,.T.);
#633=EDGE_LOOP('',(#631,#632));
#634=FACE_OUTER_BOUND('',#633,.F.);
#636=ORIENTED_EDGE('',*,*,#635,.T.);
#638=ORIENTED_EDGE('',*,*,#637,.T.);
#639=EDGE_LOOP('',(#636,#638));
#640=FACE_BOUND('',#639,.F.);
#642=FILL_AREA_STYLE_COLOUR('',#5);
#643=FILL_AREA_STYLE('',(#642));
#644=SURFACE_STYLE_FILL_AREA(#643);
#645=SURFACE_SIDE_STYLE('',(#644));
#646=SURFACE_STYLE_USAGE(.POSITIVE.,#645);
#647=PRESENTATION_STYLE_ASSIGNMENT((#646));
#648=STYLED_ITEM('',(#647),#641);
#649=CARTESIAN_POINT('',(0.E0,2.5E1,0.E0));
#650=DIRECTION('',(0.E0,1.E0,0.E0));
#651=DIRECTION('',(-1.E0,0.E0,0.E0));
#652=AXIS2_PLACEMENT_3D('',#649,#650,#651);
#653=CYLINDRICAL_SURFACE('',#652,3.5E0);
#654=ORIENTED_EDGE('',*,*,#635,.F.);
#656=ORIENTED_EDGE('',*,*,#655,.T.);
#658=ORIENTED_EDGE('',*,*,#657,.T.);
#660=ORIENTED_EDGE('',*,*,#659,.F.);
#661=EDGE_LOOP('',(#654,#656,#658,#660));
#662=FACE_OUTER_BOUND('',#661,.F.);
#664=CARTESIAN_POINT('',(0.E0,2.5E1,0.E0));
#665=DIRECTION('',(0.E0,1.E0,0.E0));
#666=DIRECTION('',(-1.E0,0.E0,0.E0));
#667=AXIS2_PLACEMENT_3D('',#664,#665,#666);
#668=CYLINDRICAL_SURFACE('',#667,3.5E0);
#669=ORIENTED_EDGE('',*,*,#637,.F.);
#670=ORIENTED_EDGE('',*,*,#659,.T.);
#672=ORIENTED_EDGE('',*,*,#671,.T.);
#673=ORIENTED_EDGE('',*,*,#655,.F.);
#674=EDGE_LOOP('',(#669,#670,#672,#673));
#675=FACE_OUTER_BOUND('',#674,.F.);
#677=CARTESIAN_POINT('',(0.E0,2.498E1,0.E0));
#678=DIRECTION('',(0.E0,1.E0,0.E0));
#679=DIRECTION('',(-1.E0,0.E0,0.E0));
#680=AXIS2_PLACEMENT_3D('',#677,#678,#679);
#681=PLANE('',#680);
#682=ORIENTED_EDGE('',*,*,#657,.F.);
#683=ORIENTED_EDGE('',*,*,#671,.F.);
#684=EDGE_LOOP('',(#682,#683));
#685=FACE_OUTER_BOUND('',#684,.F.);
#687=FILL_AREA_STYLE_COLOUR('',#13);
#688=FILL_AREA_STYLE('',(#687));
#689=SURFACE_STYLE_FILL_AREA(#688);
#690=SURFACE_SIDE_STYLE('',(#689));
#691=SURFACE_STYLE_USAGE(.POSITIVE.,#690);
#692=PRESENTATION_STYLE_ASSIGNMENT((#691));
#693=STYLED_ITEM('',(#692),#686);
#694=CARTESIAN_POINT('',(0.E0,0.E0,0.E0));
#695=DIRECTION('',(0.E0,-1.E0,0.E0));
#696=DIRECTION('',(0.E0,0.E0,1.E0));
#697=AXIS2_PLACEMENT_3D('',#694,#695,#696);
#698=CYLINDRICAL_SURFACE('',#697,3.7E0);
#699=ORIENTED_EDGE('',*,*,#351,.F.);
#701=ORIENTED_EDGE('',*,*,#700,.T.);
#703=ORIENTED_EDGE('',*,*,#702,.T.);
#705=ORIENTED_EDGE('',*,*,#704,.F.);
#706=EDGE_LOOP('',(#699,#701,#703,#705));
#707=FACE_OUTER_BOUND('',#706,.F.);
#709=FILL_AREA_STYLE_COLOUR('',#5);
#710=FILL_AREA_STYLE('',(#709));
#711=SURFACE_STYLE_FILL_AREA(#710);
#712=SURFACE_SIDE_STYLE('',(#711));
#713=SURFACE_STYLE_USAGE(.POSITIVE.,#712);
#714=PRESENTATION_STYLE_ASSIGNMENT((#713));
#715=STYLED_ITEM('',(#714),#708);
#716=CARTESIAN_POINT('',(0.E0,0.E0,0.E0));
#717=DIRECTION('',(0.E0,-1.E0,0.E0));
#718=DIRECTION('',(0.E0,0.E0,1.E0));
#719=AXIS2_PLACEMENT_3D('',#716,#717,#718);
#720=CYLINDRICAL_SURFACE('',#719,3.7E0);
#721=ORIENTED_EDGE('',*,*,#353,.F.);
#722=ORIENTED_EDGE('',*,*,#704,.T.);
#724=ORIENTED_EDGE('',*,*,#723,.T.);
#725=ORIENTED_EDGE('',*,*,#700,.F.);
#726=EDGE_LOOP('',(#721,#722,#724,#725));
#727=FACE_OUTER_BOUND('',#726,.F.);
#729=FILL_AREA_STYLE_COLOUR('',#5);
#730=FILL_AREA_STYLE('',(#729));
#731=SURFACE_STYLE_FILL_AREA(#730);
#732=SURFACE_SIDE_STYLE('',(#731));
#733=SURFACE_STYLE_USAGE(.POSITIVE.,#732);
#734=PRESENTATION_STYLE_ASSIGNMENT((#733));
#735=STYLED_ITEM('',(#734),#728);
#736=CARTESIAN_POINT('',(0.E0,1.E-1,0.E0));
#737=DIRECTION('',(0.E0,-1.E0,0.E0));
#738=DIRECTION('',(0.E0,0.E0,1.E0));
#739=AXIS2_PLACEMENT_3D('',#736,#737,#738);
#740=PLANE('',#739);
#741=ORIENTED_EDGE('',*,*,#702,.F.);
#742=ORIENTED_EDGE('',*,*,#723,.F.);
#743=EDGE_LOOP('',(#741,#742));
#744=FACE_OUTER_BOUND('',#743,.F.);
#746=ORIENTED_EDGE('',*,*,#745,.T.);
#748=ORIENTED_EDGE('',*,*,#747,.T.);
#749=EDGE_LOOP('',(#746,#748));
#750=FACE_BOUND('',#749,.F.);
#752=ORIENTED_EDGE('',*,*,#751,.T.);
#754=ORIENTED_EDGE('',*,*,#753,.T.);
#755=EDGE_LOOP('',(#752,#754));
#756=FACE_BOUND('',#755,.F.);
#758=FILL_AREA_STYLE_COLOUR('',#16);
#759=FILL_AREA_STYLE('',(#758));
#760=SURFACE_STYLE_FILL_AREA(#759);
#761=SURFACE_SIDE_STYLE('',(#760));
#762=SURFACE_STYLE_USAGE(.POSITIVE.,#761);
#763=PRESENTATION_STYLE_ASSIGNMENT((#762));
#764=STYLED_ITEM('',(#763),#757);
#765=CARTESIAN_POINT('',(0.E0,1.E-1,2.5E0));
#766=DIRECTION('',(0.E0,-1.E0,0.E0));
#767=DIRECTION('',(0.E0,0.E0,-1.E0));
#768=AXIS2_PLACEMENT_3D('',#765,#766,#767);
#769=CYLINDRICAL_SURFACE('',#768,3.E-1);
#770=ORIENTED_EDGE('',*,*,#745,.F.);
#772=ORIENTED_EDGE('',*,*,#771,.T.);
#774=ORIENTED_EDGE('',*,*,#773,.T.);
#776=ORIENTED_EDGE('',*,*,#775,.F.);
#777=EDGE_LOOP('',(#770,#772,#774,#776));
#778=FACE_OUTER_BOUND('',#777,.F.);
#780=FILL_AREA_STYLE_COLOUR('',#18);
#781=FILL_AREA_STYLE('',(#780));
#782=SURFACE_STYLE_FILL_AREA(#781);
#783=SURFACE_SIDE_STYLE('',(#782));
#784=SURFACE_STYLE_USAGE(.POSITIVE.,#783);
#785=PRESENTATION_STYLE_ASSIGNMENT((#784));
#786=STYLED_ITEM('',(#785),#779);
#787=CARTESIAN_POINT('',(0.E0,1.E-1,2.5E0));
#788=DIRECTION('',(0.E0,-1.E0,0.E0));
#789=DIRECTION('',(0.E0,0.E0,-1.E0));
#790=AXIS2_PLACEMENT_3D('',#787,#788,#789);
#791=CYLINDRICAL_SURFACE('',#790,3.E-1);
#792=ORIENTED_EDGE('',*,*,#747,.F.);
#793=ORIENTED_EDGE('',*,*,#775,.T.);
#795=ORIENTED_EDGE('',*,*,#794,.T.);
#796=ORIENTED_EDGE('',*,*,#771,.F.);
#797=EDGE_LOOP('',(#792,#793,#795,#796));
#798=FACE_OUTER_BOUND('',#797,.F.);
#800=FILL_AREA_STYLE_COLOUR('',#18);
#801=FILL_AREA_STYLE('',(#800));
#802=SURFACE_STYLE_FILL_AREA(#801);
#803=SURFACE_SIDE_STYLE('',(#802));
#804=SURFACE_STYLE_USAGE(.POSITIVE.,#803);
#805=PRESENTATION_STYLE_ASSIGNMENT((#804));
#806=STYLED_ITEM('',(#805),#799);
#807=CARTESIAN_POINT('',(0.E0,-1.99E1,0.E0));
#808=DIRECTION('',(0.E0,-1.E0,0.E0));
#809=DIRECTION('',(0.E0,0.E0,-1.E0));
#810=AXIS2_PLACEMENT_3D('',#807,#808,#809);
#811=PLANE('',#810);
#812=ORIENTED_EDGE('',*,*,#773,.F.);
#813=ORIENTED_EDGE('',*,*,#794,.F.);
#814=EDGE_LOOP('',(#812,#813));
#815=FACE_OUTER_BOUND('',#814,.F.);
#817=FILL_AREA_STYLE_COLOUR('',#18);
#818=FILL_AREA_STYLE('',(#817));
#819=SURFACE_STYLE_FILL_AREA(#818);
#820=SURFACE_SIDE_STYLE('',(#819));
#821=SURFACE_STYLE_USAGE(.POSITIVE.,#820);
#822=PRESENTATION_STYLE_ASSIGNMENT((#821));
#823=STYLED_ITEM('',(#822),#816);
#824=CARTESIAN_POINT('',(0.E0,1.E-1,-2.5E0));
#825=DIRECTION('',(0.E0,-1.E0,0.E0));
#826=DIRECTION('',(-1.E0,0.E0,0.E0));
#827=AXIS2_PLACEMENT_3D('',#824,#825,#826);
#828=CYLINDRICAL_SURFACE('',#827,3.E-1);
#829=ORIENTED_EDGE('',*,*,#751,.F.);
#831=ORIENTED_EDGE('',*,*,#830,.T.);
#833=ORIENTED_EDGE('',*,*,#832,.T.);
#835=ORIENTED_EDGE('',*,*,#834,.F.);
#836=EDGE_LOOP('',(#829,#831,#833,#835));
#837=FACE_OUTER_BOUND('',#836,.F.);
#839=FILL_AREA_STYLE_COLOUR('',#18);
#840=FILL_AREA_STYLE('',(#839));
#841=SURFACE_STYLE_FILL_AREA(#840);
#842=SURFACE_SIDE_STYLE('',(#841));
#843=SURFACE_STYLE_USAGE(.POSITIVE.,#842);
#844=PRESENTATION_STYLE_ASSIGNMENT((#843));
#845=STYLED_ITEM('',(#844),#838);
#846=CARTESIAN_POINT('',(0.E0,1.E-1,-2.5E0));
#847=DIRECTION('',(0.E0,-1.E0,0.E0));
#848=DIRECTION('',(-1.E0,0.E0,0.E0));
#849=AXIS2_PLACEMENT_3D('',#846,#847,#848);
#850=CYLINDRICAL_SURFACE('',#849,3.E-1);
#851=ORIENTED_EDGE('',*,*,#753,.F.);
#852=ORIENTED_EDGE('',*,*,#834,.T.);
#854=ORIENTED_EDGE('',*,*,#853,.T.);
#855=ORIENTED_EDGE('',*,*,#830,.F.);
#856=EDGE_LOOP('',(#851,#852,#854,#855));
#857=FACE_OUTER_BOUND('',#856,.F.);
#859=FILL_AREA_STYLE_COLOUR('',#18);
#860=FILL_AREA_STYLE('',(#859));
#861=SURFACE_STYLE_FILL_AREA(#860);
#862=SURFACE_SIDE_STYLE('',(#861));
#863=SURFACE_STYLE_USAGE(.POSITIVE.,#862);
#864=PRESENTATION_STYLE_ASSIGNMENT((#863));
#865=STYLED_ITEM('',(#864),#858);
#866=CARTESIAN_POINT('',(0.E0,-2.49E1,0.E0));
#867=DIRECTION('',(0.E0,-1.E0,0.E0));
#868=DIRECTION('',(-1.E0,0.E0,0.E0));
#869=AXIS2_PLACEMENT_3D('',#866,#867,#868);
#870=PLANE('',#869);
#871=ORIENTED_EDGE('',*,*,#832,.F.);
#872=ORIENTED_EDGE('',*,*,#853,.F.);
#873=EDGE_LOOP('',(#871,#872));
#874=FACE_OUTER_BOUND('',#873,.F.);
#876=FILL_AREA_STYLE_COLOUR('',#18);
#877=FILL_AREA_STYLE('',(#876));
#878=SURFACE_STYLE_FILL_AREA(#877);
#879=SURFACE_SIDE_STYLE('',(#878));
#880=SURFACE_STYLE_USAGE(.POSITIVE.,#879);
#881=PRESENTATION_STYLE_ASSIGNMENT((#880));
#882=STYLED_ITEM('',(#881),#875);
#883=CLOSED_SHELL('',(#357,#379,#403,#424,#443,#468,#488,#513,#535,#557,#578,
#599,#618,#641,#663,#676,#686,#708,#728,#757,#779,#799,#816,#838,#858,#875));
#884=MANIFOLD_SOLID_BREP('',#883);
#887=PLANE_ANGLE_MEASURE_WITH_UNIT(PLANE_ANGLE_MEASURE(1.745329251994E-2),#886);
#888=(CONVERSION_BASED_UNIT('DEGREE',#887)NAMED_UNIT(*)PLANE_ANGLE_UNIT());
#890=UNCERTAINTY_MEASURE_WITH_UNIT(LENGTH_MEASURE(5.186323171095E-3),#885,
'distance_accuracy_value',
'Maximum model space distance between geometric entities at asserted connectivities');
#892=CARTESIAN_POINT('',(0.E0,0.E0,0.E0));
#893=DIRECTION('',(0.E0,0.E0,1.E0));
#894=DIRECTION('',(1.E0,0.E0,0.E0));
#897=APPLICATION_CONTEXT('automotive_design');
#898=APPLICATION_PROTOCOL_DEFINITION('international standard',
'automotive_design',2001,#897);
#899=PRODUCT_DEFINITION_CONTEXT('part definition',#897,'design');
#900=PRODUCT_CONTEXT('',#897,'mechanical');
#901=PRODUCT('0100200000','0100200000','NOT SPECIFIED',(#900));
#902=PRODUCT_DEFINITION_FORMATION('78','LAST_VERSION',#901);
#910=DERIVED_UNIT_ELEMENT(#909,2.E0);
#911=DERIVED_UNIT((#910));
#912=MEASURE_REPRESENTATION_ITEM('surface area measure',AREA_MEASURE(
1.028138745958E3),#911);
#917=DERIVED_UNIT_ELEMENT(#916,3.E0);
#918=DERIVED_UNIT((#917));
#919=MEASURE_REPRESENTATION_ITEM('volume measure',VOLUME_MEASURE(
1.964804722621E3),#918);
#923=CARTESIAN_POINT('centre point',(1.985768979030E-7,1.240380164269E1,
-1.798344892699E-3));
#928=DERIVED_UNIT_ELEMENT(#927,2.E0);
#929=DERIVED_UNIT((#928));
#930=MEASURE_REPRESENTATION_ITEM('surface area measure',AREA_MEASURE(
1.028138745958E3),#929);
#935=DERIVED_UNIT_ELEMENT(#934,3.E0);
#936=DERIVED_UNIT((#935));
#937=MEASURE_REPRESENTATION_ITEM('volume measure',VOLUME_MEASURE(
1.964804722621E3),#936);
#941=CARTESIAN_POINT('centre point',(1.985768979030E-7,1.240380164269E1,
-1.798344892699E-3));
#951=CARTESIAN_POINT('centre point',(5.000000198577E0,3.730380164269E1,
-5.001798344893E0));
#955=CARTESIAN_POINT('',(5.E0,2.49E1,-5.E0));
#956=DIRECTION('',(0.E0,0.E0,1.E0));
#957=DIRECTION('',(1.E0,0.E0,0.E0));
#958=AXIS2_PLACEMENT_3D('',#955,#956,#957);
#959=ITEM_DEFINED_TRANSFORMATION('','',#895,#958);
#960=(REPRESENTATION_RELATIONSHIP('','',#896,#948)REPRESENTATION_RELATIONSHIP_WITH_TRANSFORMATION(#959)SHAPE_REPRESENTATION_RELATIONSHIP());
#961=CONTEXT_DEPENDENT_SHAPE_REPRESENTATION(#960,#950);
#963=CARTESIAN_POINT('',(0.E0,0.E0,0.E0));
#964=DIRECTION('',(0.E0,-1.E0,0.E0));
#965=DIRECTION('',(3.230924993209E-1,0.E0,9.463673900143E-1));
#966=AXIS2_PLACEMENT_3D('',#963,#964,#965);
#968=DIRECTION('',(-1.681184052517E-13,0.E0,1.E0));
#969=VECTOR('',#968,5.283052848203E-3);
#970=CARTESIAN_POINT('',(-1.615462496604E0,0.E0,4.731836950072E0));
#971=LINE('',#970,#969);
#972=CARTESIAN_POINT('',(0.E0,0.E0,0.E0));
#973=DIRECTION('',(0.E0,1.E0,0.E0));
#974=DIRECTION('',(-3.227697295913E-1,0.E0,9.464775230609E-1));
#975=AXIS2_PLACEMENT_3D('',#972,#973,#974);
#977=DIRECTION('',(-2.521776078775E-13,0.E0,-1.E0));
#978=VECTOR('',#977,5.283052848202E-3);
#979=CARTESIAN_POINT('',(1.615462496605E0,0.E0,4.737120002920E0));
#980=LINE('',#979,#978);
#981=DIRECTION('',(0.E0,1.E0,0.E0));
#982=VECTOR('',#981,2.29E1);
#983=CARTESIAN_POINT('',(1.615462496605E0,0.E0,4.731836950072E0));
#984=LINE('',#983,#982);
#985=DIRECTION('',(0.E0,1.E0,0.E0));
#986=VECTOR('',#985,2.29E1);
#987=CARTESIAN_POINT('',(1.615462496605E0,0.E0,4.737120002920E0));
#988=LINE('',#987,#986);
#989=DIRECTION('',(0.E0,1.E0,0.E0));
#990=VECTOR('',#989,2.29E1);
#991=CARTESIAN_POINT('',(-1.615462496604E0,0.E0,4.737120002920E0));
#992=LINE('',#991,#990);
#993=DIRECTION('',(0.E0,1.E0,0.E0));
#994=VECTOR('',#993,2.29E1);
#995=CARTESIAN_POINT('',(-1.615462496604E0,0.E0,4.731836950072E0));
#996=LINE('',#995,#994);
#997=CARTESIAN_POINT('',(0.E0,2.29E1,0.E0));
#998=DIRECTION('',(0.E0,-1.E0,0.E0));
#999=DIRECTION('',(3.230924993209E-1,0.E0,9.463673900143E-1));
#1000=AXIS2_PLACEMENT_3D('',#997,#998,#999);
#1002=DIRECTION('',(-2.942072091905E-13,0.E0,-1.E0));
#1003=VECTOR('',#1002,5.283052848202E-3);
#1004=CARTESIAN_POINT('',(1.615462496605E0,2.29E1,4.737120002920E0));
#1005=LINE('',#1004,#1003);
#1006=CARTESIAN_POINT('',(0.E0,2.29E1,0.E0));
#1007=DIRECTION('',(0.E0,1.E0,0.E0));
#1008=DIRECTION('',(-3.227697295913E-1,0.E0,9.464775230609E-1));
#1009=AXIS2_PLACEMENT_3D('',#1006,#1007,#1008);
#1011=DIRECTION('',(-1.681184052517E-13,0.E0,1.E0));
#1012=VECTOR('',#1011,5.283052848203E-3);
#1013=CARTESIAN_POINT('',(-1.615462496604E0,2.29E1,4.731836950072E0));
#1014=LINE('',#1013,#1012);
#1015=CARTESIAN_POINT('',(1.615462496605E0,0.E0,4.731836950072E0));
#1016=CARTESIAN_POINT('',(-1.615462496604E0,0.E0,4.731836950072E0));
#1017=VERTEX_POINT('',#1015);
#1018=VERTEX_POINT('',#1016);
#1019=CARTESIAN_POINT('',(-1.615462496604E0,0.E0,4.737120002920E0));
#1020=VERTEX_POINT('',#1019);
#1021=CARTESIAN_POINT('',(1.615462496605E0,0.E0,4.737120002920E0));
#1022=VERTEX_POINT('',#1021);
#1023=CARTESIAN_POINT('',(1.615462496605E0,2.29E1,4.731836950072E0));
#1024=CARTESIAN_POINT('',(-1.615462496604E0,2.29E1,4.731836950072E0));
#1025=VERTEX_POINT('',#1023);
#1026=VERTEX_POINT('',#1024);
#1027=CARTESIAN_POINT('',(-1.615462496604E0,2.29E1,4.737120002920E0));
#1028=VERTEX_POINT('',#1027);
#1029=CARTESIAN_POINT('',(1.615462496605E0,2.29E1,4.737120002920E0));
#1030=VERTEX_POINT('',#1029);
#1031=CARTESIAN_POINT('',(0.E0,0.E0,0.E0));
#1032=DIRECTION('',(0.E0,1.E0,0.E0));
#1033=DIRECTION('',(1.E0,0.E0,0.E0));
#1034=AXIS2_PLACEMENT_3D('',#1031,#1032,#1033);
#1035=PLANE('',#1034);
#1037=ORIENTED_EDGE('',*,*,#1036,.T.);
#1039=ORIENTED_EDGE('',*,*,#1038,.T.);
#1041=ORIENTED_EDGE('',*,*,#1040,.T.);
#1043=ORIENTED_EDGE('',*,*,#1042,.T.);
#1044=EDGE_LOOP('',(#1037,#1039,#1041,#1043));
#1045=FACE_OUTER_BOUND('',#1044,.F.);
#1047=CARTESIAN_POINT('',(0.E0,0.E0,0.E0));
#1048=DIRECTION('',(0.E0,1.E0,0.E0));
#1049=DIRECTION('',(1.E0,0.E0,0.E0));
#1050=AXIS2_PLACEMENT_3D('',#1047,#1048,#1049);
#1051=CYLINDRICAL_SURFACE('',#1050,5.E0);
#1052=ORIENTED_EDGE('',*,*,#1036,.F.);
#1054=ORIENTED_EDGE('',*,*,#1053,.T.);
#1056=ORIENTED_EDGE('',*,*,#1055,.T.);
#1058=ORIENTED_EDGE('',*,*,#1057,.F.);
#1059=EDGE_LOOP('',(#1052,#1054,#1056,#1058));
#1060=FACE_OUTER_BOUND('',#1059,.F.);
#1062=CARTESIAN_POINT('',(1.615462496605E0,0.E0,4.737120002920E0));
#1063=DIRECTION('',(1.E0,0.E0,0.E0));
#1064=DIRECTION('',(0.E0,0.E0,-1.E0));
#1065=AXIS2_PLACEMENT_3D('',#1062,#1063,#1064);
#1066=PLANE('',#1065);
#1067=ORIENTED_EDGE('',*,*,#1042,.F.);
#1069=ORIENTED_EDGE('',*,*,#1068,.T.);
#1071=ORIENTED_EDGE('',*,*,#1070,.T.);
#1072=ORIENTED_EDGE('',*,*,#1053,.F.);
#1073=EDGE_LOOP('',(#1067,#1069,#1071,#1072));
#1074=FACE_OUTER_BOUND('',#1073,.F.);
#1076=CARTESIAN_POINT('',(0.E0,0.E0,0.E0));
#1077=DIRECTION('',(0.E0,1.E0,0.E0));
#1078=DIRECTION('',(1.E0,0.E0,0.E0));
#1079=AXIS2_PLACEMENT_3D('',#1076,#1077,#1078);
#1080=CYLINDRICAL_SURFACE('',#1079,5.005E0);
#1081=ORIENTED_EDGE('',*,*,#1040,.F.);
#1083=ORIENTED_EDGE('',*,*,#1082,.T.);
#1085=ORIENTED_EDGE('',*,*,#1084,.T.);
#1086=ORIENTED_EDGE('',*,*,#1068,.F.);
#1087=EDGE_LOOP('',(#1081,#1083,#1085,#1086));
#1088=FACE_OUTER_BOUND('',#1087,.F.);
#1090=FILL_AREA_STYLE_COLOUR('',#13);
#1091=FILL_AREA_STYLE('',(#1090));
#1092=SURFACE_STYLE_FILL_AREA(#1091);
#1093=SURFACE_SIDE_STYLE('',(#1092));
#1094=SURFACE_STYLE_USAGE(.BOTH.,#1093);
#1095=PRESENTATION_STYLE_ASSIGNMENT((#1094));
#1096=STYLED_ITEM('',(#1095),#1089);
#1097=CARTESIAN_POINT('',(-1.615462496604E0,0.E0,4.731836950072E0));
#1098=DIRECTION('',(-1.E0,0.E0,0.E0));
#1099=DIRECTION('',(0.E0,0.E0,1.E0));
#1100=AXIS2_PLACEMENT_3D('',#1097,#1098,#1099);
#1101=PLANE('',#1100);
#1102=ORIENTED_EDGE('',*,*,#1038,.F.);
#1103=ORIENTED_EDGE('',*,*,#1057,.T.);
#1105=ORIENTED_EDGE('',*,*,#1104,.T.);
#1106=ORIENTED_EDGE('',*,*,#1082,.F.);
#1107=EDGE_LOOP('',(#1102,#1103,#1105,#1106));
#1108=FACE_OUTER_BOUND('',#1107,.F.);
#1110=CARTESIAN_POINT('',(0.E0,2.29E1,0.E0));
#1111=DIRECTION('',(0.E0,1.E0,0.E0));
#1112=DIRECTION('',(1.E0,0.E0,0.E0));
#1113=AXIS2_PLACEMENT_3D('',#1110,#1111,#1112);
#1114=PLANE('',#1113);
#1115=ORIENTED_EDGE('',*,*,#1055,.F.);
#1116=ORIENTED_EDGE('',*,*,#1070,.F.);
#1117=ORIENTED_EDGE('',*,*,#1084,.F.);
#1118=ORIENTED_EDGE('',*,*,#1104,.F.);
#1119=EDGE_LOOP('',(#1115,#1116,#1117,#1118));
#1120=FACE_OUTER_BOUND('',#1119,.F.);
#1122=CLOSED_SHELL('',(#1046,#1061,#1075,#1089,#1109,#1121));
#1123=MANIFOLD_SOLID_BREP('',#1122);
#1126=PLANE_ANGLE_MEASURE_WITH_UNIT(PLANE_ANGLE_MEASURE(1.745329251994E-2),
#1125);
#1127=(CONVERSION_BASED_UNIT('DEGREE',#1126)NAMED_UNIT(*)PLANE_ANGLE_UNIT());
#1129=UNCERTAINTY_MEASURE_WITH_UNIT(LENGTH_MEASURE(2.312748800324E-3),#1124,
'distance_accuracy_value',
'Maximum model space distance between geometric entities at asserted connectivities');
#1131=CARTESIAN_POINT('',(0.E0,0.E0,0.E0));
#1132=DIRECTION('',(0.E0,0.E0,1.E0));
#1133=DIRECTION('',(1.E0,0.E0,0.E0));
#1136=PRODUCT_CONTEXT('',#897,'mechanical');
#1137=PRODUCT('FJBBBB1','FJBBBB1','NOT SPECIFIED',(#1136));
#1138=PRODUCT_DEFINITION_FORMATION('2','LAST_VERSION',#1137);
#1146=DERIVED_UNIT_ELEMENT(#1145,2.E0);
#1147=DERIVED_UNIT((#1146));
#1148=MEASURE_REPRESENTATION_ITEM('surface area measure',AREA_MEASURE(
1.509519329542E2),#1147);
#1153=DERIVED_UNIT_ELEMENT(#1152,3.E0);
#1154=DERIVED_UNIT((#1153));
#1155=MEASURE_REPRESENTATION_ITEM('volume measure',VOLUME_MEASURE(
3.766926717378E-1),#1154);
#1159=CARTESIAN_POINT('centre point',(-2.283066596370E-11,1.145E1,
4.912836244953E0));
#1164=DERIVED_UNIT_ELEMENT(#1163,2.E0);
#1165=DERIVED_UNIT((#1164));
#1166=MEASURE_REPRESENTATION_ITEM('surface area measure',AREA_MEASURE(
1.509519329542E2),#1165);
#1171=DERIVED_UNIT_ELEMENT(#1170,3.E0);
#1172=DERIVED_UNIT((#1171));
#1173=MEASURE_REPRESENTATION_ITEM('volume measure',VOLUME_MEASURE(
3.766926717378E-1),#1172);
#1177=CARTESIAN_POINT('centre point',(-2.283066596370E-11,1.145E1,
4.912836244953E0));
#1184=CARTESIAN_POINT('centre point',(4.999999999977E0,3.809906366179E1,
-8.716375504684E-2));
#1188=CARTESIAN_POINT('',(5.E0,2.664906366179E1,-5.E0));
#1189=DIRECTION('',(0.E0,0.E0,1.E0));
#1190=DIRECTION('',(1.E0,0.E0,0.E0));
#1191=AXIS2_PLACEMENT_3D('',#1188,#1189,#1190);
#1192=ITEM_DEFINED_TRANSFORMATION('','',#1134,#1191);
#1193=(REPRESENTATION_RELATIONSHIP('','',#1135,#948)REPRESENTATION_RELATIONSHIP_WITH_TRANSFORMATION(#1192)SHAPE_REPRESENTATION_RELATIONSHIP());
#1194=CONTEXT_DEPENDENT_SHAPE_REPRESENTATION(#1193,#1183);
#1195=CARTESIAN_POINT('',(-1.134E-2,0.E0,-8.6184E-1));
#1196=DIRECTION('',(0.E0,1.E0,0.E0));
#1197=DIRECTION('',(0.E0,0.E0,-1.E0));
#1198=AXIS2_PLACEMENT_3D('',#1195,#1196,#1197);
#1200=DIRECTION('',(0.E0,0.E0,1.E0));
#1201=VECTOR('',#1200,1.72368E0);
#1202=CARTESIAN_POINT('',(-8.505E-1,0.E0,-8.6184E-1));
#1203=LINE('',#1202,#1201);
#1204=CARTESIAN_POINT('',(-1.134E-2,0.E0,8.6184E-1));
#1205=DIRECTION('',(0.E0,1.E0,0.E0));
#1206=DIRECTION('',(-1.E0,0.E0,0.E0));
#1207=AXIS2_PLACEMENT_3D('',#1204,#1205,#1206);
#1209=DIRECTION('',(1.E0,0.E0,0.E0));
#1210=VECTOR('',#1209,2.268E-2);
#1211=CARTESIAN_POINT('',(-1.134E-2,0.E0,1.701E0));
#1212=LINE('',#1211,#1210);
#1213=CARTESIAN_POINT('',(1.134E-2,0.E0,8.6184E-1));
#1214=DIRECTION('',(0.E0,1.E0,0.E0));
#1215=DIRECTION('',(0.E0,0.E0,1.E0));
#1216=AXIS2_PLACEMENT_3D('',#1213,#1214,#1215);
#1218=DIRECTION('',(0.E0,0.E0,-1.E0));
#1219=VECTOR('',#1218,1.72368E0);
#1220=CARTESIAN_POINT('',(8.505E-1,0.E0,8.6184E-1));
#1221=LINE('',#1220,#1219);
#1222=CARTESIAN_POINT('',(1.134E-2,0.E0,-8.6184E-1));
#1223=DIRECTION('',(0.E0,1.E0,0.E0));
#1224=DIRECTION('',(1.E0,0.E0,0.E0));
#1225=AXIS2_PLACEMENT_3D('',#1222,#1223,#1224);
#1227=DIRECTION('',(-1.E0,0.E0,0.E0));
#1228=VECTOR('',#1227,2.268E-2);
#1229=CARTESIAN_POINT('',(1.134E-2,0.E0,-1.701E0));
#1230=LINE('',#1229,#1228);
#1231=DIRECTION('',(1.E0,0.E0,0.E0));
#1232=VECTOR('',#1231,4.037142947491E-3);
#1233=CARTESIAN_POINT('',(-2.018571473745E-3,0.E0,-1.236743717903E0));
#1234=LINE('',#1233,#1232);
#1235=CARTESIAN_POINT('',(2.018571473746E-3,0.E0,-7.264437179028E-1));
#1236=DIRECTION('',(0.E0,-1.E0,0.E0));
#1237=DIRECTION('',(0.E0,0.E0,-1.E0));
#1238=AXIS2_PLACEMENT_3D('',#1235,#1236,#1237);
#1240=DIRECTION('',(0.E0,0.E0,1.E0));
#1241=VECTOR('',#1240,1.452887435806E0);
#1242=CARTESIAN_POINT('',(5.123185714737E-1,0.E0,-7.264437179028E-1));
#1243=LINE('',#1242,#1241);
#1244=CARTESIAN_POINT('',(2.018571473746E-3,0.E0,7.264437179028E-1));
#1245=DIRECTION('',(0.E0,-1.E0,0.E0));
#1246=DIRECTION('',(1.E0,0.E0,0.E0));
#1247=AXIS2_PLACEMENT_3D('',#1244,#1245,#1246);
#1249=DIRECTION('',(-1.E0,0.E0,0.E0));
#1250=VECTOR('',#1249,4.037142947491E-3);
#1251=CARTESIAN_POINT('',(2.018571473745E-3,0.E0,1.236743717903E0));
#1252=LINE('',#1251,#1250);
#1253=CARTESIAN_POINT('',(-2.018571473746E-3,0.E0,7.264437179028E-1));
#1254=DIRECTION('',(0.E0,-1.E0,0.E0));
#1255=DIRECTION('',(0.E0,0.E0,1.E0));
#1256=AXIS2_PLACEMENT_3D('',#1253,#1254,#1255);
#1258=DIRECTION('',(0.E0,0.E0,-1.E0));
#1259=VECTOR('',#1258,1.452887435806E0);
#1260=CARTESIAN_POINT('',(-5.123185714737E-1,0.E0,7.264437179028E-1));
#1261=LINE('',#1260,#1259);
#1262=CARTESIAN_POINT('',(-2.018571473746E-3,0.E0,-7.264437179028E-1));
#1263=DIRECTION('',(0.E0,-1.E0,0.E0));
#1264=DIRECTION('',(-1.E0,0.E0,0.E0));
#1265=AXIS2_PLACEMENT_3D('',#1262,#1263,#1264);
#1267=DIRECTION('',(0.E0,1.E0,0.E0));
#1268=VECTOR('',#1267,1.134E-2);
#1269=CARTESIAN_POINT('',(-1.134E-2,0.E0,-1.701E0));
#1270=LINE('',#1269,#1268);
#1271=DIRECTION('',(0.E0,1.E0,0.E0));
#1272=VECTOR('',#1271,1.134E-2);
#1273=CARTESIAN_POINT('',(1.134E-2,0.E0,-1.701E0));
#1274=LINE('',#1273,#1272);
#1275=DIRECTION('',(0.E0,1.E0,0.E0));
#1276=VECTOR('',#1275,1.134E-2);
#1277=CARTESIAN_POINT('',(8.505E-1,0.E0,-8.6184E-1));
#1278=LINE('',#1277,#1276);
#1279=DIRECTION('',(0.E0,1.E0,0.E0));
#1280=VECTOR('',#1279,1.134E-2);
#1281=CARTESIAN_POINT('',(8.505E-1,0.E0,8.6184E-1));
#1282=LINE('',#1281,#1280);
#1283=DIRECTION('',(0.E0,1.E0,0.E0));
#1284=VECTOR('',#1283,1.134E-2);
#1285=CARTESIAN_POINT('',(1.134E-2,0.E0,1.701E0));
#1286=LINE('',#1285,#1284);
#1287=DIRECTION('',(0.E0,1.E0,0.E0));
#1288=VECTOR('',#1287,1.134E-2);
#1289=CARTESIAN_POINT('',(-1.134E-2,0.E0,1.701E0));
#1290=LINE('',#1289,#1288);
#1291=DIRECTION('',(0.E0,1.E0,0.E0));
#1292=VECTOR('',#1291,1.134E-2);
#1293=CARTESIAN_POINT('',(-8.505E-1,0.E0,8.6184E-1));
#1294=LINE('',#1293,#1292);
#1295=DIRECTION('',(0.E0,1.E0,0.E0));
#1296=VECTOR('',#1295,1.134E-2);
#1297=CARTESIAN_POINT('',(-8.505E-1,0.E0,-8.6184E-1));
#1298=LINE('',#1297,#1296);
#1299=CARTESIAN_POINT('',(-1.134E-2,1.134E-2,-8.6184E-1));
#1300=DIRECTION('',(0.E0,1.E0,0.E0));
#1301=DIRECTION('',(0.E0,0.E0,-1.E0));
#1302=AXIS2_PLACEMENT_3D('',#1299,#1300,#1301);
#1304=DIRECTION('',(-1.E0,0.E0,0.E0));
#1305=VECTOR('',#1304,2.268E-2);
#1306=CARTESIAN_POINT('',(1.134E-2,1.134E-2,-1.701E0));
#1307=LINE('',#1306,#1305);
#1308=CARTESIAN_POINT('',(1.134E-2,1.134E-2,-8.6184E-1));
#1309=DIRECTION('',(0.E0,1.E0,0.E0));
#1310=DIRECTION('',(1.E0,0.E0,0.E0));
#1311=AXIS2_PLACEMENT_3D('',#1308,#1309,#1310);
#1313=DIRECTION('',(0.E0,0.E0,-1.E0));
#1314=VECTOR('',#1313,1.72368E0);
#1315=CARTESIAN_POINT('',(8.505E-1,1.134E-2,8.6184E-1));
#1316=LINE('',#1315,#1314);
#1317=CARTESIAN_POINT('',(1.134E-2,1.134E-2,8.6184E-1));
#1318=DIRECTION('',(0.E0,1.E0,0.E0));
#1319=DIRECTION('',(0.E0,0.E0,1.E0));
#1320=AXIS2_PLACEMENT_3D('',#1317,#1318,#1319);
#1322=DIRECTION('',(1.E0,0.E0,0.E0));
#1323=VECTOR('',#1322,2.268E-2);
#1324=CARTESIAN_POINT('',(-1.134E-2,1.134E-2,1.701E0));
#1325=LINE('',#1324,#1323);
#1326=CARTESIAN_POINT('',(-1.134E-2,1.134E-2,8.6184E-1));
#1327=DIRECTION('',(0.E0,1.E0,0.E0));
#1328=DIRECTION('',(-1.E0,0.E0,0.E0));
#1329=AXIS2_PLACEMENT_3D('',#1326,#1327,#1328);
#1331=DIRECTION('',(0.E0,0.E0,1.E0));
#1332=VECTOR('',#1331,1.72368E0);
#1333=CARTESIAN_POINT('',(-8.505E-1,1.134E-2,-8.6184E-1));
#1334=LINE('',#1333,#1332);
#1335=DIRECTION('',(1.E0,0.E0,0.E0));
#1336=VECTOR('',#1335,4.037142947491E-3);
#1337=CARTESIAN_POINT('',(-2.018571473745E-3,1.134E-2,-1.236743717903E0));
#1338=LINE('',#1337,#1336);
#1339=CARTESIAN_POINT('',(-2.018571473746E-3,1.134E-2,-7.264437179028E-1));
#1340=DIRECTION('',(0.E0,-1.E0,0.E0));
#1341=DIRECTION('',(-1.E0,0.E0,0.E0));
#1342=AXIS2_PLACEMENT_3D('',#1339,#1340,#1341);
#1344=DIRECTION('',(0.E0,0.E0,-1.E0));
#1345=VECTOR('',#1344,1.452887435806E0);
#1346=CARTESIAN_POINT('',(-5.123185714737E-1,1.134E-2,7.264437179028E-1));
#1347=LINE('',#1346,#1345);
#1348=CARTESIAN_POINT('',(-2.018571473746E-3,1.134E-2,7.264437179028E-1));
#1349=DIRECTION('',(0.E0,-1.E0,0.E0));
#1350=DIRECTION('',(0.E0,0.E0,1.E0));
#1351=AXIS2_PLACEMENT_3D('',#1348,#1349,#1350);
#1353=DIRECTION('',(-1.E0,0.E0,0.E0));
#1354=VECTOR('',#1353,4.037142947491E-3);
#1355=CARTESIAN_POINT('',(2.018571473745E-3,1.134E-2,1.236743717903E0));
#1356=LINE('',#1355,#1354);
#1357=CARTESIAN_POINT('',(2.018571473746E-3,1.134E-2,7.264437179028E-1));
#1358=DIRECTION('',(0.E0,-1.E0,0.E0));
#1359=DIRECTION('',(1.E0,0.E0,0.E0));
#1360=AXIS2_PLACEMENT_3D('',#1357,#1358,#1359);
#1362=DIRECTION('',(0.E0,0.E0,1.E0));
#1363=VECTOR('',#1362,1.452887435806E0);
#1364=CARTESIAN_POINT('',(5.123185714737E-1,1.134E-2,-7.264437179028E-1));
#1365=LINE('',#1364,#1363);
#1366=CARTESIAN_POINT('',(2.018571473746E-3,1.134E-2,-7.264437179028E-1));
#1367=DIRECTION('',(0.E0,-1.E0,0.E0));
#1368=DIRECTION('',(0.E0,0.E0,-1.E0));
#1369=AXIS2_PLACEMENT_3D('',#1366,#1367,#1368);
#1371=DIRECTION('',(0.E0,1.E0,0.E0));
#1372=VECTOR('',#1371,1.134E-2);
#1373=CARTESIAN_POINT('',(-2.018571473745E-3,0.E0,-1.236743717903E0));
#1374=LINE('',#1373,#1372);
#1375=DIRECTION('',(0.E0,1.E0,0.E0));
#1376=VECTOR('',#1375,1.134E-2);
#1377=CARTESIAN_POINT('',(-5.123185714737E-1,0.E0,-7.264437179028E-1));
#1378=LINE('',#1377,#1376);
#1379=DIRECTION('',(0.E0,1.E0,0.E0));
#1380=VECTOR('',#1379,1.134E-2);
#1381=CARTESIAN_POINT('',(-5.123185714737E-1,0.E0,7.264437179028E-1));
#1382=LINE('',#1381,#1380);
#1383=DIRECTION('',(0.E0,1.E0,0.E0));
#1384=VECTOR('',#1383,1.134E-2);
#1385=CARTESIAN_POINT('',(-2.018571473746E-3,0.E0,1.236743717903E0));
#1386=LINE('',#1385,#1384);
#1387=DIRECTION('',(0.E0,1.E0,0.E0));
#1388=VECTOR('',#1387,1.134E-2);
#1389=CARTESIAN_POINT('',(2.018571473745E-3,0.E0,1.236743717903E0));
#1390=LINE('',#1389,#1388);
#1391=DIRECTION('',(0.E0,1.E0,0.E0));
#1392=VECTOR('',#1391,1.134E-2);
#1393=CARTESIAN_POINT('',(5.123185714737E-1,0.E0,7.264437179028E-1));
#1394=LINE('',#1393,#1392);
#1395=DIRECTION('',(0.E0,1.E0,0.E0));
#1396=VECTOR('',#1395,1.134E-2);
#1397=CARTESIAN_POINT('',(5.123185714737E-1,0.E0,-7.264437179028E-1));
#1398=LINE('',#1397,#1396);
#1399=DIRECTION('',(0.E0,1.E0,0.E0));
#1400=VECTOR('',#1399,1.134E-2);
#1401=CARTESIAN_POINT('',(2.018571473746E-3,0.E0,-1.236743717903E0));
#1402=LINE('',#1401,#1400);
#1403=CARTESIAN_POINT('',(-1.134E-2,0.E0,-1.701E0));
#1404=CARTESIAN_POINT('',(-8.505E-1,0.E0,-8.6184E-1));
#1405=VERTEX_POINT('',#1403);
#1406=VERTEX_POINT('',#1404);
#1407=CARTESIAN_POINT('',(-8.505E-1,0.E0,8.6184E-1));
#1408=VERTEX_POINT('',#1407);
#1409=CARTESIAN_POINT('',(-1.134E-2,0.E0,1.701E0));
#1410=VERTEX_POINT('',#1409);
#1411=CARTESIAN_POINT('',(1.134E-2,0.E0,1.701E0));
#1412=VERTEX_POINT('',#1411);
#1413=CARTESIAN_POINT('',(8.505E-1,0.E0,8.6184E-1));
#1414=VERTEX_POINT('',#1413);
#1415=CARTESIAN_POINT('',(8.505E-1,0.E0,-8.6184E-1));
#1416=VERTEX_POINT('',#1415);
#1417=CARTESIAN_POINT('',(1.134E-2,0.E0,-1.701E0));
#1418=VERTEX_POINT('',#1417);
#1419=CARTESIAN_POINT('',(-2.018571473745E-3,0.E0,-1.236743717903E0));
#1420=CARTESIAN_POINT('',(2.018571473746E-3,0.E0,-1.236743717903E0));
#1421=VERTEX_POINT('',#1419);
#1422=VERTEX_POINT('',#1420);
#1423=CARTESIAN_POINT('',(5.123185714737E-1,0.E0,-7.264437179028E-1));
#1424=VERTEX_POINT('',#1423);
#1425=CARTESIAN_POINT('',(5.123185714737E-1,0.E0,7.264437179028E-1));
#1426=VERTEX_POINT('',#1425);
#1427=CARTESIAN_POINT('',(2.018571473745E-3,0.E0,1.236743717903E0));
#1428=VERTEX_POINT('',#1427);
#1429=CARTESIAN_POINT('',(-2.018571473746E-3,0.E0,1.236743717903E0));
#1430=VERTEX_POINT('',#1429);
#1431=CARTESIAN_POINT('',(-5.123185714737E-1,0.E0,7.264437179028E-1));
#1432=VERTEX_POINT('',#1431);
#1433=CARTESIAN_POINT('',(-5.123185714737E-1,0.E0,-7.264437179028E-1));
#1434=VERTEX_POINT('',#1433);
#1435=CARTESIAN_POINT('',(-1.134E-2,1.134E-2,-1.701E0));
#1436=CARTESIAN_POINT('',(-8.505E-1,1.134E-2,-8.6184E-1));
#1437=VERTEX_POINT('',#1435);
#1438=VERTEX_POINT('',#1436);
#1439=CARTESIAN_POINT('',(-8.505E-1,1.134E-2,8.6184E-1));
#1440=VERTEX_POINT('',#1439);
#1441=CARTESIAN_POINT('',(-1.134E-2,1.134E-2,1.701E0));
#1442=VERTEX_POINT('',#1441);
#1443=CARTESIAN_POINT('',(1.134E-2,1.134E-2,1.701E0));
#1444=VERTEX_POINT('',#1443);
#1445=CARTESIAN_POINT('',(8.505E-1,1.134E-2,8.6184E-1));
#1446=VERTEX_POINT('',#1445);
#1447=CARTESIAN_POINT('',(8.505E-1,1.134E-2,-8.6184E-1));
#1448=VERTEX_POINT('',#1447);
#1449=CARTESIAN_POINT('',(1.134E-2,1.134E-2,-1.701E0));
#1450=VERTEX_POINT('',#1449);
#1451=CARTESIAN_POINT('',(-2.018571473745E-3,1.134E-2,-1.236743717903E0));
#1452=CARTESIAN_POINT('',(2.018571473746E-3,1.134E-2,-1.236743717903E0));
#1453=VERTEX_POINT('',#1451);
#1454=VERTEX_POINT('',#1452);
#1455=CARTESIAN_POINT('',(5.123185714737E-1,1.134E-2,-7.264437179028E-1));
#1456=VERTEX_POINT('',#1455);
#1457=CARTESIAN_POINT('',(5.123185714737E-1,1.134E-2,7.264437179028E-1));
#1458=VERTEX_POINT('',#1457);
#1459=CARTESIAN_POINT('',(2.018571473745E-3,1.134E-2,1.236743717903E0));
#1460=VERTEX_POINT('',#1459);
#1461=CARTESIAN_POINT('',(-2.018571473746E-3,1.134E-2,1.236743717903E0));
#1462=VERTEX_POINT('',#1461);
#1463=CARTESIAN_POINT('',(-5.123185714737E-1,1.134E-2,7.264437179028E-1));
#1464=VERTEX_POINT('',#1463);
#1465=CARTESIAN_POINT('',(-5.123185714737E-1,1.134E-2,-7.264437179028E-1));
#1466=VERTEX_POINT('',#1465);
#1467=CARTESIAN_POINT('',(0.E0,0.E0,0.E0));
#1468=DIRECTION('',(0.E0,1.E0,0.E0));
#1469=DIRECTION('',(1.E0,0.E0,0.E0));
#1470=AXIS2_PLACEMENT_3D('',#1467,#1468,#1469);
#1471=PLANE('',#1470);
#1473=ORIENTED_EDGE('',*,*,#1472,.T.);
#1475=ORIENTED_EDGE('',*,*,#1474,.T.);
#1477=ORIENTED_EDGE('',*,*,#1476,.T.);
#1479=ORIENTED_EDGE('',*,*,#1478,.T.);
#1481=ORIENTED_EDGE('',*,*,#1480,.T.);
#1483=ORIENTED_EDGE('',*,*,#1482,.T.);
#1485=ORIENTED_EDGE('',*,*,#1484,.T.);
#1487=ORIENTED_EDGE('',*,*,#1486,.T.);
#1488=EDGE_LOOP('',(#1473,#1475,#1477,#1479,#1481,#1483,#1485,#1487));
#1489=FACE_OUTER_BOUND('',#1488,.F.);
#1491=ORIENTED_EDGE('',*,*,#1490,.T.);
#1493=ORIENTED_EDGE('',*,*,#1492,.T.);
#1495=ORIENTED_EDGE('',*,*,#1494,.T.);
#1497=ORIENTED_EDGE('',*,*,#1496,.T.);
#1499=ORIENTED_EDGE('',*,*,#1498,.T.);
#1501=ORIENTED_EDGE('',*,*,#1500,.T.);
#1503=ORIENTED_EDGE('',*,*,#1502,.T.);
#1505=ORIENTED_EDGE('',*,*,#1504,.T.);
#1506=EDGE_LOOP('',(#1491,#1493,#1495,#1497,#1499,#1501,#1503,#1505));
#1507=FACE_BOUND('',#1506,.F.);
#1509=FILL_AREA_STYLE_COLOUR('',#5);
#1510=FILL_AREA_STYLE('',(#1509));
#1511=SURFACE_STYLE_FILL_AREA(#1510);
#1512=SURFACE_SIDE_STYLE('',(#1511));
#1513=SURFACE_STYLE_USAGE(.BOTH.,#1512);
#1514=PRESENTATION_STYLE_ASSIGNMENT((#1513));
#1515=STYLED_ITEM('',(#1514),#1508);
#1516=CARTESIAN_POINT('',(-1.134E-2,0.E0,-8.6184E-1));
#1517=DIRECTION('',(0.E0,1.E0,0.E0));
#1518=DIRECTION('',(1.E0,0.E0,0.E0));
#1519=AXIS2_PLACEMENT_3D('',#1516,#1517,#1518);
#1520=CYLINDRICAL_SURFACE('',#1519,8.3916E-1);
#1521=ORIENTED_EDGE('',*,*,#1472,.F.);
#1523=ORIENTED_EDGE('',*,*,#1522,.T.);
#1525=ORIENTED_EDGE('',*,*,#1524,.T.);
#1527=ORIENTED_EDGE('',*,*,#1526,.F.);
#1528=EDGE_LOOP('',(#1521,#1523,#1525,#1527));
#1529=FACE_OUTER_BOUND('',#1528,.F.);
#1531=CARTESIAN_POINT('',(1.134E-2,0.E0,-1.701E0));
#1532=DIRECTION('',(0.E0,0.E0,-1.E0));
#1533=DIRECTION('',(-1.E0,0.E0,0.E0));
#1534=AXIS2_PLACEMENT_3D('',#1531,#1532,#1533);
#1535=PLANE('',#1534);
#1536=ORIENTED_EDGE('',*,*,#1486,.F.);
#1538=ORIENTED_EDGE('',*,*,#1537,.T.);
#1540=ORIENTED_EDGE('',*,*,#1539,.T.);
#1541=ORIENTED_EDGE('',*,*,#1522,.F.);
#1542=EDGE_LOOP('',(#1536,#1538,#1540,#1541));
#1543=FACE_OUTER_BOUND('',#1542,.F.);
#1545=CARTESIAN_POINT('',(1.134E-2,0.E0,-8.6184E-1));
#1546=DIRECTION('',(0.E0,1.E0,0.E0));
#1547=DIRECTION('',(1.E0,0.E0,0.E0));
#1548=AXIS2_PLACEMENT_3D('',#1545,#1546,#1547);
#1549=CYLINDRICAL_SURFACE('',#1548,8.3916E-1);
#1550=ORIENTED_EDGE('',*,*,#1484,.F.);
#1552=ORIENTED_EDGE('',*,*,#1551,.T.);
#1554=ORIENTED_EDGE('',*,*,#1553,.T.);
#1555=ORIENTED_EDGE('',*,*,#1537,.F.);
#1556=EDGE_LOOP('',(#1550,#1552,#1554,#1555));
#1557=FACE_OUTER_BOUND('',#1556,.F.);
#1559=CARTESIAN_POINT('',(8.505E-1,0.E0,8.6184E-1));
#1560=DIRECTION('',(1.E0,0.E0,0.E0));
#1561=DIRECTION('',(0.E0,0.E0,-1.E0));
#1562=AXIS2_PLACEMENT_3D('',#1559,#1560,#1561);
#1563=PLANE('',#1562);
#1564=ORIENTED_EDGE('',*,*,#1482,.F.);
#1566=ORIENTED_EDGE('',*,*,#1565,.T.);
#1568=ORIENTED_EDGE('',*,*,#1567,.T.);
#1569=ORIENTED_EDGE('',*,*,#1551,.F.);
#1570=EDGE_LOOP('',(#1564,#1566,#1568,#1569));
#1571=FACE_OUTER_BOUND('',#1570,.F.);
#1573=CARTESIAN_POINT('',(1.134E-2,0.E0,8.6184E-1));
#1574=DIRECTION('',(0.E0,1.E0,0.E0));
#1575=DIRECTION('',(1.E0,0.E0,0.E0));
#1576=AXIS2_PLACEMENT_3D('',#1573,#1574,#1575);
#1577=CYLINDRICAL_SURFACE('',#1576,8.3916E-1);
#1578=ORIENTED_EDGE('',*,*,#1480,.F.);
#1580=ORIENTED_EDGE('',*,*,#1579,.T.);
#1582=ORIENTED_EDGE('',*,*,#1581,.T.);
#1583=ORIENTED_EDGE('',*,*,#1565,.F.);
#1584=EDGE_LOOP('',(#1578,#1580,#1582,#1583));
#1585=FACE_OUTER_BOUND('',#1584,.F.);
#1587=CARTESIAN_POINT('',(-1.134E-2,0.E0,1.701E0));
#1588=DIRECTION('',(0.E0,0.E0,1.E0));
#1589=DIRECTION('',(1.E0,0.E0,0.E0));
#1590=AXIS2_PLACEMENT_3D('',#1587,#1588,#1589);
#1591=PLANE('',#1590);
#1592=ORIENTED_EDGE('',*,*,#1478,.F.);
#1594=ORIENTED_EDGE('',*,*,#1593,.T.);
#1596=ORIENTED_EDGE('',*,*,#1595,.T.);
#1597=ORIENTED_EDGE('',*,*,#1579,.F.);
#1598=EDGE_LOOP('',(#1592,#1594,#1596,#1597));
#1599=FACE_OUTER_BOUND('',#1598,.F.);
#1601=CARTESIAN_POINT('',(-1.134E-2,0.E0,8.6184E-1));
#1602=DIRECTION('',(0.E0,1.E0,0.E0));
#1603=DIRECTION('',(1.E0,0.E0,0.E0));
#1604=AXIS2_PLACEMENT_3D('',#1601,#1602,#1603);
#1605=CYLINDRICAL_SURFACE('',#1604,8.3916E-1);
#1606=ORIENTED_EDGE('',*,*,#1476,.F.);
#1608=ORIENTED_EDGE('',*,*,#1607,.T.);
#1610=ORIENTED_EDGE('',*,*,#1609,.T.);
#1611=ORIENTED_EDGE('',*,*,#1593,.F.);
#1612=EDGE_LOOP('',(#1606,#1608,#1610,#1611));
#1613=FACE_OUTER_BOUND('',#1612,.F.);
#1615=CARTESIAN_POINT('',(-8.505E-1,0.E0,-8.6184E-1));
#1616=DIRECTION('',(-1.E0,0.E0,0.E0));
#1617=DIRECTION('',(0.E0,0.E0,1.E0));
#1618=AXIS2_PLACEMENT_3D('',#1615,#1616,#1617);
#1619=PLANE('',#1618);
#1620=ORIENTED_EDGE('',*,*,#1474,.F.);
#1621=ORIENTED_EDGE('',*,*,#1526,.T.);
#1623=ORIENTED_EDGE('',*,*,#1622,.T.);
#1624=ORIENTED_EDGE('',*,*,#1607,.F.);
#1625=EDGE_LOOP('',(#1620,#1621,#1623,#1624));
#1626=FACE_OUTER_BOUND('',#1625,.F.);
#1628=CARTESIAN_POINT('',(0.E0,1.134E-2,0.E0));
#1629=DIRECTION('',(0.E0,1.E0,0.E0));
#1630=DIRECTION('',(1.E0,0.E0,0.E0));
#1631=AXIS2_PLACEMENT_3D('',#1628,#1629,#1630);
#1632=PLANE('',#1631);
#1633=ORIENTED_EDGE('',*,*,#1524,.F.);
#1634=ORIENTED_EDGE('',*,*,#1539,.F.);
#1635=ORIENTED_EDGE('',*,*,#1553,.F.);
#1636=ORIENTED_EDGE('',*,*,#1567,.F.);
#1637=ORIENTED_EDGE('',*,*,#1581,.F.);
#1638=ORIENTED_EDGE('',*,*,#1595,.F.);
#1639=ORIENTED_EDGE('',*,*,#1609,.F.);
#1640=ORIENTED_EDGE('',*,*,#1622,.F.);
#1641=EDGE_LOOP('',(#1633,#1634,#1635,#1636,#1637,#1638,#1639,#1640));
#1642=FACE_OUTER_BOUND('',#1641,.F.);
#1644=ORIENTED_EDGE('',*,*,#1643,.F.);
#1646=ORIENTED_EDGE('',*,*,#1645,.F.);
#1648=ORIENTED_EDGE('',*,*,#1647,.F.);
#1650=ORIENTED_EDGE('',*,*,#1649,.F.);
#1652=ORIENTED_EDGE('',*,*,#1651,.F.);
#1654=ORIENTED_EDGE('',*,*,#1653,.F.);
#1656=ORIENTED_EDGE('',*,*,#1655,.F.);
#1658=ORIENTED_EDGE('',*,*,#1657,.F.);
#1659=EDGE_LOOP('',(#1644,#1646,#1648,#1650,#1652,#1654,#1656,#1658));
#1660=FACE_BOUND('',#1659,.F.);
#1662=FILL_AREA_STYLE_COLOUR('',#13);
#1663=FILL_AREA_STYLE('',(#1662));
#1664=SURFACE_STYLE_FILL_AREA(#1663);
#1665=SURFACE_SIDE_STYLE('',(#1664));
#1666=SURFACE_STYLE_USAGE(.POSITIVE.,#1665);
#1667=PRESENTATION_STYLE_ASSIGNMENT((#1666));
#1668=STYLED_ITEM('',(#1667),#1661);
#1669=CARTESIAN_POINT('',(-2.018571473746E-3,0.E0,-1.236743717903E0));
#1670=DIRECTION('',(0.E0,0.E0,1.E0));
#1671=DIRECTION('',(1.E0,0.E0,0.E0));
#1672=AXIS2_PLACEMENT_3D('',#1669,#1670,#1671);
#1673=PLANE('',#1672);
#1674=ORIENTED_EDGE('',*,*,#1490,.F.);
#1676=ORIENTED_EDGE('',*,*,#1675,.T.);
#1677=ORIENTED_EDGE('',*,*,#1643,.T.);
#1679=ORIENTED_EDGE('',*,*,#1678,.F.);
#1680=EDGE_LOOP('',(#1674,#1676,#1677,#1679));
#1681=FACE_OUTER_BOUND('',#1680,.F.);
#1683=CARTESIAN_POINT('',(-2.018571473746E-3,0.E0,-7.264437179028E-1));
#1684=DIRECTION('',(0.E0,1.E0,0.E0));
#1685=DIRECTION('',(1.E0,0.E0,0.E0));
#1686=AXIS2_PLACEMENT_3D('',#1683,#1684,#1685);
#1687=CYLINDRICAL_SURFACE('',#1686,5.103E-1);
#1688=ORIENTED_EDGE('',*,*,#1504,.F.);
#1690=ORIENTED_EDGE('',*,*,#1689,.T.);
#1691=ORIENTED_EDGE('',*,*,#1645,.T.);
#1692=ORIENTED_EDGE('',*,*,#1675,.F.);
#1693=EDGE_LOOP('',(#1688,#1690,#1691,#1692));
#1694=FACE_OUTER_BOUND('',#1693,.F.);
#1696=CARTESIAN_POINT('',(-5.123185714737E-1,0.E0,7.264437179028E-1));
#1697=DIRECTION('',(1.E0,0.E0,0.E0));
#1698=DIRECTION('',(0.E0,0.E0,-1.E0));
#1699=AXIS2_PLACEMENT_3D('',#1696,#1697,#1698);
#1700=PLANE('',#1699);
#1701=ORIENTED_EDGE('',*,*,#1502,.F.);
#1703=ORIENTED_EDGE('',*,*,#1702,.T.);
#1704=ORIENTED_EDGE('',*,*,#1647,.T.);
#1705=ORIENTED_EDGE('',*,*,#1689,.F.);
#1706=EDGE_LOOP('',(#1701,#1703,#1704,#1705));
#1707=FACE_OUTER_BOUND('',#1706,.F.);
#1709=CARTESIAN_POINT('',(-2.018571473746E-3,0.E0,7.264437179028E-1));
#1710=DIRECTION('',(0.E0,1.E0,0.E0));
#1711=DIRECTION('',(1.E0,0.E0,0.E0));
#1712=AXIS2_PLACEMENT_3D('',#1709,#1710,#1711);
#1713=CYLINDRICAL_SURFACE('',#1712,5.103E-1);
#1714=ORIENTED_EDGE('',*,*,#1500,.F.);
#1716=ORIENTED_EDGE('',*,*,#1715,.T.);
#1717=ORIENTED_EDGE('',*,*,#1649,.T.);
#1718=ORIENTED_EDGE('',*,*,#1702,.F.);
#1719=EDGE_LOOP('',(#1714,#1716,#1717,#1718));
#1720=FACE_OUTER_BOUND('',#1719,.F.);
#1722=CARTESIAN_POINT('',(2.018571473746E-3,0.E0,1.236743717903E0));
#1723=DIRECTION('',(0.E0,0.E0,-1.E0));
#1724=DIRECTION('',(-1.E0,0.E0,0.E0));
#1725=AXIS2_PLACEMENT_3D('',#1722,#1723,#1724);
#1726=PLANE('',#1725);
#1727=ORIENTED_EDGE('',*,*,#1498,.F.);
#1729=ORIENTED_EDGE('',*,*,#1728,.T.);
#1730=ORIENTED_EDGE('',*,*,#1651,.T.);
#1731=ORIENTED_EDGE('',*,*,#1715,.F.);
#1732=EDGE_LOOP('',(#1727,#1729,#1730,#1731));
#1733=FACE_OUTER_BOUND('',#1732,.F.);
#1735=CARTESIAN_POINT('',(2.018571473746E-3,0.E0,7.264437179028E-1));
#1736=DIRECTION('',(0.E0,1.E0,0.E0));
#1737=DIRECTION('',(1.E0,0.E0,0.E0));
#1738=AXIS2_PLACEMENT_3D('',#1735,#1736,#1737);
#1739=CYLINDRICAL_SURFACE('',#1738,5.103E-1);
#1740=ORIENTED_EDGE('',*,*,#1496,.F.);
#1742=ORIENTED_EDGE('',*,*,#1741,.T.);
#1743=ORIENTED_EDGE('',*,*,#1653,.T.);
#1744=ORIENTED_EDGE('',*,*,#1728,.F.);
#1745=EDGE_LOOP('',(#1740,#1742,#1743,#1744));
#1746=FACE_OUTER_BOUND('',#1745,.F.);
#1748=CARTESIAN_POINT('',(5.123185714737E-1,0.E0,-7.264437179028E-1));
#1749=DIRECTION('',(-1.E0,0.E0,0.E0));
#1750=DIRECTION('',(0.E0,0.E0,1.E0));
#1751=AXIS2_PLACEMENT_3D('',#1748,#1749,#1750);
#1752=PLANE('',#1751);
#1753=ORIENTED_EDGE('',*,*,#1494,.F.);
#1755=ORIENTED_EDGE('',*,*,#1754,.T.);
#1756=ORIENTED_EDGE('',*,*,#1655,.T.);
#1757=ORIENTED_EDGE('',*,*,#1741,.F.);
#1758=EDGE_LOOP('',(#1753,#1755,#1756,#1757));
#1759=FACE_OUTER_BOUND('',#1758,.F.);
#1761=CARTESIAN_POINT('',(2.018571473746E-3,0.E0,-7.264437179028E-1));
#1762=DIRECTION('',(0.E0,1.E0,0.E0));
#1763=DIRECTION('',(1.E0,0.E0,0.E0));
#1764=AXIS2_PLACEMENT_3D('',#1761,#1762,#1763);
#1765=CYLINDRICAL_SURFACE('',#1764,5.103E-1);
#1766=ORIENTED_EDGE('',*,*,#1492,.F.);
#1767=ORIENTED_EDGE('',*,*,#1678,.T.);
#1768=ORIENTED_EDGE('',*,*,#1657,.T.);
#1769=ORIENTED_EDGE('',*,*,#1754,.F.);
#1770=EDGE_LOOP('',(#1766,#1767,#1768,#1769));
#1771=FACE_OUTER_BOUND('',#1770,.F.);
#1773=CLOSED_SHELL('',(#1508,#1530,#1544,#1558,#1572,#1586,#1600,#1614,#1627,
#1661,#1682,#1695,#1708,#1721,#1734,#1747,#1760,#1772));
#1774=MANIFOLD_SOLID_BREP('',#1773);
#1777=PLANE_ANGLE_MEASURE_WITH_UNIT(PLANE_ANGLE_MEASURE(1.745329251994E-2),
#1776);
#1778=(CONVERSION_BASED_UNIT('DEGREE',#1777)NAMED_UNIT(*)PLANE_ANGLE_UNIT());
#1780=UNCERTAINTY_MEASURE_WITH_UNIT(LENGTH_MEASURE(4.183739436428E-4),#1775,
'distance_accuracy_value',
'Maximum model space distance between geometric entities at asserted connectivities');
#1782=CARTESIAN_POINT('',(0.E0,0.E0,0.E0));
#1783=DIRECTION('',(0.E0,0.E0,1.E0));
#1784=DIRECTION('',(1.E0,0.E0,0.E0));
#1787=PRODUCT_DEFINITION_CONTEXT('part definition',#897,'design');
#1788=PRODUCT_CONTEXT('',#897,'mechanical');
#1789=PRODUCT('YUAN10002000','YUAN10002000','NOT SPECIFIED',(#1788));
#1790=PRODUCT_DEFINITION_FORMATION('11','LAST_VERSION',#1789);
#1798=DERIVED_UNIT_ELEMENT(#1797,2.E0);
#1799=DERIVED_UNIT((#1798));
#1800=MEASURE_REPRESENTATION_ITEM('surface area measure',AREA_MEASURE(
5.911657215386E0),#1799);
#1805=DERIVED_UNIT_ELEMENT(#1804,3.E0);
#1806=DERIVED_UNIT((#1805));
#1807=MEASURE_REPRESENTATION_ITEM('volume measure',VOLUME_MEASURE(
3.256199302635E-2),#1806);
#1811=CARTESIAN_POINT('centre point',(0.E0,5.67E-3,0.E0));
#1816=DERIVED_UNIT_ELEMENT(#1815,2.E0);
#1817=DERIVED_UNIT((#1816));
#1818=MEASURE_REPRESENTATION_ITEM('surface area measure',AREA_MEASURE(
5.911657215386E0),#1817);
#1823=DERIVED_UNIT_ELEMENT(#1822,3.E0);
#1824=DERIVED_UNIT((#1823));
#1825=MEASURE_REPRESENTATION_ITEM('volume measure',VOLUME_MEASURE(
3.256199302635E-2),#1824);
#1829=CARTESIAN_POINT('centre point',(0.E0,5.67E-3,0.E0));
#1836=CARTESIAN_POINT('centre point',(4.927477194107E0,4.185725158283E1,
1.015270217632E-2));
#1840=CARTESIAN_POINT('',(4.927385277231E0,4.185725158283E1,1.582195709104E-2));
#1841=DIRECTION('',(-1.141419775983E-3,-9.999993484090E-1,-1.850608951814E-5));
#1842=DIRECTION('',(-9.998679401560E-1,1.141569787772E-3,-1.621107851533E-2));
#1843=AXIS2_PLACEMENT_3D('',#1840,#1841,#1842);
#1844=ITEM_DEFINED_TRANSFORMATION('','',#1785,#1843);
#1845=(REPRESENTATION_RELATIONSHIP('','',#1786,#948)REPRESENTATION_RELATIONSHIP_WITH_TRANSFORMATION(#1844)SHAPE_REPRESENTATION_RELATIONSHIP());
#1846=CONTEXT_DEPENDENT_SHAPE_REPRESENTATION(#1845,#1835);
#1849=CARTESIAN_POINT('centre point',(4.918491683175E0,3.398503378359E1,
1.000701811409E-2));
#1853=CARTESIAN_POINT('',(4.918399766300E0,3.398503378359E1,1.567627302881E-2));
#1854=DIRECTION('',(-1.141419775983E-3,-9.999993484090E-1,-1.850608951814E-5));
#1855=DIRECTION('',(-9.998679401560E-1,1.141569787772E-3,-1.621107851533E-2));
#1856=AXIS2_PLACEMENT_3D('',#1853,#1854,#1855);
#1857=ITEM_DEFINED_TRANSFORMATION('','',#1785,#1856);
#1858=(REPRESENTATION_RELATIONSHIP('','',#1786,#948)REPRESENTATION_RELATIONSHIP_WITH_TRANSFORMATION(#1857)SHAPE_REPRESENTATION_RELATIONSHIP());
#1859=CONTEXT_DEPENDENT_SHAPE_REPRESENTATION(#1858,#1848);
#1862=PLANE_ANGLE_MEASURE_WITH_UNIT(PLANE_ANGLE_MEASURE(1.745329251994E-2),
#1861);
#1863=(CONVERSION_BASED_UNIT('DEGREE',#1862)NAMED_UNIT(*)PLANE_ANGLE_UNIT());
#1865=UNCERTAINTY_MEASURE_WITH_UNIT(LENGTH_MEASURE(5.186895462374E-3),#1860,
'distance_accuracy_value',
'Maximum model space distance between geometric entities at asserted connectivities');
#1867=CARTESIAN_POINT('',(0.E0,0.E0,0.E0));
#1868=DIRECTION('',(0.E0,0.E0,1.E0));
#1869=DIRECTION('',(1.E0,0.E0,0.E0));
#1871=MECHANICAL_DESIGN_GEOMETRIC_PRESENTATION_REPRESENTATION('',(#364,#386,
#410,#431,#450,#475,#495,#520,#542,#564,#585,#606,#625,#648,#693,#715,#735,#764,
#786,#806,#823,#845,#865,#882,#1096,#1515,#1668),#1866);
#1872=PRODUCT_CONTEXT('',#897,'mechanical');
#1873=PRODUCT('1025_ASM','1025_ASM','NOT SPECIFIED',(#1872));
#1874=PRODUCT_DEFINITION_FORMATION('1','LAST_VERSION',#1873);
#1877=DERIVED_UNIT_ELEMENT(#1876,2.E0);
#1878=DERIVED_UNIT((#1877));
#1879=MEASURE_REPRESENTATION_ITEM('surface area measure',AREA_MEASURE(
1.190913993343E3),#1878);
#1884=DERIVED_UNIT_ELEMENT(#1883,3.E0);
#1885=DERIVED_UNIT((#1884));
#1886=MEASURE_REPRESENTATION_ITEM('volume measure',VOLUME_MEASURE(
1.965246539279E3),#1885);
#1890=CARTESIAN_POINT('centre point',(4.999997646404E0,3.730397453351E1,
-5.000690239483E0));
#1894=PRODUCT_RELATED_PRODUCT_CATEGORY('part','',(#1873,#901,#1137,#1789));
#1=DRAUGHTING_PRE_DEFINED_COLOUR('green');
#2=COLOUR_RGB('',1.1E-2,1.2E-2,1.E0);
#3=COLOUR_RGB('',4.1E-1,2.61589E-1,1.12848E-1);
#4=COLOUR_RGB('',5.04854E-1,1.5455E-2,1.5455E-2);
#5=COLOUR_RGB('',5.058823529412E-1,3.294117647059E-1,3.294117647059E-1);
#6=COLOUR_RGB('',6.35294E-1,6.86275E-1,7.4902E-1);
#7=COLOUR_RGB('',6.40777E-1,6.40777E-1,6.40777E-1);
#8=COLOUR_RGB('',6.69062E-1,6.69903E-1,6.55217E-1);
#9=COLOUR_RGB('',9.21569E-1,7.05882E-1,4.70588E-1);
#10=DRAUGHTING_PRE_DEFINED_COLOUR('red');
#11=DRAUGHTING_PRE_DEFINED_COLOUR('yellow');
#12=COLOUR_RGB('',1.E0,1.E0,5.3E-1);
#13=COLOUR_RGB('',1.E0,1.E0,9.49E-1);
#14=DRAUGHTING_PRE_DEFINED_COLOUR('white');
#15=COLOUR_RGB('',1.6E-1,1.6E-1,1.8E-1);
#16=COLOUR_RGB('',2.4E-1,2.5E-1,2.6E-1);
#17=COLOUR_RGB('',7.843137254902E-1,7.843137254902E-1,2.078431372549E-1);
#18=COLOUR_RGB('',8.2E-1,8.1E-1,8.1E-1);
#23=CIRCLE('',#22,4.749977422528E0);
#28=CIRCLE('',#27,4.749977422528E0);
#33=CIRCLE('',#32,3.7E0);
#38=CIRCLE('',#37,3.7E0);
#43=CIRCLE('',#42,2.5E-1);
#48=CIRCLE('',#47,4.999967160041E0);
#53=CIRCLE('',#52,4.781818181818E0);
#58=CIRCLE('',#57,8.E-1);
#63=CIRCLE('',#62,4.999967160041E0);
#68=CIRCLE('',#67,8.E-1);
#73=CIRCLE('',#72,2.5E-1);
#78=CIRCLE('',#77,3.E-1);
#83=CIRCLE('',#82,4.781818181818E0);
#88=CIRCLE('',#87,4.781818181818E0);
#93=CIRCLE('',#92,3.E-1);
#98=CIRCLE('',#97,4.781818181818E0);
#103=CIRCLE('',#102,4.781818181818E0);
#108=CIRCLE('',#107,5.E0);
#113=CIRCLE('',#112,4.781818181818E0);
#118=CIRCLE('',#117,8.E-1);
#123=CIRCLE('',#122,5.E0);
#132=CIRCLE('',#131,1.5E-1);
#137=CIRCLE('',#136,1.5E-1);
#142=CIRCLE('',#141,5.E0);
#147=CIRCLE('',#146,5.E0);
#152=CIRCLE('',#151,5.E0);
#161=CIRCLE('',#160,8.E-1);
#166=CIRCLE('',#165,4.85E0);
#171=CIRCLE('',#170,4.85E0);
#176=CIRCLE('',#175,3.5E0);
#181=CIRCLE('',#180,3.5E0);
#194=CIRCLE('',#193,3.5E0);
#199=CIRCLE('',#198,3.5E0);
#212=CIRCLE('',#211,3.7E0);
#217=CIRCLE('',#216,3.7E0);
#222=CIRCLE('',#221,3.E-1);
#227=CIRCLE('',#226,3.E-1);
#232=CIRCLE('',#231,3.E-1);
#237=CIRCLE('',#236,3.E-1);
#250=CIRCLE('',#249,3.E-1);
#255=CIRCLE('',#254,3.E-1);
#268=CIRCLE('',#267,3.E-1);
#273=CIRCLE('',#272,3.E-1);
#345=EDGE_CURVE('',#330,#331,#23,.T.);
#347=EDGE_CURVE('',#331,#330,#28,.T.);
#351=EDGE_CURVE('',#300,#301,#33,.T.);
#353=EDGE_CURVE('',#301,#300,#38,.T.);
#357=ADVANCED_FACE('',(#350,#356),#344,.F.);
#370=EDGE_CURVE('',#326,#327,#48,.T.);
#372=EDGE_CURVE('',#327,#331,#73,.T.);
#375=EDGE_CURVE('',#326,#330,#43,.T.);
#379=ADVANCED_FACE('',(#378),#369,.T.);
#393=EDGE_CURVE('',#326,#289,#68,.T.);
#395=EDGE_CURVE('',#289,#292,#53,.T.);
#397=EDGE_CURVE('',#323,#292,#88,.T.);
#399=EDGE_CURVE('',#327,#323,#58,.T.);
#403=ADVANCED_FACE('',(#402),#391,.T.);
#416=EDGE_CURVE('',#327,#326,#63,.T.);
#419=EDGE_CURVE('',#289,#323,#83,.T.);
#424=ADVANCED_FACE('',(#423),#415,.T.);
#443=ADVANCED_FACE('',(#442),#436,.T.);
#456=EDGE_CURVE('',#288,#289,#78,.T.);
#460=EDGE_CURVE('',#292,#293,#93,.T.);
#462=EDGE_CURVE('',#293,#319,#98,.T.);
#464=EDGE_CURVE('',#319,#288,#103,.T.);
#468=ADVANCED_FACE('',(#467),#455,.F.);
#482=EDGE_CURVE('',#293,#288,#113,.T.);
#488=ADVANCED_FACE('',(#487),#480,.F.);
#501=EDGE_CURVE('',#283,#285,#108,.T.);
#503=EDGE_CURVE('',#285,#319,#161,.T.);
#507=EDGE_CURVE('',#321,#288,#118,.T.);
#509=EDGE_CURVE('',#321,#283,#147,.T.);
#513=ADVANCED_FACE('',(#512),#500,.T.);
#526=EDGE_CURVE('',#276,#277,#123,.T.);
#528=EDGE_CURVE('',#285,#276,#156,.T.);
#531=EDGE_CURVE('',#283,#277,#127,.T.);
#535=ADVANCED_FACE('',(#534),#525,.T.);
#549=EDGE_CURVE('',#277,#281,#137,.T.);
#551=EDGE_CURVE('',#280,#281,#166,.T.);
#553=EDGE_CURVE('',#276,#280,#132,.T.);
#557=ADVANCED_FACE('',(#556),#547,.T.);
#570=EDGE_CURVE('',#277,#276,#142,.T.);
#573=EDGE_CURVE('',#281,#280,#171,.T.);
#578=ADVANCED_FACE('',(#577),#569,.T.);
#594=EDGE_CURVE('',#285,#321,#152,.T.);
#599=ADVANCED_FACE('',(#598),#590,.T.);
#618=ADVANCED_FACE('',(#617),#611,.T.);
#635=EDGE_CURVE('',#338,#339,#176,.T.);
#637=EDGE_CURVE('',#339,#338,#181,.T.);
#641=ADVANCED_FACE('',(#634,#640),#630,.T.);
#655=EDGE_CURVE('',#338,#334,#185,.T.);
#657=EDGE_CURVE('',#334,#335,#194,.T.);
#659=EDGE_CURVE('',#339,#335,#189,.T.);
#663=ADVANCED_FACE('',(#662),#653,.F.);
#671=EDGE_CURVE('',#335,#334,#199,.T.);
#676=ADVANCED_FACE('',(#675),#668,.F.);
#686=ADVANCED_FACE('',(#685),#681,.T.);
#700=EDGE_CURVE('',#300,#296,#203,.T.);
#702=EDGE_CURVE('',#296,#297,#212,.T.);
#704=EDGE_CURVE('',#301,#297,#207,.T.);
#708=ADVANCED_FACE('',(#707),#698,.F.);
#723=EDGE_CURVE('',#297,#296,#217,.T.);
#728=ADVANCED_FACE('',(#727),#720,.F.);
#745=EDGE_CURVE('',#308,#309,#222,.T.);
#747=EDGE_CURVE('',#309,#308,#227,.T.);
#751=EDGE_CURVE('',#316,#317,#232,.T.);
#753=EDGE_CURVE('',#317,#316,#237,.T.);
#757=ADVANCED_FACE('',(#744,#750,#756),#740,.T.);
#771=EDGE_CURVE('',#308,#304,#241,.T.);
#773=EDGE_CURVE('',#304,#305,#250,.T.);
#775=EDGE_CURVE('',#309,#305,#245,.T.);
#779=ADVANCED_FACE('',(#778),#769,.T.);
#794=EDGE_CURVE('',#305,#304,#255,.T.);
#799=ADVANCED_FACE('',(#798),#791,.T.);
#816=ADVANCED_FACE('',(#815),#811,.T.);
#830=EDGE_CURVE('',#316,#312,#259,.T.);
#832=EDGE_CURVE('',#312,#313,#268,.T.);
#834=EDGE_CURVE('',#317,#313,#263,.T.);
#838=ADVANCED_FACE('',(#837),#828,.T.);
#853=EDGE_CURVE('',#313,#312,#273,.T.);
#858=ADVANCED_FACE('',(#857),#850,.T.);
#875=ADVANCED_FACE('',(#874),#870,.T.);
#885=(LENGTH_UNIT()NAMED_UNIT(*)SI_UNIT(.MILLI.,.METRE.));
#886=(NAMED_UNIT(*)PLANE_ANGLE_UNIT()SI_UNIT($,.RADIAN.));
#889=(NAMED_UNIT(*)SI_UNIT($,.STERADIAN.)SOLID_ANGLE_UNIT());
#891=(GEOMETRIC_REPRESENTATION_CONTEXT(3)GLOBAL_UNCERTAINTY_ASSIGNED_CONTEXT((
#890))GLOBAL_UNIT_ASSIGNED_CONTEXT((#885,#888,#889))REPRESENTATION_CONTEXT
('ID1','3'));
#895=AXIS2_PLACEMENT_3D('',#892,#893,#894);
#896=ADVANCED_BREP_SHAPE_REPRESENTATION('',(#895,#884),#891);
#903=PRODUCT_DEFINITION('part definition','',#902,#899);
#904=PRODUCT_DEFINITION_SHAPE('','SHAPE FOR 0100200000.',#903);
#905=SHAPE_ASPECT('','solid data associated with 0100200000',#904,.F.);
#906=PROPERTY_DEFINITION('',
'shape for solid data with which properties are associated',#905);
#907=SHAPE_REPRESENTATION('',(#884),#891);
#908=SHAPE_DEFINITION_REPRESENTATION(#906,#907);
#909=(LENGTH_UNIT()NAMED_UNIT(*)SI_UNIT(.MILLI.,.METRE.));
#913=PROPERTY_DEFINITION('geometric validation property','area of 0100200000',
#905);
#914=REPRESENTATION('surface area',(#912),#891);
#915=PROPERTY_DEFINITION_REPRESENTATION(#913,#914);
#916=(LENGTH_UNIT()NAMED_UNIT(*)SI_UNIT(.MILLI.,.METRE.));
#920=PROPERTY_DEFINITION('geometric validation property','volume of 0100200000',
#905);
#921=REPRESENTATION('volume',(#919),#891);
#922=PROPERTY_DEFINITION_REPRESENTATION(#920,#921);
#924=PROPERTY_DEFINITION('geometric validation property',
'centroid of 0100200000',#905);
#925=REPRESENTATION('centroid',(#923),#891);
#926=PROPERTY_DEFINITION_REPRESENTATION(#924,#925);
#927=(LENGTH_UNIT()NAMED_UNIT(*)SI_UNIT(.MILLI.,.METRE.));
#931=PROPERTY_DEFINITION('geometric validation property','area of 0100200000',
#904);
#932=REPRESENTATION('surface area',(#930),#891);
#933=PROPERTY_DEFINITION_REPRESENTATION(#931,#932);
#934=(LENGTH_UNIT()NAMED_UNIT(*)SI_UNIT(.MILLI.,.METRE.));
#938=PROPERTY_DEFINITION('geometric validation property','volume of 0100200000',
#904);
#939=REPRESENTATION('volume',(#937),#891);
#940=PROPERTY_DEFINITION_REPRESENTATION(#938,#939);
#942=PROPERTY_DEFINITION('geometric validation property',
'centroid of 0100200000',#904);
#943=REPRESENTATION('centroid',(#941),#891);
#944=PROPERTY_DEFINITION_REPRESENTATION(#942,#943);
#945=SHAPE_DEFINITION_REPRESENTATION(#904,#896);
#946=SHAPE_DEFINITION_REPRESENTATION(#947,#948);
#947=PRODUCT_DEFINITION_SHAPE('','SHAPE FOR 1025_ASM.',#1875);
#948=SHAPE_REPRESENTATION('',(#958,#1191,#1843,#1856,#1870),#1866);
#949=NEXT_ASSEMBLY_USAGE_OCCURRENCE('0','Next assembly relationship',
'\X2\5F157EBF\X0\01002000',#1875,#903,$);
#950=PRODUCT_DEFINITION_SHAPE('Placement #0',
'Placement of 0100200000 with respect to 1025_ASM',#949);
#952=PROPERTY_DEFINITION('geometric validation property',
'centroid of \X2\5F157EBF\X0\01002000',#950);
#953=REPRESENTATION('centroid',(#951),#891);
#954=PROPERTY_DEFINITION_REPRESENTATION(#952,#953);
#962=COLOUR_RGB('',1.9E-1,1.9E-1,2.2E-1);
#967=CIRCLE('',#966,5.E0);
#976=CIRCLE('',#975,5.005E0);
#1001=CIRCLE('',#1000,5.E0);
#1010=CIRCLE('',#1009,5.005E0);
#1036=EDGE_CURVE('',#1017,#1018,#967,.T.);
#1038=EDGE_CURVE('',#1018,#1020,#971,.T.);
#1040=EDGE_CURVE('',#1020,#1022,#976,.T.);
#1042=EDGE_CURVE('',#1022,#1017,#980,.T.);
#1046=ADVANCED_FACE('',(#1045),#1035,.F.);
#1053=EDGE_CURVE('',#1017,#1025,#984,.T.);
#1055=EDGE_CURVE('',#1025,#1026,#1001,.T.);
#1057=EDGE_CURVE('',#1018,#1026,#996,.T.);
#1061=ADVANCED_FACE('',(#1060),#1051,.F.);
#1068=EDGE_CURVE('',#1022,#1030,#988,.T.);
#1070=EDGE_CURVE('',#1030,#1025,#1005,.T.);
#1075=ADVANCED_FACE('',(#1074),#1066,.T.);
#1082=EDGE_CURVE('',#1020,#1028,#992,.T.);
#1084=EDGE_CURVE('',#1028,#1030,#1010,.T.);
#1089=ADVANCED_FACE('',(#1088),#1080,.T.);
#1104=EDGE_CURVE('',#1026,#1028,#1014,.T.);
#1109=ADVANCED_FACE('',(#1108),#1101,.T.);
#1121=ADVANCED_FACE('',(#1120),#1114,.T.);
#1124=(LENGTH_UNIT()NAMED_UNIT(*)SI_UNIT(.MILLI.,.METRE.));
#1125=(NAMED_UNIT(*)PLANE_ANGLE_UNIT()SI_UNIT($,.RADIAN.));
#1128=(NAMED_UNIT(*)SI_UNIT($,.STERADIAN.)SOLID_ANGLE_UNIT());
#1130=(GEOMETRIC_REPRESENTATION_CONTEXT(3)GLOBAL_UNCERTAINTY_ASSIGNED_CONTEXT((
#1129))GLOBAL_UNIT_ASSIGNED_CONTEXT((#1124,#1127,#1128))REPRESENTATION_CONTEXT(
'ID2','3'));
#1134=AXIS2_PLACEMENT_3D('',#1131,#1132,#1133);
#1135=ADVANCED_BREP_SHAPE_REPRESENTATION('',(#1134,#1123),#1130);
#1139=PRODUCT_DEFINITION('part definition','',#1138,#899);
#1140=PRODUCT_DEFINITION_SHAPE('','SHAPE FOR FJBBBB1.',#1139);
#1141=SHAPE_ASPECT('','solid data associated with FJBBBB1',#1140,.F.);
#1142=PROPERTY_DEFINITION('',
'shape for solid data with which properties are associated',#1141);
#1143=SHAPE_REPRESENTATION('',(#1123),#1130);
#1144=SHAPE_DEFINITION_REPRESENTATION(#1142,#1143);
#1145=(LENGTH_UNIT()NAMED_UNIT(*)SI_UNIT(.MILLI.,.METRE.));
#1149=PROPERTY_DEFINITION('geometric validation property','area of FJBBBB1',
#1141);
#1150=REPRESENTATION('surface area',(#1148),#1130);
#1151=PROPERTY_DEFINITION_REPRESENTATION(#1149,#1150);
#1152=(LENGTH_UNIT()NAMED_UNIT(*)SI_UNIT(.MILLI.,.METRE.));
#1156=PROPERTY_DEFINITION('geometric validation property','volume of FJBBBB1',
#1141);
#1157=REPRESENTATION('volume',(#1155),#1130);
#1158=PROPERTY_DEFINITION_REPRESENTATION(#1156,#1157);
#1160=PROPERTY_DEFINITION('geometric validation property','centroid of FJBBBB1',
#1141);
#1161=REPRESENTATION('centroid',(#1159),#1130);
#1162=PROPERTY_DEFINITION_REPRESENTATION(#1160,#1161);
#1163=(LENGTH_UNIT()NAMED_UNIT(*)SI_UNIT(.MILLI.,.METRE.));
#1167=PROPERTY_DEFINITION('geometric validation property','area of FJBBBB1',
#1140);
#1168=REPRESENTATION('surface area',(#1166),#1130);
#1169=PROPERTY_DEFINITION_REPRESENTATION(#1167,#1168);
#1170=(LENGTH_UNIT()NAMED_UNIT(*)SI_UNIT(.MILLI.,.METRE.));
#1174=PROPERTY_DEFINITION('geometric validation property','volume of FJBBBB1',
#1140);
#1175=REPRESENTATION('volume',(#1173),#1130);
#1176=PROPERTY_DEFINITION_REPRESENTATION(#1174,#1175);
#1178=PROPERTY_DEFINITION('geometric validation property','centroid of FJBBBB1',
#1140);
#1179=REPRESENTATION('centroid',(#1177),#1130);
#1180=PROPERTY_DEFINITION_REPRESENTATION(#1178,#1179);
#1181=SHAPE_DEFINITION_REPRESENTATION(#1140,#1135);
#1182=NEXT_ASSEMBLY_USAGE_OCCURRENCE('1','Next assembly relationship','FJBBBB1',
#1875,#1139,$);
#1183=PRODUCT_DEFINITION_SHAPE('Placement #1',
'Placement of FJBBBB1 with respect to 1025_ASM',#1182);
#1185=PROPERTY_DEFINITION('geometric validation property','centroid of FJBBBB1',
#1183);
#1186=REPRESENTATION('centroid',(#1184),#1130);
#1187=PROPERTY_DEFINITION_REPRESENTATION(#1185,#1186);
#1199=CIRCLE('',#1198,8.3916E-1);
#1208=CIRCLE('',#1207,8.3916E-1);
#1217=CIRCLE('',#1216,8.3916E-1);
#1226=CIRCLE('',#1225,8.3916E-1);
#1239=CIRCLE('',#1238,5.103E-1);
#1248=CIRCLE('',#1247,5.103E-1);
#1257=CIRCLE('',#1256,5.103E-1);
#1266=CIRCLE('',#1265,5.103E-1);
#1303=CIRCLE('',#1302,8.3916E-1);
#1312=CIRCLE('',#1311,8.3916E-1);
#1321=CIRCLE('',#1320,8.3916E-1);
#1330=CIRCLE('',#1329,8.3916E-1);
#1343=CIRCLE('',#1342,5.103E-1);
#1352=CIRCLE('',#1351,5.103E-1);
#1361=CIRCLE('',#1360,5.103E-1);
#1370=CIRCLE('',#1369,5.103E-1);
#1472=EDGE_CURVE('',#1405,#1406,#1199,.T.);
#1474=EDGE_CURVE('',#1406,#1408,#1203,.T.);
#1476=EDGE_CURVE('',#1408,#1410,#1208,.T.);
#1478=EDGE_CURVE('',#1410,#1412,#1212,.T.);
#1480=EDGE_CURVE('',#1412,#1414,#1217,.T.);
#1482=EDGE_CURVE('',#1414,#1416,#1221,.T.);
#1484=EDGE_CURVE('',#1416,#1418,#1226,.T.);
#1486=EDGE_CURVE('',#1418,#1405,#1230,.T.);
#1490=EDGE_CURVE('',#1421,#1422,#1234,.T.);
#1492=EDGE_CURVE('',#1422,#1424,#1239,.T.);
#1494=EDGE_CURVE('',#1424,#1426,#1243,.T.);
#1496=EDGE_CURVE('',#1426,#1428,#1248,.T.);
#1498=EDGE_CURVE('',#1428,#1430,#1252,.T.);
#1500=EDGE_CURVE('',#1430,#1432,#1257,.T.);
#1502=EDGE_CURVE('',#1432,#1434,#1261,.T.);
#1504=EDGE_CURVE('',#1434,#1421,#1266,.T.);
#1508=ADVANCED_FACE('',(#1489,#1507),#1471,.F.);
#1522=EDGE_CURVE('',#1405,#1437,#1270,.T.);
#1524=EDGE_CURVE('',#1437,#1438,#1303,.T.);
#1526=EDGE_CURVE('',#1406,#1438,#1298,.T.);
#1530=ADVANCED_FACE('',(#1529),#1520,.T.);
#1537=EDGE_CURVE('',#1418,#1450,#1274,.T.);
#1539=EDGE_CURVE('',#1450,#1437,#1307,.T.);
#1544=ADVANCED_FACE('',(#1543),#1535,.T.);
#1551=EDGE_CURVE('',#1416,#1448,#1278,.T.);
#1553=EDGE_CURVE('',#1448,#1450,#1312,.T.);
#1558=ADVANCED_FACE('',(#1557),#1549,.T.);
#1565=EDGE_CURVE('',#1414,#1446,#1282,.T.);
#1567=EDGE_CURVE('',#1446,#1448,#1316,.T.);
#1572=ADVANCED_FACE('',(#1571),#1563,.T.);
#1579=EDGE_CURVE('',#1412,#1444,#1286,.T.);
#1581=EDGE_CURVE('',#1444,#1446,#1321,.T.);
#1586=ADVANCED_FACE('',(#1585),#1577,.T.);
#1593=EDGE_CURVE('',#1410,#1442,#1290,.T.);
#1595=EDGE_CURVE('',#1442,#1444,#1325,.T.);
#1600=ADVANCED_FACE('',(#1599),#1591,.T.);
#1607=EDGE_CURVE('',#1408,#1440,#1294,.T.);
#1609=EDGE_CURVE('',#1440,#1442,#1330,.T.);
#1614=ADVANCED_FACE('',(#1613),#1605,.T.);
#1622=EDGE_CURVE('',#1438,#1440,#1334,.T.);
#1627=ADVANCED_FACE('',(#1626),#1619,.T.);
#1643=EDGE_CURVE('',#1453,#1454,#1338,.T.);
#1645=EDGE_CURVE('',#1466,#1453,#1343,.T.);
#1647=EDGE_CURVE('',#1464,#1466,#1347,.T.);
#1649=EDGE_CURVE('',#1462,#1464,#1352,.T.);
#1651=EDGE_CURVE('',#1460,#1462,#1356,.T.);
#1653=EDGE_CURVE('',#1458,#1460,#1361,.T.);
#1655=EDGE_CURVE('',#1456,#1458,#1365,.T.);
#1657=EDGE_CURVE('',#1454,#1456,#1370,.T.);
#1661=ADVANCED_FACE('',(#1642,#1660),#1632,.T.);
#1675=EDGE_CURVE('',#1421,#1453,#1374,.T.);
#1678=EDGE_CURVE('',#1422,#1454,#1402,.T.);
#1682=ADVANCED_FACE('',(#1681),#1673,.T.);
#1689=EDGE_CURVE('',#1434,#1466,#1378,.T.);
#1695=ADVANCED_FACE('',(#1694),#1687,.F.);
#1702=EDGE_CURVE('',#1432,#1464,#1382,.T.);
#1708=ADVANCED_FACE('',(#1707),#1700,.T.);
#1715=EDGE_CURVE('',#1430,#1462,#1386,.T.);
#1721=ADVANCED_FACE('',(#1720),#1713,.F.);
#1728=EDGE_CURVE('',#1428,#1460,#1390,.T.);
#1734=ADVANCED_FACE('',(#1733),#1726,.T.);
#1741=EDGE_CURVE('',#1426,#1458,#1394,.T.);
#1747=ADVANCED_FACE('',(#1746),#1739,.F.);
#1754=EDGE_CURVE('',#1424,#1456,#1398,.T.);
#1760=ADVANCED_FACE('',(#1759),#1752,.T.);
#1772=ADVANCED_FACE('',(#1771),#1765,.F.);
#1775=(LENGTH_UNIT()NAMED_UNIT(*)SI_UNIT(.MILLI.,.METRE.));
#1776=(NAMED_UNIT(*)PLANE_ANGLE_UNIT()SI_UNIT($,.RADIAN.));
#1779=(NAMED_UNIT(*)SI_UNIT($,.STERADIAN.)SOLID_ANGLE_UNIT());
#1781=(GEOMETRIC_REPRESENTATION_CONTEXT(3)GLOBAL_UNCERTAINTY_ASSIGNED_CONTEXT((
#1780))GLOBAL_UNIT_ASSIGNED_CONTEXT((#1775,#1778,#1779))REPRESENTATION_CONTEXT(
'ID3','3'));
#1785=AXIS2_PLACEMENT_3D('',#1782,#1783,#1784);
#1786=ADVANCED_BREP_SHAPE_REPRESENTATION('',(#1785,#1774),#1781);
#1791=PRODUCT_DEFINITION('part definition','',#1790,#1787);
#1792=PRODUCT_DEFINITION_SHAPE('','SHAPE FOR YUAN10002000.',#1791);
#1793=SHAPE_ASPECT('','solid data associated with YUAN10002000',#1792,.F.);
#1794=PROPERTY_DEFINITION('',
'shape for solid data with which properties are associated',#1793);
#1795=SHAPE_REPRESENTATION('',(#1774),#1781);
#1796=SHAPE_DEFINITION_REPRESENTATION(#1794,#1795);
#1797=(LENGTH_UNIT()NAMED_UNIT(*)SI_UNIT(.MILLI.,.METRE.));
#1801=PROPERTY_DEFINITION('geometric validation property',
'area of YUAN10002000',#1793);
#1802=REPRESENTATION('surface area',(#1800),#1781);
#1803=PROPERTY_DEFINITION_REPRESENTATION(#1801,#1802);
#1804=(LENGTH_UNIT()NAMED_UNIT(*)SI_UNIT(.MILLI.,.METRE.));
#1808=PROPERTY_DEFINITION('geometric validation property',
'volume of YUAN10002000',#1793);
#1809=REPRESENTATION('volume',(#1807),#1781);
#1810=PROPERTY_DEFINITION_REPRESENTATION(#1808,#1809);
#1812=PROPERTY_DEFINITION('geometric validation property',
'centroid of YUAN10002000',#1793);
#1813=REPRESENTATION('centroid',(#1811),#1781);
#1814=PROPERTY_DEFINITION_REPRESENTATION(#1812,#1813);
#1815=(LENGTH_UNIT()NAMED_UNIT(*)SI_UNIT(.MILLI.,.METRE.));
#1819=PROPERTY_DEFINITION('geometric validation property',
'area of YUAN10002000',#1792);
#1820=REPRESENTATION('surface area',(#1818),#1781);
#1821=PROPERTY_DEFINITION_REPRESENTATION(#1819,#1820);
#1822=(LENGTH_UNIT()NAMED_UNIT(*)SI_UNIT(.MILLI.,.METRE.));
#1826=PROPERTY_DEFINITION('geometric validation property',
'volume of YUAN10002000',#1792);
#1827=REPRESENTATION('volume',(#1825),#1781);
#1828=PROPERTY_DEFINITION_REPRESENTATION(#1826,#1827);
#1830=PROPERTY_DEFINITION('geometric validation property',
'centroid of YUAN10002000',#1792);
#1831=REPRESENTATION('centroid',(#1829),#1781);
#1832=PROPERTY_DEFINITION_REPRESENTATION(#1830,#1831);
#1833=SHAPE_DEFINITION_REPRESENTATION(#1792,#1786);
#1834=NEXT_ASSEMBLY_USAGE_OCCURRENCE('2','Next assembly relationship',
'YUAN10002000',#1875,#1791,$);
#1835=PRODUCT_DEFINITION_SHAPE('Placement #2',
'Placement of YUAN10002000 with respect to 1025_ASM',#1834);
#1837=PROPERTY_DEFINITION('geometric validation property',
'centroid of YUAN10002000',#1835);
#1838=REPRESENTATION('centroid',(#1836),#1781);
#1839=PROPERTY_DEFINITION_REPRESENTATION(#1837,#1838);
#1847=NEXT_ASSEMBLY_USAGE_OCCURRENCE('3','Next assembly relationship',
'YUAN10002000',#1875,#1791,$);
#1848=PRODUCT_DEFINITION_SHAPE('Placement #3',
'Placement of YUAN10002000 with respect to 1025_ASM',#1847);
#1850=PROPERTY_DEFINITION('geometric validation property',
'centroid of YUAN10002000',#1848);
#1851=REPRESENTATION('centroid',(#1849),#1781);
#1852=PROPERTY_DEFINITION_REPRESENTATION(#1850,#1851);
#1860=(LENGTH_UNIT()NAMED_UNIT(*)SI_UNIT(.MILLI.,.METRE.));
#1861=(NAMED_UNIT(*)PLANE_ANGLE_UNIT()SI_UNIT($,.RADIAN.));
#1864=(NAMED_UNIT(*)SI_UNIT($,.STERADIAN.)SOLID_ANGLE_UNIT());
#1866=(GEOMETRIC_REPRESENTATION_CONTEXT(3)GLOBAL_UNCERTAINTY_ASSIGNED_CONTEXT((
#1865))GLOBAL_UNIT_ASSIGNED_CONTEXT((#1860,#1863,#1864))REPRESENTATION_CONTEXT(
'ID4','3'));
#1870=AXIS2_PLACEMENT_3D('',#1867,#1868,#1869);
#1875=PRODUCT_DEFINITION('part definition','',#1874,#1787);
#1876=(LENGTH_UNIT()NAMED_UNIT(*)SI_UNIT(.MILLI.,.METRE.));
#1880=PROPERTY_DEFINITION('geometric validation property','area of 1025_ASM',
#947);
#1881=REPRESENTATION('surface area',(#1879),#1866);
#1882=PROPERTY_DEFINITION_REPRESENTATION(#1880,#1881);
#1883=(LENGTH_UNIT()NAMED_UNIT(*)SI_UNIT(.MILLI.,.METRE.));
#1887=PROPERTY_DEFINITION('geometric validation property','volume of 1025_ASM',
#947);
#1888=REPRESENTATION('volume',(#1886),#1866);
#1889=PROPERTY_DEFINITION_REPRESENTATION(#1887,#1888);
#1891=PROPERTY_DEFINITION('geometric validation property',
'centroid of 1025_ASM',#947);
#1892=REPRESENTATION('centroid',(#1890),#1866);
#1893=PROPERTY_DEFINITION_REPRESENTATION(#1891,#1892);
ENDSEC;
END-ISO-10303-21;
