ISO-10303-21;
HEADER;
FILE_DESCRIPTION((''),'2;1');
FILE_NAME('0100164500','2025-06-20T10:54:39',('Administrator'),(''),
'CREO PARAMETRIC BY PTC INC, 2018100','CREO PARAMETRIC BY PTC INC, 2018100','');
FILE_SCHEMA(('CONFIG_CONTROL_DESIGN'));
ENDSEC;
DATA;
#1=CARTESIAN_POINT('',(0.E0,0.E0,0.E0));
#2=DIRECTION('',(0.E0,1.E0,0.E0));
#3=DIRECTION('',(8.713324662122E-12,0.E0,1.E0));
#4=AXIS2_PLACEMENT_3D('',#1,#2,#3);
#6=CARTESIAN_POINT('',(0.E0,0.E0,0.E0));
#7=DIRECTION('',(0.E0,1.E0,0.E0));
#8=DIRECTION('',(-1.E0,0.E0,4.041502056091E-12));
#9=AXIS2_PLACEMENT_3D('',#6,#7,#8);
#11=CARTESIAN_POINT('',(0.E0,0.E0,0.E0));
#12=DIRECTION('',(0.E0,-1.E0,0.E0));
#13=DIRECTION('',(0.E0,0.E0,1.E0));
#14=AXIS2_PLACEMENT_3D('',#11,#12,#13);
#16=CARTESIAN_POINT('',(0.E0,0.E0,0.E0));
#17=DIRECTION('',(0.E0,-1.E0,0.E0));
#18=DIRECTION('',(0.E0,0.E0,-1.E0));
#19=AXIS2_PLACEMENT_3D('',#16,#17,#18);
#21=CARTESIAN_POINT('',(8.689576835863E-12,2.5E-1,4.749977422528E0));
#22=DIRECTION('',(1.E0,0.E0,-1.829394274955E-12));
#23=DIRECTION('',(1.829319178413E-12,9.060806412466E-3,9.999589500510E-1));
#24=AXIS2_PLACEMENT_3D('',#21,#22,#23);
#26=CARTESIAN_POINT('',(0.E0,2.522652016032E-1,0.E0));
#27=DIRECTION('',(0.E0,1.E0,0.E0));
#28=DIRECTION('',(1.960684780374E-12,0.E0,1.E0));
#29=AXIS2_PLACEMENT_3D('',#26,#27,#28);
#31=CARTESIAN_POINT('',(0.E0,7.940954244926E-1,0.E0));
#32=DIRECTION('',(0.E0,1.E0,0.E0));
#33=DIRECTION('',(-4.791247537078E-12,0.E0,1.E0));
#34=AXIS2_PLACEMENT_3D('',#31,#32,#33);
#36=CARTESIAN_POINT('',(-4.2E0,2.450165564729E-1,-1.453608067248E-12));
#37=DIRECTION('',(3.460981501391E-13,0.E0,-1.E0));
#38=DIRECTION('',(-9.999589500510E-1,9.060806412865E-3,-3.460839428277E-13));
#39=AXIS2_PLACEMENT_3D('',#36,#37,#38);
#41=CARTESIAN_POINT('',(0.E0,2.522652016032E-1,0.E0));
#42=DIRECTION('',(0.E0,1.E0,0.E0));
#43=DIRECTION('',(-1.E0,0.E0,-3.462045074160E-13));
#44=AXIS2_PLACEMENT_3D('',#41,#42,#43);
#46=CARTESIAN_POINT('',(8.233691506376E-12,2.450165564729E-1,4.2E0));
#47=DIRECTION('',(-1.E0,0.E0,1.960402326584E-12));
#48=DIRECTION('',(1.960321852169E-12,9.060806412865E-3,9.999589500510E-1));
#49=AXIS2_PLACEMENT_3D('',#46,#47,#48);
#51=CARTESIAN_POINT('',(-4.749977422528E0,2.5E-1,-2.361964790421E-12));
#52=DIRECTION('',(-4.972593517505E-13,0.E0,1.E0));
#53=DIRECTION('',(-9.999589500510E-1,9.060806412819E-3,-4.972389392795E-13));
#54=AXIS2_PLACEMENT_3D('',#51,#52,#53);
#56=CARTESIAN_POINT('',(0.E0,1.E0,5.E0));
#57=DIRECTION('',(-1.E0,0.E0,0.E0));
#58=DIRECTION('',(0.E0,6.863485850246E-1,-7.272727272727E-1));
#59=AXIS2_PLACEMENT_3D('',#56,#57,#58);
#61=CARTESIAN_POINT('',(0.E0,7.940954244926E-1,0.E0));
#62=DIRECTION('',(0.E0,-1.E0,0.E0));
#63=DIRECTION('',(0.E0,0.E0,1.E0));
#64=AXIS2_PLACEMENT_3D('',#61,#62,#63);
#66=CARTESIAN_POINT('',(0.E0,7.940954244926E-1,0.E0));
#67=DIRECTION('',(0.E0,-1.E0,0.E0));
#68=DIRECTION('',(-1.E0,0.E0,0.E0));
#69=AXIS2_PLACEMENT_3D('',#66,#67,#68);
#71=CARTESIAN_POINT('',(0.E0,1.E0,-5.E0));
#72=DIRECTION('',(-1.E0,0.E0,0.E0));
#73=DIRECTION('',(0.E0,-6.863485850246E-1,7.272727272727E-1));
#74=AXIS2_PLACEMENT_3D('',#71,#72,#73);
#76=CARTESIAN_POINT('',(0.E0,1.205904575507E0,0.E0));
#77=DIRECTION('',(0.E0,1.E0,0.E0));
#78=DIRECTION('',(0.E0,0.E0,-1.E0));
#79=AXIS2_PLACEMENT_3D('',#76,#77,#78);
#81=CARTESIAN_POINT('',(0.E0,1.205904575507E0,0.E0));
#82=DIRECTION('',(0.E0,1.E0,0.E0));
#83=DIRECTION('',(-1.E0,0.E0,0.E0));
#84=AXIS2_PLACEMENT_3D('',#81,#82,#83);
#86=CARTESIAN_POINT('',(0.E0,1.754983443527E0,0.E0));
#87=DIRECTION('',(0.E0,1.E0,0.E0));
#88=DIRECTION('',(1.E0,0.E0,0.E0));
#89=AXIS2_PLACEMENT_3D('',#86,#87,#88);
#91=CARTESIAN_POINT('',(0.E0,1.205904575507E0,0.E0));
#92=DIRECTION('',(0.E0,-1.E0,0.E0));
#93=DIRECTION('',(-1.445920511544E-12,0.E0,-1.E0));
#94=AXIS2_PLACEMENT_3D('',#91,#92,#93);
#96=CARTESIAN_POINT('',(-2.002786478328E-11,1.754983443527E0,4.2E0));
#97=DIRECTION('',(1.E0,0.E0,4.768540597111E-12));
#98=DIRECTION('',(-4.768540597111E-12,-2.831068712794E-14,1.E0));
#99=AXIS2_PLACEMENT_3D('',#96,#97,#98);
#101=CARTESIAN_POINT('',(0.E0,1.63E1,0.E0));
#102=DIRECTION('',(0.E0,-1.E0,0.E0));
#103=DIRECTION('',(-1.E0,0.E0,0.E0));
#104=AXIS2_PLACEMENT_3D('',#101,#102,#103);
#106=DIRECTION('',(0.E0,1.E0,-4.702260553880E-14));
#107=VECTOR('',#106,1.454501655647E1);
#108=CARTESIAN_POINT('',(5.E0,1.754983443527E0,6.867828823516E-13));
#109=LINE('',#108,#107);
#110=CARTESIAN_POINT('',(-4.85E0,1.63E1,6.833769661263E-14));
#111=DIRECTION('',(-1.409115879536E-14,0.E0,-1.E0));
#112=DIRECTION('',(-1.E0,0.E0,1.409115879536E-14));
#113=AXIS2_PLACEMENT_3D('',#110,#111,#112);
#115=CARTESIAN_POINT('',(4.85E0,1.63E1,-6.832381882482E-14));
#116=DIRECTION('',(1.408855671015E-14,0.E0,1.E0));
#117=DIRECTION('',(1.E0,0.E0,-1.408855671015E-14));
#118=AXIS2_PLACEMENT_3D('',#115,#116,#117);
#120=CARTESIAN_POINT('',(0.E0,1.63E1,0.E0));
#121=DIRECTION('',(0.E0,-1.E0,0.E0));
#122=DIRECTION('',(1.E0,0.E0,0.E0));
#123=AXIS2_PLACEMENT_3D('',#120,#121,#122);
#125=CARTESIAN_POINT('',(0.E0,1.754983443527E0,0.E0));
#126=DIRECTION('',(0.E0,1.E0,0.E0));
#127=DIRECTION('',(0.E0,0.E0,1.E0));
#128=AXIS2_PLACEMENT_3D('',#125,#126,#127);
#130=CARTESIAN_POINT('',(0.E0,1.754983443527E0,0.E0));
#131=DIRECTION('',(0.E0,1.E0,0.E0));
#132=DIRECTION('',(-1.E0,0.E0,0.E0));
#133=AXIS2_PLACEMENT_3D('',#130,#131,#132);
#135=DIRECTION('',(0.E0,1.E0,5.561222546744E-14));
#136=VECTOR('',#135,1.454501655647E1);
#137=CARTESIAN_POINT('',(-5.E0,1.754983443527E0,-8.117126592471E-13));
#138=LINE('',#137,#136);
#139=CARTESIAN_POINT('',(-4.2E0,1.754983443527E0,-1.978854580198E-11));
#140=DIRECTION('',(-4.711559267734E-12,0.E0,1.E0));
#141=DIRECTION('',(-1.E0,-2.498001805407E-14,-4.711559267734E-12));
#142=AXIS2_PLACEMENT_3D('',#139,#140,#141);
#144=CARTESIAN_POINT('',(0.E0,1.645E1,0.E0));
#145=DIRECTION('',(0.E0,-1.E0,0.E0));
#146=DIRECTION('',(-1.E0,0.E0,0.E0));
#147=AXIS2_PLACEMENT_3D('',#144,#145,#146);
#149=CARTESIAN_POINT('',(0.E0,1.645E1,0.E0));
#150=DIRECTION('',(0.E0,-1.E0,0.E0));
#151=DIRECTION('',(1.E0,0.E0,0.E0));
#152=AXIS2_PLACEMENT_3D('',#149,#150,#151);
#154=DIRECTION('',(-1.E0,0.E0,0.E0));
#155=VECTOR('',#154,8.596592034271E0);
#156=CARTESIAN_POINT('',(4.280251177873E0,1.645E1,2.057908339883E0));
#157=LINE('',#156,#155);
#158=DIRECTION('',(0.E0,0.E0,1.E0));
#159=VECTOR('',#158,4.758906950253E-2);
#160=CARTESIAN_POINT('',(-4.316340856398E0,1.645E1,2.057908339883E0));
#161=LINE('',#160,#159);
#162=DIRECTION('',(1.E0,0.E0,0.E0));
#163=VECTOR('',#162,8.596592034271E0);
#164=CARTESIAN_POINT('',(-4.316340856398E0,1.645E1,2.105497409385E0));
#165=LINE('',#164,#163);
#166=DIRECTION('',(0.E0,0.E0,-1.E0));
#167=VECTOR('',#166,4.758906950253E-2);
#168=CARTESIAN_POINT('',(4.280251177873E0,1.645E1,2.105497409385E0));
#169=LINE('',#168,#167);
#170=DIRECTION('',(0.E0,1.E0,0.E0));
#171=VECTOR('',#170,2.E-2);
#172=CARTESIAN_POINT('',(4.280251177873E0,1.645E1,2.057908339883E0));
#173=LINE('',#172,#171);
#174=DIRECTION('',(0.E0,1.E0,0.E0));
#175=VECTOR('',#174,2.E-2);
#176=CARTESIAN_POINT('',(4.280251177873E0,1.645E1,2.105497409385E0));
#177=LINE('',#176,#175);
#178=DIRECTION('',(0.E0,1.E0,0.E0));
#179=VECTOR('',#178,2.E-2);
#180=CARTESIAN_POINT('',(-4.316340856398E0,1.645E1,2.105497409385E0));
#181=LINE('',#180,#179);
#182=DIRECTION('',(0.E0,1.E0,0.E0));
#183=VECTOR('',#182,2.E-2);
#184=CARTESIAN_POINT('',(-4.316340856398E0,1.645E1,2.057908339883E0));
#185=LINE('',#184,#183);
#186=DIRECTION('',(0.E0,0.E0,1.E0));
#187=VECTOR('',#186,4.758906950253E-2);
#188=CARTESIAN_POINT('',(-4.316340856398E0,1.647E1,2.057908339883E0));
#189=LINE('',#188,#187);
#190=DIRECTION('',(-1.E0,0.E0,0.E0));
#191=VECTOR('',#190,8.596592034271E0);
#192=CARTESIAN_POINT('',(4.280251177873E0,1.647E1,2.057908339883E0));
#193=LINE('',#192,#191);
#194=DIRECTION('',(0.E0,0.E0,-1.E0));
#195=VECTOR('',#194,4.758906950253E-2);
#196=CARTESIAN_POINT('',(4.280251177873E0,1.647E1,2.105497409385E0));
#197=LINE('',#196,#195);
#198=DIRECTION('',(1.E0,0.E0,0.E0));
#199=VECTOR('',#198,8.596592034271E0);
#200=CARTESIAN_POINT('',(-4.316340856398E0,1.647E1,2.105497409385E0));
#201=LINE('',#200,#199);
#202=DIRECTION('',(0.E0,1.E0,0.E0));
#203=VECTOR('',#202,1.E-1);
#204=CARTESIAN_POINT('',(0.E0,0.E0,3.7E0));
#205=LINE('',#204,#203);
#206=DIRECTION('',(0.E0,1.E0,0.E0));
#207=VECTOR('',#206,1.E-1);
#208=CARTESIAN_POINT('',(0.E0,0.E0,-3.7E0));
#209=LINE('',#208,#207);
#210=CARTESIAN_POINT('',(0.E0,1.E-1,0.E0));
#211=DIRECTION('',(0.E0,-1.E0,0.E0));
#212=DIRECTION('',(0.E0,0.E0,1.E0));
#213=AXIS2_PLACEMENT_3D('',#210,#211,#212);
#215=CARTESIAN_POINT('',(0.E0,1.E-1,0.E0));
#216=DIRECTION('',(0.E0,-1.E0,0.E0));
#217=DIRECTION('',(0.E0,0.E0,-1.E0));
#218=AXIS2_PLACEMENT_3D('',#215,#216,#217);
#220=CARTESIAN_POINT('',(0.E0,1.E-1,2.625E0));
#221=DIRECTION('',(0.E0,-1.E0,0.E0));
#222=DIRECTION('',(0.E0,0.E0,-1.E0));
#223=AXIS2_PLACEMENT_3D('',#220,#221,#222);
#225=CARTESIAN_POINT('',(0.E0,1.E-1,2.625E0));
#226=DIRECTION('',(0.E0,-1.E0,0.E0));
#227=DIRECTION('',(0.E0,0.E0,1.E0));
#228=AXIS2_PLACEMENT_3D('',#225,#226,#227);
#230=CARTESIAN_POINT('',(0.E0,1.E-1,-2.625E0));
#231=DIRECTION('',(0.E0,-1.E0,0.E0));
#232=DIRECTION('',(-1.E0,0.E0,0.E0));
#233=AXIS2_PLACEMENT_3D('',#230,#231,#232);
#235=CARTESIAN_POINT('',(0.E0,1.E-1,-2.625E0));
#236=DIRECTION('',(0.E0,-1.E0,0.E0));
#237=DIRECTION('',(1.E0,0.E0,0.E0));
#238=AXIS2_PLACEMENT_3D('',#235,#236,#237);
#240=DIRECTION('',(0.E0,-1.E0,0.E0));
#241=VECTOR('',#240,2.E1);
#242=CARTESIAN_POINT('',(0.E0,1.E-1,2.325E0));
#243=LINE('',#242,#241);
#244=DIRECTION('',(0.E0,-1.E0,0.E0));
#245=VECTOR('',#244,2.E1);
#246=CARTESIAN_POINT('',(0.E0,1.E-1,2.925E0));
#247=LINE('',#246,#245);
#248=CARTESIAN_POINT('',(0.E0,-1.99E1,2.625E0));
#249=DIRECTION('',(0.E0,-1.E0,0.E0));
#250=DIRECTION('',(0.E0,0.E0,-1.E0));
#251=AXIS2_PLACEMENT_3D('',#248,#249,#250);
#253=CARTESIAN_POINT('',(0.E0,-1.99E1,2.625E0));
#254=DIRECTION('',(0.E0,-1.E0,0.E0));
#255=DIRECTION('',(0.E0,0.E0,1.E0));
#256=AXIS2_PLACEMENT_3D('',#253,#254,#255);
#258=DIRECTION('',(0.E0,-1.E0,0.E0));
#259=VECTOR('',#258,2.5E1);
#260=CARTESIAN_POINT('',(-3.E-1,1.E-1,-2.625E0));
#261=LINE('',#260,#259);
#262=DIRECTION('',(0.E0,-1.E0,0.E0));
#263=VECTOR('',#262,2.5E1);
#264=CARTESIAN_POINT('',(3.E-1,1.E-1,-2.625E0));
#265=LINE('',#264,#263);
#266=CARTESIAN_POINT('',(0.E0,-2.49E1,-2.625E0));
#267=DIRECTION('',(0.E0,-1.E0,0.E0));
#268=DIRECTION('',(-1.E0,0.E0,0.E0));
#269=AXIS2_PLACEMENT_3D('',#266,#267,#268);
#271=CARTESIAN_POINT('',(0.E0,-2.49E1,-2.625E0));
#272=DIRECTION('',(0.E0,-1.E0,0.E0));
#273=DIRECTION('',(1.E0,0.E0,0.E0));
#274=AXIS2_PLACEMENT_3D('',#271,#272,#273);
#276=CARTESIAN_POINT('',(-5.E0,1.63E1,0.E0));
#277=CARTESIAN_POINT('',(5.E0,1.63E1,0.E0));
#278=VERTEX_POINT('',#276);
#279=VERTEX_POINT('',#277);
#280=CARTESIAN_POINT('',(-4.85E0,1.645E1,0.E0));
#281=CARTESIAN_POINT('',(4.85E0,1.645E1,0.E0));
#282=VERTEX_POINT('',#280);
#283=VERTEX_POINT('',#281);
#284=CARTESIAN_POINT('',(5.E0,1.754983443527E0,6.867828823516E-13));
#285=VERTEX_POINT('',#284);
#286=CARTESIAN_POINT('',(-5.E0,1.754983443527E0,-8.117126592471E-13));
#287=VERTEX_POINT('',#286);
#288=CARTESIAN_POINT('',(0.E0,1.205904575507E0,4.781818181818E0));
#289=CARTESIAN_POINT('',(0.E0,7.940954244926E-1,4.781818181818E0));
#290=VERTEX_POINT('',#288);
#291=VERTEX_POINT('',#289);
#292=CARTESIAN_POINT('',(0.E0,7.940954244926E-1,-4.781818181818E0));
#293=CARTESIAN_POINT('',(0.E0,1.205904575507E0,-4.781818181818E0));
#294=VERTEX_POINT('',#292);
#295=VERTEX_POINT('',#293);
#296=CARTESIAN_POINT('',(0.E0,1.E-1,3.7E0));
#297=CARTESIAN_POINT('',(0.E0,1.E-1,-3.7E0));
#298=VERTEX_POINT('',#296);
#299=VERTEX_POINT('',#297);
#300=CARTESIAN_POINT('',(0.E0,0.E0,3.7E0));
#301=CARTESIAN_POINT('',(0.E0,0.E0,-3.7E0));
#302=VERTEX_POINT('',#300);
#303=VERTEX_POINT('',#301);
#304=CARTESIAN_POINT('',(0.E0,-1.99E1,2.325E0));
#305=CARTESIAN_POINT('',(0.E0,-1.99E1,2.925E0));
#306=VERTEX_POINT('',#304);
#307=VERTEX_POINT('',#305);
#308=CARTESIAN_POINT('',(0.E0,1.E-1,2.325E0));
#309=CARTESIAN_POINT('',(0.E0,1.E-1,2.925E0));
#310=VERTEX_POINT('',#308);
#311=VERTEX_POINT('',#309);
#312=CARTESIAN_POINT('',(-3.E-1,-2.49E1,-2.625E0));
#313=CARTESIAN_POINT('',(3.E-1,-2.49E1,-2.625E0));
#314=VERTEX_POINT('',#312);
#315=VERTEX_POINT('',#313);
#316=CARTESIAN_POINT('',(-3.E-1,1.E-1,-2.625E0));
#317=CARTESIAN_POINT('',(3.E-1,1.E-1,-2.625E0));
#318=VERTEX_POINT('',#316);
#319=VERTEX_POINT('',#317);
#320=CARTESIAN_POINT('',(4.280251177873E0,1.647E1,2.057908339883E0));
#321=CARTESIAN_POINT('',(-4.316340856398E0,1.647E1,2.057908339883E0));
#322=VERTEX_POINT('',#320);
#323=VERTEX_POINT('',#321);
#324=CARTESIAN_POINT('',(4.280251177873E0,1.647E1,2.105497409385E0));
#325=VERTEX_POINT('',#324);
#326=CARTESIAN_POINT('',(-4.316340856398E0,1.647E1,2.105497409385E0));
#327=VERTEX_POINT('',#326);
#328=CARTESIAN_POINT('',(4.280251177873E0,1.645E1,2.057908339883E0));
#329=CARTESIAN_POINT('',(-4.316340856398E0,1.645E1,2.057908339883E0));
#330=VERTEX_POINT('',#328);
#331=VERTEX_POINT('',#329);
#332=CARTESIAN_POINT('',(4.280251177873E0,1.645E1,2.105497409385E0));
#333=VERTEX_POINT('',#332);
#334=CARTESIAN_POINT('',(-4.316340856398E0,1.645E1,2.105497409385E0));
#335=VERTEX_POINT('',#334);
#336=CARTESIAN_POINT('',(-4.781818181818E0,1.205904575507E0,0.E0));
#337=VERTEX_POINT('',#336);
#338=CARTESIAN_POINT('',(0.E0,1.754983443527E0,5.E0));
#339=VERTEX_POINT('',#338);
#340=CARTESIAN_POINT('',(-4.781818181818E0,7.940954244926E-1,0.E0));
#341=VERTEX_POINT('',#340);
#342=CARTESIAN_POINT('',(9.803359513061E-12,2.522652016032E-1,
4.999967160041E0));
#343=CARTESIAN_POINT('',(-4.999967160041E0,2.522652016032E-1,
-1.730479997183E-12));
#344=VERTEX_POINT('',#342);
#345=VERTEX_POINT('',#343);
#346=CARTESIAN_POINT('',(4.138809542023E-11,0.E0,4.749977422528E0));
#347=CARTESIAN_POINT('',(-4.749977422528E0,0.E0,1.919619052518E-11));
#348=VERTEX_POINT('',#346);
#349=VERTEX_POINT('',#347);
#350=CARTESIAN_POINT('',(0.E0,0.E0,0.E0));
#351=DIRECTION('',(0.E0,1.E0,0.E0));
#352=DIRECTION('',(1.E0,0.E0,0.E0));
#353=AXIS2_PLACEMENT_3D('',#350,#351,#352);
#354=PLANE('',#353);
#356=ORIENTED_EDGE('',*,*,#355,.T.);
#358=ORIENTED_EDGE('',*,*,#357,.T.);
#359=EDGE_LOOP('',(#356,#358));
#360=FACE_OUTER_BOUND('',#359,.F.);
#362=ORIENTED_EDGE('',*,*,#361,.T.);
#364=ORIENTED_EDGE('',*,*,#363,.T.);
#365=EDGE_LOOP('',(#362,#364));
#366=FACE_BOUND('',#365,.F.);
#367=ADVANCED_FACE('',(#360,#366),#354,.F.);
#368=CARTESIAN_POINT('',(0.E0,2.5E-1,0.E0));
#369=DIRECTION('',(0.E0,1.E0,0.E0));
#370=DIRECTION('',(-7.072897294618E-3,0.E0,9.999749867491E-1));
#371=AXIS2_PLACEMENT_3D('',#368,#369,#370);
#372=TOROIDAL_SURFACE('',#371,4.749977422528E0,2.5E-1);
#374=ORIENTED_EDGE('',*,*,#373,.T.);
#376=ORIENTED_EDGE('',*,*,#375,.T.);
#377=ORIENTED_EDGE('',*,*,#355,.F.);
#379=ORIENTED_EDGE('',*,*,#378,.F.);
#380=EDGE_LOOP('',(#374,#376,#377,#379));
#381=FACE_OUTER_BOUND('',#380,.F.);
#382=ADVANCED_FACE('',(#381),#372,.T.);
#383=CARTESIAN_POINT('',(0.E0,2.450165564729E-1,0.E0));
#384=DIRECTION('',(0.E0,1.E0,0.E0));
#385=DIRECTION('',(-1.008158330200E-2,0.E0,-9.999491795477E-1));
#386=AXIS2_PLACEMENT_3D('',#383,#384,#385);
#387=TOROIDAL_SURFACE('',#386,4.2E0,8.E-1);
#388=ORIENTED_EDGE('',*,*,#373,.F.);
#390=ORIENTED_EDGE('',*,*,#389,.T.);
#392=ORIENTED_EDGE('',*,*,#391,.T.);
#394=ORIENTED_EDGE('',*,*,#393,.F.);
#396=ORIENTED_EDGE('',*,*,#395,.F.);
#397=EDGE_LOOP('',(#388,#390,#392,#394,#396));
#398=FACE_OUTER_BOUND('',#397,.F.);
#399=ADVANCED_FACE('',(#398),#387,.T.);
#400=CARTESIAN_POINT('',(0.E0,2.450165564729E-1,0.E0));
#401=DIRECTION('',(0.E0,1.E0,0.E0));
#402=DIRECTION('',(1.008158330200E-2,0.E0,9.999491795477E-1));
#403=AXIS2_PLACEMENT_3D('',#400,#401,#402);
#404=TOROIDAL_SURFACE('',#403,4.2E0,8.E-1);
#406=ORIENTED_EDGE('',*,*,#405,.F.);
#407=ORIENTED_EDGE('',*,*,#395,.T.);
#409=ORIENTED_EDGE('',*,*,#408,.F.);
#410=ORIENTED_EDGE('',*,*,#389,.F.);
#411=EDGE_LOOP('',(#406,#407,#409,#410));
#412=FACE_OUTER_BOUND('',#411,.F.);
#413=ADVANCED_FACE('',(#412),#404,.T.);
#414=CARTESIAN_POINT('',(0.E0,2.5E-1,0.E0));
#415=DIRECTION('',(0.E0,1.E0,0.E0));
#416=DIRECTION('',(-9.999749867491E-1,0.E0,-7.072897294561E-3));
#417=AXIS2_PLACEMENT_3D('',#414,#415,#416);
#418=TOROIDAL_SURFACE('',#417,4.749977422528E0,2.5E-1);
#419=ORIENTED_EDGE('',*,*,#405,.T.);
#420=ORIENTED_EDGE('',*,*,#378,.T.);
#421=ORIENTED_EDGE('',*,*,#357,.F.);
#422=ORIENTED_EDGE('',*,*,#375,.F.);
#423=EDGE_LOOP('',(#419,#420,#421,#422));
#424=FACE_OUTER_BOUND('',#423,.F.);
#425=ADVANCED_FACE('',(#424),#418,.T.);
#426=CARTESIAN_POINT('',(0.E0,1.E0,0.E0));
#427=DIRECTION('',(0.E0,1.E0,0.E0));
#428=DIRECTION('',(0.E0,0.E0,-1.E0));
#429=AXIS2_PLACEMENT_3D('',#426,#427,#428);
#430=TOROIDAL_SURFACE('',#429,5.E0,3.E-1);
#432=ORIENTED_EDGE('',*,*,#431,.T.);
#433=ORIENTED_EDGE('',*,*,#408,.T.);
#434=ORIENTED_EDGE('',*,*,#393,.T.);
#436=ORIENTED_EDGE('',*,*,#435,.T.);
#438=ORIENTED_EDGE('',*,*,#437,.T.);
#440=ORIENTED_EDGE('',*,*,#439,.T.);
#441=EDGE_LOOP('',(#432,#433,#434,#436,#438,#440));
#442=FACE_OUTER_BOUND('',#441,.F.);
#443=ADVANCED_FACE('',(#442),#430,.F.);
#444=CARTESIAN_POINT('',(0.E0,1.E0,0.E0));
#445=DIRECTION('',(0.E0,1.E0,0.E0));
#446=DIRECTION('',(0.E0,0.E0,-1.E0));
#447=AXIS2_PLACEMENT_3D('',#444,#445,#446);
#448=TOROIDAL_SURFACE('',#447,5.E0,3.E-1);
#449=ORIENTED_EDGE('',*,*,#431,.F.);
#451=ORIENTED_EDGE('',*,*,#450,.F.);
#452=ORIENTED_EDGE('',*,*,#435,.F.);
#453=ORIENTED_EDGE('',*,*,#391,.F.);
#454=EDGE_LOOP('',(#449,#451,#452,#453));
#455=FACE_OUTER_BOUND('',#454,.F.);
#456=ADVANCED_FACE('',(#455),#448,.F.);
#457=CARTESIAN_POINT('',(0.E0,1.754983443527E0,0.E0));
#458=DIRECTION('',(0.E0,1.E0,0.E0));
#459=DIRECTION('',(9.999755492846E-1,0.E0,6.992913047184E-3));
#460=AXIS2_PLACEMENT_3D('',#457,#458,#459);
#461=TOROIDAL_SURFACE('',#460,4.2E0,8.E-1);
#463=ORIENTED_EDGE('',*,*,#462,.T.);
#465=ORIENTED_EDGE('',*,*,#464,.T.);
#466=ORIENTED_EDGE('',*,*,#437,.F.);
#467=ORIENTED_EDGE('',*,*,#450,.T.);
#469=ORIENTED_EDGE('',*,*,#468,.F.);
#471=ORIENTED_EDGE('',*,*,#470,.T.);
#472=EDGE_LOOP('',(#463,#465,#466,#467,#469,#471));
#473=FACE_OUTER_BOUND('',#472,.F.);
#474=ADVANCED_FACE('',(#473),#461,.T.);
#475=CARTESIAN_POINT('',(0.E0,0.E0,0.E0));
#476=DIRECTION('',(0.E0,1.E0,0.E0));
#477=DIRECTION('',(1.E0,0.E0,0.E0));
#478=AXIS2_PLACEMENT_3D('',#475,#476,#477);
#479=CYLINDRICAL_SURFACE('',#478,5.E0);
#481=ORIENTED_EDGE('',*,*,#480,.F.);
#483=ORIENTED_EDGE('',*,*,#482,.F.);
#484=ORIENTED_EDGE('',*,*,#462,.F.);
#486=ORIENTED_EDGE('',*,*,#485,.T.);
#487=EDGE_LOOP('',(#481,#483,#484,#486));
#488=FACE_OUTER_BOUND('',#487,.F.);
#489=ADVANCED_FACE('',(#488),#479,.T.);
#490=CARTESIAN_POINT('',(0.E0,1.63E1,0.E0));
#491=DIRECTION('',(0.E0,1.E0,0.E0));
#492=DIRECTION('',(-9.999794267739E-1,0.E0,6.414517050080E-3));
#493=AXIS2_PLACEMENT_3D('',#490,#491,#492);
#494=TOROIDAL_SURFACE('',#493,4.85E0,1.5E-1);
#495=ORIENTED_EDGE('',*,*,#480,.T.);
#497=ORIENTED_EDGE('',*,*,#496,.T.);
#499=ORIENTED_EDGE('',*,*,#498,.F.);
#501=ORIENTED_EDGE('',*,*,#500,.F.);
#502=EDGE_LOOP('',(#495,#497,#499,#501));
#503=FACE_OUTER_BOUND('',#502,.F.);
#504=ADVANCED_FACE('',(#503),#494,.T.);
#505=CARTESIAN_POINT('',(0.E0,1.63E1,0.E0));
#506=DIRECTION('',(0.E0,1.E0,0.E0));
#507=DIRECTION('',(9.999794267739E-1,0.E0,-6.414517050079E-3));
#508=AXIS2_PLACEMENT_3D('',#505,#506,#507);
#509=TOROIDAL_SURFACE('',#508,4.85E0,1.5E-1);
#511=ORIENTED_EDGE('',*,*,#510,.T.);
#512=ORIENTED_EDGE('',*,*,#500,.T.);
#514=ORIENTED_EDGE('',*,*,#513,.F.);
#515=ORIENTED_EDGE('',*,*,#496,.F.);
#516=EDGE_LOOP('',(#511,#512,#514,#515));
#517=FACE_OUTER_BOUND('',#516,.F.);
#518=ADVANCED_FACE('',(#517),#509,.T.);
#519=CARTESIAN_POINT('',(0.E0,0.E0,0.E0));
#520=DIRECTION('',(0.E0,1.E0,0.E0));
#521=DIRECTION('',(1.E0,0.E0,0.E0));
#522=AXIS2_PLACEMENT_3D('',#519,#520,#521);
#523=CYLINDRICAL_SURFACE('',#522,5.E0);
#524=ORIENTED_EDGE('',*,*,#510,.F.);
#525=ORIENTED_EDGE('',*,*,#485,.F.);
#526=ORIENTED_EDGE('',*,*,#470,.F.);
#528=ORIENTED_EDGE('',*,*,#527,.F.);
#529=ORIENTED_EDGE('',*,*,#482,.T.);
#530=EDGE_LOOP('',(#524,#525,#526,#528,#529));
#531=FACE_OUTER_BOUND('',#530,.F.);
#532=ADVANCED_FACE('',(#531),#523,.T.);
#533=CARTESIAN_POINT('',(0.E0,1.754983443527E0,0.E0));
#534=DIRECTION('',(0.E0,1.E0,0.E0));
#535=DIRECTION('',(-9.999755492846E-1,0.E0,-6.992913047184E-3));
#536=AXIS2_PLACEMENT_3D('',#533,#534,#535);
#537=TOROIDAL_SURFACE('',#536,4.2E0,8.E-1);
#538=ORIENTED_EDGE('',*,*,#527,.T.);
#539=ORIENTED_EDGE('',*,*,#468,.T.);
#540=ORIENTED_EDGE('',*,*,#439,.F.);
#541=ORIENTED_EDGE('',*,*,#464,.F.);
#542=EDGE_LOOP('',(#538,#539,#540,#541));
#543=FACE_OUTER_BOUND('',#542,.F.);
#544=ADVANCED_FACE('',(#543),#537,.T.);
#545=CARTESIAN_POINT('',(0.E0,1.645E1,0.E0));
#546=DIRECTION('',(0.E0,1.E0,0.E0));
#547=DIRECTION('',(1.E0,0.E0,0.E0));
#548=AXIS2_PLACEMENT_3D('',#545,#546,#547);
#549=PLANE('',#548);
#550=ORIENTED_EDGE('',*,*,#498,.T.);
#551=ORIENTED_EDGE('',*,*,#513,.T.);
#552=EDGE_LOOP('',(#550,#551));
#553=FACE_OUTER_BOUND('',#552,.F.);
#555=ORIENTED_EDGE('',*,*,#554,.T.);
#557=ORIENTED_EDGE('',*,*,#556,.T.);
#559=ORIENTED_EDGE('',*,*,#558,.T.);
#561=ORIENTED_EDGE('',*,*,#560,.T.);
#562=EDGE_LOOP('',(#555,#557,#559,#561));
#563=FACE_BOUND('',#562,.F.);
#564=ADVANCED_FACE('',(#553,#563),#549,.T.);
#565=CARTESIAN_POINT('',(4.280251177873E0,1.645E1,2.057908339883E0));
#566=DIRECTION('',(0.E0,0.E0,-1.E0));
#567=DIRECTION('',(-1.E0,0.E0,0.E0));
#568=AXIS2_PLACEMENT_3D('',#565,#566,#567);
#569=PLANE('',#568);
#570=ORIENTED_EDGE('',*,*,#554,.F.);
#572=ORIENTED_EDGE('',*,*,#571,.T.);
#574=ORIENTED_EDGE('',*,*,#573,.T.);
#576=ORIENTED_EDGE('',*,*,#575,.F.);
#577=EDGE_LOOP('',(#570,#572,#574,#576));
#578=FACE_OUTER_BOUND('',#577,.F.);
#579=ADVANCED_FACE('',(#578),#569,.T.);
#580=CARTESIAN_POINT('',(4.280251177873E0,1.645E1,2.105497409385E0));
#581=DIRECTION('',(1.E0,0.E0,0.E0));
#582=DIRECTION('',(0.E0,0.E0,-1.E0));
#583=AXIS2_PLACEMENT_3D('',#580,#581,#582);
#584=PLANE('',#583);
#585=ORIENTED_EDGE('',*,*,#560,.F.);
#587=ORIENTED_EDGE('',*,*,#586,.T.);
#589=ORIENTED_EDGE('',*,*,#588,.T.);
#590=ORIENTED_EDGE('',*,*,#571,.F.);
#591=EDGE_LOOP('',(#585,#587,#589,#590));
#592=FACE_OUTER_BOUND('',#591,.F.);
#593=ADVANCED_FACE('',(#592),#584,.T.);
#594=CARTESIAN_POINT('',(-4.316340856398E0,1.645E1,2.105497409385E0));
#595=DIRECTION('',(0.E0,0.E0,1.E0));
#596=DIRECTION('',(1.E0,0.E0,0.E0));
#597=AXIS2_PLACEMENT_3D('',#594,#595,#596);
#598=PLANE('',#597);
#599=ORIENTED_EDGE('',*,*,#558,.F.);
#601=ORIENTED_EDGE('',*,*,#600,.T.);
#603=ORIENTED_EDGE('',*,*,#602,.T.);
#604=ORIENTED_EDGE('',*,*,#586,.F.);
#605=EDGE_LOOP('',(#599,#601,#603,#604));
#606=FACE_OUTER_BOUND('',#605,.F.);
#607=ADVANCED_FACE('',(#606),#598,.T.);
#608=CARTESIAN_POINT('',(-4.316340856398E0,1.645E1,2.057908339883E0));
#609=DIRECTION('',(-1.E0,0.E0,0.E0));
#610=DIRECTION('',(0.E0,0.E0,1.E0));
#611=AXIS2_PLACEMENT_3D('',#608,#609,#610);
#612=PLANE('',#611);
#613=ORIENTED_EDGE('',*,*,#556,.F.);
#614=ORIENTED_EDGE('',*,*,#575,.T.);
#616=ORIENTED_EDGE('',*,*,#615,.T.);
#617=ORIENTED_EDGE('',*,*,#600,.F.);
#618=EDGE_LOOP('',(#613,#614,#616,#617));
#619=FACE_OUTER_BOUND('',#618,.F.);
#620=ADVANCED_FACE('',(#619),#612,.T.);
#621=CARTESIAN_POINT('',(0.E0,1.647E1,0.E0));
#622=DIRECTION('',(0.E0,1.E0,0.E0));
#623=DIRECTION('',(1.E0,0.E0,0.E0));
#624=AXIS2_PLACEMENT_3D('',#621,#622,#623);
#625=PLANE('',#624);
#626=ORIENTED_EDGE('',*,*,#615,.F.);
#627=ORIENTED_EDGE('',*,*,#573,.F.);
#628=ORIENTED_EDGE('',*,*,#588,.F.);
#629=ORIENTED_EDGE('',*,*,#602,.F.);
#630=EDGE_LOOP('',(#626,#627,#628,#629));
#631=FACE_OUTER_BOUND('',#630,.F.);
#632=ADVANCED_FACE('',(#631),#625,.T.);
#633=CARTESIAN_POINT('',(0.E0,0.E0,0.E0));
#634=DIRECTION('',(0.E0,-1.E0,0.E0));
#635=DIRECTION('',(0.E0,0.E0,1.E0));
#636=AXIS2_PLACEMENT_3D('',#633,#634,#635);
#637=CYLINDRICAL_SURFACE('',#636,3.7E0);
#638=ORIENTED_EDGE('',*,*,#361,.F.);
#640=ORIENTED_EDGE('',*,*,#639,.T.);
#642=ORIENTED_EDGE('',*,*,#641,.T.);
#644=ORIENTED_EDGE('',*,*,#643,.F.);
#645=EDGE_LOOP('',(#638,#640,#642,#644));
#646=FACE_OUTER_BOUND('',#645,.F.);
#647=ADVANCED_FACE('',(#646),#637,.F.);
#648=CARTESIAN_POINT('',(0.E0,0.E0,0.E0));
#649=DIRECTION('',(0.E0,-1.E0,0.E0));
#650=DIRECTION('',(0.E0,0.E0,1.E0));
#651=AXIS2_PLACEMENT_3D('',#648,#649,#650);
#652=CYLINDRICAL_SURFACE('',#651,3.7E0);
#653=ORIENTED_EDGE('',*,*,#363,.F.);
#654=ORIENTED_EDGE('',*,*,#643,.T.);
#656=ORIENTED_EDGE('',*,*,#655,.T.);
#657=ORIENTED_EDGE('',*,*,#639,.F.);
#658=EDGE_LOOP('',(#653,#654,#656,#657));
#659=FACE_OUTER_BOUND('',#658,.F.);
#660=ADVANCED_FACE('',(#659),#652,.F.);
#661=CARTESIAN_POINT('',(0.E0,1.E-1,0.E0));
#662=DIRECTION('',(0.E0,-1.E0,0.E0));
#663=DIRECTION('',(0.E0,0.E0,1.E0));
#664=AXIS2_PLACEMENT_3D('',#661,#662,#663);
#665=PLANE('',#664);
#666=ORIENTED_EDGE('',*,*,#641,.F.);
#667=ORIENTED_EDGE('',*,*,#655,.F.);
#668=EDGE_LOOP('',(#666,#667));
#669=FACE_OUTER_BOUND('',#668,.F.);
#671=ORIENTED_EDGE('',*,*,#670,.T.);
#673=ORIENTED_EDGE('',*,*,#672,.T.);
#674=EDGE_LOOP('',(#671,#673));
#675=FACE_BOUND('',#674,.F.);
#677=ORIENTED_EDGE('',*,*,#676,.T.);
#679=ORIENTED_EDGE('',*,*,#678,.T.);
#680=EDGE_LOOP('',(#677,#679));
#681=FACE_BOUND('',#680,.F.);
#682=ADVANCED_FACE('',(#669,#675,#681),#665,.T.);
#683=CARTESIAN_POINT('',(0.E0,1.E-1,2.625E0));
#684=DIRECTION('',(0.E0,-1.E0,0.E0));
#685=DIRECTION('',(0.E0,0.E0,-1.E0));
#686=AXIS2_PLACEMENT_3D('',#683,#684,#685);
#687=CYLINDRICAL_SURFACE('',#686,3.E-1);
#688=ORIENTED_EDGE('',*,*,#670,.F.);
#690=ORIENTED_EDGE('',*,*,#689,.T.);
#692=ORIENTED_EDGE('',*,*,#691,.T.);
#694=ORIENTED_EDGE('',*,*,#693,.F.);
#695=EDGE_LOOP('',(#688,#690,#692,#694));
#696=FACE_OUTER_BOUND('',#695,.F.);
#697=ADVANCED_FACE('',(#696),#687,.T.);
#698=CARTESIAN_POINT('',(0.E0,1.E-1,2.625E0));
#699=DIRECTION('',(0.E0,-1.E0,0.E0));
#700=DIRECTION('',(0.E0,0.E0,-1.E0));
#701=AXIS2_PLACEMENT_3D('',#698,#699,#700);
#702=CYLINDRICAL_SURFACE('',#701,3.E-1);
#703=ORIENTED_EDGE('',*,*,#672,.F.);
#704=ORIENTED_EDGE('',*,*,#693,.T.);
#706=ORIENTED_EDGE('',*,*,#705,.T.);
#707=ORIENTED_EDGE('',*,*,#689,.F.);
#708=EDGE_LOOP('',(#703,#704,#706,#707));
#709=FACE_OUTER_BOUND('',#708,.F.);
#710=ADVANCED_FACE('',(#709),#702,.T.);
#711=CARTESIAN_POINT('',(0.E0,-1.99E1,0.E0));
#712=DIRECTION('',(0.E0,-1.E0,0.E0));
#713=DIRECTION('',(0.E0,0.E0,-1.E0));
#714=AXIS2_PLACEMENT_3D('',#711,#712,#713);
#715=PLANE('',#714);
#716=ORIENTED_EDGE('',*,*,#691,.F.);
#717=ORIENTED_EDGE('',*,*,#705,.F.);
#718=EDGE_LOOP('',(#716,#717));
#719=FACE_OUTER_BOUND('',#718,.F.);
#720=ADVANCED_FACE('',(#719),#715,.T.);
#721=CARTESIAN_POINT('',(0.E0,1.E-1,-2.625E0));
#722=DIRECTION('',(0.E0,-1.E0,0.E0));
#723=DIRECTION('',(-1.E0,0.E0,0.E0));
#724=AXIS2_PLACEMENT_3D('',#721,#722,#723);
#725=CYLINDRICAL_SURFACE('',#724,3.E-1);
#726=ORIENTED_EDGE('',*,*,#676,.F.);
#728=ORIENTED_EDGE('',*,*,#727,.T.);
#730=ORIENTED_EDGE('',*,*,#729,.T.);
#732=ORIENTED_EDGE('',*,*,#731,.F.);
#733=EDGE_LOOP('',(#726,#728,#730,#732));
#734=FACE_OUTER_BOUND('',#733,.F.);
#735=ADVANCED_FACE('',(#734),#725,.T.);
#736=CARTESIAN_POINT('',(0.E0,1.E-1,-2.625E0));
#737=DIRECTION('',(0.E0,-1.E0,0.E0));
#738=DIRECTION('',(-1.E0,0.E0,0.E0));
#739=AXIS2_PLACEMENT_3D('',#736,#737,#738);
#740=CYLINDRICAL_SURFACE('',#739,3.E-1);
#741=ORIENTED_EDGE('',*,*,#678,.F.);
#742=ORIENTED_EDGE('',*,*,#731,.T.);
#744=ORIENTED_EDGE('',*,*,#743,.T.);
#745=ORIENTED_EDGE('',*,*,#727,.F.);
#746=EDGE_LOOP('',(#741,#742,#744,#745));
#747=FACE_OUTER_BOUND('',#746,.F.);
#748=ADVANCED_FACE('',(#747),#740,.T.);
#749=CARTESIAN_POINT('',(0.E0,-2.49E1,0.E0));
#750=DIRECTION('',(0.E0,-1.E0,0.E0));
#751=DIRECTION('',(-1.E0,0.E0,0.E0));
#752=AXIS2_PLACEMENT_3D('',#749,#750,#751);
#753=PLANE('',#752);
#754=ORIENTED_EDGE('',*,*,#729,.F.);
#755=ORIENTED_EDGE('',*,*,#743,.F.);
#756=EDGE_LOOP('',(#754,#755));
#757=FACE_OUTER_BOUND('',#756,.F.);
#758=ADVANCED_FACE('',(#757),#753,.T.);
#759=CLOSED_SHELL('',(#367,#382,#399,#413,#425,#443,#456,#474,#489,#504,#518,
#532,#544,#564,#579,#593,#607,#620,#632,#647,#660,#682,#697,#710,#720,#735,#748,
#758));
#760=MANIFOLD_SOLID_BREP('',#759);
#762=DIMENSIONAL_EXPONENTS(0.E0,0.E0,0.E0,0.E0,0.E0,0.E0,0.E0);
#764=PLANE_ANGLE_MEASURE_WITH_UNIT(PLANE_ANGLE_MEASURE(1.745329251994E-2),#763);
#765=(CONVERSION_BASED_UNIT('DEGREE',#764)NAMED_UNIT(*)PLANE_ANGLE_UNIT());
#767=UNCERTAINTY_MEASURE_WITH_UNIT(LENGTH_MEASURE(4.371869148209E-3),#761,
'closure',
'Maximum model space distance between geometric entities at asserted connectivities');
#768=(GEOMETRIC_REPRESENTATION_CONTEXT(3)GLOBAL_UNCERTAINTY_ASSIGNED_CONTEXT((
#767))GLOBAL_UNIT_ASSIGNED_CONTEXT((#761,#765,#766))REPRESENTATION_CONTEXT
('ID1','3'));
#770=APPLICATION_CONTEXT(
'CONFIGURATION CONTROLLED 3D DESIGNS OF MECHANICAL PARTS AND ASSEMBLIES');
#771=APPLICATION_PROTOCOL_DEFINITION('international standard',
'config_control_design',1994,#770);
#772=DESIGN_CONTEXT('',#770,'design');
#773=MECHANICAL_CONTEXT('',#770,'mechanical');
#774=PRODUCT('0100164500','0100164500','NOT SPECIFIED',(#773));
#775=PRODUCT_DEFINITION_FORMATION_WITH_SPECIFIED_SOURCE('70','LAST_VERSION',
#774,.MADE.);
#779=PRODUCT_CATEGORY('part','');
#780=PRODUCT_RELATED_PRODUCT_CATEGORY('detail','',(#774));
#781=PRODUCT_CATEGORY_RELATIONSHIP('','',#779,#780);
#782=SECURITY_CLASSIFICATION_LEVEL('unclassified');
#783=SECURITY_CLASSIFICATION('','',#782);
#784=CC_DESIGN_SECURITY_CLASSIFICATION(#783,(#775));
#785=APPROVAL_STATUS('approved');
#786=APPROVAL(#785,'');
#787=CC_DESIGN_APPROVAL(#786,(#783,#775,#776));
#788=CALENDAR_DATE(125,20,6);
#789=COORDINATED_UNIVERSAL_TIME_OFFSET(8,0,.AHEAD.);
#790=LOCAL_TIME(10,54,3.9E1,#789);
#791=DATE_AND_TIME(#788,#790);
#792=APPROVAL_DATE_TIME(#791,#786);
#793=DATE_TIME_ROLE('creation_date');
#794=CC_DESIGN_DATE_AND_TIME_ASSIGNMENT(#791,#793,(#776));
#795=DATE_TIME_ROLE('classification_date');
#796=CC_DESIGN_DATE_AND_TIME_ASSIGNMENT(#791,#795,(#783));
#797=PERSON('UNSPECIFIED','UNSPECIFIED',$,$,$,$);
#798=ORGANIZATION('UNSPECIFIED','UNSPECIFIED','UNSPECIFIED');
#799=PERSON_AND_ORGANIZATION(#797,#798);
#800=APPROVAL_ROLE('approver');
#801=APPROVAL_PERSON_ORGANIZATION(#799,#786,#800);
#802=PERSON_AND_ORGANIZATION_ROLE('creator');
#803=CC_DESIGN_PERSON_AND_ORGANIZATION_ASSIGNMENT(#799,#802,(#775,#776));
#804=PERSON_AND_ORGANIZATION_ROLE('design_supplier');
#805=CC_DESIGN_PERSON_AND_ORGANIZATION_ASSIGNMENT(#799,#804,(#775));
#806=PERSON_AND_ORGANIZATION_ROLE('classification_officer');
#807=CC_DESIGN_PERSON_AND_ORGANIZATION_ASSIGNMENT(#799,#806,(#783));
#808=PERSON_AND_ORGANIZATION_ROLE('design_owner');
#809=CC_DESIGN_PERSON_AND_ORGANIZATION_ASSIGNMENT(#799,#808,(#774));
#5=CIRCLE('',#4,4.749977422528E0);
#10=CIRCLE('',#9,4.749977422528E0);
#15=CIRCLE('',#14,3.7E0);
#20=CIRCLE('',#19,3.7E0);
#25=CIRCLE('',#24,2.5E-1);
#30=CIRCLE('',#29,4.999967160041E0);
#35=CIRCLE('',#34,4.781818181818E0);
#40=CIRCLE('',#39,8.E-1);
#45=CIRCLE('',#44,4.999967160041E0);
#50=CIRCLE('',#49,8.E-1);
#55=CIRCLE('',#54,2.5E-1);
#60=CIRCLE('',#59,3.E-1);
#65=CIRCLE('',#64,4.781818181818E0);
#70=CIRCLE('',#69,4.781818181818E0);
#75=CIRCLE('',#74,3.E-1);
#80=CIRCLE('',#79,4.781818181818E0);
#85=CIRCLE('',#84,4.781818181818E0);
#90=CIRCLE('',#89,5.E0);
#95=CIRCLE('',#94,4.781818181818E0);
#100=CIRCLE('',#99,8.E-1);
#105=CIRCLE('',#104,5.E0);
#114=CIRCLE('',#113,1.5E-1);
#119=CIRCLE('',#118,1.5E-1);
#124=CIRCLE('',#123,5.E0);
#129=CIRCLE('',#128,5.E0);
#134=CIRCLE('',#133,5.E0);
#143=CIRCLE('',#142,8.E-1);
#148=CIRCLE('',#147,4.85E0);
#153=CIRCLE('',#152,4.85E0);
#214=CIRCLE('',#213,3.7E0);
#219=CIRCLE('',#218,3.7E0);
#224=CIRCLE('',#223,3.E-1);
#229=CIRCLE('',#228,3.E-1);
#234=CIRCLE('',#233,3.E-1);
#239=CIRCLE('',#238,3.E-1);
#252=CIRCLE('',#251,3.E-1);
#257=CIRCLE('',#256,3.E-1);
#270=CIRCLE('',#269,3.E-1);
#275=CIRCLE('',#274,3.E-1);
#355=EDGE_CURVE('',#348,#349,#5,.T.);
#357=EDGE_CURVE('',#349,#348,#10,.T.);
#361=EDGE_CURVE('',#302,#303,#15,.T.);
#363=EDGE_CURVE('',#303,#302,#20,.T.);
#373=EDGE_CURVE('',#344,#345,#30,.T.);
#375=EDGE_CURVE('',#345,#349,#55,.T.);
#378=EDGE_CURVE('',#344,#348,#25,.T.);
#389=EDGE_CURVE('',#344,#291,#50,.T.);
#391=EDGE_CURVE('',#291,#294,#35,.T.);
#393=EDGE_CURVE('',#341,#294,#70,.T.);
#395=EDGE_CURVE('',#345,#341,#40,.T.);
#405=EDGE_CURVE('',#345,#344,#45,.T.);
#408=EDGE_CURVE('',#291,#341,#65,.T.);
#431=EDGE_CURVE('',#290,#291,#60,.T.);
#435=EDGE_CURVE('',#294,#295,#75,.T.);
#437=EDGE_CURVE('',#295,#337,#80,.T.);
#439=EDGE_CURVE('',#337,#290,#85,.T.);
#450=EDGE_CURVE('',#295,#290,#95,.T.);
#462=EDGE_CURVE('',#285,#287,#90,.T.);
#464=EDGE_CURVE('',#287,#337,#143,.T.);
#468=EDGE_CURVE('',#339,#290,#100,.T.);
#470=EDGE_CURVE('',#339,#285,#129,.T.);
#480=EDGE_CURVE('',#278,#279,#105,.T.);
#482=EDGE_CURVE('',#287,#278,#138,.T.);
#485=EDGE_CURVE('',#285,#279,#109,.T.);
#496=EDGE_CURVE('',#279,#283,#119,.T.);
#498=EDGE_CURVE('',#282,#283,#148,.T.);
#500=EDGE_CURVE('',#278,#282,#114,.T.);
#510=EDGE_CURVE('',#279,#278,#124,.T.);
#513=EDGE_CURVE('',#283,#282,#153,.T.);
#527=EDGE_CURVE('',#287,#339,#134,.T.);
#554=EDGE_CURVE('',#330,#331,#157,.T.);
#556=EDGE_CURVE('',#331,#335,#161,.T.);
#558=EDGE_CURVE('',#335,#333,#165,.T.);
#560=EDGE_CURVE('',#333,#330,#169,.T.);
#571=EDGE_CURVE('',#330,#322,#173,.T.);
#573=EDGE_CURVE('',#322,#323,#193,.T.);
#575=EDGE_CURVE('',#331,#323,#185,.T.);
#586=EDGE_CURVE('',#333,#325,#177,.T.);
#588=EDGE_CURVE('',#325,#322,#197,.T.);
#600=EDGE_CURVE('',#335,#327,#181,.T.);
#602=EDGE_CURVE('',#327,#325,#201,.T.);
#615=EDGE_CURVE('',#323,#327,#189,.T.);
#639=EDGE_CURVE('',#302,#298,#205,.T.);
#641=EDGE_CURVE('',#298,#299,#214,.T.);
#643=EDGE_CURVE('',#303,#299,#209,.T.);
#655=EDGE_CURVE('',#299,#298,#219,.T.);
#670=EDGE_CURVE('',#310,#311,#224,.T.);
#672=EDGE_CURVE('',#311,#310,#229,.T.);
#676=EDGE_CURVE('',#318,#319,#234,.T.);
#678=EDGE_CURVE('',#319,#318,#239,.T.);
#689=EDGE_CURVE('',#310,#306,#243,.T.);
#691=EDGE_CURVE('',#306,#307,#252,.T.);
#693=EDGE_CURVE('',#311,#307,#247,.T.);
#705=EDGE_CURVE('',#307,#306,#257,.T.);
#727=EDGE_CURVE('',#318,#314,#261,.T.);
#729=EDGE_CURVE('',#314,#315,#270,.T.);
#731=EDGE_CURVE('',#319,#315,#265,.T.);
#743=EDGE_CURVE('',#315,#314,#275,.T.);
#761=(LENGTH_UNIT()NAMED_UNIT(*)SI_UNIT(.MILLI.,.METRE.));
#763=(NAMED_UNIT(*)PLANE_ANGLE_UNIT()SI_UNIT($,.RADIAN.));
#766=(NAMED_UNIT(*)SI_UNIT($,.STERADIAN.)SOLID_ANGLE_UNIT());
#769=ADVANCED_BREP_SHAPE_REPRESENTATION('',(#760),#768);
#776=PRODUCT_DEFINITION('design','',#775,#772);
#777=PRODUCT_DEFINITION_SHAPE('','SHAPE FOR 0100164500.',#776);
#778=SHAPE_DEFINITION_REPRESENTATION(#777,#769);
ENDSEC;
END-ISO-10303-21;
