ISO-10303-21;
HEADER;
FILE_DESCRIPTION((''),'2;1');
FILE_NAME('0004096500','2025-06-23T15:42:13',('Administrator'),(''),
'CREO PARAMETRIC BY PTC INC, 2018100','CREO PARAMETRIC BY PTC INC, 2018100','');
FILE_SCHEMA((
'AP242_MANAGED_MODEL_BASED_3D_ENGINEERING_MIM_LF { 1 0 10303 442 1 1 4 }'));
ENDSEC;
DATA;
#21=CARTESIAN_POINT('',(0.E0,0.E0,0.E0));
#22=DIRECTION('',(0.E0,1.E0,0.E0));
#23=DIRECTION('',(1.E0,0.E0,0.E0));
#24=AXIS2_PLACEMENT_3D('',#21,#22,#23);
#26=CARTESIAN_POINT('',(0.E0,0.E0,0.E0));
#27=DIRECTION('',(0.E0,1.E0,0.E0));
#28=DIRECTION('',(-1.E0,0.E0,0.E0));
#29=AXIS2_PLACEMENT_3D('',#26,#27,#28);
#31=CARTESIAN_POINT('',(0.E0,0.E0,0.E0));
#32=DIRECTION('',(0.E0,-1.E0,0.E0));
#33=DIRECTION('',(0.E0,0.E0,1.E0));
#34=AXIS2_PLACEMENT_3D('',#31,#32,#33);
#36=CARTESIAN_POINT('',(0.E0,0.E0,0.E0));
#37=DIRECTION('',(0.E0,-1.E0,0.E0));
#38=DIRECTION('',(0.E0,0.E0,-1.E0));
#39=AXIS2_PLACEMENT_3D('',#36,#37,#38);
#41=CARTESIAN_POINT('',(1.8E0,2.E-1,1.058302750989E-12));
#42=DIRECTION('',(5.879480929893E-13,0.E0,-1.E0));
#43=DIRECTION('',(1.E0,0.E0,5.879480929893E-13));
#44=AXIS2_PLACEMENT_3D('',#41,#42,#43);
#46=CARTESIAN_POINT('',(0.E0,9.5E0,0.E0));
#47=DIRECTION('',(0.E0,-1.E0,0.E0));
#48=DIRECTION('',(-1.E0,0.E0,0.E0));
#49=AXIS2_PLACEMENT_3D('',#46,#47,#48);
#51=DIRECTION('',(0.E0,1.E0,4.639022367042E-13));
#52=VECTOR('',#51,8.408688103938E0);
#53=CARTESIAN_POINT('',(2.E0,1.091311896062E0,-3.863258187757E-12));
#54=LINE('',#53,#52);
#55=CARTESIAN_POINT('',(0.E0,2.E-1,0.E0));
#56=DIRECTION('',(0.E0,1.E0,0.E0));
#57=DIRECTION('',(1.E0,0.E0,0.E0));
#58=AXIS2_PLACEMENT_3D('',#55,#56,#57);
#60=DIRECTION('',(0.E0,1.E0,-3.603695433128E-11));
#61=VECTOR('',#60,1.086881039375E-1);
#62=CARTESIAN_POINT('',(2.E0,2.E-1,5.072364524348E-14));
#63=LINE('',#62,#61);
#64=CARTESIAN_POINT('',(-1.85E0,9.5E0,1.066171456676E-12));
#65=DIRECTION('',(-5.763098331890E-13,0.E0,-1.E0));
#66=DIRECTION('',(-1.E0,0.E0,5.763098331890E-13));
#67=AXIS2_PLACEMENT_3D('',#64,#65,#66);
#69=CARTESIAN_POINT('',(0.E0,9.65E0,0.E0));
#70=DIRECTION('',(0.E0,1.E0,0.E0));
#71=DIRECTION('',(-8.900073551228E-1,0.E0,4.559461676857E-1));
#72=AXIS2_PLACEMENT_3D('',#69,#70,#71);
#74=CARTESIAN_POINT('',(1.85E0,9.5E0,-1.066152374718E-12));
#75=DIRECTION('',(5.762994248482E-13,0.E0,1.E0));
#76=DIRECTION('',(1.E0,0.E0,-5.762994248482E-13));
#77=AXIS2_PLACEMENT_3D('',#74,#75,#76);
#79=DIRECTION('',(-1.E0,-4.753902275953E-14,-2.849370176649E-11));
#80=VECTOR('',#79,3.736628849915E-2);
#81=CARTESIAN_POINT('',(-1.646513606977E0,9.65E0,8.435004102185E-1));
#82=LINE('',#81,#80);
#83=CARTESIAN_POINT('',(0.E0,9.65E0,0.E0));
#84=DIRECTION('',(0.E0,1.E0,0.E0));
#85=DIRECTION('',(-8.940955197236E-1,0.E0,4.478763240116E-1));
#86=AXIS2_PLACEMENT_3D('',#83,#84,#85);
#88=DIRECTION('',(-1.E0,4.753902276700E-14,-2.847884582636E-11));
#89=VECTOR('',#88,3.736628849328E-2);
#90=CARTESIAN_POINT('',(1.683879895469E0,9.65E0,8.435004102226E-1));
#91=LINE('',#90,#89);
#92=DIRECTION('',(0.E0,1.E0,0.E0));
#93=VECTOR('',#92,1.E-2);
#94=CARTESIAN_POINT('',(1.683879895469E0,9.65E0,8.435004102226E-1));
#95=LINE('',#94,#93);
#96=DIRECTION('',(-1.E0,0.E0,-9.172665717122E-13));
#97=VECTOR('',#96,3.293027213953E0);
#98=CARTESIAN_POINT('',(1.646513606976E0,9.65E0,8.435004102215E-1));
#99=LINE('',#98,#97);
#100=CARTESIAN_POINT('',(0.E0,9.65E0,0.E0));
#101=DIRECTION('',(0.E0,-1.E0,0.E0));
#102=DIRECTION('',(-8.900073551228E-1,0.E0,4.559461676857E-1));
#103=AXIS2_PLACEMENT_3D('',#100,#101,#102);
#105=CARTESIAN_POINT('',(0.E0,9.65E0,0.E0));
#106=DIRECTION('',(0.E0,-1.E0,0.E0));
#107=DIRECTION('',(-1.E0,0.E0,0.E0));
#108=AXIS2_PLACEMENT_3D('',#105,#106,#107);
#110=CARTESIAN_POINT('',(0.E0,9.65E0,0.E0));
#111=DIRECTION('',(0.E0,-1.E0,0.E0));
#112=DIRECTION('',(1.E0,0.E0,0.E0));
#113=AXIS2_PLACEMENT_3D('',#110,#111,#112);
#115=DIRECTION('',(0.E0,1.E0,0.E0));
#116=VECTOR('',#115,1.E-2);
#117=CARTESIAN_POINT('',(-1.683879895476E0,9.65E0,8.435004102175E-1));
#118=LINE('',#117,#116);
#119=CARTESIAN_POINT('',(0.E0,9.66E0,0.E0));
#120=DIRECTION('',(0.E0,1.E0,0.E0));
#121=DIRECTION('',(-8.940955197236E-1,0.E0,4.478763240116E-1));
#122=AXIS2_PLACEMENT_3D('',#119,#120,#121);
#124=DIRECTION('',(-1.E0,0.E0,-1.529072076032E-12));
#125=VECTOR('',#124,3.367759790945E0);
#126=CARTESIAN_POINT('',(1.683879895469E0,9.66E0,8.435004102226E-1));
#127=LINE('',#126,#125);
#128=CARTESIAN_POINT('',(0.E0,9.5E0,0.E0));
#129=DIRECTION('',(0.E0,-1.E0,0.E0));
#130=DIRECTION('',(1.E0,0.E0,0.E0));
#131=AXIS2_PLACEMENT_3D('',#128,#129,#130);
#133=CARTESIAN_POINT('',(0.E0,1.091311896062E0,0.E0));
#134=DIRECTION('',(0.E0,-1.E0,0.E0));
#135=DIRECTION('',(1.E0,0.E0,0.E0));
#136=AXIS2_PLACEMENT_3D('',#133,#134,#135);
#138=CARTESIAN_POINT('',(0.E0,1.091311896062E0,0.E0));
#139=DIRECTION('',(0.E0,-1.E0,0.E0));
#140=DIRECTION('',(0.E0,0.E0,1.E0));
#141=AXIS2_PLACEMENT_3D('',#138,#139,#140);
#143=DIRECTION('',(0.E0,1.E0,-5.171238074938E-13));
#144=VECTOR('',#143,8.408688103938E0);
#145=CARTESIAN_POINT('',(-2.E0,1.091311896062E0,4.310787154109E-12));
#146=LINE('',#145,#144);
#147=CARTESIAN_POINT('',(0.E0,2.E-1,0.E0));
#148=DIRECTION('',(0.E0,1.E0,0.E0));
#149=DIRECTION('',(-1.E0,0.E0,0.E0));
#150=AXIS2_PLACEMENT_3D('',#147,#148,#149);
#152=DIRECTION('',(0.E0,1.E0,4.015698261194E-11));
#153=VECTOR('',#152,1.086881039375E-1);
#154=CARTESIAN_POINT('',(-2.E0,2.E-1,-5.068965400464E-14));
#155=LINE('',#154,#153);
#156=CARTESIAN_POINT('',(0.E0,3.086881039375E-1,0.E0));
#157=DIRECTION('',(0.E0,1.E0,0.E0));
#158=DIRECTION('',(-1.E0,0.E0,0.E0));
#159=AXIS2_PLACEMENT_3D('',#156,#157,#158);
#161=CARTESIAN_POINT('',(0.E0,3.086881039375E-1,0.E0));
#162=DIRECTION('',(0.E0,1.E0,0.E0));
#163=DIRECTION('',(0.E0,0.E0,1.E0));
#164=AXIS2_PLACEMENT_3D('',#161,#162,#163);
#166=CARTESIAN_POINT('',(0.E0,8.304372986875E-1,0.E0));
#167=DIRECTION('',(0.E0,-1.E0,0.E0));
#168=DIRECTION('',(6.418814594890E-13,0.E0,-1.E0));
#169=AXIS2_PLACEMENT_3D('',#166,#167,#168);
#171=CARTESIAN_POINT('',(0.E0,1.091311896062E0,0.E0));
#172=DIRECTION('',(0.E0,1.E0,0.E0));
#173=DIRECTION('',(1.E0,0.E0,0.E0));
#174=AXIS2_PLACEMENT_3D('',#171,#172,#173);
#176=CARTESIAN_POINT('',(-1.65E0,1.091311896062E0,3.091043290062E-11));
#177=DIRECTION('',(-1.873367086458E-11,0.E0,-1.E0));
#178=DIRECTION('',(-6.666666666642E-1,-7.453559925021E-1,1.248911390967E-11));
#179=AXIS2_PLACEMENT_3D('',#176,#177,#178);
#181=CARTESIAN_POINT('',(0.E0,5.695627013125E-1,0.E0));
#182=DIRECTION('',(0.E0,1.E0,0.E0));
#183=DIRECTION('',(-1.299401957715E-11,0.E0,1.E0));
#184=AXIS2_PLACEMENT_3D('',#181,#182,#183);
#186=CARTESIAN_POINT('',(0.E0,3.086881039375E-1,0.E0));
#187=DIRECTION('',(0.E0,-1.E0,0.E0));
#188=DIRECTION('',(-1.E0,0.E0,0.E0));
#189=AXIS2_PLACEMENT_3D('',#186,#187,#188);
#191=CARTESIAN_POINT('',(-2.144013265537E-11,3.086881039375E-1,1.65E0));
#192=DIRECTION('',(1.E0,0.E0,1.299402078991E-11));
#193=DIRECTION('',(-8.662680526591E-12,7.453559925012E-1,6.666666666652E-1));
#194=AXIS2_PLACEMENT_3D('',#191,#192,#193);
#196=CARTESIAN_POINT('',(0.E0,5.695627013125E-1,0.E0));
#197=DIRECTION('',(0.E0,1.E0,0.E0));
#198=DIRECTION('',(0.E0,0.E0,-1.E0));
#199=AXIS2_PLACEMENT_3D('',#196,#197,#198);
#201=CARTESIAN_POINT('',(0.E0,7.E-1,-2.E0));
#202=DIRECTION('',(-1.E0,0.E0,0.E0));
#203=DIRECTION('',(0.E0,-7.453559924999E-1,6.666666666667E-1));
#204=AXIS2_PLACEMENT_3D('',#201,#202,#203);
#206=CARTESIAN_POINT('',(0.E0,8.304372986875E-1,0.E0));
#207=DIRECTION('',(0.E0,-1.E0,0.E0));
#208=DIRECTION('',(-1.E0,0.E0,0.E0));
#209=AXIS2_PLACEMENT_3D('',#206,#207,#208);
#211=CARTESIAN_POINT('',(0.E0,8.304372986875E-1,0.E0));
#212=DIRECTION('',(0.E0,-1.E0,0.E0));
#213=DIRECTION('',(0.E0,0.E0,1.E0));
#214=AXIS2_PLACEMENT_3D('',#211,#212,#213);
#216=CARTESIAN_POINT('',(0.E0,7.E-1,2.E0));
#217=DIRECTION('',(-1.E0,0.E0,0.E0));
#218=DIRECTION('',(0.E0,7.453559924999E-1,-6.666666666667E-1));
#219=AXIS2_PLACEMENT_3D('',#216,#217,#218);
#221=CARTESIAN_POINT('',(0.E0,5.695627013125E-1,0.E0));
#222=DIRECTION('',(0.E0,1.E0,0.E0));
#223=DIRECTION('',(-1.E0,0.E0,0.E0));
#224=AXIS2_PLACEMENT_3D('',#221,#222,#223);
#226=CARTESIAN_POINT('',(1.823373049770E-11,1.091311896062E0,1.65E0));
#227=DIRECTION('',(-1.E0,0.E0,1.105074712293E-11));
#228=DIRECTION('',(7.367164748609E-12,-7.453559925009E-1,6.666666666655E-1));
#229=AXIS2_PLACEMENT_3D('',#226,#227,#228);
#231=CARTESIAN_POINT('',(-1.65E0,3.086881039375E-1,-1.668167096833E-11));
#232=DIRECTION('',(-1.011003086804E-11,0.E0,1.E0));
#233=DIRECTION('',(-6.666666666657E-1,7.453559925008E-1,-6.740020578682E-12));
#234=AXIS2_PLACEMENT_3D('',#231,#232,#233);
#236=CARTESIAN_POINT('',(-1.8E0,2.E-1,-1.058965415357E-12));
#237=DIRECTION('',(-5.883141196428E-13,0.E0,1.E0));
#238=DIRECTION('',(-1.E0,0.E0,-5.883141196428E-13));
#239=AXIS2_PLACEMENT_3D('',#236,#237,#238);
#241=DIRECTION('',(0.E0,1.E0,0.E0));
#242=VECTOR('',#241,1.E-1);
#243=CARTESIAN_POINT('',(0.E0,0.E0,1.5E0));
#244=LINE('',#243,#242);
#245=DIRECTION('',(0.E0,1.E0,0.E0));
#246=VECTOR('',#245,1.E-1);
#247=CARTESIAN_POINT('',(0.E0,0.E0,-1.5E0));
#248=LINE('',#247,#246);
#249=CARTESIAN_POINT('',(0.E0,1.E-1,0.E0));
#250=DIRECTION('',(0.E0,-1.E0,0.E0));
#251=DIRECTION('',(0.E0,0.E0,1.E0));
#252=AXIS2_PLACEMENT_3D('',#249,#250,#251);
#254=CARTESIAN_POINT('',(0.E0,1.E-1,0.E0));
#255=DIRECTION('',(0.E0,-1.E0,0.E0));
#256=DIRECTION('',(0.E0,0.E0,-1.E0));
#257=AXIS2_PLACEMENT_3D('',#254,#255,#256);
#259=CARTESIAN_POINT('',(0.E0,1.E-1,8.E-1));
#260=DIRECTION('',(0.E0,-1.E0,0.E0));
#261=DIRECTION('',(0.E0,0.E0,-1.E0));
#262=AXIS2_PLACEMENT_3D('',#259,#260,#261);
#264=CARTESIAN_POINT('',(0.E0,1.E-1,8.E-1));
#265=DIRECTION('',(0.E0,-1.E0,0.E0));
#266=DIRECTION('',(0.E0,0.E0,1.E0));
#267=AXIS2_PLACEMENT_3D('',#264,#265,#266);
#269=CARTESIAN_POINT('',(0.E0,1.E-1,-8.E-1));
#270=DIRECTION('',(0.E0,-1.E0,0.E0));
#271=DIRECTION('',(-1.E0,0.E0,0.E0));
#272=AXIS2_PLACEMENT_3D('',#269,#270,#271);
#274=CARTESIAN_POINT('',(0.E0,1.E-1,-8.E-1));
#275=DIRECTION('',(0.E0,-1.E0,0.E0));
#276=DIRECTION('',(1.E0,0.E0,0.E0));
#277=AXIS2_PLACEMENT_3D('',#274,#275,#276);
#279=DIRECTION('',(0.E0,-1.E0,0.E0));
#280=VECTOR('',#279,2.E1);
#281=CARTESIAN_POINT('',(0.E0,1.E-1,5.5E-1));
#282=LINE('',#281,#280);
#283=DIRECTION('',(0.E0,-1.E0,0.E0));
#284=VECTOR('',#283,2.E1);
#285=CARTESIAN_POINT('',(0.E0,1.E-1,1.05E0));
#286=LINE('',#285,#284);
#287=CARTESIAN_POINT('',(0.E0,-1.99E1,8.E-1));
#288=DIRECTION('',(0.E0,-1.E0,0.E0));
#289=DIRECTION('',(0.E0,0.E0,-1.E0));
#290=AXIS2_PLACEMENT_3D('',#287,#288,#289);
#292=CARTESIAN_POINT('',(0.E0,-1.99E1,8.E-1));
#293=DIRECTION('',(0.E0,-1.E0,0.E0));
#294=DIRECTION('',(0.E0,0.E0,1.E0));
#295=AXIS2_PLACEMENT_3D('',#292,#293,#294);
#297=DIRECTION('',(0.E0,-1.E0,0.E0));
#298=VECTOR('',#297,2.5E1);
#299=CARTESIAN_POINT('',(-2.5E-1,1.E-1,-8.E-1));
#300=LINE('',#299,#298);
#301=DIRECTION('',(0.E0,-1.E0,0.E0));
#302=VECTOR('',#301,2.5E1);
#303=CARTESIAN_POINT('',(2.5E-1,1.E-1,-8.E-1));
#304=LINE('',#303,#302);
#305=CARTESIAN_POINT('',(0.E0,-2.49E1,-8.E-1));
#306=DIRECTION('',(0.E0,-1.E0,0.E0));
#307=DIRECTION('',(-1.E0,0.E0,0.E0));
#308=AXIS2_PLACEMENT_3D('',#305,#306,#307);
#310=CARTESIAN_POINT('',(0.E0,-2.49E1,-8.E-1));
#311=DIRECTION('',(0.E0,-1.E0,0.E0));
#312=DIRECTION('',(1.E0,0.E0,0.E0));
#313=AXIS2_PLACEMENT_3D('',#310,#311,#312);
#315=CARTESIAN_POINT('',(-2.E0,9.5E0,0.E0));
#316=CARTESIAN_POINT('',(2.E0,9.5E0,0.E0));
#317=VERTEX_POINT('',#315);
#318=VERTEX_POINT('',#316);
#319=CARTESIAN_POINT('',(-1.85E0,9.65E0,0.E0));
#320=CARTESIAN_POINT('',(1.85E0,9.65E0,0.E0));
#321=VERTEX_POINT('',#319);
#322=VERTEX_POINT('',#320);
#323=CARTESIAN_POINT('',(0.E0,5.695627013125E-1,-1.883333333333E0));
#324=CARTESIAN_POINT('',(-1.883333333333E0,5.695627013125E-1,0.E0));
#325=VERTEX_POINT('',#323);
#326=VERTEX_POINT('',#324);
#327=CARTESIAN_POINT('',(0.E0,5.695627013125E-1,1.883333333333E0));
#328=VERTEX_POINT('',#327);
#329=CARTESIAN_POINT('',(-2.E0,3.086881039375E-1,0.E0));
#330=CARTESIAN_POINT('',(0.E0,3.086881039375E-1,2.E0));
#331=VERTEX_POINT('',#329);
#332=VERTEX_POINT('',#330);
#333=CARTESIAN_POINT('',(2.E0,3.086881039375E-1,0.E0));
#334=VERTEX_POINT('',#333);
#335=CARTESIAN_POINT('',(2.E0,1.091311896062E0,0.E0));
#336=CARTESIAN_POINT('',(0.E0,1.091311896062E0,2.E0));
#337=VERTEX_POINT('',#335);
#338=VERTEX_POINT('',#336);
#339=CARTESIAN_POINT('',(0.E0,8.304372986875E-1,1.883333333333E0));
#340=CARTESIAN_POINT('',(-1.883333333333E0,8.304372986875E-1,0.E0));
#341=VERTEX_POINT('',#339);
#342=VERTEX_POINT('',#340);
#343=CARTESIAN_POINT('',(-2.E0,1.091311896062E0,0.E0));
#344=VERTEX_POINT('',#343);
#345=CARTESIAN_POINT('',(0.E0,8.304372986875E-1,-1.883333333333E0));
#346=VERTEX_POINT('',#345);
#347=CARTESIAN_POINT('',(0.E0,1.E-1,1.5E0));
#348=CARTESIAN_POINT('',(0.E0,1.E-1,-1.5E0));
#349=VERTEX_POINT('',#347);
#350=VERTEX_POINT('',#348);
#351=CARTESIAN_POINT('',(0.E0,0.E0,1.5E0));
#352=CARTESIAN_POINT('',(0.E0,0.E0,-1.5E0));
#353=VERTEX_POINT('',#351);
#354=VERTEX_POINT('',#352);
#355=CARTESIAN_POINT('',(0.E0,-1.99E1,5.5E-1));
#356=CARTESIAN_POINT('',(0.E0,-1.99E1,1.05E0));
#357=VERTEX_POINT('',#355);
#358=VERTEX_POINT('',#356);
#359=CARTESIAN_POINT('',(0.E0,1.E-1,5.5E-1));
#360=CARTESIAN_POINT('',(0.E0,1.E-1,1.05E0));
#361=VERTEX_POINT('',#359);
#362=VERTEX_POINT('',#360);
#363=CARTESIAN_POINT('',(-2.5E-1,-2.49E1,-8.E-1));
#364=CARTESIAN_POINT('',(2.5E-1,-2.49E1,-8.E-1));
#365=VERTEX_POINT('',#363);
#366=VERTEX_POINT('',#364);
#367=CARTESIAN_POINT('',(-2.5E-1,1.E-1,-8.E-1));
#368=CARTESIAN_POINT('',(2.5E-1,1.E-1,-8.E-1));
#369=VERTEX_POINT('',#367);
#370=VERTEX_POINT('',#368);
#371=CARTESIAN_POINT('',(2.E0,2.E-1,0.E0));
#372=CARTESIAN_POINT('',(-2.E0,2.E-1,0.E0));
#373=VERTEX_POINT('',#371);
#374=VERTEX_POINT('',#372);
#375=CARTESIAN_POINT('',(1.8E0,0.E0,0.E0));
#376=CARTESIAN_POINT('',(-1.8E0,0.E0,0.E0));
#377=VERTEX_POINT('',#375);
#378=VERTEX_POINT('',#376);
#379=CARTESIAN_POINT('',(-1.683879895473E0,9.65E0,8.435004102187E-1));
#380=CARTESIAN_POINT('',(1.683879895472E0,9.65E0,8.435004102214E-1));
#381=VERTEX_POINT('',#379);
#382=VERTEX_POINT('',#380);
#383=CARTESIAN_POINT('',(-1.683879895473E0,9.66E0,8.435004102187E-1));
#384=CARTESIAN_POINT('',(1.683879895472E0,9.66E0,8.435004102214E-1));
#385=VERTEX_POINT('',#383);
#386=VERTEX_POINT('',#384);
#387=CARTESIAN_POINT('',(1.646513606976E0,9.65E0,8.435004102215E-1));
#388=CARTESIAN_POINT('',(-1.646513606977E0,9.65E0,8.435004102185E-1));
#389=VERTEX_POINT('',#387);
#390=VERTEX_POINT('',#388);
#391=CARTESIAN_POINT('',(0.E0,0.E0,0.E0));
#392=DIRECTION('',(0.E0,1.E0,0.E0));
#393=DIRECTION('',(1.E0,0.E0,0.E0));
#394=AXIS2_PLACEMENT_3D('',#391,#392,#393);
#395=PLANE('',#394);
#397=ORIENTED_EDGE('',*,*,#396,.T.);
#399=ORIENTED_EDGE('',*,*,#398,.T.);
#400=EDGE_LOOP('',(#397,#399));
#401=FACE_OUTER_BOUND('',#400,.F.);
#403=ORIENTED_EDGE('',*,*,#402,.T.);
#405=ORIENTED_EDGE('',*,*,#404,.T.);
#406=EDGE_LOOP('',(#403,#405));
#407=FACE_BOUND('',#406,.F.);
#409=FILL_AREA_STYLE_COLOUR('',#16);
#410=FILL_AREA_STYLE('',(#409));
#411=SURFACE_STYLE_FILL_AREA(#410);
#412=SURFACE_SIDE_STYLE('',(#411));
#413=SURFACE_STYLE_USAGE(.POSITIVE.,#412);
#414=PRESENTATION_STYLE_ASSIGNMENT((#413));
#415=STYLED_ITEM('',(#414),#408);
#416=CARTESIAN_POINT('',(0.E0,2.E-1,0.E0));
#417=DIRECTION('',(0.E0,1.E0,0.E0));
#418=DIRECTION('',(9.999593695531E-1,0.E0,9.014390882953E-3));
#419=AXIS2_PLACEMENT_3D('',#416,#417,#418);
#420=TOROIDAL_SURFACE('',#419,1.8E0,2.E-1);
#422=ORIENTED_EDGE('',*,*,#421,.T.);
#424=ORIENTED_EDGE('',*,*,#423,.T.);
#425=ORIENTED_EDGE('',*,*,#396,.F.);
#427=ORIENTED_EDGE('',*,*,#426,.F.);
#428=EDGE_LOOP('',(#422,#424,#425,#427));
#429=FACE_OUTER_BOUND('',#428,.F.);
#431=FILL_AREA_STYLE_COLOUR('',#16);
#432=FILL_AREA_STYLE('',(#431));
#433=SURFACE_STYLE_FILL_AREA(#432);
#434=SURFACE_SIDE_STYLE('',(#433));
#435=SURFACE_STYLE_USAGE(.POSITIVE.,#434);
#436=PRESENTATION_STYLE_ASSIGNMENT((#435));
#437=STYLED_ITEM('',(#436),#430);
#438=CARTESIAN_POINT('',(0.E0,0.E0,0.E0));
#439=DIRECTION('',(0.E0,1.E0,0.E0));
#440=DIRECTION('',(1.E0,0.E0,0.E0));
#441=AXIS2_PLACEMENT_3D('',#438,#439,#440);
#442=CYLINDRICAL_SURFACE('',#441,2.E0);
#444=ORIENTED_EDGE('',*,*,#443,.F.);
#446=ORIENTED_EDGE('',*,*,#445,.F.);
#448=ORIENTED_EDGE('',*,*,#447,.F.);
#450=ORIENTED_EDGE('',*,*,#449,.T.);
#451=EDGE_LOOP('',(#444,#446,#448,#450));
#452=FACE_OUTER_BOUND('',#451,.F.);
#454=FILL_AREA_STYLE_COLOUR('',#16);
#455=FILL_AREA_STYLE('',(#454));
#456=SURFACE_STYLE_FILL_AREA(#455);
#457=SURFACE_SIDE_STYLE('',(#456));
#458=SURFACE_STYLE_USAGE(.POSITIVE.,#457);
#459=PRESENTATION_STYLE_ASSIGNMENT((#458));
#460=STYLED_ITEM('',(#459),#453);
#461=CARTESIAN_POINT('',(0.E0,0.E0,0.E0));
#462=DIRECTION('',(0.E0,1.E0,0.E0));
#463=DIRECTION('',(1.E0,0.E0,0.E0));
#464=AXIS2_PLACEMENT_3D('',#461,#462,#463);
#465=CYLINDRICAL_SURFACE('',#464,2.E0);
#466=ORIENTED_EDGE('',*,*,#421,.F.);
#468=ORIENTED_EDGE('',*,*,#467,.T.);
#470=ORIENTED_EDGE('',*,*,#469,.F.);
#472=ORIENTED_EDGE('',*,*,#471,.F.);
#473=EDGE_LOOP('',(#466,#468,#470,#472));
#474=FACE_OUTER_BOUND('',#473,.F.);
#476=FILL_AREA_STYLE_COLOUR('',#16);
#477=FILL_AREA_STYLE('',(#476));
#478=SURFACE_STYLE_FILL_AREA(#477);
#479=SURFACE_SIDE_STYLE('',(#478));
#480=SURFACE_STYLE_USAGE(.POSITIVE.,#479);
#481=PRESENTATION_STYLE_ASSIGNMENT((#480));
#482=STYLED_ITEM('',(#481),#475);
#483=CARTESIAN_POINT('',(0.E0,9.5E0,0.E0));
#484=DIRECTION('',(0.E0,1.E0,0.E0));
#485=DIRECTION('',(-9.999658128723E-1,0.E0,8.268802011503E-3));
#486=AXIS2_PLACEMENT_3D('',#483,#484,#485);
#487=TOROIDAL_SURFACE('',#486,1.85E0,1.5E-1);
#488=ORIENTED_EDGE('',*,*,#443,.T.);
#490=ORIENTED_EDGE('',*,*,#489,.T.);
#492=ORIENTED_EDGE('',*,*,#491,.F.);
#494=ORIENTED_EDGE('',*,*,#493,.F.);
#495=EDGE_LOOP('',(#488,#490,#492,#494));
#496=FACE_OUTER_BOUND('',#495,.F.);
#498=FILL_AREA_STYLE_COLOUR('',#16);
#499=FILL_AREA_STYLE('',(#498));
#500=SURFACE_STYLE_FILL_AREA(#499);
#501=SURFACE_SIDE_STYLE('',(#500));
#502=SURFACE_STYLE_USAGE(.POSITIVE.,#501);
#503=PRESENTATION_STYLE_ASSIGNMENT((#502));
#504=STYLED_ITEM('',(#503),#497);
#505=CARTESIAN_POINT('',(0.E0,9.5E0,0.E0));
#506=DIRECTION('',(0.E0,1.E0,0.E0));
#507=DIRECTION('',(9.999658128723E-1,0.E0,-8.268802011503E-3));
#508=AXIS2_PLACEMENT_3D('',#505,#506,#507);
#509=TOROIDAL_SURFACE('',#508,1.85E0,1.5E-1);
#511=ORIENTED_EDGE('',*,*,#510,.T.);
#513=ORIENTED_EDGE('',*,*,#512,.F.);
#514=ORIENTED_EDGE('',*,*,#489,.F.);
#516=ORIENTED_EDGE('',*,*,#515,.T.);
#517=ORIENTED_EDGE('',*,*,#493,.T.);
#519=ORIENTED_EDGE('',*,*,#518,.F.);
#520=EDGE_LOOP('',(#511,#513,#514,#516,#517,#519));
#521=FACE_OUTER_BOUND('',#520,.F.);
#523=FILL_AREA_STYLE_COLOUR('',#16);
#524=FILL_AREA_STYLE('',(#523));
#525=SURFACE_STYLE_FILL_AREA(#524);
#526=SURFACE_SIDE_STYLE('',(#525));
#527=SURFACE_STYLE_USAGE(.POSITIVE.,#526);
#528=PRESENTATION_STYLE_ASSIGNMENT((#527));
#529=STYLED_ITEM('',(#528),#522);
#530=CARTESIAN_POINT('',(0.E0,9.65E0,0.E0));
#531=DIRECTION('',(0.E0,1.E0,0.E0));
#532=DIRECTION('',(1.E0,0.E0,0.E0));
#533=AXIS2_PLACEMENT_3D('',#530,#531,#532);
#534=PLANE('',#533);
#535=ORIENTED_EDGE('',*,*,#510,.F.);
#537=ORIENTED_EDGE('',*,*,#536,.T.);
#539=ORIENTED_EDGE('',*,*,#538,.T.);
#541=ORIENTED_EDGE('',*,*,#540,.T.);
#542=EDGE_LOOP('',(#535,#537,#539,#541));
#543=FACE_OUTER_BOUND('',#542,.F.);
#545=CARTESIAN_POINT('',(1.683879895464E0,9.65E0,8.435004102216E-1));
#546=DIRECTION('',(9.173179739921E-13,0.E0,-1.E0));
#547=DIRECTION('',(-1.E0,0.E0,-9.173179739921E-13));
#548=AXIS2_PLACEMENT_3D('',#545,#546,#547);
#549=PLANE('',#548);
#551=ORIENTED_EDGE('',*,*,#550,.F.);
#552=ORIENTED_EDGE('',*,*,#540,.F.);
#554=ORIENTED_EDGE('',*,*,#553,.T.);
#556=ORIENTED_EDGE('',*,*,#555,.T.);
#558=ORIENTED_EDGE('',*,*,#557,.F.);
#559=ORIENTED_EDGE('',*,*,#536,.F.);
#560=EDGE_LOOP('',(#551,#552,#554,#556,#558,#559));
#561=FACE_OUTER_BOUND('',#560,.F.);
#563=CARTESIAN_POINT('',(0.E0,9.65E0,0.E0));
#564=DIRECTION('',(0.E0,1.E0,0.E0));
#565=DIRECTION('',(1.E0,0.E0,0.E0));
#566=AXIS2_PLACEMENT_3D('',#563,#564,#565);
#567=PLANE('',#566);
#568=ORIENTED_EDGE('',*,*,#550,.T.);
#569=ORIENTED_EDGE('',*,*,#518,.T.);
#570=ORIENTED_EDGE('',*,*,#491,.T.);
#571=ORIENTED_EDGE('',*,*,#512,.T.);
#572=EDGE_LOOP('',(#568,#569,#570,#571));
#573=FACE_OUTER_BOUND('',#572,.F.);
#575=FILL_AREA_STYLE_COLOUR('',#16);
#576=FILL_AREA_STYLE('',(#575));
#577=SURFACE_STYLE_FILL_AREA(#576);
#578=SURFACE_SIDE_STYLE('',(#577));
#579=SURFACE_STYLE_USAGE(.POSITIVE.,#578);
#580=PRESENTATION_STYLE_ASSIGNMENT((#579));
#581=STYLED_ITEM('',(#580),#574);
#582=CARTESIAN_POINT('',(0.E0,9.65E0,0.E0));
#583=DIRECTION('',(0.E0,1.E0,0.E0));
#584=DIRECTION('',(1.E0,0.E0,0.E0));
#585=AXIS2_PLACEMENT_3D('',#582,#583,#584);
#586=CYLINDRICAL_SURFACE('',#585,1.883333333326E0);
#587=ORIENTED_EDGE('',*,*,#538,.F.);
#588=ORIENTED_EDGE('',*,*,#557,.T.);
#590=ORIENTED_EDGE('',*,*,#589,.T.);
#591=ORIENTED_EDGE('',*,*,#553,.F.);
#592=EDGE_LOOP('',(#587,#588,#590,#591));
#593=FACE_OUTER_BOUND('',#592,.F.);
#595=CARTESIAN_POINT('',(0.E0,9.66E0,0.E0));
#596=DIRECTION('',(0.E0,1.E0,0.E0));
#597=DIRECTION('',(1.E0,0.E0,0.E0));
#598=AXIS2_PLACEMENT_3D('',#595,#596,#597);
#599=PLANE('',#598);
#600=ORIENTED_EDGE('',*,*,#589,.F.);
#601=ORIENTED_EDGE('',*,*,#555,.F.);
#602=EDGE_LOOP('',(#600,#601));
#603=FACE_OUTER_BOUND('',#602,.F.);
#605=FILL_AREA_STYLE_COLOUR('',#4);
#606=FILL_AREA_STYLE('',(#605));
#607=SURFACE_STYLE_FILL_AREA(#606);
#608=SURFACE_SIDE_STYLE('',(#607));
#609=SURFACE_STYLE_USAGE(.POSITIVE.,#608);
#610=PRESENTATION_STYLE_ASSIGNMENT((#609));
#611=STYLED_ITEM('',(#610),#604);
#612=CARTESIAN_POINT('',(0.E0,0.E0,0.E0));
#613=DIRECTION('',(0.E0,1.E0,0.E0));
#614=DIRECTION('',(1.E0,0.E0,0.E0));
#615=AXIS2_PLACEMENT_3D('',#612,#613,#614);
#616=CYLINDRICAL_SURFACE('',#615,2.E0);
#617=ORIENTED_EDGE('',*,*,#515,.F.);
#618=ORIENTED_EDGE('',*,*,#449,.F.);
#620=ORIENTED_EDGE('',*,*,#619,.T.);
#622=ORIENTED_EDGE('',*,*,#621,.T.);
#623=ORIENTED_EDGE('',*,*,#445,.T.);
#624=EDGE_LOOP('',(#617,#618,#620,#622,#623));
#625=FACE_OUTER_BOUND('',#624,.F.);
#627=FILL_AREA_STYLE_COLOUR('',#16);
#628=FILL_AREA_STYLE('',(#627));
#629=SURFACE_STYLE_FILL_AREA(#628);
#630=SURFACE_SIDE_STYLE('',(#629));
#631=SURFACE_STYLE_USAGE(.POSITIVE.,#630);
#632=PRESENTATION_STYLE_ASSIGNMENT((#631));
#633=STYLED_ITEM('',(#632),#626);
#634=CARTESIAN_POINT('',(0.E0,0.E0,0.E0));
#635=DIRECTION('',(0.E0,1.E0,0.E0));
#636=DIRECTION('',(1.E0,0.E0,0.E0));
#637=AXIS2_PLACEMENT_3D('',#634,#635,#636);
#638=CYLINDRICAL_SURFACE('',#637,2.E0);
#640=ORIENTED_EDGE('',*,*,#639,.F.);
#641=ORIENTED_EDGE('',*,*,#471,.T.);
#643=ORIENTED_EDGE('',*,*,#642,.T.);
#645=ORIENTED_EDGE('',*,*,#644,.T.);
#646=ORIENTED_EDGE('',*,*,#467,.F.);
#647=EDGE_LOOP('',(#640,#641,#643,#645,#646));
#648=FACE_OUTER_BOUND('',#647,.F.);
#650=FILL_AREA_STYLE_COLOUR('',#16);
#651=FILL_AREA_STYLE('',(#650));
#652=SURFACE_STYLE_FILL_AREA(#651);
#653=SURFACE_SIDE_STYLE('',(#652));
#654=SURFACE_STYLE_USAGE(.POSITIVE.,#653);
#655=PRESENTATION_STYLE_ASSIGNMENT((#654));
#656=STYLED_ITEM('',(#655),#649);
#657=CARTESIAN_POINT('',(0.E0,1.091311896062E0,0.E0));
#658=DIRECTION('',(0.E0,1.E0,0.E0));
#659=DIRECTION('',(-9.061680080659E-3,0.E0,-9.999589421342E-1));
#660=AXIS2_PLACEMENT_3D('',#657,#658,#659);
#661=TOROIDAL_SURFACE('',#660,1.65E0,3.5E-1);
#663=ORIENTED_EDGE('',*,*,#662,.T.);
#665=ORIENTED_EDGE('',*,*,#664,.T.);
#666=ORIENTED_EDGE('',*,*,#619,.F.);
#667=ORIENTED_EDGE('',*,*,#447,.T.);
#669=ORIENTED_EDGE('',*,*,#668,.F.);
#671=ORIENTED_EDGE('',*,*,#670,.T.);
#672=EDGE_LOOP('',(#663,#665,#666,#667,#669,#671));
#673=FACE_OUTER_BOUND('',#672,.F.);
#675=FILL_AREA_STYLE_COLOUR('',#16);
#676=FILL_AREA_STYLE('',(#675));
#677=SURFACE_STYLE_FILL_AREA(#676);
#678=SURFACE_SIDE_STYLE('',(#677));
#679=SURFACE_STYLE_USAGE(.POSITIVE.,#678);
#680=PRESENTATION_STYLE_ASSIGNMENT((#679));
#681=STYLED_ITEM('',(#680),#674);
#682=CARTESIAN_POINT('',(0.E0,7.E-1,0.E0));
#683=DIRECTION('',(0.E0,1.E0,0.E0));
#684=DIRECTION('',(0.E0,0.E0,-1.E0));
#685=AXIS2_PLACEMENT_3D('',#682,#683,#684);
#686=TOROIDAL_SURFACE('',#685,2.E0,1.75E-1);
#688=ORIENTED_EDGE('',*,*,#687,.F.);
#690=ORIENTED_EDGE('',*,*,#689,.F.);
#691=ORIENTED_EDGE('',*,*,#662,.F.);
#693=ORIENTED_EDGE('',*,*,#692,.F.);
#694=EDGE_LOOP('',(#688,#690,#691,#693));
#695=FACE_OUTER_BOUND('',#694,.F.);
#697=FILL_AREA_STYLE_COLOUR('',#16);
#698=FILL_AREA_STYLE('',(#697));
#699=SURFACE_STYLE_FILL_AREA(#698);
#700=SURFACE_SIDE_STYLE('',(#699));
#701=SURFACE_STYLE_USAGE(.POSITIVE.,#700);
#702=PRESENTATION_STYLE_ASSIGNMENT((#701));
#703=STYLED_ITEM('',(#702),#696);
#704=CARTESIAN_POINT('',(0.E0,3.086881039375E-1,0.E0));
#705=DIRECTION('',(0.E0,1.E0,0.E0));
#706=DIRECTION('',(9.999630222964E-1,0.E0,8.599653470822E-3));
#707=AXIS2_PLACEMENT_3D('',#704,#705,#706);
#708=TOROIDAL_SURFACE('',#707,1.65E0,3.5E-1);
#709=ORIENTED_EDGE('',*,*,#687,.T.);
#711=ORIENTED_EDGE('',*,*,#710,.T.);
#713=ORIENTED_EDGE('',*,*,#712,.T.);
#714=ORIENTED_EDGE('',*,*,#469,.T.);
#715=ORIENTED_EDGE('',*,*,#644,.F.);
#717=ORIENTED_EDGE('',*,*,#716,.F.);
#718=EDGE_LOOP('',(#709,#711,#713,#714,#715,#717));
#719=FACE_OUTER_BOUND('',#718,.F.);
#721=FILL_AREA_STYLE_COLOUR('',#16);
#722=FILL_AREA_STYLE('',(#721));
#723=SURFACE_STYLE_FILL_AREA(#722);
#724=SURFACE_SIDE_STYLE('',(#723));
#725=SURFACE_STYLE_USAGE(.POSITIVE.,#724);
#726=PRESENTATION_STYLE_ASSIGNMENT((#725));
#727=STYLED_ITEM('',(#726),#720);
#728=CARTESIAN_POINT('',(0.E0,7.E-1,0.E0));
#729=DIRECTION('',(0.E0,1.E0,0.E0));
#730=DIRECTION('',(0.E0,0.E0,-1.E0));
#731=AXIS2_PLACEMENT_3D('',#728,#729,#730);
#732=TOROIDAL_SURFACE('',#731,2.E0,1.75E-1);
#733=ORIENTED_EDGE('',*,*,#710,.F.);
#734=ORIENTED_EDGE('',*,*,#692,.T.);
#735=ORIENTED_EDGE('',*,*,#670,.F.);
#737=ORIENTED_EDGE('',*,*,#736,.F.);
#738=ORIENTED_EDGE('',*,*,#689,.T.);
#740=ORIENTED_EDGE('',*,*,#739,.F.);
#741=EDGE_LOOP('',(#733,#734,#735,#737,#738,#740));
#742=FACE_OUTER_BOUND('',#741,.F.);
#744=FILL_AREA_STYLE_COLOUR('',#16);
#745=FILL_AREA_STYLE('',(#744));
#746=SURFACE_STYLE_FILL_AREA(#745);
#747=SURFACE_SIDE_STYLE('',(#746));
#748=SURFACE_STYLE_USAGE(.POSITIVE.,#747);
#749=PRESENTATION_STYLE_ASSIGNMENT((#748));
#750=STYLED_ITEM('',(#749),#743);
#751=CARTESIAN_POINT('',(0.E0,1.091311896062E0,0.E0));
#752=DIRECTION('',(0.E0,1.E0,0.E0));
#753=DIRECTION('',(9.061680080659E-3,0.E0,9.999589421342E-1));
#754=AXIS2_PLACEMENT_3D('',#751,#752,#753);
#755=TOROIDAL_SURFACE('',#754,1.65E0,3.5E-1);
#756=ORIENTED_EDGE('',*,*,#736,.T.);
#757=ORIENTED_EDGE('',*,*,#668,.T.);
#758=ORIENTED_EDGE('',*,*,#621,.F.);
#759=ORIENTED_EDGE('',*,*,#664,.F.);
#760=EDGE_LOOP('',(#756,#757,#758,#759));
#761=FACE_OUTER_BOUND('',#760,.F.);
#763=FILL_AREA_STYLE_COLOUR('',#16);
#764=FILL_AREA_STYLE('',(#763));
#765=SURFACE_STYLE_FILL_AREA(#764);
#766=SURFACE_SIDE_STYLE('',(#765));
#767=SURFACE_STYLE_USAGE(.POSITIVE.,#766);
#768=PRESENTATION_STYLE_ASSIGNMENT((#767));
#769=STYLED_ITEM('',(#768),#762);
#770=CARTESIAN_POINT('',(0.E0,3.086881039375E-1,0.E0));
#771=DIRECTION('',(0.E0,1.E0,0.E0));
#772=DIRECTION('',(-9.999630222964E-1,0.E0,-8.599653470822E-3));
#773=AXIS2_PLACEMENT_3D('',#770,#771,#772);
#774=TOROIDAL_SURFACE('',#773,1.65E0,3.5E-1);
#775=ORIENTED_EDGE('',*,*,#739,.T.);
#776=ORIENTED_EDGE('',*,*,#716,.T.);
#777=ORIENTED_EDGE('',*,*,#642,.F.);
#778=ORIENTED_EDGE('',*,*,#712,.F.);
#779=EDGE_LOOP('',(#775,#776,#777,#778));
#780=FACE_OUTER_BOUND('',#779,.F.);
#782=FILL_AREA_STYLE_COLOUR('',#16);
#783=FILL_AREA_STYLE('',(#782));
#784=SURFACE_STYLE_FILL_AREA(#783);
#785=SURFACE_SIDE_STYLE('',(#784));
#786=SURFACE_STYLE_USAGE(.POSITIVE.,#785);
#787=PRESENTATION_STYLE_ASSIGNMENT((#786));
#788=STYLED_ITEM('',(#787),#781);
#789=CARTESIAN_POINT('',(0.E0,2.E-1,0.E0));
#790=DIRECTION('',(0.E0,1.E0,0.E0));
#791=DIRECTION('',(-9.999593695531E-1,0.E0,-9.014390882953E-3));
#792=AXIS2_PLACEMENT_3D('',#789,#790,#791);
#793=TOROIDAL_SURFACE('',#792,1.8E0,2.E-1);
#794=ORIENTED_EDGE('',*,*,#639,.T.);
#795=ORIENTED_EDGE('',*,*,#426,.T.);
#796=ORIENTED_EDGE('',*,*,#398,.F.);
#797=ORIENTED_EDGE('',*,*,#423,.F.);
#798=EDGE_LOOP('',(#794,#795,#796,#797));
#799=FACE_OUTER_BOUND('',#798,.F.);
#801=FILL_AREA_STYLE_COLOUR('',#16);
#802=FILL_AREA_STYLE('',(#801));
#803=SURFACE_STYLE_FILL_AREA(#802);
#804=SURFACE_SIDE_STYLE('',(#803));
#805=SURFACE_STYLE_USAGE(.POSITIVE.,#804);
#806=PRESENTATION_STYLE_ASSIGNMENT((#805));
#807=STYLED_ITEM('',(#806),#800);
#808=CARTESIAN_POINT('',(0.E0,0.E0,0.E0));
#809=DIRECTION('',(0.E0,-1.E0,0.E0));
#810=DIRECTION('',(0.E0,0.E0,1.E0));
#811=AXIS2_PLACEMENT_3D('',#808,#809,#810);
#812=CYLINDRICAL_SURFACE('',#811,1.5E0);
#813=ORIENTED_EDGE('',*,*,#402,.F.);
#815=ORIENTED_EDGE('',*,*,#814,.T.);
#817=ORIENTED_EDGE('',*,*,#816,.T.);
#819=ORIENTED_EDGE('',*,*,#818,.F.);
#820=EDGE_LOOP('',(#813,#815,#817,#819));
#821=FACE_OUTER_BOUND('',#820,.F.);
#823=FILL_AREA_STYLE_COLOUR('',#16);
#824=FILL_AREA_STYLE('',(#823));
#825=SURFACE_STYLE_FILL_AREA(#824);
#826=SURFACE_SIDE_STYLE('',(#825));
#827=SURFACE_STYLE_USAGE(.POSITIVE.,#826);
#828=PRESENTATION_STYLE_ASSIGNMENT((#827));
#829=STYLED_ITEM('',(#828),#822);
#830=CARTESIAN_POINT('',(0.E0,0.E0,0.E0));
#831=DIRECTION('',(0.E0,-1.E0,0.E0));
#832=DIRECTION('',(0.E0,0.E0,1.E0));
#833=AXIS2_PLACEMENT_3D('',#830,#831,#832);
#834=CYLINDRICAL_SURFACE('',#833,1.5E0);
#835=ORIENTED_EDGE('',*,*,#404,.F.);
#836=ORIENTED_EDGE('',*,*,#818,.T.);
#838=ORIENTED_EDGE('',*,*,#837,.T.);
#839=ORIENTED_EDGE('',*,*,#814,.F.);
#840=EDGE_LOOP('',(#835,#836,#838,#839));
#841=FACE_OUTER_BOUND('',#840,.F.);
#843=FILL_AREA_STYLE_COLOUR('',#16);
#844=FILL_AREA_STYLE('',(#843));
#845=SURFACE_STYLE_FILL_AREA(#844);
#846=SURFACE_SIDE_STYLE('',(#845));
#847=SURFACE_STYLE_USAGE(.POSITIVE.,#846);
#848=PRESENTATION_STYLE_ASSIGNMENT((#847));
#849=STYLED_ITEM('',(#848),#842);
#850=CARTESIAN_POINT('',(0.E0,1.E-1,0.E0));
#851=DIRECTION('',(0.E0,-1.E0,0.E0));
#852=DIRECTION('',(0.E0,0.E0,1.E0));
#853=AXIS2_PLACEMENT_3D('',#850,#851,#852);
#854=PLANE('',#853);
#855=ORIENTED_EDGE('',*,*,#816,.F.);
#856=ORIENTED_EDGE('',*,*,#837,.F.);
#857=EDGE_LOOP('',(#855,#856));
#858=FACE_OUTER_BOUND('',#857,.F.);
#860=ORIENTED_EDGE('',*,*,#859,.T.);
#862=ORIENTED_EDGE('',*,*,#861,.T.);
#863=EDGE_LOOP('',(#860,#862));
#864=FACE_BOUND('',#863,.F.);
#866=ORIENTED_EDGE('',*,*,#865,.T.);
#868=ORIENTED_EDGE('',*,*,#867,.T.);
#869=EDGE_LOOP('',(#866,#868));
#870=FACE_BOUND('',#869,.F.);
#872=FILL_AREA_STYLE_COLOUR('',#4);
#873=FILL_AREA_STYLE('',(#872));
#874=SURFACE_STYLE_FILL_AREA(#873);
#875=SURFACE_SIDE_STYLE('',(#874));
#876=SURFACE_STYLE_USAGE(.POSITIVE.,#875);
#877=PRESENTATION_STYLE_ASSIGNMENT((#876));
#878=STYLED_ITEM('',(#877),#871);
#879=CARTESIAN_POINT('',(0.E0,1.E-1,8.E-1));
#880=DIRECTION('',(0.E0,-1.E0,0.E0));
#881=DIRECTION('',(0.E0,0.E0,-1.E0));
#882=AXIS2_PLACEMENT_3D('',#879,#880,#881);
#883=CYLINDRICAL_SURFACE('',#882,2.5E-1);
#884=ORIENTED_EDGE('',*,*,#859,.F.);
#886=ORIENTED_EDGE('',*,*,#885,.T.);
#888=ORIENTED_EDGE('',*,*,#887,.T.);
#890=ORIENTED_EDGE('',*,*,#889,.F.);
#891=EDGE_LOOP('',(#884,#886,#888,#890));
#892=FACE_OUTER_BOUND('',#891,.F.);
#894=FILL_AREA_STYLE_COLOUR('',#10);
#895=FILL_AREA_STYLE('',(#894));
#896=SURFACE_STYLE_FILL_AREA(#895);
#897=SURFACE_SIDE_STYLE('',(#896));
#898=SURFACE_STYLE_USAGE(.POSITIVE.,#897);
#899=PRESENTATION_STYLE_ASSIGNMENT((#898));
#900=STYLED_ITEM('',(#899),#893);
#901=CARTESIAN_POINT('',(0.E0,1.E-1,8.E-1));
#902=DIRECTION('',(0.E0,-1.E0,0.E0));
#903=DIRECTION('',(0.E0,0.E0,-1.E0));
#904=AXIS2_PLACEMENT_3D('',#901,#902,#903);
#905=CYLINDRICAL_SURFACE('',#904,2.5E-1);
#906=ORIENTED_EDGE('',*,*,#861,.F.);
#907=ORIENTED_EDGE('',*,*,#889,.T.);
#909=ORIENTED_EDGE('',*,*,#908,.T.);
#910=ORIENTED_EDGE('',*,*,#885,.F.);
#911=EDGE_LOOP('',(#906,#907,#909,#910));
#912=FACE_OUTER_BOUND('',#911,.F.);
#914=FILL_AREA_STYLE_COLOUR('',#10);
#915=FILL_AREA_STYLE('',(#914));
#916=SURFACE_STYLE_FILL_AREA(#915);
#917=SURFACE_SIDE_STYLE('',(#916));
#918=SURFACE_STYLE_USAGE(.POSITIVE.,#917);
#919=PRESENTATION_STYLE_ASSIGNMENT((#918));
#920=STYLED_ITEM('',(#919),#913);
#921=CARTESIAN_POINT('',(0.E0,-1.99E1,0.E0));
#922=DIRECTION('',(0.E0,-1.E0,0.E0));
#923=DIRECTION('',(0.E0,0.E0,-1.E0));
#924=AXIS2_PLACEMENT_3D('',#921,#922,#923);
#925=PLANE('',#924);
#926=ORIENTED_EDGE('',*,*,#887,.F.);
#927=ORIENTED_EDGE('',*,*,#908,.F.);
#928=EDGE_LOOP('',(#926,#927));
#929=FACE_OUTER_BOUND('',#928,.F.);
#931=FILL_AREA_STYLE_COLOUR('',#10);
#932=FILL_AREA_STYLE('',(#931));
#933=SURFACE_STYLE_FILL_AREA(#932);
#934=SURFACE_SIDE_STYLE('',(#933));
#935=SURFACE_STYLE_USAGE(.POSITIVE.,#934);
#936=PRESENTATION_STYLE_ASSIGNMENT((#935));
#937=STYLED_ITEM('',(#936),#930);
#938=CARTESIAN_POINT('',(0.E0,1.E-1,-8.E-1));
#939=DIRECTION('',(0.E0,-1.E0,0.E0));
#940=DIRECTION('',(-1.E0,0.E0,0.E0));
#941=AXIS2_PLACEMENT_3D('',#938,#939,#940);
#942=CYLINDRICAL_SURFACE('',#941,2.5E-1);
#943=ORIENTED_EDGE('',*,*,#865,.F.);
#945=ORIENTED_EDGE('',*,*,#944,.T.);
#947=ORIENTED_EDGE('',*,*,#946,.T.);
#949=ORIENTED_EDGE('',*,*,#948,.F.);
#950=EDGE_LOOP('',(#943,#945,#947,#949));
#951=FACE_OUTER_BOUND('',#950,.F.);
#953=FILL_AREA_STYLE_COLOUR('',#10);
#954=FILL_AREA_STYLE('',(#953));
#955=SURFACE_STYLE_FILL_AREA(#954);
#956=SURFACE_SIDE_STYLE('',(#955));
#957=SURFACE_STYLE_USAGE(.POSITIVE.,#956);
#958=PRESENTATION_STYLE_ASSIGNMENT((#957));
#959=STYLED_ITEM('',(#958),#952);
#960=CARTESIAN_POINT('',(0.E0,1.E-1,-8.E-1));
#961=DIRECTION('',(0.E0,-1.E0,0.E0));
#962=DIRECTION('',(-1.E0,0.E0,0.E0));
#963=AXIS2_PLACEMENT_3D('',#960,#961,#962);
#964=CYLINDRICAL_SURFACE('',#963,2.5E-1);
#965=ORIENTED_EDGE('',*,*,#867,.F.);
#966=ORIENTED_EDGE('',*,*,#948,.T.);
#968=ORIENTED_EDGE('',*,*,#967,.T.);
#969=ORIENTED_EDGE('',*,*,#944,.F.);
#970=EDGE_LOOP('',(#965,#966,#968,#969));
#971=FACE_OUTER_BOUND('',#970,.F.);
#973=FILL_AREA_STYLE_COLOUR('',#10);
#974=FILL_AREA_STYLE('',(#973));
#975=SURFACE_STYLE_FILL_AREA(#974);
#976=SURFACE_SIDE_STYLE('',(#975));
#977=SURFACE_STYLE_USAGE(.POSITIVE.,#976);
#978=PRESENTATION_STYLE_ASSIGNMENT((#977));
#979=STYLED_ITEM('',(#978),#972);
#980=CARTESIAN_POINT('',(0.E0,-2.49E1,0.E0));
#981=DIRECTION('',(0.E0,-1.E0,0.E0));
#982=DIRECTION('',(-1.E0,0.E0,0.E0));
#983=AXIS2_PLACEMENT_3D('',#980,#981,#982);
#984=PLANE('',#983);
#985=ORIENTED_EDGE('',*,*,#946,.F.);
#986=ORIENTED_EDGE('',*,*,#967,.F.);
#987=EDGE_LOOP('',(#985,#986));
#988=FACE_OUTER_BOUND('',#987,.F.);
#990=FILL_AREA_STYLE_COLOUR('',#10);
#991=FILL_AREA_STYLE('',(#990));
#992=SURFACE_STYLE_FILL_AREA(#991);
#993=SURFACE_SIDE_STYLE('',(#992));
#994=SURFACE_STYLE_USAGE(.POSITIVE.,#993);
#995=PRESENTATION_STYLE_ASSIGNMENT((#994));
#996=STYLED_ITEM('',(#995),#989);
#997=CLOSED_SHELL('',(#408,#430,#453,#475,#497,#522,#544,#562,#574,#594,#604,
#626,#649,#674,#696,#720,#743,#762,#781,#800,#822,#842,#871,#893,#913,#930,#952,
#972,#989));
#998=MANIFOLD_SOLID_BREP('',#997);
#1001=PLANE_ANGLE_MEASURE_WITH_UNIT(PLANE_ANGLE_MEASURE(1.745329251994E-2),
#1000);
#1002=(CONVERSION_BASED_UNIT('DEGREE',#1001)NAMED_UNIT(*)PLANE_ANGLE_UNIT());
#1004=UNCERTAINTY_MEASURE_WITH_UNIT(LENGTH_MEASURE(3.501850211637E-3),#999,
'closure',
'Maximum model space distance between geometric entities at asserted connectivities');
#1007=MECHANICAL_DESIGN_GEOMETRIC_PRESENTATION_REPRESENTATION('',(#415,#437,
#460,#482,#504,#529,#581,#611,#633,#656,#681,#703,#727,#750,#769,#788,#807,#829,
#849,#878,#900,#920,#937,#959,#979,#996),#1005);
#1008=APPLICATION_CONTEXT('automotive design');
#1009=APPLICATION_PROTOCOL_DEFINITION('international standard',
'config_control_design',1994,#1008);
#1010=PRODUCT_DEFINITION_CONTEXT('',#1008,'design');
#1011=PRODUCT_CONTEXT('',#1008,'mechanical');
#1012=PRODUCT('0004096500','0004096500','NOT SPECIFIED',(#1011));
#1013=PRODUCT_DEFINITION_FORMATION_WITH_SPECIFIED_SOURCE('29','LAST_VERSION',
#1012,.MADE.);
#1021=DERIVED_UNIT_ELEMENT(#1020,2.E0);
#1022=AREA_UNIT((#1021));
#1023=MEASURE_REPRESENTATION_ITEM('surface area measure',AREA_MEASURE(
2.172893163632E2),#1022);
#1028=DERIVED_UNIT_ELEMENT(#1027,3.E0);
#1029=VOLUME_UNIT((#1028));
#1030=MEASURE_REPRESENTATION_ITEM('volume measure',VOLUME_MEASURE(
1.285286434605E2),#1029);
#1034=CARTESIAN_POINT('centre point',(1.178221745130E-7,3.769435036742E0,
-5.862804088372E-3));
#1039=DERIVED_UNIT_ELEMENT(#1038,2.E0);
#1040=AREA_UNIT((#1039));
#1041=MEASURE_REPRESENTATION_ITEM('surface area measure',AREA_MEASURE(
2.172893163632E2),#1040);
#1046=DERIVED_UNIT_ELEMENT(#1045,3.E0);
#1047=VOLUME_UNIT((#1046));
#1048=MEASURE_REPRESENTATION_ITEM('volume measure',VOLUME_MEASURE(
1.285286434605E2),#1047);
#1052=CARTESIAN_POINT('centre point',(1.178221745130E-7,3.769435036742E0,
-5.862804088372E-3));
#1=DRAUGHTING_PRE_DEFINED_COLOUR('green');
#2=COLOUR_RGB('',1.1E-2,1.2E-2,1.E0);
#3=COLOUR_RGB('',1.6E-1,1.6E-1,1.8E-1);
#4=COLOUR_RGB('',2.4E-1,2.5E-1,2.6E-1);
#5=COLOUR_RGB('',4.1E-1,2.61589E-1,1.12848E-1);
#6=COLOUR_RGB('',5.04854E-1,1.5455E-2,1.5455E-2);
#7=COLOUR_RGB('',6.35294E-1,6.86275E-1,7.4902E-1);
#8=COLOUR_RGB('',6.40777E-1,6.40777E-1,6.40777E-1);
#9=COLOUR_RGB('',6.69062E-1,6.69903E-1,6.55217E-1);
#10=COLOUR_RGB('',8.2E-1,8.1E-1,8.1E-1);
#11=COLOUR_RGB('',9.21569E-1,7.05882E-1,4.70588E-1);
#12=DRAUGHTING_PRE_DEFINED_COLOUR('red');
#13=DRAUGHTING_PRE_DEFINED_COLOUR('yellow');
#14=COLOUR_RGB('',1.E0,1.E0,5.3E-1);
#15=COLOUR_RGB('',1.E0,1.E0,9.49E-1);
#16=COLOUR_RGB('',1.E0,1.E0,9.49E-1);
#17=COLOUR_RGB('',1.E0,1.E0,9.49E-1);
#18=COLOUR_RGB('',1.E0,1.E0,9.49E-1);
#19=COLOUR_RGB('',1.E0,1.E0,9.49E-1);
#20=DRAUGHTING_PRE_DEFINED_COLOUR('white');
#25=CIRCLE('',#24,1.8E0);
#30=CIRCLE('',#29,1.8E0);
#35=CIRCLE('',#34,1.5E0);
#40=CIRCLE('',#39,1.5E0);
#45=CIRCLE('',#44,2.E-1);
#50=CIRCLE('',#49,2.E0);
#59=CIRCLE('',#58,2.E0);
#68=CIRCLE('',#67,1.5E-1);
#73=CIRCLE('',#72,1.85E0);
#78=CIRCLE('',#77,1.5E-1);
#87=CIRCLE('',#86,1.883333333326E0);
#104=CIRCLE('',#103,1.85E0);
#109=CIRCLE('',#108,1.85E0);
#114=CIRCLE('',#113,1.85E0);
#123=CIRCLE('',#122,1.883333333326E0);
#132=CIRCLE('',#131,2.E0);
#137=CIRCLE('',#136,2.E0);
#142=CIRCLE('',#141,2.E0);
#151=CIRCLE('',#150,2.E0);
#160=CIRCLE('',#159,2.E0);
#165=CIRCLE('',#164,2.E0);
#170=CIRCLE('',#169,1.883333333333E0);
#175=CIRCLE('',#174,2.E0);
#180=CIRCLE('',#179,3.5E-1);
#185=CIRCLE('',#184,1.883333333333E0);
#190=CIRCLE('',#189,2.E0);
#195=CIRCLE('',#194,3.5E-1);
#200=CIRCLE('',#199,1.883333333333E0);
#205=CIRCLE('',#204,1.75E-1);
#210=CIRCLE('',#209,1.883333333333E0);
#215=CIRCLE('',#214,1.883333333333E0);
#220=CIRCLE('',#219,1.75E-1);
#225=CIRCLE('',#224,1.883333333333E0);
#230=CIRCLE('',#229,3.5E-1);
#235=CIRCLE('',#234,3.5E-1);
#240=CIRCLE('',#239,2.E-1);
#253=CIRCLE('',#252,1.5E0);
#258=CIRCLE('',#257,1.5E0);
#263=CIRCLE('',#262,2.5E-1);
#268=CIRCLE('',#267,2.5E-1);
#273=CIRCLE('',#272,2.5E-1);
#278=CIRCLE('',#277,2.5E-1);
#291=CIRCLE('',#290,2.5E-1);
#296=CIRCLE('',#295,2.5E-1);
#309=CIRCLE('',#308,2.5E-1);
#314=CIRCLE('',#313,2.5E-1);
#396=EDGE_CURVE('',#377,#378,#25,.T.);
#398=EDGE_CURVE('',#378,#377,#30,.T.);
#402=EDGE_CURVE('',#353,#354,#35,.T.);
#404=EDGE_CURVE('',#354,#353,#40,.T.);
#408=ADVANCED_FACE('',(#401,#407),#395,.F.);
#421=EDGE_CURVE('',#373,#374,#59,.T.);
#423=EDGE_CURVE('',#374,#378,#240,.T.);
#426=EDGE_CURVE('',#373,#377,#45,.T.);
#430=ADVANCED_FACE('',(#429),#420,.T.);
#443=EDGE_CURVE('',#317,#318,#50,.T.);
#445=EDGE_CURVE('',#344,#317,#146,.T.);
#447=EDGE_CURVE('',#337,#344,#175,.T.);
#449=EDGE_CURVE('',#337,#318,#54,.T.);
#453=ADVANCED_FACE('',(#452),#442,.T.);
#467=EDGE_CURVE('',#373,#334,#63,.T.);
#469=EDGE_CURVE('',#331,#334,#190,.T.);
#471=EDGE_CURVE('',#374,#331,#155,.T.);
#475=ADVANCED_FACE('',(#474),#465,.T.);
#489=EDGE_CURVE('',#318,#322,#78,.T.);
#491=EDGE_CURVE('',#321,#322,#109,.T.);
#493=EDGE_CURVE('',#317,#321,#68,.T.);
#497=ADVANCED_FACE('',(#496),#487,.T.);
#510=EDGE_CURVE('',#390,#389,#73,.T.);
#512=EDGE_CURVE('',#322,#389,#114,.T.);
#515=EDGE_CURVE('',#318,#317,#132,.T.);
#518=EDGE_CURVE('',#390,#321,#104,.T.);
#522=ADVANCED_FACE('',(#521),#509,.T.);
#536=EDGE_CURVE('',#390,#381,#82,.T.);
#538=EDGE_CURVE('',#381,#382,#87,.T.);
#540=EDGE_CURVE('',#382,#389,#91,.T.);
#544=ADVANCED_FACE('',(#543),#534,.F.);
#550=EDGE_CURVE('',#389,#390,#99,.T.);
#553=EDGE_CURVE('',#382,#386,#95,.T.);
#555=EDGE_CURVE('',#386,#385,#127,.T.);
#557=EDGE_CURVE('',#381,#385,#118,.T.);
#562=ADVANCED_FACE('',(#561),#549,.T.);
#574=ADVANCED_FACE('',(#573),#567,.T.);
#589=EDGE_CURVE('',#385,#386,#123,.T.);
#594=ADVANCED_FACE('',(#593),#586,.T.);
#604=ADVANCED_FACE('',(#603),#599,.T.);
#619=EDGE_CURVE('',#337,#338,#137,.T.);
#621=EDGE_CURVE('',#338,#344,#142,.T.);
#626=ADVANCED_FACE('',(#625),#616,.T.);
#639=EDGE_CURVE('',#374,#373,#151,.T.);
#642=EDGE_CURVE('',#331,#332,#160,.T.);
#644=EDGE_CURVE('',#332,#334,#165,.T.);
#649=ADVANCED_FACE('',(#648),#638,.T.);
#662=EDGE_CURVE('',#346,#341,#170,.T.);
#664=EDGE_CURVE('',#341,#338,#230,.T.);
#668=EDGE_CURVE('',#342,#344,#180,.T.);
#670=EDGE_CURVE('',#342,#346,#210,.T.);
#674=ADVANCED_FACE('',(#673),#661,.T.);
#687=EDGE_CURVE('',#328,#325,#185,.T.);
#689=EDGE_CURVE('',#341,#328,#220,.T.);
#692=EDGE_CURVE('',#325,#346,#205,.T.);
#696=ADVANCED_FACE('',(#695),#686,.F.);
#710=EDGE_CURVE('',#325,#326,#200,.T.);
#712=EDGE_CURVE('',#326,#331,#235,.T.);
#716=EDGE_CURVE('',#328,#332,#195,.T.);
#720=ADVANCED_FACE('',(#719),#708,.T.);
#736=EDGE_CURVE('',#341,#342,#215,.T.);
#739=EDGE_CURVE('',#326,#328,#225,.T.);
#743=ADVANCED_FACE('',(#742),#732,.F.);
#762=ADVANCED_FACE('',(#761),#755,.T.);
#781=ADVANCED_FACE('',(#780),#774,.T.);
#800=ADVANCED_FACE('',(#799),#793,.T.);
#814=EDGE_CURVE('',#353,#349,#244,.T.);
#816=EDGE_CURVE('',#349,#350,#253,.T.);
#818=EDGE_CURVE('',#354,#350,#248,.T.);
#822=ADVANCED_FACE('',(#821),#812,.F.);
#837=EDGE_CURVE('',#350,#349,#258,.T.);
#842=ADVANCED_FACE('',(#841),#834,.F.);
#859=EDGE_CURVE('',#361,#362,#263,.T.);
#861=EDGE_CURVE('',#362,#361,#268,.T.);
#865=EDGE_CURVE('',#369,#370,#273,.T.);
#867=EDGE_CURVE('',#370,#369,#278,.T.);
#871=ADVANCED_FACE('',(#858,#864,#870),#854,.T.);
#885=EDGE_CURVE('',#361,#357,#282,.T.);
#887=EDGE_CURVE('',#357,#358,#291,.T.);
#889=EDGE_CURVE('',#362,#358,#286,.T.);
#893=ADVANCED_FACE('',(#892),#883,.T.);
#908=EDGE_CURVE('',#358,#357,#296,.T.);
#913=ADVANCED_FACE('',(#912),#905,.T.);
#930=ADVANCED_FACE('',(#929),#925,.T.);
#944=EDGE_CURVE('',#369,#365,#300,.T.);
#946=EDGE_CURVE('',#365,#366,#309,.T.);
#948=EDGE_CURVE('',#370,#366,#304,.T.);
#952=ADVANCED_FACE('',(#951),#942,.T.);
#967=EDGE_CURVE('',#366,#365,#314,.T.);
#972=ADVANCED_FACE('',(#971),#964,.T.);
#989=ADVANCED_FACE('',(#988),#984,.T.);
#999=(LENGTH_UNIT()NAMED_UNIT(*)SI_UNIT(.MILLI.,.METRE.));
#1000=(NAMED_UNIT(*)PLANE_ANGLE_UNIT()SI_UNIT($,.RADIAN.));
#1003=(NAMED_UNIT(*)SI_UNIT($,.STERADIAN.)SOLID_ANGLE_UNIT());
#1005=(GEOMETRIC_REPRESENTATION_CONTEXT(3)GLOBAL_UNCERTAINTY_ASSIGNED_CONTEXT((
#1004))GLOBAL_UNIT_ASSIGNED_CONTEXT((#999,#1002,#1003))REPRESENTATION_CONTEXT(
'ID1','3'));
#1006=ADVANCED_BREP_SHAPE_REPRESENTATION('',(#998),#1005);
#1014=PRODUCT_DEFINITION('design','',#1013,#1010);
#1015=PRODUCT_DEFINITION_SHAPE('','SHAPE FOR 0004096500.',#1014);
#1016=SHAPE_ASPECT('','solid data associated with 0004096500',#1015,.F.);
#1017=PROPERTY_DEFINITION('',
'shape for solid data with which properties are associated',#1016);
#1018=SHAPE_REPRESENTATION('',(#998),#1005);
#1019=SHAPE_DEFINITION_REPRESENTATION(#1017,#1018);
#1020=(LENGTH_UNIT()NAMED_UNIT(*)SI_UNIT(.MILLI.,.METRE.));
#1024=PROPERTY_DEFINITION('geometric validation property','area of 0004096500',
#1016);
#1025=REPRESENTATION('surface area',(#1023),#1005);
#1026=PROPERTY_DEFINITION_REPRESENTATION(#1024,#1025);
#1027=(LENGTH_UNIT()NAMED_UNIT(*)SI_UNIT(.MILLI.,.METRE.));
#1031=PROPERTY_DEFINITION('geometric validation property',
'volume of 0004096500',#1016);
#1032=REPRESENTATION('volume',(#1030),#1005);
#1033=PROPERTY_DEFINITION_REPRESENTATION(#1031,#1032);
#1035=PROPERTY_DEFINITION('geometric validation property',
'centroid of 0004096500',#1016);
#1036=REPRESENTATION('centroid',(#1034),#1005);
#1037=PROPERTY_DEFINITION_REPRESENTATION(#1035,#1036);
#1038=(LENGTH_UNIT()NAMED_UNIT(*)SI_UNIT(.MILLI.,.METRE.));
#1042=PROPERTY_DEFINITION('geometric validation property','area of 0004096500',
#1015);
#1043=REPRESENTATION('surface area',(#1041),#1005);
#1044=PROPERTY_DEFINITION_REPRESENTATION(#1042,#1043);
#1045=(LENGTH_UNIT()NAMED_UNIT(*)SI_UNIT(.MILLI.,.METRE.));
#1049=PROPERTY_DEFINITION('geometric validation property',
'volume of 0004096500',#1015);
#1050=REPRESENTATION('volume',(#1048),#1005);
#1051=PROPERTY_DEFINITION_REPRESENTATION(#1049,#1050);
#1053=PROPERTY_DEFINITION('geometric validation property',
'centroid of 0004096500',#1015);
#1054=REPRESENTATION('centroid',(#1052),#1005);
#1055=PROPERTY_DEFINITION_REPRESENTATION(#1053,#1054);
#1056=SHAPE_DEFINITION_REPRESENTATION(#1015,#1006);
ENDSEC;
END-ISO-10303-21;
