ISO-10303-21;
HEADER;
FILE_DESCRIPTION((''),'2;1');
FILE_NAME('PRT0001','2025-10-27T22:18:07',('\X2\51436C146EE16EE1\X0\'),(''),
'CREO PARAMETRIC BY PTC INC, 2023073','CREO PARAMETRIC BY PTC INC, 2023073','');
FILE_SCHEMA(('AUTOMOTIVE_DESIGN { 1 0 10303 214 1 1 1 1 }'));
ENDSEC;
DATA;
#19=CARTESIAN_POINT('',(0.E0,2.75E1,0.E0));
#20=DIRECTION('',(0.E0,1.E0,0.E0));
#21=DIRECTION('',(0.E0,0.E0,-1.E0));
#22=AXIS2_PLACEMENT_3D('',#19,#20,#21);
#24=DRAUGHTING_PRE_DEFINED_CURVE_FONT('continuous');
#25=CURVE_STYLE('',#24,POSITIVE_LENGTH_MEASURE(2.E-2),#3);
#26=PRESENTATION_STYLE_ASSIGNMENT((#25));
#27=STYLED_ITEM('',(#26),#23);
#28=CARTESIAN_POINT('',(0.E0,2.75E1,0.E0));
#29=DIRECTION('',(0.E0,-1.E0,0.E0));
#30=DIRECTION('',(0.E0,0.E0,-1.E0));
#31=AXIS2_PLACEMENT_3D('',#28,#29,#30);
#33=CURVE_STYLE('',#24,POSITIVE_LENGTH_MEASURE(2.E-2),#3);
#34=PRESENTATION_STYLE_ASSIGNMENT((#33));
#35=STYLED_ITEM('',(#34),#32);
#36=CARTESIAN_POINT('',(0.E0,2.74E1,0.E0));
#37=DIRECTION('',(0.E0,-1.E0,0.E0));
#38=DIRECTION('',(0.E0,0.E0,-1.E0));
#39=AXIS2_PLACEMENT_3D('',#36,#37,#38);
#41=CURVE_STYLE('',#24,POSITIVE_LENGTH_MEASURE(2.E-2),#3);
#42=PRESENTATION_STYLE_ASSIGNMENT((#41));
#43=STYLED_ITEM('',(#42),#40);
#44=CARTESIAN_POINT('',(0.E0,2.75E1,0.E0));
#45=DIRECTION('',(0.E0,-1.E0,0.E0));
#46=DIRECTION('',(0.E0,0.E0,-1.E0));
#47=AXIS2_PLACEMENT_3D('',#44,#45,#46);
#49=CURVE_STYLE('',#24,POSITIVE_LENGTH_MEASURE(2.E-2),#3);
#50=PRESENTATION_STYLE_ASSIGNMENT((#49));
#51=STYLED_ITEM('',(#50),#48);
#52=CARTESIAN_POINT('',(0.E0,2.74E1,0.E0));
#53=DIRECTION('',(0.E0,-1.E0,0.E0));
#54=DIRECTION('',(0.E0,0.E0,1.E0));
#55=AXIS2_PLACEMENT_3D('',#52,#53,#54);
#57=CURVE_STYLE('',#24,POSITIVE_LENGTH_MEASURE(2.E-2),#3);
#58=PRESENTATION_STYLE_ASSIGNMENT((#57));
#59=STYLED_ITEM('',(#58),#56);
#60=DIRECTION('',(0.E0,-1.E0,0.E0));
#61=VECTOR('',#60,1.E-1);
#62=CARTESIAN_POINT('',(0.E0,2.75E1,9.9E0));
#63=LINE('',#62,#61);
#64=CURVE_STYLE('',#24,POSITIVE_LENGTH_MEASURE(2.E-2),#3);
#65=PRESENTATION_STYLE_ASSIGNMENT((#64));
#66=STYLED_ITEM('',(#65),#63);
#67=CARTESIAN_POINT('',(0.E0,2.75E1,0.E0));
#68=DIRECTION('',(0.E0,1.E0,0.E0));
#69=DIRECTION('',(0.E0,0.E0,-1.E0));
#70=AXIS2_PLACEMENT_3D('',#67,#68,#69);
#72=CURVE_STYLE('',#24,POSITIVE_LENGTH_MEASURE(2.E-2),#3);
#73=PRESENTATION_STYLE_ASSIGNMENT((#72));
#74=STYLED_ITEM('',(#73),#71);
#75=DIRECTION('',(0.E0,-1.E0,0.E0));
#76=VECTOR('',#75,1.E-1);
#77=CARTESIAN_POINT('',(0.E0,2.75E1,-9.9E0));
#78=LINE('',#77,#76);
#79=CURVE_STYLE('',#24,POSITIVE_LENGTH_MEASURE(2.E-2),#3);
#80=PRESENTATION_STYLE_ASSIGNMENT((#79));
#81=STYLED_ITEM('',(#80),#78);
#82=CARTESIAN_POINT('',(0.E0,2.74E1,0.E0));
#83=DIRECTION('',(0.E0,-1.E0,0.E0));
#84=DIRECTION('',(0.E0,0.E0,-1.E0));
#85=AXIS2_PLACEMENT_3D('',#82,#83,#84);
#87=CURVE_STYLE('',#24,POSITIVE_LENGTH_MEASURE(2.E-2),#3);
#88=PRESENTATION_STYLE_ASSIGNMENT((#87));
#89=STYLED_ITEM('',(#88),#86);
#90=CARTESIAN_POINT('',(0.E0,2.74E1,0.E0));
#91=DIRECTION('',(0.E0,-1.E0,0.E0));
#92=DIRECTION('',(0.E0,0.E0,1.E0));
#93=AXIS2_PLACEMENT_3D('',#90,#91,#92);
#95=CURVE_STYLE('',#24,POSITIVE_LENGTH_MEASURE(2.E-2),#3);
#96=PRESENTATION_STYLE_ASSIGNMENT((#95));
#97=STYLED_ITEM('',(#96),#94);
#98=DIRECTION('',(0.E0,1.E0,0.E0));
#99=VECTOR('',#98,1.E-1);
#100=CARTESIAN_POINT('',(0.E0,2.74E1,-1.25E1));
#101=LINE('',#100,#99);
#102=CURVE_STYLE('',#24,POSITIVE_LENGTH_MEASURE(2.E-2),#3);
#103=PRESENTATION_STYLE_ASSIGNMENT((#102));
#104=STYLED_ITEM('',(#103),#101);
#105=DIRECTION('',(1.020538999289E-14,1.E0,-1.776356839400E-14));
#106=VECTOR('',#105,1.E-1);
#107=CARTESIAN_POINT('',(0.E0,2.74E1,1.25E1));
#108=LINE('',#107,#106);
#109=CURVE_STYLE('',#24,POSITIVE_LENGTH_MEASURE(2.E-2),#3);
#110=PRESENTATION_STYLE_ASSIGNMENT((#109));
#111=STYLED_ITEM('',(#110),#108);
#112=CARTESIAN_POINT('',(0.E0,2.75E1,-1.25E1));
#113=CARTESIAN_POINT('',(0.E0,2.75E1,1.25E1));
#114=VERTEX_POINT('',#112);
#115=VERTEX_POINT('',#113);
#116=CARTESIAN_POINT('',(0.E0,2.75E1,-9.9E0));
#117=CARTESIAN_POINT('',(0.E0,2.75E1,9.9E0));
#118=VERTEX_POINT('',#116);
#119=VERTEX_POINT('',#117);
#120=CARTESIAN_POINT('',(0.E0,2.74E1,-9.9E0));
#121=CARTESIAN_POINT('',(0.E0,2.74E1,9.9E0));
#122=VERTEX_POINT('',#120);
#123=VERTEX_POINT('',#121);
#124=CARTESIAN_POINT('',(0.E0,2.74E1,-1.25E1));
#125=CARTESIAN_POINT('',(0.E0,2.74E1,1.25E1));
#126=VERTEX_POINT('',#124);
#127=VERTEX_POINT('',#125);
#128=CARTESIAN_POINT('',(0.E0,2.75E1,0.E0));
#129=DIRECTION('',(0.E0,-1.E0,0.E0));
#130=DIRECTION('',(0.E0,0.E0,1.E0));
#131=AXIS2_PLACEMENT_3D('',#128,#129,#130);
#132=PLANE('',#131);
#134=ORIENTED_EDGE('',*,*,#133,.F.);
#136=ORIENTED_EDGE('',*,*,#135,.T.);
#137=EDGE_LOOP('',(#134,#136));
#138=FACE_OUTER_BOUND('',#137,.F.);
#140=ORIENTED_EDGE('',*,*,#139,.F.);
#142=ORIENTED_EDGE('',*,*,#141,.T.);
#143=EDGE_LOOP('',(#140,#142));
#144=FACE_BOUND('',#143,.F.);
#146=CARTESIAN_POINT('',(0.E0,2.9E1,0.E0));
#147=DIRECTION('',(0.E0,-1.E0,0.E0));
#148=DIRECTION('',(0.E0,0.E0,1.E0));
#149=AXIS2_PLACEMENT_3D('',#146,#147,#148);
#150=CYLINDRICAL_SURFACE('',#149,9.9E0);
#152=ORIENTED_EDGE('',*,*,#151,.F.);
#154=ORIENTED_EDGE('',*,*,#153,.F.);
#155=ORIENTED_EDGE('',*,*,#139,.T.);
#157=ORIENTED_EDGE('',*,*,#156,.T.);
#158=EDGE_LOOP('',(#152,#154,#155,#157));
#159=FACE_OUTER_BOUND('',#158,.F.);
#161=CARTESIAN_POINT('',(0.E0,2.74E1,0.E0));
#162=DIRECTION('',(0.E0,1.E0,0.E0));
#163=DIRECTION('',(0.E0,0.E0,-1.E0));
#164=AXIS2_PLACEMENT_3D('',#161,#162,#163);
#165=PLANE('',#164);
#167=ORIENTED_EDGE('',*,*,#166,.F.);
#169=ORIENTED_EDGE('',*,*,#168,.F.);
#170=EDGE_LOOP('',(#167,#169));
#171=FACE_OUTER_BOUND('',#170,.F.);
#172=ORIENTED_EDGE('',*,*,#151,.T.);
#174=ORIENTED_EDGE('',*,*,#173,.T.);
#175=EDGE_LOOP('',(#172,#174));
#176=FACE_BOUND('',#175,.F.);
#178=CARTESIAN_POINT('',(0.E0,2.9E1,0.E0));
#179=DIRECTION('',(0.E0,-1.E0,0.E0));
#180=DIRECTION('',(0.E0,0.E0,1.E0));
#181=AXIS2_PLACEMENT_3D('',#178,#179,#180);
#182=CYLINDRICAL_SURFACE('',#181,9.9E0);
#183=ORIENTED_EDGE('',*,*,#173,.F.);
#184=ORIENTED_EDGE('',*,*,#156,.F.);
#185=ORIENTED_EDGE('',*,*,#141,.F.);
#186=ORIENTED_EDGE('',*,*,#153,.T.);
#187=EDGE_LOOP('',(#183,#184,#185,#186));
#188=FACE_OUTER_BOUND('',#187,.F.);
#190=CARTESIAN_POINT('',(0.E0,2.9E1,0.E0));
#191=DIRECTION('',(0.E0,-1.E0,0.E0));
#192=DIRECTION('',(0.E0,0.E0,1.E0));
#193=AXIS2_PLACEMENT_3D('',#190,#191,#192);
#194=CYLINDRICAL_SURFACE('',#193,1.25E1);
#195=ORIENTED_EDGE('',*,*,#166,.T.);
#197=ORIENTED_EDGE('',*,*,#196,.T.);
#198=ORIENTED_EDGE('',*,*,#135,.F.);
#200=ORIENTED_EDGE('',*,*,#199,.F.);
#201=EDGE_LOOP('',(#195,#197,#198,#200));
#202=FACE_OUTER_BOUND('',#201,.F.);
#204=CARTESIAN_POINT('',(0.E0,2.9E1,0.E0));
#205=DIRECTION('',(0.E0,-1.E0,0.E0));
#206=DIRECTION('',(0.E0,0.E0,1.E0));
#207=AXIS2_PLACEMENT_3D('',#204,#205,#206);
#208=CYLINDRICAL_SURFACE('',#207,1.25E1);
#209=ORIENTED_EDGE('',*,*,#168,.T.);
#210=ORIENTED_EDGE('',*,*,#199,.T.);
#211=ORIENTED_EDGE('',*,*,#133,.T.);
#212=ORIENTED_EDGE('',*,*,#196,.F.);
#213=EDGE_LOOP('',(#209,#210,#211,#212));
#214=FACE_OUTER_BOUND('',#213,.F.);
#218=FILL_AREA_STYLE_COLOUR('',#3);
#219=FILL_AREA_STYLE('',(#218));
#220=SURFACE_STYLE_FILL_AREA(#219);
#221=SURFACE_SIDE_STYLE('',(#220));
#222=SURFACE_STYLE_USAGE(.BOTH.,#221);
#223=PRESENTATION_STYLE_ASSIGNMENT((#222));
#18=STYLED_ITEM('',(#223),#217);
#225=DIRECTION('',(0.E0,-1.E0,0.E0));
#226=VECTOR('',#225,1.E-1);
#227=CARTESIAN_POINT('',(0.E0,-2.4E0,-1.09E1));
#228=LINE('',#227,#226);
#229=CURVE_STYLE('',#24,POSITIVE_LENGTH_MEASURE(2.E-2),#3);
#230=PRESENTATION_STYLE_ASSIGNMENT((#229));
#231=STYLED_ITEM('',(#230),#228);
#232=DIRECTION('',(0.E0,-1.E0,0.E0));
#233=VECTOR('',#232,1.E-1);
#234=CARTESIAN_POINT('',(0.E0,-2.4E0,1.09E1));
#235=LINE('',#234,#233);
#236=CURVE_STYLE('',#24,POSITIVE_LENGTH_MEASURE(2.E-2),#3);
#237=PRESENTATION_STYLE_ASSIGNMENT((#236));
#238=STYLED_ITEM('',(#237),#235);
#239=CARTESIAN_POINT('',(0.E0,-2.4E0,0.E0));
#240=DIRECTION('',(0.E0,1.E0,0.E0));
#241=DIRECTION('',(0.E0,0.E0,-1.E0));
#242=AXIS2_PLACEMENT_3D('',#239,#240,#241);
#244=CURVE_STYLE('',#24,POSITIVE_LENGTH_MEASURE(2.E-2),#3);
#245=PRESENTATION_STYLE_ASSIGNMENT((#244));
#246=STYLED_ITEM('',(#245),#243);
#247=CARTESIAN_POINT('',(0.E0,-2.4E0,0.E0));
#248=DIRECTION('',(0.E0,-1.E0,0.E0));
#249=DIRECTION('',(0.E0,0.E0,-1.E0));
#250=AXIS2_PLACEMENT_3D('',#247,#248,#249);
#252=CURVE_STYLE('',#24,POSITIVE_LENGTH_MEASURE(2.E-2),#3);
#253=PRESENTATION_STYLE_ASSIGNMENT((#252));
#254=STYLED_ITEM('',(#253),#251);
#255=CARTESIAN_POINT('',(0.E0,-2.5E0,0.E0));
#256=DIRECTION('',(0.E0,-1.E0,0.E0));
#257=DIRECTION('',(0.E0,0.E0,-1.E0));
#258=AXIS2_PLACEMENT_3D('',#255,#256,#257);
#260=CURVE_STYLE('',#24,POSITIVE_LENGTH_MEASURE(2.E-2),#3);
#261=PRESENTATION_STYLE_ASSIGNMENT((#260));
#262=STYLED_ITEM('',(#261),#259);
#263=CARTESIAN_POINT('',(0.E0,-2.5E0,0.E0));
#264=DIRECTION('',(0.E0,1.E0,0.E0));
#265=DIRECTION('',(0.E0,0.E0,-1.E0));
#266=AXIS2_PLACEMENT_3D('',#263,#264,#265);
#268=CURVE_STYLE('',#24,POSITIVE_LENGTH_MEASURE(2.E-2),#3);
#269=PRESENTATION_STYLE_ASSIGNMENT((#268));
#270=STYLED_ITEM('',(#269),#267);
#271=CARTESIAN_POINT('',(0.E0,2.479289321881E1,0.E0));
#272=DIRECTION('',(0.E0,-1.E0,0.E0));
#273=DIRECTION('',(0.E0,0.E0,1.E0));
#274=AXIS2_PLACEMENT_3D('',#271,#272,#273);
#276=CURVE_STYLE('',#24,POSITIVE_LENGTH_MEASURE(2.E-2),#3);
#277=PRESENTATION_STYLE_ASSIGNMENT((#276));
#278=STYLED_ITEM('',(#277),#275);
#279=DIRECTION('',(0.E0,1.E0,0.E0));
#280=VECTOR('',#279,2.729289321881E1);
#281=CARTESIAN_POINT('',(0.E0,-2.5E0,1.25E1));
#282=LINE('',#281,#280);
#283=CURVE_STYLE('',#24,POSITIVE_LENGTH_MEASURE(2.E-2),#3);
#284=PRESENTATION_STYLE_ASSIGNMENT((#283));
#285=STYLED_ITEM('',(#284),#282);
#286=CARTESIAN_POINT('',(0.E0,-2.5E0,0.E0));
#287=DIRECTION('',(0.E0,1.E0,0.E0));
#288=DIRECTION('',(0.E0,0.E0,-1.E0));
#289=AXIS2_PLACEMENT_3D('',#286,#287,#288);
#291=CURVE_STYLE('',#24,POSITIVE_LENGTH_MEASURE(2.E-2),#3);
#292=PRESENTATION_STYLE_ASSIGNMENT((#291));
#293=STYLED_ITEM('',(#292),#290);
#294=DIRECTION('',(0.E0,1.E0,0.E0));
#295=VECTOR('',#294,2.729289321881E1);
#296=CARTESIAN_POINT('',(0.E0,-2.5E0,-1.25E1));
#297=LINE('',#296,#295);
#298=CURVE_STYLE('',#24,POSITIVE_LENGTH_MEASURE(2.E-2),#3);
#299=PRESENTATION_STYLE_ASSIGNMENT((#298));
#300=STYLED_ITEM('',(#299),#297);
#301=CARTESIAN_POINT('',(0.E0,2.620710678119E1,0.E0));
#302=DIRECTION('',(0.E0,-1.E0,0.E0));
#303=DIRECTION('',(0.E0,0.E0,1.E0));
#304=AXIS2_PLACEMENT_3D('',#301,#302,#303);
#306=CURVE_STYLE('',#24,POSITIVE_LENGTH_MEASURE(2.E-2),#3);
#307=PRESENTATION_STYLE_ASSIGNMENT((#306));
#308=STYLED_ITEM('',(#307),#305);
#309=DIRECTION('',(0.E0,1.E0,0.E0));
#310=VECTOR('',#309,9.928932188134E-1);
#311=CARTESIAN_POINT('',(0.E0,2.620710678119E1,-1.25E1));
#312=LINE('',#311,#310);
#313=CURVE_STYLE('',#24,POSITIVE_LENGTH_MEASURE(2.E-2),#3);
#314=PRESENTATION_STYLE_ASSIGNMENT((#313));
#315=STYLED_ITEM('',(#314),#312);
#316=CARTESIAN_POINT('',(0.E0,2.72E1,0.E0));
#317=DIRECTION('',(0.E0,-1.E0,0.E0));
#318=DIRECTION('',(0.E0,0.E0,1.E0));
#319=AXIS2_PLACEMENT_3D('',#316,#317,#318);
#321=CURVE_STYLE('',#24,POSITIVE_LENGTH_MEASURE(2.E-2),#3);
#322=PRESENTATION_STYLE_ASSIGNMENT((#321));
#323=STYLED_ITEM('',(#322),#320);
#324=DIRECTION('',(0.E0,1.E0,0.E0));
#325=VECTOR('',#324,9.928932188135E-1);
#326=CARTESIAN_POINT('',(0.E0,2.620710678119E1,1.25E1));
#327=LINE('',#326,#325);
#328=CURVE_STYLE('',#24,POSITIVE_LENGTH_MEASURE(2.E-2),#3);
#329=PRESENTATION_STYLE_ASSIGNMENT((#328));
#330=STYLED_ITEM('',(#329),#327);
#331=CARTESIAN_POINT('',(0.E0,2.55E1,-1.275E1));
#332=DIRECTION('',(1.E0,0.E0,0.E0));
#333=DIRECTION('',(0.E0,9.428090415821E-1,3.333333333333E-1));
#334=AXIS2_PLACEMENT_3D('',#331,#332,#333);
#336=CURVE_STYLE('',#24,POSITIVE_LENGTH_MEASURE(2.E-2),#3);
#337=PRESENTATION_STYLE_ASSIGNMENT((#336));
#338=STYLED_ITEM('',(#337),#335);
#339=CARTESIAN_POINT('',(0.E0,2.55E1,1.275E1));
#340=DIRECTION('',(-1.E0,0.E0,0.E0));
#341=DIRECTION('',(0.E0,9.428090415821E-1,-3.333333333333E-1));
#342=AXIS2_PLACEMENT_3D('',#339,#340,#341);
#344=CURVE_STYLE('',#24,POSITIVE_LENGTH_MEASURE(2.E-2),#3);
#345=PRESENTATION_STYLE_ASSIGNMENT((#344));
#346=STYLED_ITEM('',(#345),#343);
#347=CARTESIAN_POINT('',(0.E0,2.479289321881E1,0.E0));
#348=DIRECTION('',(0.E0,-1.E0,0.E0));
#349=DIRECTION('',(0.E0,0.E0,-1.E0));
#350=AXIS2_PLACEMENT_3D('',#347,#348,#349);
#352=CURVE_STYLE('',#24,POSITIVE_LENGTH_MEASURE(2.E-2),#3);
#353=PRESENTATION_STYLE_ASSIGNMENT((#352));
#354=STYLED_ITEM('',(#353),#351);
#355=CARTESIAN_POINT('',(0.E0,-2.5E0,0.E0));
#356=DIRECTION('',(0.E0,-1.E0,0.E0));
#357=DIRECTION('',(0.E0,0.E0,-1.E0));
#358=AXIS2_PLACEMENT_3D('',#355,#356,#357);
#360=CURVE_STYLE('',#24,POSITIVE_LENGTH_MEASURE(2.E-2),#3);
#361=PRESENTATION_STYLE_ASSIGNMENT((#360));
#362=STYLED_ITEM('',(#361),#359);
#363=CARTESIAN_POINT('',(0.E0,2.620710678119E1,0.E0));
#364=DIRECTION('',(0.E0,-1.E0,0.E0));
#365=DIRECTION('',(0.E0,0.E0,-1.E0));
#366=AXIS2_PLACEMENT_3D('',#363,#364,#365);
#368=CURVE_STYLE('',#24,POSITIVE_LENGTH_MEASURE(2.E-2),#3);
#369=PRESENTATION_STYLE_ASSIGNMENT((#368));
#370=STYLED_ITEM('',(#369),#367);
#371=CARTESIAN_POINT('',(0.E0,2.72E1,0.E0));
#372=DIRECTION('',(0.E0,-1.E0,0.E0));
#373=DIRECTION('',(0.E0,0.E0,-1.E0));
#374=AXIS2_PLACEMENT_3D('',#371,#372,#373);
#376=CURVE_STYLE('',#24,POSITIVE_LENGTH_MEASURE(2.E-2),#3);
#377=PRESENTATION_STYLE_ASSIGNMENT((#376));
#378=STYLED_ITEM('',(#377),#375);
#379=CARTESIAN_POINT('',(0.E0,-2.4E0,-1.09E1));
#380=CARTESIAN_POINT('',(0.E0,-2.5E0,-1.09E1));
#381=VERTEX_POINT('',#379);
#382=VERTEX_POINT('',#380);
#383=CARTESIAN_POINT('',(0.E0,-2.4E0,1.09E1));
#384=CARTESIAN_POINT('',(0.E0,-2.5E0,1.09E1));
#385=VERTEX_POINT('',#383);
#386=VERTEX_POINT('',#384);
#387=CARTESIAN_POINT('',(0.E0,-2.5E0,-1.25E1));
#388=CARTESIAN_POINT('',(0.E0,-2.5E0,1.25E1));
#389=VERTEX_POINT('',#387);
#390=VERTEX_POINT('',#388);
#391=CARTESIAN_POINT('',(0.E0,2.479289321881E1,-1.25E1));
#392=CARTESIAN_POINT('',(0.E0,2.479289321881E1,1.25E1));
#393=VERTEX_POINT('',#391);
#394=VERTEX_POINT('',#392);
#395=CARTESIAN_POINT('',(0.E0,2.620710678119E1,-1.25E1));
#396=CARTESIAN_POINT('',(0.E0,2.620710678119E1,1.25E1));
#397=VERTEX_POINT('',#395);
#398=VERTEX_POINT('',#396);
#399=CARTESIAN_POINT('',(0.E0,2.72E1,-1.25E1));
#400=CARTESIAN_POINT('',(0.E0,2.72E1,1.25E1));
#401=VERTEX_POINT('',#399);
#402=VERTEX_POINT('',#400);
#403=CARTESIAN_POINT('',(0.E0,-2.4E0,0.E0));
#404=DIRECTION('',(0.E0,-1.E0,0.E0));
#405=DIRECTION('',(0.E0,0.E0,1.E0));
#406=AXIS2_PLACEMENT_3D('',#403,#404,#405);
#407=PLANE('',#406);
#409=ORIENTED_EDGE('',*,*,#408,.T.);
#411=ORIENTED_EDGE('',*,*,#410,.F.);
#412=EDGE_LOOP('',(#409,#411));
#413=FACE_OUTER_BOUND('',#412,.F.);
#415=CARTESIAN_POINT('',(0.E0,2.9E1,0.E0));
#416=DIRECTION('',(0.E0,-1.E0,0.E0));
#417=DIRECTION('',(0.E0,0.E0,1.E0));
#418=AXIS2_PLACEMENT_3D('',#415,#416,#417);
#419=CYLINDRICAL_SURFACE('',#418,1.09E1);
#421=ORIENTED_EDGE('',*,*,#420,.T.);
#423=ORIENTED_EDGE('',*,*,#422,.T.);
#425=ORIENTED_EDGE('',*,*,#424,.F.);
#426=ORIENTED_EDGE('',*,*,#408,.F.);
#427=EDGE_LOOP('',(#421,#423,#425,#426));
#428=FACE_OUTER_BOUND('',#427,.F.);
#430=CARTESIAN_POINT('',(0.E0,2.9E1,0.E0));
#431=DIRECTION('',(0.E0,-1.E0,0.E0));
#432=DIRECTION('',(0.E0,0.E0,1.E0));
#433=AXIS2_PLACEMENT_3D('',#430,#431,#432);
#434=CYLINDRICAL_SURFACE('',#433,1.09E1);
#435=ORIENTED_EDGE('',*,*,#420,.F.);
#436=ORIENTED_EDGE('',*,*,#410,.T.);
#437=ORIENTED_EDGE('',*,*,#424,.T.);
#439=ORIENTED_EDGE('',*,*,#438,.F.);
#440=EDGE_LOOP('',(#435,#436,#437,#439));
#441=FACE_OUTER_BOUND('',#440,.F.);
#443=CARTESIAN_POINT('',(0.E0,-2.5E0,0.E0));
#444=DIRECTION('',(0.E0,-1.E0,0.E0));
#445=DIRECTION('',(0.E0,0.E0,1.E0));
#446=AXIS2_PLACEMENT_3D('',#443,#444,#445);
#447=PLANE('',#446);
#449=ORIENTED_EDGE('',*,*,#448,.T.);
#451=ORIENTED_EDGE('',*,*,#450,.F.);
#452=EDGE_LOOP('',(#449,#451));
#453=FACE_OUTER_BOUND('',#452,.F.);
#454=ORIENTED_EDGE('',*,*,#438,.T.);
#455=ORIENTED_EDGE('',*,*,#422,.F.);
#456=EDGE_LOOP('',(#454,#455));
#457=FACE_BOUND('',#456,.F.);
#459=CARTESIAN_POINT('',(0.E0,2.9E1,0.E0));
#460=DIRECTION('',(0.E0,-1.E0,0.E0));
#461=DIRECTION('',(0.E0,0.E0,1.E0));
#462=AXIS2_PLACEMENT_3D('',#459,#460,#461);
#463=CYLINDRICAL_SURFACE('',#462,1.25E1);
#465=ORIENTED_EDGE('',*,*,#464,.F.);
#467=ORIENTED_EDGE('',*,*,#466,.F.);
#468=ORIENTED_EDGE('',*,*,#448,.F.);
#470=ORIENTED_EDGE('',*,*,#469,.T.);
#471=EDGE_LOOP('',(#465,#467,#468,#470));
#472=FACE_OUTER_BOUND('',#471,.F.);
#474=CARTESIAN_POINT('',(0.E0,2.9E1,0.E0));
#475=DIRECTION('',(0.E0,-1.E0,0.E0));
#476=DIRECTION('',(0.E0,0.E0,1.E0));
#477=AXIS2_PLACEMENT_3D('',#474,#475,#476);
#478=CYLINDRICAL_SURFACE('',#477,1.25E1);
#480=ORIENTED_EDGE('',*,*,#479,.T.);
#482=ORIENTED_EDGE('',*,*,#481,.T.);
#484=ORIENTED_EDGE('',*,*,#483,.F.);
#486=ORIENTED_EDGE('',*,*,#485,.F.);
#487=EDGE_LOOP('',(#480,#482,#484,#486));
#488=FACE_OUTER_BOUND('',#487,.F.);
#490=CARTESIAN_POINT('',(0.E0,2.55E1,0.E0));
#491=DIRECTION('',(0.E0,-1.E0,0.E0));
#492=DIRECTION('',(0.E0,0.E0,-1.E0));
#493=AXIS2_PLACEMENT_3D('',#490,#491,#492);
#494=TOROIDAL_SURFACE('',#493,1.275E1,7.5E-1);
#495=ORIENTED_EDGE('',*,*,#464,.T.);
#497=ORIENTED_EDGE('',*,*,#496,.F.);
#498=ORIENTED_EDGE('',*,*,#479,.F.);
#500=ORIENTED_EDGE('',*,*,#499,.T.);
#501=EDGE_LOOP('',(#495,#497,#498,#500));
#502=FACE_OUTER_BOUND('',#501,.F.);
#504=CARTESIAN_POINT('',(0.E0,2.55E1,0.E0));
#505=DIRECTION('',(0.E0,-1.E0,0.E0));
#506=DIRECTION('',(0.E0,0.E0,1.E0));
#507=AXIS2_PLACEMENT_3D('',#504,#505,#506);
#508=TOROIDAL_SURFACE('',#507,1.275E1,7.5E-1);
#510=ORIENTED_EDGE('',*,*,#509,.T.);
#511=ORIENTED_EDGE('',*,*,#499,.F.);
#513=ORIENTED_EDGE('',*,*,#512,.F.);
#514=ORIENTED_EDGE('',*,*,#496,.T.);
#515=EDGE_LOOP('',(#510,#511,#513,#514));
#516=FACE_OUTER_BOUND('',#515,.F.);
#518=CARTESIAN_POINT('',(0.E0,2.9E1,0.E0));
#519=DIRECTION('',(0.E0,-1.E0,0.E0));
#520=DIRECTION('',(0.E0,0.E0,1.E0));
#521=AXIS2_PLACEMENT_3D('',#518,#519,#520);
#522=CYLINDRICAL_SURFACE('',#521,1.25E1);
#523=ORIENTED_EDGE('',*,*,#509,.F.);
#524=ORIENTED_EDGE('',*,*,#469,.F.);
#525=ORIENTED_EDGE('',*,*,#450,.T.);
#526=ORIENTED_EDGE('',*,*,#466,.T.);
#527=EDGE_LOOP('',(#523,#524,#525,#526));
#528=FACE_OUTER_BOUND('',#527,.F.);
#530=CARTESIAN_POINT('',(0.E0,2.9E1,0.E0));
#531=DIRECTION('',(0.E0,-1.E0,0.E0));
#532=DIRECTION('',(0.E0,0.E0,1.E0));
#533=AXIS2_PLACEMENT_3D('',#530,#531,#532);
#534=CYLINDRICAL_SURFACE('',#533,1.25E1);
#535=ORIENTED_EDGE('',*,*,#512,.T.);
#536=ORIENTED_EDGE('',*,*,#485,.T.);
#538=ORIENTED_EDGE('',*,*,#537,.F.);
#539=ORIENTED_EDGE('',*,*,#481,.F.);
#540=EDGE_LOOP('',(#535,#536,#538,#539));
#541=FACE_OUTER_BOUND('',#540,.F.);
#543=CARTESIAN_POINT('',(0.E0,2.72E1,0.E0));
#544=DIRECTION('',(0.E0,1.E0,0.E0));
#545=DIRECTION('',(0.E0,0.E0,-1.E0));
#546=AXIS2_PLACEMENT_3D('',#543,#544,#545);
#547=PLANE('',#546);
#548=ORIENTED_EDGE('',*,*,#537,.T.);
#549=ORIENTED_EDGE('',*,*,#483,.T.);
#550=EDGE_LOOP('',(#548,#549));
#551=FACE_OUTER_BOUND('',#550,.F.);
#553=FILL_AREA_STYLE_COLOUR('',#5);
#554=FILL_AREA_STYLE('',(#553));
#555=SURFACE_STYLE_FILL_AREA(#554);
#556=SURFACE_SIDE_STYLE('',(#555));
#557=SURFACE_STYLE_USAGE(.POSITIVE.,#556);
#558=PRESENTATION_STYLE_ASSIGNMENT((#557));
#559=OVER_RIDING_STYLED_ITEM('',(#558),#552,#224);
#562=FILL_AREA_STYLE_COLOUR('',#3);
#563=FILL_AREA_STYLE('',(#562));
#564=SURFACE_STYLE_FILL_AREA(#563);
#565=SURFACE_SIDE_STYLE('',(#564));
#566=SURFACE_STYLE_USAGE(.POSITIVE.,#565);
#567=PRESENTATION_STYLE_ASSIGNMENT((#566));
#224=STYLED_ITEM('',(#567),#561);
#570=PLANE_ANGLE_MEASURE_WITH_UNIT(PLANE_ANGLE_MEASURE(1.745329251994E-2),#569);
#571=(CONVERSION_BASED_UNIT('DEGREE',#570)NAMED_UNIT(*)PLANE_ANGLE_UNIT());
#573=UNCERTAINTY_MEASURE_WITH_UNIT(LENGTH_MEASURE(4.636623775378E-3),#568,
'distance_accuracy_value',
'Maximum model space distance between geometric entities at asserted connectivities');
#576=MECHANICAL_DESIGN_GEOMETRIC_PRESENTATION_REPRESENTATION('',(#27,#35,#43,
#51,#59,#66,#74,#81,#89,#97,#104,#111,#18,#231,#238,#246,#254,#262,#270,#278,
#285,#293,#300,#308,#315,#323,#330,#338,#346,#354,#362,#370,#378,#559,#224),
#574);
#577=APPLICATION_CONTEXT('automotive_design');
#578=APPLICATION_PROTOCOL_DEFINITION('international standard',
'automotive_design',2001,#577);
#579=PRODUCT_DEFINITION_CONTEXT('part definition',#577,'design');
#580=PRODUCT_CONTEXT('',#577,'mechanical');
#581=PRODUCT('PRT0001','PRT0001','NOT SPECIFIED',(#580));
#582=PRODUCT_DEFINITION_FORMATION('14','LAST_VERSION',#581);
#590=DERIVED_UNIT_ELEMENT(#589,2.E0);
#591=DERIVED_UNIT((#590));
#592=MEASURE_REPRESENTATION_ITEM('surface area measure',AREA_MEASURE(
3.731418940678E3),#591);
#597=DERIVED_UNIT_ELEMENT(#596,3.E0);
#598=DERIVED_UNIT((#597));
#599=MEASURE_REPRESENTATION_ITEM('volume measure',VOLUME_MEASURE(
1.452009766802E4),#598);
#603=CARTESIAN_POINT('centre point',(0.E0,1.237100306384E1,0.E0));
#608=DERIVED_UNIT_ELEMENT(#607,2.E0);
#609=DERIVED_UNIT((#608));
#610=MEASURE_REPRESENTATION_ITEM('surface area measure',AREA_MEASURE(
3.731418940678E3),#609);
#615=DERIVED_UNIT_ELEMENT(#614,3.E0);
#616=DERIVED_UNIT((#615));
#617=MEASURE_REPRESENTATION_ITEM('volume measure',VOLUME_MEASURE(
1.452009766802E4),#616);
#621=CARTESIAN_POINT('centre point',(0.E0,1.237100306384E1,0.E0));
#626=PRODUCT_RELATED_PRODUCT_CATEGORY('part','',(#581));
#1=DRAUGHTING_PRE_DEFINED_COLOUR('green');
#2=COLOUR_RGB('',1.1E-2,1.2E-2,1.E0);
#3=COLOUR_RGB('',1.8E-1,1.8E-1,1.8E-1);
#4=COLOUR_RGB('',2.E-1,2.E-1,6.E-1);
#5=COLOUR_RGB('',2.4E-1,2.3E-1,2.4E-1);
#6=COLOUR_RGB('',4.1E-1,2.61589E-1,1.12848E-1);
#7=COLOUR_RGB('',5.04854E-1,1.5455E-2,1.5455E-2);
#8=COLOUR_RGB('',6.35294E-1,6.86275E-1,7.4902E-1);
#9=COLOUR_RGB('',6.40777E-1,6.40777E-1,6.40777E-1);
#10=COLOUR_RGB('',6.69062E-1,6.69903E-1,6.55217E-1);
#11=COLOUR_RGB('',9.21569E-1,7.05882E-1,4.70588E-1);
#12=DRAUGHTING_PRE_DEFINED_COLOUR('red');
#13=COLOUR_RGB('',1.E0,0.E0,2.E-1);
#14=DRAUGHTING_PRE_DEFINED_COLOUR('yellow');
#15=COLOUR_RGB('',1.E0,1.E0,5.3E-1);
#16=COLOUR_RGB('',1.E0,1.E0,9.49E-1);
#17=DRAUGHTING_PRE_DEFINED_COLOUR('white');
#23=CIRCLE('',#22,1.25E1);
#32=CIRCLE('',#31,1.25E1);
#40=CIRCLE('',#39,9.9E0);
#48=CIRCLE('',#47,9.9E0);
#56=CIRCLE('',#55,9.9E0);
#71=CIRCLE('',#70,9.9E0);
#86=CIRCLE('',#85,1.25E1);
#94=CIRCLE('',#93,1.25E1);
#133=EDGE_CURVE('',#114,#115,#23,.T.);
#135=EDGE_CURVE('',#114,#115,#32,.T.);
#139=EDGE_CURVE('',#118,#119,#48,.T.);
#141=EDGE_CURVE('',#118,#119,#71,.T.);
#145=ADVANCED_FACE('',(#138,#144),#132,.F.);
#151=EDGE_CURVE('',#122,#123,#40,.T.);
#153=EDGE_CURVE('',#118,#122,#78,.T.);
#156=EDGE_CURVE('',#119,#123,#63,.T.);
#160=ADVANCED_FACE('',(#159),#150,.F.);
#166=EDGE_CURVE('',#126,#127,#86,.T.);
#168=EDGE_CURVE('',#127,#126,#94,.T.);
#173=EDGE_CURVE('',#123,#122,#56,.T.);
#177=ADVANCED_FACE('',(#171,#176),#165,.F.);
#189=ADVANCED_FACE('',(#188),#182,.F.);
#196=EDGE_CURVE('',#127,#115,#108,.T.);
#199=EDGE_CURVE('',#126,#114,#101,.T.);
#203=ADVANCED_FACE('',(#202),#194,.T.);
#215=ADVANCED_FACE('',(#214),#208,.T.);
#216=CLOSED_SHELL('',(#145,#160,#177,#189,#203,#215));
#217=MANIFOLD_SOLID_BREP('',#216);
#243=CIRCLE('',#242,1.09E1);
#251=CIRCLE('',#250,1.09E1);
#259=CIRCLE('',#258,1.09E1);
#267=CIRCLE('',#266,1.09E1);
#275=CIRCLE('',#274,1.25E1);
#290=CIRCLE('',#289,1.25E1);
#305=CIRCLE('',#304,1.25E1);
#320=CIRCLE('',#319,1.25E1);
#335=CIRCLE('',#334,7.5E-1);
#343=CIRCLE('',#342,7.5E-1);
#351=CIRCLE('',#350,1.25E1);
#359=CIRCLE('',#358,1.25E1);
#367=CIRCLE('',#366,1.25E1);
#375=CIRCLE('',#374,1.25E1);
#408=EDGE_CURVE('',#381,#385,#243,.T.);
#410=EDGE_CURVE('',#381,#385,#251,.T.);
#414=ADVANCED_FACE('',(#413),#407,.T.);
#420=EDGE_CURVE('',#381,#382,#228,.T.);
#422=EDGE_CURVE('',#382,#386,#267,.T.);
#424=EDGE_CURVE('',#385,#386,#235,.T.);
#429=ADVANCED_FACE('',(#428),#419,.F.);
#438=EDGE_CURVE('',#382,#386,#259,.T.);
#442=ADVANCED_FACE('',(#441),#434,.F.);
#448=EDGE_CURVE('',#389,#390,#290,.T.);
#450=EDGE_CURVE('',#389,#390,#359,.T.);
#458=ADVANCED_FACE('',(#453,#457),#447,.T.);
#464=EDGE_CURVE('',#394,#393,#275,.T.);
#466=EDGE_CURVE('',#390,#394,#282,.T.);
#469=EDGE_CURVE('',#389,#393,#297,.T.);
#473=ADVANCED_FACE('',(#472),#463,.T.);
#479=EDGE_CURVE('',#398,#397,#305,.T.);
#481=EDGE_CURVE('',#397,#401,#312,.T.);
#483=EDGE_CURVE('',#402,#401,#320,.T.);
#485=EDGE_CURVE('',#398,#402,#327,.T.);
#489=ADVANCED_FACE('',(#488),#478,.T.);
#496=EDGE_CURVE('',#397,#393,#335,.T.);
#499=EDGE_CURVE('',#398,#394,#343,.T.);
#503=ADVANCED_FACE('',(#502),#494,.F.);
#509=EDGE_CURVE('',#393,#394,#351,.T.);
#512=EDGE_CURVE('',#397,#398,#367,.T.);
#517=ADVANCED_FACE('',(#516),#508,.F.);
#529=ADVANCED_FACE('',(#528),#522,.T.);
#537=EDGE_CURVE('',#401,#402,#375,.T.);
#542=ADVANCED_FACE('',(#541),#534,.T.);
#552=ADVANCED_FACE('',(#551),#547,.T.);
#560=CLOSED_SHELL('',(#414,#429,#442,#458,#473,#489,#503,#517,#529,#542,#552));
#561=MANIFOLD_SOLID_BREP('',#560);
#568=(LENGTH_UNIT()NAMED_UNIT(*)SI_UNIT(.MILLI.,.METRE.));
#569=(NAMED_UNIT(*)PLANE_ANGLE_UNIT()SI_UNIT($,.RADIAN.));
#572=(NAMED_UNIT(*)SI_UNIT($,.STERADIAN.)SOLID_ANGLE_UNIT());
#574=(GEOMETRIC_REPRESENTATION_CONTEXT(3)GLOBAL_UNCERTAINTY_ASSIGNED_CONTEXT((
#573))GLOBAL_UNIT_ASSIGNED_CONTEXT((#568,#571,#572))REPRESENTATION_CONTEXT
('ID1','3'));
#575=ADVANCED_BREP_SHAPE_REPRESENTATION('',(#217,#561),#574);
#583=PRODUCT_DEFINITION('part definition','',#582,#579);
#584=PRODUCT_DEFINITION_SHAPE('','SHAPE FOR PRT0001.',#583);
#585=SHAPE_ASPECT('','solid data associated with PRT0001',#584,.F.);
#586=PROPERTY_DEFINITION('',
'shape for solid data with which properties are associated',#585);
#587=SHAPE_REPRESENTATION('',(#217,#561),#574);
#588=SHAPE_DEFINITION_REPRESENTATION(#586,#587);
#589=(LENGTH_UNIT()NAMED_UNIT(*)SI_UNIT(.MILLI.,.METRE.));
#593=PROPERTY_DEFINITION('geometric validation property','area of PRT0001',
#585);
#594=REPRESENTATION('surface area',(#592),#574);
#595=PROPERTY_DEFINITION_REPRESENTATION(#593,#594);
#596=(LENGTH_UNIT()NAMED_UNIT(*)SI_UNIT(.MILLI.,.METRE.));
#600=PROPERTY_DEFINITION('geometric validation property','volume of PRT0001',
#585);
#601=REPRESENTATION('volume',(#599),#574);
#602=PROPERTY_DEFINITION_REPRESENTATION(#600,#601);
#604=PROPERTY_DEFINITION('geometric validation property','centroid of PRT0001',
#585);
#605=REPRESENTATION('centroid',(#603),#574);
#606=PROPERTY_DEFINITION_REPRESENTATION(#604,#605);
#607=(LENGTH_UNIT()NAMED_UNIT(*)SI_UNIT(.MILLI.,.METRE.));
#611=PROPERTY_DEFINITION('geometric validation property','area of PRT0001',
#584);
#612=REPRESENTATION('surface area',(#610),#574);
#613=PROPERTY_DEFINITION_REPRESENTATION(#611,#612);
#614=(LENGTH_UNIT()NAMED_UNIT(*)SI_UNIT(.MILLI.,.METRE.));
#618=PROPERTY_DEFINITION('geometric validation property','volume of PRT0001',
#584);
#619=REPRESENTATION('volume',(#617),#574);
#620=PROPERTY_DEFINITION_REPRESENTATION(#618,#619);
#622=PROPERTY_DEFINITION('geometric validation property','centroid of PRT0001',
#584);
#623=REPRESENTATION('centroid',(#621),#574);
#624=PROPERTY_DEFINITION_REPRESENTATION(#622,#623);
#625=SHAPE_DEFINITION_REPRESENTATION(#584,#575);
ENDSEC;
END-ISO-10303-21;
