ISO-10303-21;
HEADER;
FILE_DESCRIPTION((''),'2;1');
FILE_NAME('0811500','2025-05-29T15:50:02',('Administrator'),(''),
'CREO PARAMETRIC BY PTC INC, 2018100','CREO PARAMETRIC BY PTC INC, 2018100','');
FILE_SCHEMA(('AUTOMOTIVE_DESIGN { 1 0 10303 214 1 1 1 1 }'));
ENDSEC;
DATA;
#21=CARTESIAN_POINT('',(0.E0,0.E0,0.E0));
#22=DIRECTION('',(0.E0,-1.E0,0.E0));
#23=DIRECTION('',(0.E0,0.E0,1.E0));
#24=AXIS2_PLACEMENT_3D('',#21,#22,#23);
#26=CARTESIAN_POINT('',(0.E0,0.E0,0.E0));
#27=DIRECTION('',(0.E0,-1.E0,0.E0));
#28=DIRECTION('',(0.E0,0.E0,-1.E0));
#29=AXIS2_PLACEMENT_3D('',#26,#27,#28);
#31=CARTESIAN_POINT('',(0.E0,0.E0,0.E0));
#32=DIRECTION('',(0.E0,1.E0,0.E0));
#33=DIRECTION('',(1.E0,0.E0,0.E0));
#34=AXIS2_PLACEMENT_3D('',#31,#32,#33);
#36=CARTESIAN_POINT('',(0.E0,0.E0,0.E0));
#37=DIRECTION('',(0.E0,1.E0,0.E0));
#38=DIRECTION('',(-1.E0,0.E0,0.E0));
#39=AXIS2_PLACEMENT_3D('',#36,#37,#38);
#41=DIRECTION('',(0.E0,1.E0,0.E0));
#42=VECTOR('',#41,1.E-1);
#43=CARTESIAN_POINT('',(0.E0,0.E0,1.4E0));
#44=LINE('',#43,#42);
#45=DIRECTION('',(0.E0,1.E0,0.E0));
#46=VECTOR('',#45,1.E-1);
#47=CARTESIAN_POINT('',(0.E0,0.E0,-1.4E0));
#48=LINE('',#47,#46);
#49=CARTESIAN_POINT('',(0.E0,1.E-1,0.E0));
#50=DIRECTION('',(0.E0,-1.E0,0.E0));
#51=DIRECTION('',(0.E0,0.E0,1.E0));
#52=AXIS2_PLACEMENT_3D('',#49,#50,#51);
#54=CARTESIAN_POINT('',(0.E0,1.E-1,0.E0));
#55=DIRECTION('',(0.E0,-1.E0,0.E0));
#56=DIRECTION('',(0.E0,0.E0,-1.E0));
#57=AXIS2_PLACEMENT_3D('',#54,#55,#56);
#59=CARTESIAN_POINT('',(0.E0,1.E-1,7.5E-1));
#60=DIRECTION('',(0.E0,-1.E0,0.E0));
#61=DIRECTION('',(0.E0,0.E0,-1.E0));
#62=AXIS2_PLACEMENT_3D('',#59,#60,#61);
#64=CARTESIAN_POINT('',(0.E0,1.E-1,7.5E-1));
#65=DIRECTION('',(0.E0,-1.E0,0.E0));
#66=DIRECTION('',(0.E0,0.E0,1.E0));
#67=AXIS2_PLACEMENT_3D('',#64,#65,#66);
#69=CARTESIAN_POINT('',(0.E0,1.E-1,-7.5E-1));
#70=DIRECTION('',(0.E0,-1.E0,0.E0));
#71=DIRECTION('',(-1.E0,0.E0,0.E0));
#72=AXIS2_PLACEMENT_3D('',#69,#70,#71);
#74=CARTESIAN_POINT('',(0.E0,1.E-1,-7.5E-1));
#75=DIRECTION('',(0.E0,-1.E0,0.E0));
#76=DIRECTION('',(1.E0,0.E0,0.E0));
#77=AXIS2_PLACEMENT_3D('',#74,#75,#76);
#79=DIRECTION('',(0.E0,-1.E0,0.E0));
#80=VECTOR('',#79,2.E1);
#81=CARTESIAN_POINT('',(0.E0,1.E-1,5.25E-1));
#82=LINE('',#81,#80);
#83=DIRECTION('',(0.E0,-1.E0,0.E0));
#84=VECTOR('',#83,2.E1);
#85=CARTESIAN_POINT('',(0.E0,1.E-1,9.75E-1));
#86=LINE('',#85,#84);
#87=CARTESIAN_POINT('',(0.E0,-1.99E1,7.5E-1));
#88=DIRECTION('',(0.E0,-1.E0,0.E0));
#89=DIRECTION('',(0.E0,0.E0,-1.E0));
#90=AXIS2_PLACEMENT_3D('',#87,#88,#89);
#92=CARTESIAN_POINT('',(0.E0,-1.99E1,7.5E-1));
#93=DIRECTION('',(0.E0,-1.E0,0.E0));
#94=DIRECTION('',(0.E0,0.E0,1.E0));
#95=AXIS2_PLACEMENT_3D('',#92,#93,#94);
#97=DIRECTION('',(0.E0,-1.E0,0.E0));
#98=VECTOR('',#97,2.5E1);
#99=CARTESIAN_POINT('',(-2.25E-1,1.E-1,-7.5E-1));
#100=LINE('',#99,#98);
#101=DIRECTION('',(0.E0,-1.E0,0.E0));
#102=VECTOR('',#101,2.5E1);
#103=CARTESIAN_POINT('',(2.25E-1,1.E-1,-7.5E-1));
#104=LINE('',#103,#102);
#105=CARTESIAN_POINT('',(0.E0,-2.49E1,-7.5E-1));
#106=DIRECTION('',(0.E0,-1.E0,0.E0));
#107=DIRECTION('',(-1.E0,0.E0,0.E0));
#108=AXIS2_PLACEMENT_3D('',#105,#106,#107);
#110=CARTESIAN_POINT('',(0.E0,-2.49E1,-7.5E-1));
#111=DIRECTION('',(0.E0,-1.E0,0.E0));
#112=DIRECTION('',(1.E0,0.E0,0.E0));
#113=AXIS2_PLACEMENT_3D('',#110,#111,#112);
#115=CARTESIAN_POINT('',(1.675E0,2.E-1,4.865979147395E-10));
#116=DIRECTION('',(2.905062163050E-10,0.E0,-1.E0));
#117=DIRECTION('',(1.E0,0.E0,2.905062163050E-10));
#118=AXIS2_PLACEMENT_3D('',#115,#116,#117);
#120=CARTESIAN_POINT('',(0.E0,1.105E1,0.E0));
#121=DIRECTION('',(0.E0,-1.E0,0.E0));
#122=DIRECTION('',(-1.E0,0.E0,0.E0));
#123=AXIS2_PLACEMENT_3D('',#120,#121,#122);
#125=DIRECTION('',(0.E0,1.E0,4.987462882919E-13));
#126=VECTOR('',#125,9.802786404500E0);
#127=CARTESIAN_POINT('',(1.875E0,1.247213595500E0,-4.865347997814E-12));
#128=LINE('',#127,#126);
#129=CARTESIAN_POINT('',(0.E0,2.E-1,0.E0));
#130=DIRECTION('',(0.E0,1.E0,0.E0));
#131=DIRECTION('',(1.E0,0.E0,0.E0));
#132=AXIS2_PLACEMENT_3D('',#129,#130,#131);
#134=DIRECTION('',(0.E0,1.E0,-1.471695106677E-10));
#135=VECTOR('',#134,1.527864045E-1);
#136=CARTESIAN_POINT('',(1.875E0,2.E-1,1.762534634484E-11));
#137=LINE('',#136,#135);
#138=CARTESIAN_POINT('',(-1.725E0,1.105E1,4.850737866935E-13));
#139=DIRECTION('',(-2.812038796263E-13,0.E0,-1.E0));
#140=DIRECTION('',(-1.E0,0.E0,2.812038796263E-13));
#141=AXIS2_PLACEMENT_3D('',#138,#139,#140);
#143=CARTESIAN_POINT('',(0.E0,1.12E1,0.E0));
#144=DIRECTION('',(0.E0,1.E0,0.E0));
#145=DIRECTION('',(-9.050739955311E-1,0.E0,4.252541153397E-1));
#146=AXIS2_PLACEMENT_3D('',#143,#144,#145);
#148=CARTESIAN_POINT('',(1.725E0,1.105E1,-4.854554258582E-13));
#149=DIRECTION('',(2.814241895077E-13,0.E0,1.E0));
#150=DIRECTION('',(1.E0,0.E0,-2.814241895077E-13));
#151=AXIS2_PLACEMENT_3D('',#148,#149,#150);
#153=DIRECTION('',(-1.E0,-3.225436340035E-14,0.E0));
#154=VECTOR('',#153,5.507338084314E-2);
#155=CARTESIAN_POINT('',(-1.561252642291E0,1.12E1,7.335633489610E-1));
#156=LINE('',#155,#154);
#157=CARTESIAN_POINT('',(0.E0,1.12E1,0.E0));
#158=DIRECTION('',(0.E0,1.E0,0.E0));
#159=DIRECTION('',(-9.106062102165E-1,0.E0,4.132751261752E-1));
#160=AXIS2_PLACEMENT_3D('',#157,#158,#159);
#162=DIRECTION('',(-1.E0,3.225436340035E-14,0.E0));
#163=VECTOR('',#162,5.507338084313E-2);
#164=CARTESIAN_POINT('',(1.616326023134E0,1.12E1,7.335633489610E-1));
#165=LINE('',#164,#163);
#166=DIRECTION('',(0.E0,1.E0,0.E0));
#167=VECTOR('',#166,9.999999999998E-3);
#168=CARTESIAN_POINT('',(1.616326023134E0,1.12E1,7.335633489610E-1));
#169=LINE('',#168,#167);
#170=DIRECTION('',(-1.E0,0.E0,0.E0));
#171=VECTOR('',#170,3.122505284582E0);
#172=CARTESIAN_POINT('',(1.561252642291E0,1.12E1,7.335633489610E-1));
#173=LINE('',#172,#171);
#174=CARTESIAN_POINT('',(0.E0,1.12E1,0.E0));
#175=DIRECTION('',(0.E0,-1.E0,0.E0));
#176=DIRECTION('',(-9.050739955311E-1,0.E0,4.252541153397E-1));
#177=AXIS2_PLACEMENT_3D('',#174,#175,#176);
#179=CARTESIAN_POINT('',(0.E0,1.12E1,0.E0));
#180=DIRECTION('',(0.E0,-1.E0,0.E0));
#181=DIRECTION('',(-1.E0,0.E0,0.E0));
#182=AXIS2_PLACEMENT_3D('',#179,#180,#181);
#184=CARTESIAN_POINT('',(0.E0,1.12E1,0.E0));
#185=DIRECTION('',(0.E0,-1.E0,0.E0));
#186=DIRECTION('',(1.E0,0.E0,0.E0));
#187=AXIS2_PLACEMENT_3D('',#184,#185,#186);
#189=DIRECTION('',(0.E0,1.E0,0.E0));
#190=VECTOR('',#189,9.999999999998E-3);
#191=CARTESIAN_POINT('',(-1.616326023134E0,1.12E1,7.335633489610E-1));
#192=LINE('',#191,#190);
#193=CARTESIAN_POINT('',(0.E0,1.121E1,0.E0));
#194=DIRECTION('',(0.E0,1.E0,0.E0));
#195=DIRECTION('',(-9.106062102165E-1,0.E0,4.132751261752E-1));
#196=AXIS2_PLACEMENT_3D('',#193,#194,#195);
#198=DIRECTION('',(-1.E0,0.E0,0.E0));
#199=VECTOR('',#198,3.232652046269E0);
#200=CARTESIAN_POINT('',(1.616326023134E0,1.121E1,7.335633489610E-1));
#201=LINE('',#200,#199);
#202=CARTESIAN_POINT('',(0.E0,1.105E1,0.E0));
#203=DIRECTION('',(0.E0,-1.E0,0.E0));
#204=DIRECTION('',(1.E0,0.E0,0.E0));
#205=AXIS2_PLACEMENT_3D('',#202,#203,#204);
#207=CARTESIAN_POINT('',(0.E0,1.247213595500E0,0.E0));
#208=DIRECTION('',(0.E0,-1.E0,0.E0));
#209=DIRECTION('',(1.E0,0.E0,0.E0));
#210=AXIS2_PLACEMENT_3D('',#207,#208,#209);
#212=CARTESIAN_POINT('',(0.E0,1.247213595500E0,0.E0));
#213=DIRECTION('',(0.E0,-1.E0,0.E0));
#214=DIRECTION('',(0.E0,0.E0,1.E0));
#215=AXIS2_PLACEMENT_3D('',#212,#213,#214);
#217=DIRECTION('',(0.E0,1.E0,-5.577713012184E-13));
#218=VECTOR('',#217,9.802786404500E0);
#219=CARTESIAN_POINT('',(-1.875E0,1.247213595500E0,5.444060522283E-12));
#220=LINE('',#219,#218);
#221=CARTESIAN_POINT('',(0.E0,2.E-1,0.E0));
#222=DIRECTION('',(0.E0,1.E0,0.E0));
#223=DIRECTION('',(-1.E0,0.E0,0.E0));
#224=AXIS2_PLACEMENT_3D('',#221,#222,#223);
#226=DIRECTION('',(0.E0,1.E0,1.509483872757E-10));
#227=VECTOR('',#226,1.527864045E-1);
#228=CARTESIAN_POINT('',(-1.875E0,2.E-1,-1.762508053363E-11));
#229=LINE('',#228,#227);
#230=CARTESIAN_POINT('',(0.E0,3.527864045E-1,0.E0));
#231=DIRECTION('',(0.E0,1.E0,0.E0));
#232=DIRECTION('',(-1.E0,0.E0,0.E0));
#233=AXIS2_PLACEMENT_3D('',#230,#231,#232);
#235=CARTESIAN_POINT('',(0.E0,3.527864045E-1,0.E0));
#236=DIRECTION('',(0.E0,1.E0,0.E0));
#237=DIRECTION('',(0.E0,0.E0,1.E0));
#238=AXIS2_PLACEMENT_3D('',#235,#236,#237);
#240=CARTESIAN_POINT('',(0.E0,9.490711985E-1,0.E0));
#241=DIRECTION('',(0.E0,-1.E0,0.E0));
#242=DIRECTION('',(9.099618984958E-13,0.E0,-1.E0));
#243=AXIS2_PLACEMENT_3D('',#240,#241,#242);
#245=CARTESIAN_POINT('',(0.E0,1.247213595500E0,0.E0));
#246=DIRECTION('',(0.E0,1.E0,0.E0));
#247=DIRECTION('',(1.E0,0.E0,0.E0));
#248=AXIS2_PLACEMENT_3D('',#245,#246,#247);
#250=CARTESIAN_POINT('',(-1.475E0,1.247213595500E0,3.676537861682E-11));
#251=DIRECTION('',(-2.492575763846E-11,0.E0,-1.E0));
#252=DIRECTION('',(-6.666666666642E-1,-7.453559925021E-1,1.661717175891E-11));
#253=AXIS2_PLACEMENT_3D('',#250,#251,#252);
#255=CARTESIAN_POINT('',(0.E0,6.509288015E-1,0.E0));
#256=DIRECTION('',(0.E0,1.E0,0.E0));
#257=DIRECTION('',(-1.787317901337E-11,0.E0,1.E0));
#258=AXIS2_PLACEMENT_3D('',#255,#256,#257);
#260=CARTESIAN_POINT('',(0.E0,3.527864045E-1,0.E0));
#261=DIRECTION('',(0.E0,-1.E0,0.E0));
#262=DIRECTION('',(-1.E0,0.E0,0.E0));
#263=AXIS2_PLACEMENT_3D('',#260,#261,#262);
#265=CARTESIAN_POINT('',(-2.636293613967E-11,3.527864045E-1,1.475E0));
#266=DIRECTION('',(1.E0,0.E0,1.787317689683E-11));
#267=DIRECTION('',(-1.191545126453E-11,7.453559925013E-1,6.666666666652E-1));
#268=AXIS2_PLACEMENT_3D('',#265,#266,#267);
#270=CARTESIAN_POINT('',(0.E0,6.509288015E-1,0.E0));
#271=DIRECTION('',(0.E0,1.E0,0.E0));
#272=DIRECTION('',(0.E0,0.E0,-1.E0));
#273=AXIS2_PLACEMENT_3D('',#270,#271,#272);
#275=CARTESIAN_POINT('',(0.E0,8.E-1,-1.875E0));
#276=DIRECTION('',(-1.E0,0.E0,0.E0));
#277=DIRECTION('',(0.E0,-7.453559924999E-1,6.666666666667E-1));
#278=AXIS2_PLACEMENT_3D('',#275,#276,#277);
#280=CARTESIAN_POINT('',(0.E0,9.490711985E-1,0.E0));
#281=DIRECTION('',(0.E0,-1.E0,0.E0));
#282=DIRECTION('',(-1.E0,0.E0,0.E0));
#283=AXIS2_PLACEMENT_3D('',#280,#281,#282);
#285=CARTESIAN_POINT('',(0.E0,9.490711985E-1,0.E0));
#286=DIRECTION('',(0.E0,-1.E0,0.E0));
#287=DIRECTION('',(0.E0,0.E0,1.E0));
#288=AXIS2_PLACEMENT_3D('',#285,#286,#287);
#290=CARTESIAN_POINT('',(0.E0,8.E-1,1.875E0));
#291=DIRECTION('',(-1.E0,0.E0,0.E0));
#292=DIRECTION('',(0.E0,7.453559924999E-1,-6.666666666667E-1));
#293=AXIS2_PLACEMENT_3D('',#290,#291,#292);
#295=CARTESIAN_POINT('',(0.E0,6.509288015E-1,0.E0));
#296=DIRECTION('',(0.E0,1.E0,0.E0));
#297=DIRECTION('',(-1.E0,0.E0,0.E0));
#298=AXIS2_PLACEMENT_3D('',#295,#296,#297);
#300=CARTESIAN_POINT('',(2.230938350722E-11,1.247213595500E0,1.475E0));
#301=DIRECTION('',(-1.E0,0.E0,1.512500888423E-11));
#302=DIRECTION('',(1.008333925614E-11,-7.453559925010E-1,6.666666666655E-1));
#303=AXIS2_PLACEMENT_3D('',#300,#301,#302);
#305=CARTESIAN_POINT('',(-1.475E0,3.527864045E-1,-1.964039206240E-11));
#306=DIRECTION('',(-1.331544076388E-11,0.E0,1.E0));
#307=DIRECTION('',(-6.666666666657E-1,7.453559925008E-1,-8.876960509243E-12));
#308=AXIS2_PLACEMENT_3D('',#305,#306,#307);
#310=CARTESIAN_POINT('',(-1.675E0,2.E-1,-4.865978453505E-10));
#311=DIRECTION('',(-2.905061746716E-10,0.E0,1.E0));
#312=DIRECTION('',(-1.E0,0.E0,-2.905061746716E-10));
#313=AXIS2_PLACEMENT_3D('',#310,#311,#312);
#315=CARTESIAN_POINT('',(-1.875E0,1.105E1,0.E0));
#316=CARTESIAN_POINT('',(1.875E0,1.105E1,0.E0));
#317=VERTEX_POINT('',#315);
#318=VERTEX_POINT('',#316);
#319=CARTESIAN_POINT('',(-1.725E0,1.12E1,0.E0));
#320=CARTESIAN_POINT('',(1.725E0,1.12E1,0.E0));
#321=VERTEX_POINT('',#319);
#322=VERTEX_POINT('',#320);
#323=CARTESIAN_POINT('',(0.E0,6.509288015E-1,-1.741666666667E0));
#324=CARTESIAN_POINT('',(-1.741666666667E0,6.509288015E-1,0.E0));
#325=VERTEX_POINT('',#323);
#326=VERTEX_POINT('',#324);
#327=CARTESIAN_POINT('',(0.E0,6.509288015E-1,1.741666666667E0));
#328=VERTEX_POINT('',#327);
#329=CARTESIAN_POINT('',(-1.875E0,3.527864045E-1,0.E0));
#330=CARTESIAN_POINT('',(0.E0,3.527864045E-1,1.875E0));
#331=VERTEX_POINT('',#329);
#332=VERTEX_POINT('',#330);
#333=CARTESIAN_POINT('',(1.875E0,3.527864045E-1,0.E0));
#334=VERTEX_POINT('',#333);
#335=CARTESIAN_POINT('',(1.875E0,1.247213595500E0,0.E0));
#336=CARTESIAN_POINT('',(0.E0,1.247213595500E0,1.875E0));
#337=VERTEX_POINT('',#335);
#338=VERTEX_POINT('',#336);
#339=CARTESIAN_POINT('',(0.E0,9.490711985E-1,1.741666666667E0));
#340=CARTESIAN_POINT('',(-1.741666666667E0,9.490711985E-1,0.E0));
#341=VERTEX_POINT('',#339);
#342=VERTEX_POINT('',#340);
#343=CARTESIAN_POINT('',(-1.875E0,1.247213595500E0,0.E0));
#344=VERTEX_POINT('',#343);
#345=CARTESIAN_POINT('',(0.E0,9.490711985E-1,-1.741666666667E0));
#346=VERTEX_POINT('',#345);
#347=CARTESIAN_POINT('',(0.E0,1.E-1,1.4E0));
#348=CARTESIAN_POINT('',(0.E0,1.E-1,-1.4E0));
#349=VERTEX_POINT('',#347);
#350=VERTEX_POINT('',#348);
#351=CARTESIAN_POINT('',(0.E0,0.E0,1.4E0));
#352=CARTESIAN_POINT('',(0.E0,0.E0,-1.4E0));
#353=VERTEX_POINT('',#351);
#354=VERTEX_POINT('',#352);
#355=CARTESIAN_POINT('',(0.E0,-1.99E1,5.25E-1));
#356=CARTESIAN_POINT('',(0.E0,-1.99E1,9.75E-1));
#357=VERTEX_POINT('',#355);
#358=VERTEX_POINT('',#356);
#359=CARTESIAN_POINT('',(0.E0,1.E-1,5.25E-1));
#360=CARTESIAN_POINT('',(0.E0,1.E-1,9.75E-1));
#361=VERTEX_POINT('',#359);
#362=VERTEX_POINT('',#360);
#363=CARTESIAN_POINT('',(-2.25E-1,-2.49E1,-7.5E-1));
#364=CARTESIAN_POINT('',(2.25E-1,-2.49E1,-7.5E-1));
#365=VERTEX_POINT('',#363);
#366=VERTEX_POINT('',#364);
#367=CARTESIAN_POINT('',(-2.25E-1,1.E-1,-7.5E-1));
#368=CARTESIAN_POINT('',(2.25E-1,1.E-1,-7.5E-1));
#369=VERTEX_POINT('',#367);
#370=VERTEX_POINT('',#368);
#371=CARTESIAN_POINT('',(1.875E0,2.E-1,0.E0));
#372=CARTESIAN_POINT('',(-1.875E0,2.E-1,0.E0));
#373=VERTEX_POINT('',#371);
#374=VERTEX_POINT('',#372);
#375=CARTESIAN_POINT('',(1.675E0,0.E0,0.E0));
#376=CARTESIAN_POINT('',(-1.675E0,0.E0,0.E0));
#377=VERTEX_POINT('',#375);
#378=VERTEX_POINT('',#376);
#379=CARTESIAN_POINT('',(-1.616326023134E0,1.12E1,7.335633489610E-1));
#380=CARTESIAN_POINT('',(1.616326023134E0,1.12E1,7.335633489610E-1));
#381=VERTEX_POINT('',#379);
#382=VERTEX_POINT('',#380);
#383=CARTESIAN_POINT('',(-1.616326023134E0,1.121E1,7.335633489610E-1));
#384=CARTESIAN_POINT('',(1.616326023134E0,1.121E1,7.335633489610E-1));
#385=VERTEX_POINT('',#383);
#386=VERTEX_POINT('',#384);
#387=CARTESIAN_POINT('',(1.561252642291E0,1.12E1,7.335633489610E-1));
#388=CARTESIAN_POINT('',(-1.561252642291E0,1.12E1,7.335633489610E-1));
#389=VERTEX_POINT('',#387);
#390=VERTEX_POINT('',#388);
#391=CARTESIAN_POINT('',(0.E0,0.E0,0.E0));
#392=DIRECTION('',(0.E0,1.E0,0.E0));
#393=DIRECTION('',(1.E0,0.E0,0.E0));
#394=AXIS2_PLACEMENT_3D('',#391,#392,#393);
#395=PLANE('',#394);
#397=ORIENTED_EDGE('',*,*,#396,.T.);
#399=ORIENTED_EDGE('',*,*,#398,.T.);
#400=EDGE_LOOP('',(#397,#399));
#401=FACE_OUTER_BOUND('',#400,.F.);
#403=ORIENTED_EDGE('',*,*,#402,.T.);
#405=ORIENTED_EDGE('',*,*,#404,.T.);
#406=EDGE_LOOP('',(#403,#405));
#407=FACE_BOUND('',#406,.F.);
#409=FILL_AREA_STYLE_COLOUR('',#16);
#410=FILL_AREA_STYLE('',(#409));
#411=SURFACE_STYLE_FILL_AREA(#410);
#412=SURFACE_SIDE_STYLE('',(#411));
#413=SURFACE_STYLE_USAGE(.POSITIVE.,#412);
#414=PRESENTATION_STYLE_ASSIGNMENT((#413));
#415=STYLED_ITEM('',(#414),#408);
#416=CARTESIAN_POINT('',(0.E0,0.E0,0.E0));
#417=DIRECTION('',(0.E0,-1.E0,0.E0));
#418=DIRECTION('',(0.E0,0.E0,1.E0));
#419=AXIS2_PLACEMENT_3D('',#416,#417,#418);
#420=CYLINDRICAL_SURFACE('',#419,1.4E0);
#421=ORIENTED_EDGE('',*,*,#402,.F.);
#423=ORIENTED_EDGE('',*,*,#422,.T.);
#425=ORIENTED_EDGE('',*,*,#424,.T.);
#427=ORIENTED_EDGE('',*,*,#426,.F.);
#428=EDGE_LOOP('',(#421,#423,#425,#427));
#429=FACE_OUTER_BOUND('',#428,.F.);
#431=FILL_AREA_STYLE_COLOUR('',#16);
#432=FILL_AREA_STYLE('',(#431));
#433=SURFACE_STYLE_FILL_AREA(#432);
#434=SURFACE_SIDE_STYLE('',(#433));
#435=SURFACE_STYLE_USAGE(.POSITIVE.,#434);
#436=PRESENTATION_STYLE_ASSIGNMENT((#435));
#437=STYLED_ITEM('',(#436),#430);
#438=CARTESIAN_POINT('',(0.E0,0.E0,0.E0));
#439=DIRECTION('',(0.E0,-1.E0,0.E0));
#440=DIRECTION('',(0.E0,0.E0,1.E0));
#441=AXIS2_PLACEMENT_3D('',#438,#439,#440);
#442=CYLINDRICAL_SURFACE('',#441,1.4E0);
#443=ORIENTED_EDGE('',*,*,#404,.F.);
#444=ORIENTED_EDGE('',*,*,#426,.T.);
#446=ORIENTED_EDGE('',*,*,#445,.T.);
#447=ORIENTED_EDGE('',*,*,#422,.F.);
#448=EDGE_LOOP('',(#443,#444,#446,#447));
#449=FACE_OUTER_BOUND('',#448,.F.);
#451=FILL_AREA_STYLE_COLOUR('',#16);
#452=FILL_AREA_STYLE('',(#451));
#453=SURFACE_STYLE_FILL_AREA(#452);
#454=SURFACE_SIDE_STYLE('',(#453));
#455=SURFACE_STYLE_USAGE(.POSITIVE.,#454);
#456=PRESENTATION_STYLE_ASSIGNMENT((#455));
#457=STYLED_ITEM('',(#456),#450);
#458=CARTESIAN_POINT('',(0.E0,1.E-1,0.E0));
#459=DIRECTION('',(0.E0,-1.E0,0.E0));
#460=DIRECTION('',(0.E0,0.E0,1.E0));
#461=AXIS2_PLACEMENT_3D('',#458,#459,#460);
#462=PLANE('',#461);
#463=ORIENTED_EDGE('',*,*,#424,.F.);
#464=ORIENTED_EDGE('',*,*,#445,.F.);
#465=EDGE_LOOP('',(#463,#464));
#466=FACE_OUTER_BOUND('',#465,.F.);
#468=ORIENTED_EDGE('',*,*,#467,.T.);
#470=ORIENTED_EDGE('',*,*,#469,.T.);
#471=EDGE_LOOP('',(#468,#470));
#472=FACE_BOUND('',#471,.F.);
#474=ORIENTED_EDGE('',*,*,#473,.T.);
#476=ORIENTED_EDGE('',*,*,#475,.T.);
#477=EDGE_LOOP('',(#474,#476));
#478=FACE_BOUND('',#477,.F.);
#480=FILL_AREA_STYLE_COLOUR('',#4);
#481=FILL_AREA_STYLE('',(#480));
#482=SURFACE_STYLE_FILL_AREA(#481);
#483=SURFACE_SIDE_STYLE('',(#482));
#484=SURFACE_STYLE_USAGE(.POSITIVE.,#483);
#485=PRESENTATION_STYLE_ASSIGNMENT((#484));
#486=STYLED_ITEM('',(#485),#479);
#487=CARTESIAN_POINT('',(0.E0,1.E-1,7.5E-1));
#488=DIRECTION('',(0.E0,-1.E0,0.E0));
#489=DIRECTION('',(0.E0,0.E0,-1.E0));
#490=AXIS2_PLACEMENT_3D('',#487,#488,#489);
#491=CYLINDRICAL_SURFACE('',#490,2.25E-1);
#492=ORIENTED_EDGE('',*,*,#467,.F.);
#494=ORIENTED_EDGE('',*,*,#493,.T.);
#496=ORIENTED_EDGE('',*,*,#495,.T.);
#498=ORIENTED_EDGE('',*,*,#497,.F.);
#499=EDGE_LOOP('',(#492,#494,#496,#498));
#500=FACE_OUTER_BOUND('',#499,.F.);
#502=FILL_AREA_STYLE_COLOUR('',#10);
#503=FILL_AREA_STYLE('',(#502));
#504=SURFACE_STYLE_FILL_AREA(#503);
#505=SURFACE_SIDE_STYLE('',(#504));
#506=SURFACE_STYLE_USAGE(.POSITIVE.,#505);
#507=PRESENTATION_STYLE_ASSIGNMENT((#506));
#508=STYLED_ITEM('',(#507),#501);
#509=CARTESIAN_POINT('',(0.E0,1.E-1,7.5E-1));
#510=DIRECTION('',(0.E0,-1.E0,0.E0));
#511=DIRECTION('',(0.E0,0.E0,-1.E0));
#512=AXIS2_PLACEMENT_3D('',#509,#510,#511);
#513=CYLINDRICAL_SURFACE('',#512,2.25E-1);
#514=ORIENTED_EDGE('',*,*,#469,.F.);
#515=ORIENTED_EDGE('',*,*,#497,.T.);
#517=ORIENTED_EDGE('',*,*,#516,.T.);
#518=ORIENTED_EDGE('',*,*,#493,.F.);
#519=EDGE_LOOP('',(#514,#515,#517,#518));
#520=FACE_OUTER_BOUND('',#519,.F.);
#522=FILL_AREA_STYLE_COLOUR('',#10);
#523=FILL_AREA_STYLE('',(#522));
#524=SURFACE_STYLE_FILL_AREA(#523);
#525=SURFACE_SIDE_STYLE('',(#524));
#526=SURFACE_STYLE_USAGE(.POSITIVE.,#525);
#527=PRESENTATION_STYLE_ASSIGNMENT((#526));
#528=STYLED_ITEM('',(#527),#521);
#529=CARTESIAN_POINT('',(0.E0,-1.99E1,0.E0));
#530=DIRECTION('',(0.E0,-1.E0,0.E0));
#531=DIRECTION('',(0.E0,0.E0,-1.E0));
#532=AXIS2_PLACEMENT_3D('',#529,#530,#531);
#533=PLANE('',#532);
#534=ORIENTED_EDGE('',*,*,#495,.F.);
#535=ORIENTED_EDGE('',*,*,#516,.F.);
#536=EDGE_LOOP('',(#534,#535));
#537=FACE_OUTER_BOUND('',#536,.F.);
#539=FILL_AREA_STYLE_COLOUR('',#10);
#540=FILL_AREA_STYLE('',(#539));
#541=SURFACE_STYLE_FILL_AREA(#540);
#542=SURFACE_SIDE_STYLE('',(#541));
#543=SURFACE_STYLE_USAGE(.POSITIVE.,#542);
#544=PRESENTATION_STYLE_ASSIGNMENT((#543));
#545=STYLED_ITEM('',(#544),#538);
#546=CARTESIAN_POINT('',(0.E0,1.E-1,-7.5E-1));
#547=DIRECTION('',(0.E0,-1.E0,0.E0));
#548=DIRECTION('',(-1.E0,0.E0,0.E0));
#549=AXIS2_PLACEMENT_3D('',#546,#547,#548);
#550=CYLINDRICAL_SURFACE('',#549,2.25E-1);
#551=ORIENTED_EDGE('',*,*,#473,.F.);
#553=ORIENTED_EDGE('',*,*,#552,.T.);
#555=ORIENTED_EDGE('',*,*,#554,.T.);
#557=ORIENTED_EDGE('',*,*,#556,.F.);
#558=EDGE_LOOP('',(#551,#553,#555,#557));
#559=FACE_OUTER_BOUND('',#558,.F.);
#561=FILL_AREA_STYLE_COLOUR('',#10);
#562=FILL_AREA_STYLE('',(#561));
#563=SURFACE_STYLE_FILL_AREA(#562);
#564=SURFACE_SIDE_STYLE('',(#563));
#565=SURFACE_STYLE_USAGE(.POSITIVE.,#564);
#566=PRESENTATION_STYLE_ASSIGNMENT((#565));
#567=STYLED_ITEM('',(#566),#560);
#568=CARTESIAN_POINT('',(0.E0,1.E-1,-7.5E-1));
#569=DIRECTION('',(0.E0,-1.E0,0.E0));
#570=DIRECTION('',(-1.E0,0.E0,0.E0));
#571=AXIS2_PLACEMENT_3D('',#568,#569,#570);
#572=CYLINDRICAL_SURFACE('',#571,2.25E-1);
#573=ORIENTED_EDGE('',*,*,#475,.F.);
#574=ORIENTED_EDGE('',*,*,#556,.T.);
#576=ORIENTED_EDGE('',*,*,#575,.T.);
#577=ORIENTED_EDGE('',*,*,#552,.F.);
#578=EDGE_LOOP('',(#573,#574,#576,#577));
#579=FACE_OUTER_BOUND('',#578,.F.);
#581=FILL_AREA_STYLE_COLOUR('',#10);
#582=FILL_AREA_STYLE('',(#581));
#583=SURFACE_STYLE_FILL_AREA(#582);
#584=SURFACE_SIDE_STYLE('',(#583));
#585=SURFACE_STYLE_USAGE(.POSITIVE.,#584);
#586=PRESENTATION_STYLE_ASSIGNMENT((#585));
#587=STYLED_ITEM('',(#586),#580);
#588=CARTESIAN_POINT('',(0.E0,-2.49E1,0.E0));
#589=DIRECTION('',(0.E0,-1.E0,0.E0));
#590=DIRECTION('',(-1.E0,0.E0,0.E0));
#591=AXIS2_PLACEMENT_3D('',#588,#589,#590);
#592=PLANE('',#591);
#593=ORIENTED_EDGE('',*,*,#554,.F.);
#594=ORIENTED_EDGE('',*,*,#575,.F.);
#595=EDGE_LOOP('',(#593,#594));
#596=FACE_OUTER_BOUND('',#595,.F.);
#598=FILL_AREA_STYLE_COLOUR('',#10);
#599=FILL_AREA_STYLE('',(#598));
#600=SURFACE_STYLE_FILL_AREA(#599);
#601=SURFACE_SIDE_STYLE('',(#600));
#602=SURFACE_STYLE_USAGE(.POSITIVE.,#601);
#603=PRESENTATION_STYLE_ASSIGNMENT((#602));
#604=STYLED_ITEM('',(#603),#597);
#605=CARTESIAN_POINT('',(0.E0,2.E-1,0.E0));
#606=DIRECTION('',(0.E0,1.E0,0.E0));
#607=DIRECTION('',(9.995081549333E-1,0.E0,3.135997802571E-2));
#608=AXIS2_PLACEMENT_3D('',#605,#606,#607);
#609=TOROIDAL_SURFACE('',#608,1.675E0,2.E-1);
#611=ORIENTED_EDGE('',*,*,#610,.T.);
#613=ORIENTED_EDGE('',*,*,#612,.T.);
#614=ORIENTED_EDGE('',*,*,#396,.F.);
#616=ORIENTED_EDGE('',*,*,#615,.F.);
#617=EDGE_LOOP('',(#611,#613,#614,#616));
#618=FACE_OUTER_BOUND('',#617,.F.);
#620=FILL_AREA_STYLE_COLOUR('',#16);
#621=FILL_AREA_STYLE('',(#620));
#622=SURFACE_STYLE_FILL_AREA(#621);
#623=SURFACE_SIDE_STYLE('',(#622));
#624=SURFACE_STYLE_USAGE(.POSITIVE.,#623);
#625=PRESENTATION_STYLE_ASSIGNMENT((#624));
#626=STYLED_ITEM('',(#625),#619);
#627=CARTESIAN_POINT('',(0.E0,0.E0,0.E0));
#628=DIRECTION('',(0.E0,1.E0,0.E0));
#629=DIRECTION('',(1.E0,0.E0,0.E0));
#630=AXIS2_PLACEMENT_3D('',#627,#628,#629);
#631=CYLINDRICAL_SURFACE('',#630,1.875E0);
#633=ORIENTED_EDGE('',*,*,#632,.F.);
#635=ORIENTED_EDGE('',*,*,#634,.F.);
#637=ORIENTED_EDGE('',*,*,#636,.F.);
#639=ORIENTED_EDGE('',*,*,#638,.T.);
#640=EDGE_LOOP('',(#633,#635,#637,#639));
#641=FACE_OUTER_BOUND('',#640,.F.);
#643=FILL_AREA_STYLE_COLOUR('',#16);
#644=FILL_AREA_STYLE('',(#643));
#645=SURFACE_STYLE_FILL_AREA(#644);
#646=SURFACE_SIDE_STYLE('',(#645));
#647=SURFACE_STYLE_USAGE(.POSITIVE.,#646);
#648=PRESENTATION_STYLE_ASSIGNMENT((#647));
#649=STYLED_ITEM('',(#648),#642);
#650=CARTESIAN_POINT('',(0.E0,0.E0,0.E0));
#651=DIRECTION('',(0.E0,1.E0,0.E0));
#652=DIRECTION('',(1.E0,0.E0,0.E0));
#653=AXIS2_PLACEMENT_3D('',#650,#651,#652);
#654=CYLINDRICAL_SURFACE('',#653,1.875E0);
#655=ORIENTED_EDGE('',*,*,#610,.F.);
#657=ORIENTED_EDGE('',*,*,#656,.T.);
#659=ORIENTED_EDGE('',*,*,#658,.F.);
#661=ORIENTED_EDGE('',*,*,#660,.F.);
#662=EDGE_LOOP('',(#655,#657,#659,#661));
#663=FACE_OUTER_BOUND('',#662,.F.);
#665=FILL_AREA_STYLE_COLOUR('',#16);
#666=FILL_AREA_STYLE('',(#665));
#667=SURFACE_STYLE_FILL_AREA(#666);
#668=SURFACE_SIDE_STYLE('',(#667));
#669=SURFACE_STYLE_USAGE(.POSITIVE.,#668);
#670=PRESENTATION_STYLE_ASSIGNMENT((#669));
#671=STYLED_ITEM('',(#670),#664);
#672=CARTESIAN_POINT('',(0.E0,1.105E1,0.E0));
#673=DIRECTION('',(0.E0,1.E0,0.E0));
#674=DIRECTION('',(-9.999522607148E-1,0.E0,9.771197025096E-3));
#675=AXIS2_PLACEMENT_3D('',#672,#673,#674);
#676=TOROIDAL_SURFACE('',#675,1.725E0,1.5E-1);
#677=ORIENTED_EDGE('',*,*,#632,.T.);
#679=ORIENTED_EDGE('',*,*,#678,.T.);
#681=ORIENTED_EDGE('',*,*,#680,.F.);
#683=ORIENTED_EDGE('',*,*,#682,.F.);
#684=EDGE_LOOP('',(#677,#679,#681,#683));
#685=FACE_OUTER_BOUND('',#684,.F.);
#687=FILL_AREA_STYLE_COLOUR('',#16);
#688=FILL_AREA_STYLE('',(#687));
#689=SURFACE_STYLE_FILL_AREA(#688);
#690=SURFACE_SIDE_STYLE('',(#689));
#691=SURFACE_STYLE_USAGE(.POSITIVE.,#690);
#692=PRESENTATION_STYLE_ASSIGNMENT((#691));
#693=STYLED_ITEM('',(#692),#686);
#694=CARTESIAN_POINT('',(0.E0,1.105E1,0.E0));
#695=DIRECTION('',(0.E0,1.E0,0.E0));
#696=DIRECTION('',(9.999522607148E-1,0.E0,-9.771197025095E-3));
#697=AXIS2_PLACEMENT_3D('',#694,#695,#696);
#698=TOROIDAL_SURFACE('',#697,1.725E0,1.5E-1);
#700=ORIENTED_EDGE('',*,*,#699,.T.);
#702=ORIENTED_EDGE('',*,*,#701,.F.);
#703=ORIENTED_EDGE('',*,*,#678,.F.);
#705=ORIENTED_EDGE('',*,*,#704,.T.);
#706=ORIENTED_EDGE('',*,*,#682,.T.);
#708=ORIENTED_EDGE('',*,*,#707,.F.);
#709=EDGE_LOOP('',(#700,#702,#703,#705,#706,#708));
#710=FACE_OUTER_BOUND('',#709,.F.);
#712=FILL_AREA_STYLE_COLOUR('',#16);
#713=FILL_AREA_STYLE('',(#712));
#714=SURFACE_STYLE_FILL_AREA(#713);
#715=SURFACE_SIDE_STYLE('',(#714));
#716=SURFACE_STYLE_USAGE(.POSITIVE.,#715);
#717=PRESENTATION_STYLE_ASSIGNMENT((#716));
#718=STYLED_ITEM('',(#717),#711);
#719=CARTESIAN_POINT('',(0.E0,1.12E1,0.E0));
#720=DIRECTION('',(0.E0,1.E0,0.E0));
#721=DIRECTION('',(1.E0,0.E0,0.E0));
#722=AXIS2_PLACEMENT_3D('',#719,#720,#721);
#723=PLANE('',#722);
#724=ORIENTED_EDGE('',*,*,#699,.F.);
#726=ORIENTED_EDGE('',*,*,#725,.T.);
#728=ORIENTED_EDGE('',*,*,#727,.T.);
#730=ORIENTED_EDGE('',*,*,#729,.T.);
#731=EDGE_LOOP('',(#724,#726,#728,#730));
#732=FACE_OUTER_BOUND('',#731,.F.);
#734=CARTESIAN_POINT('',(1.616326023134E0,1.12E1,7.335633489610E-1));
#735=DIRECTION('',(0.E0,0.E0,-1.E0));
#736=DIRECTION('',(-1.E0,0.E0,0.E0));
#737=AXIS2_PLACEMENT_3D('',#734,#735,#736);
#738=PLANE('',#737);
#740=ORIENTED_EDGE('',*,*,#739,.F.);
#741=ORIENTED_EDGE('',*,*,#729,.F.);
#743=ORIENTED_EDGE('',*,*,#742,.T.);
#745=ORIENTED_EDGE('',*,*,#744,.T.);
#747=ORIENTED_EDGE('',*,*,#746,.F.);
#748=ORIENTED_EDGE('',*,*,#725,.F.);
#749=EDGE_LOOP('',(#740,#741,#743,#745,#747,#748));
#750=FACE_OUTER_BOUND('',#749,.F.);
#752=CARTESIAN_POINT('',(0.E0,1.12E1,0.E0));
#753=DIRECTION('',(0.E0,1.E0,0.E0));
#754=DIRECTION('',(1.E0,0.E0,0.E0));
#755=AXIS2_PLACEMENT_3D('',#752,#753,#754);
#756=PLANE('',#755);
#757=ORIENTED_EDGE('',*,*,#739,.T.);
#758=ORIENTED_EDGE('',*,*,#707,.T.);
#759=ORIENTED_EDGE('',*,*,#680,.T.);
#760=ORIENTED_EDGE('',*,*,#701,.T.);
#761=EDGE_LOOP('',(#757,#758,#759,#760));
#762=FACE_OUTER_BOUND('',#761,.F.);
#764=FILL_AREA_STYLE_COLOUR('',#16);
#765=FILL_AREA_STYLE('',(#764));
#766=SURFACE_STYLE_FILL_AREA(#765);
#767=SURFACE_SIDE_STYLE('',(#766));
#768=SURFACE_STYLE_USAGE(.POSITIVE.,#767);
#769=PRESENTATION_STYLE_ASSIGNMENT((#768));
#770=STYLED_ITEM('',(#769),#763);
#771=CARTESIAN_POINT('',(0.E0,1.12E1,0.E0));
#772=DIRECTION('',(0.E0,1.E0,0.E0));
#773=DIRECTION('',(1.E0,0.E0,0.E0));
#774=AXIS2_PLACEMENT_3D('',#771,#772,#773);
#775=CYLINDRICAL_SURFACE('',#774,1.775E0);
#776=ORIENTED_EDGE('',*,*,#727,.F.);
#777=ORIENTED_EDGE('',*,*,#746,.T.);
#779=ORIENTED_EDGE('',*,*,#778,.T.);
#780=ORIENTED_EDGE('',*,*,#742,.F.);
#781=EDGE_LOOP('',(#776,#777,#779,#780));
#782=FACE_OUTER_BOUND('',#781,.F.);
#784=CARTESIAN_POINT('',(0.E0,1.121E1,0.E0));
#785=DIRECTION('',(0.E0,1.E0,0.E0));
#786=DIRECTION('',(1.E0,0.E0,0.E0));
#787=AXIS2_PLACEMENT_3D('',#784,#785,#786);
#788=PLANE('',#787);
#789=ORIENTED_EDGE('',*,*,#778,.F.);
#790=ORIENTED_EDGE('',*,*,#744,.F.);
#791=EDGE_LOOP('',(#789,#790));
#792=FACE_OUTER_BOUND('',#791,.F.);
#794=FILL_AREA_STYLE_COLOUR('',#3);
#795=FILL_AREA_STYLE('',(#794));
#796=SURFACE_STYLE_FILL_AREA(#795);
#797=SURFACE_SIDE_STYLE('',(#796));
#798=SURFACE_STYLE_USAGE(.POSITIVE.,#797);
#799=PRESENTATION_STYLE_ASSIGNMENT((#798));
#800=STYLED_ITEM('',(#799),#793);
#801=CARTESIAN_POINT('',(0.E0,0.E0,0.E0));
#802=DIRECTION('',(0.E0,1.E0,0.E0));
#803=DIRECTION('',(1.E0,0.E0,0.E0));
#804=AXIS2_PLACEMENT_3D('',#801,#802,#803);
#805=CYLINDRICAL_SURFACE('',#804,1.875E0);
#806=ORIENTED_EDGE('',*,*,#704,.F.);
#807=ORIENTED_EDGE('',*,*,#638,.F.);
#809=ORIENTED_EDGE('',*,*,#808,.T.);
#811=ORIENTED_EDGE('',*,*,#810,.T.);
#812=ORIENTED_EDGE('',*,*,#634,.T.);
#813=EDGE_LOOP('',(#806,#807,#809,#811,#812));
#814=FACE_OUTER_BOUND('',#813,.F.);
#816=FILL_AREA_STYLE_COLOUR('',#16);
#817=FILL_AREA_STYLE('',(#816));
#818=SURFACE_STYLE_FILL_AREA(#817);
#819=SURFACE_SIDE_STYLE('',(#818));
#820=SURFACE_STYLE_USAGE(.POSITIVE.,#819);
#821=PRESENTATION_STYLE_ASSIGNMENT((#820));
#822=STYLED_ITEM('',(#821),#815);
#823=CARTESIAN_POINT('',(0.E0,0.E0,0.E0));
#824=DIRECTION('',(0.E0,1.E0,0.E0));
#825=DIRECTION('',(1.E0,0.E0,0.E0));
#826=AXIS2_PLACEMENT_3D('',#823,#824,#825);
#827=CYLINDRICAL_SURFACE('',#826,1.875E0);
#829=ORIENTED_EDGE('',*,*,#828,.F.);
#830=ORIENTED_EDGE('',*,*,#660,.T.);
#832=ORIENTED_EDGE('',*,*,#831,.T.);
#834=ORIENTED_EDGE('',*,*,#833,.T.);
#835=ORIENTED_EDGE('',*,*,#656,.F.);
#836=EDGE_LOOP('',(#829,#830,#832,#834,#835));
#837=FACE_OUTER_BOUND('',#836,.F.);
#839=FILL_AREA_STYLE_COLOUR('',#16);
#840=FILL_AREA_STYLE('',(#839));
#841=SURFACE_STYLE_FILL_AREA(#840);
#842=SURFACE_SIDE_STYLE('',(#841));
#843=SURFACE_STYLE_USAGE(.POSITIVE.,#842);
#844=PRESENTATION_STYLE_ASSIGNMENT((#843));
#845=STYLED_ITEM('',(#844),#838);
#846=CARTESIAN_POINT('',(0.E0,1.247213595500E0,0.E0));
#847=DIRECTION('',(0.E0,1.E0,0.E0));
#848=DIRECTION('',(-1.093786306994E-2,0.E0,-9.999401797865E-1));
#849=AXIS2_PLACEMENT_3D('',#846,#847,#848);
#850=TOROIDAL_SURFACE('',#849,1.475E0,4.E-1);
#852=ORIENTED_EDGE('',*,*,#851,.T.);
#854=ORIENTED_EDGE('',*,*,#853,.T.);
#855=ORIENTED_EDGE('',*,*,#808,.F.);
#856=ORIENTED_EDGE('',*,*,#636,.T.);
#858=ORIENTED_EDGE('',*,*,#857,.F.);
#860=ORIENTED_EDGE('',*,*,#859,.T.);
#861=EDGE_LOOP('',(#852,#854,#855,#856,#858,#860));
#862=FACE_OUTER_BOUND('',#861,.F.);
#864=FILL_AREA_STYLE_COLOUR('',#16);
#865=FILL_AREA_STYLE('',(#864));
#866=SURFACE_STYLE_FILL_AREA(#865);
#867=SURFACE_SIDE_STYLE('',(#866));
#868=SURFACE_STYLE_USAGE(.POSITIVE.,#867);
#869=PRESENTATION_STYLE_ASSIGNMENT((#868));
#870=STYLED_ITEM('',(#869),#863);
#871=CARTESIAN_POINT('',(0.E0,8.E-1,0.E0));
#872=DIRECTION('',(0.E0,1.E0,0.E0));
#873=DIRECTION('',(0.E0,0.E0,-1.E0));
#874=AXIS2_PLACEMENT_3D('',#871,#872,#873);
#875=TOROIDAL_SURFACE('',#874,1.875E0,2.E-1);
#877=ORIENTED_EDGE('',*,*,#876,.F.);
#879=ORIENTED_EDGE('',*,*,#878,.F.);
#880=ORIENTED_EDGE('',*,*,#851,.F.);
#882=ORIENTED_EDGE('',*,*,#881,.F.);
#883=EDGE_LOOP('',(#877,#879,#880,#882));
#884=FACE_OUTER_BOUND('',#883,.F.);
#886=FILL_AREA_STYLE_COLOUR('',#16);
#887=FILL_AREA_STYLE('',(#886));
#888=SURFACE_STYLE_FILL_AREA(#887);
#889=SURFACE_SIDE_STYLE('',(#888));
#890=SURFACE_STYLE_USAGE(.POSITIVE.,#889);
#891=PRESENTATION_STYLE_ASSIGNMENT((#890));
#892=STYLED_ITEM('',(#891),#885);
#893=CARTESIAN_POINT('',(0.E0,3.527864045E-1,0.E0));
#894=DIRECTION('',(0.E0,1.E0,0.E0));
#895=DIRECTION('',(9.999483639332E-1,0.E0,1.016215859424E-2));
#896=AXIS2_PLACEMENT_3D('',#893,#894,#895);
#897=TOROIDAL_SURFACE('',#896,1.475E0,4.E-1);
#898=ORIENTED_EDGE('',*,*,#876,.T.);
#900=ORIENTED_EDGE('',*,*,#899,.T.);
#902=ORIENTED_EDGE('',*,*,#901,.T.);
#903=ORIENTED_EDGE('',*,*,#658,.T.);
#904=ORIENTED_EDGE('',*,*,#833,.F.);
#906=ORIENTED_EDGE('',*,*,#905,.F.);
#907=EDGE_LOOP('',(#898,#900,#902,#903,#904,#906));
#908=FACE_OUTER_BOUND('',#907,.F.);
#910=FILL_AREA_STYLE_COLOUR('',#16);
#911=FILL_AREA_STYLE('',(#910));
#912=SURFACE_STYLE_FILL_AREA(#911);
#913=SURFACE_SIDE_STYLE('',(#912));
#914=SURFACE_STYLE_USAGE(.POSITIVE.,#913);
#915=PRESENTATION_STYLE_ASSIGNMENT((#914));
#916=STYLED_ITEM('',(#915),#909);
#917=CARTESIAN_POINT('',(0.E0,8.E-1,0.E0));
#918=DIRECTION('',(0.E0,1.E0,0.E0));
#919=DIRECTION('',(0.E0,0.E0,-1.E0));
#920=AXIS2_PLACEMENT_3D('',#917,#918,#919);
#921=TOROIDAL_SURFACE('',#920,1.875E0,2.E-1);
#922=ORIENTED_EDGE('',*,*,#899,.F.);
#923=ORIENTED_EDGE('',*,*,#881,.T.);
#924=ORIENTED_EDGE('',*,*,#859,.F.);
#926=ORIENTED_EDGE('',*,*,#925,.F.);
#927=ORIENTED_EDGE('',*,*,#878,.T.);
#929=ORIENTED_EDGE('',*,*,#928,.F.);
#930=EDGE_LOOP('',(#922,#923,#924,#926,#927,#929));
#931=FACE_OUTER_BOUND('',#930,.F.);
#933=FILL_AREA_STYLE_COLOUR('',#16);
#934=FILL_AREA_STYLE('',(#933));
#935=SURFACE_STYLE_FILL_AREA(#934);
#936=SURFACE_SIDE_STYLE('',(#935));
#937=SURFACE_STYLE_USAGE(.POSITIVE.,#936);
#938=PRESENTATION_STYLE_ASSIGNMENT((#937));
#939=STYLED_ITEM('',(#938),#932);
#940=CARTESIAN_POINT('',(0.E0,1.247213595500E0,0.E0));
#941=DIRECTION('',(0.E0,1.E0,0.E0));
#942=DIRECTION('',(1.093786306994E-2,0.E0,9.999401797865E-1));
#943=AXIS2_PLACEMENT_3D('',#940,#941,#942);
#944=TOROIDAL_SURFACE('',#943,1.475E0,4.E-1);
#945=ORIENTED_EDGE('',*,*,#925,.T.);
#946=ORIENTED_EDGE('',*,*,#857,.T.);
#947=ORIENTED_EDGE('',*,*,#810,.F.);
#948=ORIENTED_EDGE('',*,*,#853,.F.);
#949=EDGE_LOOP('',(#945,#946,#947,#948));
#950=FACE_OUTER_BOUND('',#949,.F.);
#952=FILL_AREA_STYLE_COLOUR('',#16);
#953=FILL_AREA_STYLE('',(#952));
#954=SURFACE_STYLE_FILL_AREA(#953);
#955=SURFACE_SIDE_STYLE('',(#954));
#956=SURFACE_STYLE_USAGE(.POSITIVE.,#955);
#957=PRESENTATION_STYLE_ASSIGNMENT((#956));
#958=STYLED_ITEM('',(#957),#951);
#959=CARTESIAN_POINT('',(0.E0,3.527864045E-1,0.E0));
#960=DIRECTION('',(0.E0,1.E0,0.E0));
#961=DIRECTION('',(-9.999483639332E-1,0.E0,-1.016215859424E-2));
#962=AXIS2_PLACEMENT_3D('',#959,#960,#961);
#963=TOROIDAL_SURFACE('',#962,1.475E0,4.E-1);
#964=ORIENTED_EDGE('',*,*,#928,.T.);
#965=ORIENTED_EDGE('',*,*,#905,.T.);
#966=ORIENTED_EDGE('',*,*,#831,.F.);
#967=ORIENTED_EDGE('',*,*,#901,.F.);
#968=EDGE_LOOP('',(#964,#965,#966,#967));
#969=FACE_OUTER_BOUND('',#968,.F.);
#971=FILL_AREA_STYLE_COLOUR('',#16);
#972=FILL_AREA_STYLE('',(#971));
#973=SURFACE_STYLE_FILL_AREA(#972);
#974=SURFACE_SIDE_STYLE('',(#973));
#975=SURFACE_STYLE_USAGE(.POSITIVE.,#974);
#976=PRESENTATION_STYLE_ASSIGNMENT((#975));
#977=STYLED_ITEM('',(#976),#970);
#978=CARTESIAN_POINT('',(0.E0,2.E-1,0.E0));
#979=DIRECTION('',(0.E0,1.E0,0.E0));
#980=DIRECTION('',(-9.995081549333E-1,0.E0,-3.135997802571E-2));
#981=AXIS2_PLACEMENT_3D('',#978,#979,#980);
#982=TOROIDAL_SURFACE('',#981,1.675E0,2.E-1);
#983=ORIENTED_EDGE('',*,*,#828,.T.);
#984=ORIENTED_EDGE('',*,*,#615,.T.);
#985=ORIENTED_EDGE('',*,*,#398,.F.);
#986=ORIENTED_EDGE('',*,*,#612,.F.);
#987=EDGE_LOOP('',(#983,#984,#985,#986));
#988=FACE_OUTER_BOUND('',#987,.F.);
#990=FILL_AREA_STYLE_COLOUR('',#16);
#991=FILL_AREA_STYLE('',(#990));
#992=SURFACE_STYLE_FILL_AREA(#991);
#993=SURFACE_SIDE_STYLE('',(#992));
#994=SURFACE_STYLE_USAGE(.POSITIVE.,#993);
#995=PRESENTATION_STYLE_ASSIGNMENT((#994));
#996=STYLED_ITEM('',(#995),#989);
#997=CLOSED_SHELL('',(#408,#430,#450,#479,#501,#521,#538,#560,#580,#597,#619,
#642,#664,#686,#711,#733,#751,#763,#783,#793,#815,#838,#863,#885,#909,#932,#951,
#970,#989));
#998=MANIFOLD_SOLID_BREP('',#997);
#1001=PLANE_ANGLE_MEASURE_WITH_UNIT(PLANE_ANGLE_MEASURE(1.745329251994E-2),
#1000);
#1002=(CONVERSION_BASED_UNIT('DEGREE',#1001)NAMED_UNIT(*)PLANE_ANGLE_UNIT());
#1004=UNCERTAINTY_MEASURE_WITH_UNIT(LENGTH_MEASURE(3.649589754429E-3),#999,
'distance_accuracy_value',
'Maximum model space distance between geometric entities at asserted connectivities');
#1007=MECHANICAL_DESIGN_GEOMETRIC_PRESENTATION_REPRESENTATION('',(#415,#437,
#457,#486,#508,#528,#545,#567,#587,#604,#626,#649,#671,#693,#718,#770,#800,#822,
#845,#870,#892,#916,#939,#958,#977,#996),#1005);
#1008=APPLICATION_CONTEXT('automotive_design');
#1009=APPLICATION_PROTOCOL_DEFINITION('international standard',
'automotive_design',2001,#1008);
#1010=PRODUCT_DEFINITION_CONTEXT('part definition',#1008,'design');
#1011=PRODUCT_CONTEXT('',#1008,'mechanical');
#1012=PRODUCT('0811500','0811500','NOT SPECIFIED',(#1011));
#1013=PRODUCT_DEFINITION_FORMATION('17','LAST_VERSION',#1012);
#1021=DERIVED_UNIT_ELEMENT(#1020,2.E0);
#1022=DERIVED_UNIT((#1021));
#1023=MEASURE_REPRESENTATION_ITEM('surface area measure',AREA_MEASURE(
2.179929183504E2),#1022);
#1028=DERIVED_UNIT_ELEMENT(#1027,3.E0);
#1029=DERIVED_UNIT((#1028));
#1030=MEASURE_REPRESENTATION_ITEM('volume measure',VOLUME_MEASURE(
1.292290531208E2),#1029);
#1034=CARTESIAN_POINT('centre point',(-3.025374755741E-7,4.726753552386E0,
-4.397241311731E-3));
#1039=DERIVED_UNIT_ELEMENT(#1038,2.E0);
#1040=DERIVED_UNIT((#1039));
#1041=MEASURE_REPRESENTATION_ITEM('surface area measure',AREA_MEASURE(
2.179929183504E2),#1040);
#1046=DERIVED_UNIT_ELEMENT(#1045,3.E0);
#1047=DERIVED_UNIT((#1046));
#1048=MEASURE_REPRESENTATION_ITEM('volume measure',VOLUME_MEASURE(
1.292290531208E2),#1047);
#1052=CARTESIAN_POINT('centre point',(-3.025374755741E-7,4.726753552386E0,
-4.397241311731E-3));
#1057=PRODUCT_RELATED_PRODUCT_CATEGORY('part','',(#1012));
#1=DRAUGHTING_PRE_DEFINED_COLOUR('green');
#2=COLOUR_RGB('',1.1E-2,1.2E-2,1.E0);
#3=COLOUR_RGB('',1.6E-1,1.6E-1,1.8E-1);
#4=COLOUR_RGB('',2.4E-1,2.5E-1,2.6E-1);
#5=COLOUR_RGB('',4.1E-1,2.61589E-1,1.12848E-1);
#6=COLOUR_RGB('',5.04854E-1,1.5455E-2,1.5455E-2);
#7=COLOUR_RGB('',6.35294E-1,6.86275E-1,7.4902E-1);
#8=COLOUR_RGB('',6.40777E-1,6.40777E-1,6.40777E-1);
#9=COLOUR_RGB('',6.69062E-1,6.69903E-1,6.55217E-1);
#10=COLOUR_RGB('',8.2E-1,8.1E-1,8.1E-1);
#11=COLOUR_RGB('',9.21569E-1,7.05882E-1,4.70588E-1);
#12=DRAUGHTING_PRE_DEFINED_COLOUR('red');
#13=DRAUGHTING_PRE_DEFINED_COLOUR('yellow');
#14=COLOUR_RGB('',1.E0,1.E0,5.3E-1);
#15=COLOUR_RGB('',1.E0,1.E0,9.49E-1);
#16=COLOUR_RGB('',1.E0,1.E0,9.49E-1);
#17=COLOUR_RGB('',1.E0,1.E0,9.49E-1);
#18=COLOUR_RGB('',1.E0,1.E0,9.49E-1);
#19=COLOUR_RGB('',1.E0,1.E0,9.49E-1);
#20=DRAUGHTING_PRE_DEFINED_COLOUR('white');
#25=CIRCLE('',#24,1.4E0);
#30=CIRCLE('',#29,1.4E0);
#35=CIRCLE('',#34,1.675E0);
#40=CIRCLE('',#39,1.675E0);
#53=CIRCLE('',#52,1.4E0);
#58=CIRCLE('',#57,1.4E0);
#63=CIRCLE('',#62,2.25E-1);
#68=CIRCLE('',#67,2.25E-1);
#73=CIRCLE('',#72,2.25E-1);
#78=CIRCLE('',#77,2.25E-1);
#91=CIRCLE('',#90,2.25E-1);
#96=CIRCLE('',#95,2.25E-1);
#109=CIRCLE('',#108,2.25E-1);
#114=CIRCLE('',#113,2.25E-1);
#119=CIRCLE('',#118,2.E-1);
#124=CIRCLE('',#123,1.875E0);
#133=CIRCLE('',#132,1.875E0);
#142=CIRCLE('',#141,1.5E-1);
#147=CIRCLE('',#146,1.725E0);
#152=CIRCLE('',#151,1.5E-1);
#161=CIRCLE('',#160,1.775E0);
#178=CIRCLE('',#177,1.725E0);
#183=CIRCLE('',#182,1.725E0);
#188=CIRCLE('',#187,1.725E0);
#197=CIRCLE('',#196,1.775E0);
#206=CIRCLE('',#205,1.875E0);
#211=CIRCLE('',#210,1.875E0);
#216=CIRCLE('',#215,1.875E0);
#225=CIRCLE('',#224,1.875E0);
#234=CIRCLE('',#233,1.875E0);
#239=CIRCLE('',#238,1.875E0);
#244=CIRCLE('',#243,1.741666666667E0);
#249=CIRCLE('',#248,1.875E0);
#254=CIRCLE('',#253,4.E-1);
#259=CIRCLE('',#258,1.741666666667E0);
#264=CIRCLE('',#263,1.875E0);
#269=CIRCLE('',#268,4.E-1);
#274=CIRCLE('',#273,1.741666666667E0);
#279=CIRCLE('',#278,2.E-1);
#284=CIRCLE('',#283,1.741666666667E0);
#289=CIRCLE('',#288,1.741666666667E0);
#294=CIRCLE('',#293,2.E-1);
#299=CIRCLE('',#298,1.741666666667E0);
#304=CIRCLE('',#303,4.E-1);
#309=CIRCLE('',#308,4.E-1);
#314=CIRCLE('',#313,2.E-1);
#396=EDGE_CURVE('',#377,#378,#35,.T.);
#398=EDGE_CURVE('',#378,#377,#40,.T.);
#402=EDGE_CURVE('',#353,#354,#25,.T.);
#404=EDGE_CURVE('',#354,#353,#30,.T.);
#408=ADVANCED_FACE('',(#401,#407),#395,.F.);
#422=EDGE_CURVE('',#353,#349,#44,.T.);
#424=EDGE_CURVE('',#349,#350,#53,.T.);
#426=EDGE_CURVE('',#354,#350,#48,.T.);
#430=ADVANCED_FACE('',(#429),#420,.F.);
#445=EDGE_CURVE('',#350,#349,#58,.T.);
#450=ADVANCED_FACE('',(#449),#442,.F.);
#467=EDGE_CURVE('',#361,#362,#63,.T.);
#469=EDGE_CURVE('',#362,#361,#68,.T.);
#473=EDGE_CURVE('',#369,#370,#73,.T.);
#475=EDGE_CURVE('',#370,#369,#78,.T.);
#479=ADVANCED_FACE('',(#466,#472,#478),#462,.T.);
#493=EDGE_CURVE('',#361,#357,#82,.T.);
#495=EDGE_CURVE('',#357,#358,#91,.T.);
#497=EDGE_CURVE('',#362,#358,#86,.T.);
#501=ADVANCED_FACE('',(#500),#491,.T.);
#516=EDGE_CURVE('',#358,#357,#96,.T.);
#521=ADVANCED_FACE('',(#520),#513,.T.);
#538=ADVANCED_FACE('',(#537),#533,.T.);
#552=EDGE_CURVE('',#369,#365,#100,.T.);
#554=EDGE_CURVE('',#365,#366,#109,.T.);
#556=EDGE_CURVE('',#370,#366,#104,.T.);
#560=ADVANCED_FACE('',(#559),#550,.T.);
#575=EDGE_CURVE('',#366,#365,#114,.T.);
#580=ADVANCED_FACE('',(#579),#572,.T.);
#597=ADVANCED_FACE('',(#596),#592,.T.);
#610=EDGE_CURVE('',#373,#374,#133,.T.);
#612=EDGE_CURVE('',#374,#378,#314,.T.);
#615=EDGE_CURVE('',#373,#377,#119,.T.);
#619=ADVANCED_FACE('',(#618),#609,.T.);
#632=EDGE_CURVE('',#317,#318,#124,.T.);
#634=EDGE_CURVE('',#344,#317,#220,.T.);
#636=EDGE_CURVE('',#337,#344,#249,.T.);
#638=EDGE_CURVE('',#337,#318,#128,.T.);
#642=ADVANCED_FACE('',(#641),#631,.T.);
#656=EDGE_CURVE('',#373,#334,#137,.T.);
#658=EDGE_CURVE('',#331,#334,#264,.T.);
#660=EDGE_CURVE('',#374,#331,#229,.T.);
#664=ADVANCED_FACE('',(#663),#654,.T.);
#678=EDGE_CURVE('',#318,#322,#152,.T.);
#680=EDGE_CURVE('',#321,#322,#183,.T.);
#682=EDGE_CURVE('',#317,#321,#142,.T.);
#686=ADVANCED_FACE('',(#685),#676,.T.);
#699=EDGE_CURVE('',#390,#389,#147,.T.);
#701=EDGE_CURVE('',#322,#389,#188,.T.);
#704=EDGE_CURVE('',#318,#317,#206,.T.);
#707=EDGE_CURVE('',#390,#321,#178,.T.);
#711=ADVANCED_FACE('',(#710),#698,.T.);
#725=EDGE_CURVE('',#390,#381,#156,.T.);
#727=EDGE_CURVE('',#381,#382,#161,.T.);
#729=EDGE_CURVE('',#382,#389,#165,.T.);
#733=ADVANCED_FACE('',(#732),#723,.F.);
#739=EDGE_CURVE('',#389,#390,#173,.T.);
#742=EDGE_CURVE('',#382,#386,#169,.T.);
#744=EDGE_CURVE('',#386,#385,#201,.T.);
#746=EDGE_CURVE('',#381,#385,#192,.T.);
#751=ADVANCED_FACE('',(#750),#738,.T.);
#763=ADVANCED_FACE('',(#762),#756,.T.);
#778=EDGE_CURVE('',#385,#386,#197,.T.);
#783=ADVANCED_FACE('',(#782),#775,.T.);
#793=ADVANCED_FACE('',(#792),#788,.T.);
#808=EDGE_CURVE('',#337,#338,#211,.T.);
#810=EDGE_CURVE('',#338,#344,#216,.T.);
#815=ADVANCED_FACE('',(#814),#805,.T.);
#828=EDGE_CURVE('',#374,#373,#225,.T.);
#831=EDGE_CURVE('',#331,#332,#234,.T.);
#833=EDGE_CURVE('',#332,#334,#239,.T.);
#838=ADVANCED_FACE('',(#837),#827,.T.);
#851=EDGE_CURVE('',#346,#341,#244,.T.);
#853=EDGE_CURVE('',#341,#338,#304,.T.);
#857=EDGE_CURVE('',#342,#344,#254,.T.);
#859=EDGE_CURVE('',#342,#346,#284,.T.);
#863=ADVANCED_FACE('',(#862),#850,.T.);
#876=EDGE_CURVE('',#328,#325,#259,.T.);
#878=EDGE_CURVE('',#341,#328,#294,.T.);
#881=EDGE_CURVE('',#325,#346,#279,.T.);
#885=ADVANCED_FACE('',(#884),#875,.F.);
#899=EDGE_CURVE('',#325,#326,#274,.T.);
#901=EDGE_CURVE('',#326,#331,#309,.T.);
#905=EDGE_CURVE('',#328,#332,#269,.T.);
#909=ADVANCED_FACE('',(#908),#897,.T.);
#925=EDGE_CURVE('',#341,#342,#289,.T.);
#928=EDGE_CURVE('',#326,#328,#299,.T.);
#932=ADVANCED_FACE('',(#931),#921,.F.);
#951=ADVANCED_FACE('',(#950),#944,.T.);
#970=ADVANCED_FACE('',(#969),#963,.T.);
#989=ADVANCED_FACE('',(#988),#982,.T.);
#999=(LENGTH_UNIT()NAMED_UNIT(*)SI_UNIT(.MILLI.,.METRE.));
#1000=(NAMED_UNIT(*)PLANE_ANGLE_UNIT()SI_UNIT($,.RADIAN.));
#1003=(NAMED_UNIT(*)SI_UNIT($,.STERADIAN.)SOLID_ANGLE_UNIT());
#1005=(GEOMETRIC_REPRESENTATION_CONTEXT(3)GLOBAL_UNCERTAINTY_ASSIGNED_CONTEXT((
#1004))GLOBAL_UNIT_ASSIGNED_CONTEXT((#999,#1002,#1003))REPRESENTATION_CONTEXT(
'ID1','3'));
#1006=ADVANCED_BREP_SHAPE_REPRESENTATION('',(#998),#1005);
#1014=PRODUCT_DEFINITION('part definition','',#1013,#1010);
#1015=PRODUCT_DEFINITION_SHAPE('','SHAPE FOR 0811500.',#1014);
#1016=SHAPE_ASPECT('','solid data associated with 0811500',#1015,.F.);
#1017=PROPERTY_DEFINITION('',
'shape for solid data with which properties are associated',#1016);
#1018=SHAPE_REPRESENTATION('',(#998),#1005);
#1019=SHAPE_DEFINITION_REPRESENTATION(#1017,#1018);
#1020=(LENGTH_UNIT()NAMED_UNIT(*)SI_UNIT(.MILLI.,.METRE.));
#1024=PROPERTY_DEFINITION('geometric validation property','area of 0811500',
#1016);
#1025=REPRESENTATION('surface area',(#1023),#1005);
#1026=PROPERTY_DEFINITION_REPRESENTATION(#1024,#1025);
#1027=(LENGTH_UNIT()NAMED_UNIT(*)SI_UNIT(.MILLI.,.METRE.));
#1031=PROPERTY_DEFINITION('geometric validation property','volume of 0811500',
#1016);
#1032=REPRESENTATION('volume',(#1030),#1005);
#1033=PROPERTY_DEFINITION_REPRESENTATION(#1031,#1032);
#1035=PROPERTY_DEFINITION('geometric validation property','centroid of 0811500',
#1016);
#1036=REPRESENTATION('centroid',(#1034),#1005);
#1037=PROPERTY_DEFINITION_REPRESENTATION(#1035,#1036);
#1038=(LENGTH_UNIT()NAMED_UNIT(*)SI_UNIT(.MILLI.,.METRE.));
#1042=PROPERTY_DEFINITION('geometric validation property','area of 0811500',
#1015);
#1043=REPRESENTATION('surface area',(#1041),#1005);
#1044=PROPERTY_DEFINITION_REPRESENTATION(#1042,#1043);
#1045=(LENGTH_UNIT()NAMED_UNIT(*)SI_UNIT(.MILLI.,.METRE.));
#1049=PROPERTY_DEFINITION('geometric validation property','volume of 0811500',
#1015);
#1050=REPRESENTATION('volume',(#1048),#1005);
#1051=PROPERTY_DEFINITION_REPRESENTATION(#1049,#1050);
#1053=PROPERTY_DEFINITION('geometric validation property','centroid of 0811500',
#1015);
#1054=REPRESENTATION('centroid',(#1052),#1005);
#1055=PROPERTY_DEFINITION_REPRESENTATION(#1053,#1054);
#1056=SHAPE_DEFINITION_REPRESENTATION(#1015,#1006);
ENDSEC;
END-ISO-10303-21;
