ISO-10303-21;
HEADER;
FILE_DESCRIPTION((''),'2;1');
FILE_NAME('10001400_ASM','2025-09-25T14:18:17',('Administrator'),(''),
'CREO PARAMETRIC BY PTC INC, 2018100','CREO PARAMETRIC BY PTC INC, 2018100','');
FILE_SCHEMA(('AUTOMOTIVE_DESIGN { 1 0 10303 214 1 1 1 1 }'));
ENDSEC;
DATA;
#22=CARTESIAN_POINT('',(0.E0,0.E0,0.E0));
#23=DIRECTION('',(0.E0,1.E0,0.E0));
#24=DIRECTION('',(7.435577585775E-12,0.E0,1.E0));
#25=AXIS2_PLACEMENT_3D('',#22,#23,#24);
#27=CARTESIAN_POINT('',(0.E0,0.E0,0.E0));
#28=DIRECTION('',(0.E0,1.E0,0.E0));
#29=DIRECTION('',(-1.E0,0.E0,3.463607770989E-12));
#30=AXIS2_PLACEMENT_3D('',#27,#28,#29);
#32=CARTESIAN_POINT('',(0.E0,0.E0,0.E0));
#33=DIRECTION('',(0.E0,-1.E0,0.E0));
#34=DIRECTION('',(0.E0,0.E0,1.E0));
#35=AXIS2_PLACEMENT_3D('',#32,#33,#34);
#37=CARTESIAN_POINT('',(0.E0,0.E0,0.E0));
#38=DIRECTION('',(0.E0,-1.E0,0.E0));
#39=DIRECTION('',(0.E0,0.E0,-1.E0));
#40=AXIS2_PLACEMENT_3D('',#37,#38,#39);
#42=CARTESIAN_POINT('',(7.425036280262E-12,2.5E-1,4.749977422528E0));
#43=DIRECTION('',(1.E0,0.E0,-1.563173201991E-12));
#44=DIRECTION('',(1.563109033810E-12,9.060806412597E-3,9.999589500510E-1));
#45=AXIS2_PLACEMENT_3D('',#42,#43,#44);
#47=CARTESIAN_POINT('',(0.E0,2.522652016032E-1,0.E0));
#48=DIRECTION('',(0.E0,1.E0,0.E0));
#49=DIRECTION('',(1.676267365653E-12,0.E0,1.E0));
#50=AXIS2_PLACEMENT_3D('',#47,#48,#49);
#52=CARTESIAN_POINT('',(0.E0,7.940954244926E-1,0.E0));
#53=DIRECTION('',(0.E0,1.E0,0.E0));
#54=DIRECTION('',(-4.084459059523E-12,0.E0,1.E0));
#55=AXIS2_PLACEMENT_3D('',#52,#53,#54);
#57=CARTESIAN_POINT('',(-4.2E0,2.450165564729E-1,-1.184927156395E-12));
#58=DIRECTION('',(2.821267525155E-13,0.E0,-1.E0));
#59=DIRECTION('',(-9.999589500510E-1,9.060806412864E-3,-2.821151712267E-13));
#60=AXIS2_PLACEMENT_3D('',#57,#58,#59);
#62=CARTESIAN_POINT('',(0.E0,2.522652016032E-1,0.E0));
#63=DIRECTION('',(0.E0,1.E0,0.E0));
#64=DIRECTION('',(-1.E0,0.E0,-2.820359706918E-13));
#65=AXIS2_PLACEMENT_3D('',#62,#63,#64);
#67=CARTESIAN_POINT('',(7.040000526981E-12,2.450165564729E-1,4.2E0));
#68=DIRECTION('',(-1.E0,0.E0,1.676193905897E-12));
#69=DIRECTION('',(1.676125098223E-12,9.060806412864E-3,9.999589500510E-1));
#70=AXIS2_PLACEMENT_3D('',#67,#68,#69);
#72=CARTESIAN_POINT('',(-4.749977422528E0,2.5E-1,-1.954748862776E-12));
#73=DIRECTION('',(-4.115275828442E-13,0.E0,1.E0));
#74=DIRECTION('',(-9.999589500510E-1,9.060806412840E-3,-4.115106896580E-13));
#75=AXIS2_PLACEMENT_3D('',#72,#73,#74);
#77=CARTESIAN_POINT('',(0.E0,1.E0,5.E0));
#78=DIRECTION('',(-1.E0,0.E0,0.E0));
#79=DIRECTION('',(0.E0,6.863485850246E-1,-7.272727272727E-1));
#80=AXIS2_PLACEMENT_3D('',#77,#78,#79);
#82=CARTESIAN_POINT('',(0.E0,7.940954244926E-1,0.E0));
#83=DIRECTION('',(0.E0,-1.E0,0.E0));
#84=DIRECTION('',(0.E0,0.E0,1.E0));
#85=AXIS2_PLACEMENT_3D('',#82,#83,#84);
#87=CARTESIAN_POINT('',(0.E0,7.940954244926E-1,0.E0));
#88=DIRECTION('',(0.E0,-1.E0,0.E0));
#89=DIRECTION('',(-1.E0,0.E0,0.E0));
#90=AXIS2_PLACEMENT_3D('',#87,#88,#89);
#92=CARTESIAN_POINT('',(0.E0,1.E0,-5.E0));
#93=DIRECTION('',(-1.E0,0.E0,0.E0));
#94=DIRECTION('',(0.E0,-6.863485850246E-1,7.272727272727E-1));
#95=AXIS2_PLACEMENT_3D('',#92,#93,#94);
#97=CARTESIAN_POINT('',(0.E0,1.205904575507E0,0.E0));
#98=DIRECTION('',(0.E0,1.E0,0.E0));
#99=DIRECTION('',(0.E0,0.E0,-1.E0));
#100=AXIS2_PLACEMENT_3D('',#97,#98,#99);
#102=CARTESIAN_POINT('',(0.E0,1.205904575507E0,0.E0));
#103=DIRECTION('',(0.E0,1.E0,0.E0));
#104=DIRECTION('',(-1.E0,0.E0,0.E0));
#105=AXIS2_PLACEMENT_3D('',#102,#103,#104);
#107=CARTESIAN_POINT('',(0.E0,1.754983443527E0,0.E0));
#108=DIRECTION('',(0.E0,1.E0,0.E0));
#109=DIRECTION('',(1.E0,0.E0,0.E0));
#110=AXIS2_PLACEMENT_3D('',#107,#108,#109);
#112=CARTESIAN_POINT('',(0.E0,1.205904575507E0,0.E0));
#113=DIRECTION('',(0.E0,-1.E0,0.E0));
#114=DIRECTION('',(-1.221299743318E-12,0.E0,-1.E0));
#115=AXIS2_PLACEMENT_3D('',#112,#113,#114);
#117=CARTESIAN_POINT('',(-1.715513495149E-11,1.754983443527E0,4.2E0));
#118=DIRECTION('',(1.E0,0.E0,4.084555610406E-12));
#119=DIRECTION('',(-4.084555610406E-12,-1.776356839400E-14,1.E0));
#120=AXIS2_PLACEMENT_3D('',#117,#118,#119);
#122=CARTESIAN_POINT('',(0.E0,1.385E1,0.E0));
#123=DIRECTION('',(0.E0,-1.E0,0.E0));
#124=DIRECTION('',(-1.E0,0.E0,0.E0));
#125=AXIS2_PLACEMENT_3D('',#122,#123,#124);
#127=DIRECTION('',(0.E0,1.E0,-4.848861439327E-14));
#128=VECTOR('',#127,1.209501655647E1);
#129=CARTESIAN_POINT('',(5.E0,1.754983443527E0,5.970762707067E-13));
#130=LINE('',#129,#128);
#131=CARTESIAN_POINT('',(-4.85E0,1.385E1,1.986397157872E-13));
#132=DIRECTION('',(-4.095682126781E-14,0.E0,-1.E0));
#133=DIRECTION('',(-1.E0,0.E0,4.095682126781E-14));
#134=AXIS2_PLACEMENT_3D('',#131,#132,#133);
#136=CARTESIAN_POINT('',(4.85E0,1.385E1,-1.975572483381E-13));
#137=DIRECTION('',(4.073390930115E-14,0.E0,1.E0));
#138=DIRECTION('',(1.E0,0.E0,-4.073390930115E-14));
#139=AXIS2_PLACEMENT_3D('',#136,#137,#138);
#141=CARTESIAN_POINT('',(0.E0,1.385E1,0.E0));
#142=DIRECTION('',(0.E0,-1.E0,0.E0));
#143=DIRECTION('',(1.E0,0.E0,0.E0));
#144=AXIS2_PLACEMENT_3D('',#141,#142,#143);
#146=CARTESIAN_POINT('',(0.E0,1.754983443527E0,0.E0));
#147=DIRECTION('',(0.E0,1.E0,0.E0));
#148=DIRECTION('',(0.E0,0.E0,1.E0));
#149=AXIS2_PLACEMENT_3D('',#146,#147,#148);
#151=CARTESIAN_POINT('',(0.E0,1.754983443527E0,0.E0));
#152=DIRECTION('',(0.E0,1.E0,0.E0));
#153=DIRECTION('',(-1.E0,0.E0,0.E0));
#154=AXIS2_PLACEMENT_3D('',#151,#152,#153);
#156=DIRECTION('',(0.E0,1.E0,5.778277822233E-14));
#157=VECTOR('',#156,1.209501655647E1);
#158=CARTESIAN_POINT('',(-5.E0,1.754983443527E0,-7.081010954739E-13));
#159=LINE('',#158,#157);
#160=CARTESIAN_POINT('',(-4.2E0,1.754983443527E0,-1.692651921403E-11));
#161=DIRECTION('',(-4.030124324539E-12,0.E0,1.E0));
#162=DIRECTION('',(-1.E0,-1.498801083244E-14,-4.030124324539E-12));
#163=AXIS2_PLACEMENT_3D('',#160,#161,#162);
#165=CARTESIAN_POINT('',(0.E0,1.4E1,0.E0));
#166=DIRECTION('',(0.E0,-1.E0,0.E0));
#167=DIRECTION('',(-1.E0,0.E0,0.E0));
#168=AXIS2_PLACEMENT_3D('',#165,#166,#167);
#170=CARTESIAN_POINT('',(0.E0,1.4E1,0.E0));
#171=DIRECTION('',(0.E0,-1.E0,0.E0));
#172=DIRECTION('',(1.E0,0.E0,0.E0));
#173=AXIS2_PLACEMENT_3D('',#170,#171,#172);
#175=CARTESIAN_POINT('',(0.E0,1.4E1,0.E0));
#176=DIRECTION('',(0.E0,1.E0,0.E0));
#177=DIRECTION('',(0.E0,0.E0,-1.E0));
#178=AXIS2_PLACEMENT_3D('',#175,#176,#177);
#180=CARTESIAN_POINT('',(0.E0,1.4E1,0.E0));
#181=DIRECTION('',(0.E0,1.E0,0.E0));
#182=DIRECTION('',(0.E0,0.E0,1.E0));
#183=AXIS2_PLACEMENT_3D('',#180,#181,#182);
#185=DIRECTION('',(0.E0,-1.E0,0.E0));
#186=VECTOR('',#185,2.E-2);
#187=CARTESIAN_POINT('',(0.E0,1.4E1,-3.75E0));
#188=LINE('',#187,#186);
#189=DIRECTION('',(0.E0,-1.E0,0.E0));
#190=VECTOR('',#189,2.E-2);
#191=CARTESIAN_POINT('',(0.E0,1.4E1,3.75E0));
#192=LINE('',#191,#190);
#193=CARTESIAN_POINT('',(0.E0,1.398E1,0.E0));
#194=DIRECTION('',(0.E0,1.E0,0.E0));
#195=DIRECTION('',(0.E0,0.E0,-1.E0));
#196=AXIS2_PLACEMENT_3D('',#193,#194,#195);
#198=CARTESIAN_POINT('',(0.E0,1.398E1,0.E0));
#199=DIRECTION('',(0.E0,1.E0,0.E0));
#200=DIRECTION('',(0.E0,0.E0,1.E0));
#201=AXIS2_PLACEMENT_3D('',#198,#199,#200);
#203=DIRECTION('',(0.E0,1.E0,0.E0));
#204=VECTOR('',#203,1.E-1);
#205=CARTESIAN_POINT('',(0.E0,0.E0,3.7E0));
#206=LINE('',#205,#204);
#207=DIRECTION('',(0.E0,1.E0,0.E0));
#208=VECTOR('',#207,1.E-1);
#209=CARTESIAN_POINT('',(0.E0,0.E0,-3.7E0));
#210=LINE('',#209,#208);
#211=CARTESIAN_POINT('',(0.E0,1.E-1,0.E0));
#212=DIRECTION('',(0.E0,-1.E0,0.E0));
#213=DIRECTION('',(0.E0,0.E0,1.E0));
#214=AXIS2_PLACEMENT_3D('',#211,#212,#213);
#216=CARTESIAN_POINT('',(0.E0,1.E-1,0.E0));
#217=DIRECTION('',(0.E0,-1.E0,0.E0));
#218=DIRECTION('',(0.E0,0.E0,-1.E0));
#219=AXIS2_PLACEMENT_3D('',#216,#217,#218);
#221=CARTESIAN_POINT('',(0.E0,1.E-1,2.5E0));
#222=DIRECTION('',(0.E0,-1.E0,0.E0));
#223=DIRECTION('',(0.E0,0.E0,-1.E0));
#224=AXIS2_PLACEMENT_3D('',#221,#222,#223);
#226=CARTESIAN_POINT('',(0.E0,1.E-1,2.5E0));
#227=DIRECTION('',(0.E0,-1.E0,0.E0));
#228=DIRECTION('',(0.E0,0.E0,1.E0));
#229=AXIS2_PLACEMENT_3D('',#226,#227,#228);
#231=CARTESIAN_POINT('',(0.E0,1.E-1,-2.5E0));
#232=DIRECTION('',(0.E0,-1.E0,0.E0));
#233=DIRECTION('',(-1.E0,0.E0,0.E0));
#234=AXIS2_PLACEMENT_3D('',#231,#232,#233);
#236=CARTESIAN_POINT('',(0.E0,1.E-1,-2.5E0));
#237=DIRECTION('',(0.E0,-1.E0,0.E0));
#238=DIRECTION('',(1.E0,0.E0,0.E0));
#239=AXIS2_PLACEMENT_3D('',#236,#237,#238);
#241=DIRECTION('',(0.E0,-1.E0,0.E0));
#242=VECTOR('',#241,2.E1);
#243=CARTESIAN_POINT('',(0.E0,1.E-1,2.2E0));
#244=LINE('',#243,#242);
#245=DIRECTION('',(0.E0,-1.E0,0.E0));
#246=VECTOR('',#245,2.E1);
#247=CARTESIAN_POINT('',(0.E0,1.E-1,2.8E0));
#248=LINE('',#247,#246);
#249=CARTESIAN_POINT('',(0.E0,-1.99E1,2.5E0));
#250=DIRECTION('',(0.E0,-1.E0,0.E0));
#251=DIRECTION('',(0.E0,0.E0,-1.E0));
#252=AXIS2_PLACEMENT_3D('',#249,#250,#251);
#254=CARTESIAN_POINT('',(0.E0,-1.99E1,2.5E0));
#255=DIRECTION('',(0.E0,-1.E0,0.E0));
#256=DIRECTION('',(0.E0,0.E0,1.E0));
#257=AXIS2_PLACEMENT_3D('',#254,#255,#256);
#259=DIRECTION('',(0.E0,-1.E0,0.E0));
#260=VECTOR('',#259,2.5E1);
#261=CARTESIAN_POINT('',(-3.E-1,1.E-1,-2.5E0));
#262=LINE('',#261,#260);
#263=DIRECTION('',(0.E0,-1.E0,0.E0));
#264=VECTOR('',#263,2.5E1);
#265=CARTESIAN_POINT('',(3.E-1,1.E-1,-2.5E0));
#266=LINE('',#265,#264);
#267=CARTESIAN_POINT('',(0.E0,-2.49E1,-2.5E0));
#268=DIRECTION('',(0.E0,-1.E0,0.E0));
#269=DIRECTION('',(-1.E0,0.E0,0.E0));
#270=AXIS2_PLACEMENT_3D('',#267,#268,#269);
#272=CARTESIAN_POINT('',(0.E0,-2.49E1,-2.5E0));
#273=DIRECTION('',(0.E0,-1.E0,0.E0));
#274=DIRECTION('',(1.E0,0.E0,0.E0));
#275=AXIS2_PLACEMENT_3D('',#272,#273,#274);
#277=CARTESIAN_POINT('',(-5.E0,1.385E1,0.E0));
#278=CARTESIAN_POINT('',(5.E0,1.385E1,0.E0));
#279=VERTEX_POINT('',#277);
#280=VERTEX_POINT('',#278);
#281=CARTESIAN_POINT('',(-4.85E0,1.4E1,0.E0));
#282=CARTESIAN_POINT('',(4.85E0,1.4E1,0.E0));
#283=VERTEX_POINT('',#281);
#284=VERTEX_POINT('',#282);
#285=CARTESIAN_POINT('',(5.E0,1.754983443527E0,5.970762707067E-13));
#286=VERTEX_POINT('',#285);
#287=CARTESIAN_POINT('',(-5.E0,1.754983443527E0,-7.081010954739E-13));
#288=VERTEX_POINT('',#287);
#289=CARTESIAN_POINT('',(0.E0,1.205904575507E0,4.781818181818E0));
#290=CARTESIAN_POINT('',(0.E0,7.940954244926E-1,4.781818181818E0));
#291=VERTEX_POINT('',#289);
#292=VERTEX_POINT('',#290);
#293=CARTESIAN_POINT('',(0.E0,7.940954244926E-1,-4.781818181818E0));
#294=CARTESIAN_POINT('',(0.E0,1.205904575507E0,-4.781818181818E0));
#295=VERTEX_POINT('',#293);
#296=VERTEX_POINT('',#294);
#297=CARTESIAN_POINT('',(0.E0,1.E-1,3.7E0));
#298=CARTESIAN_POINT('',(0.E0,1.E-1,-3.7E0));
#299=VERTEX_POINT('',#297);
#300=VERTEX_POINT('',#298);
#301=CARTESIAN_POINT('',(0.E0,0.E0,3.7E0));
#302=CARTESIAN_POINT('',(0.E0,0.E0,-3.7E0));
#303=VERTEX_POINT('',#301);
#304=VERTEX_POINT('',#302);
#305=CARTESIAN_POINT('',(0.E0,-1.99E1,2.2E0));
#306=CARTESIAN_POINT('',(0.E0,-1.99E1,2.8E0));
#307=VERTEX_POINT('',#305);
#308=VERTEX_POINT('',#306);
#309=CARTESIAN_POINT('',(0.E0,1.E-1,2.2E0));
#310=CARTESIAN_POINT('',(0.E0,1.E-1,2.8E0));
#311=VERTEX_POINT('',#309);
#312=VERTEX_POINT('',#310);
#313=CARTESIAN_POINT('',(-3.E-1,-2.49E1,-2.5E0));
#314=CARTESIAN_POINT('',(3.E-1,-2.49E1,-2.5E0));
#315=VERTEX_POINT('',#313);
#316=VERTEX_POINT('',#314);
#317=CARTESIAN_POINT('',(-3.E-1,1.E-1,-2.5E0));
#318=CARTESIAN_POINT('',(3.E-1,1.E-1,-2.5E0));
#319=VERTEX_POINT('',#317);
#320=VERTEX_POINT('',#318);
#321=CARTESIAN_POINT('',(-4.781818181818E0,1.205904575507E0,0.E0));
#322=VERTEX_POINT('',#321);
#323=CARTESIAN_POINT('',(0.E0,1.754983443527E0,5.E0));
#324=VERTEX_POINT('',#323);
#325=CARTESIAN_POINT('',(-4.781818181818E0,7.940954244926E-1,0.E0));
#326=VERTEX_POINT('',#325);
#327=CARTESIAN_POINT('',(8.381281779712E-12,2.522652016032E-1,
4.999967160041E0));
#328=CARTESIAN_POINT('',(-4.999967160041E0,2.522652016032E-1,
-1.411739461675E-12));
#329=VERTEX_POINT('',#327);
#330=VERTEX_POINT('',#328);
#331=CARTESIAN_POINT('',(3.531882565589E-11,0.E0,4.749977422528E0));
#332=CARTESIAN_POINT('',(-4.749977422528E0,0.E0,1.645135678415E-11));
#333=VERTEX_POINT('',#331);
#334=VERTEX_POINT('',#332);
#335=CARTESIAN_POINT('',(0.E0,1.398E1,-3.75E0));
#336=CARTESIAN_POINT('',(0.E0,1.398E1,3.75E0));
#337=VERTEX_POINT('',#335);
#338=VERTEX_POINT('',#336);
#339=CARTESIAN_POINT('',(0.E0,1.4E1,-3.75E0));
#340=CARTESIAN_POINT('',(0.E0,1.4E1,3.75E0));
#341=VERTEX_POINT('',#339);
#342=VERTEX_POINT('',#340);
#343=CARTESIAN_POINT('',(0.E0,0.E0,0.E0));
#344=DIRECTION('',(0.E0,1.E0,0.E0));
#345=DIRECTION('',(1.E0,0.E0,0.E0));
#346=AXIS2_PLACEMENT_3D('',#343,#344,#345);
#347=PLANE('',#346);
#349=ORIENTED_EDGE('',*,*,#348,.T.);
#351=ORIENTED_EDGE('',*,*,#350,.T.);
#352=EDGE_LOOP('',(#349,#351));
#353=FACE_OUTER_BOUND('',#352,.F.);
#355=ORIENTED_EDGE('',*,*,#354,.T.);
#357=ORIENTED_EDGE('',*,*,#356,.T.);
#358=EDGE_LOOP('',(#355,#357));
#359=FACE_BOUND('',#358,.F.);
#361=FILL_AREA_STYLE_COLOUR('',#11);
#362=FILL_AREA_STYLE('',(#361));
#363=SURFACE_STYLE_FILL_AREA(#362);
#364=SURFACE_SIDE_STYLE('',(#363));
#365=SURFACE_STYLE_USAGE(.POSITIVE.,#364);
#366=PRESENTATION_STYLE_ASSIGNMENT((#365));
#367=STYLED_ITEM('',(#366),#360);
#368=CARTESIAN_POINT('',(0.E0,2.5E-1,0.E0));
#369=DIRECTION('',(0.E0,1.E0,0.E0));
#370=DIRECTION('',(-6.488112978997E-3,0.E0,9.999789519735E-1));
#371=AXIS2_PLACEMENT_3D('',#368,#369,#370);
#372=TOROIDAL_SURFACE('',#371,4.749977422528E0,2.5E-1);
#374=ORIENTED_EDGE('',*,*,#373,.T.);
#376=ORIENTED_EDGE('',*,*,#375,.T.);
#377=ORIENTED_EDGE('',*,*,#348,.F.);
#379=ORIENTED_EDGE('',*,*,#378,.F.);
#380=EDGE_LOOP('',(#374,#376,#377,#379));
#381=FACE_OUTER_BOUND('',#380,.F.);
#383=FILL_AREA_STYLE_COLOUR('',#11);
#384=FILL_AREA_STYLE('',(#383));
#385=SURFACE_STYLE_FILL_AREA(#384);
#386=SURFACE_SIDE_STYLE('',(#385));
#387=SURFACE_STYLE_USAGE(.POSITIVE.,#386);
#388=PRESENTATION_STYLE_ASSIGNMENT((#387));
#389=STYLED_ITEM('',(#388),#382);
#390=CARTESIAN_POINT('',(0.E0,2.450165564729E-1,0.E0));
#391=DIRECTION('',(0.E0,1.E0,0.E0));
#392=DIRECTION('',(-9.248054644547E-3,0.E0,-9.999572358283E-1));
#393=AXIS2_PLACEMENT_3D('',#390,#391,#392);
#394=TOROIDAL_SURFACE('',#393,4.2E0,8.E-1);
#395=ORIENTED_EDGE('',*,*,#373,.F.);
#397=ORIENTED_EDGE('',*,*,#396,.T.);
#399=ORIENTED_EDGE('',*,*,#398,.T.);
#401=ORIENTED_EDGE('',*,*,#400,.F.);
#403=ORIENTED_EDGE('',*,*,#402,.F.);
#404=EDGE_LOOP('',(#395,#397,#399,#401,#403));
#405=FACE_OUTER_BOUND('',#404,.F.);
#407=FILL_AREA_STYLE_COLOUR('',#11);
#408=FILL_AREA_STYLE('',(#407));
#409=SURFACE_STYLE_FILL_AREA(#408);
#410=SURFACE_SIDE_STYLE('',(#409));
#411=SURFACE_STYLE_USAGE(.POSITIVE.,#410);
#412=PRESENTATION_STYLE_ASSIGNMENT((#411));
#413=STYLED_ITEM('',(#412),#406);
#414=CARTESIAN_POINT('',(0.E0,2.450165564729E-1,0.E0));
#415=DIRECTION('',(0.E0,1.E0,0.E0));
#416=DIRECTION('',(9.248054644547E-3,0.E0,9.999572358283E-1));
#417=AXIS2_PLACEMENT_3D('',#414,#415,#416);
#418=TOROIDAL_SURFACE('',#417,4.2E0,8.E-1);
#420=ORIENTED_EDGE('',*,*,#419,.F.);
#421=ORIENTED_EDGE('',*,*,#402,.T.);
#423=ORIENTED_EDGE('',*,*,#422,.F.);
#424=ORIENTED_EDGE('',*,*,#396,.F.);
#425=EDGE_LOOP('',(#420,#421,#423,#424));
#426=FACE_OUTER_BOUND('',#425,.F.);
#428=FILL_AREA_STYLE_COLOUR('',#11);
#429=FILL_AREA_STYLE('',(#428));
#430=SURFACE_STYLE_FILL_AREA(#429);
#431=SURFACE_SIDE_STYLE('',(#430));
#432=SURFACE_STYLE_USAGE(.POSITIVE.,#431);
#433=PRESENTATION_STYLE_ASSIGNMENT((#432));
#434=STYLED_ITEM('',(#433),#427);
#435=CARTESIAN_POINT('',(0.E0,2.5E-1,0.E0));
#436=DIRECTION('',(0.E0,1.E0,0.E0));
#437=DIRECTION('',(-9.999789519735E-1,0.E0,-6.488112978942E-3));
#438=AXIS2_PLACEMENT_3D('',#435,#436,#437);
#439=TOROIDAL_SURFACE('',#438,4.749977422528E0,2.5E-1);
#440=ORIENTED_EDGE('',*,*,#419,.T.);
#441=ORIENTED_EDGE('',*,*,#378,.T.);
#442=ORIENTED_EDGE('',*,*,#350,.F.);
#443=ORIENTED_EDGE('',*,*,#375,.F.);
#444=EDGE_LOOP('',(#440,#441,#442,#443));
#445=FACE_OUTER_BOUND('',#444,.F.);
#447=FILL_AREA_STYLE_COLOUR('',#11);
#448=FILL_AREA_STYLE('',(#447));
#449=SURFACE_STYLE_FILL_AREA(#448);
#450=SURFACE_SIDE_STYLE('',(#449));
#451=SURFACE_STYLE_USAGE(.POSITIVE.,#450);
#452=PRESENTATION_STYLE_ASSIGNMENT((#451));
#453=STYLED_ITEM('',(#452),#446);
#454=CARTESIAN_POINT('',(0.E0,1.E0,0.E0));
#455=DIRECTION('',(0.E0,1.E0,0.E0));
#456=DIRECTION('',(0.E0,0.E0,-1.E0));
#457=AXIS2_PLACEMENT_3D('',#454,#455,#456);
#458=TOROIDAL_SURFACE('',#457,5.E0,3.E-1);
#460=ORIENTED_EDGE('',*,*,#459,.T.);
#461=ORIENTED_EDGE('',*,*,#422,.T.);
#462=ORIENTED_EDGE('',*,*,#400,.T.);
#464=ORIENTED_EDGE('',*,*,#463,.T.);
#466=ORIENTED_EDGE('',*,*,#465,.T.);
#468=ORIENTED_EDGE('',*,*,#467,.T.);
#469=EDGE_LOOP('',(#460,#461,#462,#464,#466,#468));
#470=FACE_OUTER_BOUND('',#469,.F.);
#472=FILL_AREA_STYLE_COLOUR('',#11);
#473=FILL_AREA_STYLE('',(#472));
#474=SURFACE_STYLE_FILL_AREA(#473);
#475=SURFACE_SIDE_STYLE('',(#474));
#476=SURFACE_STYLE_USAGE(.POSITIVE.,#475);
#477=PRESENTATION_STYLE_ASSIGNMENT((#476));
#478=STYLED_ITEM('',(#477),#471);
#479=CARTESIAN_POINT('',(0.E0,1.E0,0.E0));
#480=DIRECTION('',(0.E0,1.E0,0.E0));
#481=DIRECTION('',(0.E0,0.E0,-1.E0));
#482=AXIS2_PLACEMENT_3D('',#479,#480,#481);
#483=TOROIDAL_SURFACE('',#482,5.E0,3.E-1);
#484=ORIENTED_EDGE('',*,*,#459,.F.);
#486=ORIENTED_EDGE('',*,*,#485,.F.);
#487=ORIENTED_EDGE('',*,*,#463,.F.);
#488=ORIENTED_EDGE('',*,*,#398,.F.);
#489=EDGE_LOOP('',(#484,#486,#487,#488));
#490=FACE_OUTER_BOUND('',#489,.F.);
#492=FILL_AREA_STYLE_COLOUR('',#11);
#493=FILL_AREA_STYLE('',(#492));
#494=SURFACE_STYLE_FILL_AREA(#493);
#495=SURFACE_SIDE_STYLE('',(#494));
#496=SURFACE_STYLE_USAGE(.POSITIVE.,#495);
#497=PRESENTATION_STYLE_ASSIGNMENT((#496));
#498=STYLED_ITEM('',(#497),#491);
#499=CARTESIAN_POINT('',(0.E0,1.754983443527E0,0.E0));
#500=DIRECTION('',(0.E0,1.E0,0.E0));
#501=DIRECTION('',(9.999794253334E-1,0.E0,6.414741606730E-3));
#502=AXIS2_PLACEMENT_3D('',#499,#500,#501);
#503=TOROIDAL_SURFACE('',#502,4.2E0,8.E-1);
#505=ORIENTED_EDGE('',*,*,#504,.T.);
#507=ORIENTED_EDGE('',*,*,#506,.T.);
#508=ORIENTED_EDGE('',*,*,#465,.F.);
#509=ORIENTED_EDGE('',*,*,#485,.T.);
#511=ORIENTED_EDGE('',*,*,#510,.F.);
#513=ORIENTED_EDGE('',*,*,#512,.T.);
#514=EDGE_LOOP('',(#505,#507,#508,#509,#511,#513));
#515=FACE_OUTER_BOUND('',#514,.F.);
#517=FILL_AREA_STYLE_COLOUR('',#11);
#518=FILL_AREA_STYLE('',(#517));
#519=SURFACE_STYLE_FILL_AREA(#518);
#520=SURFACE_SIDE_STYLE('',(#519));
#521=SURFACE_STYLE_USAGE(.POSITIVE.,#520);
#522=PRESENTATION_STYLE_ASSIGNMENT((#521));
#523=STYLED_ITEM('',(#522),#516);
#524=CARTESIAN_POINT('',(0.E0,0.E0,0.E0));
#525=DIRECTION('',(0.E0,1.E0,0.E0));
#526=DIRECTION('',(1.E0,0.E0,0.E0));
#527=AXIS2_PLACEMENT_3D('',#524,#525,#526);
#528=CYLINDRICAL_SURFACE('',#527,5.E0);
#530=ORIENTED_EDGE('',*,*,#529,.F.);
#532=ORIENTED_EDGE('',*,*,#531,.F.);
#533=ORIENTED_EDGE('',*,*,#504,.F.);
#535=ORIENTED_EDGE('',*,*,#534,.T.);
#536=EDGE_LOOP('',(#530,#532,#533,#535));
#537=FACE_OUTER_BOUND('',#536,.F.);
#539=FILL_AREA_STYLE_COLOUR('',#11);
#540=FILL_AREA_STYLE('',(#539));
#541=SURFACE_STYLE_FILL_AREA(#540);
#542=SURFACE_SIDE_STYLE('',(#541));
#543=SURFACE_STYLE_USAGE(.POSITIVE.,#542);
#544=PRESENTATION_STYLE_ASSIGNMENT((#543));
#545=STYLED_ITEM('',(#544),#538);
#546=CARTESIAN_POINT('',(0.E0,1.385E1,0.E0));
#547=DIRECTION('',(0.E0,1.E0,0.E0));
#548=DIRECTION('',(-9.999826881456E-1,0.E0,5.884165969121E-3));
#549=AXIS2_PLACEMENT_3D('',#546,#547,#548);
#550=TOROIDAL_SURFACE('',#549,4.85E0,1.5E-1);
#551=ORIENTED_EDGE('',*,*,#529,.T.);
#553=ORIENTED_EDGE('',*,*,#552,.T.);
#555=ORIENTED_EDGE('',*,*,#554,.F.);
#557=ORIENTED_EDGE('',*,*,#556,.F.);
#558=EDGE_LOOP('',(#551,#553,#555,#557));
#559=FACE_OUTER_BOUND('',#558,.F.);
#561=FILL_AREA_STYLE_COLOUR('',#11);
#562=FILL_AREA_STYLE('',(#561));
#563=SURFACE_STYLE_FILL_AREA(#562);
#564=SURFACE_SIDE_STYLE('',(#563));
#565=SURFACE_STYLE_USAGE(.POSITIVE.,#564);
#566=PRESENTATION_STYLE_ASSIGNMENT((#565));
#567=STYLED_ITEM('',(#566),#560);
#568=CARTESIAN_POINT('',(0.E0,1.385E1,0.E0));
#569=DIRECTION('',(0.E0,1.E0,0.E0));
#570=DIRECTION('',(9.999826881456E-1,0.E0,-5.884165969121E-3));
#571=AXIS2_PLACEMENT_3D('',#568,#569,#570);
#572=TOROIDAL_SURFACE('',#571,4.85E0,1.5E-1);
#574=ORIENTED_EDGE('',*,*,#573,.T.);
#575=ORIENTED_EDGE('',*,*,#556,.T.);
#577=ORIENTED_EDGE('',*,*,#576,.F.);
#578=ORIENTED_EDGE('',*,*,#552,.F.);
#579=EDGE_LOOP('',(#574,#575,#577,#578));
#580=FACE_OUTER_BOUND('',#579,.F.);
#582=FILL_AREA_STYLE_COLOUR('',#11);
#583=FILL_AREA_STYLE('',(#582));
#584=SURFACE_STYLE_FILL_AREA(#583);
#585=SURFACE_SIDE_STYLE('',(#584));
#586=SURFACE_STYLE_USAGE(.POSITIVE.,#585);
#587=PRESENTATION_STYLE_ASSIGNMENT((#586));
#588=STYLED_ITEM('',(#587),#581);
#589=CARTESIAN_POINT('',(0.E0,0.E0,0.E0));
#590=DIRECTION('',(0.E0,1.E0,0.E0));
#591=DIRECTION('',(1.E0,0.E0,0.E0));
#592=AXIS2_PLACEMENT_3D('',#589,#590,#591);
#593=CYLINDRICAL_SURFACE('',#592,5.E0);
#594=ORIENTED_EDGE('',*,*,#573,.F.);
#595=ORIENTED_EDGE('',*,*,#534,.F.);
#596=ORIENTED_EDGE('',*,*,#512,.F.);
#598=ORIENTED_EDGE('',*,*,#597,.F.);
#599=ORIENTED_EDGE('',*,*,#531,.T.);
#600=EDGE_LOOP('',(#594,#595,#596,#598,#599));
#601=FACE_OUTER_BOUND('',#600,.F.);
#603=FILL_AREA_STYLE_COLOUR('',#11);
#604=FILL_AREA_STYLE('',(#603));
#605=SURFACE_STYLE_FILL_AREA(#604);
#606=SURFACE_SIDE_STYLE('',(#605));
#607=SURFACE_STYLE_USAGE(.POSITIVE.,#606);
#608=PRESENTATION_STYLE_ASSIGNMENT((#607));
#609=STYLED_ITEM('',(#608),#602);
#610=CARTESIAN_POINT('',(0.E0,1.754983443527E0,0.E0));
#611=DIRECTION('',(0.E0,1.E0,0.E0));
#612=DIRECTION('',(-9.999794253334E-1,0.E0,-6.414741606730E-3));
#613=AXIS2_PLACEMENT_3D('',#610,#611,#612);
#614=TOROIDAL_SURFACE('',#613,4.2E0,8.E-1);
#615=ORIENTED_EDGE('',*,*,#597,.T.);
#616=ORIENTED_EDGE('',*,*,#510,.T.);
#617=ORIENTED_EDGE('',*,*,#467,.F.);
#618=ORIENTED_EDGE('',*,*,#506,.F.);
#619=EDGE_LOOP('',(#615,#616,#617,#618));
#620=FACE_OUTER_BOUND('',#619,.F.);
#622=FILL_AREA_STYLE_COLOUR('',#11);
#623=FILL_AREA_STYLE('',(#622));
#624=SURFACE_STYLE_FILL_AREA(#623);
#625=SURFACE_SIDE_STYLE('',(#624));
#626=SURFACE_STYLE_USAGE(.POSITIVE.,#625);
#627=PRESENTATION_STYLE_ASSIGNMENT((#626));
#628=STYLED_ITEM('',(#627),#621);
#629=CARTESIAN_POINT('',(0.E0,1.4E1,0.E0));
#630=DIRECTION('',(0.E0,1.E0,0.E0));
#631=DIRECTION('',(1.E0,0.E0,0.E0));
#632=AXIS2_PLACEMENT_3D('',#629,#630,#631);
#633=PLANE('',#632);
#634=ORIENTED_EDGE('',*,*,#554,.T.);
#635=ORIENTED_EDGE('',*,*,#576,.T.);
#636=EDGE_LOOP('',(#634,#635));
#637=FACE_OUTER_BOUND('',#636,.F.);
#639=ORIENTED_EDGE('',*,*,#638,.T.);
#641=ORIENTED_EDGE('',*,*,#640,.T.);
#642=EDGE_LOOP('',(#639,#641));
#643=FACE_BOUND('',#642,.F.);
#645=FILL_AREA_STYLE_COLOUR('',#11);
#646=FILL_AREA_STYLE('',(#645));
#647=SURFACE_STYLE_FILL_AREA(#646);
#648=SURFACE_SIDE_STYLE('',(#647));
#649=SURFACE_STYLE_USAGE(.POSITIVE.,#648);
#650=PRESENTATION_STYLE_ASSIGNMENT((#649));
#651=STYLED_ITEM('',(#650),#644);
#652=CARTESIAN_POINT('',(0.E0,1.4E1,0.E0));
#653=DIRECTION('',(0.E0,1.E0,0.E0));
#654=DIRECTION('',(0.E0,0.E0,-1.E0));
#655=AXIS2_PLACEMENT_3D('',#652,#653,#654);
#656=CYLINDRICAL_SURFACE('',#655,3.75E0);
#657=ORIENTED_EDGE('',*,*,#638,.F.);
#659=ORIENTED_EDGE('',*,*,#658,.T.);
#661=ORIENTED_EDGE('',*,*,#660,.T.);
#663=ORIENTED_EDGE('',*,*,#662,.F.);
#664=EDGE_LOOP('',(#657,#659,#661,#663));
#665=FACE_OUTER_BOUND('',#664,.F.);
#667=CARTESIAN_POINT('',(0.E0,1.4E1,0.E0));
#668=DIRECTION('',(0.E0,1.E0,0.E0));
#669=DIRECTION('',(0.E0,0.E0,-1.E0));
#670=AXIS2_PLACEMENT_3D('',#667,#668,#669);
#671=CYLINDRICAL_SURFACE('',#670,3.75E0);
#672=ORIENTED_EDGE('',*,*,#640,.F.);
#673=ORIENTED_EDGE('',*,*,#662,.T.);
#675=ORIENTED_EDGE('',*,*,#674,.T.);
#676=ORIENTED_EDGE('',*,*,#658,.F.);
#677=EDGE_LOOP('',(#672,#673,#675,#676));
#678=FACE_OUTER_BOUND('',#677,.F.);
#680=CARTESIAN_POINT('',(0.E0,1.398E1,0.E0));
#681=DIRECTION('',(0.E0,1.E0,0.E0));
#682=DIRECTION('',(0.E0,0.E0,-1.E0));
#683=AXIS2_PLACEMENT_3D('',#680,#681,#682);
#684=PLANE('',#683);
#685=ORIENTED_EDGE('',*,*,#660,.F.);
#686=ORIENTED_EDGE('',*,*,#674,.F.);
#687=EDGE_LOOP('',(#685,#686));
#688=FACE_OUTER_BOUND('',#687,.F.);
#690=FILL_AREA_STYLE_COLOUR('',#20);
#691=FILL_AREA_STYLE('',(#690));
#692=SURFACE_STYLE_FILL_AREA(#691);
#693=SURFACE_SIDE_STYLE('',(#692));
#694=SURFACE_STYLE_USAGE(.POSITIVE.,#693);
#695=PRESENTATION_STYLE_ASSIGNMENT((#694));
#696=STYLED_ITEM('',(#695),#689);
#697=CARTESIAN_POINT('',(0.E0,0.E0,0.E0));
#698=DIRECTION('',(0.E0,-1.E0,0.E0));
#699=DIRECTION('',(0.E0,0.E0,1.E0));
#700=AXIS2_PLACEMENT_3D('',#697,#698,#699);
#701=CYLINDRICAL_SURFACE('',#700,3.7E0);
#702=ORIENTED_EDGE('',*,*,#354,.F.);
#704=ORIENTED_EDGE('',*,*,#703,.T.);
#706=ORIENTED_EDGE('',*,*,#705,.T.);
#708=ORIENTED_EDGE('',*,*,#707,.F.);
#709=EDGE_LOOP('',(#702,#704,#706,#708));
#710=FACE_OUTER_BOUND('',#709,.F.);
#712=FILL_AREA_STYLE_COLOUR('',#20);
#713=FILL_AREA_STYLE('',(#712));
#714=SURFACE_STYLE_FILL_AREA(#713);
#715=SURFACE_SIDE_STYLE('',(#714));
#716=SURFACE_STYLE_USAGE(.POSITIVE.,#715);
#717=PRESENTATION_STYLE_ASSIGNMENT((#716));
#718=STYLED_ITEM('',(#717),#711);
#719=CARTESIAN_POINT('',(0.E0,0.E0,0.E0));
#720=DIRECTION('',(0.E0,-1.E0,0.E0));
#721=DIRECTION('',(0.E0,0.E0,1.E0));
#722=AXIS2_PLACEMENT_3D('',#719,#720,#721);
#723=CYLINDRICAL_SURFACE('',#722,3.7E0);
#724=ORIENTED_EDGE('',*,*,#356,.F.);
#725=ORIENTED_EDGE('',*,*,#707,.T.);
#727=ORIENTED_EDGE('',*,*,#726,.T.);
#728=ORIENTED_EDGE('',*,*,#703,.F.);
#729=EDGE_LOOP('',(#724,#725,#727,#728));
#730=FACE_OUTER_BOUND('',#729,.F.);
#732=FILL_AREA_STYLE_COLOUR('',#20);
#733=FILL_AREA_STYLE('',(#732));
#734=SURFACE_STYLE_FILL_AREA(#733);
#735=SURFACE_SIDE_STYLE('',(#734));
#736=SURFACE_STYLE_USAGE(.POSITIVE.,#735);
#737=PRESENTATION_STYLE_ASSIGNMENT((#736));
#738=STYLED_ITEM('',(#737),#731);
#739=CARTESIAN_POINT('',(0.E0,1.E-1,0.E0));
#740=DIRECTION('',(0.E0,-1.E0,0.E0));
#741=DIRECTION('',(0.E0,0.E0,1.E0));
#742=AXIS2_PLACEMENT_3D('',#739,#740,#741);
#743=PLANE('',#742);
#744=ORIENTED_EDGE('',*,*,#705,.F.);
#745=ORIENTED_EDGE('',*,*,#726,.F.);
#746=EDGE_LOOP('',(#744,#745));
#747=FACE_OUTER_BOUND('',#746,.F.);
#749=ORIENTED_EDGE('',*,*,#748,.T.);
#751=ORIENTED_EDGE('',*,*,#750,.T.);
#752=EDGE_LOOP('',(#749,#751));
#753=FACE_BOUND('',#752,.F.);
#755=ORIENTED_EDGE('',*,*,#754,.T.);
#757=ORIENTED_EDGE('',*,*,#756,.T.);
#758=EDGE_LOOP('',(#755,#757));
#759=FACE_BOUND('',#758,.F.);
#761=FILL_AREA_STYLE_COLOUR('',#5);
#762=FILL_AREA_STYLE('',(#761));
#763=SURFACE_STYLE_FILL_AREA(#762);
#764=SURFACE_SIDE_STYLE('',(#763));
#765=SURFACE_STYLE_USAGE(.POSITIVE.,#764);
#766=PRESENTATION_STYLE_ASSIGNMENT((#765));
#767=STYLED_ITEM('',(#766),#760);
#768=CARTESIAN_POINT('',(0.E0,1.E-1,2.5E0));
#769=DIRECTION('',(0.E0,-1.E0,0.E0));
#770=DIRECTION('',(0.E0,0.E0,-1.E0));
#771=AXIS2_PLACEMENT_3D('',#768,#769,#770);
#772=CYLINDRICAL_SURFACE('',#771,3.E-1);
#773=ORIENTED_EDGE('',*,*,#748,.F.);
#775=ORIENTED_EDGE('',*,*,#774,.T.);
#777=ORIENTED_EDGE('',*,*,#776,.T.);
#779=ORIENTED_EDGE('',*,*,#778,.F.);
#780=EDGE_LOOP('',(#773,#775,#777,#779));
#781=FACE_OUTER_BOUND('',#780,.F.);
#783=FILL_AREA_STYLE_COLOUR('',#12);
#784=FILL_AREA_STYLE('',(#783));
#785=SURFACE_STYLE_FILL_AREA(#784);
#786=SURFACE_SIDE_STYLE('',(#785));
#787=SURFACE_STYLE_USAGE(.POSITIVE.,#786);
#788=PRESENTATION_STYLE_ASSIGNMENT((#787));
#789=STYLED_ITEM('',(#788),#782);
#790=CARTESIAN_POINT('',(0.E0,1.E-1,2.5E0));
#791=DIRECTION('',(0.E0,-1.E0,0.E0));
#792=DIRECTION('',(0.E0,0.E0,-1.E0));
#793=AXIS2_PLACEMENT_3D('',#790,#791,#792);
#794=CYLINDRICAL_SURFACE('',#793,3.E-1);
#795=ORIENTED_EDGE('',*,*,#750,.F.);
#796=ORIENTED_EDGE('',*,*,#778,.T.);
#798=ORIENTED_EDGE('',*,*,#797,.T.);
#799=ORIENTED_EDGE('',*,*,#774,.F.);
#800=EDGE_LOOP('',(#795,#796,#798,#799));
#801=FACE_OUTER_BOUND('',#800,.F.);
#803=FILL_AREA_STYLE_COLOUR('',#12);
#804=FILL_AREA_STYLE('',(#803));
#805=SURFACE_STYLE_FILL_AREA(#804);
#806=SURFACE_SIDE_STYLE('',(#805));
#807=SURFACE_STYLE_USAGE(.POSITIVE.,#806);
#808=PRESENTATION_STYLE_ASSIGNMENT((#807));
#809=STYLED_ITEM('',(#808),#802);
#810=CARTESIAN_POINT('',(0.E0,-1.99E1,0.E0));
#811=DIRECTION('',(0.E0,-1.E0,0.E0));
#812=DIRECTION('',(0.E0,0.E0,-1.E0));
#813=AXIS2_PLACEMENT_3D('',#810,#811,#812);
#814=PLANE('',#813);
#815=ORIENTED_EDGE('',*,*,#776,.F.);
#816=ORIENTED_EDGE('',*,*,#797,.F.);
#817=EDGE_LOOP('',(#815,#816));
#818=FACE_OUTER_BOUND('',#817,.F.);
#820=FILL_AREA_STYLE_COLOUR('',#12);
#821=FILL_AREA_STYLE('',(#820));
#822=SURFACE_STYLE_FILL_AREA(#821);
#823=SURFACE_SIDE_STYLE('',(#822));
#824=SURFACE_STYLE_USAGE(.POSITIVE.,#823);
#825=PRESENTATION_STYLE_ASSIGNMENT((#824));
#826=STYLED_ITEM('',(#825),#819);
#827=CARTESIAN_POINT('',(0.E0,1.E-1,-2.5E0));
#828=DIRECTION('',(0.E0,-1.E0,0.E0));
#829=DIRECTION('',(-1.E0,0.E0,0.E0));
#830=AXIS2_PLACEMENT_3D('',#827,#828,#829);
#831=CYLINDRICAL_SURFACE('',#830,3.E-1);
#832=ORIENTED_EDGE('',*,*,#754,.F.);
#834=ORIENTED_EDGE('',*,*,#833,.T.);
#836=ORIENTED_EDGE('',*,*,#835,.T.);
#838=ORIENTED_EDGE('',*,*,#837,.F.);
#839=EDGE_LOOP('',(#832,#834,#836,#838));
#840=FACE_OUTER_BOUND('',#839,.F.);
#842=FILL_AREA_STYLE_COLOUR('',#12);
#843=FILL_AREA_STYLE('',(#842));
#844=SURFACE_STYLE_FILL_AREA(#843);
#845=SURFACE_SIDE_STYLE('',(#844));
#846=SURFACE_STYLE_USAGE(.POSITIVE.,#845);
#847=PRESENTATION_STYLE_ASSIGNMENT((#846));
#848=STYLED_ITEM('',(#847),#841);
#849=CARTESIAN_POINT('',(0.E0,1.E-1,-2.5E0));
#850=DIRECTION('',(0.E0,-1.E0,0.E0));
#851=DIRECTION('',(-1.E0,0.E0,0.E0));
#852=AXIS2_PLACEMENT_3D('',#849,#850,#851);
#853=CYLINDRICAL_SURFACE('',#852,3.E-1);
#854=ORIENTED_EDGE('',*,*,#756,.F.);
#855=ORIENTED_EDGE('',*,*,#837,.T.);
#857=ORIENTED_EDGE('',*,*,#856,.T.);
#858=ORIENTED_EDGE('',*,*,#833,.F.);
#859=EDGE_LOOP('',(#854,#855,#857,#858));
#860=FACE_OUTER_BOUND('',#859,.F.);
#862=FILL_AREA_STYLE_COLOUR('',#12);
#863=FILL_AREA_STYLE('',(#862));
#864=SURFACE_STYLE_FILL_AREA(#863);
#865=SURFACE_SIDE_STYLE('',(#864));
#866=SURFACE_STYLE_USAGE(.POSITIVE.,#865);
#867=PRESENTATION_STYLE_ASSIGNMENT((#866));
#868=STYLED_ITEM('',(#867),#861);
#869=CARTESIAN_POINT('',(0.E0,-2.49E1,0.E0));
#870=DIRECTION('',(0.E0,-1.E0,0.E0));
#871=DIRECTION('',(-1.E0,0.E0,0.E0));
#872=AXIS2_PLACEMENT_3D('',#869,#870,#871);
#873=PLANE('',#872);
#874=ORIENTED_EDGE('',*,*,#835,.F.);
#875=ORIENTED_EDGE('',*,*,#856,.F.);
#876=EDGE_LOOP('',(#874,#875));
#877=FACE_OUTER_BOUND('',#876,.F.);
#879=FILL_AREA_STYLE_COLOUR('',#12);
#880=FILL_AREA_STYLE('',(#879));
#881=SURFACE_STYLE_FILL_AREA(#880);
#882=SURFACE_SIDE_STYLE('',(#881));
#883=SURFACE_STYLE_USAGE(.POSITIVE.,#882);
#884=PRESENTATION_STYLE_ASSIGNMENT((#883));
#885=STYLED_ITEM('',(#884),#878);
#886=CLOSED_SHELL('',(#360,#382,#406,#427,#446,#471,#491,#516,#538,#560,#581,
#602,#621,#644,#666,#679,#689,#711,#731,#760,#782,#802,#819,#841,#861,#878));
#887=MANIFOLD_SOLID_BREP('',#886);
#890=PLANE_ANGLE_MEASURE_WITH_UNIT(PLANE_ANGLE_MEASURE(1.745329251994E-2),#889);
#891=(CONVERSION_BASED_UNIT('DEGREE',#890)NAMED_UNIT(*)PLANE_ANGLE_UNIT());
#893=UNCERTAINTY_MEASURE_WITH_UNIT(LENGTH_MEASURE(4.138928540022E-3),#888,
'distance_accuracy_value',
'Maximum model space distance between geometric entities at asserted connectivities');
#895=CARTESIAN_POINT('',(0.E0,0.E0,0.E0));
#896=DIRECTION('',(0.E0,0.E0,1.E0));
#897=DIRECTION('',(1.E0,0.E0,0.E0));
#900=APPLICATION_CONTEXT('automotive_design');
#901=APPLICATION_PROTOCOL_DEFINITION('international standard',
'automotive_design',2001,#900);
#902=PRODUCT_DEFINITION_CONTEXT('part definition',#900,'design');
#903=PRODUCT_CONTEXT('',#900,'mechanical');
#904=PRODUCT('1000140000','1000140000','NOT SPECIFIED',(#903));
#905=PRODUCT_DEFINITION_FORMATION('74','LAST_VERSION',#904);
#913=DERIVED_UNIT_ELEMENT(#912,2.E0);
#914=DERIVED_UNIT((#913));
#915=MEASURE_REPRESENTATION_ITEM('surface area measure',AREA_MEASURE(
6.825949699887E2),#914);
#920=DERIVED_UNIT_ELEMENT(#919,3.E0);
#921=DERIVED_UNIT((#920));
#922=MEASURE_REPRESENTATION_ITEM('volume measure',VOLUME_MEASURE(
1.100752860197E3),#921);
#926=CARTESIAN_POINT('centre point',(-3.079324143784E-7,6.843305641853E0,
-3.210918790896E-3));
#931=DERIVED_UNIT_ELEMENT(#930,2.E0);
#932=DERIVED_UNIT((#931));
#933=MEASURE_REPRESENTATION_ITEM('surface area measure',AREA_MEASURE(
6.825949699887E2),#932);
#938=DERIVED_UNIT_ELEMENT(#937,3.E0);
#939=DERIVED_UNIT((#938));
#940=MEASURE_REPRESENTATION_ITEM('volume measure',VOLUME_MEASURE(
1.100752860197E3),#939);
#944=CARTESIAN_POINT('centre point',(-3.079324143784E-7,6.843305641853E0,
-3.210918790896E-3));
#954=CARTESIAN_POINT('centre point',(4.999999692068E0,3.174330564185E1,
-5.003210918791E0));
#958=CARTESIAN_POINT('',(5.E0,2.49E1,-5.E0));
#959=DIRECTION('',(0.E0,0.E0,1.E0));
#960=DIRECTION('',(1.E0,0.E0,0.E0));
#961=AXIS2_PLACEMENT_3D('',#958,#959,#960);
#962=ITEM_DEFINED_TRANSFORMATION('','',#898,#961);
#963=(REPRESENTATION_RELATIONSHIP('','',#899,#951)REPRESENTATION_RELATIONSHIP_WITH_TRANSFORMATION(#962)SHAPE_REPRESENTATION_RELATIONSHIP());
#964=CONTEXT_DEPENDENT_SHAPE_REPRESENTATION(#963,#953);
#965=CARTESIAN_POINT('',(0.E0,0.E0,0.E0));
#966=DIRECTION('',(0.E0,-1.E0,0.E0));
#967=DIRECTION('',(3.230924993209E-1,0.E0,9.463673900143E-1));
#968=AXIS2_PLACEMENT_3D('',#965,#966,#967);
#970=DIRECTION('',(-1.681184052517E-13,0.E0,1.E0));
#971=VECTOR('',#970,5.283052848203E-3);
#972=CARTESIAN_POINT('',(-1.615462496604E0,0.E0,4.731836950072E0));
#973=LINE('',#972,#971);
#974=CARTESIAN_POINT('',(0.E0,0.E0,0.E0));
#975=DIRECTION('',(0.E0,1.E0,0.E0));
#976=DIRECTION('',(-3.227697295913E-1,0.E0,9.464775230609E-1));
#977=AXIS2_PLACEMENT_3D('',#974,#975,#976);
#979=DIRECTION('',(-2.521776078775E-13,0.E0,-1.E0));
#980=VECTOR('',#979,5.283052848202E-3);
#981=CARTESIAN_POINT('',(1.615462496605E0,0.E0,4.737120002920E0));
#982=LINE('',#981,#980);
#983=DIRECTION('',(0.E0,1.E0,0.E0));
#984=VECTOR('',#983,1.2E1);
#985=CARTESIAN_POINT('',(1.615462496605E0,0.E0,4.731836950072E0));
#986=LINE('',#985,#984);
#987=DIRECTION('',(0.E0,1.E0,0.E0));
#988=VECTOR('',#987,1.2E1);
#989=CARTESIAN_POINT('',(1.615462496605E0,0.E0,4.737120002920E0));
#990=LINE('',#989,#988);
#991=DIRECTION('',(0.E0,1.E0,0.E0));
#992=VECTOR('',#991,1.2E1);
#993=CARTESIAN_POINT('',(-1.615462496604E0,0.E0,4.737120002920E0));
#994=LINE('',#993,#992);
#995=DIRECTION('',(0.E0,1.E0,0.E0));
#996=VECTOR('',#995,1.2E1);
#997=CARTESIAN_POINT('',(-1.615462496604E0,0.E0,4.731836950072E0));
#998=LINE('',#997,#996);
#999=CARTESIAN_POINT('',(0.E0,1.2E1,0.E0));
#1000=DIRECTION('',(0.E0,-1.E0,0.E0));
#1001=DIRECTION('',(3.230924993209E-1,0.E0,9.463673900143E-1));
#1002=AXIS2_PLACEMENT_3D('',#999,#1000,#1001);
#1004=DIRECTION('',(-2.942072091905E-13,0.E0,-1.E0));
#1005=VECTOR('',#1004,5.283052848202E-3);
#1006=CARTESIAN_POINT('',(1.615462496605E0,1.2E1,4.737120002920E0));
#1007=LINE('',#1006,#1005);
#1008=CARTESIAN_POINT('',(0.E0,1.2E1,0.E0));
#1009=DIRECTION('',(0.E0,1.E0,0.E0));
#1010=DIRECTION('',(-3.227697295913E-1,0.E0,9.464775230609E-1));
#1011=AXIS2_PLACEMENT_3D('',#1008,#1009,#1010);
#1013=DIRECTION('',(-1.681184052517E-13,0.E0,1.E0));
#1014=VECTOR('',#1013,5.283052848203E-3);
#1015=CARTESIAN_POINT('',(-1.615462496604E0,1.2E1,4.731836950072E0));
#1016=LINE('',#1015,#1014);
#1017=CARTESIAN_POINT('',(1.615462496605E0,0.E0,4.731836950072E0));
#1018=CARTESIAN_POINT('',(-1.615462496604E0,0.E0,4.731836950072E0));
#1019=VERTEX_POINT('',#1017);
#1020=VERTEX_POINT('',#1018);
#1021=CARTESIAN_POINT('',(-1.615462496604E0,0.E0,4.737120002920E0));
#1022=VERTEX_POINT('',#1021);
#1023=CARTESIAN_POINT('',(1.615462496605E0,0.E0,4.737120002920E0));
#1024=VERTEX_POINT('',#1023);
#1025=CARTESIAN_POINT('',(1.615462496605E0,1.2E1,4.731836950072E0));
#1026=CARTESIAN_POINT('',(-1.615462496604E0,1.2E1,4.731836950072E0));
#1027=VERTEX_POINT('',#1025);
#1028=VERTEX_POINT('',#1026);
#1029=CARTESIAN_POINT('',(-1.615462496604E0,1.2E1,4.737120002920E0));
#1030=VERTEX_POINT('',#1029);
#1031=CARTESIAN_POINT('',(1.615462496605E0,1.2E1,4.737120002920E0));
#1032=VERTEX_POINT('',#1031);
#1033=CARTESIAN_POINT('',(0.E0,0.E0,0.E0));
#1034=DIRECTION('',(0.E0,1.E0,0.E0));
#1035=DIRECTION('',(1.E0,0.E0,0.E0));
#1036=AXIS2_PLACEMENT_3D('',#1033,#1034,#1035);
#1037=PLANE('',#1036);
#1039=ORIENTED_EDGE('',*,*,#1038,.T.);
#1041=ORIENTED_EDGE('',*,*,#1040,.T.);
#1043=ORIENTED_EDGE('',*,*,#1042,.T.);
#1045=ORIENTED_EDGE('',*,*,#1044,.T.);
#1046=EDGE_LOOP('',(#1039,#1041,#1043,#1045));
#1047=FACE_OUTER_BOUND('',#1046,.F.);
#1049=CARTESIAN_POINT('',(0.E0,0.E0,0.E0));
#1050=DIRECTION('',(0.E0,1.E0,0.E0));
#1051=DIRECTION('',(1.E0,0.E0,0.E0));
#1052=AXIS2_PLACEMENT_3D('',#1049,#1050,#1051);
#1053=CYLINDRICAL_SURFACE('',#1052,5.E0);
#1054=ORIENTED_EDGE('',*,*,#1038,.F.);
#1056=ORIENTED_EDGE('',*,*,#1055,.T.);
#1058=ORIENTED_EDGE('',*,*,#1057,.T.);
#1060=ORIENTED_EDGE('',*,*,#1059,.F.);
#1061=EDGE_LOOP('',(#1054,#1056,#1058,#1060));
#1062=FACE_OUTER_BOUND('',#1061,.F.);
#1064=CARTESIAN_POINT('',(1.615462496605E0,0.E0,4.737120002920E0));
#1065=DIRECTION('',(1.E0,0.E0,0.E0));
#1066=DIRECTION('',(0.E0,0.E0,-1.E0));
#1067=AXIS2_PLACEMENT_3D('',#1064,#1065,#1066);
#1068=PLANE('',#1067);
#1069=ORIENTED_EDGE('',*,*,#1044,.F.);
#1071=ORIENTED_EDGE('',*,*,#1070,.T.);
#1073=ORIENTED_EDGE('',*,*,#1072,.T.);
#1074=ORIENTED_EDGE('',*,*,#1055,.F.);
#1075=EDGE_LOOP('',(#1069,#1071,#1073,#1074));
#1076=FACE_OUTER_BOUND('',#1075,.F.);
#1078=CARTESIAN_POINT('',(0.E0,0.E0,0.E0));
#1079=DIRECTION('',(0.E0,1.E0,0.E0));
#1080=DIRECTION('',(1.E0,0.E0,0.E0));
#1081=AXIS2_PLACEMENT_3D('',#1078,#1079,#1080);
#1082=CYLINDRICAL_SURFACE('',#1081,5.005E0);
#1083=ORIENTED_EDGE('',*,*,#1042,.F.);
#1085=ORIENTED_EDGE('',*,*,#1084,.T.);
#1087=ORIENTED_EDGE('',*,*,#1086,.T.);
#1088=ORIENTED_EDGE('',*,*,#1070,.F.);
#1089=EDGE_LOOP('',(#1083,#1085,#1087,#1088));
#1090=FACE_OUTER_BOUND('',#1089,.F.);
#1092=FILL_AREA_STYLE_COLOUR('',#4);
#1093=FILL_AREA_STYLE('',(#1092));
#1094=SURFACE_STYLE_FILL_AREA(#1093);
#1095=SURFACE_SIDE_STYLE('',(#1094));
#1096=SURFACE_STYLE_USAGE(.POSITIVE.,#1095);
#1097=PRESENTATION_STYLE_ASSIGNMENT((#1096));
#1098=STYLED_ITEM('',(#1097),#1091);
#1099=CARTESIAN_POINT('',(-1.615462496604E0,0.E0,4.731836950072E0));
#1100=DIRECTION('',(-1.E0,0.E0,0.E0));
#1101=DIRECTION('',(0.E0,0.E0,1.E0));
#1102=AXIS2_PLACEMENT_3D('',#1099,#1100,#1101);
#1103=PLANE('',#1102);
#1104=ORIENTED_EDGE('',*,*,#1040,.F.);
#1105=ORIENTED_EDGE('',*,*,#1059,.T.);
#1107=ORIENTED_EDGE('',*,*,#1106,.T.);
#1108=ORIENTED_EDGE('',*,*,#1084,.F.);
#1109=EDGE_LOOP('',(#1104,#1105,#1107,#1108));
#1110=FACE_OUTER_BOUND('',#1109,.F.);
#1112=CARTESIAN_POINT('',(0.E0,1.2E1,0.E0));
#1113=DIRECTION('',(0.E0,1.E0,0.E0));
#1114=DIRECTION('',(1.E0,0.E0,0.E0));
#1115=AXIS2_PLACEMENT_3D('',#1112,#1113,#1114);
#1116=PLANE('',#1115);
#1117=ORIENTED_EDGE('',*,*,#1057,.F.);
#1118=ORIENTED_EDGE('',*,*,#1072,.F.);
#1119=ORIENTED_EDGE('',*,*,#1086,.F.);
#1120=ORIENTED_EDGE('',*,*,#1106,.F.);
#1121=EDGE_LOOP('',(#1117,#1118,#1119,#1120));
#1122=FACE_OUTER_BOUND('',#1121,.F.);
#1124=CLOSED_SHELL('',(#1048,#1063,#1077,#1091,#1111,#1123));
#1125=MANIFOLD_SOLID_BREP('',#1124);
#1128=PLANE_ANGLE_MEASURE_WITH_UNIT(PLANE_ANGLE_MEASURE(1.745329251994E-2),
#1127);
#1129=(CONVERSION_BASED_UNIT('DEGREE',#1128)NAMED_UNIT(*)PLANE_ANGLE_UNIT());
#1131=UNCERTAINTY_MEASURE_WITH_UNIT(LENGTH_MEASURE(1.242984849189E-3),#1126,
'distance_accuracy_value',
'Maximum model space distance between geometric entities at asserted connectivities');
#1133=CARTESIAN_POINT('',(0.E0,0.E0,0.E0));
#1134=DIRECTION('',(0.E0,0.E0,1.E0));
#1135=DIRECTION('',(1.E0,0.E0,0.E0));
#1138=PRODUCT_CONTEXT('',#900,'mechanical');
#1139=PRODUCT('FJB10001400','FJB10001400','NOT SPECIFIED',(#1138));
#1140=PRODUCT_DEFINITION_FORMATION('3','LAST_VERSION',#1139);
#1148=DERIVED_UNIT_ELEMENT(#1147,2.E0);
#1149=DERIVED_UNIT((#1148));
#1150=MEASURE_REPRESENTATION_ITEM('surface area measure',AREA_MEASURE(
7.911710889584E1),#1149);
#1155=DERIVED_UNIT_ELEMENT(#1154,3.E0);
#1156=DERIVED_UNIT((#1155));
#1157=MEASURE_REPRESENTATION_ITEM('volume measure',VOLUME_MEASURE(
1.973935397752E-1),#1156);
#1161=CARTESIAN_POINT('centre point',(9.979313227538E-13,6.E0,
4.912836244877E0));
#1166=DERIVED_UNIT_ELEMENT(#1165,2.E0);
#1167=DERIVED_UNIT((#1166));
#1168=MEASURE_REPRESENTATION_ITEM('surface area measure',AREA_MEASURE(
7.911710889584E1),#1167);
#1173=DERIVED_UNIT_ELEMENT(#1172,3.E0);
#1174=DERIVED_UNIT((#1173));
#1175=MEASURE_REPRESENTATION_ITEM('volume measure',VOLUME_MEASURE(
1.973935397752E-1),#1174);
#1179=CARTESIAN_POINT('centre point',(9.979313227538E-13,6.E0,
4.912836244877E0));
#1186=CARTESIAN_POINT('centre point',(5.000000000001E0,3.266772215634E1,
-8.716375512287E-2));
#1190=CARTESIAN_POINT('',(5.E0,2.666772215634E1,-5.E0));
#1191=DIRECTION('',(0.E0,0.E0,1.E0));
#1192=DIRECTION('',(1.E0,0.E0,0.E0));
#1193=AXIS2_PLACEMENT_3D('',#1190,#1191,#1192);
#1194=ITEM_DEFINED_TRANSFORMATION('','',#1136,#1193);
#1195=(REPRESENTATION_RELATIONSHIP('','',#1137,#951)REPRESENTATION_RELATIONSHIP_WITH_TRANSFORMATION(#1194)SHAPE_REPRESENTATION_RELATIONSHIP());
#1196=CONTEXT_DEPENDENT_SHAPE_REPRESENTATION(#1195,#1185);
#1197=CARTESIAN_POINT('',(-1.134E-2,0.E0,-8.6184E-1));
#1198=DIRECTION('',(0.E0,1.E0,0.E0));
#1199=DIRECTION('',(0.E0,0.E0,-1.E0));
#1200=AXIS2_PLACEMENT_3D('',#1197,#1198,#1199);
#1202=DIRECTION('',(0.E0,0.E0,1.E0));
#1203=VECTOR('',#1202,1.72368E0);
#1204=CARTESIAN_POINT('',(-8.505E-1,0.E0,-8.6184E-1));
#1205=LINE('',#1204,#1203);
#1206=CARTESIAN_POINT('',(-1.134E-2,0.E0,8.6184E-1));
#1207=DIRECTION('',(0.E0,1.E0,0.E0));
#1208=DIRECTION('',(-1.E0,0.E0,0.E0));
#1209=AXIS2_PLACEMENT_3D('',#1206,#1207,#1208);
#1211=DIRECTION('',(1.E0,0.E0,0.E0));
#1212=VECTOR('',#1211,2.268E-2);
#1213=CARTESIAN_POINT('',(-1.134E-2,0.E0,1.701E0));
#1214=LINE('',#1213,#1212);
#1215=CARTESIAN_POINT('',(1.134E-2,0.E0,8.6184E-1));
#1216=DIRECTION('',(0.E0,1.E0,0.E0));
#1217=DIRECTION('',(0.E0,0.E0,1.E0));
#1218=AXIS2_PLACEMENT_3D('',#1215,#1216,#1217);
#1220=DIRECTION('',(0.E0,0.E0,-1.E0));
#1221=VECTOR('',#1220,1.72368E0);
#1222=CARTESIAN_POINT('',(8.505E-1,0.E0,8.6184E-1));
#1223=LINE('',#1222,#1221);
#1224=CARTESIAN_POINT('',(1.134E-2,0.E0,-8.6184E-1));
#1225=DIRECTION('',(0.E0,1.E0,0.E0));
#1226=DIRECTION('',(1.E0,0.E0,0.E0));
#1227=AXIS2_PLACEMENT_3D('',#1224,#1225,#1226);
#1229=DIRECTION('',(-1.E0,0.E0,0.E0));
#1230=VECTOR('',#1229,2.268E-2);
#1231=CARTESIAN_POINT('',(1.134E-2,0.E0,-1.701E0));
#1232=LINE('',#1231,#1230);
#1233=DIRECTION('',(1.E0,0.E0,0.E0));
#1234=VECTOR('',#1233,4.037142947491E-3);
#1235=CARTESIAN_POINT('',(-2.018571473745E-3,0.E0,-1.236743717903E0));
#1236=LINE('',#1235,#1234);
#1237=CARTESIAN_POINT('',(2.018571473746E-3,0.E0,-7.264437179028E-1));
#1238=DIRECTION('',(0.E0,-1.E0,0.E0));
#1239=DIRECTION('',(0.E0,0.E0,-1.E0));
#1240=AXIS2_PLACEMENT_3D('',#1237,#1238,#1239);
#1242=DIRECTION('',(0.E0,0.E0,1.E0));
#1243=VECTOR('',#1242,1.452887435806E0);
#1244=CARTESIAN_POINT('',(5.123185714737E-1,0.E0,-7.264437179028E-1));
#1245=LINE('',#1244,#1243);
#1246=CARTESIAN_POINT('',(2.018571473746E-3,0.E0,7.264437179028E-1));
#1247=DIRECTION('',(0.E0,-1.E0,0.E0));
#1248=DIRECTION('',(1.E0,0.E0,0.E0));
#1249=AXIS2_PLACEMENT_3D('',#1246,#1247,#1248);
#1251=DIRECTION('',(-1.E0,0.E0,0.E0));
#1252=VECTOR('',#1251,4.037142947491E-3);
#1253=CARTESIAN_POINT('',(2.018571473745E-3,0.E0,1.236743717903E0));
#1254=LINE('',#1253,#1252);
#1255=CARTESIAN_POINT('',(-2.018571473746E-3,0.E0,7.264437179028E-1));
#1256=DIRECTION('',(0.E0,-1.E0,0.E0));
#1257=DIRECTION('',(0.E0,0.E0,1.E0));
#1258=AXIS2_PLACEMENT_3D('',#1255,#1256,#1257);
#1260=DIRECTION('',(0.E0,0.E0,-1.E0));
#1261=VECTOR('',#1260,1.452887435806E0);
#1262=CARTESIAN_POINT('',(-5.123185714737E-1,0.E0,7.264437179028E-1));
#1263=LINE('',#1262,#1261);
#1264=CARTESIAN_POINT('',(-2.018571473746E-3,0.E0,-7.264437179028E-1));
#1265=DIRECTION('',(0.E0,-1.E0,0.E0));
#1266=DIRECTION('',(-1.E0,0.E0,0.E0));
#1267=AXIS2_PLACEMENT_3D('',#1264,#1265,#1266);
#1269=DIRECTION('',(0.E0,1.E0,0.E0));
#1270=VECTOR('',#1269,1.134E-2);
#1271=CARTESIAN_POINT('',(-1.134E-2,0.E0,-1.701E0));
#1272=LINE('',#1271,#1270);
#1273=DIRECTION('',(0.E0,1.E0,0.E0));
#1274=VECTOR('',#1273,1.134E-2);
#1275=CARTESIAN_POINT('',(1.134E-2,0.E0,-1.701E0));
#1276=LINE('',#1275,#1274);
#1277=DIRECTION('',(0.E0,1.E0,0.E0));
#1278=VECTOR('',#1277,1.134E-2);
#1279=CARTESIAN_POINT('',(8.505E-1,0.E0,-8.6184E-1));
#1280=LINE('',#1279,#1278);
#1281=DIRECTION('',(0.E0,1.E0,0.E0));
#1282=VECTOR('',#1281,1.134E-2);
#1283=CARTESIAN_POINT('',(8.505E-1,0.E0,8.6184E-1));
#1284=LINE('',#1283,#1282);
#1285=DIRECTION('',(0.E0,1.E0,0.E0));
#1286=VECTOR('',#1285,1.134E-2);
#1287=CARTESIAN_POINT('',(1.134E-2,0.E0,1.701E0));
#1288=LINE('',#1287,#1286);
#1289=DIRECTION('',(0.E0,1.E0,0.E0));
#1290=VECTOR('',#1289,1.134E-2);
#1291=CARTESIAN_POINT('',(-1.134E-2,0.E0,1.701E0));
#1292=LINE('',#1291,#1290);
#1293=DIRECTION('',(0.E0,1.E0,0.E0));
#1294=VECTOR('',#1293,1.134E-2);
#1295=CARTESIAN_POINT('',(-8.505E-1,0.E0,8.6184E-1));
#1296=LINE('',#1295,#1294);
#1297=DIRECTION('',(0.E0,1.E0,0.E0));
#1298=VECTOR('',#1297,1.134E-2);
#1299=CARTESIAN_POINT('',(-8.505E-1,0.E0,-8.6184E-1));
#1300=LINE('',#1299,#1298);
#1301=CARTESIAN_POINT('',(-1.134E-2,1.134E-2,-8.6184E-1));
#1302=DIRECTION('',(0.E0,1.E0,0.E0));
#1303=DIRECTION('',(0.E0,0.E0,-1.E0));
#1304=AXIS2_PLACEMENT_3D('',#1301,#1302,#1303);
#1306=DIRECTION('',(-1.E0,0.E0,0.E0));
#1307=VECTOR('',#1306,2.268E-2);
#1308=CARTESIAN_POINT('',(1.134E-2,1.134E-2,-1.701E0));
#1309=LINE('',#1308,#1307);
#1310=CARTESIAN_POINT('',(1.134E-2,1.134E-2,-8.6184E-1));
#1311=DIRECTION('',(0.E0,1.E0,0.E0));
#1312=DIRECTION('',(1.E0,0.E0,0.E0));
#1313=AXIS2_PLACEMENT_3D('',#1310,#1311,#1312);
#1315=DIRECTION('',(0.E0,0.E0,-1.E0));
#1316=VECTOR('',#1315,1.72368E0);
#1317=CARTESIAN_POINT('',(8.505E-1,1.134E-2,8.6184E-1));
#1318=LINE('',#1317,#1316);
#1319=CARTESIAN_POINT('',(1.134E-2,1.134E-2,8.6184E-1));
#1320=DIRECTION('',(0.E0,1.E0,0.E0));
#1321=DIRECTION('',(0.E0,0.E0,1.E0));
#1322=AXIS2_PLACEMENT_3D('',#1319,#1320,#1321);
#1324=DIRECTION('',(1.E0,0.E0,0.E0));
#1325=VECTOR('',#1324,2.268E-2);
#1326=CARTESIAN_POINT('',(-1.134E-2,1.134E-2,1.701E0));
#1327=LINE('',#1326,#1325);
#1328=CARTESIAN_POINT('',(-1.134E-2,1.134E-2,8.6184E-1));
#1329=DIRECTION('',(0.E0,1.E0,0.E0));
#1330=DIRECTION('',(-1.E0,0.E0,0.E0));
#1331=AXIS2_PLACEMENT_3D('',#1328,#1329,#1330);
#1333=DIRECTION('',(0.E0,0.E0,1.E0));
#1334=VECTOR('',#1333,1.72368E0);
#1335=CARTESIAN_POINT('',(-8.505E-1,1.134E-2,-8.6184E-1));
#1336=LINE('',#1335,#1334);
#1337=DIRECTION('',(1.E0,0.E0,0.E0));
#1338=VECTOR('',#1337,4.037142947491E-3);
#1339=CARTESIAN_POINT('',(-2.018571473745E-3,1.134E-2,-1.236743717903E0));
#1340=LINE('',#1339,#1338);
#1341=CARTESIAN_POINT('',(-2.018571473746E-3,1.134E-2,-7.264437179028E-1));
#1342=DIRECTION('',(0.E0,-1.E0,0.E0));
#1343=DIRECTION('',(-1.E0,0.E0,0.E0));
#1344=AXIS2_PLACEMENT_3D('',#1341,#1342,#1343);
#1346=DIRECTION('',(0.E0,0.E0,-1.E0));
#1347=VECTOR('',#1346,1.452887435806E0);
#1348=CARTESIAN_POINT('',(-5.123185714737E-1,1.134E-2,7.264437179028E-1));
#1349=LINE('',#1348,#1347);
#1350=CARTESIAN_POINT('',(-2.018571473746E-3,1.134E-2,7.264437179028E-1));
#1351=DIRECTION('',(0.E0,-1.E0,0.E0));
#1352=DIRECTION('',(0.E0,0.E0,1.E0));
#1353=AXIS2_PLACEMENT_3D('',#1350,#1351,#1352);
#1355=DIRECTION('',(-1.E0,0.E0,0.E0));
#1356=VECTOR('',#1355,4.037142947491E-3);
#1357=CARTESIAN_POINT('',(2.018571473745E-3,1.134E-2,1.236743717903E0));
#1358=LINE('',#1357,#1356);
#1359=CARTESIAN_POINT('',(2.018571473746E-3,1.134E-2,7.264437179028E-1));
#1360=DIRECTION('',(0.E0,-1.E0,0.E0));
#1361=DIRECTION('',(1.E0,0.E0,0.E0));
#1362=AXIS2_PLACEMENT_3D('',#1359,#1360,#1361);
#1364=DIRECTION('',(0.E0,0.E0,1.E0));
#1365=VECTOR('',#1364,1.452887435806E0);
#1366=CARTESIAN_POINT('',(5.123185714737E-1,1.134E-2,-7.264437179028E-1));
#1367=LINE('',#1366,#1365);
#1368=CARTESIAN_POINT('',(2.018571473746E-3,1.134E-2,-7.264437179028E-1));
#1369=DIRECTION('',(0.E0,-1.E0,0.E0));
#1370=DIRECTION('',(0.E0,0.E0,-1.E0));
#1371=AXIS2_PLACEMENT_3D('',#1368,#1369,#1370);
#1373=DIRECTION('',(0.E0,1.E0,0.E0));
#1374=VECTOR('',#1373,1.134E-2);
#1375=CARTESIAN_POINT('',(-2.018571473745E-3,0.E0,-1.236743717903E0));
#1376=LINE('',#1375,#1374);
#1377=DIRECTION('',(0.E0,1.E0,0.E0));
#1378=VECTOR('',#1377,1.134E-2);
#1379=CARTESIAN_POINT('',(-5.123185714737E-1,0.E0,-7.264437179028E-1));
#1380=LINE('',#1379,#1378);
#1381=DIRECTION('',(0.E0,1.E0,0.E0));
#1382=VECTOR('',#1381,1.134E-2);
#1383=CARTESIAN_POINT('',(-5.123185714737E-1,0.E0,7.264437179028E-1));
#1384=LINE('',#1383,#1382);
#1385=DIRECTION('',(0.E0,1.E0,0.E0));
#1386=VECTOR('',#1385,1.134E-2);
#1387=CARTESIAN_POINT('',(-2.018571473746E-3,0.E0,1.236743717903E0));
#1388=LINE('',#1387,#1386);
#1389=DIRECTION('',(0.E0,1.E0,0.E0));
#1390=VECTOR('',#1389,1.134E-2);
#1391=CARTESIAN_POINT('',(2.018571473745E-3,0.E0,1.236743717903E0));
#1392=LINE('',#1391,#1390);
#1393=DIRECTION('',(0.E0,1.E0,0.E0));
#1394=VECTOR('',#1393,1.134E-2);
#1395=CARTESIAN_POINT('',(5.123185714737E-1,0.E0,7.264437179028E-1));
#1396=LINE('',#1395,#1394);
#1397=DIRECTION('',(0.E0,1.E0,0.E0));
#1398=VECTOR('',#1397,1.134E-2);
#1399=CARTESIAN_POINT('',(5.123185714737E-1,0.E0,-7.264437179028E-1));
#1400=LINE('',#1399,#1398);
#1401=DIRECTION('',(0.E0,1.E0,0.E0));
#1402=VECTOR('',#1401,1.134E-2);
#1403=CARTESIAN_POINT('',(2.018571473746E-3,0.E0,-1.236743717903E0));
#1404=LINE('',#1403,#1402);
#1405=CARTESIAN_POINT('',(-1.134E-2,0.E0,-1.701E0));
#1406=CARTESIAN_POINT('',(-8.505E-1,0.E0,-8.6184E-1));
#1407=VERTEX_POINT('',#1405);
#1408=VERTEX_POINT('',#1406);
#1409=CARTESIAN_POINT('',(-8.505E-1,0.E0,8.6184E-1));
#1410=VERTEX_POINT('',#1409);
#1411=CARTESIAN_POINT('',(-1.134E-2,0.E0,1.701E0));
#1412=VERTEX_POINT('',#1411);
#1413=CARTESIAN_POINT('',(1.134E-2,0.E0,1.701E0));
#1414=VERTEX_POINT('',#1413);
#1415=CARTESIAN_POINT('',(8.505E-1,0.E0,8.6184E-1));
#1416=VERTEX_POINT('',#1415);
#1417=CARTESIAN_POINT('',(8.505E-1,0.E0,-8.6184E-1));
#1418=VERTEX_POINT('',#1417);
#1419=CARTESIAN_POINT('',(1.134E-2,0.E0,-1.701E0));
#1420=VERTEX_POINT('',#1419);
#1421=CARTESIAN_POINT('',(-2.018571473745E-3,0.E0,-1.236743717903E0));
#1422=CARTESIAN_POINT('',(2.018571473746E-3,0.E0,-1.236743717903E0));
#1423=VERTEX_POINT('',#1421);
#1424=VERTEX_POINT('',#1422);
#1425=CARTESIAN_POINT('',(5.123185714737E-1,0.E0,-7.264437179028E-1));
#1426=VERTEX_POINT('',#1425);
#1427=CARTESIAN_POINT('',(5.123185714737E-1,0.E0,7.264437179028E-1));
#1428=VERTEX_POINT('',#1427);
#1429=CARTESIAN_POINT('',(2.018571473745E-3,0.E0,1.236743717903E0));
#1430=VERTEX_POINT('',#1429);
#1431=CARTESIAN_POINT('',(-2.018571473746E-3,0.E0,1.236743717903E0));
#1432=VERTEX_POINT('',#1431);
#1433=CARTESIAN_POINT('',(-5.123185714737E-1,0.E0,7.264437179028E-1));
#1434=VERTEX_POINT('',#1433);
#1435=CARTESIAN_POINT('',(-5.123185714737E-1,0.E0,-7.264437179028E-1));
#1436=VERTEX_POINT('',#1435);
#1437=CARTESIAN_POINT('',(-1.134E-2,1.134E-2,-1.701E0));
#1438=CARTESIAN_POINT('',(-8.505E-1,1.134E-2,-8.6184E-1));
#1439=VERTEX_POINT('',#1437);
#1440=VERTEX_POINT('',#1438);
#1441=CARTESIAN_POINT('',(-8.505E-1,1.134E-2,8.6184E-1));
#1442=VERTEX_POINT('',#1441);
#1443=CARTESIAN_POINT('',(-1.134E-2,1.134E-2,1.701E0));
#1444=VERTEX_POINT('',#1443);
#1445=CARTESIAN_POINT('',(1.134E-2,1.134E-2,1.701E0));
#1446=VERTEX_POINT('',#1445);
#1447=CARTESIAN_POINT('',(8.505E-1,1.134E-2,8.6184E-1));
#1448=VERTEX_POINT('',#1447);
#1449=CARTESIAN_POINT('',(8.505E-1,1.134E-2,-8.6184E-1));
#1450=VERTEX_POINT('',#1449);
#1451=CARTESIAN_POINT('',(1.134E-2,1.134E-2,-1.701E0));
#1452=VERTEX_POINT('',#1451);
#1453=CARTESIAN_POINT('',(-2.018571473745E-3,1.134E-2,-1.236743717903E0));
#1454=CARTESIAN_POINT('',(2.018571473746E-3,1.134E-2,-1.236743717903E0));
#1455=VERTEX_POINT('',#1453);
#1456=VERTEX_POINT('',#1454);
#1457=CARTESIAN_POINT('',(5.123185714737E-1,1.134E-2,-7.264437179028E-1));
#1458=VERTEX_POINT('',#1457);
#1459=CARTESIAN_POINT('',(5.123185714737E-1,1.134E-2,7.264437179028E-1));
#1460=VERTEX_POINT('',#1459);
#1461=CARTESIAN_POINT('',(2.018571473745E-3,1.134E-2,1.236743717903E0));
#1462=VERTEX_POINT('',#1461);
#1463=CARTESIAN_POINT('',(-2.018571473746E-3,1.134E-2,1.236743717903E0));
#1464=VERTEX_POINT('',#1463);
#1465=CARTESIAN_POINT('',(-5.123185714737E-1,1.134E-2,7.264437179028E-1));
#1466=VERTEX_POINT('',#1465);
#1467=CARTESIAN_POINT('',(-5.123185714737E-1,1.134E-2,-7.264437179028E-1));
#1468=VERTEX_POINT('',#1467);
#1469=CARTESIAN_POINT('',(0.E0,0.E0,0.E0));
#1470=DIRECTION('',(0.E0,1.E0,0.E0));
#1471=DIRECTION('',(1.E0,0.E0,0.E0));
#1472=AXIS2_PLACEMENT_3D('',#1469,#1470,#1471);
#1473=PLANE('',#1472);
#1475=ORIENTED_EDGE('',*,*,#1474,.T.);
#1477=ORIENTED_EDGE('',*,*,#1476,.T.);
#1479=ORIENTED_EDGE('',*,*,#1478,.T.);
#1481=ORIENTED_EDGE('',*,*,#1480,.T.);
#1483=ORIENTED_EDGE('',*,*,#1482,.T.);
#1485=ORIENTED_EDGE('',*,*,#1484,.T.);
#1487=ORIENTED_EDGE('',*,*,#1486,.T.);
#1489=ORIENTED_EDGE('',*,*,#1488,.T.);
#1490=EDGE_LOOP('',(#1475,#1477,#1479,#1481,#1483,#1485,#1487,#1489));
#1491=FACE_OUTER_BOUND('',#1490,.F.);
#1493=ORIENTED_EDGE('',*,*,#1492,.T.);
#1495=ORIENTED_EDGE('',*,*,#1494,.T.);
#1497=ORIENTED_EDGE('',*,*,#1496,.T.);
#1499=ORIENTED_EDGE('',*,*,#1498,.T.);
#1501=ORIENTED_EDGE('',*,*,#1500,.T.);
#1503=ORIENTED_EDGE('',*,*,#1502,.T.);
#1505=ORIENTED_EDGE('',*,*,#1504,.T.);
#1507=ORIENTED_EDGE('',*,*,#1506,.T.);
#1508=EDGE_LOOP('',(#1493,#1495,#1497,#1499,#1501,#1503,#1505,#1507));
#1509=FACE_BOUND('',#1508,.F.);
#1511=FILL_AREA_STYLE_COLOUR('',#11);
#1512=FILL_AREA_STYLE('',(#1511));
#1513=SURFACE_STYLE_FILL_AREA(#1512);
#1514=SURFACE_SIDE_STYLE('',(#1513));
#1515=SURFACE_STYLE_USAGE(.BOTH.,#1514);
#1516=PRESENTATION_STYLE_ASSIGNMENT((#1515));
#1517=STYLED_ITEM('',(#1516),#1510);
#1518=CARTESIAN_POINT('',(-1.134E-2,0.E0,-8.6184E-1));
#1519=DIRECTION('',(0.E0,1.E0,0.E0));
#1520=DIRECTION('',(1.E0,0.E0,0.E0));
#1521=AXIS2_PLACEMENT_3D('',#1518,#1519,#1520);
#1522=CYLINDRICAL_SURFACE('',#1521,8.3916E-1);
#1523=ORIENTED_EDGE('',*,*,#1474,.F.);
#1525=ORIENTED_EDGE('',*,*,#1524,.T.);
#1527=ORIENTED_EDGE('',*,*,#1526,.T.);
#1529=ORIENTED_EDGE('',*,*,#1528,.F.);
#1530=EDGE_LOOP('',(#1523,#1525,#1527,#1529));
#1531=FACE_OUTER_BOUND('',#1530,.F.);
#1533=CARTESIAN_POINT('',(1.134E-2,0.E0,-1.701E0));
#1534=DIRECTION('',(0.E0,0.E0,-1.E0));
#1535=DIRECTION('',(-1.E0,0.E0,0.E0));
#1536=AXIS2_PLACEMENT_3D('',#1533,#1534,#1535);
#1537=PLANE('',#1536);
#1538=ORIENTED_EDGE('',*,*,#1488,.F.);
#1540=ORIENTED_EDGE('',*,*,#1539,.T.);
#1542=ORIENTED_EDGE('',*,*,#1541,.T.);
#1543=ORIENTED_EDGE('',*,*,#1524,.F.);
#1544=EDGE_LOOP('',(#1538,#1540,#1542,#1543));
#1545=FACE_OUTER_BOUND('',#1544,.F.);
#1547=CARTESIAN_POINT('',(1.134E-2,0.E0,-8.6184E-1));
#1548=DIRECTION('',(0.E0,1.E0,0.E0));
#1549=DIRECTION('',(1.E0,0.E0,0.E0));
#1550=AXIS2_PLACEMENT_3D('',#1547,#1548,#1549);
#1551=CYLINDRICAL_SURFACE('',#1550,8.3916E-1);
#1552=ORIENTED_EDGE('',*,*,#1486,.F.);
#1554=ORIENTED_EDGE('',*,*,#1553,.T.);
#1556=ORIENTED_EDGE('',*,*,#1555,.T.);
#1557=ORIENTED_EDGE('',*,*,#1539,.F.);
#1558=EDGE_LOOP('',(#1552,#1554,#1556,#1557));
#1559=FACE_OUTER_BOUND('',#1558,.F.);
#1561=CARTESIAN_POINT('',(8.505E-1,0.E0,8.6184E-1));
#1562=DIRECTION('',(1.E0,0.E0,0.E0));
#1563=DIRECTION('',(0.E0,0.E0,-1.E0));
#1564=AXIS2_PLACEMENT_3D('',#1561,#1562,#1563);
#1565=PLANE('',#1564);
#1566=ORIENTED_EDGE('',*,*,#1484,.F.);
#1568=ORIENTED_EDGE('',*,*,#1567,.T.);
#1570=ORIENTED_EDGE('',*,*,#1569,.T.);
#1571=ORIENTED_EDGE('',*,*,#1553,.F.);
#1572=EDGE_LOOP('',(#1566,#1568,#1570,#1571));
#1573=FACE_OUTER_BOUND('',#1572,.F.);
#1575=CARTESIAN_POINT('',(1.134E-2,0.E0,8.6184E-1));
#1576=DIRECTION('',(0.E0,1.E0,0.E0));
#1577=DIRECTION('',(1.E0,0.E0,0.E0));
#1578=AXIS2_PLACEMENT_3D('',#1575,#1576,#1577);
#1579=CYLINDRICAL_SURFACE('',#1578,8.3916E-1);
#1580=ORIENTED_EDGE('',*,*,#1482,.F.);
#1582=ORIENTED_EDGE('',*,*,#1581,.T.);
#1584=ORIENTED_EDGE('',*,*,#1583,.T.);
#1585=ORIENTED_EDGE('',*,*,#1567,.F.);
#1586=EDGE_LOOP('',(#1580,#1582,#1584,#1585));
#1587=FACE_OUTER_BOUND('',#1586,.F.);
#1589=CARTESIAN_POINT('',(-1.134E-2,0.E0,1.701E0));
#1590=DIRECTION('',(0.E0,0.E0,1.E0));
#1591=DIRECTION('',(1.E0,0.E0,0.E0));
#1592=AXIS2_PLACEMENT_3D('',#1589,#1590,#1591);
#1593=PLANE('',#1592);
#1594=ORIENTED_EDGE('',*,*,#1480,.F.);
#1596=ORIENTED_EDGE('',*,*,#1595,.T.);
#1598=ORIENTED_EDGE('',*,*,#1597,.T.);
#1599=ORIENTED_EDGE('',*,*,#1581,.F.);
#1600=EDGE_LOOP('',(#1594,#1596,#1598,#1599));
#1601=FACE_OUTER_BOUND('',#1600,.F.);
#1603=CARTESIAN_POINT('',(-1.134E-2,0.E0,8.6184E-1));
#1604=DIRECTION('',(0.E0,1.E0,0.E0));
#1605=DIRECTION('',(1.E0,0.E0,0.E0));
#1606=AXIS2_PLACEMENT_3D('',#1603,#1604,#1605);
#1607=CYLINDRICAL_SURFACE('',#1606,8.3916E-1);
#1608=ORIENTED_EDGE('',*,*,#1478,.F.);
#1610=ORIENTED_EDGE('',*,*,#1609,.T.);
#1612=ORIENTED_EDGE('',*,*,#1611,.T.);
#1613=ORIENTED_EDGE('',*,*,#1595,.F.);
#1614=EDGE_LOOP('',(#1608,#1610,#1612,#1613));
#1615=FACE_OUTER_BOUND('',#1614,.F.);
#1617=CARTESIAN_POINT('',(-8.505E-1,0.E0,-8.6184E-1));
#1618=DIRECTION('',(-1.E0,0.E0,0.E0));
#1619=DIRECTION('',(0.E0,0.E0,1.E0));
#1620=AXIS2_PLACEMENT_3D('',#1617,#1618,#1619);
#1621=PLANE('',#1620);
#1622=ORIENTED_EDGE('',*,*,#1476,.F.);
#1623=ORIENTED_EDGE('',*,*,#1528,.T.);
#1625=ORIENTED_EDGE('',*,*,#1624,.T.);
#1626=ORIENTED_EDGE('',*,*,#1609,.F.);
#1627=EDGE_LOOP('',(#1622,#1623,#1625,#1626));
#1628=FACE_OUTER_BOUND('',#1627,.F.);
#1630=CARTESIAN_POINT('',(0.E0,1.134E-2,0.E0));
#1631=DIRECTION('',(0.E0,1.E0,0.E0));
#1632=DIRECTION('',(1.E0,0.E0,0.E0));
#1633=AXIS2_PLACEMENT_3D('',#1630,#1631,#1632);
#1634=PLANE('',#1633);
#1635=ORIENTED_EDGE('',*,*,#1526,.F.);
#1636=ORIENTED_EDGE('',*,*,#1541,.F.);
#1637=ORIENTED_EDGE('',*,*,#1555,.F.);
#1638=ORIENTED_EDGE('',*,*,#1569,.F.);
#1639=ORIENTED_EDGE('',*,*,#1583,.F.);
#1640=ORIENTED_EDGE('',*,*,#1597,.F.);
#1641=ORIENTED_EDGE('',*,*,#1611,.F.);
#1642=ORIENTED_EDGE('',*,*,#1624,.F.);
#1643=EDGE_LOOP('',(#1635,#1636,#1637,#1638,#1639,#1640,#1641,#1642));
#1644=FACE_OUTER_BOUND('',#1643,.F.);
#1646=ORIENTED_EDGE('',*,*,#1645,.F.);
#1648=ORIENTED_EDGE('',*,*,#1647,.F.);
#1650=ORIENTED_EDGE('',*,*,#1649,.F.);
#1652=ORIENTED_EDGE('',*,*,#1651,.F.);
#1654=ORIENTED_EDGE('',*,*,#1653,.F.);
#1656=ORIENTED_EDGE('',*,*,#1655,.F.);
#1658=ORIENTED_EDGE('',*,*,#1657,.F.);
#1660=ORIENTED_EDGE('',*,*,#1659,.F.);
#1661=EDGE_LOOP('',(#1646,#1648,#1650,#1652,#1654,#1656,#1658,#1660));
#1662=FACE_BOUND('',#1661,.F.);
#1664=FILL_AREA_STYLE_COLOUR('',#20);
#1665=FILL_AREA_STYLE('',(#1664));
#1666=SURFACE_STYLE_FILL_AREA(#1665);
#1667=SURFACE_SIDE_STYLE('',(#1666));
#1668=SURFACE_STYLE_USAGE(.POSITIVE.,#1667);
#1669=PRESENTATION_STYLE_ASSIGNMENT((#1668));
#1670=STYLED_ITEM('',(#1669),#1663);
#1671=CARTESIAN_POINT('',(-2.018571473746E-3,0.E0,-1.236743717903E0));
#1672=DIRECTION('',(0.E0,0.E0,1.E0));
#1673=DIRECTION('',(1.E0,0.E0,0.E0));
#1674=AXIS2_PLACEMENT_3D('',#1671,#1672,#1673);
#1675=PLANE('',#1674);
#1676=ORIENTED_EDGE('',*,*,#1492,.F.);
#1678=ORIENTED_EDGE('',*,*,#1677,.T.);
#1679=ORIENTED_EDGE('',*,*,#1645,.T.);
#1681=ORIENTED_EDGE('',*,*,#1680,.F.);
#1682=EDGE_LOOP('',(#1676,#1678,#1679,#1681));
#1683=FACE_OUTER_BOUND('',#1682,.F.);
#1685=CARTESIAN_POINT('',(-2.018571473746E-3,0.E0,-7.264437179028E-1));
#1686=DIRECTION('',(0.E0,1.E0,0.E0));
#1687=DIRECTION('',(1.E0,0.E0,0.E0));
#1688=AXIS2_PLACEMENT_3D('',#1685,#1686,#1687);
#1689=CYLINDRICAL_SURFACE('',#1688,5.103E-1);
#1690=ORIENTED_EDGE('',*,*,#1506,.F.);
#1692=ORIENTED_EDGE('',*,*,#1691,.T.);
#1693=ORIENTED_EDGE('',*,*,#1647,.T.);
#1694=ORIENTED_EDGE('',*,*,#1677,.F.);
#1695=EDGE_LOOP('',(#1690,#1692,#1693,#1694));
#1696=FACE_OUTER_BOUND('',#1695,.F.);
#1698=CARTESIAN_POINT('',(-5.123185714737E-1,0.E0,7.264437179028E-1));
#1699=DIRECTION('',(1.E0,0.E0,0.E0));
#1700=DIRECTION('',(0.E0,0.E0,-1.E0));
#1701=AXIS2_PLACEMENT_3D('',#1698,#1699,#1700);
#1702=PLANE('',#1701);
#1703=ORIENTED_EDGE('',*,*,#1504,.F.);
#1705=ORIENTED_EDGE('',*,*,#1704,.T.);
#1706=ORIENTED_EDGE('',*,*,#1649,.T.);
#1707=ORIENTED_EDGE('',*,*,#1691,.F.);
#1708=EDGE_LOOP('',(#1703,#1705,#1706,#1707));
#1709=FACE_OUTER_BOUND('',#1708,.F.);
#1711=CARTESIAN_POINT('',(-2.018571473746E-3,0.E0,7.264437179028E-1));
#1712=DIRECTION('',(0.E0,1.E0,0.E0));
#1713=DIRECTION('',(1.E0,0.E0,0.E0));
#1714=AXIS2_PLACEMENT_3D('',#1711,#1712,#1713);
#1715=CYLINDRICAL_SURFACE('',#1714,5.103E-1);
#1716=ORIENTED_EDGE('',*,*,#1502,.F.);
#1718=ORIENTED_EDGE('',*,*,#1717,.T.);
#1719=ORIENTED_EDGE('',*,*,#1651,.T.);
#1720=ORIENTED_EDGE('',*,*,#1704,.F.);
#1721=EDGE_LOOP('',(#1716,#1718,#1719,#1720));
#1722=FACE_OUTER_BOUND('',#1721,.F.);
#1724=CARTESIAN_POINT('',(2.018571473746E-3,0.E0,1.236743717903E0));
#1725=DIRECTION('',(0.E0,0.E0,-1.E0));
#1726=DIRECTION('',(-1.E0,0.E0,0.E0));
#1727=AXIS2_PLACEMENT_3D('',#1724,#1725,#1726);
#1728=PLANE('',#1727);
#1729=ORIENTED_EDGE('',*,*,#1500,.F.);
#1731=ORIENTED_EDGE('',*,*,#1730,.T.);
#1732=ORIENTED_EDGE('',*,*,#1653,.T.);
#1733=ORIENTED_EDGE('',*,*,#1717,.F.);
#1734=EDGE_LOOP('',(#1729,#1731,#1732,#1733));
#1735=FACE_OUTER_BOUND('',#1734,.F.);
#1737=CARTESIAN_POINT('',(2.018571473746E-3,0.E0,7.264437179028E-1));
#1738=DIRECTION('',(0.E0,1.E0,0.E0));
#1739=DIRECTION('',(1.E0,0.E0,0.E0));
#1740=AXIS2_PLACEMENT_3D('',#1737,#1738,#1739);
#1741=CYLINDRICAL_SURFACE('',#1740,5.103E-1);
#1742=ORIENTED_EDGE('',*,*,#1498,.F.);
#1744=ORIENTED_EDGE('',*,*,#1743,.T.);
#1745=ORIENTED_EDGE('',*,*,#1655,.T.);
#1746=ORIENTED_EDGE('',*,*,#1730,.F.);
#1747=EDGE_LOOP('',(#1742,#1744,#1745,#1746));
#1748=FACE_OUTER_BOUND('',#1747,.F.);
#1750=CARTESIAN_POINT('',(5.123185714737E-1,0.E0,-7.264437179028E-1));
#1751=DIRECTION('',(-1.E0,0.E0,0.E0));
#1752=DIRECTION('',(0.E0,0.E0,1.E0));
#1753=AXIS2_PLACEMENT_3D('',#1750,#1751,#1752);
#1754=PLANE('',#1753);
#1755=ORIENTED_EDGE('',*,*,#1496,.F.);
#1757=ORIENTED_EDGE('',*,*,#1756,.T.);
#1758=ORIENTED_EDGE('',*,*,#1657,.T.);
#1759=ORIENTED_EDGE('',*,*,#1743,.F.);
#1760=EDGE_LOOP('',(#1755,#1757,#1758,#1759));
#1761=FACE_OUTER_BOUND('',#1760,.F.);
#1763=CARTESIAN_POINT('',(2.018571473746E-3,0.E0,-7.264437179028E-1));
#1764=DIRECTION('',(0.E0,1.E0,0.E0));
#1765=DIRECTION('',(1.E0,0.E0,0.E0));
#1766=AXIS2_PLACEMENT_3D('',#1763,#1764,#1765);
#1767=CYLINDRICAL_SURFACE('',#1766,5.103E-1);
#1768=ORIENTED_EDGE('',*,*,#1494,.F.);
#1769=ORIENTED_EDGE('',*,*,#1680,.T.);
#1770=ORIENTED_EDGE('',*,*,#1659,.T.);
#1771=ORIENTED_EDGE('',*,*,#1756,.F.);
#1772=EDGE_LOOP('',(#1768,#1769,#1770,#1771));
#1773=FACE_OUTER_BOUND('',#1772,.F.);
#1775=CLOSED_SHELL('',(#1510,#1532,#1546,#1560,#1574,#1588,#1602,#1616,#1629,
#1663,#1684,#1697,#1710,#1723,#1736,#1749,#1762,#1774));
#1776=MANIFOLD_SOLID_BREP('',#1775);
#1779=PLANE_ANGLE_MEASURE_WITH_UNIT(PLANE_ANGLE_MEASURE(1.745329251994E-2),
#1778);
#1780=(CONVERSION_BASED_UNIT('DEGREE',#1779)NAMED_UNIT(*)PLANE_ANGLE_UNIT());
#1782=UNCERTAINTY_MEASURE_WITH_UNIT(LENGTH_MEASURE(4.183739436428E-4),#1777,
'distance_accuracy_value',
'Maximum model space distance between geometric entities at asserted connectivities');
#1784=CARTESIAN_POINT('',(0.E0,0.E0,0.E0));
#1785=DIRECTION('',(0.E0,0.E0,1.E0));
#1786=DIRECTION('',(1.E0,0.E0,0.E0));
#1789=PRODUCT_DEFINITION_CONTEXT('part definition',#900,'design');
#1790=PRODUCT_CONTEXT('',#900,'mechanical');
#1791=PRODUCT('YUAN10001400','YUAN10001400','NOT SPECIFIED',(#1790));
#1792=PRODUCT_DEFINITION_FORMATION('11','LAST_VERSION',#1791);
#1800=DERIVED_UNIT_ELEMENT(#1799,2.E0);
#1801=DERIVED_UNIT((#1800));
#1802=MEASURE_REPRESENTATION_ITEM('surface area measure',AREA_MEASURE(
5.911657215386E0),#1801);
#1807=DERIVED_UNIT_ELEMENT(#1806,3.E0);
#1808=DERIVED_UNIT((#1807));
#1809=MEASURE_REPRESENTATION_ITEM('volume measure',VOLUME_MEASURE(
3.256199302635E-2),#1808);
#1813=CARTESIAN_POINT('centre point',(0.E0,5.67E-3,0.E0));
#1818=DERIVED_UNIT_ELEMENT(#1817,2.E0);
#1819=DERIVED_UNIT((#1818));
#1820=MEASURE_REPRESENTATION_ITEM('surface area measure',AREA_MEASURE(
5.911657215386E0),#1819);
#1825=DERIVED_UNIT_ELEMENT(#1824,3.E0);
#1826=DERIVED_UNIT((#1825));
#1827=MEASURE_REPRESENTATION_ITEM('volume measure',VOLUME_MEASURE(
3.256199302635E-2),#1826);
#1831=CARTESIAN_POINT('centre point',(0.E0,5.67E-3,0.E0));
#1838=CARTESIAN_POINT('centre point',(4.879178412274E0,3.518004773421E1,
1.572930381379E-2));
#1842=CARTESIAN_POINT('',(4.878753288548E0,3.518004773421E1,2.138334394607E-2));
#1843=DIRECTION('',(-1.542616355501E-3,-9.999988034400E-1,-1.159883548312E-4));
#1844=DIRECTION('',(-9.971840153234E-1,1.546970755611E-3,-7.497763976678E-2));
#1845=AXIS2_PLACEMENT_3D('',#1842,#1843,#1844);
#1846=ITEM_DEFINED_TRANSFORMATION('','',#1787,#1845);
#1847=(REPRESENTATION_RELATIONSHIP('','',#1788,#951)REPRESENTATION_RELATIONSHIP_WITH_TRANSFORMATION(#1846)SHAPE_REPRESENTATION_RELATIONSHIP());
#1848=CONTEXT_DEPENDENT_SHAPE_REPRESENTATION(#1847,#1837);
#1851=CARTESIAN_POINT('centre point',(4.871060288231E0,2.991748565929E1,
1.511890716614E-2));
#1855=CARTESIAN_POINT('',(4.870635164505E0,2.991748565929E1,2.077294729843E-2));
#1856=DIRECTION('',(-1.542616355500E-3,-9.999988034400E-1,-1.159883548316E-4));
#1857=DIRECTION('',(-9.971840153234E-1,1.546970755611E-3,-7.497763976678E-2));
#1858=AXIS2_PLACEMENT_3D('',#1855,#1856,#1857);
#1859=ITEM_DEFINED_TRANSFORMATION('','',#1787,#1858);
#1860=(REPRESENTATION_RELATIONSHIP('','',#1788,#951)REPRESENTATION_RELATIONSHIP_WITH_TRANSFORMATION(#1859)SHAPE_REPRESENTATION_RELATIONSHIP());
#1861=CONTEXT_DEPENDENT_SHAPE_REPRESENTATION(#1860,#1850);
#1864=PLANE_ANGLE_MEASURE_WITH_UNIT(PLANE_ANGLE_MEASURE(1.745329251994E-2),
#1863);
#1865=(CONVERSION_BASED_UNIT('DEGREE',#1864)NAMED_UNIT(*)PLANE_ANGLE_UNIT());
#1867=UNCERTAINTY_MEASURE_WITH_UNIT(LENGTH_MEASURE(4.140998763258E-3),#1862,
'distance_accuracy_value',
'Maximum model space distance between geometric entities at asserted connectivities');
#1869=CARTESIAN_POINT('',(0.E0,0.E0,0.E0));
#1870=DIRECTION('',(0.E0,0.E0,1.E0));
#1871=DIRECTION('',(1.E0,0.E0,0.E0));
#1873=MECHANICAL_DESIGN_GEOMETRIC_PRESENTATION_REPRESENTATION('',(#367,#389,
#413,#434,#453,#478,#498,#523,#545,#567,#588,#609,#628,#651,#696,#718,#738,#767,
#789,#809,#826,#848,#868,#885,#1098,#1517,#1670),#1868);
#1874=PRODUCT_CONTEXT('',#900,'mechanical');
#1875=PRODUCT('10001400_ASM','10001400_ASM','NOT SPECIFIED',(#1874));
#1876=PRODUCT_DEFINITION_FORMATION('1','LAST_VERSION',#1875);
#1879=DERIVED_UNIT_ELEMENT(#1878,2.E0);
#1880=DERIVED_UNIT((#1879));
#1881=MEASURE_REPRESENTATION_ITEM('surface area measure',AREA_MEASURE(
7.735353933153E2),#1880);
#1886=DERIVED_UNIT_ELEMENT(#1885,3.E0);
#1887=DERIVED_UNIT((#1886));
#1888=MEASURE_REPRESENTATION_ITEM('volume measure',VOLUME_MEASURE(
1.101015377723E3),#1887);
#1892=CARTESIAN_POINT('centre point',(4.999992305572E0,3.174351901642E1,
-5.002032706847E0));
#1896=PRODUCT_RELATED_PRODUCT_CATEGORY('part','',(#1875,#904,#1139,#1791));
#1=DRAUGHTING_PRE_DEFINED_COLOUR('green');
#2=COLOUR_RGB('',1.1E-2,1.2E-2,1.E0);
#3=COLOUR_RGB('',1.607843137255E-1,1.607843137255E-1,1.803921568627E-1);
#4=COLOUR_RGB('',1.9E-1,1.9E-1,2.2E-1);
#5=COLOUR_RGB('',2.392156862745E-1,2.509803921569E-1,2.588235294118E-1);
#6=COLOUR_RGB('',4.1E-1,2.61589E-1,1.12848E-1);
#7=COLOUR_RGB('',5.04854E-1,1.5455E-2,1.5455E-2);
#8=COLOUR_RGB('',5.176470588235E-1,3.372549019608E-1,3.490196078431E-1);
#9=COLOUR_RGB('',6.40777E-1,6.40777E-1,6.40777E-1);
#10=COLOUR_RGB('',6.69062E-1,6.69903E-1,6.55217E-1);
#11=COLOUR_RGB('',7.843137254902E-1,7.843137254902E-1,2.078431372549E-1);
#12=COLOUR_RGB('',8.196078431373E-1,8.117647058824E-1,8.117647058824E-1);
#13=COLOUR_RGB('',8.588235294118E-1,8.705882352941E-1,3.098039215686E-1);
#14=COLOUR_RGB('',8.705882352941E-1,9.019607843137E-1,9.098039215686E-1);
#15=COLOUR_RGB('',9.21569E-1,7.05882E-1,4.70588E-1);
#16=DRAUGHTING_PRE_DEFINED_COLOUR('red');
#17=COLOUR_RGB('',1.E0,9.215686274510E-1,4.313725490196E-1);
#18=DRAUGHTING_PRE_DEFINED_COLOUR('yellow');
#19=COLOUR_RGB('',1.E0,1.E0,5.3E-1);
#20=COLOUR_RGB('',1.E0,1.E0,9.49E-1);
#21=DRAUGHTING_PRE_DEFINED_COLOUR('white');
#26=CIRCLE('',#25,4.749977422528E0);
#31=CIRCLE('',#30,4.749977422528E0);
#36=CIRCLE('',#35,3.7E0);
#41=CIRCLE('',#40,3.7E0);
#46=CIRCLE('',#45,2.5E-1);
#51=CIRCLE('',#50,4.999967160041E0);
#56=CIRCLE('',#55,4.781818181818E0);
#61=CIRCLE('',#60,8.E-1);
#66=CIRCLE('',#65,4.999967160041E0);
#71=CIRCLE('',#70,8.E-1);
#76=CIRCLE('',#75,2.5E-1);
#81=CIRCLE('',#80,3.E-1);
#86=CIRCLE('',#85,4.781818181818E0);
#91=CIRCLE('',#90,4.781818181818E0);
#96=CIRCLE('',#95,3.E-1);
#101=CIRCLE('',#100,4.781818181818E0);
#106=CIRCLE('',#105,4.781818181818E0);
#111=CIRCLE('',#110,5.E0);
#116=CIRCLE('',#115,4.781818181818E0);
#121=CIRCLE('',#120,8.E-1);
#126=CIRCLE('',#125,5.E0);
#135=CIRCLE('',#134,1.5E-1);
#140=CIRCLE('',#139,1.5E-1);
#145=CIRCLE('',#144,5.E0);
#150=CIRCLE('',#149,5.E0);
#155=CIRCLE('',#154,5.E0);
#164=CIRCLE('',#163,8.E-1);
#169=CIRCLE('',#168,4.85E0);
#174=CIRCLE('',#173,4.85E0);
#179=CIRCLE('',#178,3.75E0);
#184=CIRCLE('',#183,3.75E0);
#197=CIRCLE('',#196,3.75E0);
#202=CIRCLE('',#201,3.75E0);
#215=CIRCLE('',#214,3.7E0);
#220=CIRCLE('',#219,3.7E0);
#225=CIRCLE('',#224,3.E-1);
#230=CIRCLE('',#229,3.E-1);
#235=CIRCLE('',#234,3.E-1);
#240=CIRCLE('',#239,3.E-1);
#253=CIRCLE('',#252,3.E-1);
#258=CIRCLE('',#257,3.E-1);
#271=CIRCLE('',#270,3.E-1);
#276=CIRCLE('',#275,3.E-1);
#348=EDGE_CURVE('',#333,#334,#26,.T.);
#350=EDGE_CURVE('',#334,#333,#31,.T.);
#354=EDGE_CURVE('',#303,#304,#36,.T.);
#356=EDGE_CURVE('',#304,#303,#41,.T.);
#360=ADVANCED_FACE('',(#353,#359),#347,.F.);
#373=EDGE_CURVE('',#329,#330,#51,.T.);
#375=EDGE_CURVE('',#330,#334,#76,.T.);
#378=EDGE_CURVE('',#329,#333,#46,.T.);
#382=ADVANCED_FACE('',(#381),#372,.T.);
#396=EDGE_CURVE('',#329,#292,#71,.T.);
#398=EDGE_CURVE('',#292,#295,#56,.T.);
#400=EDGE_CURVE('',#326,#295,#91,.T.);
#402=EDGE_CURVE('',#330,#326,#61,.T.);
#406=ADVANCED_FACE('',(#405),#394,.T.);
#419=EDGE_CURVE('',#330,#329,#66,.T.);
#422=EDGE_CURVE('',#292,#326,#86,.T.);
#427=ADVANCED_FACE('',(#426),#418,.T.);
#446=ADVANCED_FACE('',(#445),#439,.T.);
#459=EDGE_CURVE('',#291,#292,#81,.T.);
#463=EDGE_CURVE('',#295,#296,#96,.T.);
#465=EDGE_CURVE('',#296,#322,#101,.T.);
#467=EDGE_CURVE('',#322,#291,#106,.T.);
#471=ADVANCED_FACE('',(#470),#458,.F.);
#485=EDGE_CURVE('',#296,#291,#116,.T.);
#491=ADVANCED_FACE('',(#490),#483,.F.);
#504=EDGE_CURVE('',#286,#288,#111,.T.);
#506=EDGE_CURVE('',#288,#322,#164,.T.);
#510=EDGE_CURVE('',#324,#291,#121,.T.);
#512=EDGE_CURVE('',#324,#286,#150,.T.);
#516=ADVANCED_FACE('',(#515),#503,.T.);
#529=EDGE_CURVE('',#279,#280,#126,.T.);
#531=EDGE_CURVE('',#288,#279,#159,.T.);
#534=EDGE_CURVE('',#286,#280,#130,.T.);
#538=ADVANCED_FACE('',(#537),#528,.T.);
#552=EDGE_CURVE('',#280,#284,#140,.T.);
#554=EDGE_CURVE('',#283,#284,#169,.T.);
#556=EDGE_CURVE('',#279,#283,#135,.T.);
#560=ADVANCED_FACE('',(#559),#550,.T.);
#573=EDGE_CURVE('',#280,#279,#145,.T.);
#576=EDGE_CURVE('',#284,#283,#174,.T.);
#581=ADVANCED_FACE('',(#580),#572,.T.);
#597=EDGE_CURVE('',#288,#324,#155,.T.);
#602=ADVANCED_FACE('',(#601),#593,.T.);
#621=ADVANCED_FACE('',(#620),#614,.T.);
#638=EDGE_CURVE('',#341,#342,#179,.T.);
#640=EDGE_CURVE('',#342,#341,#184,.T.);
#644=ADVANCED_FACE('',(#637,#643),#633,.T.);
#658=EDGE_CURVE('',#341,#337,#188,.T.);
#660=EDGE_CURVE('',#337,#338,#197,.T.);
#662=EDGE_CURVE('',#342,#338,#192,.T.);
#666=ADVANCED_FACE('',(#665),#656,.F.);
#674=EDGE_CURVE('',#338,#337,#202,.T.);
#679=ADVANCED_FACE('',(#678),#671,.F.);
#689=ADVANCED_FACE('',(#688),#684,.T.);
#703=EDGE_CURVE('',#303,#299,#206,.T.);
#705=EDGE_CURVE('',#299,#300,#215,.T.);
#707=EDGE_CURVE('',#304,#300,#210,.T.);
#711=ADVANCED_FACE('',(#710),#701,.F.);
#726=EDGE_CURVE('',#300,#299,#220,.T.);
#731=ADVANCED_FACE('',(#730),#723,.F.);
#748=EDGE_CURVE('',#311,#312,#225,.T.);
#750=EDGE_CURVE('',#312,#311,#230,.T.);
#754=EDGE_CURVE('',#319,#320,#235,.T.);
#756=EDGE_CURVE('',#320,#319,#240,.T.);
#760=ADVANCED_FACE('',(#747,#753,#759),#743,.T.);
#774=EDGE_CURVE('',#311,#307,#244,.T.);
#776=EDGE_CURVE('',#307,#308,#253,.T.);
#778=EDGE_CURVE('',#312,#308,#248,.T.);
#782=ADVANCED_FACE('',(#781),#772,.T.);
#797=EDGE_CURVE('',#308,#307,#258,.T.);
#802=ADVANCED_FACE('',(#801),#794,.T.);
#819=ADVANCED_FACE('',(#818),#814,.T.);
#833=EDGE_CURVE('',#319,#315,#262,.T.);
#835=EDGE_CURVE('',#315,#316,#271,.T.);
#837=EDGE_CURVE('',#320,#316,#266,.T.);
#841=ADVANCED_FACE('',(#840),#831,.T.);
#856=EDGE_CURVE('',#316,#315,#276,.T.);
#861=ADVANCED_FACE('',(#860),#853,.T.);
#878=ADVANCED_FACE('',(#877),#873,.T.);
#888=(LENGTH_UNIT()NAMED_UNIT(*)SI_UNIT(.MILLI.,.METRE.));
#889=(NAMED_UNIT(*)PLANE_ANGLE_UNIT()SI_UNIT($,.RADIAN.));
#892=(NAMED_UNIT(*)SI_UNIT($,.STERADIAN.)SOLID_ANGLE_UNIT());
#894=(GEOMETRIC_REPRESENTATION_CONTEXT(3)GLOBAL_UNCERTAINTY_ASSIGNED_CONTEXT((
#893))GLOBAL_UNIT_ASSIGNED_CONTEXT((#888,#891,#892))REPRESENTATION_CONTEXT
('ID1','3'));
#898=AXIS2_PLACEMENT_3D('',#895,#896,#897);
#899=ADVANCED_BREP_SHAPE_REPRESENTATION('',(#898,#887),#894);
#906=PRODUCT_DEFINITION('part definition','',#905,#902);
#907=PRODUCT_DEFINITION_SHAPE('','SHAPE FOR 1000140000.',#906);
#908=SHAPE_ASPECT('','solid data associated with 1000140000',#907,.F.);
#909=PROPERTY_DEFINITION('',
'shape for solid data with which properties are associated',#908);
#910=SHAPE_REPRESENTATION('',(#887),#894);
#911=SHAPE_DEFINITION_REPRESENTATION(#909,#910);
#912=(LENGTH_UNIT()NAMED_UNIT(*)SI_UNIT(.MILLI.,.METRE.));
#916=PROPERTY_DEFINITION('geometric validation property','area of 1000140000',
#908);
#917=REPRESENTATION('surface area',(#915),#894);
#918=PROPERTY_DEFINITION_REPRESENTATION(#916,#917);
#919=(LENGTH_UNIT()NAMED_UNIT(*)SI_UNIT(.MILLI.,.METRE.));
#923=PROPERTY_DEFINITION('geometric validation property','volume of 1000140000',
#908);
#924=REPRESENTATION('volume',(#922),#894);
#925=PROPERTY_DEFINITION_REPRESENTATION(#923,#924);
#927=PROPERTY_DEFINITION('geometric validation property',
'centroid of 1000140000',#908);
#928=REPRESENTATION('centroid',(#926),#894);
#929=PROPERTY_DEFINITION_REPRESENTATION(#927,#928);
#930=(LENGTH_UNIT()NAMED_UNIT(*)SI_UNIT(.MILLI.,.METRE.));
#934=PROPERTY_DEFINITION('geometric validation property','area of 1000140000',
#907);
#935=REPRESENTATION('surface area',(#933),#894);
#936=PROPERTY_DEFINITION_REPRESENTATION(#934,#935);
#937=(LENGTH_UNIT()NAMED_UNIT(*)SI_UNIT(.MILLI.,.METRE.));
#941=PROPERTY_DEFINITION('geometric validation property','volume of 1000140000',
#907);
#942=REPRESENTATION('volume',(#940),#894);
#943=PROPERTY_DEFINITION_REPRESENTATION(#941,#942);
#945=PROPERTY_DEFINITION('geometric validation property',
'centroid of 1000140000',#907);
#946=REPRESENTATION('centroid',(#944),#894);
#947=PROPERTY_DEFINITION_REPRESENTATION(#945,#946);
#948=SHAPE_DEFINITION_REPRESENTATION(#907,#899);
#949=SHAPE_DEFINITION_REPRESENTATION(#950,#951);
#950=PRODUCT_DEFINITION_SHAPE('','SHAPE FOR 10001400_ASM.',#1877);
#951=SHAPE_REPRESENTATION('',(#961,#1193,#1845,#1858,#1872),#1868);
#952=NEXT_ASSEMBLY_USAGE_OCCURRENCE('31','Next assembly relationship',
'\X2\5F157EBF\X0\10001400',#1877,#906,$);
#953=PRODUCT_DEFINITION_SHAPE('Placement #31',
'Placement of 1000140000 with respect to 10001400_ASM',#952);
#955=PROPERTY_DEFINITION('geometric validation property',
'centroid of \X2\5F157EBF\X0\10001400',#953);
#956=REPRESENTATION('centroid',(#954),#894);
#957=PROPERTY_DEFINITION_REPRESENTATION(#955,#956);
#969=CIRCLE('',#968,5.E0);
#978=CIRCLE('',#977,5.005E0);
#1003=CIRCLE('',#1002,5.E0);
#1012=CIRCLE('',#1011,5.005E0);
#1038=EDGE_CURVE('',#1019,#1020,#969,.T.);
#1040=EDGE_CURVE('',#1020,#1022,#973,.T.);
#1042=EDGE_CURVE('',#1022,#1024,#978,.T.);
#1044=EDGE_CURVE('',#1024,#1019,#982,.T.);
#1048=ADVANCED_FACE('',(#1047),#1037,.F.);
#1055=EDGE_CURVE('',#1019,#1027,#986,.T.);
#1057=EDGE_CURVE('',#1027,#1028,#1003,.T.);
#1059=EDGE_CURVE('',#1020,#1028,#998,.T.);
#1063=ADVANCED_FACE('',(#1062),#1053,.F.);
#1070=EDGE_CURVE('',#1024,#1032,#990,.T.);
#1072=EDGE_CURVE('',#1032,#1027,#1007,.T.);
#1077=ADVANCED_FACE('',(#1076),#1068,.T.);
#1084=EDGE_CURVE('',#1022,#1030,#994,.T.);
#1086=EDGE_CURVE('',#1030,#1032,#1012,.T.);
#1091=ADVANCED_FACE('',(#1090),#1082,.T.);
#1106=EDGE_CURVE('',#1028,#1030,#1016,.T.);
#1111=ADVANCED_FACE('',(#1110),#1103,.T.);
#1123=ADVANCED_FACE('',(#1122),#1116,.T.);
#1126=(LENGTH_UNIT()NAMED_UNIT(*)SI_UNIT(.MILLI.,.METRE.));
#1127=(NAMED_UNIT(*)PLANE_ANGLE_UNIT()SI_UNIT($,.RADIAN.));
#1130=(NAMED_UNIT(*)SI_UNIT($,.STERADIAN.)SOLID_ANGLE_UNIT());
#1132=(GEOMETRIC_REPRESENTATION_CONTEXT(3)GLOBAL_UNCERTAINTY_ASSIGNED_CONTEXT((
#1131))GLOBAL_UNIT_ASSIGNED_CONTEXT((#1126,#1129,#1130))REPRESENTATION_CONTEXT(
'ID2','3'));
#1136=AXIS2_PLACEMENT_3D('',#1133,#1134,#1135);
#1137=ADVANCED_BREP_SHAPE_REPRESENTATION('',(#1136,#1125),#1132);
#1141=PRODUCT_DEFINITION('part definition','',#1140,#902);
#1142=PRODUCT_DEFINITION_SHAPE('','SHAPE FOR FJB10001400.',#1141);
#1143=SHAPE_ASPECT('','solid data associated with FJB10001400',#1142,.F.);
#1144=PROPERTY_DEFINITION('',
'shape for solid data with which properties are associated',#1143);
#1145=SHAPE_REPRESENTATION('',(#1125),#1132);
#1146=SHAPE_DEFINITION_REPRESENTATION(#1144,#1145);
#1147=(LENGTH_UNIT()NAMED_UNIT(*)SI_UNIT(.MILLI.,.METRE.));
#1151=PROPERTY_DEFINITION('geometric validation property','area of FJB10001400',
#1143);
#1152=REPRESENTATION('surface area',(#1150),#1132);
#1153=PROPERTY_DEFINITION_REPRESENTATION(#1151,#1152);
#1154=(LENGTH_UNIT()NAMED_UNIT(*)SI_UNIT(.MILLI.,.METRE.));
#1158=PROPERTY_DEFINITION('geometric validation property',
'volume of FJB10001400',#1143);
#1159=REPRESENTATION('volume',(#1157),#1132);
#1160=PROPERTY_DEFINITION_REPRESENTATION(#1158,#1159);
#1162=PROPERTY_DEFINITION('geometric validation property',
'centroid of FJB10001400',#1143);
#1163=REPRESENTATION('centroid',(#1161),#1132);
#1164=PROPERTY_DEFINITION_REPRESENTATION(#1162,#1163);
#1165=(LENGTH_UNIT()NAMED_UNIT(*)SI_UNIT(.MILLI.,.METRE.));
#1169=PROPERTY_DEFINITION('geometric validation property','area of FJB10001400',
#1142);
#1170=REPRESENTATION('surface area',(#1168),#1132);
#1171=PROPERTY_DEFINITION_REPRESENTATION(#1169,#1170);
#1172=(LENGTH_UNIT()NAMED_UNIT(*)SI_UNIT(.MILLI.,.METRE.));
#1176=PROPERTY_DEFINITION('geometric validation property',
'volume of FJB10001400',#1142);
#1177=REPRESENTATION('volume',(#1175),#1132);
#1178=PROPERTY_DEFINITION_REPRESENTATION(#1176,#1177);
#1180=PROPERTY_DEFINITION('geometric validation property',
'centroid of FJB10001400',#1142);
#1181=REPRESENTATION('centroid',(#1179),#1132);
#1182=PROPERTY_DEFINITION_REPRESENTATION(#1180,#1181);
#1183=SHAPE_DEFINITION_REPRESENTATION(#1142,#1137);
#1184=NEXT_ASSEMBLY_USAGE_OCCURRENCE('32','Next assembly relationship',
'FJB10001400',#1877,#1141,$);
#1185=PRODUCT_DEFINITION_SHAPE('Placement #32',
'Placement of FJB10001400 with respect to 10001400_ASM',#1184);
#1187=PROPERTY_DEFINITION('geometric validation property',
'centroid of FJB10001400',#1185);
#1188=REPRESENTATION('centroid',(#1186),#1132);
#1189=PROPERTY_DEFINITION_REPRESENTATION(#1187,#1188);
#1201=CIRCLE('',#1200,8.3916E-1);
#1210=CIRCLE('',#1209,8.3916E-1);
#1219=CIRCLE('',#1218,8.3916E-1);
#1228=CIRCLE('',#1227,8.3916E-1);
#1241=CIRCLE('',#1240,5.103E-1);
#1250=CIRCLE('',#1249,5.103E-1);
#1259=CIRCLE('',#1258,5.103E-1);
#1268=CIRCLE('',#1267,5.103E-1);
#1305=CIRCLE('',#1304,8.3916E-1);
#1314=CIRCLE('',#1313,8.3916E-1);
#1323=CIRCLE('',#1322,8.3916E-1);
#1332=CIRCLE('',#1331,8.3916E-1);
#1345=CIRCLE('',#1344,5.103E-1);
#1354=CIRCLE('',#1353,5.103E-1);
#1363=CIRCLE('',#1362,5.103E-1);
#1372=CIRCLE('',#1371,5.103E-1);
#1474=EDGE_CURVE('',#1407,#1408,#1201,.T.);
#1476=EDGE_CURVE('',#1408,#1410,#1205,.T.);
#1478=EDGE_CURVE('',#1410,#1412,#1210,.T.);
#1480=EDGE_CURVE('',#1412,#1414,#1214,.T.);
#1482=EDGE_CURVE('',#1414,#1416,#1219,.T.);
#1484=EDGE_CURVE('',#1416,#1418,#1223,.T.);
#1486=EDGE_CURVE('',#1418,#1420,#1228,.T.);
#1488=EDGE_CURVE('',#1420,#1407,#1232,.T.);
#1492=EDGE_CURVE('',#1423,#1424,#1236,.T.);
#1494=EDGE_CURVE('',#1424,#1426,#1241,.T.);
#1496=EDGE_CURVE('',#1426,#1428,#1245,.T.);
#1498=EDGE_CURVE('',#1428,#1430,#1250,.T.);
#1500=EDGE_CURVE('',#1430,#1432,#1254,.T.);
#1502=EDGE_CURVE('',#1432,#1434,#1259,.T.);
#1504=EDGE_CURVE('',#1434,#1436,#1263,.T.);
#1506=EDGE_CURVE('',#1436,#1423,#1268,.T.);
#1510=ADVANCED_FACE('',(#1491,#1509),#1473,.F.);
#1524=EDGE_CURVE('',#1407,#1439,#1272,.T.);
#1526=EDGE_CURVE('',#1439,#1440,#1305,.T.);
#1528=EDGE_CURVE('',#1408,#1440,#1300,.T.);
#1532=ADVANCED_FACE('',(#1531),#1522,.T.);
#1539=EDGE_CURVE('',#1420,#1452,#1276,.T.);
#1541=EDGE_CURVE('',#1452,#1439,#1309,.T.);
#1546=ADVANCED_FACE('',(#1545),#1537,.T.);
#1553=EDGE_CURVE('',#1418,#1450,#1280,.T.);
#1555=EDGE_CURVE('',#1450,#1452,#1314,.T.);
#1560=ADVANCED_FACE('',(#1559),#1551,.T.);
#1567=EDGE_CURVE('',#1416,#1448,#1284,.T.);
#1569=EDGE_CURVE('',#1448,#1450,#1318,.T.);
#1574=ADVANCED_FACE('',(#1573),#1565,.T.);
#1581=EDGE_CURVE('',#1414,#1446,#1288,.T.);
#1583=EDGE_CURVE('',#1446,#1448,#1323,.T.);
#1588=ADVANCED_FACE('',(#1587),#1579,.T.);
#1595=EDGE_CURVE('',#1412,#1444,#1292,.T.);
#1597=EDGE_CURVE('',#1444,#1446,#1327,.T.);
#1602=ADVANCED_FACE('',(#1601),#1593,.T.);
#1609=EDGE_CURVE('',#1410,#1442,#1296,.T.);
#1611=EDGE_CURVE('',#1442,#1444,#1332,.T.);
#1616=ADVANCED_FACE('',(#1615),#1607,.T.);
#1624=EDGE_CURVE('',#1440,#1442,#1336,.T.);
#1629=ADVANCED_FACE('',(#1628),#1621,.T.);
#1645=EDGE_CURVE('',#1455,#1456,#1340,.T.);
#1647=EDGE_CURVE('',#1468,#1455,#1345,.T.);
#1649=EDGE_CURVE('',#1466,#1468,#1349,.T.);
#1651=EDGE_CURVE('',#1464,#1466,#1354,.T.);
#1653=EDGE_CURVE('',#1462,#1464,#1358,.T.);
#1655=EDGE_CURVE('',#1460,#1462,#1363,.T.);
#1657=EDGE_CURVE('',#1458,#1460,#1367,.T.);
#1659=EDGE_CURVE('',#1456,#1458,#1372,.T.);
#1663=ADVANCED_FACE('',(#1644,#1662),#1634,.T.);
#1677=EDGE_CURVE('',#1423,#1455,#1376,.T.);
#1680=EDGE_CURVE('',#1424,#1456,#1404,.T.);
#1684=ADVANCED_FACE('',(#1683),#1675,.T.);
#1691=EDGE_CURVE('',#1436,#1468,#1380,.T.);
#1697=ADVANCED_FACE('',(#1696),#1689,.F.);
#1704=EDGE_CURVE('',#1434,#1466,#1384,.T.);
#1710=ADVANCED_FACE('',(#1709),#1702,.T.);
#1717=EDGE_CURVE('',#1432,#1464,#1388,.T.);
#1723=ADVANCED_FACE('',(#1722),#1715,.F.);
#1730=EDGE_CURVE('',#1430,#1462,#1392,.T.);
#1736=ADVANCED_FACE('',(#1735),#1728,.T.);
#1743=EDGE_CURVE('',#1428,#1460,#1396,.T.);
#1749=ADVANCED_FACE('',(#1748),#1741,.F.);
#1756=EDGE_CURVE('',#1426,#1458,#1400,.T.);
#1762=ADVANCED_FACE('',(#1761),#1754,.T.);
#1774=ADVANCED_FACE('',(#1773),#1767,.F.);
#1777=(LENGTH_UNIT()NAMED_UNIT(*)SI_UNIT(.MILLI.,.METRE.));
#1778=(NAMED_UNIT(*)PLANE_ANGLE_UNIT()SI_UNIT($,.RADIAN.));
#1781=(NAMED_UNIT(*)SI_UNIT($,.STERADIAN.)SOLID_ANGLE_UNIT());
#1783=(GEOMETRIC_REPRESENTATION_CONTEXT(3)GLOBAL_UNCERTAINTY_ASSIGNED_CONTEXT((
#1782))GLOBAL_UNIT_ASSIGNED_CONTEXT((#1777,#1780,#1781))REPRESENTATION_CONTEXT(
'ID3','3'));
#1787=AXIS2_PLACEMENT_3D('',#1784,#1785,#1786);
#1788=ADVANCED_BREP_SHAPE_REPRESENTATION('',(#1787,#1776),#1783);
#1793=PRODUCT_DEFINITION('part definition','',#1792,#1789);
#1794=PRODUCT_DEFINITION_SHAPE('','SHAPE FOR YUAN10001400.',#1793);
#1795=SHAPE_ASPECT('','solid data associated with YUAN10001400',#1794,.F.);
#1796=PROPERTY_DEFINITION('',
'shape for solid data with which properties are associated',#1795);
#1797=SHAPE_REPRESENTATION('',(#1776),#1783);
#1798=SHAPE_DEFINITION_REPRESENTATION(#1796,#1797);
#1799=(LENGTH_UNIT()NAMED_UNIT(*)SI_UNIT(.MILLI.,.METRE.));
#1803=PROPERTY_DEFINITION('geometric validation property',
'area of YUAN10001400',#1795);
#1804=REPRESENTATION('surface area',(#1802),#1783);
#1805=PROPERTY_DEFINITION_REPRESENTATION(#1803,#1804);
#1806=(LENGTH_UNIT()NAMED_UNIT(*)SI_UNIT(.MILLI.,.METRE.));
#1810=PROPERTY_DEFINITION('geometric validation property',
'volume of YUAN10001400',#1795);
#1811=REPRESENTATION('volume',(#1809),#1783);
#1812=PROPERTY_DEFINITION_REPRESENTATION(#1810,#1811);
#1814=PROPERTY_DEFINITION('geometric validation property',
'centroid of YUAN10001400',#1795);
#1815=REPRESENTATION('centroid',(#1813),#1783);
#1816=PROPERTY_DEFINITION_REPRESENTATION(#1814,#1815);
#1817=(LENGTH_UNIT()NAMED_UNIT(*)SI_UNIT(.MILLI.,.METRE.));
#1821=PROPERTY_DEFINITION('geometric validation property',
'area of YUAN10001400',#1794);
#1822=REPRESENTATION('surface area',(#1820),#1783);
#1823=PROPERTY_DEFINITION_REPRESENTATION(#1821,#1822);
#1824=(LENGTH_UNIT()NAMED_UNIT(*)SI_UNIT(.MILLI.,.METRE.));
#1828=PROPERTY_DEFINITION('geometric validation property',
'volume of YUAN10001400',#1794);
#1829=REPRESENTATION('volume',(#1827),#1783);
#1830=PROPERTY_DEFINITION_REPRESENTATION(#1828,#1829);
#1832=PROPERTY_DEFINITION('geometric validation property',
'centroid of YUAN10001400',#1794);
#1833=REPRESENTATION('centroid',(#1831),#1783);
#1834=PROPERTY_DEFINITION_REPRESENTATION(#1832,#1833);
#1835=SHAPE_DEFINITION_REPRESENTATION(#1794,#1788);
#1836=NEXT_ASSEMBLY_USAGE_OCCURRENCE('33','Next assembly relationship',
'YUAN10001400',#1877,#1793,$);
#1837=PRODUCT_DEFINITION_SHAPE('Placement #33',
'Placement of YUAN10001400 with respect to 10001400_ASM',#1836);
#1839=PROPERTY_DEFINITION('geometric validation property',
'centroid of YUAN10001400',#1837);
#1840=REPRESENTATION('centroid',(#1838),#1783);
#1841=PROPERTY_DEFINITION_REPRESENTATION(#1839,#1840);
#1849=NEXT_ASSEMBLY_USAGE_OCCURRENCE('34','Next assembly relationship',
'YUAN10001400',#1877,#1793,$);
#1850=PRODUCT_DEFINITION_SHAPE('Placement #34',
'Placement of YUAN10001400 with respect to 10001400_ASM',#1849);
#1852=PROPERTY_DEFINITION('geometric validation property',
'centroid of YUAN10001400',#1850);
#1853=REPRESENTATION('centroid',(#1851),#1783);
#1854=PROPERTY_DEFINITION_REPRESENTATION(#1852,#1853);
#1862=(LENGTH_UNIT()NAMED_UNIT(*)SI_UNIT(.MILLI.,.METRE.));
#1863=(NAMED_UNIT(*)PLANE_ANGLE_UNIT()SI_UNIT($,.RADIAN.));
#1866=(NAMED_UNIT(*)SI_UNIT($,.STERADIAN.)SOLID_ANGLE_UNIT());
#1868=(GEOMETRIC_REPRESENTATION_CONTEXT(3)GLOBAL_UNCERTAINTY_ASSIGNED_CONTEXT((
#1867))GLOBAL_UNIT_ASSIGNED_CONTEXT((#1862,#1865,#1866))REPRESENTATION_CONTEXT(
'ID4','3'));
#1872=AXIS2_PLACEMENT_3D('',#1869,#1870,#1871);
#1877=PRODUCT_DEFINITION('part definition','',#1876,#1789);
#1878=(LENGTH_UNIT()NAMED_UNIT(*)SI_UNIT(.MILLI.,.METRE.));
#1882=PROPERTY_DEFINITION('geometric validation property',
'area of 10001400_ASM',#950);
#1883=REPRESENTATION('surface area',(#1881),#1868);
#1884=PROPERTY_DEFINITION_REPRESENTATION(#1882,#1883);
#1885=(LENGTH_UNIT()NAMED_UNIT(*)SI_UNIT(.MILLI.,.METRE.));
#1889=PROPERTY_DEFINITION('geometric validation property',
'volume of 10001400_ASM',#950);
#1890=REPRESENTATION('volume',(#1888),#1868);
#1891=PROPERTY_DEFINITION_REPRESENTATION(#1889,#1890);
#1893=PROPERTY_DEFINITION('geometric validation property',
'centroid of 10001400_ASM',#950);
#1894=REPRESENTATION('centroid',(#1892),#1868);
#1895=PROPERTY_DEFINITION_REPRESENTATION(#1893,#1894);
ENDSEC;
END-ISO-10303-21;
