ISO-10303-21;
HEADER;
FILE_DESCRIPTION((''),'2;1');
FILE_NAME('ASM0017_ASM','2025-09-25T11:24:34',('Administrator'),(''),
'CREO PARAMETRIC BY PTC INC, 2018100','CREO PARAMETRIC BY PTC INC, 2018100','');
FILE_SCHEMA(('AUTOMOTIVE_DESIGN { 1 0 10303 214 1 1 1 1 }'));
ENDSEC;
DATA;
#22=CARTESIAN_POINT('',(0.E0,0.E0,0.E0));
#23=DIRECTION('',(0.E0,1.E0,0.E0));
#24=DIRECTION('',(6.777233546936E-12,0.E0,1.E0));
#25=AXIS2_PLACEMENT_3D('',#22,#23,#24);
#27=CARTESIAN_POINT('',(0.E0,0.E0,0.E0));
#28=DIRECTION('',(0.E0,1.E0,0.E0));
#29=DIRECTION('',(-1.E0,0.E0,3.175212295479E-12));
#30=AXIS2_PLACEMENT_3D('',#27,#28,#29);
#32=CARTESIAN_POINT('',(0.E0,0.E0,0.E0));
#33=DIRECTION('',(0.E0,-1.E0,0.E0));
#34=DIRECTION('',(0.E0,0.E0,1.E0));
#35=AXIS2_PLACEMENT_3D('',#32,#33,#34);
#37=CARTESIAN_POINT('',(0.E0,0.E0,0.E0));
#38=DIRECTION('',(0.E0,-1.E0,0.E0));
#39=DIRECTION('',(0.E0,0.E0,-1.E0));
#40=AXIS2_PLACEMENT_3D('',#37,#38,#39);
#42=CARTESIAN_POINT('',(6.066938618154E-12,2.5E-1,4.749977422528E0));
#43=DIRECTION('',(1.E0,0.E0,-1.277257813403E-12));
#44=DIRECTION('',(1.277205382035E-12,9.060806412657E-3,9.999589500510E-1));
#45=AXIS2_PLACEMENT_3D('',#42,#43,#44);
#47=CARTESIAN_POINT('',(0.E0,2.522652016032E-1,0.E0));
#48=DIRECTION('',(0.E0,1.E0,0.E0));
#49=DIRECTION('',(1.520719934932E-12,0.E0,1.E0));
#50=AXIS2_PLACEMENT_3D('',#47,#48,#49);
#52=CARTESIAN_POINT('',(0.E0,7.940954244926E-1,0.E0));
#53=DIRECTION('',(0.E0,1.E0,0.E0));
#54=DIRECTION('',(-3.737296567487E-12,0.E0,1.E0));
#55=AXIS2_PLACEMENT_3D('',#52,#53,#54);
#57=CARTESIAN_POINT('',(-4.2E0,2.450165564729E-1,-1.073516275873E-12));
#58=DIRECTION('',(2.555993611209E-13,0.E0,-1.E0));
#59=DIRECTION('',(-9.999589500510E-1,9.060806412862E-3,-2.555888687801E-13));
#60=AXIS2_PLACEMENT_3D('',#57,#58,#59);
#62=CARTESIAN_POINT('',(0.E0,2.522652016032E-1,0.E0));
#63=DIRECTION('',(0.E0,1.E0,0.E0));
#64=DIRECTION('',(-1.E0,0.E0,-2.556111013686E-13));
#65=AXIS2_PLACEMENT_3D('',#62,#63,#64);
#67=CARTESIAN_POINT('',(6.386578765838E-12,2.450165564729E-1,4.2E0));
#68=DIRECTION('',(-1.E0,0.E0,1.520613496231E-12));
#69=DIRECTION('',(1.520551075124E-12,9.060806412864E-3,9.999589500510E-1));
#70=AXIS2_PLACEMENT_3D('',#67,#68,#69);
#72=CARTESIAN_POINT('',(-4.749977422528E0,2.5E-1,-1.775225799694E-12));
#73=DIRECTION('',(-3.737340298349E-13,0.E0,1.E0));
#74=DIRECTION('',(-9.999589500510E-1,9.060806412836E-3,-3.737186880720E-13));
#75=AXIS2_PLACEMENT_3D('',#72,#73,#74);
#77=CARTESIAN_POINT('',(0.E0,1.E0,5.E0));
#78=DIRECTION('',(-1.E0,0.E0,0.E0));
#79=DIRECTION('',(0.E0,6.863485850246E-1,-7.272727272727E-1));
#80=AXIS2_PLACEMENT_3D('',#77,#78,#79);
#82=CARTESIAN_POINT('',(0.E0,7.940954244926E-1,0.E0));
#83=DIRECTION('',(0.E0,-1.E0,0.E0));
#84=DIRECTION('',(0.E0,0.E0,1.E0));
#85=AXIS2_PLACEMENT_3D('',#82,#83,#84);
#87=CARTESIAN_POINT('',(0.E0,7.940954244926E-1,0.E0));
#88=DIRECTION('',(0.E0,-1.E0,0.E0));
#89=DIRECTION('',(-1.E0,0.E0,0.E0));
#90=AXIS2_PLACEMENT_3D('',#87,#88,#89);
#92=CARTESIAN_POINT('',(0.E0,1.E0,-5.E0));
#93=DIRECTION('',(-1.E0,0.E0,0.E0));
#94=DIRECTION('',(0.E0,-6.863485850246E-1,7.272727272727E-1));
#95=AXIS2_PLACEMENT_3D('',#92,#93,#94);
#97=CARTESIAN_POINT('',(0.E0,1.205904575507E0,0.E0));
#98=DIRECTION('',(0.E0,1.E0,0.E0));
#99=DIRECTION('',(0.E0,0.E0,-1.E0));
#100=AXIS2_PLACEMENT_3D('',#97,#98,#99);
#102=CARTESIAN_POINT('',(0.E0,1.205904575507E0,0.E0));
#103=DIRECTION('',(0.E0,1.E0,0.E0));
#104=DIRECTION('',(-1.E0,0.E0,0.E0));
#105=AXIS2_PLACEMENT_3D('',#102,#103,#104);
#107=CARTESIAN_POINT('',(0.E0,1.754983443527E0,0.E0));
#108=DIRECTION('',(0.E0,1.E0,0.E0));
#109=DIRECTION('',(1.E0,0.E0,0.E0));
#110=AXIS2_PLACEMENT_3D('',#107,#108,#109);
#112=CARTESIAN_POINT('',(0.E0,1.205904575507E0,0.E0));
#113=DIRECTION('',(0.E0,-1.E0,0.E0));
#114=DIRECTION('',(-1.109311866066E-12,0.E0,-1.E0));
#115=AXIS2_PLACEMENT_3D('',#112,#113,#114);
#117=CARTESIAN_POINT('',(-1.570062829748E-11,1.754983443527E0,4.2E0));
#118=DIRECTION('',(1.E0,0.E0,3.738244089280E-12));
#119=DIRECTION('',(-3.738244089280E-12,-1.165734175856E-14,1.E0));
#120=AXIS2_PLACEMENT_3D('',#117,#118,#119);
#122=CARTESIAN_POINT('',(0.E0,1.235E1,0.E0));
#123=DIRECTION('',(0.E0,-1.E0,0.E0));
#124=DIRECTION('',(-1.E0,0.E0,0.E0));
#125=AXIS2_PLACEMENT_3D('',#122,#123,#124);
#127=DIRECTION('',(0.E0,1.E0,-5.003908242944E-14));
#128=VECTOR('',#127,1.059501655647E1);
#129=CARTESIAN_POINT('',(5.E0,1.754983443527E0,5.402173279157E-13));
#130=LINE('',#129,#128);
#131=CARTESIAN_POINT('',(-4.85E0,1.235E1,1.792420378788E-13));
#132=DIRECTION('',(-3.695741629395E-14,0.E0,-1.E0));
#133=DIRECTION('',(-1.E0,0.E0,3.695741629395E-14));
#134=AXIS2_PLACEMENT_3D('',#131,#132,#133);
#136=CARTESIAN_POINT('',(4.85E0,1.235E1,-1.803140969869E-13));
#137=DIRECTION('',(3.717859353713E-14,0.E0,1.E0));
#138=DIRECTION('',(1.E0,0.E0,-3.717859353713E-14));
#139=AXIS2_PLACEMENT_3D('',#136,#137,#138);
#141=CARTESIAN_POINT('',(0.E0,1.235E1,0.E0));
#142=DIRECTION('',(0.E0,-1.E0,0.E0));
#143=DIRECTION('',(1.E0,0.E0,0.E0));
#144=AXIS2_PLACEMENT_3D('',#141,#142,#143);
#146=CARTESIAN_POINT('',(0.E0,1.754983443527E0,0.E0));
#147=DIRECTION('',(0.E0,1.E0,0.E0));
#148=DIRECTION('',(0.E0,0.E0,1.E0));
#149=AXIS2_PLACEMENT_3D('',#146,#147,#148);
#151=CARTESIAN_POINT('',(0.E0,1.754983443527E0,0.E0));
#152=DIRECTION('',(0.E0,1.E0,0.E0));
#153=DIRECTION('',(-1.E0,0.E0,0.E0));
#154=AXIS2_PLACEMENT_3D('',#151,#152,#153);
#156=DIRECTION('',(0.E0,1.E0,5.959588572326E-14));
#157=VECTOR('',#156,1.059501655647E1);
#158=CARTESIAN_POINT('',(-5.E0,1.754983443527E0,-6.411928110055E-13));
#159=LINE('',#158,#157);
#160=CARTESIAN_POINT('',(-4.2E0,1.754983443527E0,-1.548529013351E-11));
#161=DIRECTION('',(-3.686975204309E-12,0.E0,1.E0));
#162=DIRECTION('',(-1.E0,-1.332267629550E-14,-3.686975204309E-12));
#163=AXIS2_PLACEMENT_3D('',#160,#161,#162);
#165=CARTESIAN_POINT('',(0.E0,1.25E1,0.E0));
#166=DIRECTION('',(0.E0,-1.E0,0.E0));
#167=DIRECTION('',(-1.E0,0.E0,0.E0));
#168=AXIS2_PLACEMENT_3D('',#165,#166,#167);
#170=CARTESIAN_POINT('',(0.E0,1.25E1,0.E0));
#171=DIRECTION('',(0.E0,-1.E0,0.E0));
#172=DIRECTION('',(1.E0,0.E0,0.E0));
#173=AXIS2_PLACEMENT_3D('',#170,#171,#172);
#175=CARTESIAN_POINT('',(0.E0,1.25E1,0.E0));
#176=DIRECTION('',(0.E0,1.E0,0.E0));
#177=DIRECTION('',(-1.E0,0.E0,0.E0));
#178=AXIS2_PLACEMENT_3D('',#175,#176,#177);
#180=CARTESIAN_POINT('',(0.E0,1.25E1,0.E0));
#181=DIRECTION('',(0.E0,1.E0,0.E0));
#182=DIRECTION('',(1.E0,0.E0,0.E0));
#183=AXIS2_PLACEMENT_3D('',#180,#181,#182);
#185=DIRECTION('',(0.E0,-1.E0,0.E0));
#186=VECTOR('',#185,2.E-2);
#187=CARTESIAN_POINT('',(-3.5E0,1.25E1,0.E0));
#188=LINE('',#187,#186);
#189=DIRECTION('',(0.E0,-1.E0,0.E0));
#190=VECTOR('',#189,2.E-2);
#191=CARTESIAN_POINT('',(3.5E0,1.25E1,0.E0));
#192=LINE('',#191,#190);
#193=CARTESIAN_POINT('',(0.E0,1.248E1,0.E0));
#194=DIRECTION('',(0.E0,1.E0,0.E0));
#195=DIRECTION('',(-1.E0,0.E0,0.E0));
#196=AXIS2_PLACEMENT_3D('',#193,#194,#195);
#198=CARTESIAN_POINT('',(0.E0,1.248E1,0.E0));
#199=DIRECTION('',(0.E0,1.E0,0.E0));
#200=DIRECTION('',(1.E0,0.E0,0.E0));
#201=AXIS2_PLACEMENT_3D('',#198,#199,#200);
#203=DIRECTION('',(0.E0,1.E0,0.E0));
#204=VECTOR('',#203,1.E-1);
#205=CARTESIAN_POINT('',(0.E0,0.E0,3.7E0));
#206=LINE('',#205,#204);
#207=DIRECTION('',(0.E0,1.E0,0.E0));
#208=VECTOR('',#207,1.E-1);
#209=CARTESIAN_POINT('',(0.E0,0.E0,-3.7E0));
#210=LINE('',#209,#208);
#211=CARTESIAN_POINT('',(0.E0,1.E-1,0.E0));
#212=DIRECTION('',(0.E0,-1.E0,0.E0));
#213=DIRECTION('',(0.E0,0.E0,1.E0));
#214=AXIS2_PLACEMENT_3D('',#211,#212,#213);
#216=CARTESIAN_POINT('',(0.E0,1.E-1,0.E0));
#217=DIRECTION('',(0.E0,-1.E0,0.E0));
#218=DIRECTION('',(0.E0,0.E0,-1.E0));
#219=AXIS2_PLACEMENT_3D('',#216,#217,#218);
#221=CARTESIAN_POINT('',(0.E0,1.E-1,2.5E0));
#222=DIRECTION('',(0.E0,-1.E0,0.E0));
#223=DIRECTION('',(0.E0,0.E0,-1.E0));
#224=AXIS2_PLACEMENT_3D('',#221,#222,#223);
#226=CARTESIAN_POINT('',(0.E0,1.E-1,2.5E0));
#227=DIRECTION('',(0.E0,-1.E0,0.E0));
#228=DIRECTION('',(0.E0,0.E0,1.E0));
#229=AXIS2_PLACEMENT_3D('',#226,#227,#228);
#231=CARTESIAN_POINT('',(0.E0,1.E-1,-2.5E0));
#232=DIRECTION('',(0.E0,-1.E0,0.E0));
#233=DIRECTION('',(-1.E0,0.E0,0.E0));
#234=AXIS2_PLACEMENT_3D('',#231,#232,#233);
#236=CARTESIAN_POINT('',(0.E0,1.E-1,-2.5E0));
#237=DIRECTION('',(0.E0,-1.E0,0.E0));
#238=DIRECTION('',(1.E0,0.E0,0.E0));
#239=AXIS2_PLACEMENT_3D('',#236,#237,#238);
#241=DIRECTION('',(0.E0,-1.E0,0.E0));
#242=VECTOR('',#241,2.E1);
#243=CARTESIAN_POINT('',(0.E0,1.E-1,2.2E0));
#244=LINE('',#243,#242);
#245=DIRECTION('',(0.E0,-1.E0,0.E0));
#246=VECTOR('',#245,2.E1);
#247=CARTESIAN_POINT('',(0.E0,1.E-1,2.8E0));
#248=LINE('',#247,#246);
#249=CARTESIAN_POINT('',(0.E0,-1.99E1,2.5E0));
#250=DIRECTION('',(0.E0,-1.E0,0.E0));
#251=DIRECTION('',(0.E0,0.E0,-1.E0));
#252=AXIS2_PLACEMENT_3D('',#249,#250,#251);
#254=CARTESIAN_POINT('',(0.E0,-1.99E1,2.5E0));
#255=DIRECTION('',(0.E0,-1.E0,0.E0));
#256=DIRECTION('',(0.E0,0.E0,1.E0));
#257=AXIS2_PLACEMENT_3D('',#254,#255,#256);
#259=DIRECTION('',(0.E0,-1.E0,0.E0));
#260=VECTOR('',#259,2.5E1);
#261=CARTESIAN_POINT('',(-3.E-1,1.E-1,-2.5E0));
#262=LINE('',#261,#260);
#263=DIRECTION('',(0.E0,-1.E0,0.E0));
#264=VECTOR('',#263,2.5E1);
#265=CARTESIAN_POINT('',(3.E-1,1.E-1,-2.5E0));
#266=LINE('',#265,#264);
#267=CARTESIAN_POINT('',(0.E0,-2.49E1,-2.5E0));
#268=DIRECTION('',(0.E0,-1.E0,0.E0));
#269=DIRECTION('',(-1.E0,0.E0,0.E0));
#270=AXIS2_PLACEMENT_3D('',#267,#268,#269);
#272=CARTESIAN_POINT('',(0.E0,-2.49E1,-2.5E0));
#273=DIRECTION('',(0.E0,-1.E0,0.E0));
#274=DIRECTION('',(1.E0,0.E0,0.E0));
#275=AXIS2_PLACEMENT_3D('',#272,#273,#274);
#277=CARTESIAN_POINT('',(-5.E0,1.235E1,0.E0));
#278=CARTESIAN_POINT('',(5.E0,1.235E1,0.E0));
#279=VERTEX_POINT('',#277);
#280=VERTEX_POINT('',#278);
#281=CARTESIAN_POINT('',(-4.85E0,1.25E1,0.E0));
#282=CARTESIAN_POINT('',(4.85E0,1.25E1,0.E0));
#283=VERTEX_POINT('',#281);
#284=VERTEX_POINT('',#282);
#285=CARTESIAN_POINT('',(5.E0,1.754983443527E0,5.402173279157E-13));
#286=VERTEX_POINT('',#285);
#287=CARTESIAN_POINT('',(-5.E0,1.754983443527E0,-6.411928110055E-13));
#288=VERTEX_POINT('',#287);
#289=CARTESIAN_POINT('',(0.E0,1.205904575507E0,4.781818181818E0));
#290=CARTESIAN_POINT('',(0.E0,7.940954244926E-1,4.781818181818E0));
#291=VERTEX_POINT('',#289);
#292=VERTEX_POINT('',#290);
#293=CARTESIAN_POINT('',(0.E0,7.940954244926E-1,-4.781818181818E0));
#294=CARTESIAN_POINT('',(0.E0,1.205904575507E0,-4.781818181818E0));
#295=VERTEX_POINT('',#293);
#296=VERTEX_POINT('',#294);
#297=CARTESIAN_POINT('',(0.E0,1.E-1,3.7E0));
#298=CARTESIAN_POINT('',(0.E0,1.E-1,-3.7E0));
#299=VERTEX_POINT('',#297);
#300=VERTEX_POINT('',#298);
#301=CARTESIAN_POINT('',(0.E0,0.E0,3.7E0));
#302=CARTESIAN_POINT('',(0.E0,0.E0,-3.7E0));
#303=VERTEX_POINT('',#301);
#304=VERTEX_POINT('',#302);
#305=CARTESIAN_POINT('',(0.E0,-1.99E1,2.2E0));
#306=CARTESIAN_POINT('',(0.E0,-1.99E1,2.8E0));
#307=VERTEX_POINT('',#305);
#308=VERTEX_POINT('',#306);
#309=CARTESIAN_POINT('',(0.E0,1.E-1,2.2E0));
#310=CARTESIAN_POINT('',(0.E0,1.E-1,2.8E0));
#311=VERTEX_POINT('',#309);
#312=VERTEX_POINT('',#310);
#313=CARTESIAN_POINT('',(-3.E-1,-2.49E1,-2.5E0));
#314=CARTESIAN_POINT('',(3.E-1,-2.49E1,-2.5E0));
#315=VERTEX_POINT('',#313);
#316=VERTEX_POINT('',#314);
#317=CARTESIAN_POINT('',(-3.E-1,1.E-1,-2.5E0));
#318=CARTESIAN_POINT('',(3.E-1,1.E-1,-2.5E0));
#319=VERTEX_POINT('',#317);
#320=VERTEX_POINT('',#318);
#321=CARTESIAN_POINT('',(-4.781818181818E0,1.205904575507E0,0.E0));
#322=VERTEX_POINT('',#321);
#323=CARTESIAN_POINT('',(0.E0,1.754983443527E0,5.E0));
#324=VERTEX_POINT('',#323);
#325=CARTESIAN_POINT('',(-4.781818181818E0,7.940954244926E-1,0.E0));
#326=VERTEX_POINT('',#325);
#327=CARTESIAN_POINT('',(7.603549734281E-12,2.522652016032E-1,
4.999967160041E0));
#328=CARTESIAN_POINT('',(-4.999967160041E0,2.522652016032E-1,
-1.279094606301E-12));
#329=VERTEX_POINT('',#327);
#330=VERTEX_POINT('',#328);
#331=CARTESIAN_POINT('',(3.219170633515E-11,0.E0,4.749977422528E0));
#332=CARTESIAN_POINT('',(-4.749977422528E0,0.E0,1.507926967876E-11));
#333=VERTEX_POINT('',#331);
#334=VERTEX_POINT('',#332);
#335=CARTESIAN_POINT('',(-3.5E0,1.248E1,0.E0));
#336=CARTESIAN_POINT('',(3.5E0,1.248E1,0.E0));
#337=VERTEX_POINT('',#335);
#338=VERTEX_POINT('',#336);
#339=CARTESIAN_POINT('',(-3.5E0,1.25E1,0.E0));
#340=CARTESIAN_POINT('',(3.5E0,1.25E1,0.E0));
#341=VERTEX_POINT('',#339);
#342=VERTEX_POINT('',#340);
#343=CARTESIAN_POINT('',(0.E0,0.E0,0.E0));
#344=DIRECTION('',(0.E0,1.E0,0.E0));
#345=DIRECTION('',(1.E0,0.E0,0.E0));
#346=AXIS2_PLACEMENT_3D('',#343,#344,#345);
#347=PLANE('',#346);
#349=ORIENTED_EDGE('',*,*,#348,.T.);
#351=ORIENTED_EDGE('',*,*,#350,.T.);
#352=EDGE_LOOP('',(#349,#351));
#353=FACE_OUTER_BOUND('',#352,.F.);
#355=ORIENTED_EDGE('',*,*,#354,.T.);
#357=ORIENTED_EDGE('',*,*,#356,.T.);
#358=EDGE_LOOP('',(#355,#357));
#359=FACE_BOUND('',#358,.F.);
#361=FILL_AREA_STYLE_COLOUR('',#11);
#362=FILL_AREA_STYLE('',(#361));
#363=SURFACE_STYLE_FILL_AREA(#362);
#364=SURFACE_SIDE_STYLE('',(#363));
#365=SURFACE_STYLE_USAGE(.POSITIVE.,#364);
#366=PRESENTATION_STYLE_ASSIGNMENT((#365));
#367=STYLED_ITEM('',(#366),#360);
#368=CARTESIAN_POINT('',(0.E0,2.5E-1,0.E0));
#369=DIRECTION('',(0.E0,1.E0,0.E0));
#370=DIRECTION('',(-6.153873337821E-3,0.E0,9.999810647422E-1));
#371=AXIS2_PLACEMENT_3D('',#368,#369,#370);
#372=TOROIDAL_SURFACE('',#371,4.749977422528E0,2.5E-1);
#374=ORIENTED_EDGE('',*,*,#373,.T.);
#376=ORIENTED_EDGE('',*,*,#375,.T.);
#377=ORIENTED_EDGE('',*,*,#348,.F.);
#379=ORIENTED_EDGE('',*,*,#378,.F.);
#380=EDGE_LOOP('',(#374,#376,#377,#379));
#381=FACE_OUTER_BOUND('',#380,.F.);
#383=FILL_AREA_STYLE_COLOUR('',#11);
#384=FILL_AREA_STYLE('',(#383));
#385=SURFACE_STYLE_FILL_AREA(#384);
#386=SURFACE_SIDE_STYLE('',(#385));
#387=SURFACE_STYLE_USAGE(.POSITIVE.,#386);
#388=PRESENTATION_STYLE_ASSIGNMENT((#387));
#389=STYLED_ITEM('',(#388),#382);
#390=CARTESIAN_POINT('',(0.E0,2.450165564729E-1,0.E0));
#391=DIRECTION('',(0.E0,1.E0,0.E0));
#392=DIRECTION('',(-8.771641067693E-3,0.E0,-9.999615284165E-1));
#393=AXIS2_PLACEMENT_3D('',#390,#391,#392);
#394=TOROIDAL_SURFACE('',#393,4.2E0,8.E-1);
#395=ORIENTED_EDGE('',*,*,#373,.F.);
#397=ORIENTED_EDGE('',*,*,#396,.T.);
#399=ORIENTED_EDGE('',*,*,#398,.T.);
#401=ORIENTED_EDGE('',*,*,#400,.F.);
#403=ORIENTED_EDGE('',*,*,#402,.F.);
#404=EDGE_LOOP('',(#395,#397,#399,#401,#403));
#405=FACE_OUTER_BOUND('',#404,.F.);
#407=FILL_AREA_STYLE_COLOUR('',#11);
#408=FILL_AREA_STYLE('',(#407));
#409=SURFACE_STYLE_FILL_AREA(#408);
#410=SURFACE_SIDE_STYLE('',(#409));
#411=SURFACE_STYLE_USAGE(.POSITIVE.,#410);
#412=PRESENTATION_STYLE_ASSIGNMENT((#411));
#413=STYLED_ITEM('',(#412),#406);
#414=CARTESIAN_POINT('',(0.E0,2.450165564729E-1,0.E0));
#415=DIRECTION('',(0.E0,1.E0,0.E0));
#416=DIRECTION('',(8.771641067693E-3,0.E0,9.999615284165E-1));
#417=AXIS2_PLACEMENT_3D('',#414,#415,#416);
#418=TOROIDAL_SURFACE('',#417,4.2E0,8.E-1);
#420=ORIENTED_EDGE('',*,*,#419,.F.);
#421=ORIENTED_EDGE('',*,*,#402,.T.);
#423=ORIENTED_EDGE('',*,*,#422,.F.);
#424=ORIENTED_EDGE('',*,*,#396,.F.);
#425=EDGE_LOOP('',(#420,#421,#423,#424));
#426=FACE_OUTER_BOUND('',#425,.F.);
#428=FILL_AREA_STYLE_COLOUR('',#11);
#429=FILL_AREA_STYLE('',(#428));
#430=SURFACE_STYLE_FILL_AREA(#429);
#431=SURFACE_SIDE_STYLE('',(#430));
#432=SURFACE_STYLE_USAGE(.POSITIVE.,#431);
#433=PRESENTATION_STYLE_ASSIGNMENT((#432));
#434=STYLED_ITEM('',(#433),#427);
#435=CARTESIAN_POINT('',(0.E0,2.5E-1,0.E0));
#436=DIRECTION('',(0.E0,1.E0,0.E0));
#437=DIRECTION('',(-9.999810647422E-1,0.E0,-6.153873337770E-3));
#438=AXIS2_PLACEMENT_3D('',#435,#436,#437);
#439=TOROIDAL_SURFACE('',#438,4.749977422528E0,2.5E-1);
#440=ORIENTED_EDGE('',*,*,#419,.T.);
#441=ORIENTED_EDGE('',*,*,#378,.T.);
#442=ORIENTED_EDGE('',*,*,#350,.F.);
#443=ORIENTED_EDGE('',*,*,#375,.F.);
#444=EDGE_LOOP('',(#440,#441,#442,#443));
#445=FACE_OUTER_BOUND('',#444,.F.);
#447=FILL_AREA_STYLE_COLOUR('',#11);
#448=FILL_AREA_STYLE('',(#447));
#449=SURFACE_STYLE_FILL_AREA(#448);
#450=SURFACE_SIDE_STYLE('',(#449));
#451=SURFACE_STYLE_USAGE(.POSITIVE.,#450);
#452=PRESENTATION_STYLE_ASSIGNMENT((#451));
#453=STYLED_ITEM('',(#452),#446);
#454=CARTESIAN_POINT('',(0.E0,1.E0,0.E0));
#455=DIRECTION('',(0.E0,1.E0,0.E0));
#456=DIRECTION('',(0.E0,0.E0,-1.E0));
#457=AXIS2_PLACEMENT_3D('',#454,#455,#456);
#458=TOROIDAL_SURFACE('',#457,5.E0,3.E-1);
#460=ORIENTED_EDGE('',*,*,#459,.T.);
#461=ORIENTED_EDGE('',*,*,#422,.T.);
#462=ORIENTED_EDGE('',*,*,#400,.T.);
#464=ORIENTED_EDGE('',*,*,#463,.T.);
#466=ORIENTED_EDGE('',*,*,#465,.T.);
#468=ORIENTED_EDGE('',*,*,#467,.T.);
#469=EDGE_LOOP('',(#460,#461,#462,#464,#466,#468));
#470=FACE_OUTER_BOUND('',#469,.F.);
#472=FILL_AREA_STYLE_COLOUR('',#11);
#473=FILL_AREA_STYLE('',(#472));
#474=SURFACE_STYLE_FILL_AREA(#473);
#475=SURFACE_SIDE_STYLE('',(#474));
#476=SURFACE_STYLE_USAGE(.POSITIVE.,#475);
#477=PRESENTATION_STYLE_ASSIGNMENT((#476));
#478=STYLED_ITEM('',(#477),#471);
#479=CARTESIAN_POINT('',(0.E0,1.E0,0.E0));
#480=DIRECTION('',(0.E0,1.E0,0.E0));
#481=DIRECTION('',(0.E0,0.E0,-1.E0));
#482=AXIS2_PLACEMENT_3D('',#479,#480,#481);
#483=TOROIDAL_SURFACE('',#482,5.E0,3.E-1);
#484=ORIENTED_EDGE('',*,*,#459,.F.);
#486=ORIENTED_EDGE('',*,*,#485,.F.);
#487=ORIENTED_EDGE('',*,*,#463,.F.);
#488=ORIENTED_EDGE('',*,*,#398,.F.);
#489=EDGE_LOOP('',(#484,#486,#487,#488));
#490=FACE_OUTER_BOUND('',#489,.F.);
#492=FILL_AREA_STYLE_COLOUR('',#11);
#493=FILL_AREA_STYLE('',(#492));
#494=SURFACE_STYLE_FILL_AREA(#493);
#495=SURFACE_SIDE_STYLE('',(#494));
#496=SURFACE_STYLE_USAGE(.POSITIVE.,#495);
#497=PRESENTATION_STYLE_ASSIGNMENT((#496));
#498=STYLED_ITEM('',(#497),#491);
#499=CARTESIAN_POINT('',(0.E0,1.754983443527E0,0.E0));
#500=DIRECTION('',(0.E0,1.E0,0.E0));
#501=DIRECTION('',(9.999814905871E-1,0.E0,6.084281646466E-3));
#502=AXIS2_PLACEMENT_3D('',#499,#500,#501);
#503=TOROIDAL_SURFACE('',#502,4.2E0,8.E-1);
#505=ORIENTED_EDGE('',*,*,#504,.T.);
#507=ORIENTED_EDGE('',*,*,#506,.T.);
#508=ORIENTED_EDGE('',*,*,#465,.F.);
#509=ORIENTED_EDGE('',*,*,#485,.T.);
#511=ORIENTED_EDGE('',*,*,#510,.F.);
#513=ORIENTED_EDGE('',*,*,#512,.T.);
#514=EDGE_LOOP('',(#505,#507,#508,#509,#511,#513));
#515=FACE_OUTER_BOUND('',#514,.F.);
#517=FILL_AREA_STYLE_COLOUR('',#11);
#518=FILL_AREA_STYLE('',(#517));
#519=SURFACE_STYLE_FILL_AREA(#518);
#520=SURFACE_SIDE_STYLE('',(#519));
#521=SURFACE_STYLE_USAGE(.POSITIVE.,#520);
#522=PRESENTATION_STYLE_ASSIGNMENT((#521));
#523=STYLED_ITEM('',(#522),#516);
#524=CARTESIAN_POINT('',(0.E0,0.E0,0.E0));
#525=DIRECTION('',(0.E0,1.E0,0.E0));
#526=DIRECTION('',(1.E0,0.E0,0.E0));
#527=AXIS2_PLACEMENT_3D('',#524,#525,#526);
#528=CYLINDRICAL_SURFACE('',#527,5.E0);
#530=ORIENTED_EDGE('',*,*,#529,.F.);
#532=ORIENTED_EDGE('',*,*,#531,.F.);
#533=ORIENTED_EDGE('',*,*,#504,.F.);
#535=ORIENTED_EDGE('',*,*,#534,.T.);
#536=EDGE_LOOP('',(#530,#532,#533,#535));
#537=FACE_OUTER_BOUND('',#536,.F.);
#539=FILL_AREA_STYLE_COLOUR('',#11);
#540=FILL_AREA_STYLE('',(#539));
#541=SURFACE_STYLE_FILL_AREA(#540);
#542=SURFACE_SIDE_STYLE('',(#541));
#543=SURFACE_STYLE_USAGE(.POSITIVE.,#542);
#544=PRESENTATION_STYLE_ASSIGNMENT((#543));
#545=STYLED_ITEM('',(#544),#538);
#546=CARTESIAN_POINT('',(0.E0,1.235E1,0.E0));
#547=DIRECTION('',(0.E0,1.E0,0.E0));
#548=DIRECTION('',(-9.999844258840E-1,0.E0,5.581038379567E-3));
#549=AXIS2_PLACEMENT_3D('',#546,#547,#548);
#550=TOROIDAL_SURFACE('',#549,4.85E0,1.5E-1);
#551=ORIENTED_EDGE('',*,*,#529,.T.);
#553=ORIENTED_EDGE('',*,*,#552,.T.);
#555=ORIENTED_EDGE('',*,*,#554,.F.);
#557=ORIENTED_EDGE('',*,*,#556,.F.);
#558=EDGE_LOOP('',(#551,#553,#555,#557));
#559=FACE_OUTER_BOUND('',#558,.F.);
#561=FILL_AREA_STYLE_COLOUR('',#11);
#562=FILL_AREA_STYLE('',(#561));
#563=SURFACE_STYLE_FILL_AREA(#562);
#564=SURFACE_SIDE_STYLE('',(#563));
#565=SURFACE_STYLE_USAGE(.POSITIVE.,#564);
#566=PRESENTATION_STYLE_ASSIGNMENT((#565));
#567=STYLED_ITEM('',(#566),#560);
#568=CARTESIAN_POINT('',(0.E0,1.235E1,0.E0));
#569=DIRECTION('',(0.E0,1.E0,0.E0));
#570=DIRECTION('',(9.999844258840E-1,0.E0,-5.581038379567E-3));
#571=AXIS2_PLACEMENT_3D('',#568,#569,#570);
#572=TOROIDAL_SURFACE('',#571,4.85E0,1.5E-1);
#574=ORIENTED_EDGE('',*,*,#573,.T.);
#575=ORIENTED_EDGE('',*,*,#556,.T.);
#577=ORIENTED_EDGE('',*,*,#576,.F.);
#578=ORIENTED_EDGE('',*,*,#552,.F.);
#579=EDGE_LOOP('',(#574,#575,#577,#578));
#580=FACE_OUTER_BOUND('',#579,.F.);
#582=FILL_AREA_STYLE_COLOUR('',#11);
#583=FILL_AREA_STYLE('',(#582));
#584=SURFACE_STYLE_FILL_AREA(#583);
#585=SURFACE_SIDE_STYLE('',(#584));
#586=SURFACE_STYLE_USAGE(.POSITIVE.,#585);
#587=PRESENTATION_STYLE_ASSIGNMENT((#586));
#588=STYLED_ITEM('',(#587),#581);
#589=CARTESIAN_POINT('',(0.E0,0.E0,0.E0));
#590=DIRECTION('',(0.E0,1.E0,0.E0));
#591=DIRECTION('',(1.E0,0.E0,0.E0));
#592=AXIS2_PLACEMENT_3D('',#589,#590,#591);
#593=CYLINDRICAL_SURFACE('',#592,5.E0);
#594=ORIENTED_EDGE('',*,*,#573,.F.);
#595=ORIENTED_EDGE('',*,*,#534,.F.);
#596=ORIENTED_EDGE('',*,*,#512,.F.);
#598=ORIENTED_EDGE('',*,*,#597,.F.);
#599=ORIENTED_EDGE('',*,*,#531,.T.);
#600=EDGE_LOOP('',(#594,#595,#596,#598,#599));
#601=FACE_OUTER_BOUND('',#600,.F.);
#603=FILL_AREA_STYLE_COLOUR('',#11);
#604=FILL_AREA_STYLE('',(#603));
#605=SURFACE_STYLE_FILL_AREA(#604);
#606=SURFACE_SIDE_STYLE('',(#605));
#607=SURFACE_STYLE_USAGE(.POSITIVE.,#606);
#608=PRESENTATION_STYLE_ASSIGNMENT((#607));
#609=STYLED_ITEM('',(#608),#602);
#610=CARTESIAN_POINT('',(0.E0,1.754983443527E0,0.E0));
#611=DIRECTION('',(0.E0,1.E0,0.E0));
#612=DIRECTION('',(-9.999814905871E-1,0.E0,-6.084281646466E-3));
#613=AXIS2_PLACEMENT_3D('',#610,#611,#612);
#614=TOROIDAL_SURFACE('',#613,4.2E0,8.E-1);
#615=ORIENTED_EDGE('',*,*,#597,.T.);
#616=ORIENTED_EDGE('',*,*,#510,.T.);
#617=ORIENTED_EDGE('',*,*,#467,.F.);
#618=ORIENTED_EDGE('',*,*,#506,.F.);
#619=EDGE_LOOP('',(#615,#616,#617,#618));
#620=FACE_OUTER_BOUND('',#619,.F.);
#622=FILL_AREA_STYLE_COLOUR('',#11);
#623=FILL_AREA_STYLE('',(#622));
#624=SURFACE_STYLE_FILL_AREA(#623);
#625=SURFACE_SIDE_STYLE('',(#624));
#626=SURFACE_STYLE_USAGE(.POSITIVE.,#625);
#627=PRESENTATION_STYLE_ASSIGNMENT((#626));
#628=STYLED_ITEM('',(#627),#621);
#629=CARTESIAN_POINT('',(0.E0,1.25E1,0.E0));
#630=DIRECTION('',(0.E0,1.E0,0.E0));
#631=DIRECTION('',(1.E0,0.E0,0.E0));
#632=AXIS2_PLACEMENT_3D('',#629,#630,#631);
#633=PLANE('',#632);
#634=ORIENTED_EDGE('',*,*,#554,.T.);
#635=ORIENTED_EDGE('',*,*,#576,.T.);
#636=EDGE_LOOP('',(#634,#635));
#637=FACE_OUTER_BOUND('',#636,.F.);
#639=ORIENTED_EDGE('',*,*,#638,.T.);
#641=ORIENTED_EDGE('',*,*,#640,.T.);
#642=EDGE_LOOP('',(#639,#641));
#643=FACE_BOUND('',#642,.F.);
#645=FILL_AREA_STYLE_COLOUR('',#11);
#646=FILL_AREA_STYLE('',(#645));
#647=SURFACE_STYLE_FILL_AREA(#646);
#648=SURFACE_SIDE_STYLE('',(#647));
#649=SURFACE_STYLE_USAGE(.POSITIVE.,#648);
#650=PRESENTATION_STYLE_ASSIGNMENT((#649));
#651=STYLED_ITEM('',(#650),#644);
#652=CARTESIAN_POINT('',(0.E0,1.25E1,0.E0));
#653=DIRECTION('',(0.E0,1.E0,0.E0));
#654=DIRECTION('',(-1.E0,0.E0,0.E0));
#655=AXIS2_PLACEMENT_3D('',#652,#653,#654);
#656=CYLINDRICAL_SURFACE('',#655,3.5E0);
#657=ORIENTED_EDGE('',*,*,#638,.F.);
#659=ORIENTED_EDGE('',*,*,#658,.T.);
#661=ORIENTED_EDGE('',*,*,#660,.T.);
#663=ORIENTED_EDGE('',*,*,#662,.F.);
#664=EDGE_LOOP('',(#657,#659,#661,#663));
#665=FACE_OUTER_BOUND('',#664,.F.);
#667=CARTESIAN_POINT('',(0.E0,1.25E1,0.E0));
#668=DIRECTION('',(0.E0,1.E0,0.E0));
#669=DIRECTION('',(-1.E0,0.E0,0.E0));
#670=AXIS2_PLACEMENT_3D('',#667,#668,#669);
#671=CYLINDRICAL_SURFACE('',#670,3.5E0);
#672=ORIENTED_EDGE('',*,*,#640,.F.);
#673=ORIENTED_EDGE('',*,*,#662,.T.);
#675=ORIENTED_EDGE('',*,*,#674,.T.);
#676=ORIENTED_EDGE('',*,*,#658,.F.);
#677=EDGE_LOOP('',(#672,#673,#675,#676));
#678=FACE_OUTER_BOUND('',#677,.F.);
#680=CARTESIAN_POINT('',(0.E0,1.248E1,0.E0));
#681=DIRECTION('',(0.E0,1.E0,0.E0));
#682=DIRECTION('',(-1.E0,0.E0,0.E0));
#683=AXIS2_PLACEMENT_3D('',#680,#681,#682);
#684=PLANE('',#683);
#685=ORIENTED_EDGE('',*,*,#660,.F.);
#686=ORIENTED_EDGE('',*,*,#674,.F.);
#687=EDGE_LOOP('',(#685,#686));
#688=FACE_OUTER_BOUND('',#687,.F.);
#690=FILL_AREA_STYLE_COLOUR('',#20);
#691=FILL_AREA_STYLE('',(#690));
#692=SURFACE_STYLE_FILL_AREA(#691);
#693=SURFACE_SIDE_STYLE('',(#692));
#694=SURFACE_STYLE_USAGE(.POSITIVE.,#693);
#695=PRESENTATION_STYLE_ASSIGNMENT((#694));
#696=STYLED_ITEM('',(#695),#689);
#697=CARTESIAN_POINT('',(0.E0,0.E0,0.E0));
#698=DIRECTION('',(0.E0,-1.E0,0.E0));
#699=DIRECTION('',(0.E0,0.E0,1.E0));
#700=AXIS2_PLACEMENT_3D('',#697,#698,#699);
#701=CYLINDRICAL_SURFACE('',#700,3.7E0);
#702=ORIENTED_EDGE('',*,*,#354,.F.);
#704=ORIENTED_EDGE('',*,*,#703,.T.);
#706=ORIENTED_EDGE('',*,*,#705,.T.);
#708=ORIENTED_EDGE('',*,*,#707,.F.);
#709=EDGE_LOOP('',(#702,#704,#706,#708));
#710=FACE_OUTER_BOUND('',#709,.F.);
#712=FILL_AREA_STYLE_COLOUR('',#11);
#713=FILL_AREA_STYLE('',(#712));
#714=SURFACE_STYLE_FILL_AREA(#713);
#715=SURFACE_SIDE_STYLE('',(#714));
#716=SURFACE_STYLE_USAGE(.POSITIVE.,#715);
#717=PRESENTATION_STYLE_ASSIGNMENT((#716));
#718=STYLED_ITEM('',(#717),#711);
#719=CARTESIAN_POINT('',(0.E0,0.E0,0.E0));
#720=DIRECTION('',(0.E0,-1.E0,0.E0));
#721=DIRECTION('',(0.E0,0.E0,1.E0));
#722=AXIS2_PLACEMENT_3D('',#719,#720,#721);
#723=CYLINDRICAL_SURFACE('',#722,3.7E0);
#724=ORIENTED_EDGE('',*,*,#356,.F.);
#725=ORIENTED_EDGE('',*,*,#707,.T.);
#727=ORIENTED_EDGE('',*,*,#726,.T.);
#728=ORIENTED_EDGE('',*,*,#703,.F.);
#729=EDGE_LOOP('',(#724,#725,#727,#728));
#730=FACE_OUTER_BOUND('',#729,.F.);
#732=FILL_AREA_STYLE_COLOUR('',#11);
#733=FILL_AREA_STYLE('',(#732));
#734=SURFACE_STYLE_FILL_AREA(#733);
#735=SURFACE_SIDE_STYLE('',(#734));
#736=SURFACE_STYLE_USAGE(.POSITIVE.,#735);
#737=PRESENTATION_STYLE_ASSIGNMENT((#736));
#738=STYLED_ITEM('',(#737),#731);
#739=CARTESIAN_POINT('',(0.E0,1.E-1,0.E0));
#740=DIRECTION('',(0.E0,-1.E0,0.E0));
#741=DIRECTION('',(0.E0,0.E0,1.E0));
#742=AXIS2_PLACEMENT_3D('',#739,#740,#741);
#743=PLANE('',#742);
#744=ORIENTED_EDGE('',*,*,#705,.F.);
#745=ORIENTED_EDGE('',*,*,#726,.F.);
#746=EDGE_LOOP('',(#744,#745));
#747=FACE_OUTER_BOUND('',#746,.F.);
#749=ORIENTED_EDGE('',*,*,#748,.T.);
#751=ORIENTED_EDGE('',*,*,#750,.T.);
#752=EDGE_LOOP('',(#749,#751));
#753=FACE_BOUND('',#752,.F.);
#755=ORIENTED_EDGE('',*,*,#754,.T.);
#757=ORIENTED_EDGE('',*,*,#756,.T.);
#758=EDGE_LOOP('',(#755,#757));
#759=FACE_BOUND('',#758,.F.);
#761=FILL_AREA_STYLE_COLOUR('',#5);
#762=FILL_AREA_STYLE('',(#761));
#763=SURFACE_STYLE_FILL_AREA(#762);
#764=SURFACE_SIDE_STYLE('',(#763));
#765=SURFACE_STYLE_USAGE(.POSITIVE.,#764);
#766=PRESENTATION_STYLE_ASSIGNMENT((#765));
#767=STYLED_ITEM('',(#766),#760);
#768=CARTESIAN_POINT('',(0.E0,1.E-1,2.5E0));
#769=DIRECTION('',(0.E0,-1.E0,0.E0));
#770=DIRECTION('',(0.E0,0.E0,-1.E0));
#771=AXIS2_PLACEMENT_3D('',#768,#769,#770);
#772=CYLINDRICAL_SURFACE('',#771,3.E-1);
#773=ORIENTED_EDGE('',*,*,#748,.F.);
#775=ORIENTED_EDGE('',*,*,#774,.T.);
#777=ORIENTED_EDGE('',*,*,#776,.T.);
#779=ORIENTED_EDGE('',*,*,#778,.F.);
#780=EDGE_LOOP('',(#773,#775,#777,#779));
#781=FACE_OUTER_BOUND('',#780,.F.);
#783=FILL_AREA_STYLE_COLOUR('',#12);
#784=FILL_AREA_STYLE('',(#783));
#785=SURFACE_STYLE_FILL_AREA(#784);
#786=SURFACE_SIDE_STYLE('',(#785));
#787=SURFACE_STYLE_USAGE(.POSITIVE.,#786);
#788=PRESENTATION_STYLE_ASSIGNMENT((#787));
#789=STYLED_ITEM('',(#788),#782);
#790=CARTESIAN_POINT('',(0.E0,1.E-1,2.5E0));
#791=DIRECTION('',(0.E0,-1.E0,0.E0));
#792=DIRECTION('',(0.E0,0.E0,-1.E0));
#793=AXIS2_PLACEMENT_3D('',#790,#791,#792);
#794=CYLINDRICAL_SURFACE('',#793,3.E-1);
#795=ORIENTED_EDGE('',*,*,#750,.F.);
#796=ORIENTED_EDGE('',*,*,#778,.T.);
#798=ORIENTED_EDGE('',*,*,#797,.T.);
#799=ORIENTED_EDGE('',*,*,#774,.F.);
#800=EDGE_LOOP('',(#795,#796,#798,#799));
#801=FACE_OUTER_BOUND('',#800,.F.);
#803=FILL_AREA_STYLE_COLOUR('',#12);
#804=FILL_AREA_STYLE('',(#803));
#805=SURFACE_STYLE_FILL_AREA(#804);
#806=SURFACE_SIDE_STYLE('',(#805));
#807=SURFACE_STYLE_USAGE(.POSITIVE.,#806);
#808=PRESENTATION_STYLE_ASSIGNMENT((#807));
#809=STYLED_ITEM('',(#808),#802);
#810=CARTESIAN_POINT('',(0.E0,-1.99E1,0.E0));
#811=DIRECTION('',(0.E0,-1.E0,0.E0));
#812=DIRECTION('',(0.E0,0.E0,-1.E0));
#813=AXIS2_PLACEMENT_3D('',#810,#811,#812);
#814=PLANE('',#813);
#815=ORIENTED_EDGE('',*,*,#776,.F.);
#816=ORIENTED_EDGE('',*,*,#797,.F.);
#817=EDGE_LOOP('',(#815,#816));
#818=FACE_OUTER_BOUND('',#817,.F.);
#820=FILL_AREA_STYLE_COLOUR('',#12);
#821=FILL_AREA_STYLE('',(#820));
#822=SURFACE_STYLE_FILL_AREA(#821);
#823=SURFACE_SIDE_STYLE('',(#822));
#824=SURFACE_STYLE_USAGE(.POSITIVE.,#823);
#825=PRESENTATION_STYLE_ASSIGNMENT((#824));
#826=STYLED_ITEM('',(#825),#819);
#827=CARTESIAN_POINT('',(0.E0,1.E-1,-2.5E0));
#828=DIRECTION('',(0.E0,-1.E0,0.E0));
#829=DIRECTION('',(-1.E0,0.E0,0.E0));
#830=AXIS2_PLACEMENT_3D('',#827,#828,#829);
#831=CYLINDRICAL_SURFACE('',#830,3.E-1);
#832=ORIENTED_EDGE('',*,*,#754,.F.);
#834=ORIENTED_EDGE('',*,*,#833,.T.);
#836=ORIENTED_EDGE('',*,*,#835,.T.);
#838=ORIENTED_EDGE('',*,*,#837,.F.);
#839=EDGE_LOOP('',(#832,#834,#836,#838));
#840=FACE_OUTER_BOUND('',#839,.F.);
#842=FILL_AREA_STYLE_COLOUR('',#12);
#843=FILL_AREA_STYLE('',(#842));
#844=SURFACE_STYLE_FILL_AREA(#843);
#845=SURFACE_SIDE_STYLE('',(#844));
#846=SURFACE_STYLE_USAGE(.POSITIVE.,#845);
#847=PRESENTATION_STYLE_ASSIGNMENT((#846));
#848=STYLED_ITEM('',(#847),#841);
#849=CARTESIAN_POINT('',(0.E0,1.E-1,-2.5E0));
#850=DIRECTION('',(0.E0,-1.E0,0.E0));
#851=DIRECTION('',(-1.E0,0.E0,0.E0));
#852=AXIS2_PLACEMENT_3D('',#849,#850,#851);
#853=CYLINDRICAL_SURFACE('',#852,3.E-1);
#854=ORIENTED_EDGE('',*,*,#756,.F.);
#855=ORIENTED_EDGE('',*,*,#837,.T.);
#857=ORIENTED_EDGE('',*,*,#856,.T.);
#858=ORIENTED_EDGE('',*,*,#833,.F.);
#859=EDGE_LOOP('',(#854,#855,#857,#858));
#860=FACE_OUTER_BOUND('',#859,.F.);
#862=FILL_AREA_STYLE_COLOUR('',#12);
#863=FILL_AREA_STYLE('',(#862));
#864=SURFACE_STYLE_FILL_AREA(#863);
#865=SURFACE_SIDE_STYLE('',(#864));
#866=SURFACE_STYLE_USAGE(.POSITIVE.,#865);
#867=PRESENTATION_STYLE_ASSIGNMENT((#866));
#868=STYLED_ITEM('',(#867),#861);
#869=CARTESIAN_POINT('',(0.E0,-2.49E1,0.E0));
#870=DIRECTION('',(0.E0,-1.E0,0.E0));
#871=DIRECTION('',(-1.E0,0.E0,0.E0));
#872=AXIS2_PLACEMENT_3D('',#869,#870,#871);
#873=PLANE('',#872);
#874=ORIENTED_EDGE('',*,*,#835,.F.);
#875=ORIENTED_EDGE('',*,*,#856,.F.);
#876=EDGE_LOOP('',(#874,#875));
#877=FACE_OUTER_BOUND('',#876,.F.);
#879=FILL_AREA_STYLE_COLOUR('',#12);
#880=FILL_AREA_STYLE('',(#879));
#881=SURFACE_STYLE_FILL_AREA(#880);
#882=SURFACE_SIDE_STYLE('',(#881));
#883=SURFACE_STYLE_USAGE(.POSITIVE.,#882);
#884=PRESENTATION_STYLE_ASSIGNMENT((#883));
#885=STYLED_ITEM('',(#884),#878);
#886=CLOSED_SHELL('',(#360,#382,#406,#427,#446,#471,#491,#516,#538,#560,#581,
#602,#621,#644,#666,#679,#689,#711,#731,#760,#782,#802,#819,#841,#861,#878));
#887=MANIFOLD_SOLID_BREP('',#886);
#890=PLANE_ANGLE_MEASURE_WITH_UNIT(PLANE_ANGLE_MEASURE(1.745329251994E-2),#889);
#891=(CONVERSION_BASED_UNIT('DEGREE',#890)NAMED_UNIT(*)PLANE_ANGLE_UNIT());
#893=UNCERTAINTY_MEASURE_WITH_UNIT(LENGTH_MEASURE(3.998289761583E-3),#888,
'distance_accuracy_value',
'Maximum model space distance between geometric entities at asserted connectivities');
#895=CARTESIAN_POINT('',(0.E0,0.E0,0.E0));
#896=DIRECTION('',(0.E0,0.E0,1.E0));
#897=DIRECTION('',(1.E0,0.E0,0.E0));
#900=APPLICATION_CONTEXT('automotive_design');
#901=APPLICATION_PROTOCOL_DEFINITION('international standard',
'automotive_design',2001,#900);
#902=PRODUCT_DEFINITION_CONTEXT('part definition',#900,'design');
#903=PRODUCT_CONTEXT('',#900,'mechanical');
#904=PRODUCT('0100215000','0100215000','NOT SPECIFIED',(#903));
#905=PRODUCT_DEFINITION_FORMATION('76','LAST_VERSION',#904);
#913=DERIVED_UNIT_ELEMENT(#912,2.E0);
#914=DERIVED_UNIT((#913));
#915=MEASURE_REPRESENTATION_ITEM('surface area measure',AREA_MEASURE(
6.354396642585E2),#914);
#920=DERIVED_UNIT_ELEMENT(#919,3.E0);
#921=DERIVED_UNIT((#920));
#922=MEASURE_REPRESENTATION_ITEM('volume measure',VOLUME_MEASURE(
9.830570184293E2),#921);
#926=CARTESIAN_POINT('centre point',(-3.441049834929E-7,6.077758529350E0,
-3.595336414157E-3));
#931=DERIVED_UNIT_ELEMENT(#930,2.E0);
#932=DERIVED_UNIT((#931));
#933=MEASURE_REPRESENTATION_ITEM('surface area measure',AREA_MEASURE(
6.354396642585E2),#932);
#938=DERIVED_UNIT_ELEMENT(#937,3.E0);
#939=DERIVED_UNIT((#938));
#940=MEASURE_REPRESENTATION_ITEM('volume measure',VOLUME_MEASURE(
9.830570184293E2),#939);
#944=CARTESIAN_POINT('centre point',(-3.441049834929E-7,6.077758529350E0,
-3.595336414157E-3));
#954=CARTESIAN_POINT('centre point',(4.999999655895E0,3.097775852935E1,
-5.003595336414E0));
#958=CARTESIAN_POINT('',(5.E0,2.49E1,-5.E0));
#959=DIRECTION('',(0.E0,0.E0,1.E0));
#960=DIRECTION('',(1.E0,0.E0,0.E0));
#961=AXIS2_PLACEMENT_3D('',#958,#959,#960);
#962=ITEM_DEFINED_TRANSFORMATION('','',#898,#961);
#963=(REPRESENTATION_RELATIONSHIP('','',#899,#951)REPRESENTATION_RELATIONSHIP_WITH_TRANSFORMATION(#962)SHAPE_REPRESENTATION_RELATIONSHIP());
#964=CONTEXT_DEPENDENT_SHAPE_REPRESENTATION(#963,#953);
#965=CARTESIAN_POINT('',(0.E0,0.E0,0.E0));
#966=DIRECTION('',(0.E0,-1.E0,0.E0));
#967=DIRECTION('',(3.230924993209E-1,0.E0,9.463673900143E-1));
#968=AXIS2_PLACEMENT_3D('',#965,#966,#967);
#970=DIRECTION('',(-1.681184052517E-13,0.E0,1.E0));
#971=VECTOR('',#970,5.283052848203E-3);
#972=CARTESIAN_POINT('',(-1.615462496604E0,0.E0,4.731836950072E0));
#973=LINE('',#972,#971);
#974=CARTESIAN_POINT('',(0.E0,0.E0,0.E0));
#975=DIRECTION('',(0.E0,1.E0,0.E0));
#976=DIRECTION('',(-3.227697295913E-1,0.E0,9.464775230609E-1));
#977=AXIS2_PLACEMENT_3D('',#974,#975,#976);
#979=DIRECTION('',(-2.521776078775E-13,0.E0,-1.E0));
#980=VECTOR('',#979,5.283052848202E-3);
#981=CARTESIAN_POINT('',(1.615462496605E0,0.E0,4.737120002920E0));
#982=LINE('',#981,#980);
#983=DIRECTION('',(0.E0,1.E0,0.E0));
#984=VECTOR('',#983,1.04E1);
#985=CARTESIAN_POINT('',(1.615462496605E0,0.E0,4.731836950072E0));
#986=LINE('',#985,#984);
#987=DIRECTION('',(0.E0,1.E0,0.E0));
#988=VECTOR('',#987,1.04E1);
#989=CARTESIAN_POINT('',(1.615462496605E0,0.E0,4.737120002920E0));
#990=LINE('',#989,#988);
#991=DIRECTION('',(0.E0,1.E0,0.E0));
#992=VECTOR('',#991,1.04E1);
#993=CARTESIAN_POINT('',(-1.615462496604E0,0.E0,4.737120002920E0));
#994=LINE('',#993,#992);
#995=DIRECTION('',(0.E0,1.E0,0.E0));
#996=VECTOR('',#995,1.04E1);
#997=CARTESIAN_POINT('',(-1.615462496604E0,0.E0,4.731836950072E0));
#998=LINE('',#997,#996);
#999=CARTESIAN_POINT('',(0.E0,1.04E1,0.E0));
#1000=DIRECTION('',(0.E0,-1.E0,0.E0));
#1001=DIRECTION('',(3.230924993209E-1,0.E0,9.463673900143E-1));
#1002=AXIS2_PLACEMENT_3D('',#999,#1000,#1001);
#1004=DIRECTION('',(-2.942072091905E-13,0.E0,-1.E0));
#1005=VECTOR('',#1004,5.283052848202E-3);
#1006=CARTESIAN_POINT('',(1.615462496605E0,1.04E1,4.737120002920E0));
#1007=LINE('',#1006,#1005);
#1008=CARTESIAN_POINT('',(0.E0,1.04E1,0.E0));
#1009=DIRECTION('',(0.E0,1.E0,0.E0));
#1010=DIRECTION('',(-3.227697295913E-1,0.E0,9.464775230609E-1));
#1011=AXIS2_PLACEMENT_3D('',#1008,#1009,#1010);
#1013=DIRECTION('',(-1.681184052517E-13,0.E0,1.E0));
#1014=VECTOR('',#1013,5.283052848203E-3);
#1015=CARTESIAN_POINT('',(-1.615462496604E0,1.04E1,4.731836950072E0));
#1016=LINE('',#1015,#1014);
#1017=CARTESIAN_POINT('',(1.615462496605E0,0.E0,4.731836950072E0));
#1018=CARTESIAN_POINT('',(-1.615462496604E0,0.E0,4.731836950072E0));
#1019=VERTEX_POINT('',#1017);
#1020=VERTEX_POINT('',#1018);
#1021=CARTESIAN_POINT('',(-1.615462496604E0,0.E0,4.737120002920E0));
#1022=VERTEX_POINT('',#1021);
#1023=CARTESIAN_POINT('',(1.615462496605E0,0.E0,4.737120002920E0));
#1024=VERTEX_POINT('',#1023);
#1025=CARTESIAN_POINT('',(1.615462496605E0,1.04E1,4.731836950072E0));
#1026=CARTESIAN_POINT('',(-1.615462496604E0,1.04E1,4.731836950072E0));
#1027=VERTEX_POINT('',#1025);
#1028=VERTEX_POINT('',#1026);
#1029=CARTESIAN_POINT('',(-1.615462496604E0,1.04E1,4.737120002920E0));
#1030=VERTEX_POINT('',#1029);
#1031=CARTESIAN_POINT('',(1.615462496605E0,1.04E1,4.737120002920E0));
#1032=VERTEX_POINT('',#1031);
#1033=CARTESIAN_POINT('',(0.E0,0.E0,0.E0));
#1034=DIRECTION('',(0.E0,1.E0,0.E0));
#1035=DIRECTION('',(1.E0,0.E0,0.E0));
#1036=AXIS2_PLACEMENT_3D('',#1033,#1034,#1035);
#1037=PLANE('',#1036);
#1039=ORIENTED_EDGE('',*,*,#1038,.T.);
#1041=ORIENTED_EDGE('',*,*,#1040,.T.);
#1043=ORIENTED_EDGE('',*,*,#1042,.T.);
#1045=ORIENTED_EDGE('',*,*,#1044,.T.);
#1046=EDGE_LOOP('',(#1039,#1041,#1043,#1045));
#1047=FACE_OUTER_BOUND('',#1046,.F.);
#1049=CARTESIAN_POINT('',(0.E0,0.E0,0.E0));
#1050=DIRECTION('',(0.E0,1.E0,0.E0));
#1051=DIRECTION('',(1.E0,0.E0,0.E0));
#1052=AXIS2_PLACEMENT_3D('',#1049,#1050,#1051);
#1053=CYLINDRICAL_SURFACE('',#1052,5.E0);
#1054=ORIENTED_EDGE('',*,*,#1038,.F.);
#1056=ORIENTED_EDGE('',*,*,#1055,.T.);
#1058=ORIENTED_EDGE('',*,*,#1057,.T.);
#1060=ORIENTED_EDGE('',*,*,#1059,.F.);
#1061=EDGE_LOOP('',(#1054,#1056,#1058,#1060));
#1062=FACE_OUTER_BOUND('',#1061,.F.);
#1064=CARTESIAN_POINT('',(1.615462496605E0,0.E0,4.737120002920E0));
#1065=DIRECTION('',(1.E0,0.E0,0.E0));
#1066=DIRECTION('',(0.E0,0.E0,-1.E0));
#1067=AXIS2_PLACEMENT_3D('',#1064,#1065,#1066);
#1068=PLANE('',#1067);
#1069=ORIENTED_EDGE('',*,*,#1044,.F.);
#1071=ORIENTED_EDGE('',*,*,#1070,.T.);
#1073=ORIENTED_EDGE('',*,*,#1072,.T.);
#1074=ORIENTED_EDGE('',*,*,#1055,.F.);
#1075=EDGE_LOOP('',(#1069,#1071,#1073,#1074));
#1076=FACE_OUTER_BOUND('',#1075,.F.);
#1078=CARTESIAN_POINT('',(0.E0,0.E0,0.E0));
#1079=DIRECTION('',(0.E0,1.E0,0.E0));
#1080=DIRECTION('',(1.E0,0.E0,0.E0));
#1081=AXIS2_PLACEMENT_3D('',#1078,#1079,#1080);
#1082=CYLINDRICAL_SURFACE('',#1081,5.005E0);
#1083=ORIENTED_EDGE('',*,*,#1042,.F.);
#1085=ORIENTED_EDGE('',*,*,#1084,.T.);
#1087=ORIENTED_EDGE('',*,*,#1086,.T.);
#1088=ORIENTED_EDGE('',*,*,#1070,.F.);
#1089=EDGE_LOOP('',(#1083,#1085,#1087,#1088));
#1090=FACE_OUTER_BOUND('',#1089,.F.);
#1092=FILL_AREA_STYLE_COLOUR('',#4);
#1093=FILL_AREA_STYLE('',(#1092));
#1094=SURFACE_STYLE_FILL_AREA(#1093);
#1095=SURFACE_SIDE_STYLE('',(#1094));
#1096=SURFACE_STYLE_USAGE(.POSITIVE.,#1095);
#1097=PRESENTATION_STYLE_ASSIGNMENT((#1096));
#1098=STYLED_ITEM('',(#1097),#1091);
#1099=CARTESIAN_POINT('',(-1.615462496604E0,0.E0,4.731836950072E0));
#1100=DIRECTION('',(-1.E0,0.E0,0.E0));
#1101=DIRECTION('',(0.E0,0.E0,1.E0));
#1102=AXIS2_PLACEMENT_3D('',#1099,#1100,#1101);
#1103=PLANE('',#1102);
#1104=ORIENTED_EDGE('',*,*,#1040,.F.);
#1105=ORIENTED_EDGE('',*,*,#1059,.T.);
#1107=ORIENTED_EDGE('',*,*,#1106,.T.);
#1108=ORIENTED_EDGE('',*,*,#1084,.F.);
#1109=EDGE_LOOP('',(#1104,#1105,#1107,#1108));
#1110=FACE_OUTER_BOUND('',#1109,.F.);
#1112=CARTESIAN_POINT('',(0.E0,1.04E1,0.E0));
#1113=DIRECTION('',(0.E0,1.E0,0.E0));
#1114=DIRECTION('',(1.E0,0.E0,0.E0));
#1115=AXIS2_PLACEMENT_3D('',#1112,#1113,#1114);
#1116=PLANE('',#1115);
#1117=ORIENTED_EDGE('',*,*,#1057,.F.);
#1118=ORIENTED_EDGE('',*,*,#1072,.F.);
#1119=ORIENTED_EDGE('',*,*,#1086,.F.);
#1120=ORIENTED_EDGE('',*,*,#1106,.F.);
#1121=EDGE_LOOP('',(#1117,#1118,#1119,#1120));
#1122=FACE_OUTER_BOUND('',#1121,.F.);
#1124=CLOSED_SHELL('',(#1048,#1063,#1077,#1091,#1111,#1123));
#1125=MANIFOLD_SOLID_BREP('',#1124);
#1128=PLANE_ANGLE_MEASURE_WITH_UNIT(PLANE_ANGLE_MEASURE(1.745329251994E-2),
#1127);
#1129=(CONVERSION_BASED_UNIT('DEGREE',#1128)NAMED_UNIT(*)PLANE_ANGLE_UNIT());
#1131=UNCERTAINTY_MEASURE_WITH_UNIT(LENGTH_MEASURE(1.089330072448E-3),#1126,
'distance_accuracy_value',
'Maximum model space distance between geometric entities at asserted connectivities');
#1133=CARTESIAN_POINT('',(0.E0,0.E0,0.E0));
#1134=DIRECTION('',(0.E0,0.E0,1.E0));
#1135=DIRECTION('',(1.E0,0.E0,0.E0));
#1138=PRODUCT_CONTEXT('',#900,'mechanical');
#1139=PRODUCT('PRT01002150','PRT01002150','NOT SPECIFIED',(#1138));
#1140=PRODUCT_DEFINITION_FORMATION('3','LAST_VERSION',#1139);
#1148=DERIVED_UNIT_ELEMENT(#1147,2.E0);
#1149=DERIVED_UNIT((#1148));
#1150=MEASURE_REPRESENTATION_ITEM('surface area measure',AREA_MEASURE(
6.857254756617E1),#1149);
#1155=DERIVED_UNIT_ELEMENT(#1154,3.E0);
#1156=DERIVED_UNIT((#1155));
#1157=MEASURE_REPRESENTATION_ITEM('volume measure',VOLUME_MEASURE(
1.710744011385E-1),#1156);
#1161=CARTESIAN_POINT('centre point',(9.969227138643E-13,5.2E0,
4.912836244877E0));
#1166=DERIVED_UNIT_ELEMENT(#1165,2.E0);
#1167=DERIVED_UNIT((#1166));
#1168=MEASURE_REPRESENTATION_ITEM('surface area measure',AREA_MEASURE(
6.857254756617E1),#1167);
#1173=DERIVED_UNIT_ELEMENT(#1172,3.E0);
#1174=DERIVED_UNIT((#1173));
#1175=MEASURE_REPRESENTATION_ITEM('volume measure',VOLUME_MEASURE(
1.710744011385E-1),#1174);
#1179=CARTESIAN_POINT('centre point',(9.969227138643E-13,5.2E0,
4.912836244877E0));
#1186=CARTESIAN_POINT('centre point',(5.000000000001E0,3.197031284998E1,
-8.716375512287E-2));
#1190=CARTESIAN_POINT('',(5.E0,2.677031284998E1,-5.E0));
#1191=DIRECTION('',(0.E0,0.E0,1.E0));
#1192=DIRECTION('',(1.E0,0.E0,0.E0));
#1193=AXIS2_PLACEMENT_3D('',#1190,#1191,#1192);
#1194=ITEM_DEFINED_TRANSFORMATION('','',#1136,#1193);
#1195=(REPRESENTATION_RELATIONSHIP('','',#1137,#951)REPRESENTATION_RELATIONSHIP_WITH_TRANSFORMATION(#1194)SHAPE_REPRESENTATION_RELATIONSHIP());
#1196=CONTEXT_DEPENDENT_SHAPE_REPRESENTATION(#1195,#1185);
#1198=CARTESIAN_POINT('',(-1.134E-2,0.E0,-8.6184E-1));
#1199=DIRECTION('',(0.E0,1.E0,0.E0));
#1200=DIRECTION('',(0.E0,0.E0,-1.E0));
#1201=AXIS2_PLACEMENT_3D('',#1198,#1199,#1200);
#1203=DRAUGHTING_PRE_DEFINED_CURVE_FONT('continuous');
#1204=CURVE_STYLE('',#1203,POSITIVE_LENGTH_MEASURE(2.E-2),#11);
#1205=PRESENTATION_STYLE_ASSIGNMENT((#1204));
#1206=STYLED_ITEM('',(#1205),#1202);
#1207=DIRECTION('',(0.E0,0.E0,1.E0));
#1208=VECTOR('',#1207,1.72368E0);
#1209=CARTESIAN_POINT('',(-8.505E-1,0.E0,-8.6184E-1));
#1210=LINE('',#1209,#1208);
#1211=CURVE_STYLE('',#1203,POSITIVE_LENGTH_MEASURE(2.E-2),#11);
#1212=PRESENTATION_STYLE_ASSIGNMENT((#1211));
#1213=STYLED_ITEM('',(#1212),#1210);
#1214=CARTESIAN_POINT('',(-1.134E-2,0.E0,8.6184E-1));
#1215=DIRECTION('',(0.E0,1.E0,0.E0));
#1216=DIRECTION('',(-1.E0,0.E0,0.E0));
#1217=AXIS2_PLACEMENT_3D('',#1214,#1215,#1216);
#1219=CURVE_STYLE('',#1203,POSITIVE_LENGTH_MEASURE(2.E-2),#11);
#1220=PRESENTATION_STYLE_ASSIGNMENT((#1219));
#1221=STYLED_ITEM('',(#1220),#1218);
#1222=DIRECTION('',(1.E0,0.E0,0.E0));
#1223=VECTOR('',#1222,2.268E-2);
#1224=CARTESIAN_POINT('',(-1.134E-2,0.E0,1.701E0));
#1225=LINE('',#1224,#1223);
#1226=CURVE_STYLE('',#1203,POSITIVE_LENGTH_MEASURE(2.E-2),#11);
#1227=PRESENTATION_STYLE_ASSIGNMENT((#1226));
#1228=STYLED_ITEM('',(#1227),#1225);
#1229=CARTESIAN_POINT('',(1.134E-2,0.E0,8.6184E-1));
#1230=DIRECTION('',(0.E0,1.E0,0.E0));
#1231=DIRECTION('',(0.E0,0.E0,1.E0));
#1232=AXIS2_PLACEMENT_3D('',#1229,#1230,#1231);
#1234=CURVE_STYLE('',#1203,POSITIVE_LENGTH_MEASURE(2.E-2),#11);
#1235=PRESENTATION_STYLE_ASSIGNMENT((#1234));
#1236=STYLED_ITEM('',(#1235),#1233);
#1237=DIRECTION('',(0.E0,0.E0,-1.E0));
#1238=VECTOR('',#1237,1.72368E0);
#1239=CARTESIAN_POINT('',(8.505E-1,0.E0,8.6184E-1));
#1240=LINE('',#1239,#1238);
#1241=CURVE_STYLE('',#1203,POSITIVE_LENGTH_MEASURE(2.E-2),#11);
#1242=PRESENTATION_STYLE_ASSIGNMENT((#1241));
#1243=STYLED_ITEM('',(#1242),#1240);
#1244=CARTESIAN_POINT('',(1.134E-2,0.E0,-8.6184E-1));
#1245=DIRECTION('',(0.E0,1.E0,0.E0));
#1246=DIRECTION('',(1.E0,0.E0,0.E0));
#1247=AXIS2_PLACEMENT_3D('',#1244,#1245,#1246);
#1249=CURVE_STYLE('',#1203,POSITIVE_LENGTH_MEASURE(2.E-2),#11);
#1250=PRESENTATION_STYLE_ASSIGNMENT((#1249));
#1251=STYLED_ITEM('',(#1250),#1248);
#1252=DIRECTION('',(-1.E0,0.E0,0.E0));
#1253=VECTOR('',#1252,2.268E-2);
#1254=CARTESIAN_POINT('',(1.134E-2,0.E0,-1.701E0));
#1255=LINE('',#1254,#1253);
#1256=CURVE_STYLE('',#1203,POSITIVE_LENGTH_MEASURE(2.E-2),#11);
#1257=PRESENTATION_STYLE_ASSIGNMENT((#1256));
#1258=STYLED_ITEM('',(#1257),#1255);
#1259=DIRECTION('',(1.E0,0.E0,0.E0));
#1260=VECTOR('',#1259,4.037142947491E-3);
#1261=CARTESIAN_POINT('',(-2.018571473745E-3,0.E0,-1.236743717903E0));
#1262=LINE('',#1261,#1260);
#1263=CURVE_STYLE('',#1203,POSITIVE_LENGTH_MEASURE(2.E-2),#11);
#1264=PRESENTATION_STYLE_ASSIGNMENT((#1263));
#1265=STYLED_ITEM('',(#1264),#1262);
#1266=CARTESIAN_POINT('',(2.018571473746E-3,0.E0,-7.264437179028E-1));
#1267=DIRECTION('',(0.E0,-1.E0,0.E0));
#1268=DIRECTION('',(0.E0,0.E0,-1.E0));
#1269=AXIS2_PLACEMENT_3D('',#1266,#1267,#1268);
#1271=CURVE_STYLE('',#1203,POSITIVE_LENGTH_MEASURE(2.E-2),#11);
#1272=PRESENTATION_STYLE_ASSIGNMENT((#1271));
#1273=STYLED_ITEM('',(#1272),#1270);
#1274=DIRECTION('',(0.E0,0.E0,1.E0));
#1275=VECTOR('',#1274,1.452887435806E0);
#1276=CARTESIAN_POINT('',(5.123185714737E-1,0.E0,-7.264437179028E-1));
#1277=LINE('',#1276,#1275);
#1278=CURVE_STYLE('',#1203,POSITIVE_LENGTH_MEASURE(2.E-2),#11);
#1279=PRESENTATION_STYLE_ASSIGNMENT((#1278));
#1280=STYLED_ITEM('',(#1279),#1277);
#1281=CARTESIAN_POINT('',(2.018571473746E-3,0.E0,7.264437179028E-1));
#1282=DIRECTION('',(0.E0,-1.E0,0.E0));
#1283=DIRECTION('',(1.E0,0.E0,0.E0));
#1284=AXIS2_PLACEMENT_3D('',#1281,#1282,#1283);
#1286=CURVE_STYLE('',#1203,POSITIVE_LENGTH_MEASURE(2.E-2),#11);
#1287=PRESENTATION_STYLE_ASSIGNMENT((#1286));
#1288=STYLED_ITEM('',(#1287),#1285);
#1289=DIRECTION('',(-1.E0,0.E0,0.E0));
#1290=VECTOR('',#1289,4.037142947491E-3);
#1291=CARTESIAN_POINT('',(2.018571473745E-3,0.E0,1.236743717903E0));
#1292=LINE('',#1291,#1290);
#1293=CURVE_STYLE('',#1203,POSITIVE_LENGTH_MEASURE(2.E-2),#11);
#1294=PRESENTATION_STYLE_ASSIGNMENT((#1293));
#1295=STYLED_ITEM('',(#1294),#1292);
#1296=CARTESIAN_POINT('',(-2.018571473746E-3,0.E0,7.264437179028E-1));
#1297=DIRECTION('',(0.E0,-1.E0,0.E0));
#1298=DIRECTION('',(0.E0,0.E0,1.E0));
#1299=AXIS2_PLACEMENT_3D('',#1296,#1297,#1298);
#1301=CURVE_STYLE('',#1203,POSITIVE_LENGTH_MEASURE(2.E-2),#11);
#1302=PRESENTATION_STYLE_ASSIGNMENT((#1301));
#1303=STYLED_ITEM('',(#1302),#1300);
#1304=DIRECTION('',(0.E0,0.E0,-1.E0));
#1305=VECTOR('',#1304,1.452887435806E0);
#1306=CARTESIAN_POINT('',(-5.123185714737E-1,0.E0,7.264437179028E-1));
#1307=LINE('',#1306,#1305);
#1308=CURVE_STYLE('',#1203,POSITIVE_LENGTH_MEASURE(2.E-2),#11);
#1309=PRESENTATION_STYLE_ASSIGNMENT((#1308));
#1310=STYLED_ITEM('',(#1309),#1307);
#1311=CARTESIAN_POINT('',(-2.018571473746E-3,0.E0,-7.264437179028E-1));
#1312=DIRECTION('',(0.E0,-1.E0,0.E0));
#1313=DIRECTION('',(-1.E0,0.E0,0.E0));
#1314=AXIS2_PLACEMENT_3D('',#1311,#1312,#1313);
#1316=CURVE_STYLE('',#1203,POSITIVE_LENGTH_MEASURE(2.E-2),#11);
#1317=PRESENTATION_STYLE_ASSIGNMENT((#1316));
#1318=STYLED_ITEM('',(#1317),#1315);
#1319=DIRECTION('',(0.E0,1.E0,0.E0));
#1320=VECTOR('',#1319,1.134E-2);
#1321=CARTESIAN_POINT('',(-1.134E-2,0.E0,-1.701E0));
#1322=LINE('',#1321,#1320);
#1323=CURVE_STYLE('',#1203,POSITIVE_LENGTH_MEASURE(2.E-2),#11);
#1324=PRESENTATION_STYLE_ASSIGNMENT((#1323));
#1325=STYLED_ITEM('',(#1324),#1322);
#1326=DIRECTION('',(0.E0,1.E0,0.E0));
#1327=VECTOR('',#1326,1.134E-2);
#1328=CARTESIAN_POINT('',(1.134E-2,0.E0,-1.701E0));
#1329=LINE('',#1328,#1327);
#1330=CURVE_STYLE('',#1203,POSITIVE_LENGTH_MEASURE(2.E-2),#11);
#1331=PRESENTATION_STYLE_ASSIGNMENT((#1330));
#1332=STYLED_ITEM('',(#1331),#1329);
#1333=DIRECTION('',(0.E0,1.E0,0.E0));
#1334=VECTOR('',#1333,1.134E-2);
#1335=CARTESIAN_POINT('',(8.505E-1,0.E0,-8.6184E-1));
#1336=LINE('',#1335,#1334);
#1337=CURVE_STYLE('',#1203,POSITIVE_LENGTH_MEASURE(2.E-2),#11);
#1338=PRESENTATION_STYLE_ASSIGNMENT((#1337));
#1339=STYLED_ITEM('',(#1338),#1336);
#1340=DIRECTION('',(0.E0,1.E0,0.E0));
#1341=VECTOR('',#1340,1.134E-2);
#1342=CARTESIAN_POINT('',(8.505E-1,0.E0,8.6184E-1));
#1343=LINE('',#1342,#1341);
#1344=CURVE_STYLE('',#1203,POSITIVE_LENGTH_MEASURE(2.E-2),#11);
#1345=PRESENTATION_STYLE_ASSIGNMENT((#1344));
#1346=STYLED_ITEM('',(#1345),#1343);
#1347=DIRECTION('',(0.E0,1.E0,0.E0));
#1348=VECTOR('',#1347,1.134E-2);
#1349=CARTESIAN_POINT('',(1.134E-2,0.E0,1.701E0));
#1350=LINE('',#1349,#1348);
#1351=CURVE_STYLE('',#1203,POSITIVE_LENGTH_MEASURE(2.E-2),#11);
#1352=PRESENTATION_STYLE_ASSIGNMENT((#1351));
#1353=STYLED_ITEM('',(#1352),#1350);
#1354=DIRECTION('',(0.E0,1.E0,0.E0));
#1355=VECTOR('',#1354,1.134E-2);
#1356=CARTESIAN_POINT('',(-1.134E-2,0.E0,1.701E0));
#1357=LINE('',#1356,#1355);
#1358=CURVE_STYLE('',#1203,POSITIVE_LENGTH_MEASURE(2.E-2),#11);
#1359=PRESENTATION_STYLE_ASSIGNMENT((#1358));
#1360=STYLED_ITEM('',(#1359),#1357);
#1361=DIRECTION('',(0.E0,1.E0,0.E0));
#1362=VECTOR('',#1361,1.134E-2);
#1363=CARTESIAN_POINT('',(-8.505E-1,0.E0,8.6184E-1));
#1364=LINE('',#1363,#1362);
#1365=CURVE_STYLE('',#1203,POSITIVE_LENGTH_MEASURE(2.E-2),#11);
#1366=PRESENTATION_STYLE_ASSIGNMENT((#1365));
#1367=STYLED_ITEM('',(#1366),#1364);
#1368=DIRECTION('',(0.E0,1.E0,0.E0));
#1369=VECTOR('',#1368,1.134E-2);
#1370=CARTESIAN_POINT('',(-8.505E-1,0.E0,-8.6184E-1));
#1371=LINE('',#1370,#1369);
#1372=CURVE_STYLE('',#1203,POSITIVE_LENGTH_MEASURE(2.E-2),#11);
#1373=PRESENTATION_STYLE_ASSIGNMENT((#1372));
#1374=STYLED_ITEM('',(#1373),#1371);
#1375=CARTESIAN_POINT('',(-1.134E-2,1.134E-2,-8.6184E-1));
#1376=DIRECTION('',(0.E0,1.E0,0.E0));
#1377=DIRECTION('',(0.E0,0.E0,-1.E0));
#1378=AXIS2_PLACEMENT_3D('',#1375,#1376,#1377);
#1380=CURVE_STYLE('',#1203,POSITIVE_LENGTH_MEASURE(2.E-2),#11);
#1381=PRESENTATION_STYLE_ASSIGNMENT((#1380));
#1382=STYLED_ITEM('',(#1381),#1379);
#1383=DIRECTION('',(-1.E0,0.E0,0.E0));
#1384=VECTOR('',#1383,2.268E-2);
#1385=CARTESIAN_POINT('',(1.134E-2,1.134E-2,-1.701E0));
#1386=LINE('',#1385,#1384);
#1387=CURVE_STYLE('',#1203,POSITIVE_LENGTH_MEASURE(2.E-2),#11);
#1388=PRESENTATION_STYLE_ASSIGNMENT((#1387));
#1389=STYLED_ITEM('',(#1388),#1386);
#1390=CARTESIAN_POINT('',(1.134E-2,1.134E-2,-8.6184E-1));
#1391=DIRECTION('',(0.E0,1.E0,0.E0));
#1392=DIRECTION('',(1.E0,0.E0,0.E0));
#1393=AXIS2_PLACEMENT_3D('',#1390,#1391,#1392);
#1395=CURVE_STYLE('',#1203,POSITIVE_LENGTH_MEASURE(2.E-2),#11);
#1396=PRESENTATION_STYLE_ASSIGNMENT((#1395));
#1397=STYLED_ITEM('',(#1396),#1394);
#1398=DIRECTION('',(0.E0,0.E0,-1.E0));
#1399=VECTOR('',#1398,1.72368E0);
#1400=CARTESIAN_POINT('',(8.505E-1,1.134E-2,8.6184E-1));
#1401=LINE('',#1400,#1399);
#1402=CURVE_STYLE('',#1203,POSITIVE_LENGTH_MEASURE(2.E-2),#11);
#1403=PRESENTATION_STYLE_ASSIGNMENT((#1402));
#1404=STYLED_ITEM('',(#1403),#1401);
#1405=CARTESIAN_POINT('',(1.134E-2,1.134E-2,8.6184E-1));
#1406=DIRECTION('',(0.E0,1.E0,0.E0));
#1407=DIRECTION('',(0.E0,0.E0,1.E0));
#1408=AXIS2_PLACEMENT_3D('',#1405,#1406,#1407);
#1410=CURVE_STYLE('',#1203,POSITIVE_LENGTH_MEASURE(2.E-2),#11);
#1411=PRESENTATION_STYLE_ASSIGNMENT((#1410));
#1412=STYLED_ITEM('',(#1411),#1409);
#1413=DIRECTION('',(1.E0,0.E0,0.E0));
#1414=VECTOR('',#1413,2.268E-2);
#1415=CARTESIAN_POINT('',(-1.134E-2,1.134E-2,1.701E0));
#1416=LINE('',#1415,#1414);
#1417=CURVE_STYLE('',#1203,POSITIVE_LENGTH_MEASURE(2.E-2),#11);
#1418=PRESENTATION_STYLE_ASSIGNMENT((#1417));
#1419=STYLED_ITEM('',(#1418),#1416);
#1420=CARTESIAN_POINT('',(-1.134E-2,1.134E-2,8.6184E-1));
#1421=DIRECTION('',(0.E0,1.E0,0.E0));
#1422=DIRECTION('',(-1.E0,0.E0,0.E0));
#1423=AXIS2_PLACEMENT_3D('',#1420,#1421,#1422);
#1425=CURVE_STYLE('',#1203,POSITIVE_LENGTH_MEASURE(2.E-2),#11);
#1426=PRESENTATION_STYLE_ASSIGNMENT((#1425));
#1427=STYLED_ITEM('',(#1426),#1424);
#1428=DIRECTION('',(0.E0,0.E0,1.E0));
#1429=VECTOR('',#1428,1.72368E0);
#1430=CARTESIAN_POINT('',(-8.505E-1,1.134E-2,-8.6184E-1));
#1431=LINE('',#1430,#1429);
#1432=CURVE_STYLE('',#1203,POSITIVE_LENGTH_MEASURE(2.E-2),#11);
#1433=PRESENTATION_STYLE_ASSIGNMENT((#1432));
#1434=STYLED_ITEM('',(#1433),#1431);
#1435=DIRECTION('',(1.E0,0.E0,0.E0));
#1436=VECTOR('',#1435,4.037142947491E-3);
#1437=CARTESIAN_POINT('',(-2.018571473745E-3,1.134E-2,-1.236743717903E0));
#1438=LINE('',#1437,#1436);
#1439=CURVE_STYLE('',#1203,POSITIVE_LENGTH_MEASURE(2.E-2),#11);
#1440=PRESENTATION_STYLE_ASSIGNMENT((#1439));
#1441=STYLED_ITEM('',(#1440),#1438);
#1442=CARTESIAN_POINT('',(-2.018571473746E-3,1.134E-2,-7.264437179028E-1));
#1443=DIRECTION('',(0.E0,-1.E0,0.E0));
#1444=DIRECTION('',(-1.E0,0.E0,0.E0));
#1445=AXIS2_PLACEMENT_3D('',#1442,#1443,#1444);
#1447=CURVE_STYLE('',#1203,POSITIVE_LENGTH_MEASURE(2.E-2),#11);
#1448=PRESENTATION_STYLE_ASSIGNMENT((#1447));
#1449=STYLED_ITEM('',(#1448),#1446);
#1450=DIRECTION('',(0.E0,0.E0,-1.E0));
#1451=VECTOR('',#1450,1.452887435806E0);
#1452=CARTESIAN_POINT('',(-5.123185714737E-1,1.134E-2,7.264437179028E-1));
#1453=LINE('',#1452,#1451);
#1454=CURVE_STYLE('',#1203,POSITIVE_LENGTH_MEASURE(2.E-2),#11);
#1455=PRESENTATION_STYLE_ASSIGNMENT((#1454));
#1456=STYLED_ITEM('',(#1455),#1453);
#1457=CARTESIAN_POINT('',(-2.018571473746E-3,1.134E-2,7.264437179028E-1));
#1458=DIRECTION('',(0.E0,-1.E0,0.E0));
#1459=DIRECTION('',(0.E0,0.E0,1.E0));
#1460=AXIS2_PLACEMENT_3D('',#1457,#1458,#1459);
#1462=CURVE_STYLE('',#1203,POSITIVE_LENGTH_MEASURE(2.E-2),#11);
#1463=PRESENTATION_STYLE_ASSIGNMENT((#1462));
#1464=STYLED_ITEM('',(#1463),#1461);
#1465=DIRECTION('',(-1.E0,0.E0,0.E0));
#1466=VECTOR('',#1465,4.037142947491E-3);
#1467=CARTESIAN_POINT('',(2.018571473745E-3,1.134E-2,1.236743717903E0));
#1468=LINE('',#1467,#1466);
#1469=CURVE_STYLE('',#1203,POSITIVE_LENGTH_MEASURE(2.E-2),#11);
#1470=PRESENTATION_STYLE_ASSIGNMENT((#1469));
#1471=STYLED_ITEM('',(#1470),#1468);
#1472=CARTESIAN_POINT('',(2.018571473746E-3,1.134E-2,7.264437179028E-1));
#1473=DIRECTION('',(0.E0,-1.E0,0.E0));
#1474=DIRECTION('',(1.E0,0.E0,0.E0));
#1475=AXIS2_PLACEMENT_3D('',#1472,#1473,#1474);
#1477=CURVE_STYLE('',#1203,POSITIVE_LENGTH_MEASURE(2.E-2),#11);
#1478=PRESENTATION_STYLE_ASSIGNMENT((#1477));
#1479=STYLED_ITEM('',(#1478),#1476);
#1480=DIRECTION('',(0.E0,0.E0,1.E0));
#1481=VECTOR('',#1480,1.452887435806E0);
#1482=CARTESIAN_POINT('',(5.123185714737E-1,1.134E-2,-7.264437179028E-1));
#1483=LINE('',#1482,#1481);
#1484=CURVE_STYLE('',#1203,POSITIVE_LENGTH_MEASURE(2.E-2),#11);
#1485=PRESENTATION_STYLE_ASSIGNMENT((#1484));
#1486=STYLED_ITEM('',(#1485),#1483);
#1487=CARTESIAN_POINT('',(2.018571473746E-3,1.134E-2,-7.264437179028E-1));
#1488=DIRECTION('',(0.E0,-1.E0,0.E0));
#1489=DIRECTION('',(0.E0,0.E0,-1.E0));
#1490=AXIS2_PLACEMENT_3D('',#1487,#1488,#1489);
#1492=CURVE_STYLE('',#1203,POSITIVE_LENGTH_MEASURE(2.E-2),#11);
#1493=PRESENTATION_STYLE_ASSIGNMENT((#1492));
#1494=STYLED_ITEM('',(#1493),#1491);
#1495=DIRECTION('',(0.E0,1.E0,0.E0));
#1496=VECTOR('',#1495,1.134E-2);
#1497=CARTESIAN_POINT('',(-2.018571473745E-3,0.E0,-1.236743717903E0));
#1498=LINE('',#1497,#1496);
#1499=CURVE_STYLE('',#1203,POSITIVE_LENGTH_MEASURE(2.E-2),#11);
#1500=PRESENTATION_STYLE_ASSIGNMENT((#1499));
#1501=STYLED_ITEM('',(#1500),#1498);
#1502=DIRECTION('',(0.E0,1.E0,0.E0));
#1503=VECTOR('',#1502,1.134E-2);
#1504=CARTESIAN_POINT('',(-5.123185714737E-1,0.E0,-7.264437179028E-1));
#1505=LINE('',#1504,#1503);
#1506=CURVE_STYLE('',#1203,POSITIVE_LENGTH_MEASURE(2.E-2),#11);
#1507=PRESENTATION_STYLE_ASSIGNMENT((#1506));
#1508=STYLED_ITEM('',(#1507),#1505);
#1509=DIRECTION('',(0.E0,1.E0,0.E0));
#1510=VECTOR('',#1509,1.134E-2);
#1511=CARTESIAN_POINT('',(-5.123185714737E-1,0.E0,7.264437179028E-1));
#1512=LINE('',#1511,#1510);
#1513=CURVE_STYLE('',#1203,POSITIVE_LENGTH_MEASURE(2.E-2),#11);
#1514=PRESENTATION_STYLE_ASSIGNMENT((#1513));
#1515=STYLED_ITEM('',(#1514),#1512);
#1516=DIRECTION('',(0.E0,1.E0,0.E0));
#1517=VECTOR('',#1516,1.134E-2);
#1518=CARTESIAN_POINT('',(-2.018571473746E-3,0.E0,1.236743717903E0));
#1519=LINE('',#1518,#1517);
#1520=CURVE_STYLE('',#1203,POSITIVE_LENGTH_MEASURE(2.E-2),#11);
#1521=PRESENTATION_STYLE_ASSIGNMENT((#1520));
#1522=STYLED_ITEM('',(#1521),#1519);
#1523=DIRECTION('',(0.E0,1.E0,0.E0));
#1524=VECTOR('',#1523,1.134E-2);
#1525=CARTESIAN_POINT('',(2.018571473745E-3,0.E0,1.236743717903E0));
#1526=LINE('',#1525,#1524);
#1527=CURVE_STYLE('',#1203,POSITIVE_LENGTH_MEASURE(2.E-2),#11);
#1528=PRESENTATION_STYLE_ASSIGNMENT((#1527));
#1529=STYLED_ITEM('',(#1528),#1526);
#1530=DIRECTION('',(0.E0,1.E0,0.E0));
#1531=VECTOR('',#1530,1.134E-2);
#1532=CARTESIAN_POINT('',(5.123185714737E-1,0.E0,7.264437179028E-1));
#1533=LINE('',#1532,#1531);
#1534=CURVE_STYLE('',#1203,POSITIVE_LENGTH_MEASURE(2.E-2),#11);
#1535=PRESENTATION_STYLE_ASSIGNMENT((#1534));
#1536=STYLED_ITEM('',(#1535),#1533);
#1537=DIRECTION('',(0.E0,1.E0,0.E0));
#1538=VECTOR('',#1537,1.134E-2);
#1539=CARTESIAN_POINT('',(5.123185714737E-1,0.E0,-7.264437179028E-1));
#1540=LINE('',#1539,#1538);
#1541=CURVE_STYLE('',#1203,POSITIVE_LENGTH_MEASURE(2.E-2),#11);
#1542=PRESENTATION_STYLE_ASSIGNMENT((#1541));
#1543=STYLED_ITEM('',(#1542),#1540);
#1544=DIRECTION('',(0.E0,1.E0,0.E0));
#1545=VECTOR('',#1544,1.134E-2);
#1546=CARTESIAN_POINT('',(2.018571473746E-3,0.E0,-1.236743717903E0));
#1547=LINE('',#1546,#1545);
#1548=CURVE_STYLE('',#1203,POSITIVE_LENGTH_MEASURE(2.E-2),#11);
#1549=PRESENTATION_STYLE_ASSIGNMENT((#1548));
#1550=STYLED_ITEM('',(#1549),#1547);
#1551=CARTESIAN_POINT('',(-1.134E-2,0.E0,-1.701E0));
#1552=CARTESIAN_POINT('',(-8.505E-1,0.E0,-8.6184E-1));
#1553=VERTEX_POINT('',#1551);
#1554=VERTEX_POINT('',#1552);
#1555=CARTESIAN_POINT('',(-8.505E-1,0.E0,8.6184E-1));
#1556=VERTEX_POINT('',#1555);
#1557=CARTESIAN_POINT('',(-1.134E-2,0.E0,1.701E0));
#1558=VERTEX_POINT('',#1557);
#1559=CARTESIAN_POINT('',(1.134E-2,0.E0,1.701E0));
#1560=VERTEX_POINT('',#1559);
#1561=CARTESIAN_POINT('',(8.505E-1,0.E0,8.6184E-1));
#1562=VERTEX_POINT('',#1561);
#1563=CARTESIAN_POINT('',(8.505E-1,0.E0,-8.6184E-1));
#1564=VERTEX_POINT('',#1563);
#1565=CARTESIAN_POINT('',(1.134E-2,0.E0,-1.701E0));
#1566=VERTEX_POINT('',#1565);
#1567=CARTESIAN_POINT('',(-2.018571473745E-3,0.E0,-1.236743717903E0));
#1568=CARTESIAN_POINT('',(2.018571473746E-3,0.E0,-1.236743717903E0));
#1569=VERTEX_POINT('',#1567);
#1570=VERTEX_POINT('',#1568);
#1571=CARTESIAN_POINT('',(5.123185714737E-1,0.E0,-7.264437179028E-1));
#1572=VERTEX_POINT('',#1571);
#1573=CARTESIAN_POINT('',(5.123185714737E-1,0.E0,7.264437179028E-1));
#1574=VERTEX_POINT('',#1573);
#1575=CARTESIAN_POINT('',(2.018571473745E-3,0.E0,1.236743717903E0));
#1576=VERTEX_POINT('',#1575);
#1577=CARTESIAN_POINT('',(-2.018571473746E-3,0.E0,1.236743717903E0));
#1578=VERTEX_POINT('',#1577);
#1579=CARTESIAN_POINT('',(-5.123185714737E-1,0.E0,7.264437179028E-1));
#1580=VERTEX_POINT('',#1579);
#1581=CARTESIAN_POINT('',(-5.123185714737E-1,0.E0,-7.264437179028E-1));
#1582=VERTEX_POINT('',#1581);
#1583=CARTESIAN_POINT('',(-1.134E-2,1.134E-2,-1.701E0));
#1584=CARTESIAN_POINT('',(-8.505E-1,1.134E-2,-8.6184E-1));
#1585=VERTEX_POINT('',#1583);
#1586=VERTEX_POINT('',#1584);
#1587=CARTESIAN_POINT('',(-8.505E-1,1.134E-2,8.6184E-1));
#1588=VERTEX_POINT('',#1587);
#1589=CARTESIAN_POINT('',(-1.134E-2,1.134E-2,1.701E0));
#1590=VERTEX_POINT('',#1589);
#1591=CARTESIAN_POINT('',(1.134E-2,1.134E-2,1.701E0));
#1592=VERTEX_POINT('',#1591);
#1593=CARTESIAN_POINT('',(8.505E-1,1.134E-2,8.6184E-1));
#1594=VERTEX_POINT('',#1593);
#1595=CARTESIAN_POINT('',(8.505E-1,1.134E-2,-8.6184E-1));
#1596=VERTEX_POINT('',#1595);
#1597=CARTESIAN_POINT('',(1.134E-2,1.134E-2,-1.701E0));
#1598=VERTEX_POINT('',#1597);
#1599=CARTESIAN_POINT('',(-2.018571473745E-3,1.134E-2,-1.236743717903E0));
#1600=CARTESIAN_POINT('',(2.018571473746E-3,1.134E-2,-1.236743717903E0));
#1601=VERTEX_POINT('',#1599);
#1602=VERTEX_POINT('',#1600);
#1603=CARTESIAN_POINT('',(5.123185714737E-1,1.134E-2,-7.264437179028E-1));
#1604=VERTEX_POINT('',#1603);
#1605=CARTESIAN_POINT('',(5.123185714737E-1,1.134E-2,7.264437179028E-1));
#1606=VERTEX_POINT('',#1605);
#1607=CARTESIAN_POINT('',(2.018571473745E-3,1.134E-2,1.236743717903E0));
#1608=VERTEX_POINT('',#1607);
#1609=CARTESIAN_POINT('',(-2.018571473746E-3,1.134E-2,1.236743717903E0));
#1610=VERTEX_POINT('',#1609);
#1611=CARTESIAN_POINT('',(-5.123185714737E-1,1.134E-2,7.264437179028E-1));
#1612=VERTEX_POINT('',#1611);
#1613=CARTESIAN_POINT('',(-5.123185714737E-1,1.134E-2,-7.264437179028E-1));
#1614=VERTEX_POINT('',#1613);
#1615=CARTESIAN_POINT('',(0.E0,0.E0,0.E0));
#1616=DIRECTION('',(0.E0,1.E0,0.E0));
#1617=DIRECTION('',(1.E0,0.E0,0.E0));
#1618=AXIS2_PLACEMENT_3D('',#1615,#1616,#1617);
#1619=PLANE('',#1618);
#1621=ORIENTED_EDGE('',*,*,#1620,.T.);
#1623=ORIENTED_EDGE('',*,*,#1622,.T.);
#1625=ORIENTED_EDGE('',*,*,#1624,.T.);
#1627=ORIENTED_EDGE('',*,*,#1626,.T.);
#1629=ORIENTED_EDGE('',*,*,#1628,.T.);
#1631=ORIENTED_EDGE('',*,*,#1630,.T.);
#1633=ORIENTED_EDGE('',*,*,#1632,.T.);
#1635=ORIENTED_EDGE('',*,*,#1634,.T.);
#1636=EDGE_LOOP('',(#1621,#1623,#1625,#1627,#1629,#1631,#1633,#1635));
#1637=FACE_OUTER_BOUND('',#1636,.F.);
#1639=ORIENTED_EDGE('',*,*,#1638,.T.);
#1641=ORIENTED_EDGE('',*,*,#1640,.T.);
#1643=ORIENTED_EDGE('',*,*,#1642,.T.);
#1645=ORIENTED_EDGE('',*,*,#1644,.T.);
#1647=ORIENTED_EDGE('',*,*,#1646,.T.);
#1649=ORIENTED_EDGE('',*,*,#1648,.T.);
#1651=ORIENTED_EDGE('',*,*,#1650,.T.);
#1653=ORIENTED_EDGE('',*,*,#1652,.T.);
#1654=EDGE_LOOP('',(#1639,#1641,#1643,#1645,#1647,#1649,#1651,#1653));
#1655=FACE_BOUND('',#1654,.F.);
#1657=FILL_AREA_STYLE_COLOUR('',#11);
#1658=FILL_AREA_STYLE('',(#1657));
#1659=SURFACE_STYLE_FILL_AREA(#1658);
#1660=SURFACE_SIDE_STYLE('',(#1659));
#1661=SURFACE_STYLE_USAGE(.BOTH.,#1660);
#1662=PRESENTATION_STYLE_ASSIGNMENT((#1661));
#1663=STYLED_ITEM('',(#1662),#1656);
#1664=CARTESIAN_POINT('',(-1.134E-2,0.E0,-8.6184E-1));
#1665=DIRECTION('',(0.E0,1.E0,0.E0));
#1666=DIRECTION('',(1.E0,0.E0,0.E0));
#1667=AXIS2_PLACEMENT_3D('',#1664,#1665,#1666);
#1668=CYLINDRICAL_SURFACE('',#1667,8.3916E-1);
#1669=ORIENTED_EDGE('',*,*,#1620,.F.);
#1671=ORIENTED_EDGE('',*,*,#1670,.T.);
#1673=ORIENTED_EDGE('',*,*,#1672,.T.);
#1675=ORIENTED_EDGE('',*,*,#1674,.F.);
#1676=EDGE_LOOP('',(#1669,#1671,#1673,#1675));
#1677=FACE_OUTER_BOUND('',#1676,.F.);
#1679=FILL_AREA_STYLE_COLOUR('',#11);
#1680=FILL_AREA_STYLE('',(#1679));
#1681=SURFACE_STYLE_FILL_AREA(#1680);
#1682=SURFACE_SIDE_STYLE('',(#1681));
#1683=SURFACE_STYLE_USAGE(.BOTH.,#1682);
#1684=PRESENTATION_STYLE_ASSIGNMENT((#1683));
#1685=STYLED_ITEM('',(#1684),#1678);
#1686=CARTESIAN_POINT('',(1.134E-2,0.E0,-1.701E0));
#1687=DIRECTION('',(0.E0,0.E0,-1.E0));
#1688=DIRECTION('',(-1.E0,0.E0,0.E0));
#1689=AXIS2_PLACEMENT_3D('',#1686,#1687,#1688);
#1690=PLANE('',#1689);
#1691=ORIENTED_EDGE('',*,*,#1634,.F.);
#1693=ORIENTED_EDGE('',*,*,#1692,.T.);
#1695=ORIENTED_EDGE('',*,*,#1694,.T.);
#1696=ORIENTED_EDGE('',*,*,#1670,.F.);
#1697=EDGE_LOOP('',(#1691,#1693,#1695,#1696));
#1698=FACE_OUTER_BOUND('',#1697,.F.);
#1700=FILL_AREA_STYLE_COLOUR('',#11);
#1701=FILL_AREA_STYLE('',(#1700));
#1702=SURFACE_STYLE_FILL_AREA(#1701);
#1703=SURFACE_SIDE_STYLE('',(#1702));
#1704=SURFACE_STYLE_USAGE(.BOTH.,#1703);
#1705=PRESENTATION_STYLE_ASSIGNMENT((#1704));
#1706=STYLED_ITEM('',(#1705),#1699);
#1707=CARTESIAN_POINT('',(1.134E-2,0.E0,-8.6184E-1));
#1708=DIRECTION('',(0.E0,1.E0,0.E0));
#1709=DIRECTION('',(1.E0,0.E0,0.E0));
#1710=AXIS2_PLACEMENT_3D('',#1707,#1708,#1709);
#1711=CYLINDRICAL_SURFACE('',#1710,8.3916E-1);
#1712=ORIENTED_EDGE('',*,*,#1632,.F.);
#1714=ORIENTED_EDGE('',*,*,#1713,.T.);
#1716=ORIENTED_EDGE('',*,*,#1715,.T.);
#1717=ORIENTED_EDGE('',*,*,#1692,.F.);
#1718=EDGE_LOOP('',(#1712,#1714,#1716,#1717));
#1719=FACE_OUTER_BOUND('',#1718,.F.);
#1721=FILL_AREA_STYLE_COLOUR('',#11);
#1722=FILL_AREA_STYLE('',(#1721));
#1723=SURFACE_STYLE_FILL_AREA(#1722);
#1724=SURFACE_SIDE_STYLE('',(#1723));
#1725=SURFACE_STYLE_USAGE(.BOTH.,#1724);
#1726=PRESENTATION_STYLE_ASSIGNMENT((#1725));
#1727=STYLED_ITEM('',(#1726),#1720);
#1728=CARTESIAN_POINT('',(8.505E-1,0.E0,8.6184E-1));
#1729=DIRECTION('',(1.E0,0.E0,0.E0));
#1730=DIRECTION('',(0.E0,0.E0,-1.E0));
#1731=AXIS2_PLACEMENT_3D('',#1728,#1729,#1730);
#1732=PLANE('',#1731);
#1733=ORIENTED_EDGE('',*,*,#1630,.F.);
#1735=ORIENTED_EDGE('',*,*,#1734,.T.);
#1737=ORIENTED_EDGE('',*,*,#1736,.T.);
#1738=ORIENTED_EDGE('',*,*,#1713,.F.);
#1739=EDGE_LOOP('',(#1733,#1735,#1737,#1738));
#1740=FACE_OUTER_BOUND('',#1739,.F.);
#1742=FILL_AREA_STYLE_COLOUR('',#11);
#1743=FILL_AREA_STYLE('',(#1742));
#1744=SURFACE_STYLE_FILL_AREA(#1743);
#1745=SURFACE_SIDE_STYLE('',(#1744));
#1746=SURFACE_STYLE_USAGE(.BOTH.,#1745);
#1747=PRESENTATION_STYLE_ASSIGNMENT((#1746));
#1748=STYLED_ITEM('',(#1747),#1741);
#1749=CARTESIAN_POINT('',(1.134E-2,0.E0,8.6184E-1));
#1750=DIRECTION('',(0.E0,1.E0,0.E0));
#1751=DIRECTION('',(1.E0,0.E0,0.E0));
#1752=AXIS2_PLACEMENT_3D('',#1749,#1750,#1751);
#1753=CYLINDRICAL_SURFACE('',#1752,8.3916E-1);
#1754=ORIENTED_EDGE('',*,*,#1628,.F.);
#1756=ORIENTED_EDGE('',*,*,#1755,.T.);
#1758=ORIENTED_EDGE('',*,*,#1757,.T.);
#1759=ORIENTED_EDGE('',*,*,#1734,.F.);
#1760=EDGE_LOOP('',(#1754,#1756,#1758,#1759));
#1761=FACE_OUTER_BOUND('',#1760,.F.);
#1763=FILL_AREA_STYLE_COLOUR('',#11);
#1764=FILL_AREA_STYLE('',(#1763));
#1765=SURFACE_STYLE_FILL_AREA(#1764);
#1766=SURFACE_SIDE_STYLE('',(#1765));
#1767=SURFACE_STYLE_USAGE(.BOTH.,#1766);
#1768=PRESENTATION_STYLE_ASSIGNMENT((#1767));
#1769=STYLED_ITEM('',(#1768),#1762);
#1770=CARTESIAN_POINT('',(-1.134E-2,0.E0,1.701E0));
#1771=DIRECTION('',(0.E0,0.E0,1.E0));
#1772=DIRECTION('',(1.E0,0.E0,0.E0));
#1773=AXIS2_PLACEMENT_3D('',#1770,#1771,#1772);
#1774=PLANE('',#1773);
#1775=ORIENTED_EDGE('',*,*,#1626,.F.);
#1777=ORIENTED_EDGE('',*,*,#1776,.T.);
#1779=ORIENTED_EDGE('',*,*,#1778,.T.);
#1780=ORIENTED_EDGE('',*,*,#1755,.F.);
#1781=EDGE_LOOP('',(#1775,#1777,#1779,#1780));
#1782=FACE_OUTER_BOUND('',#1781,.F.);
#1784=FILL_AREA_STYLE_COLOUR('',#11);
#1785=FILL_AREA_STYLE('',(#1784));
#1786=SURFACE_STYLE_FILL_AREA(#1785);
#1787=SURFACE_SIDE_STYLE('',(#1786));
#1788=SURFACE_STYLE_USAGE(.BOTH.,#1787);
#1789=PRESENTATION_STYLE_ASSIGNMENT((#1788));
#1790=STYLED_ITEM('',(#1789),#1783);
#1791=CARTESIAN_POINT('',(-1.134E-2,0.E0,8.6184E-1));
#1792=DIRECTION('',(0.E0,1.E0,0.E0));
#1793=DIRECTION('',(1.E0,0.E0,0.E0));
#1794=AXIS2_PLACEMENT_3D('',#1791,#1792,#1793);
#1795=CYLINDRICAL_SURFACE('',#1794,8.3916E-1);
#1796=ORIENTED_EDGE('',*,*,#1624,.F.);
#1798=ORIENTED_EDGE('',*,*,#1797,.T.);
#1800=ORIENTED_EDGE('',*,*,#1799,.T.);
#1801=ORIENTED_EDGE('',*,*,#1776,.F.);
#1802=EDGE_LOOP('',(#1796,#1798,#1800,#1801));
#1803=FACE_OUTER_BOUND('',#1802,.F.);
#1805=FILL_AREA_STYLE_COLOUR('',#11);
#1806=FILL_AREA_STYLE('',(#1805));
#1807=SURFACE_STYLE_FILL_AREA(#1806);
#1808=SURFACE_SIDE_STYLE('',(#1807));
#1809=SURFACE_STYLE_USAGE(.BOTH.,#1808);
#1810=PRESENTATION_STYLE_ASSIGNMENT((#1809));
#1811=STYLED_ITEM('',(#1810),#1804);
#1812=CARTESIAN_POINT('',(-8.505E-1,0.E0,-8.6184E-1));
#1813=DIRECTION('',(-1.E0,0.E0,0.E0));
#1814=DIRECTION('',(0.E0,0.E0,1.E0));
#1815=AXIS2_PLACEMENT_3D('',#1812,#1813,#1814);
#1816=PLANE('',#1815);
#1817=ORIENTED_EDGE('',*,*,#1622,.F.);
#1818=ORIENTED_EDGE('',*,*,#1674,.T.);
#1820=ORIENTED_EDGE('',*,*,#1819,.T.);
#1821=ORIENTED_EDGE('',*,*,#1797,.F.);
#1822=EDGE_LOOP('',(#1817,#1818,#1820,#1821));
#1823=FACE_OUTER_BOUND('',#1822,.F.);
#1825=FILL_AREA_STYLE_COLOUR('',#11);
#1826=FILL_AREA_STYLE('',(#1825));
#1827=SURFACE_STYLE_FILL_AREA(#1826);
#1828=SURFACE_SIDE_STYLE('',(#1827));
#1829=SURFACE_STYLE_USAGE(.BOTH.,#1828);
#1830=PRESENTATION_STYLE_ASSIGNMENT((#1829));
#1831=STYLED_ITEM('',(#1830),#1824);
#1832=CARTESIAN_POINT('',(0.E0,1.134E-2,0.E0));
#1833=DIRECTION('',(0.E0,1.E0,0.E0));
#1834=DIRECTION('',(1.E0,0.E0,0.E0));
#1835=AXIS2_PLACEMENT_3D('',#1832,#1833,#1834);
#1836=PLANE('',#1835);
#1837=ORIENTED_EDGE('',*,*,#1672,.F.);
#1838=ORIENTED_EDGE('',*,*,#1694,.F.);
#1839=ORIENTED_EDGE('',*,*,#1715,.F.);
#1840=ORIENTED_EDGE('',*,*,#1736,.F.);
#1841=ORIENTED_EDGE('',*,*,#1757,.F.);
#1842=ORIENTED_EDGE('',*,*,#1778,.F.);
#1843=ORIENTED_EDGE('',*,*,#1799,.F.);
#1844=ORIENTED_EDGE('',*,*,#1819,.F.);
#1845=EDGE_LOOP('',(#1837,#1838,#1839,#1840,#1841,#1842,#1843,#1844));
#1846=FACE_OUTER_BOUND('',#1845,.F.);
#1848=ORIENTED_EDGE('',*,*,#1847,.F.);
#1850=ORIENTED_EDGE('',*,*,#1849,.F.);
#1852=ORIENTED_EDGE('',*,*,#1851,.F.);
#1854=ORIENTED_EDGE('',*,*,#1853,.F.);
#1856=ORIENTED_EDGE('',*,*,#1855,.F.);
#1858=ORIENTED_EDGE('',*,*,#1857,.F.);
#1860=ORIENTED_EDGE('',*,*,#1859,.F.);
#1862=ORIENTED_EDGE('',*,*,#1861,.F.);
#1863=EDGE_LOOP('',(#1848,#1850,#1852,#1854,#1856,#1858,#1860,#1862));
#1864=FACE_BOUND('',#1863,.F.);
#1866=FILL_AREA_STYLE_COLOUR('',#11);
#1867=FILL_AREA_STYLE('',(#1866));
#1868=SURFACE_STYLE_FILL_AREA(#1867);
#1869=SURFACE_SIDE_STYLE('',(#1868));
#1870=SURFACE_STYLE_USAGE(.BOTH.,#1869);
#1871=PRESENTATION_STYLE_ASSIGNMENT((#1870));
#1872=STYLED_ITEM('',(#1871),#1865);
#1873=CARTESIAN_POINT('',(-2.018571473746E-3,0.E0,-1.236743717903E0));
#1874=DIRECTION('',(0.E0,0.E0,1.E0));
#1875=DIRECTION('',(1.E0,0.E0,0.E0));
#1876=AXIS2_PLACEMENT_3D('',#1873,#1874,#1875);
#1877=PLANE('',#1876);
#1878=ORIENTED_EDGE('',*,*,#1638,.F.);
#1880=ORIENTED_EDGE('',*,*,#1879,.T.);
#1881=ORIENTED_EDGE('',*,*,#1847,.T.);
#1883=ORIENTED_EDGE('',*,*,#1882,.F.);
#1884=EDGE_LOOP('',(#1878,#1880,#1881,#1883));
#1885=FACE_OUTER_BOUND('',#1884,.F.);
#1887=FILL_AREA_STYLE_COLOUR('',#11);
#1888=FILL_AREA_STYLE('',(#1887));
#1889=SURFACE_STYLE_FILL_AREA(#1888);
#1890=SURFACE_SIDE_STYLE('',(#1889));
#1891=SURFACE_STYLE_USAGE(.BOTH.,#1890);
#1892=PRESENTATION_STYLE_ASSIGNMENT((#1891));
#1893=STYLED_ITEM('',(#1892),#1886);
#1894=CARTESIAN_POINT('',(-2.018571473746E-3,0.E0,-7.264437179028E-1));
#1895=DIRECTION('',(0.E0,1.E0,0.E0));
#1896=DIRECTION('',(1.E0,0.E0,0.E0));
#1897=AXIS2_PLACEMENT_3D('',#1894,#1895,#1896);
#1898=CYLINDRICAL_SURFACE('',#1897,5.103E-1);
#1899=ORIENTED_EDGE('',*,*,#1652,.F.);
#1901=ORIENTED_EDGE('',*,*,#1900,.T.);
#1902=ORIENTED_EDGE('',*,*,#1849,.T.);
#1903=ORIENTED_EDGE('',*,*,#1879,.F.);
#1904=EDGE_LOOP('',(#1899,#1901,#1902,#1903));
#1905=FACE_OUTER_BOUND('',#1904,.F.);
#1907=FILL_AREA_STYLE_COLOUR('',#11);
#1908=FILL_AREA_STYLE('',(#1907));
#1909=SURFACE_STYLE_FILL_AREA(#1908);
#1910=SURFACE_SIDE_STYLE('',(#1909));
#1911=SURFACE_STYLE_USAGE(.BOTH.,#1910);
#1912=PRESENTATION_STYLE_ASSIGNMENT((#1911));
#1913=STYLED_ITEM('',(#1912),#1906);
#1914=CARTESIAN_POINT('',(-5.123185714737E-1,0.E0,7.264437179028E-1));
#1915=DIRECTION('',(1.E0,0.E0,0.E0));
#1916=DIRECTION('',(0.E0,0.E0,-1.E0));
#1917=AXIS2_PLACEMENT_3D('',#1914,#1915,#1916);
#1918=PLANE('',#1917);
#1919=ORIENTED_EDGE('',*,*,#1650,.F.);
#1921=ORIENTED_EDGE('',*,*,#1920,.T.);
#1922=ORIENTED_EDGE('',*,*,#1851,.T.);
#1923=ORIENTED_EDGE('',*,*,#1900,.F.);
#1924=EDGE_LOOP('',(#1919,#1921,#1922,#1923));
#1925=FACE_OUTER_BOUND('',#1924,.F.);
#1927=FILL_AREA_STYLE_COLOUR('',#11);
#1928=FILL_AREA_STYLE('',(#1927));
#1929=SURFACE_STYLE_FILL_AREA(#1928);
#1930=SURFACE_SIDE_STYLE('',(#1929));
#1931=SURFACE_STYLE_USAGE(.BOTH.,#1930);
#1932=PRESENTATION_STYLE_ASSIGNMENT((#1931));
#1933=STYLED_ITEM('',(#1932),#1926);
#1934=CARTESIAN_POINT('',(-2.018571473746E-3,0.E0,7.264437179028E-1));
#1935=DIRECTION('',(0.E0,1.E0,0.E0));
#1936=DIRECTION('',(1.E0,0.E0,0.E0));
#1937=AXIS2_PLACEMENT_3D('',#1934,#1935,#1936);
#1938=CYLINDRICAL_SURFACE('',#1937,5.103E-1);
#1939=ORIENTED_EDGE('',*,*,#1648,.F.);
#1941=ORIENTED_EDGE('',*,*,#1940,.T.);
#1942=ORIENTED_EDGE('',*,*,#1853,.T.);
#1943=ORIENTED_EDGE('',*,*,#1920,.F.);
#1944=EDGE_LOOP('',(#1939,#1941,#1942,#1943));
#1945=FACE_OUTER_BOUND('',#1944,.F.);
#1947=FILL_AREA_STYLE_COLOUR('',#11);
#1948=FILL_AREA_STYLE('',(#1947));
#1949=SURFACE_STYLE_FILL_AREA(#1948);
#1950=SURFACE_SIDE_STYLE('',(#1949));
#1951=SURFACE_STYLE_USAGE(.BOTH.,#1950);
#1952=PRESENTATION_STYLE_ASSIGNMENT((#1951));
#1953=STYLED_ITEM('',(#1952),#1946);
#1954=CARTESIAN_POINT('',(2.018571473746E-3,0.E0,1.236743717903E0));
#1955=DIRECTION('',(0.E0,0.E0,-1.E0));
#1956=DIRECTION('',(-1.E0,0.E0,0.E0));
#1957=AXIS2_PLACEMENT_3D('',#1954,#1955,#1956);
#1958=PLANE('',#1957);
#1959=ORIENTED_EDGE('',*,*,#1646,.F.);
#1961=ORIENTED_EDGE('',*,*,#1960,.T.);
#1962=ORIENTED_EDGE('',*,*,#1855,.T.);
#1963=ORIENTED_EDGE('',*,*,#1940,.F.);
#1964=EDGE_LOOP('',(#1959,#1961,#1962,#1963));
#1965=FACE_OUTER_BOUND('',#1964,.F.);
#1967=FILL_AREA_STYLE_COLOUR('',#11);
#1968=FILL_AREA_STYLE('',(#1967));
#1969=SURFACE_STYLE_FILL_AREA(#1968);
#1970=SURFACE_SIDE_STYLE('',(#1969));
#1971=SURFACE_STYLE_USAGE(.BOTH.,#1970);
#1972=PRESENTATION_STYLE_ASSIGNMENT((#1971));
#1973=STYLED_ITEM('',(#1972),#1966);
#1974=CARTESIAN_POINT('',(2.018571473746E-3,0.E0,7.264437179028E-1));
#1975=DIRECTION('',(0.E0,1.E0,0.E0));
#1976=DIRECTION('',(1.E0,0.E0,0.E0));
#1977=AXIS2_PLACEMENT_3D('',#1974,#1975,#1976);
#1978=CYLINDRICAL_SURFACE('',#1977,5.103E-1);
#1979=ORIENTED_EDGE('',*,*,#1644,.F.);
#1981=ORIENTED_EDGE('',*,*,#1980,.T.);
#1982=ORIENTED_EDGE('',*,*,#1857,.T.);
#1983=ORIENTED_EDGE('',*,*,#1960,.F.);
#1984=EDGE_LOOP('',(#1979,#1981,#1982,#1983));
#1985=FACE_OUTER_BOUND('',#1984,.F.);
#1987=FILL_AREA_STYLE_COLOUR('',#11);
#1988=FILL_AREA_STYLE('',(#1987));
#1989=SURFACE_STYLE_FILL_AREA(#1988);
#1990=SURFACE_SIDE_STYLE('',(#1989));
#1991=SURFACE_STYLE_USAGE(.BOTH.,#1990);
#1992=PRESENTATION_STYLE_ASSIGNMENT((#1991));
#1993=STYLED_ITEM('',(#1992),#1986);
#1994=CARTESIAN_POINT('',(5.123185714737E-1,0.E0,-7.264437179028E-1));
#1995=DIRECTION('',(-1.E0,0.E0,0.E0));
#1996=DIRECTION('',(0.E0,0.E0,1.E0));
#1997=AXIS2_PLACEMENT_3D('',#1994,#1995,#1996);
#1998=PLANE('',#1997);
#1999=ORIENTED_EDGE('',*,*,#1642,.F.);
#2001=ORIENTED_EDGE('',*,*,#2000,.T.);
#2002=ORIENTED_EDGE('',*,*,#1859,.T.);
#2003=ORIENTED_EDGE('',*,*,#1980,.F.);
#2004=EDGE_LOOP('',(#1999,#2001,#2002,#2003));
#2005=FACE_OUTER_BOUND('',#2004,.F.);
#2007=FILL_AREA_STYLE_COLOUR('',#11);
#2008=FILL_AREA_STYLE('',(#2007));
#2009=SURFACE_STYLE_FILL_AREA(#2008);
#2010=SURFACE_SIDE_STYLE('',(#2009));
#2011=SURFACE_STYLE_USAGE(.BOTH.,#2010);
#2012=PRESENTATION_STYLE_ASSIGNMENT((#2011));
#2013=STYLED_ITEM('',(#2012),#2006);
#2014=CARTESIAN_POINT('',(2.018571473746E-3,0.E0,-7.264437179028E-1));
#2015=DIRECTION('',(0.E0,1.E0,0.E0));
#2016=DIRECTION('',(1.E0,0.E0,0.E0));
#2017=AXIS2_PLACEMENT_3D('',#2014,#2015,#2016);
#2018=CYLINDRICAL_SURFACE('',#2017,5.103E-1);
#2019=ORIENTED_EDGE('',*,*,#1640,.F.);
#2020=ORIENTED_EDGE('',*,*,#1882,.T.);
#2021=ORIENTED_EDGE('',*,*,#1861,.T.);
#2022=ORIENTED_EDGE('',*,*,#2000,.F.);
#2023=EDGE_LOOP('',(#2019,#2020,#2021,#2022));
#2024=FACE_OUTER_BOUND('',#2023,.F.);
#2026=FILL_AREA_STYLE_COLOUR('',#11);
#2027=FILL_AREA_STYLE('',(#2026));
#2028=SURFACE_STYLE_FILL_AREA(#2027);
#2029=SURFACE_SIDE_STYLE('',(#2028));
#2030=SURFACE_STYLE_USAGE(.BOTH.,#2029);
#2031=PRESENTATION_STYLE_ASSIGNMENT((#2030));
#2032=STYLED_ITEM('',(#2031),#2025);
#2033=CLOSED_SHELL('',(#1656,#1678,#1699,#1720,#1741,#1762,#1783,#1804,#1824,
#1865,#1886,#1906,#1926,#1946,#1966,#1986,#2006,#2025));
#2034=MANIFOLD_SOLID_BREP('',#2033);
#2035=FILL_AREA_STYLE_COLOUR('',#11);
#2036=FILL_AREA_STYLE('',(#2035));
#2037=SURFACE_STYLE_FILL_AREA(#2036);
#2038=SURFACE_SIDE_STYLE('',(#2037));
#2039=SURFACE_STYLE_USAGE(.BOTH.,#2038);
#2040=PRESENTATION_STYLE_ASSIGNMENT((#2039));
#1197=STYLED_ITEM('',(#2040),#2034);
#2043=PLANE_ANGLE_MEASURE_WITH_UNIT(PLANE_ANGLE_MEASURE(1.745329251994E-2),
#2042);
#2044=(CONVERSION_BASED_UNIT('DEGREE',#2043)NAMED_UNIT(*)PLANE_ANGLE_UNIT());
#2046=UNCERTAINTY_MEASURE_WITH_UNIT(LENGTH_MEASURE(4.183739436428E-4),#2041,
'distance_accuracy_value',
'Maximum model space distance between geometric entities at asserted connectivities');
#2048=CARTESIAN_POINT('',(0.E0,0.E0,0.E0));
#2049=DIRECTION('',(0.E0,0.E0,1.E0));
#2050=DIRECTION('',(1.E0,0.E0,0.E0));
#2053=PRODUCT_DEFINITION_CONTEXT('part definition',#900,'design');
#2054=PRODUCT_CONTEXT('',#900,'mechanical');
#2055=PRODUCT('YUAN01002150','YUAN01002150','NOT SPECIFIED',(#2054));
#2056=PRODUCT_DEFINITION_FORMATION('10','LAST_VERSION',#2055);
#2064=DERIVED_UNIT_ELEMENT(#2063,2.E0);
#2065=DERIVED_UNIT((#2064));
#2066=MEASURE_REPRESENTATION_ITEM('surface area measure',AREA_MEASURE(
5.911657215386E0),#2065);
#2071=DERIVED_UNIT_ELEMENT(#2070,3.E0);
#2072=DERIVED_UNIT((#2071));
#2073=MEASURE_REPRESENTATION_ITEM('volume measure',VOLUME_MEASURE(
3.256199302635E-2),#2072);
#2077=CARTESIAN_POINT('centre point',(0.E0,5.67E-3,0.E0));
#2082=DERIVED_UNIT_ELEMENT(#2081,2.E0);
#2083=DERIVED_UNIT((#2082));
#2084=MEASURE_REPRESENTATION_ITEM('surface area measure',AREA_MEASURE(
5.911657215386E0),#2083);
#2089=DERIVED_UNIT_ELEMENT(#2088,3.E0);
#2090=DERIVED_UNIT((#2089));
#2091=MEASURE_REPRESENTATION_ITEM('volume measure',VOLUME_MEASURE(
3.256199302635E-2),#2090);
#2095=CARTESIAN_POINT('centre point',(0.E0,5.67E-3,0.E0));
#2102=CARTESIAN_POINT('centre point',(4.898664310123E0,3.185080165979E1,
1.112039307750E-2));
#2106=CARTESIAN_POINT('',(4.898687221679E0,3.185080165979E1,1.679034678636E-2));
#2107=DIRECTION('',(-1.810616144050E-3,-9.999983608065E-1,7.316467528384E-6));
#2108=DIRECTION('',(-9.999901965978E-1,1.810630926443E-3,4.040832081729E-3));
#2109=AXIS2_PLACEMENT_3D('',#2106,#2107,#2108);
#2110=ITEM_DEFINED_TRANSFORMATION('','',#2051,#2109);
#2111=(REPRESENTATION_RELATIONSHIP('','',#2052,#951)REPRESENTATION_RELATIONSHIP_WITH_TRANSFORMATION(#2110)SHAPE_REPRESENTATION_RELATIONSHIP());
#2112=CONTEXT_DEPENDENT_SHAPE_REPRESENTATION(#2111,#2101);
#2115=PLANE_ANGLE_MEASURE_WITH_UNIT(PLANE_ANGLE_MEASURE(1.745329251994E-2),
#2114);
#2116=(CONVERSION_BASED_UNIT('DEGREE',#2115)NAMED_UNIT(*)PLANE_ANGLE_UNIT());
#2118=UNCERTAINTY_MEASURE_WITH_UNIT(LENGTH_MEASURE(3.998796405641E-3),#2113,
'distance_accuracy_value',
'Maximum model space distance between geometric entities at asserted connectivities');
#2120=CARTESIAN_POINT('',(0.E0,0.E0,0.E0));
#2121=DIRECTION('',(0.E0,0.E0,1.E0));
#2122=DIRECTION('',(1.E0,0.E0,0.E0));
#2124=MECHANICAL_DESIGN_GEOMETRIC_PRESENTATION_REPRESENTATION('',(#367,#389,
#413,#434,#453,#478,#498,#523,#545,#567,#588,#609,#628,#651,#696,#718,#738,#767,
#789,#809,#826,#848,#868,#885,#1098,#1206,#1213,#1221,#1228,#1236,#1243,#1251,
#1258,#1265,#1273,#1280,#1288,#1295,#1303,#1310,#1318,#1325,#1332,#1339,#1346,
#1353,#1360,#1367,#1374,#1382,#1389,#1397,#1404,#1412,#1419,#1427,#1434,#1441,
#1449,#1456,#1464,#1471,#1479,#1486,#1494,#1501,#1508,#1515,#1522,#1529,#1536,
#1543,#1550,#1663,#1685,#1706,#1727,#1748,#1769,#1790,#1811,#1831,#1872,#1893,
#1913,#1933,#1953,#1973,#1993,#2013,#2032,#1197),#2119);
#2125=PRODUCT_CONTEXT('',#900,'mechanical');
#2126=PRODUCT('ASM0017_ASM','ASM0017_ASM','NOT SPECIFIED',(#2125));
#2127=PRODUCT_DEFINITION_FORMATION('1','LAST_VERSION',#2126);
#2130=DERIVED_UNIT_ELEMENT(#2129,2.E0);
#2131=DERIVED_UNIT((#2130));
#2132=MEASURE_REPRESENTATION_ITEM('surface area measure',AREA_MEASURE(
7.099238690400E2),#2131);
#2137=DERIVED_UNIT_ELEMENT(#2136,3.E0);
#2138=DERIVED_UNIT((#2137));
#2139=MEASURE_REPRESENTATION_ITEM('volume measure',VOLUME_MEASURE(
9.832606548235E2),#2138);
#2143=CARTESIAN_POINT('centre point',(4.999996300099E0,3.097796013272E1,
-5.002573873059E0));
#2147=PRODUCT_RELATED_PRODUCT_CATEGORY('part','',(#2126,#904,#1139,#2055));
#1=DRAUGHTING_PRE_DEFINED_COLOUR('green');
#2=COLOUR_RGB('',1.1E-2,1.2E-2,1.E0);
#3=COLOUR_RGB('',1.607843137255E-1,1.607843137255E-1,1.803921568627E-1);
#4=COLOUR_RGB('',1.9E-1,1.9E-1,2.2E-1);
#5=COLOUR_RGB('',2.392156862745E-1,2.509803921569E-1,2.588235294118E-1);
#6=COLOUR_RGB('',4.1E-1,2.61589E-1,1.12848E-1);
#7=COLOUR_RGB('',5.04854E-1,1.5455E-2,1.5455E-2);
#8=COLOUR_RGB('',5.176470588235E-1,3.372549019608E-1,3.490196078431E-1);
#9=COLOUR_RGB('',6.40777E-1,6.40777E-1,6.40777E-1);
#10=COLOUR_RGB('',6.69062E-1,6.69903E-1,6.55217E-1);
#11=COLOUR_RGB('',7.843137254902E-1,7.843137254902E-1,2.078431372549E-1);
#12=COLOUR_RGB('',8.196078431373E-1,8.117647058824E-1,8.117647058824E-1);
#13=COLOUR_RGB('',8.588235294118E-1,8.705882352941E-1,3.098039215686E-1);
#14=COLOUR_RGB('',8.705882352941E-1,9.019607843137E-1,9.098039215686E-1);
#15=COLOUR_RGB('',9.21569E-1,7.05882E-1,4.70588E-1);
#16=DRAUGHTING_PRE_DEFINED_COLOUR('red');
#17=COLOUR_RGB('',1.E0,9.215686274510E-1,4.313725490196E-1);
#18=DRAUGHTING_PRE_DEFINED_COLOUR('yellow');
#19=COLOUR_RGB('',1.E0,1.E0,5.3E-1);
#20=COLOUR_RGB('',1.E0,1.E0,9.49E-1);
#21=DRAUGHTING_PRE_DEFINED_COLOUR('white');
#26=CIRCLE('',#25,4.749977422528E0);
#31=CIRCLE('',#30,4.749977422528E0);
#36=CIRCLE('',#35,3.7E0);
#41=CIRCLE('',#40,3.7E0);
#46=CIRCLE('',#45,2.5E-1);
#51=CIRCLE('',#50,4.999967160041E0);
#56=CIRCLE('',#55,4.781818181818E0);
#61=CIRCLE('',#60,8.E-1);
#66=CIRCLE('',#65,4.999967160041E0);
#71=CIRCLE('',#70,8.E-1);
#76=CIRCLE('',#75,2.5E-1);
#81=CIRCLE('',#80,3.E-1);
#86=CIRCLE('',#85,4.781818181818E0);
#91=CIRCLE('',#90,4.781818181818E0);
#96=CIRCLE('',#95,3.E-1);
#101=CIRCLE('',#100,4.781818181818E0);
#106=CIRCLE('',#105,4.781818181818E0);
#111=CIRCLE('',#110,5.E0);
#116=CIRCLE('',#115,4.781818181818E0);
#121=CIRCLE('',#120,8.E-1);
#126=CIRCLE('',#125,5.E0);
#135=CIRCLE('',#134,1.5E-1);
#140=CIRCLE('',#139,1.5E-1);
#145=CIRCLE('',#144,5.E0);
#150=CIRCLE('',#149,5.E0);
#155=CIRCLE('',#154,5.E0);
#164=CIRCLE('',#163,8.E-1);
#169=CIRCLE('',#168,4.85E0);
#174=CIRCLE('',#173,4.85E0);
#179=CIRCLE('',#178,3.5E0);
#184=CIRCLE('',#183,3.5E0);
#197=CIRCLE('',#196,3.5E0);
#202=CIRCLE('',#201,3.5E0);
#215=CIRCLE('',#214,3.7E0);
#220=CIRCLE('',#219,3.7E0);
#225=CIRCLE('',#224,3.E-1);
#230=CIRCLE('',#229,3.E-1);
#235=CIRCLE('',#234,3.E-1);
#240=CIRCLE('',#239,3.E-1);
#253=CIRCLE('',#252,3.E-1);
#258=CIRCLE('',#257,3.E-1);
#271=CIRCLE('',#270,3.E-1);
#276=CIRCLE('',#275,3.E-1);
#348=EDGE_CURVE('',#333,#334,#26,.T.);
#350=EDGE_CURVE('',#334,#333,#31,.T.);
#354=EDGE_CURVE('',#303,#304,#36,.T.);
#356=EDGE_CURVE('',#304,#303,#41,.T.);
#360=ADVANCED_FACE('',(#353,#359),#347,.F.);
#373=EDGE_CURVE('',#329,#330,#51,.T.);
#375=EDGE_CURVE('',#330,#334,#76,.T.);
#378=EDGE_CURVE('',#329,#333,#46,.T.);
#382=ADVANCED_FACE('',(#381),#372,.T.);
#396=EDGE_CURVE('',#329,#292,#71,.T.);
#398=EDGE_CURVE('',#292,#295,#56,.T.);
#400=EDGE_CURVE('',#326,#295,#91,.T.);
#402=EDGE_CURVE('',#330,#326,#61,.T.);
#406=ADVANCED_FACE('',(#405),#394,.T.);
#419=EDGE_CURVE('',#330,#329,#66,.T.);
#422=EDGE_CURVE('',#292,#326,#86,.T.);
#427=ADVANCED_FACE('',(#426),#418,.T.);
#446=ADVANCED_FACE('',(#445),#439,.T.);
#459=EDGE_CURVE('',#291,#292,#81,.T.);
#463=EDGE_CURVE('',#295,#296,#96,.T.);
#465=EDGE_CURVE('',#296,#322,#101,.T.);
#467=EDGE_CURVE('',#322,#291,#106,.T.);
#471=ADVANCED_FACE('',(#470),#458,.F.);
#485=EDGE_CURVE('',#296,#291,#116,.T.);
#491=ADVANCED_FACE('',(#490),#483,.F.);
#504=EDGE_CURVE('',#286,#288,#111,.T.);
#506=EDGE_CURVE('',#288,#322,#164,.T.);
#510=EDGE_CURVE('',#324,#291,#121,.T.);
#512=EDGE_CURVE('',#324,#286,#150,.T.);
#516=ADVANCED_FACE('',(#515),#503,.T.);
#529=EDGE_CURVE('',#279,#280,#126,.T.);
#531=EDGE_CURVE('',#288,#279,#159,.T.);
#534=EDGE_CURVE('',#286,#280,#130,.T.);
#538=ADVANCED_FACE('',(#537),#528,.T.);
#552=EDGE_CURVE('',#280,#284,#140,.T.);
#554=EDGE_CURVE('',#283,#284,#169,.T.);
#556=EDGE_CURVE('',#279,#283,#135,.T.);
#560=ADVANCED_FACE('',(#559),#550,.T.);
#573=EDGE_CURVE('',#280,#279,#145,.T.);
#576=EDGE_CURVE('',#284,#283,#174,.T.);
#581=ADVANCED_FACE('',(#580),#572,.T.);
#597=EDGE_CURVE('',#288,#324,#155,.T.);
#602=ADVANCED_FACE('',(#601),#593,.T.);
#621=ADVANCED_FACE('',(#620),#614,.T.);
#638=EDGE_CURVE('',#341,#342,#179,.T.);
#640=EDGE_CURVE('',#342,#341,#184,.T.);
#644=ADVANCED_FACE('',(#637,#643),#633,.T.);
#658=EDGE_CURVE('',#341,#337,#188,.T.);
#660=EDGE_CURVE('',#337,#338,#197,.T.);
#662=EDGE_CURVE('',#342,#338,#192,.T.);
#666=ADVANCED_FACE('',(#665),#656,.F.);
#674=EDGE_CURVE('',#338,#337,#202,.T.);
#679=ADVANCED_FACE('',(#678),#671,.F.);
#689=ADVANCED_FACE('',(#688),#684,.T.);
#703=EDGE_CURVE('',#303,#299,#206,.T.);
#705=EDGE_CURVE('',#299,#300,#215,.T.);
#707=EDGE_CURVE('',#304,#300,#210,.T.);
#711=ADVANCED_FACE('',(#710),#701,.F.);
#726=EDGE_CURVE('',#300,#299,#220,.T.);
#731=ADVANCED_FACE('',(#730),#723,.F.);
#748=EDGE_CURVE('',#311,#312,#225,.T.);
#750=EDGE_CURVE('',#312,#311,#230,.T.);
#754=EDGE_CURVE('',#319,#320,#235,.T.);
#756=EDGE_CURVE('',#320,#319,#240,.T.);
#760=ADVANCED_FACE('',(#747,#753,#759),#743,.T.);
#774=EDGE_CURVE('',#311,#307,#244,.T.);
#776=EDGE_CURVE('',#307,#308,#253,.T.);
#778=EDGE_CURVE('',#312,#308,#248,.T.);
#782=ADVANCED_FACE('',(#781),#772,.T.);
#797=EDGE_CURVE('',#308,#307,#258,.T.);
#802=ADVANCED_FACE('',(#801),#794,.T.);
#819=ADVANCED_FACE('',(#818),#814,.T.);
#833=EDGE_CURVE('',#319,#315,#262,.T.);
#835=EDGE_CURVE('',#315,#316,#271,.T.);
#837=EDGE_CURVE('',#320,#316,#266,.T.);
#841=ADVANCED_FACE('',(#840),#831,.T.);
#856=EDGE_CURVE('',#316,#315,#276,.T.);
#861=ADVANCED_FACE('',(#860),#853,.T.);
#878=ADVANCED_FACE('',(#877),#873,.T.);
#888=(LENGTH_UNIT()NAMED_UNIT(*)SI_UNIT(.MILLI.,.METRE.));
#889=(NAMED_UNIT(*)PLANE_ANGLE_UNIT()SI_UNIT($,.RADIAN.));
#892=(NAMED_UNIT(*)SI_UNIT($,.STERADIAN.)SOLID_ANGLE_UNIT());
#894=(GEOMETRIC_REPRESENTATION_CONTEXT(3)GLOBAL_UNCERTAINTY_ASSIGNED_CONTEXT((
#893))GLOBAL_UNIT_ASSIGNED_CONTEXT((#888,#891,#892))REPRESENTATION_CONTEXT
('ID1','3'));
#898=AXIS2_PLACEMENT_3D('',#895,#896,#897);
#899=ADVANCED_BREP_SHAPE_REPRESENTATION('',(#898,#887),#894);
#906=PRODUCT_DEFINITION('part definition','',#905,#902);
#907=PRODUCT_DEFINITION_SHAPE('','SHAPE FOR 0100215000.',#906);
#908=SHAPE_ASPECT('','solid data associated with 0100215000',#907,.F.);
#909=PROPERTY_DEFINITION('',
'shape for solid data with which properties are associated',#908);
#910=SHAPE_REPRESENTATION('',(#887),#894);
#911=SHAPE_DEFINITION_REPRESENTATION(#909,#910);
#912=(LENGTH_UNIT()NAMED_UNIT(*)SI_UNIT(.MILLI.,.METRE.));
#916=PROPERTY_DEFINITION('geometric validation property','area of 0100215000',
#908);
#917=REPRESENTATION('surface area',(#915),#894);
#918=PROPERTY_DEFINITION_REPRESENTATION(#916,#917);
#919=(LENGTH_UNIT()NAMED_UNIT(*)SI_UNIT(.MILLI.,.METRE.));
#923=PROPERTY_DEFINITION('geometric validation property','volume of 0100215000',
#908);
#924=REPRESENTATION('volume',(#922),#894);
#925=PROPERTY_DEFINITION_REPRESENTATION(#923,#924);
#927=PROPERTY_DEFINITION('geometric validation property',
'centroid of 0100215000',#908);
#928=REPRESENTATION('centroid',(#926),#894);
#929=PROPERTY_DEFINITION_REPRESENTATION(#927,#928);
#930=(LENGTH_UNIT()NAMED_UNIT(*)SI_UNIT(.MILLI.,.METRE.));
#934=PROPERTY_DEFINITION('geometric validation property','area of 0100215000',
#907);
#935=REPRESENTATION('surface area',(#933),#894);
#936=PROPERTY_DEFINITION_REPRESENTATION(#934,#935);
#937=(LENGTH_UNIT()NAMED_UNIT(*)SI_UNIT(.MILLI.,.METRE.));
#941=PROPERTY_DEFINITION('geometric validation property','volume of 0100215000',
#907);
#942=REPRESENTATION('volume',(#940),#894);
#943=PROPERTY_DEFINITION_REPRESENTATION(#941,#942);
#945=PROPERTY_DEFINITION('geometric validation property',
'centroid of 0100215000',#907);
#946=REPRESENTATION('centroid',(#944),#894);
#947=PROPERTY_DEFINITION_REPRESENTATION(#945,#946);
#948=SHAPE_DEFINITION_REPRESENTATION(#907,#899);
#949=SHAPE_DEFINITION_REPRESENTATION(#950,#951);
#950=PRODUCT_DEFINITION_SHAPE('','SHAPE FOR ASM0017_ASM.',#2128);
#951=SHAPE_REPRESENTATION('',(#961,#1193,#2109,#2123),#2119);
#952=NEXT_ASSEMBLY_USAGE_OCCURRENCE('25','Next assembly relationship',
'\X2\5F157EBF\X0\01002150',#2128,#906,$);
#953=PRODUCT_DEFINITION_SHAPE('Placement #25',
'Placement of 0100215000 with respect to ASM0017_ASM',#952);
#955=PROPERTY_DEFINITION('geometric validation property',
'centroid of \X2\5F157EBF\X0\01002150',#953);
#956=REPRESENTATION('centroid',(#954),#894);
#957=PROPERTY_DEFINITION_REPRESENTATION(#955,#956);
#969=CIRCLE('',#968,5.E0);
#978=CIRCLE('',#977,5.005E0);
#1003=CIRCLE('',#1002,5.E0);
#1012=CIRCLE('',#1011,5.005E0);
#1038=EDGE_CURVE('',#1019,#1020,#969,.T.);
#1040=EDGE_CURVE('',#1020,#1022,#973,.T.);
#1042=EDGE_CURVE('',#1022,#1024,#978,.T.);
#1044=EDGE_CURVE('',#1024,#1019,#982,.T.);
#1048=ADVANCED_FACE('',(#1047),#1037,.F.);
#1055=EDGE_CURVE('',#1019,#1027,#986,.T.);
#1057=EDGE_CURVE('',#1027,#1028,#1003,.T.);
#1059=EDGE_CURVE('',#1020,#1028,#998,.T.);
#1063=ADVANCED_FACE('',(#1062),#1053,.F.);
#1070=EDGE_CURVE('',#1024,#1032,#990,.T.);
#1072=EDGE_CURVE('',#1032,#1027,#1007,.T.);
#1077=ADVANCED_FACE('',(#1076),#1068,.T.);
#1084=EDGE_CURVE('',#1022,#1030,#994,.T.);
#1086=EDGE_CURVE('',#1030,#1032,#1012,.T.);
#1091=ADVANCED_FACE('',(#1090),#1082,.T.);
#1106=EDGE_CURVE('',#1028,#1030,#1016,.T.);
#1111=ADVANCED_FACE('',(#1110),#1103,.T.);
#1123=ADVANCED_FACE('',(#1122),#1116,.T.);
#1126=(LENGTH_UNIT()NAMED_UNIT(*)SI_UNIT(.MILLI.,.METRE.));
#1127=(NAMED_UNIT(*)PLANE_ANGLE_UNIT()SI_UNIT($,.RADIAN.));
#1130=(NAMED_UNIT(*)SI_UNIT($,.STERADIAN.)SOLID_ANGLE_UNIT());
#1132=(GEOMETRIC_REPRESENTATION_CONTEXT(3)GLOBAL_UNCERTAINTY_ASSIGNED_CONTEXT((
#1131))GLOBAL_UNIT_ASSIGNED_CONTEXT((#1126,#1129,#1130))REPRESENTATION_CONTEXT(
'ID2','3'));
#1136=AXIS2_PLACEMENT_3D('',#1133,#1134,#1135);
#1137=ADVANCED_BREP_SHAPE_REPRESENTATION('',(#1136,#1125),#1132);
#1141=PRODUCT_DEFINITION('part definition','',#1140,#902);
#1142=PRODUCT_DEFINITION_SHAPE('','SHAPE FOR PRT01002150.',#1141);
#1143=SHAPE_ASPECT('','solid data associated with PRT01002150',#1142,.F.);
#1144=PROPERTY_DEFINITION('',
'shape for solid data with which properties are associated',#1143);
#1145=SHAPE_REPRESENTATION('',(#1125),#1132);
#1146=SHAPE_DEFINITION_REPRESENTATION(#1144,#1145);
#1147=(LENGTH_UNIT()NAMED_UNIT(*)SI_UNIT(.MILLI.,.METRE.));
#1151=PROPERTY_DEFINITION('geometric validation property','area of PRT01002150',
#1143);
#1152=REPRESENTATION('surface area',(#1150),#1132);
#1153=PROPERTY_DEFINITION_REPRESENTATION(#1151,#1152);
#1154=(LENGTH_UNIT()NAMED_UNIT(*)SI_UNIT(.MILLI.,.METRE.));
#1158=PROPERTY_DEFINITION('geometric validation property',
'volume of PRT01002150',#1143);
#1159=REPRESENTATION('volume',(#1157),#1132);
#1160=PROPERTY_DEFINITION_REPRESENTATION(#1158,#1159);
#1162=PROPERTY_DEFINITION('geometric validation property',
'centroid of PRT01002150',#1143);
#1163=REPRESENTATION('centroid',(#1161),#1132);
#1164=PROPERTY_DEFINITION_REPRESENTATION(#1162,#1163);
#1165=(LENGTH_UNIT()NAMED_UNIT(*)SI_UNIT(.MILLI.,.METRE.));
#1169=PROPERTY_DEFINITION('geometric validation property','area of PRT01002150',
#1142);
#1170=REPRESENTATION('surface area',(#1168),#1132);
#1171=PROPERTY_DEFINITION_REPRESENTATION(#1169,#1170);
#1172=(LENGTH_UNIT()NAMED_UNIT(*)SI_UNIT(.MILLI.,.METRE.));
#1176=PROPERTY_DEFINITION('geometric validation property',
'volume of PRT01002150',#1142);
#1177=REPRESENTATION('volume',(#1175),#1132);
#1178=PROPERTY_DEFINITION_REPRESENTATION(#1176,#1177);
#1180=PROPERTY_DEFINITION('geometric validation property',
'centroid of PRT01002150',#1142);
#1181=REPRESENTATION('centroid',(#1179),#1132);
#1182=PROPERTY_DEFINITION_REPRESENTATION(#1180,#1181);
#1183=SHAPE_DEFINITION_REPRESENTATION(#1142,#1137);
#1184=NEXT_ASSEMBLY_USAGE_OCCURRENCE('26','Next assembly relationship',
'PRT01002150',#2128,#1141,$);
#1185=PRODUCT_DEFINITION_SHAPE('Placement #26',
'Placement of PRT01002150 with respect to ASM0017_ASM',#1184);
#1187=PROPERTY_DEFINITION('geometric validation property',
'centroid of PRT01002150',#1185);
#1188=REPRESENTATION('centroid',(#1186),#1132);
#1189=PROPERTY_DEFINITION_REPRESENTATION(#1187,#1188);
#1202=CIRCLE('',#1201,8.3916E-1);
#1218=CIRCLE('',#1217,8.3916E-1);
#1233=CIRCLE('',#1232,8.3916E-1);
#1248=CIRCLE('',#1247,8.3916E-1);
#1270=CIRCLE('',#1269,5.103E-1);
#1285=CIRCLE('',#1284,5.103E-1);
#1300=CIRCLE('',#1299,5.103E-1);
#1315=CIRCLE('',#1314,5.103E-1);
#1379=CIRCLE('',#1378,8.3916E-1);
#1394=CIRCLE('',#1393,8.3916E-1);
#1409=CIRCLE('',#1408,8.3916E-1);
#1424=CIRCLE('',#1423,8.3916E-1);
#1446=CIRCLE('',#1445,5.103E-1);
#1461=CIRCLE('',#1460,5.103E-1);
#1476=CIRCLE('',#1475,5.103E-1);
#1491=CIRCLE('',#1490,5.103E-1);
#1620=EDGE_CURVE('',#1553,#1554,#1202,.T.);
#1622=EDGE_CURVE('',#1554,#1556,#1210,.T.);
#1624=EDGE_CURVE('',#1556,#1558,#1218,.T.);
#1626=EDGE_CURVE('',#1558,#1560,#1225,.T.);
#1628=EDGE_CURVE('',#1560,#1562,#1233,.T.);
#1630=EDGE_CURVE('',#1562,#1564,#1240,.T.);
#1632=EDGE_CURVE('',#1564,#1566,#1248,.T.);
#1634=EDGE_CURVE('',#1566,#1553,#1255,.T.);
#1638=EDGE_CURVE('',#1569,#1570,#1262,.T.);
#1640=EDGE_CURVE('',#1570,#1572,#1270,.T.);
#1642=EDGE_CURVE('',#1572,#1574,#1277,.T.);
#1644=EDGE_CURVE('',#1574,#1576,#1285,.T.);
#1646=EDGE_CURVE('',#1576,#1578,#1292,.T.);
#1648=EDGE_CURVE('',#1578,#1580,#1300,.T.);
#1650=EDGE_CURVE('',#1580,#1582,#1307,.T.);
#1652=EDGE_CURVE('',#1582,#1569,#1315,.T.);
#1656=ADVANCED_FACE('',(#1637,#1655),#1619,.F.);
#1670=EDGE_CURVE('',#1553,#1585,#1322,.T.);
#1672=EDGE_CURVE('',#1585,#1586,#1379,.T.);
#1674=EDGE_CURVE('',#1554,#1586,#1371,.T.);
#1678=ADVANCED_FACE('',(#1677),#1668,.T.);
#1692=EDGE_CURVE('',#1566,#1598,#1329,.T.);
#1694=EDGE_CURVE('',#1598,#1585,#1386,.T.);
#1699=ADVANCED_FACE('',(#1698),#1690,.T.);
#1713=EDGE_CURVE('',#1564,#1596,#1336,.T.);
#1715=EDGE_CURVE('',#1596,#1598,#1394,.T.);
#1720=ADVANCED_FACE('',(#1719),#1711,.T.);
#1734=EDGE_CURVE('',#1562,#1594,#1343,.T.);
#1736=EDGE_CURVE('',#1594,#1596,#1401,.T.);
#1741=ADVANCED_FACE('',(#1740),#1732,.T.);
#1755=EDGE_CURVE('',#1560,#1592,#1350,.T.);
#1757=EDGE_CURVE('',#1592,#1594,#1409,.T.);
#1762=ADVANCED_FACE('',(#1761),#1753,.T.);
#1776=EDGE_CURVE('',#1558,#1590,#1357,.T.);
#1778=EDGE_CURVE('',#1590,#1592,#1416,.T.);
#1783=ADVANCED_FACE('',(#1782),#1774,.T.);
#1797=EDGE_CURVE('',#1556,#1588,#1364,.T.);
#1799=EDGE_CURVE('',#1588,#1590,#1424,.T.);
#1804=ADVANCED_FACE('',(#1803),#1795,.T.);
#1819=EDGE_CURVE('',#1586,#1588,#1431,.T.);
#1824=ADVANCED_FACE('',(#1823),#1816,.T.);
#1847=EDGE_CURVE('',#1601,#1602,#1438,.T.);
#1849=EDGE_CURVE('',#1614,#1601,#1446,.T.);
#1851=EDGE_CURVE('',#1612,#1614,#1453,.T.);
#1853=EDGE_CURVE('',#1610,#1612,#1461,.T.);
#1855=EDGE_CURVE('',#1608,#1610,#1468,.T.);
#1857=EDGE_CURVE('',#1606,#1608,#1476,.T.);
#1859=EDGE_CURVE('',#1604,#1606,#1483,.T.);
#1861=EDGE_CURVE('',#1602,#1604,#1491,.T.);
#1865=ADVANCED_FACE('',(#1846,#1864),#1836,.T.);
#1879=EDGE_CURVE('',#1569,#1601,#1498,.T.);
#1882=EDGE_CURVE('',#1570,#1602,#1547,.T.);
#1886=ADVANCED_FACE('',(#1885),#1877,.T.);
#1900=EDGE_CURVE('',#1582,#1614,#1505,.T.);
#1906=ADVANCED_FACE('',(#1905),#1898,.F.);
#1920=EDGE_CURVE('',#1580,#1612,#1512,.T.);
#1926=ADVANCED_FACE('',(#1925),#1918,.T.);
#1940=EDGE_CURVE('',#1578,#1610,#1519,.T.);
#1946=ADVANCED_FACE('',(#1945),#1938,.F.);
#1960=EDGE_CURVE('',#1576,#1608,#1526,.T.);
#1966=ADVANCED_FACE('',(#1965),#1958,.T.);
#1980=EDGE_CURVE('',#1574,#1606,#1533,.T.);
#1986=ADVANCED_FACE('',(#1985),#1978,.F.);
#2000=EDGE_CURVE('',#1572,#1604,#1540,.T.);
#2006=ADVANCED_FACE('',(#2005),#1998,.T.);
#2025=ADVANCED_FACE('',(#2024),#2018,.F.);
#2041=(LENGTH_UNIT()NAMED_UNIT(*)SI_UNIT(.MILLI.,.METRE.));
#2042=(NAMED_UNIT(*)PLANE_ANGLE_UNIT()SI_UNIT($,.RADIAN.));
#2045=(NAMED_UNIT(*)SI_UNIT($,.STERADIAN.)SOLID_ANGLE_UNIT());
#2047=(GEOMETRIC_REPRESENTATION_CONTEXT(3)GLOBAL_UNCERTAINTY_ASSIGNED_CONTEXT((
#2046))GLOBAL_UNIT_ASSIGNED_CONTEXT((#2041,#2044,#2045))REPRESENTATION_CONTEXT(
'ID3','3'));
#2051=AXIS2_PLACEMENT_3D('',#2048,#2049,#2050);
#2052=ADVANCED_BREP_SHAPE_REPRESENTATION('',(#2051,#2034),#2047);
#2057=PRODUCT_DEFINITION('part definition','',#2056,#2053);
#2058=PRODUCT_DEFINITION_SHAPE('','SHAPE FOR YUAN01002150.',#2057);
#2059=SHAPE_ASPECT('','solid data associated with YUAN01002150',#2058,.F.);
#2060=PROPERTY_DEFINITION('',
'shape for solid data with which properties are associated',#2059);
#2061=SHAPE_REPRESENTATION('',(#2034),#2047);
#2062=SHAPE_DEFINITION_REPRESENTATION(#2060,#2061);
#2063=(LENGTH_UNIT()NAMED_UNIT(*)SI_UNIT(.MILLI.,.METRE.));
#2067=PROPERTY_DEFINITION('geometric validation property',
'area of YUAN01002150',#2059);
#2068=REPRESENTATION('surface area',(#2066),#2047);
#2069=PROPERTY_DEFINITION_REPRESENTATION(#2067,#2068);
#2070=(LENGTH_UNIT()NAMED_UNIT(*)SI_UNIT(.MILLI.,.METRE.));
#2074=PROPERTY_DEFINITION('geometric validation property',
'volume of YUAN01002150',#2059);
#2075=REPRESENTATION('volume',(#2073),#2047);
#2076=PROPERTY_DEFINITION_REPRESENTATION(#2074,#2075);
#2078=PROPERTY_DEFINITION('geometric validation property',
'centroid of YUAN01002150',#2059);
#2079=REPRESENTATION('centroid',(#2077),#2047);
#2080=PROPERTY_DEFINITION_REPRESENTATION(#2078,#2079);
#2081=(LENGTH_UNIT()NAMED_UNIT(*)SI_UNIT(.MILLI.,.METRE.));
#2085=PROPERTY_DEFINITION('geometric validation property',
'area of YUAN01002150',#2058);
#2086=REPRESENTATION('surface area',(#2084),#2047);
#2087=PROPERTY_DEFINITION_REPRESENTATION(#2085,#2086);
#2088=(LENGTH_UNIT()NAMED_UNIT(*)SI_UNIT(.MILLI.,.METRE.));
#2092=PROPERTY_DEFINITION('geometric validation property',
'volume of YUAN01002150',#2058);
#2093=REPRESENTATION('volume',(#2091),#2047);
#2094=PROPERTY_DEFINITION_REPRESENTATION(#2092,#2093);
#2096=PROPERTY_DEFINITION('geometric validation property',
'centroid of YUAN01002150',#2058);
#2097=REPRESENTATION('centroid',(#2095),#2047);
#2098=PROPERTY_DEFINITION_REPRESENTATION(#2096,#2097);
#2099=SHAPE_DEFINITION_REPRESENTATION(#2058,#2052);
#2100=NEXT_ASSEMBLY_USAGE_OCCURRENCE('27','Next assembly relationship',
'YUAN01002150',#2128,#2057,$);
#2101=PRODUCT_DEFINITION_SHAPE('Placement #27',
'Placement of YUAN01002150 with respect to ASM0017_ASM',#2100);
#2103=PROPERTY_DEFINITION('geometric validation property',
'centroid of YUAN01002150',#2101);
#2104=REPRESENTATION('centroid',(#2102),#2047);
#2105=PROPERTY_DEFINITION_REPRESENTATION(#2103,#2104);
#2113=(LENGTH_UNIT()NAMED_UNIT(*)SI_UNIT(.MILLI.,.METRE.));
#2114=(NAMED_UNIT(*)PLANE_ANGLE_UNIT()SI_UNIT($,.RADIAN.));
#2117=(NAMED_UNIT(*)SI_UNIT($,.STERADIAN.)SOLID_ANGLE_UNIT());
#2119=(GEOMETRIC_REPRESENTATION_CONTEXT(3)GLOBAL_UNCERTAINTY_ASSIGNED_CONTEXT((
#2118))GLOBAL_UNIT_ASSIGNED_CONTEXT((#2113,#2116,#2117))REPRESENTATION_CONTEXT(
'ID4','3'));
#2123=AXIS2_PLACEMENT_3D('',#2120,#2121,#2122);
#2128=PRODUCT_DEFINITION('part definition','',#2127,#2053);
#2129=(LENGTH_UNIT()NAMED_UNIT(*)SI_UNIT(.MILLI.,.METRE.));
#2133=PROPERTY_DEFINITION('geometric validation property','area of ASM0017_ASM',
#950);
#2134=REPRESENTATION('surface area',(#2132),#2119);
#2135=PROPERTY_DEFINITION_REPRESENTATION(#2133,#2134);
#2136=(LENGTH_UNIT()NAMED_UNIT(*)SI_UNIT(.MILLI.,.METRE.));
#2140=PROPERTY_DEFINITION('geometric validation property',
'volume of ASM0017_ASM',#950);
#2141=REPRESENTATION('volume',(#2139),#2119);
#2142=PROPERTY_DEFINITION_REPRESENTATION(#2140,#2141);
#2144=PROPERTY_DEFINITION('geometric validation property',
'centroid of ASM0017_ASM',#950);
#2145=REPRESENTATION('centroid',(#2143),#2119);
#2146=PROPERTY_DEFINITION_REPRESENTATION(#2144,#2145);
ENDSEC;
END-ISO-10303-21;
