ISO-10303-21;
HEADER;
FILE_DESCRIPTION((''),'2;1');
FILE_NAME('08001600_ASM','2026-01-12T16:07:29',('Administrator'),(''),
'CREO PARAMETRIC BY PTC INC, 2018100','CREO PARAMETRIC BY PTC INC, 2018100','');
FILE_SCHEMA(('AUTOMOTIVE_DESIGN { 1 0 10303 214 1 1 1 1 }'));
ENDSEC;
DATA;
#18=CARTESIAN_POINT('',(0.E0,0.E0,0.E0));
#19=DIRECTION('',(0.E0,1.E0,0.E0));
#20=DIRECTION('',(1.E0,0.E0,0.E0));
#21=AXIS2_PLACEMENT_3D('',#18,#19,#20);
#23=CARTESIAN_POINT('',(0.E0,0.E0,0.E0));
#24=DIRECTION('',(0.E0,1.E0,0.E0));
#25=DIRECTION('',(-1.E0,0.E0,0.E0));
#26=AXIS2_PLACEMENT_3D('',#23,#24,#25);
#28=CARTESIAN_POINT('',(0.E0,0.E0,0.E0));
#29=DIRECTION('',(0.E0,-1.E0,0.E0));
#30=DIRECTION('',(0.E0,0.E0,1.E0));
#31=AXIS2_PLACEMENT_3D('',#28,#29,#30);
#33=CARTESIAN_POINT('',(0.E0,0.E0,0.E0));
#34=DIRECTION('',(0.E0,-1.E0,0.E0));
#35=DIRECTION('',(0.E0,0.E0,-1.E0));
#36=AXIS2_PLACEMENT_3D('',#33,#34,#35);
#38=CARTESIAN_POINT('',(3.75E0,2.5E-1,1.542373867514E-12));
#39=DIRECTION('',(4.112994667071E-13,0.E0,-1.E0));
#40=DIRECTION('',(1.E0,0.E0,4.112994667071E-13));
#41=AXIS2_PLACEMENT_3D('',#38,#39,#40);
#43=CARTESIAN_POINT('',(0.E0,1.585E1,0.E0));
#44=DIRECTION('',(0.E0,-1.E0,0.E0));
#45=DIRECTION('',(-1.E0,0.E0,0.E0));
#46=AXIS2_PLACEMENT_3D('',#43,#44,#45);
#48=DIRECTION('',(0.E0,1.E0,1.413175996652E-13));
#49=VECTOR('',#48,1.429098300563E1);
#50=CARTESIAN_POINT('',(4.E0,1.559016994375E0,-2.003089021548E-12));
#51=LINE('',#50,#49);
#52=CARTESIAN_POINT('',(0.E0,2.5E-1,0.E0));
#53=DIRECTION('',(0.E0,1.E0,0.E0));
#54=DIRECTION('',(1.E0,0.E0,0.E0));
#55=AXIS2_PLACEMENT_3D('',#52,#53,#54);
#57=DIRECTION('',(0.E0,1.E0,-1.073012519410E-11));
#58=VECTOR('',#57,1.909830056251E-1);
#59=CARTESIAN_POINT('',(4.E0,2.5E-1,6.867888592843E-14));
#60=LINE('',#59,#58);
#61=CARTESIAN_POINT('',(-3.85E0,1.585E1,2.448596880811E-13));
#62=DIRECTION('',(-6.359929943800E-14,0.E0,-1.E0));
#63=DIRECTION('',(-1.E0,0.E0,6.359929943800E-14));
#64=AXIS2_PLACEMENT_3D('',#61,#62,#63);
#66=CARTESIAN_POINT('',(3.85E0,1.585E1,-2.440166124718E-13));
#67=DIRECTION('',(6.338072428003E-14,0.E0,1.E0));
#68=DIRECTION('',(1.E0,0.E0,-6.338072428003E-14));
#69=AXIS2_PLACEMENT_3D('',#66,#67,#68);
#71=CARTESIAN_POINT('',(0.E0,1.585E1,0.E0));
#72=DIRECTION('',(0.E0,-1.E0,0.E0));
#73=DIRECTION('',(1.E0,0.E0,0.E0));
#74=AXIS2_PLACEMENT_3D('',#71,#72,#73);
#76=CARTESIAN_POINT('',(0.E0,1.559016994375E0,0.E0));
#77=DIRECTION('',(0.E0,1.E0,0.E0));
#78=DIRECTION('',(0.E0,0.E0,1.E0));
#79=AXIS2_PLACEMENT_3D('',#76,#77,#78);
#81=CARTESIAN_POINT('',(0.E0,1.559016994375E0,0.E0));
#82=DIRECTION('',(0.E0,1.E0,0.E0));
#83=DIRECTION('',(-1.E0,0.E0,0.E0));
#84=AXIS2_PLACEMENT_3D('',#81,#82,#83);
#86=DIRECTION('',(0.E0,1.E0,-1.596701302029E-13));
#87=VECTOR('',#86,1.429098300563E1);
#88=CARTESIAN_POINT('',(-4.E0,1.559016994375E0,2.265139131536E-12));
#89=LINE('',#88,#87);
#90=CARTESIAN_POINT('',(0.E0,2.5E-1,0.E0));
#91=DIRECTION('',(0.E0,1.E0,0.E0));
#92=DIRECTION('',(-1.E0,0.E0,0.E0));
#93=AXIS2_PLACEMENT_3D('',#90,#91,#92);
#95=DIRECTION('',(0.E0,1.E0,1.208252491245E-11));
#96=VECTOR('',#95,1.909830056251E-1);
#97=CARTESIAN_POINT('',(-4.E0,2.5E-1,-6.782975598389E-14));
#98=LINE('',#97,#96);
#99=CARTESIAN_POINT('',(0.E0,4.409830056251E-1,0.E0));
#100=DIRECTION('',(0.E0,-1.E0,0.E0));
#101=DIRECTION('',(0.E0,0.E0,1.E0));
#102=AXIS2_PLACEMENT_3D('',#99,#100,#101);
#104=CARTESIAN_POINT('',(0.E0,4.409830056251E-1,0.E0));
#105=DIRECTION('',(0.E0,-1.E0,0.E0));
#106=DIRECTION('',(1.E0,0.E0,0.E0));
#107=AXIS2_PLACEMENT_3D('',#104,#105,#106);
#109=CARTESIAN_POINT('',(0.E0,1.559016994375E0,0.E0));
#110=DIRECTION('',(0.E0,1.E0,0.E0));
#111=DIRECTION('',(1.E0,0.E0,0.E0));
#112=AXIS2_PLACEMENT_3D('',#109,#110,#111);
#114=CARTESIAN_POINT('',(0.E0,1.186338998125E0,0.E0));
#115=DIRECTION('',(0.E0,-1.E0,0.E0));
#116=DIRECTION('',(-3.134123395593E-13,0.E0,-1.E0));
#117=AXIS2_PLACEMENT_3D('',#114,#115,#116);
#119=CARTESIAN_POINT('',(-3.223486061410E-11,1.559016994375E0,3.5E0));
#120=DIRECTION('',(1.E0,0.E0,9.209960918910E-12));
#121=DIRECTION('',(-9.209960918910E-12,-8.881784197001E-14,1.E0));
#122=AXIS2_PLACEMENT_3D('',#119,#120,#121);
#124=CARTESIAN_POINT('',(-3.5E0,1.559016994375E0,-1.923835396545E-11));
#125=DIRECTION('',(-5.496672561556E-12,0.E0,1.E0));
#126=DIRECTION('',(-1.E0,-6.661338147751E-14,-5.496672561556E-12));
#127=AXIS2_PLACEMENT_3D('',#124,#125,#126);
#129=CARTESIAN_POINT('',(0.E0,1.E0,4.E0));
#130=DIRECTION('',(-1.E0,0.E0,0.E0));
#131=DIRECTION('',(0.E0,7.453559924999E-1,-6.666666666667E-1));
#132=AXIS2_PLACEMENT_3D('',#129,#130,#131);
#134=CARTESIAN_POINT('',(0.E0,8.136610018750E-1,0.E0));
#135=DIRECTION('',(0.E0,-1.E0,0.E0));
#136=DIRECTION('',(0.E0,0.E0,1.E0));
#137=AXIS2_PLACEMENT_3D('',#134,#135,#136);
#139=CARTESIAN_POINT('',(0.E0,8.136610018750E-1,0.E0));
#140=DIRECTION('',(0.E0,-1.E0,0.E0));
#141=DIRECTION('',(-1.E0,0.E0,0.E0));
#142=AXIS2_PLACEMENT_3D('',#139,#140,#141);
#144=CARTESIAN_POINT('',(0.E0,1.E0,-4.E0));
#145=DIRECTION('',(-1.E0,0.E0,0.E0));
#146=DIRECTION('',(0.E0,-7.453559924999E-1,6.666666666667E-1));
#147=AXIS2_PLACEMENT_3D('',#144,#145,#146);
#149=CARTESIAN_POINT('',(0.E0,1.186338998125E0,0.E0));
#150=DIRECTION('',(0.E0,1.E0,0.E0));
#151=DIRECTION('',(0.E0,0.E0,-1.E0));
#152=AXIS2_PLACEMENT_3D('',#149,#150,#151);
#154=CARTESIAN_POINT('',(0.E0,1.186338998125E0,0.E0));
#155=DIRECTION('',(0.E0,1.E0,0.E0));
#156=DIRECTION('',(-1.E0,0.E0,0.E0));
#157=AXIS2_PLACEMENT_3D('',#154,#155,#156);
#159=CARTESIAN_POINT('',(0.E0,4.409830056251E-1,0.E0));
#160=DIRECTION('',(0.E0,-1.E0,0.E0));
#161=DIRECTION('',(-1.E0,0.E0,0.E0));
#162=AXIS2_PLACEMENT_3D('',#159,#160,#161);
#164=CARTESIAN_POINT('',(0.E0,8.136610018750E-1,0.E0));
#165=DIRECTION('',(0.E0,1.E0,0.E0));
#166=DIRECTION('',(-9.211756357710E-12,0.E0,1.E0));
#167=AXIS2_PLACEMENT_3D('',#164,#165,#166);
#169=CARTESIAN_POINT('',(-3.5E0,4.409830056251E-1,2.716402103253E-11));
#170=DIRECTION('',(-7.761149362073E-12,0.E0,-1.E0));
#171=DIRECTION('',(-1.E0,5.151434834261E-14,7.761149362073E-12));
#172=AXIS2_PLACEMENT_3D('',#169,#170,#171);
#174=CARTESIAN_POINT('',(3.592951630660E-11,4.409830056251E-1,3.5E0));
#175=DIRECTION('',(-1.E0,0.E0,1.026557658323E-11));
#176=DIRECTION('',(1.026557658323E-11,2.762234885267E-13,1.E0));
#177=AXIS2_PLACEMENT_3D('',#174,#175,#176);
#179=CARTESIAN_POINT('',(-3.75E0,2.5E-1,-1.541735489274E-12));
#180=DIRECTION('',(-4.111294638065E-13,0.E0,1.E0));
#181=DIRECTION('',(-1.E0,0.E0,-4.111294638065E-13));
#182=AXIS2_PLACEMENT_3D('',#179,#180,#181);
#184=CARTESIAN_POINT('',(0.E0,1.6E1,0.E0));
#185=DIRECTION('',(0.E0,-1.E0,0.E0));
#186=DIRECTION('',(-1.E0,0.E0,0.E0));
#187=AXIS2_PLACEMENT_3D('',#184,#185,#186);
#189=CARTESIAN_POINT('',(0.E0,1.6E1,0.E0));
#190=DIRECTION('',(0.E0,-1.E0,0.E0));
#191=DIRECTION('',(1.E0,0.E0,0.E0));
#192=AXIS2_PLACEMENT_3D('',#189,#190,#191);
#194=CARTESIAN_POINT('',(0.E0,1.6E1,0.E0));
#195=DIRECTION('',(0.E0,1.E0,0.E0));
#196=DIRECTION('',(0.E0,0.E0,-1.E0));
#197=AXIS2_PLACEMENT_3D('',#194,#195,#196);
#199=CARTESIAN_POINT('',(0.E0,1.6E1,0.E0));
#200=DIRECTION('',(0.E0,1.E0,0.E0));
#201=DIRECTION('',(0.E0,0.E0,1.E0));
#202=AXIS2_PLACEMENT_3D('',#199,#200,#201);
#204=DIRECTION('',(0.E0,-1.E0,0.E0));
#205=VECTOR('',#204,2.E-2);
#206=CARTESIAN_POINT('',(0.E0,1.6E1,-3.E0));
#207=LINE('',#206,#205);
#208=DIRECTION('',(0.E0,-1.E0,0.E0));
#209=VECTOR('',#208,2.E-2);
#210=CARTESIAN_POINT('',(0.E0,1.6E1,3.E0));
#211=LINE('',#210,#209);
#212=CARTESIAN_POINT('',(0.E0,1.598E1,0.E0));
#213=DIRECTION('',(0.E0,1.E0,0.E0));
#214=DIRECTION('',(0.E0,0.E0,-1.E0));
#215=AXIS2_PLACEMENT_3D('',#212,#213,#214);
#217=CARTESIAN_POINT('',(0.E0,1.598E1,0.E0));
#218=DIRECTION('',(0.E0,1.E0,0.E0));
#219=DIRECTION('',(0.E0,0.E0,1.E0));
#220=AXIS2_PLACEMENT_3D('',#217,#218,#219);
#222=DIRECTION('',(0.E0,1.E0,0.E0));
#223=VECTOR('',#222,1.E-1);
#224=CARTESIAN_POINT('',(0.E0,0.E0,2.9E0));
#225=LINE('',#224,#223);
#226=DIRECTION('',(0.E0,1.E0,0.E0));
#227=VECTOR('',#226,1.E-1);
#228=CARTESIAN_POINT('',(0.E0,0.E0,-2.9E0));
#229=LINE('',#228,#227);
#230=CARTESIAN_POINT('',(0.E0,1.E-1,0.E0));
#231=DIRECTION('',(0.E0,-1.E0,0.E0));
#232=DIRECTION('',(0.E0,0.E0,1.E0));
#233=AXIS2_PLACEMENT_3D('',#230,#231,#232);
#235=CARTESIAN_POINT('',(0.E0,1.E-1,0.E0));
#236=DIRECTION('',(0.E0,-1.E0,0.E0));
#237=DIRECTION('',(0.E0,0.E0,-1.E0));
#238=AXIS2_PLACEMENT_3D('',#235,#236,#237);
#240=CARTESIAN_POINT('',(0.E0,1.E-1,1.75E0));
#241=DIRECTION('',(0.E0,-1.E0,0.E0));
#242=DIRECTION('',(0.E0,0.E0,-1.E0));
#243=AXIS2_PLACEMENT_3D('',#240,#241,#242);
#245=CARTESIAN_POINT('',(0.E0,1.E-1,1.75E0));
#246=DIRECTION('',(0.E0,-1.E0,0.E0));
#247=DIRECTION('',(0.E0,0.E0,1.E0));
#248=AXIS2_PLACEMENT_3D('',#245,#246,#247);
#250=CARTESIAN_POINT('',(0.E0,1.E-1,-1.75E0));
#251=DIRECTION('',(0.E0,-1.E0,0.E0));
#252=DIRECTION('',(-1.E0,0.E0,0.E0));
#253=AXIS2_PLACEMENT_3D('',#250,#251,#252);
#255=CARTESIAN_POINT('',(0.E0,1.E-1,-1.75E0));
#256=DIRECTION('',(0.E0,-1.E0,0.E0));
#257=DIRECTION('',(1.E0,0.E0,0.E0));
#258=AXIS2_PLACEMENT_3D('',#255,#256,#257);
#260=DIRECTION('',(0.E0,-1.E0,0.E0));
#261=VECTOR('',#260,2.E1);
#262=CARTESIAN_POINT('',(0.E0,1.E-1,1.45E0));
#263=LINE('',#262,#261);
#264=DIRECTION('',(0.E0,-1.E0,0.E0));
#265=VECTOR('',#264,2.E1);
#266=CARTESIAN_POINT('',(0.E0,1.E-1,2.05E0));
#267=LINE('',#266,#265);
#268=CARTESIAN_POINT('',(0.E0,-1.99E1,1.75E0));
#269=DIRECTION('',(0.E0,-1.E0,0.E0));
#270=DIRECTION('',(0.E0,0.E0,-1.E0));
#271=AXIS2_PLACEMENT_3D('',#268,#269,#270);
#273=CARTESIAN_POINT('',(0.E0,-1.99E1,1.75E0));
#274=DIRECTION('',(0.E0,-1.E0,0.E0));
#275=DIRECTION('',(0.E0,0.E0,1.E0));
#276=AXIS2_PLACEMENT_3D('',#273,#274,#275);
#278=DIRECTION('',(0.E0,-1.E0,0.E0));
#279=VECTOR('',#278,2.5E1);
#280=CARTESIAN_POINT('',(-3.E-1,1.E-1,-1.75E0));
#281=LINE('',#280,#279);
#282=DIRECTION('',(0.E0,-1.E0,0.E0));
#283=VECTOR('',#282,2.5E1);
#284=CARTESIAN_POINT('',(3.E-1,1.E-1,-1.75E0));
#285=LINE('',#284,#283);
#286=CARTESIAN_POINT('',(0.E0,-2.49E1,-1.75E0));
#287=DIRECTION('',(0.E0,-1.E0,0.E0));
#288=DIRECTION('',(-1.E0,0.E0,0.E0));
#289=AXIS2_PLACEMENT_3D('',#286,#287,#288);
#291=CARTESIAN_POINT('',(0.E0,-2.49E1,-1.75E0));
#292=DIRECTION('',(0.E0,-1.E0,0.E0));
#293=DIRECTION('',(1.E0,0.E0,0.E0));
#294=AXIS2_PLACEMENT_3D('',#291,#292,#293);
#296=CARTESIAN_POINT('',(-4.E0,1.585E1,0.E0));
#297=CARTESIAN_POINT('',(4.E0,1.585E1,0.E0));
#298=VERTEX_POINT('',#296);
#299=VERTEX_POINT('',#297);
#300=CARTESIAN_POINT('',(-3.85E0,1.6E1,0.E0));
#301=CARTESIAN_POINT('',(3.85E0,1.6E1,0.E0));
#302=VERTEX_POINT('',#300);
#303=VERTEX_POINT('',#301);
#304=CARTESIAN_POINT('',(4.E0,1.559016994375E0,-2.003089021548E-12));
#305=VERTEX_POINT('',#304);
#306=CARTESIAN_POINT('',(-4.E0,1.559016994375E0,2.265139131536E-12));
#307=VERTEX_POINT('',#306);
#308=CARTESIAN_POINT('',(0.E0,1.186338998125E0,3.833333333333E0));
#309=CARTESIAN_POINT('',(0.E0,8.136610018750E-1,3.833333333333E0));
#310=VERTEX_POINT('',#308);
#311=VERTEX_POINT('',#309);
#312=CARTESIAN_POINT('',(0.E0,8.136610018750E-1,-3.833333333333E0));
#313=CARTESIAN_POINT('',(0.E0,1.186338998125E0,-3.833333333333E0));
#314=VERTEX_POINT('',#312);
#315=VERTEX_POINT('',#313);
#316=CARTESIAN_POINT('',(0.E0,1.E-1,2.9E0));
#317=CARTESIAN_POINT('',(0.E0,1.E-1,-2.9E0));
#318=VERTEX_POINT('',#316);
#319=VERTEX_POINT('',#317);
#320=CARTESIAN_POINT('',(0.E0,0.E0,2.9E0));
#321=CARTESIAN_POINT('',(0.E0,0.E0,-2.9E0));
#322=VERTEX_POINT('',#320);
#323=VERTEX_POINT('',#321);
#324=CARTESIAN_POINT('',(0.E0,-1.99E1,1.45E0));
#325=CARTESIAN_POINT('',(0.E0,-1.99E1,2.05E0));
#326=VERTEX_POINT('',#324);
#327=VERTEX_POINT('',#325);
#328=CARTESIAN_POINT('',(0.E0,1.E-1,1.45E0));
#329=CARTESIAN_POINT('',(0.E0,1.E-1,2.05E0));
#330=VERTEX_POINT('',#328);
#331=VERTEX_POINT('',#329);
#332=CARTESIAN_POINT('',(-3.E-1,-2.49E1,-1.75E0));
#333=CARTESIAN_POINT('',(3.E-1,-2.49E1,-1.75E0));
#334=VERTEX_POINT('',#332);
#335=VERTEX_POINT('',#333);
#336=CARTESIAN_POINT('',(-3.E-1,1.E-1,-1.75E0));
#337=CARTESIAN_POINT('',(3.E-1,1.E-1,-1.75E0));
#338=VERTEX_POINT('',#336);
#339=VERTEX_POINT('',#337);
#340=CARTESIAN_POINT('',(4.E0,2.5E-1,0.E0));
#341=CARTESIAN_POINT('',(-4.E0,2.5E-1,0.E0));
#342=VERTEX_POINT('',#340);
#343=VERTEX_POINT('',#341);
#344=CARTESIAN_POINT('',(3.75E0,0.E0,0.E0));
#345=CARTESIAN_POINT('',(-3.75E0,0.E0,0.E0));
#346=VERTEX_POINT('',#344);
#347=VERTEX_POINT('',#345);
#348=CARTESIAN_POINT('',(4.E0,4.409830056251E-1,-1.980592674374E-12));
#349=VERTEX_POINT('',#348);
#350=CARTESIAN_POINT('',(-4.E0,4.409830056251E-1,2.239727167336E-12));
#351=VERTEX_POINT('',#350);
#352=CARTESIAN_POINT('',(-3.833333333333E0,1.186338998125E0,0.E0));
#353=VERTEX_POINT('',#352);
#354=CARTESIAN_POINT('',(0.E0,1.559016994375E0,4.E0));
#355=VERTEX_POINT('',#354);
#356=CARTESIAN_POINT('',(0.E0,4.409830056251E-1,4.E0));
#357=VERTEX_POINT('',#356);
#358=CARTESIAN_POINT('',(-3.833333333333E0,8.136610018750E-1,0.E0));
#359=VERTEX_POINT('',#358);
#360=CARTESIAN_POINT('',(0.E0,1.598E1,-3.E0));
#361=CARTESIAN_POINT('',(0.E0,1.598E1,3.E0));
#362=VERTEX_POINT('',#360);
#363=VERTEX_POINT('',#361);
#364=CARTESIAN_POINT('',(0.E0,1.6E1,-3.E0));
#365=CARTESIAN_POINT('',(0.E0,1.6E1,3.E0));
#366=VERTEX_POINT('',#364);
#367=VERTEX_POINT('',#365);
#368=CARTESIAN_POINT('',(0.E0,0.E0,0.E0));
#369=DIRECTION('',(0.E0,1.E0,0.E0));
#370=DIRECTION('',(1.E0,0.E0,0.E0));
#371=AXIS2_PLACEMENT_3D('',#368,#369,#370);
#372=PLANE('',#371);
#374=ORIENTED_EDGE('',*,*,#373,.T.);
#376=ORIENTED_EDGE('',*,*,#375,.T.);
#377=EDGE_LOOP('',(#374,#376));
#378=FACE_OUTER_BOUND('',#377,.F.);
#380=ORIENTED_EDGE('',*,*,#379,.T.);
#382=ORIENTED_EDGE('',*,*,#381,.T.);
#383=EDGE_LOOP('',(#380,#382));
#384=FACE_BOUND('',#383,.F.);
#386=FILL_AREA_STYLE_COLOUR('',#8);
#387=FILL_AREA_STYLE('',(#386));
#388=SURFACE_STYLE_FILL_AREA(#387);
#389=SURFACE_SIDE_STYLE('',(#388));
#390=SURFACE_STYLE_USAGE(.POSITIVE.,#389);
#391=PRESENTATION_STYLE_ASSIGNMENT((#390));
#392=STYLED_ITEM('',(#391),#385);
#393=CARTESIAN_POINT('',(0.E0,2.5E-1,0.E0));
#394=DIRECTION('',(0.E0,1.E0,0.E0));
#395=DIRECTION('',(9.999688263178E-1,0.E0,7.895973189296E-3));
#396=AXIS2_PLACEMENT_3D('',#393,#394,#395);
#397=TOROIDAL_SURFACE('',#396,3.75E0,2.5E-1);
#399=ORIENTED_EDGE('',*,*,#398,.T.);
#401=ORIENTED_EDGE('',*,*,#400,.T.);
#402=ORIENTED_EDGE('',*,*,#373,.F.);
#404=ORIENTED_EDGE('',*,*,#403,.F.);
#405=EDGE_LOOP('',(#399,#401,#402,#404));
#406=FACE_OUTER_BOUND('',#405,.F.);
#408=FILL_AREA_STYLE_COLOUR('',#8);
#409=FILL_AREA_STYLE('',(#408));
#410=SURFACE_STYLE_FILL_AREA(#409);
#411=SURFACE_SIDE_STYLE('',(#410));
#412=SURFACE_STYLE_USAGE(.POSITIVE.,#411);
#413=PRESENTATION_STYLE_ASSIGNMENT((#412));
#414=STYLED_ITEM('',(#413),#407);
#415=CARTESIAN_POINT('',(0.E0,0.E0,0.E0));
#416=DIRECTION('',(0.E0,1.E0,0.E0));
#417=DIRECTION('',(1.E0,0.E0,0.E0));
#418=AXIS2_PLACEMENT_3D('',#415,#416,#417);
#419=CYLINDRICAL_SURFACE('',#418,4.E0);
#421=ORIENTED_EDGE('',*,*,#420,.F.);
#423=ORIENTED_EDGE('',*,*,#422,.F.);
#425=ORIENTED_EDGE('',*,*,#424,.F.);
#427=ORIENTED_EDGE('',*,*,#426,.T.);
#428=EDGE_LOOP('',(#421,#423,#425,#427));
#429=FACE_OUTER_BOUND('',#428,.F.);
#431=FILL_AREA_STYLE_COLOUR('',#8);
#432=FILL_AREA_STYLE('',(#431));
#433=SURFACE_STYLE_FILL_AREA(#432);
#434=SURFACE_SIDE_STYLE('',(#433));
#435=SURFACE_STYLE_USAGE(.POSITIVE.,#434);
#436=PRESENTATION_STYLE_ASSIGNMENT((#435));
#437=STYLED_ITEM('',(#436),#430);
#438=CARTESIAN_POINT('',(0.E0,0.E0,0.E0));
#439=DIRECTION('',(0.E0,1.E0,0.E0));
#440=DIRECTION('',(1.E0,0.E0,0.E0));
#441=AXIS2_PLACEMENT_3D('',#438,#439,#440);
#442=CYLINDRICAL_SURFACE('',#441,4.E0);
#443=ORIENTED_EDGE('',*,*,#398,.F.);
#445=ORIENTED_EDGE('',*,*,#444,.T.);
#447=ORIENTED_EDGE('',*,*,#446,.F.);
#449=ORIENTED_EDGE('',*,*,#448,.F.);
#450=EDGE_LOOP('',(#443,#445,#447,#449));
#451=FACE_OUTER_BOUND('',#450,.F.);
#453=FILL_AREA_STYLE_COLOUR('',#8);
#454=FILL_AREA_STYLE('',(#453));
#455=SURFACE_STYLE_FILL_AREA(#454);
#456=SURFACE_SIDE_STYLE('',(#455));
#457=SURFACE_STYLE_USAGE(.POSITIVE.,#456);
#458=PRESENTATION_STYLE_ASSIGNMENT((#457));
#459=STYLED_ITEM('',(#458),#452);
#460=CARTESIAN_POINT('',(0.E0,1.585E1,0.E0));
#461=DIRECTION('',(0.E0,1.E0,0.E0));
#462=DIRECTION('',(-9.999737699565E-1,0.E0,7.242886091697E-3));
#463=AXIS2_PLACEMENT_3D('',#460,#461,#462);
#464=TOROIDAL_SURFACE('',#463,3.85E0,1.5E-1);
#465=ORIENTED_EDGE('',*,*,#420,.T.);
#467=ORIENTED_EDGE('',*,*,#466,.T.);
#469=ORIENTED_EDGE('',*,*,#468,.F.);
#471=ORIENTED_EDGE('',*,*,#470,.F.);
#472=EDGE_LOOP('',(#465,#467,#469,#471));
#473=FACE_OUTER_BOUND('',#472,.F.);
#475=FILL_AREA_STYLE_COLOUR('',#8);
#476=FILL_AREA_STYLE('',(#475));
#477=SURFACE_STYLE_FILL_AREA(#476);
#478=SURFACE_SIDE_STYLE('',(#477));
#479=SURFACE_STYLE_USAGE(.POSITIVE.,#478);
#480=PRESENTATION_STYLE_ASSIGNMENT((#479));
#481=STYLED_ITEM('',(#480),#474);
#482=CARTESIAN_POINT('',(0.E0,1.585E1,0.E0));
#483=DIRECTION('',(0.E0,1.E0,0.E0));
#484=DIRECTION('',(9.999737699565E-1,0.E0,-7.242886091696E-3));
#485=AXIS2_PLACEMENT_3D('',#482,#483,#484);
#486=TOROIDAL_SURFACE('',#485,3.85E0,1.5E-1);
#488=ORIENTED_EDGE('',*,*,#487,.T.);
#489=ORIENTED_EDGE('',*,*,#470,.T.);
#491=ORIENTED_EDGE('',*,*,#490,.F.);
#492=ORIENTED_EDGE('',*,*,#466,.F.);
#493=EDGE_LOOP('',(#488,#489,#491,#492));
#494=FACE_OUTER_BOUND('',#493,.F.);
#496=FILL_AREA_STYLE_COLOUR('',#8);
#497=FILL_AREA_STYLE('',(#496));
#498=SURFACE_STYLE_FILL_AREA(#497);
#499=SURFACE_SIDE_STYLE('',(#498));
#500=SURFACE_STYLE_USAGE(.POSITIVE.,#499);
#501=PRESENTATION_STYLE_ASSIGNMENT((#500));
#502=STYLED_ITEM('',(#501),#495);
#503=CARTESIAN_POINT('',(0.E0,0.E0,0.E0));
#504=DIRECTION('',(0.E0,1.E0,0.E0));
#505=DIRECTION('',(1.E0,0.E0,0.E0));
#506=AXIS2_PLACEMENT_3D('',#503,#504,#505);
#507=CYLINDRICAL_SURFACE('',#506,4.E0);
#508=ORIENTED_EDGE('',*,*,#487,.F.);
#509=ORIENTED_EDGE('',*,*,#426,.F.);
#511=ORIENTED_EDGE('',*,*,#510,.F.);
#513=ORIENTED_EDGE('',*,*,#512,.F.);
#514=ORIENTED_EDGE('',*,*,#422,.T.);
#515=EDGE_LOOP('',(#508,#509,#511,#513,#514));
#516=FACE_OUTER_BOUND('',#515,.F.);
#518=FILL_AREA_STYLE_COLOUR('',#8);
#519=FILL_AREA_STYLE('',(#518));
#520=SURFACE_STYLE_FILL_AREA(#519);
#521=SURFACE_SIDE_STYLE('',(#520));
#522=SURFACE_STYLE_USAGE(.POSITIVE.,#521);
#523=PRESENTATION_STYLE_ASSIGNMENT((#522));
#524=STYLED_ITEM('',(#523),#517);
#525=CARTESIAN_POINT('',(0.E0,0.E0,0.E0));
#526=DIRECTION('',(0.E0,1.E0,0.E0));
#527=DIRECTION('',(1.E0,0.E0,0.E0));
#528=AXIS2_PLACEMENT_3D('',#525,#526,#527);
#529=CYLINDRICAL_SURFACE('',#528,4.E0);
#531=ORIENTED_EDGE('',*,*,#530,.F.);
#532=ORIENTED_EDGE('',*,*,#448,.T.);
#534=ORIENTED_EDGE('',*,*,#533,.F.);
#536=ORIENTED_EDGE('',*,*,#535,.F.);
#537=ORIENTED_EDGE('',*,*,#444,.F.);
#538=EDGE_LOOP('',(#531,#532,#534,#536,#537));
#539=FACE_OUTER_BOUND('',#538,.F.);
#541=FILL_AREA_STYLE_COLOUR('',#8);
#542=FILL_AREA_STYLE('',(#541));
#543=SURFACE_STYLE_FILL_AREA(#542);
#544=SURFACE_SIDE_STYLE('',(#543));
#545=SURFACE_STYLE_USAGE(.POSITIVE.,#544);
#546=PRESENTATION_STYLE_ASSIGNMENT((#545));
#547=STYLED_ITEM('',(#546),#540);
#548=CARTESIAN_POINT('',(0.E0,1.559016994375E0,0.E0));
#549=DIRECTION('',(0.E0,1.E0,0.E0));
#550=DIRECTION('',(9.999688263178E-1,0.E0,7.895973189296E-3));
#551=AXIS2_PLACEMENT_3D('',#548,#549,#550);
#552=TOROIDAL_SURFACE('',#551,3.5E0,5.E-1);
#553=ORIENTED_EDGE('',*,*,#424,.T.);
#555=ORIENTED_EDGE('',*,*,#554,.T.);
#557=ORIENTED_EDGE('',*,*,#556,.F.);
#559=ORIENTED_EDGE('',*,*,#558,.T.);
#561=ORIENTED_EDGE('',*,*,#560,.F.);
#562=ORIENTED_EDGE('',*,*,#510,.T.);
#563=EDGE_LOOP('',(#553,#555,#557,#559,#561,#562));
#564=FACE_OUTER_BOUND('',#563,.F.);
#566=FILL_AREA_STYLE_COLOUR('',#8);
#567=FILL_AREA_STYLE('',(#566));
#568=SURFACE_STYLE_FILL_AREA(#567);
#569=SURFACE_SIDE_STYLE('',(#568));
#570=SURFACE_STYLE_USAGE(.POSITIVE.,#569);
#571=PRESENTATION_STYLE_ASSIGNMENT((#570));
#572=STYLED_ITEM('',(#571),#565);
#573=CARTESIAN_POINT('',(0.E0,1.559016994375E0,0.E0));
#574=DIRECTION('',(0.E0,1.E0,0.E0));
#575=DIRECTION('',(-9.999688263178E-1,0.E0,-7.895973189296E-3));
#576=AXIS2_PLACEMENT_3D('',#573,#574,#575);
#577=TOROIDAL_SURFACE('',#576,3.5E0,5.E-1);
#578=ORIENTED_EDGE('',*,*,#512,.T.);
#579=ORIENTED_EDGE('',*,*,#560,.T.);
#581=ORIENTED_EDGE('',*,*,#580,.F.);
#582=ORIENTED_EDGE('',*,*,#554,.F.);
#583=EDGE_LOOP('',(#578,#579,#581,#582));
#584=FACE_OUTER_BOUND('',#583,.F.);
#586=FILL_AREA_STYLE_COLOUR('',#8);
#587=FILL_AREA_STYLE('',(#586));
#588=SURFACE_STYLE_FILL_AREA(#587);
#589=SURFACE_SIDE_STYLE('',(#588));
#590=SURFACE_STYLE_USAGE(.POSITIVE.,#589);
#591=PRESENTATION_STYLE_ASSIGNMENT((#590));
#592=STYLED_ITEM('',(#591),#585);
#593=CARTESIAN_POINT('',(0.E0,1.E0,0.E0));
#594=DIRECTION('',(0.E0,1.E0,0.E0));
#595=DIRECTION('',(0.E0,0.E0,-1.E0));
#596=AXIS2_PLACEMENT_3D('',#593,#594,#595);
#597=TOROIDAL_SURFACE('',#596,4.E0,2.5E-1);
#599=ORIENTED_EDGE('',*,*,#598,.T.);
#601=ORIENTED_EDGE('',*,*,#600,.T.);
#603=ORIENTED_EDGE('',*,*,#602,.T.);
#605=ORIENTED_EDGE('',*,*,#604,.T.);
#606=ORIENTED_EDGE('',*,*,#556,.T.);
#607=ORIENTED_EDGE('',*,*,#580,.T.);
#608=EDGE_LOOP('',(#599,#601,#603,#605,#606,#607));
#609=FACE_OUTER_BOUND('',#608,.F.);
#611=FILL_AREA_STYLE_COLOUR('',#8);
#612=FILL_AREA_STYLE('',(#611));
#613=SURFACE_STYLE_FILL_AREA(#612);
#614=SURFACE_SIDE_STYLE('',(#613));
#615=SURFACE_STYLE_USAGE(.POSITIVE.,#614);
#616=PRESENTATION_STYLE_ASSIGNMENT((#615));
#617=STYLED_ITEM('',(#616),#610);
#618=CARTESIAN_POINT('',(0.E0,1.E0,0.E0));
#619=DIRECTION('',(0.E0,1.E0,0.E0));
#620=DIRECTION('',(0.E0,0.E0,-1.E0));
#621=AXIS2_PLACEMENT_3D('',#618,#619,#620);
#622=TOROIDAL_SURFACE('',#621,4.E0,2.5E-1);
#623=ORIENTED_EDGE('',*,*,#598,.F.);
#624=ORIENTED_EDGE('',*,*,#558,.F.);
#625=ORIENTED_EDGE('',*,*,#604,.F.);
#627=ORIENTED_EDGE('',*,*,#626,.F.);
#628=EDGE_LOOP('',(#623,#624,#625,#627));
#629=FACE_OUTER_BOUND('',#628,.F.);
#631=FILL_AREA_STYLE_COLOUR('',#8);
#632=FILL_AREA_STYLE('',(#631));
#633=SURFACE_STYLE_FILL_AREA(#632);
#634=SURFACE_SIDE_STYLE('',(#633));
#635=SURFACE_STYLE_USAGE(.POSITIVE.,#634);
#636=PRESENTATION_STYLE_ASSIGNMENT((#635));
#637=STYLED_ITEM('',(#636),#630);
#638=CARTESIAN_POINT('',(0.E0,4.409830056251E-1,0.E0));
#639=DIRECTION('',(0.E0,1.E0,0.E0));
#640=DIRECTION('',(-1.141383939704E-2,0.E0,-9.999348600135E-1));
#641=AXIS2_PLACEMENT_3D('',#638,#639,#640);
#642=TOROIDAL_SURFACE('',#641,3.5E0,5.E-1);
#643=ORIENTED_EDGE('',*,*,#446,.T.);
#644=ORIENTED_EDGE('',*,*,#535,.T.);
#646=ORIENTED_EDGE('',*,*,#645,.T.);
#647=ORIENTED_EDGE('',*,*,#626,.T.);
#648=ORIENTED_EDGE('',*,*,#602,.F.);
#650=ORIENTED_EDGE('',*,*,#649,.F.);
#651=EDGE_LOOP('',(#643,#644,#646,#647,#648,#650));
#652=FACE_OUTER_BOUND('',#651,.F.);
#654=FILL_AREA_STYLE_COLOUR('',#8);
#655=FILL_AREA_STYLE('',(#654));
#656=SURFACE_STYLE_FILL_AREA(#655);
#657=SURFACE_SIDE_STYLE('',(#656));
#658=SURFACE_STYLE_USAGE(.POSITIVE.,#657);
#659=PRESENTATION_STYLE_ASSIGNMENT((#658));
#660=STYLED_ITEM('',(#659),#653);
#661=CARTESIAN_POINT('',(0.E0,4.409830056251E-1,0.E0));
#662=DIRECTION('',(0.E0,1.E0,0.E0));
#663=DIRECTION('',(1.141383939704E-2,0.E0,9.999348600135E-1));
#664=AXIS2_PLACEMENT_3D('',#661,#662,#663);
#665=TOROIDAL_SURFACE('',#664,3.5E0,5.E-1);
#666=ORIENTED_EDGE('',*,*,#533,.T.);
#667=ORIENTED_EDGE('',*,*,#649,.T.);
#668=ORIENTED_EDGE('',*,*,#600,.F.);
#669=ORIENTED_EDGE('',*,*,#645,.F.);
#670=EDGE_LOOP('',(#666,#667,#668,#669));
#671=FACE_OUTER_BOUND('',#670,.F.);
#673=FILL_AREA_STYLE_COLOUR('',#8);
#674=FILL_AREA_STYLE('',(#673));
#675=SURFACE_STYLE_FILL_AREA(#674);
#676=SURFACE_SIDE_STYLE('',(#675));
#677=SURFACE_STYLE_USAGE(.POSITIVE.,#676);
#678=PRESENTATION_STYLE_ASSIGNMENT((#677));
#679=STYLED_ITEM('',(#678),#672);
#680=CARTESIAN_POINT('',(0.E0,2.5E-1,0.E0));
#681=DIRECTION('',(0.E0,1.E0,0.E0));
#682=DIRECTION('',(-9.999688263178E-1,0.E0,-7.895973189296E-3));
#683=AXIS2_PLACEMENT_3D('',#680,#681,#682);
#684=TOROIDAL_SURFACE('',#683,3.75E0,2.5E-1);
#685=ORIENTED_EDGE('',*,*,#530,.T.);
#686=ORIENTED_EDGE('',*,*,#403,.T.);
#687=ORIENTED_EDGE('',*,*,#375,.F.);
#688=ORIENTED_EDGE('',*,*,#400,.F.);
#689=EDGE_LOOP('',(#685,#686,#687,#688));
#690=FACE_OUTER_BOUND('',#689,.F.);
#692=FILL_AREA_STYLE_COLOUR('',#8);
#693=FILL_AREA_STYLE('',(#692));
#694=SURFACE_STYLE_FILL_AREA(#693);
#695=SURFACE_SIDE_STYLE('',(#694));
#696=SURFACE_STYLE_USAGE(.POSITIVE.,#695);
#697=PRESENTATION_STYLE_ASSIGNMENT((#696));
#698=STYLED_ITEM('',(#697),#691);
#699=CARTESIAN_POINT('',(0.E0,1.6E1,0.E0));
#700=DIRECTION('',(0.E0,1.E0,0.E0));
#701=DIRECTION('',(1.E0,0.E0,0.E0));
#702=AXIS2_PLACEMENT_3D('',#699,#700,#701);
#703=PLANE('',#702);
#704=ORIENTED_EDGE('',*,*,#468,.T.);
#705=ORIENTED_EDGE('',*,*,#490,.T.);
#706=EDGE_LOOP('',(#704,#705));
#707=FACE_OUTER_BOUND('',#706,.F.);
#709=ORIENTED_EDGE('',*,*,#708,.T.);
#711=ORIENTED_EDGE('',*,*,#710,.T.);
#712=EDGE_LOOP('',(#709,#711));
#713=FACE_BOUND('',#712,.F.);
#715=FILL_AREA_STYLE_COLOUR('',#8);
#716=FILL_AREA_STYLE('',(#715));
#717=SURFACE_STYLE_FILL_AREA(#716);
#718=SURFACE_SIDE_STYLE('',(#717));
#719=SURFACE_STYLE_USAGE(.POSITIVE.,#718);
#720=PRESENTATION_STYLE_ASSIGNMENT((#719));
#721=STYLED_ITEM('',(#720),#714);
#722=CARTESIAN_POINT('',(0.E0,1.6E1,0.E0));
#723=DIRECTION('',(0.E0,1.E0,0.E0));
#724=DIRECTION('',(0.E0,0.E0,-1.E0));
#725=AXIS2_PLACEMENT_3D('',#722,#723,#724);
#726=CYLINDRICAL_SURFACE('',#725,3.E0);
#727=ORIENTED_EDGE('',*,*,#708,.F.);
#729=ORIENTED_EDGE('',*,*,#728,.T.);
#731=ORIENTED_EDGE('',*,*,#730,.T.);
#733=ORIENTED_EDGE('',*,*,#732,.F.);
#734=EDGE_LOOP('',(#727,#729,#731,#733));
#735=FACE_OUTER_BOUND('',#734,.F.);
#737=CARTESIAN_POINT('',(0.E0,1.6E1,0.E0));
#738=DIRECTION('',(0.E0,1.E0,0.E0));
#739=DIRECTION('',(0.E0,0.E0,-1.E0));
#740=AXIS2_PLACEMENT_3D('',#737,#738,#739);
#741=CYLINDRICAL_SURFACE('',#740,3.E0);
#742=ORIENTED_EDGE('',*,*,#710,.F.);
#743=ORIENTED_EDGE('',*,*,#732,.T.);
#745=ORIENTED_EDGE('',*,*,#744,.T.);
#746=ORIENTED_EDGE('',*,*,#728,.F.);
#747=EDGE_LOOP('',(#742,#743,#745,#746));
#748=FACE_OUTER_BOUND('',#747,.F.);
#750=CARTESIAN_POINT('',(0.E0,1.598E1,0.E0));
#751=DIRECTION('',(0.E0,1.E0,0.E0));
#752=DIRECTION('',(0.E0,0.E0,-1.E0));
#753=AXIS2_PLACEMENT_3D('',#750,#751,#752);
#754=PLANE('',#753);
#755=ORIENTED_EDGE('',*,*,#730,.F.);
#756=ORIENTED_EDGE('',*,*,#744,.F.);
#757=EDGE_LOOP('',(#755,#756));
#758=FACE_OUTER_BOUND('',#757,.F.);
#760=FILL_AREA_STYLE_COLOUR('',#13);
#761=FILL_AREA_STYLE('',(#760));
#762=SURFACE_STYLE_FILL_AREA(#761);
#763=SURFACE_SIDE_STYLE('',(#762));
#764=SURFACE_STYLE_USAGE(.POSITIVE.,#763);
#765=PRESENTATION_STYLE_ASSIGNMENT((#764));
#766=STYLED_ITEM('',(#765),#759);
#767=CARTESIAN_POINT('',(0.E0,0.E0,0.E0));
#768=DIRECTION('',(0.E0,-1.E0,0.E0));
#769=DIRECTION('',(0.E0,0.E0,1.E0));
#770=AXIS2_PLACEMENT_3D('',#767,#768,#769);
#771=CYLINDRICAL_SURFACE('',#770,2.9E0);
#772=ORIENTED_EDGE('',*,*,#379,.F.);
#774=ORIENTED_EDGE('',*,*,#773,.T.);
#776=ORIENTED_EDGE('',*,*,#775,.T.);
#778=ORIENTED_EDGE('',*,*,#777,.F.);
#779=EDGE_LOOP('',(#772,#774,#776,#778));
#780=FACE_OUTER_BOUND('',#779,.F.);
#782=FILL_AREA_STYLE_COLOUR('',#8);
#783=FILL_AREA_STYLE('',(#782));
#784=SURFACE_STYLE_FILL_AREA(#783);
#785=SURFACE_SIDE_STYLE('',(#784));
#786=SURFACE_STYLE_USAGE(.POSITIVE.,#785);
#787=PRESENTATION_STYLE_ASSIGNMENT((#786));
#788=STYLED_ITEM('',(#787),#781);
#789=CARTESIAN_POINT('',(0.E0,0.E0,0.E0));
#790=DIRECTION('',(0.E0,-1.E0,0.E0));
#791=DIRECTION('',(0.E0,0.E0,1.E0));
#792=AXIS2_PLACEMENT_3D('',#789,#790,#791);
#793=CYLINDRICAL_SURFACE('',#792,2.9E0);
#794=ORIENTED_EDGE('',*,*,#381,.F.);
#795=ORIENTED_EDGE('',*,*,#777,.T.);
#797=ORIENTED_EDGE('',*,*,#796,.T.);
#798=ORIENTED_EDGE('',*,*,#773,.F.);
#799=EDGE_LOOP('',(#794,#795,#797,#798));
#800=FACE_OUTER_BOUND('',#799,.F.);
#802=FILL_AREA_STYLE_COLOUR('',#8);
#803=FILL_AREA_STYLE('',(#802));
#804=SURFACE_STYLE_FILL_AREA(#803);
#805=SURFACE_SIDE_STYLE('',(#804));
#806=SURFACE_STYLE_USAGE(.POSITIVE.,#805);
#807=PRESENTATION_STYLE_ASSIGNMENT((#806));
#808=STYLED_ITEM('',(#807),#801);
#809=CARTESIAN_POINT('',(0.E0,1.E-1,0.E0));
#810=DIRECTION('',(0.E0,-1.E0,0.E0));
#811=DIRECTION('',(0.E0,0.E0,1.E0));
#812=AXIS2_PLACEMENT_3D('',#809,#810,#811);
#813=PLANE('',#812);
#814=ORIENTED_EDGE('',*,*,#775,.F.);
#815=ORIENTED_EDGE('',*,*,#796,.F.);
#816=EDGE_LOOP('',(#814,#815));
#817=FACE_OUTER_BOUND('',#816,.F.);
#819=ORIENTED_EDGE('',*,*,#818,.T.);
#821=ORIENTED_EDGE('',*,*,#820,.T.);
#822=EDGE_LOOP('',(#819,#821));
#823=FACE_BOUND('',#822,.F.);
#825=ORIENTED_EDGE('',*,*,#824,.T.);
#827=ORIENTED_EDGE('',*,*,#826,.T.);
#828=EDGE_LOOP('',(#825,#827));
#829=FACE_BOUND('',#828,.F.);
#831=FILL_AREA_STYLE_COLOUR('',#16);
#832=FILL_AREA_STYLE('',(#831));
#833=SURFACE_STYLE_FILL_AREA(#832);
#834=SURFACE_SIDE_STYLE('',(#833));
#835=SURFACE_STYLE_USAGE(.POSITIVE.,#834);
#836=PRESENTATION_STYLE_ASSIGNMENT((#835));
#837=STYLED_ITEM('',(#836),#830);
#838=CARTESIAN_POINT('',(0.E0,1.E-1,1.75E0));
#839=DIRECTION('',(0.E0,-1.E0,0.E0));
#840=DIRECTION('',(0.E0,0.E0,-1.E0));
#841=AXIS2_PLACEMENT_3D('',#838,#839,#840);
#842=CYLINDRICAL_SURFACE('',#841,3.E-1);
#843=ORIENTED_EDGE('',*,*,#818,.F.);
#845=ORIENTED_EDGE('',*,*,#844,.T.);
#847=ORIENTED_EDGE('',*,*,#846,.T.);
#849=ORIENTED_EDGE('',*,*,#848,.F.);
#850=EDGE_LOOP('',(#843,#845,#847,#849));
#851=FACE_OUTER_BOUND('',#850,.F.);
#853=FILL_AREA_STYLE_COLOUR('',#17);
#854=FILL_AREA_STYLE('',(#853));
#855=SURFACE_STYLE_FILL_AREA(#854);
#856=SURFACE_SIDE_STYLE('',(#855));
#857=SURFACE_STYLE_USAGE(.POSITIVE.,#856);
#858=PRESENTATION_STYLE_ASSIGNMENT((#857));
#859=STYLED_ITEM('',(#858),#852);
#860=CARTESIAN_POINT('',(0.E0,1.E-1,1.75E0));
#861=DIRECTION('',(0.E0,-1.E0,0.E0));
#862=DIRECTION('',(0.E0,0.E0,-1.E0));
#863=AXIS2_PLACEMENT_3D('',#860,#861,#862);
#864=CYLINDRICAL_SURFACE('',#863,3.E-1);
#865=ORIENTED_EDGE('',*,*,#820,.F.);
#866=ORIENTED_EDGE('',*,*,#848,.T.);
#868=ORIENTED_EDGE('',*,*,#867,.T.);
#869=ORIENTED_EDGE('',*,*,#844,.F.);
#870=EDGE_LOOP('',(#865,#866,#868,#869));
#871=FACE_OUTER_BOUND('',#870,.F.);
#873=FILL_AREA_STYLE_COLOUR('',#17);
#874=FILL_AREA_STYLE('',(#873));
#875=SURFACE_STYLE_FILL_AREA(#874);
#876=SURFACE_SIDE_STYLE('',(#875));
#877=SURFACE_STYLE_USAGE(.POSITIVE.,#876);
#878=PRESENTATION_STYLE_ASSIGNMENT((#877));
#879=STYLED_ITEM('',(#878),#872);
#880=CARTESIAN_POINT('',(0.E0,-1.99E1,0.E0));
#881=DIRECTION('',(0.E0,-1.E0,0.E0));
#882=DIRECTION('',(0.E0,0.E0,-1.E0));
#883=AXIS2_PLACEMENT_3D('',#880,#881,#882);
#884=PLANE('',#883);
#885=ORIENTED_EDGE('',*,*,#846,.F.);
#886=ORIENTED_EDGE('',*,*,#867,.F.);
#887=EDGE_LOOP('',(#885,#886));
#888=FACE_OUTER_BOUND('',#887,.F.);
#890=FILL_AREA_STYLE_COLOUR('',#17);
#891=FILL_AREA_STYLE('',(#890));
#892=SURFACE_STYLE_FILL_AREA(#891);
#893=SURFACE_SIDE_STYLE('',(#892));
#894=SURFACE_STYLE_USAGE(.POSITIVE.,#893);
#895=PRESENTATION_STYLE_ASSIGNMENT((#894));
#896=STYLED_ITEM('',(#895),#889);
#897=CARTESIAN_POINT('',(0.E0,1.E-1,-1.75E0));
#898=DIRECTION('',(0.E0,-1.E0,0.E0));
#899=DIRECTION('',(-1.E0,0.E0,0.E0));
#900=AXIS2_PLACEMENT_3D('',#897,#898,#899);
#901=CYLINDRICAL_SURFACE('',#900,3.E-1);
#902=ORIENTED_EDGE('',*,*,#824,.F.);
#904=ORIENTED_EDGE('',*,*,#903,.T.);
#906=ORIENTED_EDGE('',*,*,#905,.T.);
#908=ORIENTED_EDGE('',*,*,#907,.F.);
#909=EDGE_LOOP('',(#902,#904,#906,#908));
#910=FACE_OUTER_BOUND('',#909,.F.);
#912=FILL_AREA_STYLE_COLOUR('',#17);
#913=FILL_AREA_STYLE('',(#912));
#914=SURFACE_STYLE_FILL_AREA(#913);
#915=SURFACE_SIDE_STYLE('',(#914));
#916=SURFACE_STYLE_USAGE(.POSITIVE.,#915);
#917=PRESENTATION_STYLE_ASSIGNMENT((#916));
#918=STYLED_ITEM('',(#917),#911);
#919=CARTESIAN_POINT('',(0.E0,1.E-1,-1.75E0));
#920=DIRECTION('',(0.E0,-1.E0,0.E0));
#921=DIRECTION('',(-1.E0,0.E0,0.E0));
#922=AXIS2_PLACEMENT_3D('',#919,#920,#921);
#923=CYLINDRICAL_SURFACE('',#922,3.E-1);
#924=ORIENTED_EDGE('',*,*,#826,.F.);
#925=ORIENTED_EDGE('',*,*,#907,.T.);
#927=ORIENTED_EDGE('',*,*,#926,.T.);
#928=ORIENTED_EDGE('',*,*,#903,.F.);
#929=EDGE_LOOP('',(#924,#925,#927,#928));
#930=FACE_OUTER_BOUND('',#929,.F.);
#932=FILL_AREA_STYLE_COLOUR('',#17);
#933=FILL_AREA_STYLE('',(#932));
#934=SURFACE_STYLE_FILL_AREA(#933);
#935=SURFACE_SIDE_STYLE('',(#934));
#936=SURFACE_STYLE_USAGE(.POSITIVE.,#935);
#937=PRESENTATION_STYLE_ASSIGNMENT((#936));
#938=STYLED_ITEM('',(#937),#931);
#939=CARTESIAN_POINT('',(0.E0,-2.49E1,0.E0));
#940=DIRECTION('',(0.E0,-1.E0,0.E0));
#941=DIRECTION('',(-1.E0,0.E0,0.E0));
#942=AXIS2_PLACEMENT_3D('',#939,#940,#941);
#943=PLANE('',#942);
#944=ORIENTED_EDGE('',*,*,#905,.F.);
#945=ORIENTED_EDGE('',*,*,#926,.F.);
#946=EDGE_LOOP('',(#944,#945));
#947=FACE_OUTER_BOUND('',#946,.F.);
#949=FILL_AREA_STYLE_COLOUR('',#17);
#950=FILL_AREA_STYLE('',(#949));
#951=SURFACE_STYLE_FILL_AREA(#950);
#952=SURFACE_SIDE_STYLE('',(#951));
#953=SURFACE_STYLE_USAGE(.POSITIVE.,#952);
#954=PRESENTATION_STYLE_ASSIGNMENT((#953));
#955=STYLED_ITEM('',(#954),#948);
#956=CLOSED_SHELL('',(#385,#407,#430,#452,#474,#495,#517,#540,#565,#585,#610,
#630,#653,#672,#691,#714,#736,#749,#759,#781,#801,#830,#852,#872,#889,#911,#931,
#948));
#957=MANIFOLD_SOLID_BREP('',#956);
#960=PLANE_ANGLE_MEASURE_WITH_UNIT(PLANE_ANGLE_MEASURE(1.745329251994E-2),#959);
#961=(CONVERSION_BASED_UNIT('DEGREE',#960)NAMED_UNIT(*)PLANE_ANGLE_UNIT());
#963=UNCERTAINTY_MEASURE_WITH_UNIT(LENGTH_MEASURE(4.243425430099E-3),#958,
'distance_accuracy_value',
'Maximum model space distance between geometric entities at asserted connectivities');
#965=CARTESIAN_POINT('',(0.E0,0.E0,0.E0));
#966=DIRECTION('',(0.E0,0.E0,1.E0));
#967=DIRECTION('',(1.E0,0.E0,0.E0));
#970=APPLICATION_CONTEXT('automotive_design');
#971=APPLICATION_PROTOCOL_DEFINITION('international standard',
'automotive_design',2001,#970);
#972=PRODUCT_DEFINITION_CONTEXT('part definition',#970,'design');
#973=PRODUCT_CONTEXT('',#970,'mechanical');
#974=PRODUCT('0800090000','0800090000','NOT SPECIFIED',(#973));
#975=PRODUCT_DEFINITION_FORMATION('60','LAST_VERSION',#974);
#983=DERIVED_UNIT_ELEMENT(#982,2.E0);
#984=DERIVED_UNIT((#983));
#985=MEASURE_REPRESENTATION_ITEM('surface area measure',AREA_MEASURE(
5.880464963677E2),#984);
#990=DERIVED_UNIT_ELEMENT(#989,3.E0);
#991=DERIVED_UNIT((#990));
#992=MEASURE_REPRESENTATION_ITEM('volume measure',VOLUME_MEASURE(
8.103206813639E2),#991);
#996=CARTESIAN_POINT('centre point',(-1.373326105212E-7,7.745382562103E0,
-3.053016207551E-3));
#1001=DERIVED_UNIT_ELEMENT(#1000,2.E0);
#1002=DERIVED_UNIT((#1001));
#1003=MEASURE_REPRESENTATION_ITEM('surface area measure',AREA_MEASURE(
5.880464963677E2),#1002);
#1008=DERIVED_UNIT_ELEMENT(#1007,3.E0);
#1009=DERIVED_UNIT((#1008));
#1010=MEASURE_REPRESENTATION_ITEM('volume measure',VOLUME_MEASURE(
8.103206813639E2),#1009);
#1014=CARTESIAN_POINT('centre point',(-1.373326105212E-7,7.745382562103E0,
-3.053016207551E-3));
#1024=CARTESIAN_POINT('centre point',(3.999999862667E0,3.264538256210E1,
-4.003053016208E0));
#1028=CARTESIAN_POINT('',(4.E0,2.49E1,-4.E0));
#1029=DIRECTION('',(0.E0,0.E0,1.E0));
#1030=DIRECTION('',(1.E0,0.E0,0.E0));
#1031=AXIS2_PLACEMENT_3D('',#1028,#1029,#1030);
#1032=ITEM_DEFINED_TRANSFORMATION('','',#968,#1031);
#1033=(REPRESENTATION_RELATIONSHIP('','',#969,#1021)REPRESENTATION_RELATIONSHIP_WITH_TRANSFORMATION(#1032)SHAPE_REPRESENTATION_RELATIONSHIP());
#1034=CONTEXT_DEPENDENT_SHAPE_REPRESENTATION(#1033,#1023);
#1036=CARTESIAN_POINT('',(0.E0,0.E0,0.E0));
#1037=DIRECTION('',(0.E0,-1.E0,0.E0));
#1038=DIRECTION('',(2.993303770323E-1,0.E0,9.541495298881E-1));
#1039=AXIS2_PLACEMENT_3D('',#1036,#1037,#1038);
#1041=DIRECTION('',(0.E0,0.E0,1.E0));
#1042=VECTOR('',#1041,5.239946898207E-3);
#1043=CARTESIAN_POINT('',(-1.197321508130E0,0.E0,3.816598119552E0));
#1044=LINE('',#1043,#1042);
#1045=CARTESIAN_POINT('',(0.E0,0.E0,0.E0));
#1046=DIRECTION('',(0.E0,1.E0,0.E0));
#1047=DIRECTION('',(-2.989566811810E-1,0.E0,9.542666832585E-1));
#1048=AXIS2_PLACEMENT_3D('',#1045,#1046,#1047);
#1050=DIRECTION('',(4.237535403288E-14,0.E0,-1.E0));
#1051=VECTOR('',#1050,5.239946898207E-3);
#1052=CARTESIAN_POINT('',(1.197321508129E0,0.E0,3.821838066451E0));
#1053=LINE('',#1052,#1051);
#1054=DIRECTION('',(0.E0,1.E0,0.E0));
#1055=VECTOR('',#1054,1.42E1);
#1056=CARTESIAN_POINT('',(1.197321508129E0,0.E0,3.816598119552E0));
#1057=LINE('',#1056,#1055);
#1058=DIRECTION('',(0.E0,1.E0,0.E0));
#1059=VECTOR('',#1058,1.42E1);
#1060=CARTESIAN_POINT('',(1.197321508129E0,0.E0,3.821838066451E0));
#1061=LINE('',#1060,#1059);
#1062=DIRECTION('',(0.E0,1.E0,0.E0));
#1063=VECTOR('',#1062,1.42E1);
#1064=CARTESIAN_POINT('',(-1.197321508130E0,0.E0,3.821838066450E0));
#1065=LINE('',#1064,#1063);
#1066=DIRECTION('',(0.E0,1.E0,0.E0));
#1067=VECTOR('',#1066,1.42E1);
#1068=CARTESIAN_POINT('',(-1.197321508130E0,0.E0,3.816598119552E0));
#1069=LINE('',#1068,#1067);
#1070=CARTESIAN_POINT('',(0.E0,1.42E1,0.E0));
#1071=DIRECTION('',(0.E0,-1.E0,0.E0));
#1072=DIRECTION('',(2.993303770323E-1,0.E0,9.541495298881E-1));
#1073=AXIS2_PLACEMENT_3D('',#1070,#1071,#1072);
#1075=DIRECTION('',(4.237535403288E-14,0.E0,-1.E0));
#1076=VECTOR('',#1075,5.239946898207E-3);
#1077=CARTESIAN_POINT('',(1.197321508129E0,1.42E1,3.821838066451E0));
#1078=LINE('',#1077,#1076);
#1079=CARTESIAN_POINT('',(0.E0,1.42E1,0.E0));
#1080=DIRECTION('',(0.E0,1.E0,0.E0));
#1081=DIRECTION('',(-2.989566811810E-1,0.E0,9.542666832585E-1));
#1082=AXIS2_PLACEMENT_3D('',#1079,#1080,#1081);
#1084=DIRECTION('',(4.237535403288E-14,0.E0,1.E0));
#1085=VECTOR('',#1084,5.239946898207E-3);
#1086=CARTESIAN_POINT('',(-1.197321508130E0,1.42E1,3.816598119552E0));
#1087=LINE('',#1086,#1085);
#1088=CARTESIAN_POINT('',(1.197321508129E0,0.E0,3.816598119552E0));
#1089=CARTESIAN_POINT('',(-1.197321508130E0,0.E0,3.816598119552E0));
#1090=VERTEX_POINT('',#1088);
#1091=VERTEX_POINT('',#1089);
#1092=CARTESIAN_POINT('',(-1.197321508130E0,0.E0,3.821838066450E0));
#1093=VERTEX_POINT('',#1092);
#1094=CARTESIAN_POINT('',(1.197321508129E0,0.E0,3.821838066451E0));
#1095=VERTEX_POINT('',#1094);
#1096=CARTESIAN_POINT('',(1.197321508129E0,1.42E1,3.816598119552E0));
#1097=CARTESIAN_POINT('',(-1.197321508130E0,1.42E1,3.816598119552E0));
#1098=VERTEX_POINT('',#1096);
#1099=VERTEX_POINT('',#1097);
#1100=CARTESIAN_POINT('',(-1.197321508130E0,1.42E1,3.821838066450E0));
#1101=VERTEX_POINT('',#1100);
#1102=CARTESIAN_POINT('',(1.197321508129E0,1.42E1,3.821838066451E0));
#1103=VERTEX_POINT('',#1102);
#1104=CARTESIAN_POINT('',(0.E0,0.E0,0.E0));
#1105=DIRECTION('',(0.E0,1.E0,0.E0));
#1106=DIRECTION('',(1.E0,0.E0,0.E0));
#1107=AXIS2_PLACEMENT_3D('',#1104,#1105,#1106);
#1108=PLANE('',#1107);
#1110=ORIENTED_EDGE('',*,*,#1109,.T.);
#1112=ORIENTED_EDGE('',*,*,#1111,.T.);
#1114=ORIENTED_EDGE('',*,*,#1113,.T.);
#1116=ORIENTED_EDGE('',*,*,#1115,.T.);
#1117=EDGE_LOOP('',(#1110,#1112,#1114,#1116));
#1118=FACE_OUTER_BOUND('',#1117,.F.);
#1120=CARTESIAN_POINT('',(0.E0,0.E0,0.E0));
#1121=DIRECTION('',(0.E0,1.E0,0.E0));
#1122=DIRECTION('',(1.E0,0.E0,0.E0));
#1123=AXIS2_PLACEMENT_3D('',#1120,#1121,#1122);
#1124=CYLINDRICAL_SURFACE('',#1123,4.E0);
#1125=ORIENTED_EDGE('',*,*,#1109,.F.);
#1127=ORIENTED_EDGE('',*,*,#1126,.T.);
#1129=ORIENTED_EDGE('',*,*,#1128,.T.);
#1131=ORIENTED_EDGE('',*,*,#1130,.F.);
#1132=EDGE_LOOP('',(#1125,#1127,#1129,#1131));
#1133=FACE_OUTER_BOUND('',#1132,.F.);
#1135=CARTESIAN_POINT('',(1.197321508129E0,0.E0,3.821838066451E0));
#1136=DIRECTION('',(1.E0,0.E0,0.E0));
#1137=DIRECTION('',(0.E0,0.E0,-1.E0));
#1138=AXIS2_PLACEMENT_3D('',#1135,#1136,#1137);
#1139=PLANE('',#1138);
#1140=ORIENTED_EDGE('',*,*,#1115,.F.);
#1142=ORIENTED_EDGE('',*,*,#1141,.T.);
#1144=ORIENTED_EDGE('',*,*,#1143,.T.);
#1145=ORIENTED_EDGE('',*,*,#1126,.F.);
#1146=EDGE_LOOP('',(#1140,#1142,#1144,#1145));
#1147=FACE_OUTER_BOUND('',#1146,.F.);
#1149=CARTESIAN_POINT('',(0.E0,0.E0,0.E0));
#1150=DIRECTION('',(0.E0,1.E0,0.E0));
#1151=DIRECTION('',(1.E0,0.E0,0.E0));
#1152=AXIS2_PLACEMENT_3D('',#1149,#1150,#1151);
#1153=CYLINDRICAL_SURFACE('',#1152,4.005E0);
#1154=ORIENTED_EDGE('',*,*,#1113,.F.);
#1156=ORIENTED_EDGE('',*,*,#1155,.T.);
#1158=ORIENTED_EDGE('',*,*,#1157,.T.);
#1159=ORIENTED_EDGE('',*,*,#1141,.F.);
#1160=EDGE_LOOP('',(#1154,#1156,#1158,#1159));
#1161=FACE_OUTER_BOUND('',#1160,.F.);
#1163=FILL_AREA_STYLE_COLOUR('',#1035);
#1164=FILL_AREA_STYLE('',(#1163));
#1165=SURFACE_STYLE_FILL_AREA(#1164);
#1166=SURFACE_SIDE_STYLE('',(#1165));
#1167=SURFACE_STYLE_USAGE(.POSITIVE.,#1166);
#1168=PRESENTATION_STYLE_ASSIGNMENT((#1167));
#1169=STYLED_ITEM('',(#1168),#1162);
#1170=CARTESIAN_POINT('',(-1.197321508130E0,0.E0,3.816598119552E0));
#1171=DIRECTION('',(-1.E0,0.E0,0.E0));
#1172=DIRECTION('',(0.E0,0.E0,1.E0));
#1173=AXIS2_PLACEMENT_3D('',#1170,#1171,#1172);
#1174=PLANE('',#1173);
#1175=ORIENTED_EDGE('',*,*,#1111,.F.);
#1176=ORIENTED_EDGE('',*,*,#1130,.T.);
#1178=ORIENTED_EDGE('',*,*,#1177,.T.);
#1179=ORIENTED_EDGE('',*,*,#1155,.F.);
#1180=EDGE_LOOP('',(#1175,#1176,#1178,#1179));
#1181=FACE_OUTER_BOUND('',#1180,.F.);
#1183=CARTESIAN_POINT('',(0.E0,1.42E1,0.E0));
#1184=DIRECTION('',(0.E0,1.E0,0.E0));
#1185=DIRECTION('',(1.E0,0.E0,0.E0));
#1186=AXIS2_PLACEMENT_3D('',#1183,#1184,#1185);
#1187=PLANE('',#1186);
#1188=ORIENTED_EDGE('',*,*,#1128,.F.);
#1189=ORIENTED_EDGE('',*,*,#1143,.F.);
#1190=ORIENTED_EDGE('',*,*,#1157,.F.);
#1191=ORIENTED_EDGE('',*,*,#1177,.F.);
#1192=EDGE_LOOP('',(#1188,#1189,#1190,#1191));
#1193=FACE_OUTER_BOUND('',#1192,.F.);
#1195=CLOSED_SHELL('',(#1119,#1134,#1148,#1162,#1182,#1194));
#1196=MANIFOLD_SOLID_BREP('',#1195);
#1199=PLANE_ANGLE_MEASURE_WITH_UNIT(PLANE_ANGLE_MEASURE(1.745329251994E-2),
#1198);
#1200=(CONVERSION_BASED_UNIT('DEGREE',#1199)NAMED_UNIT(*)PLANE_ANGLE_UNIT());
#1202=UNCERTAINTY_MEASURE_WITH_UNIT(LENGTH_MEASURE(1.440116228105E-3),#1197,
'distance_accuracy_value',
'Maximum model space distance between geometric entities at asserted connectivities');
#1204=CARTESIAN_POINT('',(0.E0,0.E0,0.E0));
#1205=DIRECTION('',(0.E0,0.E0,1.E0));
#1206=DIRECTION('',(1.E0,0.E0,0.E0));
#1209=PRODUCT_CONTEXT('',#970,'mechanical');
#1210=PRODUCT('FJB08000900','FJB08000900','NOT SPECIFIED',(#1209));
#1211=PRODUCT_DEFINITION_FORMATION('2','LAST_VERSION',#1210);
#1219=DERIVED_UNIT_ELEMENT(#1218,2.E0);
#1220=DERIVED_UNIT((#1219));
#1221=MEASURE_REPRESENTATION_ITEM('surface area measure',AREA_MEASURE(
6.923845952522E1),#1220);
#1226=DERIVED_UNIT_ELEMENT(#1225,3.E0);
#1227=DERIVED_UNIT((#1226));
#1228=MEASURE_REPRESENTATION_ITEM('volume measure',VOLUME_MEASURE(
1.726633133646E-1),#1227);
#1232=CARTESIAN_POINT('centre point',(-9.245129071075E-12,7.1E0,
3.941217462459E0));
#1237=DERIVED_UNIT_ELEMENT(#1236,2.E0);
#1238=DERIVED_UNIT((#1237));
#1239=MEASURE_REPRESENTATION_ITEM('surface area measure',AREA_MEASURE(
6.923845952522E1),#1238);
#1244=DERIVED_UNIT_ELEMENT(#1243,3.E0);
#1245=DERIVED_UNIT((#1244));
#1246=MEASURE_REPRESENTATION_ITEM('volume measure',VOLUME_MEASURE(
1.726633133646E-1),#1245);
#1250=CARTESIAN_POINT('centre point',(-9.245129071075E-12,7.1E0,
3.941217462459E0));
#1257=CARTESIAN_POINT('centre point',(3.999999999991E0,3.362035735814E1,
-5.878253754097E-2));
#1261=CARTESIAN_POINT('',(4.E0,2.652035735814E1,-4.E0));
#1262=DIRECTION('',(0.E0,0.E0,1.E0));
#1263=DIRECTION('',(1.E0,0.E0,0.E0));
#1264=AXIS2_PLACEMENT_3D('',#1261,#1262,#1263);
#1265=ITEM_DEFINED_TRANSFORMATION('','',#1207,#1264);
#1266=(REPRESENTATION_RELATIONSHIP('','',#1208,#1021)REPRESENTATION_RELATIONSHIP_WITH_TRANSFORMATION(#1265)SHAPE_REPRESENTATION_RELATIONSHIP());
#1267=CONTEXT_DEPENDENT_SHAPE_REPRESENTATION(#1266,#1256);
#1268=CARTESIAN_POINT('',(-9.072E-3,0.E0,-6.89472E-1));
#1269=DIRECTION('',(0.E0,1.E0,0.E0));
#1270=DIRECTION('',(0.E0,0.E0,-1.E0));
#1271=AXIS2_PLACEMENT_3D('',#1268,#1269,#1270);
#1273=DIRECTION('',(0.E0,0.E0,1.E0));
#1274=VECTOR('',#1273,1.378944E0);
#1275=CARTESIAN_POINT('',(-6.804E-1,0.E0,-6.89472E-1));
#1276=LINE('',#1275,#1274);
#1277=CARTESIAN_POINT('',(-9.072E-3,0.E0,6.89472E-1));
#1278=DIRECTION('',(0.E0,1.E0,0.E0));
#1279=DIRECTION('',(-1.E0,0.E0,0.E0));
#1280=AXIS2_PLACEMENT_3D('',#1277,#1278,#1279);
#1282=DIRECTION('',(1.E0,0.E0,0.E0));
#1283=VECTOR('',#1282,1.8144E-2);
#1284=CARTESIAN_POINT('',(-9.072E-3,0.E0,1.3608E0));
#1285=LINE('',#1284,#1283);
#1286=CARTESIAN_POINT('',(9.072E-3,0.E0,6.89472E-1));
#1287=DIRECTION('',(0.E0,1.E0,0.E0));
#1288=DIRECTION('',(0.E0,0.E0,1.E0));
#1289=AXIS2_PLACEMENT_3D('',#1286,#1287,#1288);
#1291=DIRECTION('',(0.E0,0.E0,-1.E0));
#1292=VECTOR('',#1291,1.378944E0);
#1293=CARTESIAN_POINT('',(6.804E-1,0.E0,6.89472E-1));
#1294=LINE('',#1293,#1292);
#1295=CARTESIAN_POINT('',(9.072E-3,0.E0,-6.89472E-1));
#1296=DIRECTION('',(0.E0,1.E0,0.E0));
#1297=DIRECTION('',(1.E0,0.E0,0.E0));
#1298=AXIS2_PLACEMENT_3D('',#1295,#1296,#1297);
#1300=DIRECTION('',(-1.E0,0.E0,0.E0));
#1301=VECTOR('',#1300,1.8144E-2);
#1302=CARTESIAN_POINT('',(9.072E-3,0.E0,-1.3608E0));
#1303=LINE('',#1302,#1301);
#1304=DIRECTION('',(1.E0,0.E0,0.E0));
#1305=VECTOR('',#1304,3.229714357993E-3);
#1306=CARTESIAN_POINT('',(-1.614857178996E-3,0.E0,-9.893949743223E-1));
#1307=LINE('',#1306,#1305);
#1308=CARTESIAN_POINT('',(1.614857178996E-3,0.E0,-5.811549743223E-1));
#1309=DIRECTION('',(0.E0,-1.E0,0.E0));
#1310=DIRECTION('',(0.E0,0.E0,-1.E0));
#1311=AXIS2_PLACEMENT_3D('',#1308,#1309,#1310);
#1313=DIRECTION('',(0.E0,0.E0,1.E0));
#1314=VECTOR('',#1313,1.162309948645E0);
#1315=CARTESIAN_POINT('',(4.098548571790E-1,0.E0,-5.811549743223E-1));
#1316=LINE('',#1315,#1314);
#1317=CARTESIAN_POINT('',(1.614857178996E-3,0.E0,5.811549743223E-1));
#1318=DIRECTION('',(0.E0,-1.E0,0.E0));
#1319=DIRECTION('',(1.E0,0.E0,0.E0));
#1320=AXIS2_PLACEMENT_3D('',#1317,#1318,#1319);
#1322=DIRECTION('',(-1.E0,0.E0,0.E0));
#1323=VECTOR('',#1322,3.229714357993E-3);
#1324=CARTESIAN_POINT('',(1.614857178996E-3,0.E0,9.893949743223E-1));
#1325=LINE('',#1324,#1323);
#1326=CARTESIAN_POINT('',(-1.614857178996E-3,0.E0,5.811549743223E-1));
#1327=DIRECTION('',(0.E0,-1.E0,0.E0));
#1328=DIRECTION('',(0.E0,0.E0,1.E0));
#1329=AXIS2_PLACEMENT_3D('',#1326,#1327,#1328);
#1331=DIRECTION('',(0.E0,0.E0,-1.E0));
#1332=VECTOR('',#1331,1.162309948645E0);
#1333=CARTESIAN_POINT('',(-4.098548571790E-1,0.E0,5.811549743223E-1));
#1334=LINE('',#1333,#1332);
#1335=CARTESIAN_POINT('',(-1.614857178996E-3,0.E0,-5.811549743223E-1));
#1336=DIRECTION('',(0.E0,-1.E0,0.E0));
#1337=DIRECTION('',(-1.E0,0.E0,0.E0));
#1338=AXIS2_PLACEMENT_3D('',#1335,#1336,#1337);
#1340=DIRECTION('',(0.E0,1.E0,0.E0));
#1341=VECTOR('',#1340,9.072E-3);
#1342=CARTESIAN_POINT('',(-9.072E-3,0.E0,-1.3608E0));
#1343=LINE('',#1342,#1341);
#1344=DIRECTION('',(0.E0,1.E0,0.E0));
#1345=VECTOR('',#1344,9.072E-3);
#1346=CARTESIAN_POINT('',(9.072E-3,0.E0,-1.3608E0));
#1347=LINE('',#1346,#1345);
#1348=DIRECTION('',(0.E0,1.E0,0.E0));
#1349=VECTOR('',#1348,9.072E-3);
#1350=CARTESIAN_POINT('',(6.804E-1,0.E0,-6.89472E-1));
#1351=LINE('',#1350,#1349);
#1352=DIRECTION('',(0.E0,1.E0,0.E0));
#1353=VECTOR('',#1352,9.072E-3);
#1354=CARTESIAN_POINT('',(6.804E-1,0.E0,6.89472E-1));
#1355=LINE('',#1354,#1353);
#1356=DIRECTION('',(0.E0,1.E0,0.E0));
#1357=VECTOR('',#1356,9.072E-3);
#1358=CARTESIAN_POINT('',(9.072E-3,0.E0,1.3608E0));
#1359=LINE('',#1358,#1357);
#1360=DIRECTION('',(0.E0,1.E0,0.E0));
#1361=VECTOR('',#1360,9.072E-3);
#1362=CARTESIAN_POINT('',(-9.072E-3,0.E0,1.3608E0));
#1363=LINE('',#1362,#1361);
#1364=DIRECTION('',(0.E0,1.E0,0.E0));
#1365=VECTOR('',#1364,9.072E-3);
#1366=CARTESIAN_POINT('',(-6.804E-1,0.E0,6.89472E-1));
#1367=LINE('',#1366,#1365);
#1368=DIRECTION('',(0.E0,1.E0,0.E0));
#1369=VECTOR('',#1368,9.072E-3);
#1370=CARTESIAN_POINT('',(-6.804E-1,0.E0,-6.89472E-1));
#1371=LINE('',#1370,#1369);
#1372=CARTESIAN_POINT('',(-9.072E-3,9.072E-3,-6.89472E-1));
#1373=DIRECTION('',(0.E0,1.E0,0.E0));
#1374=DIRECTION('',(0.E0,0.E0,-1.E0));
#1375=AXIS2_PLACEMENT_3D('',#1372,#1373,#1374);
#1377=DIRECTION('',(-1.E0,0.E0,0.E0));
#1378=VECTOR('',#1377,1.8144E-2);
#1379=CARTESIAN_POINT('',(9.072E-3,9.072E-3,-1.3608E0));
#1380=LINE('',#1379,#1378);
#1381=CARTESIAN_POINT('',(9.072E-3,9.072E-3,-6.89472E-1));
#1382=DIRECTION('',(0.E0,1.E0,0.E0));
#1383=DIRECTION('',(1.E0,0.E0,0.E0));
#1384=AXIS2_PLACEMENT_3D('',#1381,#1382,#1383);
#1386=DIRECTION('',(0.E0,0.E0,-1.E0));
#1387=VECTOR('',#1386,1.378944E0);
#1388=CARTESIAN_POINT('',(6.804E-1,9.072E-3,6.89472E-1));
#1389=LINE('',#1388,#1387);
#1390=CARTESIAN_POINT('',(9.072E-3,9.072E-3,6.89472E-1));
#1391=DIRECTION('',(0.E0,1.E0,0.E0));
#1392=DIRECTION('',(0.E0,0.E0,1.E0));
#1393=AXIS2_PLACEMENT_3D('',#1390,#1391,#1392);
#1395=DIRECTION('',(1.E0,0.E0,0.E0));
#1396=VECTOR('',#1395,1.8144E-2);
#1397=CARTESIAN_POINT('',(-9.072E-3,9.072E-3,1.3608E0));
#1398=LINE('',#1397,#1396);
#1399=CARTESIAN_POINT('',(-9.072E-3,9.072E-3,6.89472E-1));
#1400=DIRECTION('',(0.E0,1.E0,0.E0));
#1401=DIRECTION('',(-1.E0,0.E0,0.E0));
#1402=AXIS2_PLACEMENT_3D('',#1399,#1400,#1401);
#1404=DIRECTION('',(0.E0,0.E0,1.E0));
#1405=VECTOR('',#1404,1.378944E0);
#1406=CARTESIAN_POINT('',(-6.804E-1,9.072E-3,-6.89472E-1));
#1407=LINE('',#1406,#1405);
#1408=DIRECTION('',(1.E0,0.E0,0.E0));
#1409=VECTOR('',#1408,3.229714357993E-3);
#1410=CARTESIAN_POINT('',(-1.614857178996E-3,9.072E-3,-9.893949743223E-1));
#1411=LINE('',#1410,#1409);
#1412=CARTESIAN_POINT('',(-1.614857178996E-3,9.072E-3,-5.811549743223E-1));
#1413=DIRECTION('',(0.E0,-1.E0,0.E0));
#1414=DIRECTION('',(-1.E0,0.E0,0.E0));
#1415=AXIS2_PLACEMENT_3D('',#1412,#1413,#1414);
#1417=DIRECTION('',(0.E0,0.E0,-1.E0));
#1418=VECTOR('',#1417,1.162309948645E0);
#1419=CARTESIAN_POINT('',(-4.098548571790E-1,9.072E-3,5.811549743223E-1));
#1420=LINE('',#1419,#1418);
#1421=CARTESIAN_POINT('',(-1.614857178996E-3,9.072E-3,5.811549743223E-1));
#1422=DIRECTION('',(0.E0,-1.E0,0.E0));
#1423=DIRECTION('',(0.E0,0.E0,1.E0));
#1424=AXIS2_PLACEMENT_3D('',#1421,#1422,#1423);
#1426=DIRECTION('',(-1.E0,0.E0,0.E0));
#1427=VECTOR('',#1426,3.229714357993E-3);
#1428=CARTESIAN_POINT('',(1.614857178996E-3,9.072E-3,9.893949743223E-1));
#1429=LINE('',#1428,#1427);
#1430=CARTESIAN_POINT('',(1.614857178996E-3,9.072E-3,5.811549743223E-1));
#1431=DIRECTION('',(0.E0,-1.E0,0.E0));
#1432=DIRECTION('',(1.E0,0.E0,0.E0));
#1433=AXIS2_PLACEMENT_3D('',#1430,#1431,#1432);
#1435=DIRECTION('',(0.E0,0.E0,1.E0));
#1436=VECTOR('',#1435,1.162309948645E0);
#1437=CARTESIAN_POINT('',(4.098548571790E-1,9.072E-3,-5.811549743223E-1));
#1438=LINE('',#1437,#1436);
#1439=CARTESIAN_POINT('',(1.614857178996E-3,9.072E-3,-5.811549743223E-1));
#1440=DIRECTION('',(0.E0,-1.E0,0.E0));
#1441=DIRECTION('',(0.E0,0.E0,-1.E0));
#1442=AXIS2_PLACEMENT_3D('',#1439,#1440,#1441);
#1444=DIRECTION('',(0.E0,1.E0,0.E0));
#1445=VECTOR('',#1444,9.072E-3);
#1446=CARTESIAN_POINT('',(-1.614857178996E-3,0.E0,-9.893949743223E-1));
#1447=LINE('',#1446,#1445);
#1448=DIRECTION('',(0.E0,1.E0,0.E0));
#1449=VECTOR('',#1448,9.072E-3);
#1450=CARTESIAN_POINT('',(-4.098548571790E-1,0.E0,-5.811549743223E-1));
#1451=LINE('',#1450,#1449);
#1452=DIRECTION('',(0.E0,1.E0,0.E0));
#1453=VECTOR('',#1452,9.072E-3);
#1454=CARTESIAN_POINT('',(-4.098548571790E-1,0.E0,5.811549743223E-1));
#1455=LINE('',#1454,#1453);
#1456=DIRECTION('',(0.E0,1.E0,0.E0));
#1457=VECTOR('',#1456,9.072E-3);
#1458=CARTESIAN_POINT('',(-1.614857178996E-3,0.E0,9.893949743223E-1));
#1459=LINE('',#1458,#1457);
#1460=DIRECTION('',(0.E0,1.E0,0.E0));
#1461=VECTOR('',#1460,9.072E-3);
#1462=CARTESIAN_POINT('',(1.614857178996E-3,0.E0,9.893949743223E-1));
#1463=LINE('',#1462,#1461);
#1464=DIRECTION('',(0.E0,1.E0,0.E0));
#1465=VECTOR('',#1464,9.072E-3);
#1466=CARTESIAN_POINT('',(4.098548571790E-1,0.E0,5.811549743223E-1));
#1467=LINE('',#1466,#1465);
#1468=DIRECTION('',(0.E0,1.E0,0.E0));
#1469=VECTOR('',#1468,9.072E-3);
#1470=CARTESIAN_POINT('',(4.098548571790E-1,0.E0,-5.811549743223E-1));
#1471=LINE('',#1470,#1469);
#1472=DIRECTION('',(0.E0,1.E0,0.E0));
#1473=VECTOR('',#1472,9.072E-3);
#1474=CARTESIAN_POINT('',(1.614857178996E-3,0.E0,-9.893949743223E-1));
#1475=LINE('',#1474,#1473);
#1476=CARTESIAN_POINT('',(-9.072E-3,0.E0,-1.3608E0));
#1477=CARTESIAN_POINT('',(-6.804E-1,0.E0,-6.89472E-1));
#1478=VERTEX_POINT('',#1476);
#1479=VERTEX_POINT('',#1477);
#1480=CARTESIAN_POINT('',(-6.804E-1,0.E0,6.89472E-1));
#1481=VERTEX_POINT('',#1480);
#1482=CARTESIAN_POINT('',(-9.072E-3,0.E0,1.3608E0));
#1483=VERTEX_POINT('',#1482);
#1484=CARTESIAN_POINT('',(9.072E-3,0.E0,1.3608E0));
#1485=VERTEX_POINT('',#1484);
#1486=CARTESIAN_POINT('',(6.804E-1,0.E0,6.89472E-1));
#1487=VERTEX_POINT('',#1486);
#1488=CARTESIAN_POINT('',(6.804E-1,0.E0,-6.89472E-1));
#1489=VERTEX_POINT('',#1488);
#1490=CARTESIAN_POINT('',(9.072E-3,0.E0,-1.3608E0));
#1491=VERTEX_POINT('',#1490);
#1492=CARTESIAN_POINT('',(-1.614857178996E-3,0.E0,-9.893949743223E-1));
#1493=CARTESIAN_POINT('',(1.614857178996E-3,0.E0,-9.893949743223E-1));
#1494=VERTEX_POINT('',#1492);
#1495=VERTEX_POINT('',#1493);
#1496=CARTESIAN_POINT('',(4.098548571790E-1,0.E0,-5.811549743223E-1));
#1497=VERTEX_POINT('',#1496);
#1498=CARTESIAN_POINT('',(4.098548571790E-1,0.E0,5.811549743223E-1));
#1499=VERTEX_POINT('',#1498);
#1500=CARTESIAN_POINT('',(1.614857178996E-3,0.E0,9.893949743223E-1));
#1501=VERTEX_POINT('',#1500);
#1502=CARTESIAN_POINT('',(-1.614857178996E-3,0.E0,9.893949743223E-1));
#1503=VERTEX_POINT('',#1502);
#1504=CARTESIAN_POINT('',(-4.098548571790E-1,0.E0,5.811549743223E-1));
#1505=VERTEX_POINT('',#1504);
#1506=CARTESIAN_POINT('',(-4.098548571790E-1,0.E0,-5.811549743223E-1));
#1507=VERTEX_POINT('',#1506);
#1508=CARTESIAN_POINT('',(-9.072E-3,9.072E-3,-1.3608E0));
#1509=CARTESIAN_POINT('',(-6.804E-1,9.072E-3,-6.89472E-1));
#1510=VERTEX_POINT('',#1508);
#1511=VERTEX_POINT('',#1509);
#1512=CARTESIAN_POINT('',(-6.804E-1,9.072E-3,6.89472E-1));
#1513=VERTEX_POINT('',#1512);
#1514=CARTESIAN_POINT('',(-9.072E-3,9.072E-3,1.3608E0));
#1515=VERTEX_POINT('',#1514);
#1516=CARTESIAN_POINT('',(9.072E-3,9.072E-3,1.3608E0));
#1517=VERTEX_POINT('',#1516);
#1518=CARTESIAN_POINT('',(6.804E-1,9.072E-3,6.89472E-1));
#1519=VERTEX_POINT('',#1518);
#1520=CARTESIAN_POINT('',(6.804E-1,9.072E-3,-6.89472E-1));
#1521=VERTEX_POINT('',#1520);
#1522=CARTESIAN_POINT('',(9.072E-3,9.072E-3,-1.3608E0));
#1523=VERTEX_POINT('',#1522);
#1524=CARTESIAN_POINT('',(-1.614857178996E-3,9.072E-3,-9.893949743223E-1));
#1525=CARTESIAN_POINT('',(1.614857178996E-3,9.072E-3,-9.893949743223E-1));
#1526=VERTEX_POINT('',#1524);
#1527=VERTEX_POINT('',#1525);
#1528=CARTESIAN_POINT('',(4.098548571790E-1,9.072E-3,-5.811549743223E-1));
#1529=VERTEX_POINT('',#1528);
#1530=CARTESIAN_POINT('',(4.098548571790E-1,9.072E-3,5.811549743223E-1));
#1531=VERTEX_POINT('',#1530);
#1532=CARTESIAN_POINT('',(1.614857178996E-3,9.072E-3,9.893949743223E-1));
#1533=VERTEX_POINT('',#1532);
#1534=CARTESIAN_POINT('',(-1.614857178996E-3,9.072E-3,9.893949743223E-1));
#1535=VERTEX_POINT('',#1534);
#1536=CARTESIAN_POINT('',(-4.098548571790E-1,9.072E-3,5.811549743223E-1));
#1537=VERTEX_POINT('',#1536);
#1538=CARTESIAN_POINT('',(-4.098548571790E-1,9.072E-3,-5.811549743223E-1));
#1539=VERTEX_POINT('',#1538);
#1540=CARTESIAN_POINT('',(0.E0,0.E0,0.E0));
#1541=DIRECTION('',(0.E0,1.E0,0.E0));
#1542=DIRECTION('',(1.E0,0.E0,0.E0));
#1543=AXIS2_PLACEMENT_3D('',#1540,#1541,#1542);
#1544=PLANE('',#1543);
#1546=ORIENTED_EDGE('',*,*,#1545,.T.);
#1548=ORIENTED_EDGE('',*,*,#1547,.T.);
#1550=ORIENTED_EDGE('',*,*,#1549,.T.);
#1552=ORIENTED_EDGE('',*,*,#1551,.T.);
#1554=ORIENTED_EDGE('',*,*,#1553,.T.);
#1556=ORIENTED_EDGE('',*,*,#1555,.T.);
#1558=ORIENTED_EDGE('',*,*,#1557,.T.);
#1560=ORIENTED_EDGE('',*,*,#1559,.T.);
#1561=EDGE_LOOP('',(#1546,#1548,#1550,#1552,#1554,#1556,#1558,#1560));
#1562=FACE_OUTER_BOUND('',#1561,.F.);
#1564=ORIENTED_EDGE('',*,*,#1563,.T.);
#1566=ORIENTED_EDGE('',*,*,#1565,.T.);
#1568=ORIENTED_EDGE('',*,*,#1567,.T.);
#1570=ORIENTED_EDGE('',*,*,#1569,.T.);
#1572=ORIENTED_EDGE('',*,*,#1571,.T.);
#1574=ORIENTED_EDGE('',*,*,#1573,.T.);
#1576=ORIENTED_EDGE('',*,*,#1575,.T.);
#1578=ORIENTED_EDGE('',*,*,#1577,.T.);
#1579=EDGE_LOOP('',(#1564,#1566,#1568,#1570,#1572,#1574,#1576,#1578));
#1580=FACE_BOUND('',#1579,.F.);
#1582=FILL_AREA_STYLE_COLOUR('',#8);
#1583=FILL_AREA_STYLE('',(#1582));
#1584=SURFACE_STYLE_FILL_AREA(#1583);
#1585=SURFACE_SIDE_STYLE('',(#1584));
#1586=SURFACE_STYLE_USAGE(.BOTH.,#1585);
#1587=PRESENTATION_STYLE_ASSIGNMENT((#1586));
#1588=STYLED_ITEM('',(#1587),#1581);
#1589=CARTESIAN_POINT('',(-9.072E-3,0.E0,-6.89472E-1));
#1590=DIRECTION('',(0.E0,1.E0,0.E0));
#1591=DIRECTION('',(1.E0,0.E0,0.E0));
#1592=AXIS2_PLACEMENT_3D('',#1589,#1590,#1591);
#1593=CYLINDRICAL_SURFACE('',#1592,6.71328E-1);
#1594=ORIENTED_EDGE('',*,*,#1545,.F.);
#1596=ORIENTED_EDGE('',*,*,#1595,.T.);
#1598=ORIENTED_EDGE('',*,*,#1597,.T.);
#1600=ORIENTED_EDGE('',*,*,#1599,.F.);
#1601=EDGE_LOOP('',(#1594,#1596,#1598,#1600));
#1602=FACE_OUTER_BOUND('',#1601,.F.);
#1604=CARTESIAN_POINT('',(9.072E-3,0.E0,-1.3608E0));
#1605=DIRECTION('',(0.E0,0.E0,-1.E0));
#1606=DIRECTION('',(-1.E0,0.E0,0.E0));
#1607=AXIS2_PLACEMENT_3D('',#1604,#1605,#1606);
#1608=PLANE('',#1607);
#1609=ORIENTED_EDGE('',*,*,#1559,.F.);
#1611=ORIENTED_EDGE('',*,*,#1610,.T.);
#1613=ORIENTED_EDGE('',*,*,#1612,.T.);
#1614=ORIENTED_EDGE('',*,*,#1595,.F.);
#1615=EDGE_LOOP('',(#1609,#1611,#1613,#1614));
#1616=FACE_OUTER_BOUND('',#1615,.F.);
#1618=CARTESIAN_POINT('',(9.072E-3,0.E0,-6.89472E-1));
#1619=DIRECTION('',(0.E0,1.E0,0.E0));
#1620=DIRECTION('',(1.E0,0.E0,0.E0));
#1621=AXIS2_PLACEMENT_3D('',#1618,#1619,#1620);
#1622=CYLINDRICAL_SURFACE('',#1621,6.71328E-1);
#1623=ORIENTED_EDGE('',*,*,#1557,.F.);
#1625=ORIENTED_EDGE('',*,*,#1624,.T.);
#1627=ORIENTED_EDGE('',*,*,#1626,.T.);
#1628=ORIENTED_EDGE('',*,*,#1610,.F.);
#1629=EDGE_LOOP('',(#1623,#1625,#1627,#1628));
#1630=FACE_OUTER_BOUND('',#1629,.F.);
#1632=CARTESIAN_POINT('',(6.804E-1,0.E0,6.89472E-1));
#1633=DIRECTION('',(1.E0,0.E0,0.E0));
#1634=DIRECTION('',(0.E0,0.E0,-1.E0));
#1635=AXIS2_PLACEMENT_3D('',#1632,#1633,#1634);
#1636=PLANE('',#1635);
#1637=ORIENTED_EDGE('',*,*,#1555,.F.);
#1639=ORIENTED_EDGE('',*,*,#1638,.T.);
#1641=ORIENTED_EDGE('',*,*,#1640,.T.);
#1642=ORIENTED_EDGE('',*,*,#1624,.F.);
#1643=EDGE_LOOP('',(#1637,#1639,#1641,#1642));
#1644=FACE_OUTER_BOUND('',#1643,.F.);
#1646=CARTESIAN_POINT('',(9.072E-3,0.E0,6.89472E-1));
#1647=DIRECTION('',(0.E0,1.E0,0.E0));
#1648=DIRECTION('',(1.E0,0.E0,0.E0));
#1649=AXIS2_PLACEMENT_3D('',#1646,#1647,#1648);
#1650=CYLINDRICAL_SURFACE('',#1649,6.71328E-1);
#1651=ORIENTED_EDGE('',*,*,#1553,.F.);
#1653=ORIENTED_EDGE('',*,*,#1652,.T.);
#1655=ORIENTED_EDGE('',*,*,#1654,.T.);
#1656=ORIENTED_EDGE('',*,*,#1638,.F.);
#1657=EDGE_LOOP('',(#1651,#1653,#1655,#1656));
#1658=FACE_OUTER_BOUND('',#1657,.F.);
#1660=CARTESIAN_POINT('',(-9.072E-3,0.E0,1.3608E0));
#1661=DIRECTION('',(0.E0,0.E0,1.E0));
#1662=DIRECTION('',(1.E0,0.E0,0.E0));
#1663=AXIS2_PLACEMENT_3D('',#1660,#1661,#1662);
#1664=PLANE('',#1663);
#1665=ORIENTED_EDGE('',*,*,#1551,.F.);
#1667=ORIENTED_EDGE('',*,*,#1666,.T.);
#1669=ORIENTED_EDGE('',*,*,#1668,.T.);
#1670=ORIENTED_EDGE('',*,*,#1652,.F.);
#1671=EDGE_LOOP('',(#1665,#1667,#1669,#1670));
#1672=FACE_OUTER_BOUND('',#1671,.F.);
#1674=CARTESIAN_POINT('',(-9.072E-3,0.E0,6.89472E-1));
#1675=DIRECTION('',(0.E0,1.E0,0.E0));
#1676=DIRECTION('',(1.E0,0.E0,0.E0));
#1677=AXIS2_PLACEMENT_3D('',#1674,#1675,#1676);
#1678=CYLINDRICAL_SURFACE('',#1677,6.71328E-1);
#1679=ORIENTED_EDGE('',*,*,#1549,.F.);
#1681=ORIENTED_EDGE('',*,*,#1680,.T.);
#1683=ORIENTED_EDGE('',*,*,#1682,.T.);
#1684=ORIENTED_EDGE('',*,*,#1666,.F.);
#1685=EDGE_LOOP('',(#1679,#1681,#1683,#1684));
#1686=FACE_OUTER_BOUND('',#1685,.F.);
#1688=CARTESIAN_POINT('',(-6.804E-1,0.E0,-6.89472E-1));
#1689=DIRECTION('',(-1.E0,0.E0,0.E0));
#1690=DIRECTION('',(0.E0,0.E0,1.E0));
#1691=AXIS2_PLACEMENT_3D('',#1688,#1689,#1690);
#1692=PLANE('',#1691);
#1693=ORIENTED_EDGE('',*,*,#1547,.F.);
#1694=ORIENTED_EDGE('',*,*,#1599,.T.);
#1696=ORIENTED_EDGE('',*,*,#1695,.T.);
#1697=ORIENTED_EDGE('',*,*,#1680,.F.);
#1698=EDGE_LOOP('',(#1693,#1694,#1696,#1697));
#1699=FACE_OUTER_BOUND('',#1698,.F.);
#1701=CARTESIAN_POINT('',(0.E0,9.072E-3,0.E0));
#1702=DIRECTION('',(0.E0,1.E0,0.E0));
#1703=DIRECTION('',(1.E0,0.E0,0.E0));
#1704=AXIS2_PLACEMENT_3D('',#1701,#1702,#1703);
#1705=PLANE('',#1704);
#1706=ORIENTED_EDGE('',*,*,#1597,.F.);
#1707=ORIENTED_EDGE('',*,*,#1612,.F.);
#1708=ORIENTED_EDGE('',*,*,#1626,.F.);
#1709=ORIENTED_EDGE('',*,*,#1640,.F.);
#1710=ORIENTED_EDGE('',*,*,#1654,.F.);
#1711=ORIENTED_EDGE('',*,*,#1668,.F.);
#1712=ORIENTED_EDGE('',*,*,#1682,.F.);
#1713=ORIENTED_EDGE('',*,*,#1695,.F.);
#1714=EDGE_LOOP('',(#1706,#1707,#1708,#1709,#1710,#1711,#1712,#1713));
#1715=FACE_OUTER_BOUND('',#1714,.F.);
#1717=ORIENTED_EDGE('',*,*,#1716,.F.);
#1719=ORIENTED_EDGE('',*,*,#1718,.F.);
#1721=ORIENTED_EDGE('',*,*,#1720,.F.);
#1723=ORIENTED_EDGE('',*,*,#1722,.F.);
#1725=ORIENTED_EDGE('',*,*,#1724,.F.);
#1727=ORIENTED_EDGE('',*,*,#1726,.F.);
#1729=ORIENTED_EDGE('',*,*,#1728,.F.);
#1731=ORIENTED_EDGE('',*,*,#1730,.F.);
#1732=EDGE_LOOP('',(#1717,#1719,#1721,#1723,#1725,#1727,#1729,#1731));
#1733=FACE_BOUND('',#1732,.F.);
#1735=FILL_AREA_STYLE_COLOUR('',#13);
#1736=FILL_AREA_STYLE('',(#1735));
#1737=SURFACE_STYLE_FILL_AREA(#1736);
#1738=SURFACE_SIDE_STYLE('',(#1737));
#1739=SURFACE_STYLE_USAGE(.POSITIVE.,#1738);
#1740=PRESENTATION_STYLE_ASSIGNMENT((#1739));
#1741=STYLED_ITEM('',(#1740),#1734);
#1742=CARTESIAN_POINT('',(-1.614857178996E-3,0.E0,-9.893949743223E-1));
#1743=DIRECTION('',(0.E0,0.E0,1.E0));
#1744=DIRECTION('',(1.E0,0.E0,0.E0));
#1745=AXIS2_PLACEMENT_3D('',#1742,#1743,#1744);
#1746=PLANE('',#1745);
#1747=ORIENTED_EDGE('',*,*,#1563,.F.);
#1749=ORIENTED_EDGE('',*,*,#1748,.T.);
#1750=ORIENTED_EDGE('',*,*,#1716,.T.);
#1752=ORIENTED_EDGE('',*,*,#1751,.F.);
#1753=EDGE_LOOP('',(#1747,#1749,#1750,#1752));
#1754=FACE_OUTER_BOUND('',#1753,.F.);
#1756=CARTESIAN_POINT('',(-1.614857178996E-3,0.E0,-5.811549743223E-1));
#1757=DIRECTION('',(0.E0,1.E0,0.E0));
#1758=DIRECTION('',(1.E0,0.E0,0.E0));
#1759=AXIS2_PLACEMENT_3D('',#1756,#1757,#1758);
#1760=CYLINDRICAL_SURFACE('',#1759,4.0824E-1);
#1761=ORIENTED_EDGE('',*,*,#1577,.F.);
#1763=ORIENTED_EDGE('',*,*,#1762,.T.);
#1764=ORIENTED_EDGE('',*,*,#1718,.T.);
#1765=ORIENTED_EDGE('',*,*,#1748,.F.);
#1766=EDGE_LOOP('',(#1761,#1763,#1764,#1765));
#1767=FACE_OUTER_BOUND('',#1766,.F.);
#1769=CARTESIAN_POINT('',(-4.098548571790E-1,0.E0,5.811549743223E-1));
#1770=DIRECTION('',(1.E0,0.E0,0.E0));
#1771=DIRECTION('',(0.E0,0.E0,-1.E0));
#1772=AXIS2_PLACEMENT_3D('',#1769,#1770,#1771);
#1773=PLANE('',#1772);
#1774=ORIENTED_EDGE('',*,*,#1575,.F.);
#1776=ORIENTED_EDGE('',*,*,#1775,.T.);
#1777=ORIENTED_EDGE('',*,*,#1720,.T.);
#1778=ORIENTED_EDGE('',*,*,#1762,.F.);
#1779=EDGE_LOOP('',(#1774,#1776,#1777,#1778));
#1780=FACE_OUTER_BOUND('',#1779,.F.);
#1782=CARTESIAN_POINT('',(-1.614857178996E-3,0.E0,5.811549743223E-1));
#1783=DIRECTION('',(0.E0,1.E0,0.E0));
#1784=DIRECTION('',(1.E0,0.E0,0.E0));
#1785=AXIS2_PLACEMENT_3D('',#1782,#1783,#1784);
#1786=CYLINDRICAL_SURFACE('',#1785,4.0824E-1);
#1787=ORIENTED_EDGE('',*,*,#1573,.F.);
#1789=ORIENTED_EDGE('',*,*,#1788,.T.);
#1790=ORIENTED_EDGE('',*,*,#1722,.T.);
#1791=ORIENTED_EDGE('',*,*,#1775,.F.);
#1792=EDGE_LOOP('',(#1787,#1789,#1790,#1791));
#1793=FACE_OUTER_BOUND('',#1792,.F.);
#1795=CARTESIAN_POINT('',(1.614857178996E-3,0.E0,9.893949743223E-1));
#1796=DIRECTION('',(0.E0,0.E0,-1.E0));
#1797=DIRECTION('',(-1.E0,0.E0,0.E0));
#1798=AXIS2_PLACEMENT_3D('',#1795,#1796,#1797);
#1799=PLANE('',#1798);
#1800=ORIENTED_EDGE('',*,*,#1571,.F.);
#1802=ORIENTED_EDGE('',*,*,#1801,.T.);
#1803=ORIENTED_EDGE('',*,*,#1724,.T.);
#1804=ORIENTED_EDGE('',*,*,#1788,.F.);
#1805=EDGE_LOOP('',(#1800,#1802,#1803,#1804));
#1806=FACE_OUTER_BOUND('',#1805,.F.);
#1808=CARTESIAN_POINT('',(1.614857178996E-3,0.E0,5.811549743223E-1));
#1809=DIRECTION('',(0.E0,1.E0,0.E0));
#1810=DIRECTION('',(1.E0,0.E0,0.E0));
#1811=AXIS2_PLACEMENT_3D('',#1808,#1809,#1810);
#1812=CYLINDRICAL_SURFACE('',#1811,4.0824E-1);
#1813=ORIENTED_EDGE('',*,*,#1569,.F.);
#1815=ORIENTED_EDGE('',*,*,#1814,.T.);
#1816=ORIENTED_EDGE('',*,*,#1726,.T.);
#1817=ORIENTED_EDGE('',*,*,#1801,.F.);
#1818=EDGE_LOOP('',(#1813,#1815,#1816,#1817));
#1819=FACE_OUTER_BOUND('',#1818,.F.);
#1821=CARTESIAN_POINT('',(4.098548571790E-1,0.E0,-5.811549743223E-1));
#1822=DIRECTION('',(-1.E0,0.E0,0.E0));
#1823=DIRECTION('',(0.E0,0.E0,1.E0));
#1824=AXIS2_PLACEMENT_3D('',#1821,#1822,#1823);
#1825=PLANE('',#1824);
#1826=ORIENTED_EDGE('',*,*,#1567,.F.);
#1828=ORIENTED_EDGE('',*,*,#1827,.T.);
#1829=ORIENTED_EDGE('',*,*,#1728,.T.);
#1830=ORIENTED_EDGE('',*,*,#1814,.F.);
#1831=EDGE_LOOP('',(#1826,#1828,#1829,#1830));
#1832=FACE_OUTER_BOUND('',#1831,.F.);
#1834=CARTESIAN_POINT('',(1.614857178996E-3,0.E0,-5.811549743223E-1));
#1835=DIRECTION('',(0.E0,1.E0,0.E0));
#1836=DIRECTION('',(1.E0,0.E0,0.E0));
#1837=AXIS2_PLACEMENT_3D('',#1834,#1835,#1836);
#1838=CYLINDRICAL_SURFACE('',#1837,4.0824E-1);
#1839=ORIENTED_EDGE('',*,*,#1565,.F.);
#1840=ORIENTED_EDGE('',*,*,#1751,.T.);
#1841=ORIENTED_EDGE('',*,*,#1730,.T.);
#1842=ORIENTED_EDGE('',*,*,#1827,.F.);
#1843=EDGE_LOOP('',(#1839,#1840,#1841,#1842));
#1844=FACE_OUTER_BOUND('',#1843,.F.);
#1846=CLOSED_SHELL('',(#1581,#1603,#1617,#1631,#1645,#1659,#1673,#1687,#1700,
#1734,#1755,#1768,#1781,#1794,#1807,#1820,#1833,#1845));
#1847=MANIFOLD_SOLID_BREP('',#1846);
#1850=PLANE_ANGLE_MEASURE_WITH_UNIT(PLANE_ANGLE_MEASURE(1.745329251994E-2),
#1849);
#1851=(CONVERSION_BASED_UNIT('DEGREE',#1850)NAMED_UNIT(*)PLANE_ANGLE_UNIT());
#1853=UNCERTAINTY_MEASURE_WITH_UNIT(LENGTH_MEASURE(3.346991549143E-4),#1848,
'distance_accuracy_value',
'Maximum model space distance between geometric entities at asserted connectivities');
#1855=CARTESIAN_POINT('',(0.E0,0.E0,0.E0));
#1856=DIRECTION('',(0.E0,0.E0,1.E0));
#1857=DIRECTION('',(1.E0,0.E0,0.E0));
#1860=PRODUCT_DEFINITION_CONTEXT('part definition',#970,'design');
#1861=PRODUCT_CONTEXT('',#970,'mechanical');
#1862=PRODUCT('YUAN08000900','YUAN08000900','NOT SPECIFIED',(#1861));
#1863=PRODUCT_DEFINITION_FORMATION('12','LAST_VERSION',#1862);
#1871=DERIVED_UNIT_ELEMENT(#1870,2.E0);
#1872=DERIVED_UNIT((#1871));
#1873=MEASURE_REPRESENTATION_ITEM('surface area measure',AREA_MEASURE(
3.783460617847E0),#1872);
#1878=DERIVED_UNIT_ELEMENT(#1877,3.E0);
#1879=DERIVED_UNIT((#1878));
#1880=MEASURE_REPRESENTATION_ITEM('volume measure',VOLUME_MEASURE(
1.667174042949E-2),#1879);
#1884=CARTESIAN_POINT('centre point',(0.E0,4.536E-3,0.E0));
#1889=DERIVED_UNIT_ELEMENT(#1888,2.E0);
#1890=DERIVED_UNIT((#1889));
#1891=MEASURE_REPRESENTATION_ITEM('surface area measure',AREA_MEASURE(
3.783460617847E0),#1890);
#1896=DERIVED_UNIT_ELEMENT(#1895,3.E0);
#1897=DERIVED_UNIT((#1896));
#1898=MEASURE_REPRESENTATION_ITEM('volume measure',VOLUME_MEASURE(
1.667174042949E-2),#1897);
#1902=CARTESIAN_POINT('centre point',(0.E0,4.536E-3,0.E0));
#1909=CARTESIAN_POINT('centre point',(3.952956234231E0,3.774495539414E1,
1.320846101759E-2));
#1913=CARTESIAN_POINT('',(3.953104253808E0,3.774495539414E1,1.774204527343E-2));
#1914=DIRECTION('',(-1.133926471902E-3,-9.999993564198E-1,3.702221180490E-5));
#1915=DIRECTION('',(-9.994667853004E-1,1.134530690570E-3,3.263216084526E-2));
#1916=AXIS2_PLACEMENT_3D('',#1913,#1914,#1915);
#1917=ITEM_DEFINED_TRANSFORMATION('','',#1858,#1916);
#1918=(REPRESENTATION_RELATIONSHIP('','',#1859,#1021)REPRESENTATION_RELATIONSHIP_WITH_TRANSFORMATION(#1917)SHAPE_REPRESENTATION_RELATIONSHIP());
#1919=CONTEXT_DEPENDENT_SHAPE_REPRESENTATION(#1918,#1908);
#1922=CARTESIAN_POINT('centre point',(3.947869530689E0,3.325903818946E1,
1.337453970136E-2));
#1926=CARTESIAN_POINT('',(3.948017550265E0,3.325903818946E1,1.790812395721E-2));
#1927=DIRECTION('',(-1.133926471900E-3,-9.999993564198E-1,3.702221180524E-5));
#1928=DIRECTION('',(-9.994667853004E-1,1.134530690568E-3,3.263216084526E-2));
#1929=AXIS2_PLACEMENT_3D('',#1926,#1927,#1928);
#1930=ITEM_DEFINED_TRANSFORMATION('','',#1858,#1929);
#1931=(REPRESENTATION_RELATIONSHIP('','',#1859,#1021)REPRESENTATION_RELATIONSHIP_WITH_TRANSFORMATION(#1930)SHAPE_REPRESENTATION_RELATIONSHIP());
#1932=CONTEXT_DEPENDENT_SHAPE_REPRESENTATION(#1931,#1921);
#1935=CARTESIAN_POINT('centre point',(3.942924311658E0,2.889789487894E1,
1.353599897663E-2));
#1939=CARTESIAN_POINT('',(3.943072331235E0,2.889789487894E1,1.806958323248E-2));
#1940=DIRECTION('',(-1.133926471900E-3,-9.999993564198E-1,3.702221180524E-5));
#1941=DIRECTION('',(-9.994667853004E-1,1.134530690568E-3,3.263216084526E-2));
#1942=AXIS2_PLACEMENT_3D('',#1939,#1940,#1941);
#1943=ITEM_DEFINED_TRANSFORMATION('','',#1858,#1942);
#1944=(REPRESENTATION_RELATIONSHIP('','',#1859,#1021)REPRESENTATION_RELATIONSHIP_WITH_TRANSFORMATION(#1943)SHAPE_REPRESENTATION_RELATIONSHIP());
#1945=CONTEXT_DEPENDENT_SHAPE_REPRESENTATION(#1944,#1934);
#1948=PLANE_ANGLE_MEASURE_WITH_UNIT(PLANE_ANGLE_MEASURE(1.745329251994E-2),
#1947);
#1949=(CONVERSION_BASED_UNIT('DEGREE',#1948)NAMED_UNIT(*)PLANE_ANGLE_UNIT());
#1951=UNCERTAINTY_MEASURE_WITH_UNIT(LENGTH_MEASURE(4.244187411553E-3),#1946,
'distance_accuracy_value',
'Maximum model space distance between geometric entities at asserted connectivities');
#1953=CARTESIAN_POINT('',(0.E0,0.E0,0.E0));
#1954=DIRECTION('',(0.E0,0.E0,1.E0));
#1955=DIRECTION('',(1.E0,0.E0,0.E0));
#1957=MECHANICAL_DESIGN_GEOMETRIC_PRESENTATION_REPRESENTATION('',(#392,#414,
#437,#459,#481,#502,#524,#547,#572,#592,#617,#637,#660,#679,#698,#721,#766,#788,
#808,#837,#859,#879,#896,#918,#938,#955,#1169,#1588,#1741),#1952);
#1958=PRODUCT_CONTEXT('',#970,'mechanical');
#1959=PRODUCT('08001600_ASM','08001600_ASM','NOT SPECIFIED',(#1958));
#1960=PRODUCT_DEFINITION_FORMATION('1','LAST_VERSION',#1959);
#1963=DERIVED_UNIT_ELEMENT(#1962,2.E0);
#1964=DERIVED_UNIT((#1963));
#1965=MEASURE_REPRESENTATION_ITEM('surface area measure',AREA_MEASURE(
6.686353377464E2),#1964);
#1970=DERIVED_UNIT_ELEMENT(#1969,3.E0);
#1971=DERIVED_UNIT((#1970));
#1972=MEASURE_REPRESENTATION_ITEM('volume measure',VOLUME_MEASURE(
8.105433598986E2),#1971);
#1976=CARTESIAN_POINT('centre point',(3.999996648863E0,3.264563068541E1,
-4.001964964304E0));
#1980=PRODUCT_RELATED_PRODUCT_CATEGORY('part','',(#1959,#974,#1210,#1862));
#1=DRAUGHTING_PRE_DEFINED_COLOUR('green');
#2=COLOUR_RGB('',1.1E-2,1.2E-2,1.E0);
#3=COLOUR_RGB('',4.1E-1,2.61589E-1,1.12848E-1);
#4=COLOUR_RGB('',5.04854E-1,1.5455E-2,1.5455E-2);
#5=COLOUR_RGB('',6.35294E-1,6.86275E-1,7.4902E-1);
#6=COLOUR_RGB('',6.40777E-1,6.40777E-1,6.40777E-1);
#7=COLOUR_RGB('',6.69062E-1,6.69903E-1,6.55217E-1);
#8=COLOUR_RGB('',7.843137254902E-1,7.843137254902E-1,2.078431372549E-1);
#9=COLOUR_RGB('',9.21569E-1,7.05882E-1,4.70588E-1);
#10=DRAUGHTING_PRE_DEFINED_COLOUR('red');
#11=DRAUGHTING_PRE_DEFINED_COLOUR('yellow');
#12=COLOUR_RGB('',1.E0,1.E0,5.3E-1);
#13=COLOUR_RGB('',1.E0,1.E0,9.49E-1);
#14=DRAUGHTING_PRE_DEFINED_COLOUR('white');
#15=COLOUR_RGB('',1.6E-1,1.6E-1,1.8E-1);
#16=COLOUR_RGB('',2.4E-1,2.5E-1,2.6E-1);
#17=COLOUR_RGB('',8.2E-1,8.1E-1,8.1E-1);
#22=CIRCLE('',#21,3.75E0);
#27=CIRCLE('',#26,3.75E0);
#32=CIRCLE('',#31,2.9E0);
#37=CIRCLE('',#36,2.9E0);
#42=CIRCLE('',#41,2.5E-1);
#47=CIRCLE('',#46,4.E0);
#56=CIRCLE('',#55,4.E0);
#65=CIRCLE('',#64,1.5E-1);
#70=CIRCLE('',#69,1.5E-1);
#75=CIRCLE('',#74,4.E0);
#80=CIRCLE('',#79,4.E0);
#85=CIRCLE('',#84,4.E0);
#94=CIRCLE('',#93,4.E0);
#103=CIRCLE('',#102,4.E0);
#108=CIRCLE('',#107,4.E0);
#113=CIRCLE('',#112,4.E0);
#118=CIRCLE('',#117,3.833333333333E0);
#123=CIRCLE('',#122,5.E-1);
#128=CIRCLE('',#127,5.E-1);
#133=CIRCLE('',#132,2.5E-1);
#138=CIRCLE('',#137,3.833333333333E0);
#143=CIRCLE('',#142,3.833333333333E0);
#148=CIRCLE('',#147,2.5E-1);
#153=CIRCLE('',#152,3.833333333333E0);
#158=CIRCLE('',#157,3.833333333333E0);
#163=CIRCLE('',#162,4.E0);
#168=CIRCLE('',#167,3.833333333333E0);
#173=CIRCLE('',#172,5.E-1);
#178=CIRCLE('',#177,5.E-1);
#183=CIRCLE('',#182,2.5E-1);
#188=CIRCLE('',#187,3.85E0);
#193=CIRCLE('',#192,3.85E0);
#198=CIRCLE('',#197,3.E0);
#203=CIRCLE('',#202,3.E0);
#216=CIRCLE('',#215,3.E0);
#221=CIRCLE('',#220,3.E0);
#234=CIRCLE('',#233,2.9E0);
#239=CIRCLE('',#238,2.9E0);
#244=CIRCLE('',#243,3.E-1);
#249=CIRCLE('',#248,3.E-1);
#254=CIRCLE('',#253,3.E-1);
#259=CIRCLE('',#258,3.E-1);
#272=CIRCLE('',#271,3.E-1);
#277=CIRCLE('',#276,3.E-1);
#290=CIRCLE('',#289,3.E-1);
#295=CIRCLE('',#294,3.E-1);
#373=EDGE_CURVE('',#346,#347,#22,.T.);
#375=EDGE_CURVE('',#347,#346,#27,.T.);
#379=EDGE_CURVE('',#322,#323,#32,.T.);
#381=EDGE_CURVE('',#323,#322,#37,.T.);
#385=ADVANCED_FACE('',(#378,#384),#372,.F.);
#398=EDGE_CURVE('',#342,#343,#56,.T.);
#400=EDGE_CURVE('',#343,#347,#183,.T.);
#403=EDGE_CURVE('',#342,#346,#42,.T.);
#407=ADVANCED_FACE('',(#406),#397,.T.);
#420=EDGE_CURVE('',#298,#299,#47,.T.);
#422=EDGE_CURVE('',#307,#298,#89,.T.);
#424=EDGE_CURVE('',#305,#307,#113,.T.);
#426=EDGE_CURVE('',#305,#299,#51,.T.);
#430=ADVANCED_FACE('',(#429),#419,.T.);
#444=EDGE_CURVE('',#342,#349,#60,.T.);
#446=EDGE_CURVE('',#351,#349,#163,.T.);
#448=EDGE_CURVE('',#343,#351,#98,.T.);
#452=ADVANCED_FACE('',(#451),#442,.T.);
#466=EDGE_CURVE('',#299,#303,#70,.T.);
#468=EDGE_CURVE('',#302,#303,#188,.T.);
#470=EDGE_CURVE('',#298,#302,#65,.T.);
#474=ADVANCED_FACE('',(#473),#464,.T.);
#487=EDGE_CURVE('',#299,#298,#75,.T.);
#490=EDGE_CURVE('',#303,#302,#193,.T.);
#495=ADVANCED_FACE('',(#494),#486,.T.);
#510=EDGE_CURVE('',#355,#305,#80,.T.);
#512=EDGE_CURVE('',#307,#355,#85,.T.);
#517=ADVANCED_FACE('',(#516),#507,.T.);
#530=EDGE_CURVE('',#343,#342,#94,.T.);
#533=EDGE_CURVE('',#357,#351,#103,.T.);
#535=EDGE_CURVE('',#349,#357,#108,.T.);
#540=ADVANCED_FACE('',(#539),#529,.T.);
#554=EDGE_CURVE('',#307,#353,#128,.T.);
#556=EDGE_CURVE('',#315,#353,#153,.T.);
#558=EDGE_CURVE('',#315,#310,#118,.T.);
#560=EDGE_CURVE('',#355,#310,#123,.T.);
#565=ADVANCED_FACE('',(#564),#552,.T.);
#580=EDGE_CURVE('',#353,#310,#158,.T.);
#585=ADVANCED_FACE('',(#584),#577,.T.);
#598=EDGE_CURVE('',#310,#311,#133,.T.);
#600=EDGE_CURVE('',#311,#359,#138,.T.);
#602=EDGE_CURVE('',#359,#314,#143,.T.);
#604=EDGE_CURVE('',#314,#315,#148,.T.);
#610=ADVANCED_FACE('',(#609),#597,.F.);
#626=EDGE_CURVE('',#311,#314,#168,.T.);
#630=ADVANCED_FACE('',(#629),#622,.F.);
#645=EDGE_CURVE('',#357,#311,#178,.T.);
#649=EDGE_CURVE('',#351,#359,#173,.T.);
#653=ADVANCED_FACE('',(#652),#642,.T.);
#672=ADVANCED_FACE('',(#671),#665,.T.);
#691=ADVANCED_FACE('',(#690),#684,.T.);
#708=EDGE_CURVE('',#366,#367,#198,.T.);
#710=EDGE_CURVE('',#367,#366,#203,.T.);
#714=ADVANCED_FACE('',(#707,#713),#703,.T.);
#728=EDGE_CURVE('',#366,#362,#207,.T.);
#730=EDGE_CURVE('',#362,#363,#216,.T.);
#732=EDGE_CURVE('',#367,#363,#211,.T.);
#736=ADVANCED_FACE('',(#735),#726,.F.);
#744=EDGE_CURVE('',#363,#362,#221,.T.);
#749=ADVANCED_FACE('',(#748),#741,.F.);
#759=ADVANCED_FACE('',(#758),#754,.T.);
#773=EDGE_CURVE('',#322,#318,#225,.T.);
#775=EDGE_CURVE('',#318,#319,#234,.T.);
#777=EDGE_CURVE('',#323,#319,#229,.T.);
#781=ADVANCED_FACE('',(#780),#771,.F.);
#796=EDGE_CURVE('',#319,#318,#239,.T.);
#801=ADVANCED_FACE('',(#800),#793,.F.);
#818=EDGE_CURVE('',#330,#331,#244,.T.);
#820=EDGE_CURVE('',#331,#330,#249,.T.);
#824=EDGE_CURVE('',#338,#339,#254,.T.);
#826=EDGE_CURVE('',#339,#338,#259,.T.);
#830=ADVANCED_FACE('',(#817,#823,#829),#813,.T.);
#844=EDGE_CURVE('',#330,#326,#263,.T.);
#846=EDGE_CURVE('',#326,#327,#272,.T.);
#848=EDGE_CURVE('',#331,#327,#267,.T.);
#852=ADVANCED_FACE('',(#851),#842,.T.);
#867=EDGE_CURVE('',#327,#326,#277,.T.);
#872=ADVANCED_FACE('',(#871),#864,.T.);
#889=ADVANCED_FACE('',(#888),#884,.T.);
#903=EDGE_CURVE('',#338,#334,#281,.T.);
#905=EDGE_CURVE('',#334,#335,#290,.T.);
#907=EDGE_CURVE('',#339,#335,#285,.T.);
#911=ADVANCED_FACE('',(#910),#901,.T.);
#926=EDGE_CURVE('',#335,#334,#295,.T.);
#931=ADVANCED_FACE('',(#930),#923,.T.);
#948=ADVANCED_FACE('',(#947),#943,.T.);
#958=(LENGTH_UNIT()NAMED_UNIT(*)SI_UNIT(.MILLI.,.METRE.));
#959=(NAMED_UNIT(*)PLANE_ANGLE_UNIT()SI_UNIT($,.RADIAN.));
#962=(NAMED_UNIT(*)SI_UNIT($,.STERADIAN.)SOLID_ANGLE_UNIT());
#964=(GEOMETRIC_REPRESENTATION_CONTEXT(3)GLOBAL_UNCERTAINTY_ASSIGNED_CONTEXT((
#963))GLOBAL_UNIT_ASSIGNED_CONTEXT((#958,#961,#962))REPRESENTATION_CONTEXT
('ID1','3'));
#968=AXIS2_PLACEMENT_3D('',#965,#966,#967);
#969=ADVANCED_BREP_SHAPE_REPRESENTATION('',(#968,#957),#964);
#976=PRODUCT_DEFINITION('part definition','',#975,#972);
#977=PRODUCT_DEFINITION_SHAPE('','SHAPE FOR 0800090000.',#976);
#978=SHAPE_ASPECT('','solid data associated with 0800090000',#977,.F.);
#979=PROPERTY_DEFINITION('',
'shape for solid data with which properties are associated',#978);
#980=SHAPE_REPRESENTATION('',(#957),#964);
#981=SHAPE_DEFINITION_REPRESENTATION(#979,#980);
#982=(LENGTH_UNIT()NAMED_UNIT(*)SI_UNIT(.MILLI.,.METRE.));
#986=PROPERTY_DEFINITION('geometric validation property','area of 0800090000',
#978);
#987=REPRESENTATION('surface area',(#985),#964);
#988=PROPERTY_DEFINITION_REPRESENTATION(#986,#987);
#989=(LENGTH_UNIT()NAMED_UNIT(*)SI_UNIT(.MILLI.,.METRE.));
#993=PROPERTY_DEFINITION('geometric validation property','volume of 0800090000',
#978);
#994=REPRESENTATION('volume',(#992),#964);
#995=PROPERTY_DEFINITION_REPRESENTATION(#993,#994);
#997=PROPERTY_DEFINITION('geometric validation property',
'centroid of 0800090000',#978);
#998=REPRESENTATION('centroid',(#996),#964);
#999=PROPERTY_DEFINITION_REPRESENTATION(#997,#998);
#1000=(LENGTH_UNIT()NAMED_UNIT(*)SI_UNIT(.MILLI.,.METRE.));
#1004=PROPERTY_DEFINITION('geometric validation property','area of 0800090000',
#977);
#1005=REPRESENTATION('surface area',(#1003),#964);
#1006=PROPERTY_DEFINITION_REPRESENTATION(#1004,#1005);
#1007=(LENGTH_UNIT()NAMED_UNIT(*)SI_UNIT(.MILLI.,.METRE.));
#1011=PROPERTY_DEFINITION('geometric validation property',
'volume of 0800090000',#977);
#1012=REPRESENTATION('volume',(#1010),#964);
#1013=PROPERTY_DEFINITION_REPRESENTATION(#1011,#1012);
#1015=PROPERTY_DEFINITION('geometric validation property',
'centroid of 0800090000',#977);
#1016=REPRESENTATION('centroid',(#1014),#964);
#1017=PROPERTY_DEFINITION_REPRESENTATION(#1015,#1016);
#1018=SHAPE_DEFINITION_REPRESENTATION(#977,#969);
#1019=SHAPE_DEFINITION_REPRESENTATION(#1020,#1021);
#1020=PRODUCT_DEFINITION_SHAPE('','SHAPE FOR 08001600_ASM.',#1961);
#1021=SHAPE_REPRESENTATION('',(#1031,#1264,#1916,#1929,#1942,#1956),#1952);
#1022=NEXT_ASSEMBLY_USAGE_OCCURRENCE('0','Next assembly relationship',
'\X2\5F157EBF\X0\08000900',#1961,#976,$);
#1023=PRODUCT_DEFINITION_SHAPE('Placement #0',
'Placement of 0800090000 with respect to 08001600_ASM',#1022);
#1025=PROPERTY_DEFINITION('geometric validation property',
'centroid of \X2\5F157EBF\X0\08000900',#1023);
#1026=REPRESENTATION('centroid',(#1024),#964);
#1027=PROPERTY_DEFINITION_REPRESENTATION(#1025,#1026);
#1035=COLOUR_RGB('',1.9E-1,1.9E-1,2.2E-1);
#1040=CIRCLE('',#1039,4.E0);
#1049=CIRCLE('',#1048,4.005E0);
#1074=CIRCLE('',#1073,4.E0);
#1083=CIRCLE('',#1082,4.005E0);
#1109=EDGE_CURVE('',#1090,#1091,#1040,.T.);
#1111=EDGE_CURVE('',#1091,#1093,#1044,.T.);
#1113=EDGE_CURVE('',#1093,#1095,#1049,.T.);
#1115=EDGE_CURVE('',#1095,#1090,#1053,.T.);
#1119=ADVANCED_FACE('',(#1118),#1108,.F.);
#1126=EDGE_CURVE('',#1090,#1098,#1057,.T.);
#1128=EDGE_CURVE('',#1098,#1099,#1074,.T.);
#1130=EDGE_CURVE('',#1091,#1099,#1069,.T.);
#1134=ADVANCED_FACE('',(#1133),#1124,.F.);
#1141=EDGE_CURVE('',#1095,#1103,#1061,.T.);
#1143=EDGE_CURVE('',#1103,#1098,#1078,.T.);
#1148=ADVANCED_FACE('',(#1147),#1139,.T.);
#1155=EDGE_CURVE('',#1093,#1101,#1065,.T.);
#1157=EDGE_CURVE('',#1101,#1103,#1083,.T.);
#1162=ADVANCED_FACE('',(#1161),#1153,.T.);
#1177=EDGE_CURVE('',#1099,#1101,#1087,.T.);
#1182=ADVANCED_FACE('',(#1181),#1174,.T.);
#1194=ADVANCED_FACE('',(#1193),#1187,.T.);
#1197=(LENGTH_UNIT()NAMED_UNIT(*)SI_UNIT(.MILLI.,.METRE.));
#1198=(NAMED_UNIT(*)PLANE_ANGLE_UNIT()SI_UNIT($,.RADIAN.));
#1201=(NAMED_UNIT(*)SI_UNIT($,.STERADIAN.)SOLID_ANGLE_UNIT());
#1203=(GEOMETRIC_REPRESENTATION_CONTEXT(3)GLOBAL_UNCERTAINTY_ASSIGNED_CONTEXT((
#1202))GLOBAL_UNIT_ASSIGNED_CONTEXT((#1197,#1200,#1201))REPRESENTATION_CONTEXT(
'ID2','3'));
#1207=AXIS2_PLACEMENT_3D('',#1204,#1205,#1206);
#1208=ADVANCED_BREP_SHAPE_REPRESENTATION('',(#1207,#1196),#1203);
#1212=PRODUCT_DEFINITION('part definition','',#1211,#972);
#1213=PRODUCT_DEFINITION_SHAPE('','SHAPE FOR FJB08000900.',#1212);
#1214=SHAPE_ASPECT('','solid data associated with FJB08000900',#1213,.F.);
#1215=PROPERTY_DEFINITION('',
'shape for solid data with which properties are associated',#1214);
#1216=SHAPE_REPRESENTATION('',(#1196),#1203);
#1217=SHAPE_DEFINITION_REPRESENTATION(#1215,#1216);
#1218=(LENGTH_UNIT()NAMED_UNIT(*)SI_UNIT(.MILLI.,.METRE.));
#1222=PROPERTY_DEFINITION('geometric validation property','area of FJB08000900',
#1214);
#1223=REPRESENTATION('surface area',(#1221),#1203);
#1224=PROPERTY_DEFINITION_REPRESENTATION(#1222,#1223);
#1225=(LENGTH_UNIT()NAMED_UNIT(*)SI_UNIT(.MILLI.,.METRE.));
#1229=PROPERTY_DEFINITION('geometric validation property',
'volume of FJB08000900',#1214);
#1230=REPRESENTATION('volume',(#1228),#1203);
#1231=PROPERTY_DEFINITION_REPRESENTATION(#1229,#1230);
#1233=PROPERTY_DEFINITION('geometric validation property',
'centroid of FJB08000900',#1214);
#1234=REPRESENTATION('centroid',(#1232),#1203);
#1235=PROPERTY_DEFINITION_REPRESENTATION(#1233,#1234);
#1236=(LENGTH_UNIT()NAMED_UNIT(*)SI_UNIT(.MILLI.,.METRE.));
#1240=PROPERTY_DEFINITION('geometric validation property','area of FJB08000900',
#1213);
#1241=REPRESENTATION('surface area',(#1239),#1203);
#1242=PROPERTY_DEFINITION_REPRESENTATION(#1240,#1241);
#1243=(LENGTH_UNIT()NAMED_UNIT(*)SI_UNIT(.MILLI.,.METRE.));
#1247=PROPERTY_DEFINITION('geometric validation property',
'volume of FJB08000900',#1213);
#1248=REPRESENTATION('volume',(#1246),#1203);
#1249=PROPERTY_DEFINITION_REPRESENTATION(#1247,#1248);
#1251=PROPERTY_DEFINITION('geometric validation property',
'centroid of FJB08000900',#1213);
#1252=REPRESENTATION('centroid',(#1250),#1203);
#1253=PROPERTY_DEFINITION_REPRESENTATION(#1251,#1252);
#1254=SHAPE_DEFINITION_REPRESENTATION(#1213,#1208);
#1255=NEXT_ASSEMBLY_USAGE_OCCURRENCE('1','Next assembly relationship',
'FJB08000900',#1961,#1212,$);
#1256=PRODUCT_DEFINITION_SHAPE('Placement #1',
'Placement of FJB08000900 with respect to 08001600_ASM',#1255);
#1258=PROPERTY_DEFINITION('geometric validation property',
'centroid of FJB08000900',#1256);
#1259=REPRESENTATION('centroid',(#1257),#1203);
#1260=PROPERTY_DEFINITION_REPRESENTATION(#1258,#1259);
#1272=CIRCLE('',#1271,6.71328E-1);
#1281=CIRCLE('',#1280,6.71328E-1);
#1290=CIRCLE('',#1289,6.71328E-1);
#1299=CIRCLE('',#1298,6.71328E-1);
#1312=CIRCLE('',#1311,4.0824E-1);
#1321=CIRCLE('',#1320,4.0824E-1);
#1330=CIRCLE('',#1329,4.0824E-1);
#1339=CIRCLE('',#1338,4.0824E-1);
#1376=CIRCLE('',#1375,6.71328E-1);
#1385=CIRCLE('',#1384,6.71328E-1);
#1394=CIRCLE('',#1393,6.71328E-1);
#1403=CIRCLE('',#1402,6.71328E-1);
#1416=CIRCLE('',#1415,4.0824E-1);
#1425=CIRCLE('',#1424,4.0824E-1);
#1434=CIRCLE('',#1433,4.0824E-1);
#1443=CIRCLE('',#1442,4.0824E-1);
#1545=EDGE_CURVE('',#1478,#1479,#1272,.T.);
#1547=EDGE_CURVE('',#1479,#1481,#1276,.T.);
#1549=EDGE_CURVE('',#1481,#1483,#1281,.T.);
#1551=EDGE_CURVE('',#1483,#1485,#1285,.T.);
#1553=EDGE_CURVE('',#1485,#1487,#1290,.T.);
#1555=EDGE_CURVE('',#1487,#1489,#1294,.T.);
#1557=EDGE_CURVE('',#1489,#1491,#1299,.T.);
#1559=EDGE_CURVE('',#1491,#1478,#1303,.T.);
#1563=EDGE_CURVE('',#1494,#1495,#1307,.T.);
#1565=EDGE_CURVE('',#1495,#1497,#1312,.T.);
#1567=EDGE_CURVE('',#1497,#1499,#1316,.T.);
#1569=EDGE_CURVE('',#1499,#1501,#1321,.T.);
#1571=EDGE_CURVE('',#1501,#1503,#1325,.T.);
#1573=EDGE_CURVE('',#1503,#1505,#1330,.T.);
#1575=EDGE_CURVE('',#1505,#1507,#1334,.T.);
#1577=EDGE_CURVE('',#1507,#1494,#1339,.T.);
#1581=ADVANCED_FACE('',(#1562,#1580),#1544,.F.);
#1595=EDGE_CURVE('',#1478,#1510,#1343,.T.);
#1597=EDGE_CURVE('',#1510,#1511,#1376,.T.);
#1599=EDGE_CURVE('',#1479,#1511,#1371,.T.);
#1603=ADVANCED_FACE('',(#1602),#1593,.T.);
#1610=EDGE_CURVE('',#1491,#1523,#1347,.T.);
#1612=EDGE_CURVE('',#1523,#1510,#1380,.T.);
#1617=ADVANCED_FACE('',(#1616),#1608,.T.);
#1624=EDGE_CURVE('',#1489,#1521,#1351,.T.);
#1626=EDGE_CURVE('',#1521,#1523,#1385,.T.);
#1631=ADVANCED_FACE('',(#1630),#1622,.T.);
#1638=EDGE_CURVE('',#1487,#1519,#1355,.T.);
#1640=EDGE_CURVE('',#1519,#1521,#1389,.T.);
#1645=ADVANCED_FACE('',(#1644),#1636,.T.);
#1652=EDGE_CURVE('',#1485,#1517,#1359,.T.);
#1654=EDGE_CURVE('',#1517,#1519,#1394,.T.);
#1659=ADVANCED_FACE('',(#1658),#1650,.T.);
#1666=EDGE_CURVE('',#1483,#1515,#1363,.T.);
#1668=EDGE_CURVE('',#1515,#1517,#1398,.T.);
#1673=ADVANCED_FACE('',(#1672),#1664,.T.);
#1680=EDGE_CURVE('',#1481,#1513,#1367,.T.);
#1682=EDGE_CURVE('',#1513,#1515,#1403,.T.);
#1687=ADVANCED_FACE('',(#1686),#1678,.T.);
#1695=EDGE_CURVE('',#1511,#1513,#1407,.T.);
#1700=ADVANCED_FACE('',(#1699),#1692,.T.);
#1716=EDGE_CURVE('',#1526,#1527,#1411,.T.);
#1718=EDGE_CURVE('',#1539,#1526,#1416,.T.);
#1720=EDGE_CURVE('',#1537,#1539,#1420,.T.);
#1722=EDGE_CURVE('',#1535,#1537,#1425,.T.);
#1724=EDGE_CURVE('',#1533,#1535,#1429,.T.);
#1726=EDGE_CURVE('',#1531,#1533,#1434,.T.);
#1728=EDGE_CURVE('',#1529,#1531,#1438,.T.);
#1730=EDGE_CURVE('',#1527,#1529,#1443,.T.);
#1734=ADVANCED_FACE('',(#1715,#1733),#1705,.T.);
#1748=EDGE_CURVE('',#1494,#1526,#1447,.T.);
#1751=EDGE_CURVE('',#1495,#1527,#1475,.T.);
#1755=ADVANCED_FACE('',(#1754),#1746,.T.);
#1762=EDGE_CURVE('',#1507,#1539,#1451,.T.);
#1768=ADVANCED_FACE('',(#1767),#1760,.F.);
#1775=EDGE_CURVE('',#1505,#1537,#1455,.T.);
#1781=ADVANCED_FACE('',(#1780),#1773,.T.);
#1788=EDGE_CURVE('',#1503,#1535,#1459,.T.);
#1794=ADVANCED_FACE('',(#1793),#1786,.F.);
#1801=EDGE_CURVE('',#1501,#1533,#1463,.T.);
#1807=ADVANCED_FACE('',(#1806),#1799,.T.);
#1814=EDGE_CURVE('',#1499,#1531,#1467,.T.);
#1820=ADVANCED_FACE('',(#1819),#1812,.F.);
#1827=EDGE_CURVE('',#1497,#1529,#1471,.T.);
#1833=ADVANCED_FACE('',(#1832),#1825,.T.);
#1845=ADVANCED_FACE('',(#1844),#1838,.F.);
#1848=(LENGTH_UNIT()NAMED_UNIT(*)SI_UNIT(.MILLI.,.METRE.));
#1849=(NAMED_UNIT(*)PLANE_ANGLE_UNIT()SI_UNIT($,.RADIAN.));
#1852=(NAMED_UNIT(*)SI_UNIT($,.STERADIAN.)SOLID_ANGLE_UNIT());
#1854=(GEOMETRIC_REPRESENTATION_CONTEXT(3)GLOBAL_UNCERTAINTY_ASSIGNED_CONTEXT((
#1853))GLOBAL_UNIT_ASSIGNED_CONTEXT((#1848,#1851,#1852))REPRESENTATION_CONTEXT(
'ID3','3'));
#1858=AXIS2_PLACEMENT_3D('',#1855,#1856,#1857);
#1859=ADVANCED_BREP_SHAPE_REPRESENTATION('',(#1858,#1847),#1854);
#1864=PRODUCT_DEFINITION('part definition','',#1863,#1860);
#1865=PRODUCT_DEFINITION_SHAPE('','SHAPE FOR YUAN08000900.',#1864);
#1866=SHAPE_ASPECT('','solid data associated with YUAN08000900',#1865,.F.);
#1867=PROPERTY_DEFINITION('',
'shape for solid data with which properties are associated',#1866);
#1868=SHAPE_REPRESENTATION('',(#1847),#1854);
#1869=SHAPE_DEFINITION_REPRESENTATION(#1867,#1868);
#1870=(LENGTH_UNIT()NAMED_UNIT(*)SI_UNIT(.MILLI.,.METRE.));
#1874=PROPERTY_DEFINITION('geometric validation property',
'area of YUAN08000900',#1866);
#1875=REPRESENTATION('surface area',(#1873),#1854);
#1876=PROPERTY_DEFINITION_REPRESENTATION(#1874,#1875);
#1877=(LENGTH_UNIT()NAMED_UNIT(*)SI_UNIT(.MILLI.,.METRE.));
#1881=PROPERTY_DEFINITION('geometric validation property',
'volume of YUAN08000900',#1866);
#1882=REPRESENTATION('volume',(#1880),#1854);
#1883=PROPERTY_DEFINITION_REPRESENTATION(#1881,#1882);
#1885=PROPERTY_DEFINITION('geometric validation property',
'centroid of YUAN08000900',#1866);
#1886=REPRESENTATION('centroid',(#1884),#1854);
#1887=PROPERTY_DEFINITION_REPRESENTATION(#1885,#1886);
#1888=(LENGTH_UNIT()NAMED_UNIT(*)SI_UNIT(.MILLI.,.METRE.));
#1892=PROPERTY_DEFINITION('geometric validation property',
'area of YUAN08000900',#1865);
#1893=REPRESENTATION('surface area',(#1891),#1854);
#1894=PROPERTY_DEFINITION_REPRESENTATION(#1892,#1893);
#1895=(LENGTH_UNIT()NAMED_UNIT(*)SI_UNIT(.MILLI.,.METRE.));
#1899=PROPERTY_DEFINITION('geometric validation property',
'volume of YUAN08000900',#1865);
#1900=REPRESENTATION('volume',(#1898),#1854);
#1901=PROPERTY_DEFINITION_REPRESENTATION(#1899,#1900);
#1903=PROPERTY_DEFINITION('geometric validation property',
'centroid of YUAN08000900',#1865);
#1904=REPRESENTATION('centroid',(#1902),#1854);
#1905=PROPERTY_DEFINITION_REPRESENTATION(#1903,#1904);
#1906=SHAPE_DEFINITION_REPRESENTATION(#1865,#1859);
#1907=NEXT_ASSEMBLY_USAGE_OCCURRENCE('2','Next assembly relationship',
'YUAN08000900',#1961,#1864,$);
#1908=PRODUCT_DEFINITION_SHAPE('Placement #2',
'Placement of YUAN08000900 with respect to 08001600_ASM',#1907);
#1910=PROPERTY_DEFINITION('geometric validation property',
'centroid of YUAN08000900',#1908);
#1911=REPRESENTATION('centroid',(#1909),#1854);
#1912=PROPERTY_DEFINITION_REPRESENTATION(#1910,#1911);
#1920=NEXT_ASSEMBLY_USAGE_OCCURRENCE('3','Next assembly relationship',
'YUAN08000900',#1961,#1864,$);
#1921=PRODUCT_DEFINITION_SHAPE('Placement #3',
'Placement of YUAN08000900 with respect to 08001600_ASM',#1920);
#1923=PROPERTY_DEFINITION('geometric validation property',
'centroid of YUAN08000900',#1921);
#1924=REPRESENTATION('centroid',(#1922),#1854);
#1925=PROPERTY_DEFINITION_REPRESENTATION(#1923,#1924);
#1933=NEXT_ASSEMBLY_USAGE_OCCURRENCE('4','Next assembly relationship',
'YUAN08000900',#1961,#1864,$);
#1934=PRODUCT_DEFINITION_SHAPE('Placement #4',
'Placement of YUAN08000900 with respect to 08001600_ASM',#1933);
#1936=PROPERTY_DEFINITION('geometric validation property',
'centroid of YUAN08000900',#1934);
#1937=REPRESENTATION('centroid',(#1935),#1854);
#1938=PROPERTY_DEFINITION_REPRESENTATION(#1936,#1937);
#1946=(LENGTH_UNIT()NAMED_UNIT(*)SI_UNIT(.MILLI.,.METRE.));
#1947=(NAMED_UNIT(*)PLANE_ANGLE_UNIT()SI_UNIT($,.RADIAN.));
#1950=(NAMED_UNIT(*)SI_UNIT($,.STERADIAN.)SOLID_ANGLE_UNIT());
#1952=(GEOMETRIC_REPRESENTATION_CONTEXT(3)GLOBAL_UNCERTAINTY_ASSIGNED_CONTEXT((
#1951))GLOBAL_UNIT_ASSIGNED_CONTEXT((#1946,#1949,#1950))REPRESENTATION_CONTEXT(
'ID4','3'));
#1956=AXIS2_PLACEMENT_3D('',#1953,#1954,#1955);
#1961=PRODUCT_DEFINITION('part definition','',#1960,#1860);
#1962=(LENGTH_UNIT()NAMED_UNIT(*)SI_UNIT(.MILLI.,.METRE.));
#1966=PROPERTY_DEFINITION('geometric validation property',
'area of 08001600_ASM',#1020);
#1967=REPRESENTATION('surface area',(#1965),#1952);
#1968=PROPERTY_DEFINITION_REPRESENTATION(#1966,#1967);
#1969=(LENGTH_UNIT()NAMED_UNIT(*)SI_UNIT(.MILLI.,.METRE.));
#1973=PROPERTY_DEFINITION('geometric validation property',
'volume of 08001600_ASM',#1020);
#1974=REPRESENTATION('volume',(#1972),#1952);
#1975=PROPERTY_DEFINITION_REPRESENTATION(#1973,#1974);
#1977=PROPERTY_DEFINITION('geometric validation property',
'centroid of 08001600_ASM',#1020);
#1978=REPRESENTATION('centroid',(#1976),#1952);
#1979=PROPERTY_DEFINITION_REPRESENTATION(#1977,#1978);
ENDSEC;
END-ISO-10303-21;
