ISO-10303-21;
HEADER;
FILE_DESCRIPTION((''),'2;1');
FILE_NAME('CP-8X12-LKM_ASM','2026-04-14T16:34:30',('Administrator'),(''),
'CREO PARAMETRIC BY PTC INC, 2018100','CREO PARAMETRIC BY PTC INC, 2018100','');
FILE_SCHEMA(('AUTOMOTIVE_DESIGN { 1 0 10303 214 1 1 1 1 }'));
ENDSEC;
DATA;
#21=CARTESIAN_POINT('',(0.E0,0.E0,0.E0));
#22=DIRECTION('',(0.E0,1.E0,0.E0));
#23=DIRECTION('',(1.E0,0.E0,0.E0));
#24=AXIS2_PLACEMENT_3D('',#21,#22,#23);
#26=CARTESIAN_POINT('',(0.E0,0.E0,0.E0));
#27=DIRECTION('',(0.E0,1.E0,0.E0));
#28=DIRECTION('',(-1.E0,0.E0,0.E0));
#29=AXIS2_PLACEMENT_3D('',#26,#27,#28);
#31=CARTESIAN_POINT('',(0.E0,0.E0,0.E0));
#32=DIRECTION('',(0.E0,-1.E0,0.E0));
#33=DIRECTION('',(0.E0,0.E0,1.E0));
#34=AXIS2_PLACEMENT_3D('',#31,#32,#33);
#36=CARTESIAN_POINT('',(0.E0,0.E0,0.E0));
#37=DIRECTION('',(0.E0,-1.E0,0.E0));
#38=DIRECTION('',(0.E0,0.E0,-1.E0));
#39=AXIS2_PLACEMENT_3D('',#36,#37,#38);
#41=CARTESIAN_POINT('',(0.E0,2.5E-1,0.E0));
#42=DIRECTION('',(0.E0,1.E0,0.E0));
#43=DIRECTION('',(1.E0,0.E0,0.E0));
#44=AXIS2_PLACEMENT_3D('',#41,#42,#43);
#46=CARTESIAN_POINT('',(0.E0,2.5E-1,0.E0));
#47=DIRECTION('',(0.E0,1.E0,0.E0));
#48=DIRECTION('',(-9.999779186083E-1,0.E0,-6.645471825946E-3));
#49=AXIS2_PLACEMENT_3D('',#46,#47,#48);
#51=CARTESIAN_POINT('',(0.E0,0.E0,0.E0));
#52=DIRECTION('',(0.E0,-1.E0,0.E0));
#53=DIRECTION('',(-1.E0,0.E0,0.E0));
#54=AXIS2_PLACEMENT_3D('',#51,#52,#53);
#56=CARTESIAN_POINT('',(3.75E0,2.5E-1,1.229773227696E-12));
#57=DIRECTION('',(-3.279407995160E-13,0.E0,1.E0));
#58=DIRECTION('',(0.E0,-1.E0,0.E0));
#59=AXIS2_PLACEMENT_3D('',#56,#57,#58);
#61=DIRECTION('',(0.E0,-1.E0,-3.981703593202E-11));
#62=VECTOR('',#61,1.909830056251E-1);
#63=CARTESIAN_POINT('',(-4.E0,4.409830056251E-1,6.790338790969E-12));
#64=LINE('',#63,#62);
#65=DIRECTION('',(0.E0,-1.E0,3.432208462489E-12));
#66=VECTOR('',#65,1.909830056251E-1);
#67=CARTESIAN_POINT('',(4.E0,4.409830056251E-1,0.E0));
#68=LINE('',#67,#66);
#69=CARTESIAN_POINT('',(0.E0,2.5E-1,0.E0));
#70=DIRECTION('',(0.E0,1.E0,0.E0));
#71=DIRECTION('',(-1.E0,0.E0,-7.917034403323E-14));
#72=AXIS2_PLACEMENT_3D('',#69,#70,#71);
#74=CARTESIAN_POINT('',(0.E0,2.5E-1,0.E0));
#75=DIRECTION('',(0.E0,1.E0,0.E0));
#76=DIRECTION('',(9.999779186083E-1,0.E0,6.645471825946E-3));
#77=AXIS2_PLACEMENT_3D('',#74,#75,#76);
#79=CARTESIAN_POINT('',(0.E0,0.E0,0.E0));
#80=DIRECTION('',(0.E0,-1.E0,0.E0));
#81=DIRECTION('',(1.E0,0.E0,0.E0));
#82=AXIS2_PLACEMENT_3D('',#79,#80,#81);
#84=CARTESIAN_POINT('',(-3.75E0,2.5E-1,-1.229460977470E-12));
#85=DIRECTION('',(3.278575327892E-13,0.E0,-1.E0));
#86=DIRECTION('',(0.E0,-1.E0,0.E0));
#87=AXIS2_PLACEMENT_3D('',#84,#85,#86);
#89=CARTESIAN_POINT('',(0.E0,4.409830056251E-1,0.E0));
#90=DIRECTION('',(0.E0,-1.E0,0.E0));
#91=DIRECTION('',(0.E0,0.E0,1.E0));
#92=AXIS2_PLACEMENT_3D('',#89,#90,#91);
#94=CARTESIAN_POINT('',(0.E0,8.136610018752E-1,0.E0));
#95=DIRECTION('',(0.E0,1.E0,0.E0));
#96=DIRECTION('',(-1.E0,0.E0,3.473511333635E-12));
#97=AXIS2_PLACEMENT_3D('',#94,#95,#96);
#99=CARTESIAN_POINT('',(2.668678472650E-11,4.409830056251E-1,3.5E0));
#100=DIRECTION('',(1.E0,0.E0,-7.624796627415E-12));
#101=DIRECTION('',(5.083197751607E-12,7.453559925002E-1,6.666666666664E-1));
#102=AXIS2_PLACEMENT_3D('',#99,#100,#101);
#104=CARTESIAN_POINT('',(0.E0,4.409830056251E-1,0.E0));
#105=DIRECTION('',(0.E0,-1.E0,0.E0));
#106=DIRECTION('',(-1.E0,0.E0,-7.917034403323E-14));
#107=AXIS2_PLACEMENT_3D('',#104,#105,#106);
#109=CARTESIAN_POINT('',(0.E0,4.409830056251E-1,0.E0));
#110=DIRECTION('',(0.E0,-1.E0,0.E0));
#111=DIRECTION('',(1.E0,0.E0,0.E0));
#112=AXIS2_PLACEMENT_3D('',#109,#110,#111);
#114=CARTESIAN_POINT('',(0.E0,8.136610018752E-1,0.E0));
#115=DIRECTION('',(0.E0,1.E0,0.E0));
#116=DIRECTION('',(2.097204656314E-12,0.E0,-1.E0));
#117=AXIS2_PLACEMENT_3D('',#114,#115,#116);
#119=CARTESIAN_POINT('',(0.E0,8.136610018752E-1,0.E0));
#120=DIRECTION('',(0.E0,1.E0,0.E0));
#121=DIRECTION('',(-9.606238117419E-3,0.E0,-9.999538590301E-1));
#122=AXIS2_PLACEMENT_3D('',#119,#120,#121);
#124=CARTESIAN_POINT('',(-3.5E0,4.409830056251E-1,1.216308304075E-11));
#125=DIRECTION('',(3.475166335254E-12,0.E0,1.E0));
#126=DIRECTION('',(-6.666666666664E-1,7.453559925002E-1,2.316777556835E-12));
#127=AXIS2_PLACEMENT_3D('',#124,#125,#126);
#129=CARTESIAN_POINT('',(0.E0,1.E0,4.E0));
#130=DIRECTION('',(1.E0,0.E0,0.E0));
#131=DIRECTION('',(0.E0,-7.453559924993E-1,-6.666666666674E-1));
#132=AXIS2_PLACEMENT_3D('',#129,#130,#131);
#134=CARTESIAN_POINT('',(0.E0,1.E0,4.E0));
#135=DIRECTION('',(1.E0,0.E0,0.E0));
#136=DIRECTION('',(0.E0,0.E0,-1.E0));
#137=AXIS2_PLACEMENT_3D('',#134,#135,#136);
#139=CARTESIAN_POINT('',(0.E0,1.186338998125E0,0.E0));
#140=DIRECTION('',(0.E0,1.E0,0.E0));
#141=DIRECTION('',(0.E0,0.E0,1.E0));
#142=AXIS2_PLACEMENT_3D('',#139,#140,#141);
#144=CARTESIAN_POINT('',(0.E0,1.186338998125E0,0.E0));
#145=DIRECTION('',(0.E0,1.E0,0.E0));
#146=DIRECTION('',(9.999779186083E-1,0.E0,6.645471825945E-3));
#147=AXIS2_PLACEMENT_3D('',#144,#145,#146);
#149=CARTESIAN_POINT('',(0.E0,1.E0,-4.E0));
#150=DIRECTION('',(1.E0,0.E0,0.E0));
#151=DIRECTION('',(0.E0,7.453559924993E-1,6.666666666674E-1));
#152=AXIS2_PLACEMENT_3D('',#149,#150,#151);
#154=CARTESIAN_POINT('',(0.E0,1.E0,-4.E0));
#155=DIRECTION('',(1.E0,0.E0,0.E0));
#156=DIRECTION('',(0.E0,0.E0,1.E0));
#157=AXIS2_PLACEMENT_3D('',#154,#155,#156);
#159=CARTESIAN_POINT('',(0.E0,8.136610018752E-1,0.E0));
#160=DIRECTION('',(0.E0,-1.E0,0.E0));
#161=DIRECTION('',(0.E0,0.E0,-1.E0));
#162=AXIS2_PLACEMENT_3D('',#159,#160,#161);
#164=CARTESIAN_POINT('',(0.E0,8.136610018752E-1,0.E0));
#165=DIRECTION('',(0.E0,-1.E0,0.E0));
#166=DIRECTION('',(9.606238117419E-3,0.E0,9.999538590301E-1));
#167=AXIS2_PLACEMENT_3D('',#164,#165,#166);
#169=CARTESIAN_POINT('',(0.E0,1.559016994375E0,0.E0));
#170=DIRECTION('',(0.E0,1.E0,0.E0));
#171=DIRECTION('',(1.E0,0.E0,0.E0));
#172=AXIS2_PLACEMENT_3D('',#169,#170,#171);
#174=CARTESIAN_POINT('',(0.E0,1.559016994375E0,0.E0));
#175=DIRECTION('',(0.E0,1.E0,0.E0));
#176=DIRECTION('',(-9.999779186083E-1,0.E0,-6.645471825946E-3));
#177=AXIS2_PLACEMENT_3D('',#174,#175,#176);
#179=CARTESIAN_POINT('',(0.E0,1.186338998125E0,0.E0));
#180=DIRECTION('',(0.E0,-1.E0,0.E0));
#181=DIRECTION('',(-1.E0,0.E0,-4.047975722737E-12));
#182=AXIS2_PLACEMENT_3D('',#179,#180,#181);
#184=CARTESIAN_POINT('',(0.E0,1.186338998125E0,0.E0));
#185=DIRECTION('',(0.E0,-1.E0,0.E0));
#186=DIRECTION('',(-9.999779186083E-1,0.E0,-6.645471825945E-3));
#187=AXIS2_PLACEMENT_3D('',#184,#185,#186);
#189=CARTESIAN_POINT('',(-1.464444537858E-11,1.559016994375E0,3.5E0));
#190=DIRECTION('',(-1.E0,0.E0,-4.184127003204E-12));
#191=DIRECTION('',(-2.789418002134E-12,-7.453559925003E-1,6.666666666663E-1));
#192=AXIS2_PLACEMENT_3D('',#189,#190,#191);
#194=CARTESIAN_POINT('',(0.E0,1.559016994375E0,0.E0));
#195=DIRECTION('',(0.E0,1.E0,0.E0));
#196=DIRECTION('',(0.E0,0.E0,1.E0));
#197=AXIS2_PLACEMENT_3D('',#194,#195,#196);
#199=CARTESIAN_POINT('',(0.E0,1.559016994375E0,0.E0));
#200=DIRECTION('',(0.E0,1.E0,0.E0));
#201=DIRECTION('',(9.999779186083E-1,0.E0,6.645471825945E-3));
#202=AXIS2_PLACEMENT_3D('',#199,#200,#201);
#204=DIRECTION('',(0.E0,-1.E0,-7.955225578198E-13));
#205=VECTOR('',#204,1.029098300563E1);
#206=CARTESIAN_POINT('',(-4.E0,1.185E1,-5.325374197699E-14));
#207=LINE('',#206,#205);
#208=CARTESIAN_POINT('',(0.E0,1.185E1,0.E0));
#209=DIRECTION('',(0.E0,-1.E0,0.E0));
#210=DIRECTION('',(-1.E0,0.E0,-7.206491667562E-14));
#211=AXIS2_PLACEMENT_3D('',#208,#209,#210);
#213=CARTESIAN_POINT('',(0.E0,1.185E1,0.E0));
#214=DIRECTION('',(0.E0,-1.E0,0.E0));
#215=DIRECTION('',(9.999814203622E-1,0.E0,-6.095812532878E-3));
#216=AXIS2_PLACEMENT_3D('',#213,#214,#215);
#218=CARTESIAN_POINT('',(0.E0,1.2E1,0.E0));
#219=DIRECTION('',(0.E0,1.E0,0.E0));
#220=DIRECTION('',(1.E0,0.E0,0.E0));
#221=AXIS2_PLACEMENT_3D('',#218,#219,#220);
#223=CARTESIAN_POINT('',(-3.85E0,1.185E1,1.772644531162E-13));
#224=DIRECTION('',(4.604303049938E-14,0.E0,1.E0));
#225=DIRECTION('',(0.E0,1.E0,0.E0));
#226=AXIS2_PLACEMENT_3D('',#223,#224,#225);
#228=CARTESIAN_POINT('',(0.E0,1.185E1,0.E0));
#229=DIRECTION('',(0.E0,-1.E0,0.E0));
#230=DIRECTION('',(1.E0,0.E0,0.E0));
#231=AXIS2_PLACEMENT_3D('',#228,#229,#230);
#233=CARTESIAN_POINT('',(0.E0,1.185E1,0.E0));
#234=DIRECTION('',(0.E0,-1.E0,0.E0));
#235=DIRECTION('',(-9.999814203622E-1,0.E0,6.095812532878E-3));
#236=AXIS2_PLACEMENT_3D('',#233,#234,#235);
#238=CARTESIAN_POINT('',(0.E0,1.2E1,0.E0));
#239=DIRECTION('',(0.E0,1.E0,0.E0));
#240=DIRECTION('',(-1.E0,0.E0,0.E0));
#241=AXIS2_PLACEMENT_3D('',#238,#239,#240);
#243=CARTESIAN_POINT('',(3.85E0,1.185E1,-1.772644531162E-13));
#244=DIRECTION('',(-4.604303049938E-14,0.E0,-1.E0));
#245=DIRECTION('',(0.E0,1.E0,0.E0));
#246=AXIS2_PLACEMENT_3D('',#243,#244,#245);
#248=DIRECTION('',(0.E0,-1.E0,1.716446294033E-14));
#249=VECTOR('',#248,1.029098300563E1);
#250=CARTESIAN_POINT('',(4.E0,1.185E1,-9.107525122428E-14));
#251=LINE('',#250,#249);
#252=CARTESIAN_POINT('',(0.E0,1.559016994375E0,0.E0));
#253=DIRECTION('',(0.E0,1.E0,0.E0));
#254=DIRECTION('',(-1.E0,0.E0,-7.206491667562E-14));
#255=AXIS2_PLACEMENT_3D('',#252,#253,#254);
#257=CARTESIAN_POINT('',(0.E0,1.186338998125E0,0.E0));
#258=DIRECTION('',(0.E0,-1.E0,0.E0));
#259=DIRECTION('',(-4.185359486522E-12,0.E0,1.E0));
#260=AXIS2_PLACEMENT_3D('',#257,#258,#259);
#262=CARTESIAN_POINT('',(-3.5E0,1.559016994375E0,-1.416750744498E-11));
#263=DIRECTION('',(4.047858402634E-12,0.E0,-1.E0));
#264=DIRECTION('',(-6.666666666663E-1,-7.453559925003E-1,-2.698572268421E-12));
#265=AXIS2_PLACEMENT_3D('',#262,#263,#264);
#267=CARTESIAN_POINT('',(0.E0,1.2E1,0.E0));
#268=DIRECTION('',(0.E0,-1.E0,0.E0));
#269=DIRECTION('',(-1.E0,0.E0,0.E0));
#270=AXIS2_PLACEMENT_3D('',#267,#268,#269);
#272=CARTESIAN_POINT('',(0.E0,1.2E1,0.E0));
#273=DIRECTION('',(0.E0,-1.E0,0.E0));
#274=DIRECTION('',(1.E0,0.E0,0.E0));
#275=AXIS2_PLACEMENT_3D('',#272,#273,#274);
#277=CARTESIAN_POINT('',(0.E0,1.2E1,0.E0));
#278=DIRECTION('',(0.E0,1.E0,0.E0));
#279=DIRECTION('',(0.E0,0.E0,-1.E0));
#280=AXIS2_PLACEMENT_3D('',#277,#278,#279);
#282=CARTESIAN_POINT('',(0.E0,1.2E1,0.E0));
#283=DIRECTION('',(0.E0,1.E0,0.E0));
#284=DIRECTION('',(0.E0,0.E0,1.E0));
#285=AXIS2_PLACEMENT_3D('',#282,#283,#284);
#287=DIRECTION('',(0.E0,1.E0,0.E0));
#288=VECTOR('',#287,2.E-2);
#289=CARTESIAN_POINT('',(0.E0,1.198E1,3.E0));
#290=LINE('',#289,#288);
#291=DIRECTION('',(0.E0,1.E0,0.E0));
#292=VECTOR('',#291,2.E-2);
#293=CARTESIAN_POINT('',(0.E0,1.198E1,-3.E0));
#294=LINE('',#293,#292);
#295=CARTESIAN_POINT('',(0.E0,1.198E1,0.E0));
#296=DIRECTION('',(0.E0,-1.E0,0.E0));
#297=DIRECTION('',(0.E0,0.E0,1.E0));
#298=AXIS2_PLACEMENT_3D('',#295,#296,#297);
#300=CARTESIAN_POINT('',(0.E0,1.198E1,0.E0));
#301=DIRECTION('',(0.E0,-1.E0,0.E0));
#302=DIRECTION('',(0.E0,0.E0,-1.E0));
#303=AXIS2_PLACEMENT_3D('',#300,#301,#302);
#305=DIRECTION('',(0.E0,-1.E0,0.E0));
#306=VECTOR('',#305,1.E-1);
#307=CARTESIAN_POINT('',(0.E0,1.E-1,-2.9E0));
#308=LINE('',#307,#306);
#309=DIRECTION('',(0.E0,-1.E0,0.E0));
#310=VECTOR('',#309,1.E-1);
#311=CARTESIAN_POINT('',(0.E0,1.E-1,2.9E0));
#312=LINE('',#311,#310);
#313=CARTESIAN_POINT('',(0.E0,1.E-1,0.E0));
#314=DIRECTION('',(0.E0,1.E0,0.E0));
#315=DIRECTION('',(0.E0,0.E0,-1.E0));
#316=AXIS2_PLACEMENT_3D('',#313,#314,#315);
#318=CARTESIAN_POINT('',(0.E0,1.E-1,0.E0));
#319=DIRECTION('',(0.E0,1.E0,0.E0));
#320=DIRECTION('',(0.E0,0.E0,1.E0));
#321=AXIS2_PLACEMENT_3D('',#318,#319,#320);
#323=CARTESIAN_POINT('',(0.E0,1.E-1,1.75E0));
#324=DIRECTION('',(0.E0,-1.E0,0.E0));
#325=DIRECTION('',(0.E0,0.E0,-1.E0));
#326=AXIS2_PLACEMENT_3D('',#323,#324,#325);
#328=CARTESIAN_POINT('',(0.E0,1.E-1,1.75E0));
#329=DIRECTION('',(0.E0,-1.E0,0.E0));
#330=DIRECTION('',(0.E0,0.E0,1.E0));
#331=AXIS2_PLACEMENT_3D('',#328,#329,#330);
#333=CARTESIAN_POINT('',(0.E0,1.E-1,-1.75E0));
#334=DIRECTION('',(0.E0,-1.E0,0.E0));
#335=DIRECTION('',(-1.E0,0.E0,0.E0));
#336=AXIS2_PLACEMENT_3D('',#333,#334,#335);
#338=CARTESIAN_POINT('',(0.E0,1.E-1,-1.75E0));
#339=DIRECTION('',(0.E0,-1.E0,0.E0));
#340=DIRECTION('',(1.E0,0.E0,0.E0));
#341=AXIS2_PLACEMENT_3D('',#338,#339,#340);
#343=DIRECTION('',(0.E0,1.E0,0.E0));
#344=VECTOR('',#343,2.E1);
#345=CARTESIAN_POINT('',(0.E0,-1.99E1,2.05E0));
#346=LINE('',#345,#344);
#347=DIRECTION('',(0.E0,1.E0,0.E0));
#348=VECTOR('',#347,2.E1);
#349=CARTESIAN_POINT('',(0.E0,-1.99E1,1.45E0));
#350=LINE('',#349,#348);
#351=CARTESIAN_POINT('',(0.E0,-1.99E1,1.75E0));
#352=DIRECTION('',(0.E0,1.E0,0.E0));
#353=DIRECTION('',(0.E0,0.E0,1.E0));
#354=AXIS2_PLACEMENT_3D('',#351,#352,#353);
#356=CARTESIAN_POINT('',(0.E0,-1.99E1,1.75E0));
#357=DIRECTION('',(0.E0,1.E0,0.E0));
#358=DIRECTION('',(0.E0,0.E0,-1.E0));
#359=AXIS2_PLACEMENT_3D('',#356,#357,#358);
#361=DIRECTION('',(0.E0,1.E0,0.E0));
#362=VECTOR('',#361,2.5E1);
#363=CARTESIAN_POINT('',(3.E-1,-2.49E1,-1.75E0));
#364=LINE('',#363,#362);
#365=DIRECTION('',(0.E0,1.E0,0.E0));
#366=VECTOR('',#365,2.5E1);
#367=CARTESIAN_POINT('',(-3.E-1,-2.49E1,-1.75E0));
#368=LINE('',#367,#366);
#369=CARTESIAN_POINT('',(0.E0,-2.49E1,-1.75E0));
#370=DIRECTION('',(0.E0,1.E0,0.E0));
#371=DIRECTION('',(1.E0,0.E0,0.E0));
#372=AXIS2_PLACEMENT_3D('',#369,#370,#371);
#374=CARTESIAN_POINT('',(0.E0,-2.49E1,-1.75E0));
#375=DIRECTION('',(0.E0,1.E0,0.E0));
#376=DIRECTION('',(-1.E0,0.E0,0.E0));
#377=AXIS2_PLACEMENT_3D('',#374,#375,#376);
#379=CARTESIAN_POINT('',(3.75E0,0.E0,0.E0));
#380=CARTESIAN_POINT('',(-3.749917194781E0,0.E0,-2.492051934729E-2));
#381=VERTEX_POINT('',#379);
#382=VERTEX_POINT('',#380);
#383=CARTESIAN_POINT('',(-3.75E0,0.E0,0.E0));
#384=VERTEX_POINT('',#383);
#385=CARTESIAN_POINT('',(3.749917194781E0,0.E0,2.492051934729E-2));
#386=VERTEX_POINT('',#385);
#387=CARTESIAN_POINT('',(0.E0,0.E0,2.9E0));
#388=CARTESIAN_POINT('',(0.E0,0.E0,-2.9E0));
#389=VERTEX_POINT('',#387);
#390=VERTEX_POINT('',#388);
#391=CARTESIAN_POINT('',(4.E0,2.5E-1,0.E0));
#392=CARTESIAN_POINT('',(-3.999911674433E0,2.5E-1,-2.658188730378E-2));
#393=VERTEX_POINT('',#391);
#394=VERTEX_POINT('',#392);
#395=CARTESIAN_POINT('',(-4.E0,2.5E-1,-3.166807094335E-13));
#396=VERTEX_POINT('',#395);
#397=CARTESIAN_POINT('',(-4.E0,1.185E1,-2.882596667025E-13));
#398=CARTESIAN_POINT('',(3.999925681449E0,1.185E1,-2.438325013151E-2));
#399=VERTEX_POINT('',#397);
#400=VERTEX_POINT('',#398);
#401=CARTESIAN_POINT('',(4.E0,1.185E1,0.E0));
#402=VERTEX_POINT('',#401);
#403=CARTESIAN_POINT('',(-4.E0,1.559016994375E0,-8.239962865092E-12));
#404=VERTEX_POINT('',#403);
#405=CARTESIAN_POINT('',(4.E0,1.559016994375E0,0.E0));
#406=CARTESIAN_POINT('',(-3.999911674433E0,1.559016994375E0,
-2.658188730378E-2));
#407=VERTEX_POINT('',#405);
#408=VERTEX_POINT('',#406);
#409=CARTESIAN_POINT('',(4.E0,4.409830056251E-1,0.E0));
#410=VERTEX_POINT('',#409);
#411=CARTESIAN_POINT('',(-4.E0,4.409830056251E-1,-3.166813761329E-13));
#412=VERTEX_POINT('',#411);
#413=CARTESIAN_POINT('',(3.85E0,1.2E1,-1.772644531162E-13));
#414=VERTEX_POINT('',#413);
#415=CARTESIAN_POINT('',(-3.85E0,1.2E1,0.E0));
#416=CARTESIAN_POINT('',(3.849928468394E0,1.2E1,-2.346887825158E-2));
#417=VERTEX_POINT('',#415);
#418=VERTEX_POINT('',#416);
#419=CARTESIAN_POINT('',(-3.999925681449E0,1.185E1,2.438325013151E-2));
#420=VERTEX_POINT('',#419);
#421=CARTESIAN_POINT('',(-3.849928468394E0,1.2E1,2.346887825158E-2));
#422=VERTEX_POINT('',#421);
#423=CARTESIAN_POINT('',(0.E0,1.559016994375E0,4.E0));
#424=CARTESIAN_POINT('',(3.999911674433E0,1.559016994375E0,2.658188730378E-2));
#425=VERTEX_POINT('',#423);
#426=VERTEX_POINT('',#424);
#427=CARTESIAN_POINT('',(3.999911674433E0,2.5E-1,2.658188730378E-2));
#428=VERTEX_POINT('',#427);
#429=CARTESIAN_POINT('',(0.E0,4.409830056251E-1,4.E0));
#430=VERTEX_POINT('',#429);
#431=CARTESIAN_POINT('',(-3.833333333333E0,1.186338998125E0,
-1.551679357919E-11));
#432=VERTEX_POINT('',#431);
#433=CARTESIAN_POINT('',(-3.833248687998E0,1.186338998125E0,
-2.547430866612E-2));
#434=CARTESIAN_POINT('',(-2.141391231003E-12,1.186338998125E0,
-3.833333333333E0));
#435=VERTEX_POINT('',#433);
#436=VERTEX_POINT('',#434);
#437=CARTESIAN_POINT('',(3.833248687998E0,1.186338998125E0,2.547430866612E-2));
#438=VERTEX_POINT('',#437);
#439=CARTESIAN_POINT('',(0.E0,1.186338998125E0,3.833333333333E0));
#440=VERTEX_POINT('',#439);
#441=CARTESIAN_POINT('',(0.E0,1.E0,3.75E0));
#442=VERTEX_POINT('',#441);
#443=CARTESIAN_POINT('',(0.E0,8.136610018752E-1,3.833333333333E0));
#444=VERTEX_POINT('',#443);
#445=CARTESIAN_POINT('',(-3.833333333333E0,8.136610018752E-1,
1.331512677893E-11));
#446=VERTEX_POINT('',#445);
#447=CARTESIAN_POINT('',(-3.682391278344E-2,8.136610018752E-1,
-3.833156459615E0));
#448=VERTEX_POINT('',#447);
#449=CARTESIAN_POINT('',(8.039284515871E-12,8.136610018752E-1,
-3.833333333333E0));
#450=VERTEX_POINT('',#449);
#451=CARTESIAN_POINT('',(0.E0,1.E0,-3.75E0));
#452=VERTEX_POINT('',#451);
#453=CARTESIAN_POINT('',(3.682391278344E-2,8.136610018752E-1,3.833156459615E0));
#454=VERTEX_POINT('',#453);
#455=CARTESIAN_POINT('',(0.E0,1.2E1,-3.E0));
#456=CARTESIAN_POINT('',(0.E0,1.2E1,3.E0));
#457=VERTEX_POINT('',#455);
#458=VERTEX_POINT('',#456);
#459=CARTESIAN_POINT('',(0.E0,1.198E1,-3.E0));
#460=VERTEX_POINT('',#459);
#461=CARTESIAN_POINT('',(0.E0,1.198E1,3.E0));
#462=VERTEX_POINT('',#461);
#463=CARTESIAN_POINT('',(0.E0,1.E-1,2.9E0));
#464=VERTEX_POINT('',#463);
#465=CARTESIAN_POINT('',(0.E0,1.E-1,-2.9E0));
#466=VERTEX_POINT('',#465);
#467=CARTESIAN_POINT('',(0.E0,1.E-1,1.45E0));
#468=CARTESIAN_POINT('',(0.E0,1.E-1,2.05E0));
#469=VERTEX_POINT('',#467);
#470=VERTEX_POINT('',#468);
#471=CARTESIAN_POINT('',(-3.E-1,1.E-1,-1.75E0));
#472=CARTESIAN_POINT('',(3.E-1,1.E-1,-1.75E0));
#473=VERTEX_POINT('',#471);
#474=VERTEX_POINT('',#472);
#475=CARTESIAN_POINT('',(0.E0,-1.99E1,1.45E0));
#476=VERTEX_POINT('',#475);
#477=CARTESIAN_POINT('',(0.E0,-1.99E1,2.05E0));
#478=VERTEX_POINT('',#477);
#479=CARTESIAN_POINT('',(-3.E-1,-2.49E1,-1.75E0));
#480=VERTEX_POINT('',#479);
#481=CARTESIAN_POINT('',(3.E-1,-2.49E1,-1.75E0));
#482=VERTEX_POINT('',#481);
#483=CARTESIAN_POINT('',(0.E0,0.E0,0.E0));
#484=DIRECTION('',(0.E0,1.E0,0.E0));
#485=DIRECTION('',(1.E0,0.E0,0.E0));
#486=AXIS2_PLACEMENT_3D('',#483,#484,#485);
#487=PLANE('',#486);
#489=ORIENTED_EDGE('',*,*,#488,.T.);
#491=ORIENTED_EDGE('',*,*,#490,.F.);
#493=ORIENTED_EDGE('',*,*,#492,.T.);
#495=ORIENTED_EDGE('',*,*,#494,.F.);
#496=EDGE_LOOP('',(#489,#491,#493,#495));
#497=FACE_OUTER_BOUND('',#496,.F.);
#499=ORIENTED_EDGE('',*,*,#498,.T.);
#501=ORIENTED_EDGE('',*,*,#500,.T.);
#502=EDGE_LOOP('',(#499,#501));
#503=FACE_BOUND('',#502,.F.);
#505=FILL_AREA_STYLE_COLOUR('',#20);
#506=FILL_AREA_STYLE('',(#505));
#507=SURFACE_STYLE_FILL_AREA(#506);
#508=SURFACE_SIDE_STYLE('',(#507));
#509=SURFACE_STYLE_USAGE(.POSITIVE.,#508);
#510=PRESENTATION_STYLE_ASSIGNMENT((#509));
#511=STYLED_ITEM('',(#510),#504);
#512=CARTESIAN_POINT('',(0.E0,2.5E-1,0.E0));
#513=DIRECTION('',(0.E0,1.E0,0.E0));
#514=DIRECTION('',(9.999779186083E-1,0.E0,6.645471825945E-3));
#515=AXIS2_PLACEMENT_3D('',#512,#513,#514);
#516=TOROIDAL_SURFACE('',#515,3.75E0,2.5E-1);
#518=ORIENTED_EDGE('',*,*,#517,.T.);
#520=ORIENTED_EDGE('',*,*,#519,.T.);
#522=ORIENTED_EDGE('',*,*,#521,.F.);
#523=ORIENTED_EDGE('',*,*,#490,.T.);
#524=ORIENTED_EDGE('',*,*,#488,.F.);
#526=ORIENTED_EDGE('',*,*,#525,.T.);
#527=EDGE_LOOP('',(#518,#520,#522,#523,#524,#526));
#528=FACE_OUTER_BOUND('',#527,.F.);
#530=FILL_AREA_STYLE_COLOUR('',#20);
#531=FILL_AREA_STYLE('',(#530));
#532=SURFACE_STYLE_FILL_AREA(#531);
#533=SURFACE_SIDE_STYLE('',(#532));
#534=SURFACE_STYLE_USAGE(.POSITIVE.,#533);
#535=PRESENTATION_STYLE_ASSIGNMENT((#534));
#536=STYLED_ITEM('',(#535),#529);
#537=CARTESIAN_POINT('',(0.E0,0.E0,0.E0));
#538=DIRECTION('',(0.E0,1.E0,0.E0));
#539=DIRECTION('',(1.E0,0.E0,0.E0));
#540=AXIS2_PLACEMENT_3D('',#537,#538,#539);
#541=CYLINDRICAL_SURFACE('',#540,4.E0);
#542=ORIENTED_EDGE('',*,*,#519,.F.);
#543=ORIENTED_EDGE('',*,*,#517,.F.);
#545=ORIENTED_EDGE('',*,*,#544,.F.);
#547=ORIENTED_EDGE('',*,*,#546,.F.);
#549=ORIENTED_EDGE('',*,*,#548,.T.);
#550=EDGE_LOOP('',(#542,#543,#545,#547,#549));
#551=FACE_OUTER_BOUND('',#550,.F.);
#553=FILL_AREA_STYLE_COLOUR('',#20);
#554=FILL_AREA_STYLE('',(#553));
#555=SURFACE_STYLE_FILL_AREA(#554);
#556=SURFACE_SIDE_STYLE('',(#555));
#557=SURFACE_STYLE_USAGE(.POSITIVE.,#556);
#558=PRESENTATION_STYLE_ASSIGNMENT((#557));
#559=STYLED_ITEM('',(#558),#552);
#560=CARTESIAN_POINT('',(0.E0,0.E0,0.E0));
#561=DIRECTION('',(0.E0,1.E0,0.E0));
#562=DIRECTION('',(1.E0,0.E0,0.E0));
#563=AXIS2_PLACEMENT_3D('',#560,#561,#562);
#564=CYLINDRICAL_SURFACE('',#563,4.E0);
#566=ORIENTED_EDGE('',*,*,#565,.F.);
#568=ORIENTED_EDGE('',*,*,#567,.F.);
#569=ORIENTED_EDGE('',*,*,#548,.F.);
#571=ORIENTED_EDGE('',*,*,#570,.F.);
#573=ORIENTED_EDGE('',*,*,#572,.F.);
#574=ORIENTED_EDGE('',*,*,#544,.T.);
#575=EDGE_LOOP('',(#566,#568,#569,#571,#573,#574));
#576=FACE_OUTER_BOUND('',#575,.F.);
#578=FILL_AREA_STYLE_COLOUR('',#20);
#579=FILL_AREA_STYLE('',(#578));
#580=SURFACE_STYLE_FILL_AREA(#579);
#581=SURFACE_SIDE_STYLE('',(#580));
#582=SURFACE_STYLE_USAGE(.POSITIVE.,#581);
#583=PRESENTATION_STYLE_ASSIGNMENT((#582));
#584=STYLED_ITEM('',(#583),#577);
#585=CARTESIAN_POINT('',(0.E0,2.5E-1,0.E0));
#586=DIRECTION('',(0.E0,1.E0,0.E0));
#587=DIRECTION('',(-9.999779186083E-1,0.E0,-6.645471825945E-3));
#588=AXIS2_PLACEMENT_3D('',#585,#586,#587);
#589=TOROIDAL_SURFACE('',#588,3.75E0,2.5E-1);
#590=ORIENTED_EDGE('',*,*,#567,.T.);
#591=ORIENTED_EDGE('',*,*,#565,.T.);
#592=ORIENTED_EDGE('',*,*,#525,.F.);
#593=ORIENTED_EDGE('',*,*,#494,.T.);
#594=ORIENTED_EDGE('',*,*,#492,.F.);
#595=ORIENTED_EDGE('',*,*,#521,.T.);
#596=EDGE_LOOP('',(#590,#591,#592,#593,#594,#595));
#597=FACE_OUTER_BOUND('',#596,.F.);
#599=FILL_AREA_STYLE_COLOUR('',#20);
#600=FILL_AREA_STYLE('',(#599));
#601=SURFACE_STYLE_FILL_AREA(#600);
#602=SURFACE_SIDE_STYLE('',(#601));
#603=SURFACE_STYLE_USAGE(.POSITIVE.,#602);
#604=PRESENTATION_STYLE_ASSIGNMENT((#603));
#605=STYLED_ITEM('',(#604),#598);
#606=CARTESIAN_POINT('',(0.E0,4.409830056251E-1,0.E0));
#607=DIRECTION('',(0.E0,1.E0,0.E0));
#608=DIRECTION('',(9.606238117419E-3,0.E0,9.999538590301E-1));
#609=AXIS2_PLACEMENT_3D('',#606,#607,#608);
#610=TOROIDAL_SURFACE('',#609,3.5E0,5.E-1);
#611=ORIENTED_EDGE('',*,*,#570,.T.);
#613=ORIENTED_EDGE('',*,*,#612,.F.);
#615=ORIENTED_EDGE('',*,*,#614,.T.);
#617=ORIENTED_EDGE('',*,*,#616,.T.);
#618=EDGE_LOOP('',(#611,#613,#615,#617));
#619=FACE_OUTER_BOUND('',#618,.F.);
#621=FILL_AREA_STYLE_COLOUR('',#20);
#622=FILL_AREA_STYLE('',(#621));
#623=SURFACE_STYLE_FILL_AREA(#622);
#624=SURFACE_SIDE_STYLE('',(#623));
#625=SURFACE_STYLE_USAGE(.POSITIVE.,#624);
#626=PRESENTATION_STYLE_ASSIGNMENT((#625));
#627=STYLED_ITEM('',(#626),#620);
#628=CARTESIAN_POINT('',(0.E0,4.409830056251E-1,0.E0));
#629=DIRECTION('',(0.E0,1.E0,0.E0));
#630=DIRECTION('',(-9.606238117419E-3,0.E0,-9.999538590301E-1));
#631=AXIS2_PLACEMENT_3D('',#628,#629,#630);
#632=TOROIDAL_SURFACE('',#631,3.5E0,5.E-1);
#633=ORIENTED_EDGE('',*,*,#546,.T.);
#634=ORIENTED_EDGE('',*,*,#572,.T.);
#635=ORIENTED_EDGE('',*,*,#616,.F.);
#637=ORIENTED_EDGE('',*,*,#636,.F.);
#639=ORIENTED_EDGE('',*,*,#638,.F.);
#641=ORIENTED_EDGE('',*,*,#640,.T.);
#643=ORIENTED_EDGE('',*,*,#642,.T.);
#644=ORIENTED_EDGE('',*,*,#612,.T.);
#645=EDGE_LOOP('',(#633,#634,#635,#637,#639,#641,#643,#644));
#646=FACE_OUTER_BOUND('',#645,.F.);
#648=FILL_AREA_STYLE_COLOUR('',#20);
#649=FILL_AREA_STYLE('',(#648));
#650=SURFACE_STYLE_FILL_AREA(#649);
#651=SURFACE_SIDE_STYLE('',(#650));
#652=SURFACE_STYLE_USAGE(.POSITIVE.,#651);
#653=PRESENTATION_STYLE_ASSIGNMENT((#652));
#654=STYLED_ITEM('',(#653),#647);
#655=CARTESIAN_POINT('',(0.E0,1.E0,0.E0));
#656=DIRECTION('',(0.E0,1.E0,0.E0));
#657=DIRECTION('',(0.E0,0.E0,-1.E0));
#658=AXIS2_PLACEMENT_3D('',#655,#656,#657);
#659=TOROIDAL_SURFACE('',#658,4.E0,2.5E-1);
#661=ORIENTED_EDGE('',*,*,#660,.T.);
#663=ORIENTED_EDGE('',*,*,#662,.T.);
#665=ORIENTED_EDGE('',*,*,#664,.T.);
#667=ORIENTED_EDGE('',*,*,#666,.T.);
#669=ORIENTED_EDGE('',*,*,#668,.T.);
#671=ORIENTED_EDGE('',*,*,#670,.T.);
#672=ORIENTED_EDGE('',*,*,#638,.T.);
#673=ORIENTED_EDGE('',*,*,#636,.T.);
#674=EDGE_LOOP('',(#661,#663,#665,#667,#669,#671,#672,#673));
#675=FACE_OUTER_BOUND('',#674,.F.);
#677=FILL_AREA_STYLE_COLOUR('',#20);
#678=FILL_AREA_STYLE('',(#677));
#679=SURFACE_STYLE_FILL_AREA(#678);
#680=SURFACE_SIDE_STYLE('',(#679));
#681=SURFACE_STYLE_USAGE(.POSITIVE.,#680);
#682=PRESENTATION_STYLE_ASSIGNMENT((#681));
#683=STYLED_ITEM('',(#682),#676);
#684=CARTESIAN_POINT('',(0.E0,1.E0,0.E0));
#685=DIRECTION('',(0.E0,1.E0,0.E0));
#686=DIRECTION('',(0.E0,0.E0,-1.E0));
#687=AXIS2_PLACEMENT_3D('',#684,#685,#686);
#688=TOROIDAL_SURFACE('',#687,4.E0,2.5E-1);
#689=ORIENTED_EDGE('',*,*,#662,.F.);
#690=ORIENTED_EDGE('',*,*,#660,.F.);
#691=ORIENTED_EDGE('',*,*,#614,.F.);
#692=ORIENTED_EDGE('',*,*,#642,.F.);
#693=ORIENTED_EDGE('',*,*,#640,.F.);
#694=ORIENTED_EDGE('',*,*,#670,.F.);
#695=ORIENTED_EDGE('',*,*,#668,.F.);
#697=ORIENTED_EDGE('',*,*,#696,.F.);
#699=ORIENTED_EDGE('',*,*,#698,.F.);
#701=ORIENTED_EDGE('',*,*,#700,.F.);
#702=EDGE_LOOP('',(#689,#690,#691,#692,#693,#694,#695,#697,#699,#701));
#703=FACE_OUTER_BOUND('',#702,.F.);
#705=FILL_AREA_STYLE_COLOUR('',#20);
#706=FILL_AREA_STYLE('',(#705));
#707=SURFACE_STYLE_FILL_AREA(#706);
#708=SURFACE_SIDE_STYLE('',(#707));
#709=SURFACE_STYLE_USAGE(.POSITIVE.,#708);
#710=PRESENTATION_STYLE_ASSIGNMENT((#709));
#711=STYLED_ITEM('',(#710),#704);
#712=CARTESIAN_POINT('',(0.E0,1.559016994375E0,0.E0));
#713=DIRECTION('',(0.E0,1.E0,0.E0));
#714=DIRECTION('',(9.999779186083E-1,0.E0,6.645471825945E-3));
#715=AXIS2_PLACEMENT_3D('',#712,#713,#714);
#716=TOROIDAL_SURFACE('',#715,3.5E0,5.E-1);
#718=ORIENTED_EDGE('',*,*,#717,.T.);
#720=ORIENTED_EDGE('',*,*,#719,.T.);
#722=ORIENTED_EDGE('',*,*,#721,.F.);
#723=ORIENTED_EDGE('',*,*,#698,.T.);
#724=ORIENTED_EDGE('',*,*,#696,.T.);
#725=ORIENTED_EDGE('',*,*,#666,.F.);
#726=ORIENTED_EDGE('',*,*,#664,.F.);
#728=ORIENTED_EDGE('',*,*,#727,.T.);
#730=ORIENTED_EDGE('',*,*,#729,.T.);
#732=ORIENTED_EDGE('',*,*,#731,.T.);
#733=EDGE_LOOP('',(#718,#720,#722,#723,#724,#725,#726,#728,#730,#732));
#734=FACE_OUTER_BOUND('',#733,.F.);
#736=FILL_AREA_STYLE_COLOUR('',#20);
#737=FILL_AREA_STYLE('',(#736));
#738=SURFACE_STYLE_FILL_AREA(#737);
#739=SURFACE_SIDE_STYLE('',(#738));
#740=SURFACE_STYLE_USAGE(.POSITIVE.,#739);
#741=PRESENTATION_STYLE_ASSIGNMENT((#740));
#742=STYLED_ITEM('',(#741),#735);
#743=CARTESIAN_POINT('',(0.E0,0.E0,0.E0));
#744=DIRECTION('',(0.E0,1.E0,0.E0));
#745=DIRECTION('',(1.E0,0.E0,0.E0));
#746=AXIS2_PLACEMENT_3D('',#743,#744,#745);
#747=CYLINDRICAL_SURFACE('',#746,4.E0);
#749=ORIENTED_EDGE('',*,*,#748,.F.);
#751=ORIENTED_EDGE('',*,*,#750,.F.);
#753=ORIENTED_EDGE('',*,*,#752,.T.);
#754=ORIENTED_EDGE('',*,*,#719,.F.);
#755=ORIENTED_EDGE('',*,*,#717,.F.);
#757=ORIENTED_EDGE('',*,*,#756,.F.);
#758=EDGE_LOOP('',(#749,#751,#753,#754,#755,#757));
#759=FACE_OUTER_BOUND('',#758,.F.);
#761=FILL_AREA_STYLE_COLOUR('',#20);
#762=FILL_AREA_STYLE('',(#761));
#763=SURFACE_STYLE_FILL_AREA(#762);
#764=SURFACE_SIDE_STYLE('',(#763));
#765=SURFACE_STYLE_USAGE(.POSITIVE.,#764);
#766=PRESENTATION_STYLE_ASSIGNMENT((#765));
#767=STYLED_ITEM('',(#766),#760);
#768=CARTESIAN_POINT('',(0.E0,1.185E1,0.E0));
#769=DIRECTION('',(0.E0,1.E0,0.E0));
#770=DIRECTION('',(-9.999814203622E-1,0.E0,6.095812532879E-3));
#771=AXIS2_PLACEMENT_3D('',#768,#769,#770);
#772=TOROIDAL_SURFACE('',#771,3.85E0,1.5E-1);
#773=ORIENTED_EDGE('',*,*,#750,.T.);
#774=ORIENTED_EDGE('',*,*,#748,.T.);
#776=ORIENTED_EDGE('',*,*,#775,.F.);
#778=ORIENTED_EDGE('',*,*,#777,.T.);
#780=ORIENTED_EDGE('',*,*,#779,.F.);
#782=ORIENTED_EDGE('',*,*,#781,.T.);
#783=EDGE_LOOP('',(#773,#774,#776,#778,#780,#782));
#784=FACE_OUTER_BOUND('',#783,.F.);
#786=FILL_AREA_STYLE_COLOUR('',#20);
#787=FILL_AREA_STYLE('',(#786));
#788=SURFACE_STYLE_FILL_AREA(#787);
#789=SURFACE_SIDE_STYLE('',(#788));
#790=SURFACE_STYLE_USAGE(.POSITIVE.,#789);
#791=PRESENTATION_STYLE_ASSIGNMENT((#790));
#792=STYLED_ITEM('',(#791),#785);
#793=CARTESIAN_POINT('',(0.E0,1.185E1,0.E0));
#794=DIRECTION('',(0.E0,1.E0,0.E0));
#795=DIRECTION('',(9.999814203622E-1,0.E0,-6.095812532879E-3));
#796=AXIS2_PLACEMENT_3D('',#793,#794,#795);
#797=TOROIDAL_SURFACE('',#796,3.85E0,1.5E-1);
#799=ORIENTED_EDGE('',*,*,#798,.T.);
#801=ORIENTED_EDGE('',*,*,#800,.T.);
#802=ORIENTED_EDGE('',*,*,#781,.F.);
#804=ORIENTED_EDGE('',*,*,#803,.T.);
#806=ORIENTED_EDGE('',*,*,#805,.F.);
#807=ORIENTED_EDGE('',*,*,#775,.T.);
#808=EDGE_LOOP('',(#799,#801,#802,#804,#806,#807));
#809=FACE_OUTER_BOUND('',#808,.F.);
#811=FILL_AREA_STYLE_COLOUR('',#20);
#812=FILL_AREA_STYLE('',(#811));
#813=SURFACE_STYLE_FILL_AREA(#812);
#814=SURFACE_SIDE_STYLE('',(#813));
#815=SURFACE_STYLE_USAGE(.POSITIVE.,#814);
#816=PRESENTATION_STYLE_ASSIGNMENT((#815));
#817=STYLED_ITEM('',(#816),#810);
#818=CARTESIAN_POINT('',(0.E0,0.E0,0.E0));
#819=DIRECTION('',(0.E0,1.E0,0.E0));
#820=DIRECTION('',(1.E0,0.E0,0.E0));
#821=AXIS2_PLACEMENT_3D('',#818,#819,#820);
#822=CYLINDRICAL_SURFACE('',#821,4.E0);
#823=ORIENTED_EDGE('',*,*,#800,.F.);
#824=ORIENTED_EDGE('',*,*,#798,.F.);
#825=ORIENTED_EDGE('',*,*,#756,.T.);
#826=ORIENTED_EDGE('',*,*,#731,.F.);
#827=ORIENTED_EDGE('',*,*,#729,.F.);
#829=ORIENTED_EDGE('',*,*,#828,.F.);
#830=ORIENTED_EDGE('',*,*,#752,.F.);
#831=EDGE_LOOP('',(#823,#824,#825,#826,#827,#829,#830));
#832=FACE_OUTER_BOUND('',#831,.F.);
#834=FILL_AREA_STYLE_COLOUR('',#20);
#835=FILL_AREA_STYLE('',(#834));
#836=SURFACE_STYLE_FILL_AREA(#835);
#837=SURFACE_SIDE_STYLE('',(#836));
#838=SURFACE_STYLE_USAGE(.POSITIVE.,#837);
#839=PRESENTATION_STYLE_ASSIGNMENT((#838));
#840=STYLED_ITEM('',(#839),#833);
#841=CARTESIAN_POINT('',(0.E0,1.559016994375E0,0.E0));
#842=DIRECTION('',(0.E0,1.E0,0.E0));
#843=DIRECTION('',(-9.999779186083E-1,0.E0,-6.645471825945E-3));
#844=AXIS2_PLACEMENT_3D('',#841,#842,#843);
#845=TOROIDAL_SURFACE('',#844,3.5E0,5.E-1);
#846=ORIENTED_EDGE('',*,*,#828,.T.);
#847=ORIENTED_EDGE('',*,*,#727,.F.);
#848=ORIENTED_EDGE('',*,*,#700,.T.);
#849=ORIENTED_EDGE('',*,*,#721,.T.);
#850=EDGE_LOOP('',(#846,#847,#848,#849));
#851=FACE_OUTER_BOUND('',#850,.F.);
#853=FILL_AREA_STYLE_COLOUR('',#20);
#854=FILL_AREA_STYLE('',(#853));
#855=SURFACE_STYLE_FILL_AREA(#854);
#856=SURFACE_SIDE_STYLE('',(#855));
#857=SURFACE_STYLE_USAGE(.POSITIVE.,#856);
#858=PRESENTATION_STYLE_ASSIGNMENT((#857));
#859=STYLED_ITEM('',(#858),#852);
#860=CARTESIAN_POINT('',(0.E0,1.2E1,0.E0));
#861=DIRECTION('',(0.E0,1.E0,0.E0));
#862=DIRECTION('',(1.E0,0.E0,0.E0));
#863=AXIS2_PLACEMENT_3D('',#860,#861,#862);
#864=PLANE('',#863);
#865=ORIENTED_EDGE('',*,*,#779,.T.);
#866=ORIENTED_EDGE('',*,*,#777,.F.);
#867=ORIENTED_EDGE('',*,*,#805,.T.);
#868=ORIENTED_EDGE('',*,*,#803,.F.);
#869=EDGE_LOOP('',(#865,#866,#867,#868));
#870=FACE_OUTER_BOUND('',#869,.F.);
#872=ORIENTED_EDGE('',*,*,#871,.T.);
#874=ORIENTED_EDGE('',*,*,#873,.T.);
#875=EDGE_LOOP('',(#872,#874));
#876=FACE_BOUND('',#875,.F.);
#878=FILL_AREA_STYLE_COLOUR('',#20);
#879=FILL_AREA_STYLE('',(#878));
#880=SURFACE_STYLE_FILL_AREA(#879);
#881=SURFACE_SIDE_STYLE('',(#880));
#882=SURFACE_STYLE_USAGE(.POSITIVE.,#881);
#883=PRESENTATION_STYLE_ASSIGNMENT((#882));
#884=STYLED_ITEM('',(#883),#877);
#885=CARTESIAN_POINT('',(0.E0,1.2E1,0.E0));
#886=DIRECTION('',(0.E0,1.E0,0.E0));
#887=DIRECTION('',(0.E0,0.E0,-1.E0));
#888=AXIS2_PLACEMENT_3D('',#885,#886,#887);
#889=CYLINDRICAL_SURFACE('',#888,3.E0);
#890=ORIENTED_EDGE('',*,*,#871,.F.);
#892=ORIENTED_EDGE('',*,*,#891,.F.);
#894=ORIENTED_EDGE('',*,*,#893,.F.);
#896=ORIENTED_EDGE('',*,*,#895,.T.);
#897=EDGE_LOOP('',(#890,#892,#894,#896));
#898=FACE_OUTER_BOUND('',#897,.F.);
#900=CARTESIAN_POINT('',(0.E0,1.2E1,0.E0));
#901=DIRECTION('',(0.E0,1.E0,0.E0));
#902=DIRECTION('',(0.E0,0.E0,-1.E0));
#903=AXIS2_PLACEMENT_3D('',#900,#901,#902);
#904=CYLINDRICAL_SURFACE('',#903,3.E0);
#905=ORIENTED_EDGE('',*,*,#873,.F.);
#906=ORIENTED_EDGE('',*,*,#895,.F.);
#908=ORIENTED_EDGE('',*,*,#907,.F.);
#909=ORIENTED_EDGE('',*,*,#891,.T.);
#910=EDGE_LOOP('',(#905,#906,#908,#909));
#911=FACE_OUTER_BOUND('',#910,.F.);
#913=CARTESIAN_POINT('',(0.E0,1.198E1,0.E0));
#914=DIRECTION('',(0.E0,1.E0,0.E0));
#915=DIRECTION('',(0.E0,0.E0,-1.E0));
#916=AXIS2_PLACEMENT_3D('',#913,#914,#915);
#917=PLANE('',#916);
#918=ORIENTED_EDGE('',*,*,#893,.T.);
#919=ORIENTED_EDGE('',*,*,#907,.T.);
#920=EDGE_LOOP('',(#918,#919));
#921=FACE_OUTER_BOUND('',#920,.F.);
#923=FILL_AREA_STYLE_COLOUR('',#18);
#924=FILL_AREA_STYLE('',(#923));
#925=SURFACE_STYLE_FILL_AREA(#924);
#926=SURFACE_SIDE_STYLE('',(#925));
#927=SURFACE_STYLE_USAGE(.POSITIVE.,#926);
#928=PRESENTATION_STYLE_ASSIGNMENT((#927));
#929=STYLED_ITEM('',(#928),#922);
#930=CARTESIAN_POINT('',(0.E0,0.E0,0.E0));
#931=DIRECTION('',(0.E0,-1.E0,0.E0));
#932=DIRECTION('',(0.E0,0.E0,1.E0));
#933=AXIS2_PLACEMENT_3D('',#930,#931,#932);
#934=CYLINDRICAL_SURFACE('',#933,2.9E0);
#935=ORIENTED_EDGE('',*,*,#498,.F.);
#937=ORIENTED_EDGE('',*,*,#936,.F.);
#939=ORIENTED_EDGE('',*,*,#938,.F.);
#941=ORIENTED_EDGE('',*,*,#940,.T.);
#942=EDGE_LOOP('',(#935,#937,#939,#941));
#943=FACE_OUTER_BOUND('',#942,.F.);
#945=FILL_AREA_STYLE_COLOUR('',#20);
#946=FILL_AREA_STYLE('',(#945));
#947=SURFACE_STYLE_FILL_AREA(#946);
#948=SURFACE_SIDE_STYLE('',(#947));
#949=SURFACE_STYLE_USAGE(.POSITIVE.,#948);
#950=PRESENTATION_STYLE_ASSIGNMENT((#949));
#951=STYLED_ITEM('',(#950),#944);
#952=CARTESIAN_POINT('',(0.E0,0.E0,0.E0));
#953=DIRECTION('',(0.E0,-1.E0,0.E0));
#954=DIRECTION('',(0.E0,0.E0,1.E0));
#955=AXIS2_PLACEMENT_3D('',#952,#953,#954);
#956=CYLINDRICAL_SURFACE('',#955,2.9E0);
#957=ORIENTED_EDGE('',*,*,#500,.F.);
#958=ORIENTED_EDGE('',*,*,#940,.F.);
#960=ORIENTED_EDGE('',*,*,#959,.F.);
#961=ORIENTED_EDGE('',*,*,#936,.T.);
#962=EDGE_LOOP('',(#957,#958,#960,#961));
#963=FACE_OUTER_BOUND('',#962,.F.);
#965=FILL_AREA_STYLE_COLOUR('',#20);
#966=FILL_AREA_STYLE('',(#965));
#967=SURFACE_STYLE_FILL_AREA(#966);
#968=SURFACE_SIDE_STYLE('',(#967));
#969=SURFACE_STYLE_USAGE(.POSITIVE.,#968);
#970=PRESENTATION_STYLE_ASSIGNMENT((#969));
#971=STYLED_ITEM('',(#970),#964);
#972=CARTESIAN_POINT('',(0.E0,1.E-1,0.E0));
#973=DIRECTION('',(0.E0,-1.E0,0.E0));
#974=DIRECTION('',(0.E0,0.E0,1.E0));
#975=AXIS2_PLACEMENT_3D('',#972,#973,#974);
#976=PLANE('',#975);
#977=ORIENTED_EDGE('',*,*,#938,.T.);
#978=ORIENTED_EDGE('',*,*,#959,.T.);
#979=EDGE_LOOP('',(#977,#978));
#980=FACE_OUTER_BOUND('',#979,.F.);
#982=ORIENTED_EDGE('',*,*,#981,.T.);
#984=ORIENTED_EDGE('',*,*,#983,.T.);
#985=EDGE_LOOP('',(#982,#984));
#986=FACE_BOUND('',#985,.F.);
#988=ORIENTED_EDGE('',*,*,#987,.T.);
#990=ORIENTED_EDGE('',*,*,#989,.T.);
#991=EDGE_LOOP('',(#988,#990));
#992=FACE_BOUND('',#991,.F.);
#994=FILL_AREA_STYLE_COLOUR('',#4);
#995=FILL_AREA_STYLE('',(#994));
#996=SURFACE_STYLE_FILL_AREA(#995);
#997=SURFACE_SIDE_STYLE('',(#996));
#998=SURFACE_STYLE_USAGE(.POSITIVE.,#997);
#999=PRESENTATION_STYLE_ASSIGNMENT((#998));
#1000=STYLED_ITEM('',(#999),#993);
#1001=CARTESIAN_POINT('',(0.E0,1.E-1,1.75E0));
#1002=DIRECTION('',(0.E0,-1.E0,0.E0));
#1003=DIRECTION('',(0.E0,0.E0,-1.E0));
#1004=AXIS2_PLACEMENT_3D('',#1001,#1002,#1003);
#1005=CYLINDRICAL_SURFACE('',#1004,3.E-1);
#1006=ORIENTED_EDGE('',*,*,#981,.F.);
#1008=ORIENTED_EDGE('',*,*,#1007,.F.);
#1010=ORIENTED_EDGE('',*,*,#1009,.F.);
#1012=ORIENTED_EDGE('',*,*,#1011,.T.);
#1013=EDGE_LOOP('',(#1006,#1008,#1010,#1012));
#1014=FACE_OUTER_BOUND('',#1013,.F.);
#1016=FILL_AREA_STYLE_COLOUR('',#13);
#1017=FILL_AREA_STYLE('',(#1016));
#1018=SURFACE_STYLE_FILL_AREA(#1017);
#1019=SURFACE_SIDE_STYLE('',(#1018));
#1020=SURFACE_STYLE_USAGE(.POSITIVE.,#1019);
#1021=PRESENTATION_STYLE_ASSIGNMENT((#1020));
#1022=STYLED_ITEM('',(#1021),#1015);
#1023=CARTESIAN_POINT('',(0.E0,1.E-1,1.75E0));
#1024=DIRECTION('',(0.E0,-1.E0,0.E0));
#1025=DIRECTION('',(0.E0,0.E0,-1.E0));
#1026=AXIS2_PLACEMENT_3D('',#1023,#1024,#1025);
#1027=CYLINDRICAL_SURFACE('',#1026,3.E-1);
#1028=ORIENTED_EDGE('',*,*,#983,.F.);
#1029=ORIENTED_EDGE('',*,*,#1011,.F.);
#1031=ORIENTED_EDGE('',*,*,#1030,.F.);
#1032=ORIENTED_EDGE('',*,*,#1007,.T.);
#1033=EDGE_LOOP('',(#1028,#1029,#1031,#1032));
#1034=FACE_OUTER_BOUND('',#1033,.F.);
#1036=FILL_AREA_STYLE_COLOUR('',#13);
#1037=FILL_AREA_STYLE('',(#1036));
#1038=SURFACE_STYLE_FILL_AREA(#1037);
#1039=SURFACE_SIDE_STYLE('',(#1038));
#1040=SURFACE_STYLE_USAGE(.POSITIVE.,#1039);
#1041=PRESENTATION_STYLE_ASSIGNMENT((#1040));
#1042=STYLED_ITEM('',(#1041),#1035);
#1043=CARTESIAN_POINT('',(0.E0,-1.99E1,0.E0));
#1044=DIRECTION('',(0.E0,-1.E0,0.E0));
#1045=DIRECTION('',(0.E0,0.E0,-1.E0));
#1046=AXIS2_PLACEMENT_3D('',#1043,#1044,#1045);
#1047=PLANE('',#1046);
#1048=ORIENTED_EDGE('',*,*,#1009,.T.);
#1049=ORIENTED_EDGE('',*,*,#1030,.T.);
#1050=EDGE_LOOP('',(#1048,#1049));
#1051=FACE_OUTER_BOUND('',#1050,.F.);
#1053=FILL_AREA_STYLE_COLOUR('',#13);
#1054=FILL_AREA_STYLE('',(#1053));
#1055=SURFACE_STYLE_FILL_AREA(#1054);
#1056=SURFACE_SIDE_STYLE('',(#1055));
#1057=SURFACE_STYLE_USAGE(.POSITIVE.,#1056);
#1058=PRESENTATION_STYLE_ASSIGNMENT((#1057));
#1059=STYLED_ITEM('',(#1058),#1052);
#1060=CARTESIAN_POINT('',(0.E0,1.E-1,-1.75E0));
#1061=DIRECTION('',(0.E0,-1.E0,0.E0));
#1062=DIRECTION('',(-1.E0,0.E0,0.E0));
#1063=AXIS2_PLACEMENT_3D('',#1060,#1061,#1062);
#1064=CYLINDRICAL_SURFACE('',#1063,3.E-1);
#1065=ORIENTED_EDGE('',*,*,#987,.F.);
#1067=ORIENTED_EDGE('',*,*,#1066,.F.);
#1069=ORIENTED_EDGE('',*,*,#1068,.F.);
#1071=ORIENTED_EDGE('',*,*,#1070,.T.);
#1072=EDGE_LOOP('',(#1065,#1067,#1069,#1071));
#1073=FACE_OUTER_BOUND('',#1072,.F.);
#1075=FILL_AREA_STYLE_COLOUR('',#13);
#1076=FILL_AREA_STYLE('',(#1075));
#1077=SURFACE_STYLE_FILL_AREA(#1076);
#1078=SURFACE_SIDE_STYLE('',(#1077));
#1079=SURFACE_STYLE_USAGE(.POSITIVE.,#1078);
#1080=PRESENTATION_STYLE_ASSIGNMENT((#1079));
#1081=STYLED_ITEM('',(#1080),#1074);
#1082=CARTESIAN_POINT('',(0.E0,1.E-1,-1.75E0));
#1083=DIRECTION('',(0.E0,-1.E0,0.E0));
#1084=DIRECTION('',(-1.E0,0.E0,0.E0));
#1085=AXIS2_PLACEMENT_3D('',#1082,#1083,#1084);
#1086=CYLINDRICAL_SURFACE('',#1085,3.E-1);
#1087=ORIENTED_EDGE('',*,*,#989,.F.);
#1088=ORIENTED_EDGE('',*,*,#1070,.F.);
#1090=ORIENTED_EDGE('',*,*,#1089,.F.);
#1091=ORIENTED_EDGE('',*,*,#1066,.T.);
#1092=EDGE_LOOP('',(#1087,#1088,#1090,#1091));
#1093=FACE_OUTER_BOUND('',#1092,.F.);
#1095=FILL_AREA_STYLE_COLOUR('',#13);
#1096=FILL_AREA_STYLE('',(#1095));
#1097=SURFACE_STYLE_FILL_AREA(#1096);
#1098=SURFACE_SIDE_STYLE('',(#1097));
#1099=SURFACE_STYLE_USAGE(.POSITIVE.,#1098);
#1100=PRESENTATION_STYLE_ASSIGNMENT((#1099));
#1101=STYLED_ITEM('',(#1100),#1094);
#1102=CARTESIAN_POINT('',(0.E0,-2.49E1,0.E0));
#1103=DIRECTION('',(0.E0,-1.E0,0.E0));
#1104=DIRECTION('',(-1.E0,0.E0,0.E0));
#1105=AXIS2_PLACEMENT_3D('',#1102,#1103,#1104);
#1106=PLANE('',#1105);
#1107=ORIENTED_EDGE('',*,*,#1068,.T.);
#1108=ORIENTED_EDGE('',*,*,#1089,.T.);
#1109=EDGE_LOOP('',(#1107,#1108));
#1110=FACE_OUTER_BOUND('',#1109,.F.);
#1112=FILL_AREA_STYLE_COLOUR('',#13);
#1113=FILL_AREA_STYLE('',(#1112));
#1114=SURFACE_STYLE_FILL_AREA(#1113);
#1115=SURFACE_SIDE_STYLE('',(#1114));
#1116=SURFACE_STYLE_USAGE(.POSITIVE.,#1115);
#1117=PRESENTATION_STYLE_ASSIGNMENT((#1116));
#1118=STYLED_ITEM('',(#1117),#1111);
#1119=CLOSED_SHELL('',(#504,#529,#552,#577,#598,#620,#647,#676,#704,#735,#760,
#785,#810,#833,#852,#877,#899,#912,#922,#944,#964,#993,#1015,#1035,#1052,#1074,
#1094,#1111));
#1120=MANIFOLD_SOLID_BREP('',#1119);
#1123=PLANE_ANGLE_MEASURE_WITH_UNIT(PLANE_ANGLE_MEASURE(1.745329251994E-2),
#1122);
#1124=(CONVERSION_BASED_UNIT('DEGREE',#1123)NAMED_UNIT(*)PLANE_ANGLE_UNIT());
#1126=UNCERTAINTY_MEASURE_WITH_UNIT(LENGTH_MEASURE(3.859392223632E-3),#1121,
'distance_accuracy_value',
'Maximum model space distance between geometric entities at asserted connectivities');
#1128=CARTESIAN_POINT('',(0.E0,0.E0,0.E0));
#1129=DIRECTION('',(0.E0,0.E0,1.E0));
#1130=DIRECTION('',(1.E0,0.E0,0.E0));
#1133=APPLICATION_CONTEXT('automotive_design');
#1134=APPLICATION_PROTOCOL_DEFINITION('international standard',
'automotive_design',2001,#1133);
#1135=PRODUCT_DEFINITION_CONTEXT('part definition',#1133,'design');
#1136=PRODUCT_CONTEXT('',#1133,'mechanical');
#1137=PRODUCT('08000120-LKM','08000120-LKM','NOT SPECIFIED',(#1136));
#1138=PRODUCT_DEFINITION_FORMATION('1','LAST_VERSION',#1137);
#1146=DERIVED_UNIT_ELEMENT(#1145,2.E0);
#1147=DERIVED_UNIT((#1146));
#1148=MEASURE_REPRESENTATION_ITEM('surface area measure',AREA_MEASURE(
4.875155313297E2),#1147);
#1153=DERIVED_UNIT_ELEMENT(#1152,3.E0);
#1154=DERIVED_UNIT((#1153));
#1155=MEASURE_REPRESENTATION_ITEM('volume measure',VOLUME_MEASURE(
6.092587512790E2),#1154);
#1159=CARTESIAN_POINT('centre point',(-3.376269719749E-7,5.685794330529E0,
-4.060781466541E-3));
#1164=DERIVED_UNIT_ELEMENT(#1163,2.E0);
#1165=DERIVED_UNIT((#1164));
#1166=MEASURE_REPRESENTATION_ITEM('surface area measure',AREA_MEASURE(
4.875155313297E2),#1165);
#1171=DERIVED_UNIT_ELEMENT(#1170,3.E0);
#1172=DERIVED_UNIT((#1171));
#1173=MEASURE_REPRESENTATION_ITEM('volume measure',VOLUME_MEASURE(
6.092587512790E2),#1172);
#1177=CARTESIAN_POINT('centre point',(-3.376269719749E-7,5.685794330529E0,
-4.060781466541E-3));
#1187=CARTESIAN_POINT('centre point',(3.999999662373E0,3.058579433053E1,
-4.004060781467E0));
#1191=CARTESIAN_POINT('',(4.E0,2.49E1,-4.E0));
#1192=DIRECTION('',(0.E0,0.E0,1.E0));
#1193=DIRECTION('',(1.E0,0.E0,0.E0));
#1194=AXIS2_PLACEMENT_3D('',#1191,#1192,#1193);
#1195=ITEM_DEFINED_TRANSFORMATION('','',#1131,#1194);
#1196=(REPRESENTATION_RELATIONSHIP('','',#1132,#1184)REPRESENTATION_RELATIONSHIP_WITH_TRANSFORMATION(#1195)SHAPE_REPRESENTATION_RELATIONSHIP());
#1197=CONTEXT_DEPENDENT_SHAPE_REPRESENTATION(#1196,#1186);
#1199=CARTESIAN_POINT('',(0.E0,0.E0,0.E0));
#1200=DIRECTION('',(0.E0,-1.E0,0.E0));
#1201=DIRECTION('',(2.993303770323E-1,0.E0,9.541495298881E-1));
#1202=AXIS2_PLACEMENT_3D('',#1199,#1200,#1201);
#1204=CARTESIAN_POINT('',(0.E0,0.E0,0.E0));
#1205=DIRECTION('',(0.E0,1.E0,0.E0));
#1206=DIRECTION('',(-2.989566811810E-1,0.E0,9.542666832585E-1));
#1207=AXIS2_PLACEMENT_3D('',#1204,#1205,#1206);
#1209=DIRECTION('',(0.E0,1.E0,0.E0));
#1210=VECTOR('',#1209,1.02E1);
#1211=CARTESIAN_POINT('',(1.197321508129E0,0.E0,3.816598119552E0));
#1212=LINE('',#1211,#1210);
#1213=DIRECTION('',(0.E0,-1.E0,0.E0));
#1214=VECTOR('',#1213,1.02E1);
#1215=CARTESIAN_POINT('',(-1.197321508130E0,1.02E1,3.816598119552E0));
#1216=LINE('',#1215,#1214);
#1217=DIRECTION('',(-1.432286966231E-11,0.E0,1.E0));
#1218=VECTOR('',#1217,5.239946898501E-3);
#1219=CARTESIAN_POINT('',(1.197321508129E0,0.E0,3.816598119552E0));
#1220=LINE('',#1219,#1218);
#1221=DIRECTION('',(0.E0,1.E0,0.E0));
#1222=VECTOR('',#1221,1.02E1);
#1223=CARTESIAN_POINT('',(-1.197321508130E0,0.E0,3.821838066450E0));
#1224=LINE('',#1223,#1222);
#1225=DIRECTION('',(0.E0,-1.E0,0.E0));
#1226=VECTOR('',#1225,1.02E1);
#1227=CARTESIAN_POINT('',(1.197321508129E0,1.02E1,3.821838066451E0));
#1228=LINE('',#1227,#1226);
#1229=DIRECTION('',(3.686655800912E-12,0.E0,-1.E0));
#1230=VECTOR('',#1229,5.239946898135E-3);
#1231=CARTESIAN_POINT('',(-1.197321508130E0,0.E0,3.821838066450E0));
#1232=LINE('',#1231,#1230);
#1233=CARTESIAN_POINT('',(0.E0,1.02E1,0.E0));
#1234=DIRECTION('',(0.E0,1.E0,0.E0));
#1235=DIRECTION('',(-2.993303770325E-1,0.E0,9.541495298880E-1));
#1236=AXIS2_PLACEMENT_3D('',#1233,#1234,#1235);
#1238=DIRECTION('',(-1.432286966231E-11,0.E0,1.E0));
#1239=VECTOR('',#1238,5.239946898502E-3);
#1240=CARTESIAN_POINT('',(1.197321508129E0,1.02E1,3.816598119552E0));
#1241=LINE('',#1240,#1239);
#1242=CARTESIAN_POINT('',(0.E0,1.02E1,0.E0));
#1243=DIRECTION('',(0.E0,-1.E0,0.E0));
#1244=DIRECTION('',(2.989566811808E-1,0.E0,9.542666832586E-1));
#1245=AXIS2_PLACEMENT_3D('',#1242,#1243,#1244);
#1247=DIRECTION('',(3.644280446878E-12,0.E0,-1.E0));
#1248=VECTOR('',#1247,5.239946898135E-3);
#1249=CARTESIAN_POINT('',(-1.197321508130E0,1.02E1,3.821838066450E0));
#1250=LINE('',#1249,#1248);
#1251=CARTESIAN_POINT('',(1.197321508129E0,0.E0,3.816598119553E0));
#1252=CARTESIAN_POINT('',(-1.197321508130E0,0.E0,3.816598119552E0));
#1253=VERTEX_POINT('',#1251);
#1254=VERTEX_POINT('',#1252);
#1255=CARTESIAN_POINT('',(-1.197321508130E0,0.E0,3.821838066450E0));
#1256=VERTEX_POINT('',#1255);
#1257=CARTESIAN_POINT('',(1.197321508129E0,0.E0,3.821838066451E0));
#1258=VERTEX_POINT('',#1257);
#1259=CARTESIAN_POINT('',(1.197321508129E0,1.02E1,3.816598119552E0));
#1260=VERTEX_POINT('',#1259);
#1261=CARTESIAN_POINT('',(-1.197321508130E0,1.02E1,3.816598119552E0));
#1262=VERTEX_POINT('',#1261);
#1263=CARTESIAN_POINT('',(1.197321508129E0,1.02E1,3.821838066451E0));
#1264=VERTEX_POINT('',#1263);
#1265=CARTESIAN_POINT('',(-1.197321508130E0,1.02E1,3.821838066450E0));
#1266=VERTEX_POINT('',#1265);
#1267=CARTESIAN_POINT('',(0.E0,0.E0,0.E0));
#1268=DIRECTION('',(0.E0,1.E0,0.E0));
#1269=DIRECTION('',(1.E0,0.E0,0.E0));
#1270=AXIS2_PLACEMENT_3D('',#1267,#1268,#1269);
#1271=PLANE('',#1270);
#1273=ORIENTED_EDGE('',*,*,#1272,.T.);
#1275=ORIENTED_EDGE('',*,*,#1274,.F.);
#1277=ORIENTED_EDGE('',*,*,#1276,.T.);
#1279=ORIENTED_EDGE('',*,*,#1278,.F.);
#1280=EDGE_LOOP('',(#1273,#1275,#1277,#1279));
#1281=FACE_OUTER_BOUND('',#1280,.F.);
#1283=CARTESIAN_POINT('',(0.E0,0.E0,0.E0));
#1284=DIRECTION('',(0.E0,1.E0,0.E0));
#1285=DIRECTION('',(1.E0,0.E0,0.E0));
#1286=AXIS2_PLACEMENT_3D('',#1283,#1284,#1285);
#1287=CYLINDRICAL_SURFACE('',#1286,4.E0);
#1288=ORIENTED_EDGE('',*,*,#1272,.F.);
#1290=ORIENTED_EDGE('',*,*,#1289,.T.);
#1292=ORIENTED_EDGE('',*,*,#1291,.F.);
#1294=ORIENTED_EDGE('',*,*,#1293,.T.);
#1295=EDGE_LOOP('',(#1288,#1290,#1292,#1294));
#1296=FACE_OUTER_BOUND('',#1295,.F.);
#1298=CARTESIAN_POINT('',(1.197321508129E0,0.E0,3.821838066451E0));
#1299=DIRECTION('',(1.E0,0.E0,0.E0));
#1300=DIRECTION('',(0.E0,0.E0,-1.E0));
#1301=AXIS2_PLACEMENT_3D('',#1298,#1299,#1300);
#1302=PLANE('',#1301);
#1303=ORIENTED_EDGE('',*,*,#1278,.T.);
#1305=ORIENTED_EDGE('',*,*,#1304,.F.);
#1307=ORIENTED_EDGE('',*,*,#1306,.F.);
#1308=ORIENTED_EDGE('',*,*,#1289,.F.);
#1309=EDGE_LOOP('',(#1303,#1305,#1307,#1308));
#1310=FACE_OUTER_BOUND('',#1309,.F.);
#1312=CARTESIAN_POINT('',(0.E0,0.E0,0.E0));
#1313=DIRECTION('',(0.E0,1.E0,0.E0));
#1314=DIRECTION('',(1.E0,0.E0,0.E0));
#1315=AXIS2_PLACEMENT_3D('',#1312,#1313,#1314);
#1316=CYLINDRICAL_SURFACE('',#1315,4.005E0);
#1317=ORIENTED_EDGE('',*,*,#1276,.F.);
#1319=ORIENTED_EDGE('',*,*,#1318,.T.);
#1321=ORIENTED_EDGE('',*,*,#1320,.F.);
#1322=ORIENTED_EDGE('',*,*,#1304,.T.);
#1323=EDGE_LOOP('',(#1317,#1319,#1321,#1322));
#1324=FACE_OUTER_BOUND('',#1323,.F.);
#1326=FILL_AREA_STYLE_COLOUR('',#1198);
#1327=FILL_AREA_STYLE('',(#1326));
#1328=SURFACE_STYLE_FILL_AREA(#1327);
#1329=SURFACE_SIDE_STYLE('',(#1328));
#1330=SURFACE_STYLE_USAGE(.POSITIVE.,#1329);
#1331=PRESENTATION_STYLE_ASSIGNMENT((#1330));
#1332=STYLED_ITEM('',(#1331),#1325);
#1333=CARTESIAN_POINT('',(-1.197321508130E0,0.E0,3.816598119552E0));
#1334=DIRECTION('',(-1.E0,0.E0,0.E0));
#1335=DIRECTION('',(0.E0,0.E0,1.E0));
#1336=AXIS2_PLACEMENT_3D('',#1333,#1334,#1335);
#1337=PLANE('',#1336);
#1338=ORIENTED_EDGE('',*,*,#1274,.T.);
#1339=ORIENTED_EDGE('',*,*,#1293,.F.);
#1341=ORIENTED_EDGE('',*,*,#1340,.F.);
#1342=ORIENTED_EDGE('',*,*,#1318,.F.);
#1343=EDGE_LOOP('',(#1338,#1339,#1341,#1342));
#1344=FACE_OUTER_BOUND('',#1343,.F.);
#1346=CARTESIAN_POINT('',(0.E0,1.02E1,0.E0));
#1347=DIRECTION('',(0.E0,1.E0,0.E0));
#1348=DIRECTION('',(1.E0,0.E0,0.E0));
#1349=AXIS2_PLACEMENT_3D('',#1346,#1347,#1348);
#1350=PLANE('',#1349);
#1351=ORIENTED_EDGE('',*,*,#1291,.T.);
#1352=ORIENTED_EDGE('',*,*,#1306,.T.);
#1353=ORIENTED_EDGE('',*,*,#1320,.T.);
#1354=ORIENTED_EDGE('',*,*,#1340,.T.);
#1355=EDGE_LOOP('',(#1351,#1352,#1353,#1354));
#1356=FACE_OUTER_BOUND('',#1355,.F.);
#1358=CLOSED_SHELL('',(#1282,#1297,#1311,#1325,#1345,#1357));
#1359=MANIFOLD_SOLID_BREP('',#1358);
#1362=PLANE_ANGLE_MEASURE_WITH_UNIT(PLANE_ANGLE_MEASURE(1.745329251994E-2),
#1361);
#1363=(CONVERSION_BASED_UNIT('DEGREE',#1362)NAMED_UNIT(*)PLANE_ANGLE_UNIT());
#1365=UNCERTAINTY_MEASURE_WITH_UNIT(LENGTH_MEASURE(1.047863800963E-3),#1360,
'distance_accuracy_value',
'Maximum model space distance between geometric entities at asserted connectivities');
#1367=CARTESIAN_POINT('',(0.E0,0.E0,0.E0));
#1368=DIRECTION('',(0.E0,0.E0,1.E0));
#1369=DIRECTION('',(1.E0,0.E0,0.E0));
#1372=PRODUCT_CONTEXT('',#1133,'mechanical');
#1373=PRODUCT('PRT0002','PRT0002','NOT SPECIFIED',(#1372));
#1374=PRODUCT_DEFINITION_FORMATION('1','LAST_VERSION',#1373);
#1382=DERIVED_UNIT_ELEMENT(#1381,2.E0);
#1383=DERIVED_UNIT((#1382));
#1384=MEASURE_REPRESENTATION_ITEM('surface area measure',AREA_MEASURE(
4.974151846926E1),#1383);
#1389=DERIVED_UNIT_ELEMENT(#1388,3.E0);
#1390=DERIVED_UNIT((#1389));
#1391=MEASURE_REPRESENTATION_ITEM('volume measure',VOLUME_MEASURE(
1.240257603064E-1),#1390);
#1395=CARTESIAN_POINT('centre point',(1.691858278598E-11,5.1E0,
3.941217462457E0));
#1400=DERIVED_UNIT_ELEMENT(#1399,2.E0);
#1401=DERIVED_UNIT((#1400));
#1402=MEASURE_REPRESENTATION_ITEM('surface area measure',AREA_MEASURE(
4.974151846926E1),#1401);
#1407=DERIVED_UNIT_ELEMENT(#1406,3.E0);
#1408=DERIVED_UNIT((#1407));
#1409=MEASURE_REPRESENTATION_ITEM('volume measure',VOLUME_MEASURE(
1.240257603064E-1),#1408);
#1413=CARTESIAN_POINT('centre point',(1.691858278598E-11,5.1E0,
3.941217462457E0));
#1420=CARTESIAN_POINT('centre point',(4.000000000017E0,3.163774985289E1,
-5.878253754268E-2));
#1424=CARTESIAN_POINT('',(4.E0,2.653774985289E1,-4.E0));
#1425=DIRECTION('',(0.E0,0.E0,1.E0));
#1426=DIRECTION('',(1.E0,0.E0,0.E0));
#1427=AXIS2_PLACEMENT_3D('',#1424,#1425,#1426);
#1428=ITEM_DEFINED_TRANSFORMATION('','',#1370,#1427);
#1429=(REPRESENTATION_RELATIONSHIP('','',#1371,#1184)REPRESENTATION_RELATIONSHIP_WITH_TRANSFORMATION(#1428)SHAPE_REPRESENTATION_RELATIONSHIP());
#1430=CONTEXT_DEPENDENT_SHAPE_REPRESENTATION(#1429,#1419);
#1431=CARTESIAN_POINT('',(-9.072E-3,0.E0,-6.89472E-1));
#1432=DIRECTION('',(0.E0,1.E0,0.E0));
#1433=DIRECTION('',(0.E0,0.E0,-1.E0));
#1434=AXIS2_PLACEMENT_3D('',#1431,#1432,#1433);
#1436=CARTESIAN_POINT('',(-9.072E-3,0.E0,6.89472E-1));
#1437=DIRECTION('',(0.E0,1.E0,0.E0));
#1438=DIRECTION('',(-1.E0,0.E0,0.E0));
#1439=AXIS2_PLACEMENT_3D('',#1436,#1437,#1438);
#1441=CARTESIAN_POINT('',(9.072E-3,0.E0,6.89472E-1));
#1442=DIRECTION('',(0.E0,1.E0,0.E0));
#1443=DIRECTION('',(0.E0,0.E0,1.E0));
#1444=AXIS2_PLACEMENT_3D('',#1441,#1442,#1443);
#1446=CARTESIAN_POINT('',(9.072E-3,0.E0,-6.89472E-1));
#1447=DIRECTION('',(0.E0,1.E0,0.E0));
#1448=DIRECTION('',(1.E0,0.E0,0.E0));
#1449=AXIS2_PLACEMENT_3D('',#1446,#1447,#1448);
#1451=CARTESIAN_POINT('',(1.614857178996E-3,0.E0,-5.811549743223E-1));
#1452=DIRECTION('',(0.E0,-1.E0,0.E0));
#1453=DIRECTION('',(0.E0,0.E0,-1.E0));
#1454=AXIS2_PLACEMENT_3D('',#1451,#1452,#1453);
#1456=CARTESIAN_POINT('',(1.614857178996E-3,0.E0,5.811549743223E-1));
#1457=DIRECTION('',(0.E0,-1.E0,0.E0));
#1458=DIRECTION('',(1.E0,0.E0,-1.117728941605E-13));
#1459=AXIS2_PLACEMENT_3D('',#1456,#1457,#1458);
#1461=CARTESIAN_POINT('',(-1.614857178996E-3,0.E0,5.811549743223E-1));
#1462=DIRECTION('',(0.E0,-1.E0,0.E0));
#1463=DIRECTION('',(0.E0,0.E0,1.E0));
#1464=AXIS2_PLACEMENT_3D('',#1461,#1462,#1463);
#1466=CARTESIAN_POINT('',(-1.614857178996E-3,0.E0,-5.811549743223E-1));
#1467=DIRECTION('',(0.E0,-1.E0,0.E0));
#1468=DIRECTION('',(-1.E0,0.E0,1.117728941605E-13));
#1469=AXIS2_PLACEMENT_3D('',#1466,#1467,#1468);
#1471=DIRECTION('',(0.E0,1.E0,0.E0));
#1472=VECTOR('',#1471,9.072E-3);
#1473=CARTESIAN_POINT('',(-9.072E-3,0.E0,-1.3608E0));
#1474=LINE('',#1473,#1472);
#1475=DIRECTION('',(0.E0,-1.E0,0.E0));
#1476=VECTOR('',#1475,9.072E-3);
#1477=CARTESIAN_POINT('',(-6.804E-1,9.072E-3,-6.89472E-1));
#1478=LINE('',#1477,#1476);
#1479=DIRECTION('',(1.E0,0.E0,0.E0));
#1480=VECTOR('',#1479,1.8144E-2);
#1481=CARTESIAN_POINT('',(-9.072E-3,0.E0,-1.3608E0));
#1482=LINE('',#1481,#1480);
#1483=DIRECTION('',(0.E0,1.E0,0.E0));
#1484=VECTOR('',#1483,9.072E-3);
#1485=CARTESIAN_POINT('',(6.804E-1,0.E0,-6.89472E-1));
#1486=LINE('',#1485,#1484);
#1487=DIRECTION('',(0.E0,-1.E0,0.E0));
#1488=VECTOR('',#1487,9.072E-3);
#1489=CARTESIAN_POINT('',(9.072E-3,9.072E-3,-1.3608E0));
#1490=LINE('',#1489,#1488);
#1491=DIRECTION('',(0.E0,0.E0,1.E0));
#1492=VECTOR('',#1491,1.378944E0);
#1493=CARTESIAN_POINT('',(6.804E-1,0.E0,-6.89472E-1));
#1494=LINE('',#1493,#1492);
#1495=DIRECTION('',(0.E0,1.E0,0.E0));
#1496=VECTOR('',#1495,9.072E-3);
#1497=CARTESIAN_POINT('',(9.072E-3,0.E0,1.3608E0));
#1498=LINE('',#1497,#1496);
#1499=DIRECTION('',(0.E0,-1.E0,0.E0));
#1500=VECTOR('',#1499,9.072E-3);
#1501=CARTESIAN_POINT('',(6.804E-1,9.072E-3,6.89472E-1));
#1502=LINE('',#1501,#1500);
#1503=DIRECTION('',(-1.E0,0.E0,0.E0));
#1504=VECTOR('',#1503,1.8144E-2);
#1505=CARTESIAN_POINT('',(9.072E-3,0.E0,1.3608E0));
#1506=LINE('',#1505,#1504);
#1507=DIRECTION('',(0.E0,1.E0,0.E0));
#1508=VECTOR('',#1507,9.072E-3);
#1509=CARTESIAN_POINT('',(-6.804E-1,0.E0,6.89472E-1));
#1510=LINE('',#1509,#1508);
#1511=DIRECTION('',(0.E0,-1.E0,0.E0));
#1512=VECTOR('',#1511,9.072E-3);
#1513=CARTESIAN_POINT('',(-9.072E-3,9.072E-3,1.3608E0));
#1514=LINE('',#1513,#1512);
#1515=DIRECTION('',(0.E0,0.E0,-1.E0));
#1516=VECTOR('',#1515,1.378944E0);
#1517=CARTESIAN_POINT('',(-6.804E-1,0.E0,6.89472E-1));
#1518=LINE('',#1517,#1516);
#1519=CARTESIAN_POINT('',(-9.072E-3,9.072E-3,-6.89472E-1));
#1520=DIRECTION('',(0.E0,-1.E0,0.E0));
#1521=DIRECTION('',(-1.E0,0.E0,0.E0));
#1522=AXIS2_PLACEMENT_3D('',#1519,#1520,#1521);
#1524=DIRECTION('',(1.E0,0.E0,0.E0));
#1525=VECTOR('',#1524,1.8144E-2);
#1526=CARTESIAN_POINT('',(-9.072E-3,9.072E-3,-1.3608E0));
#1527=LINE('',#1526,#1525);
#1528=CARTESIAN_POINT('',(9.072E-3,9.072E-3,-6.89472E-1));
#1529=DIRECTION('',(0.E0,-1.E0,0.E0));
#1530=DIRECTION('',(0.E0,0.E0,-1.E0));
#1531=AXIS2_PLACEMENT_3D('',#1528,#1529,#1530);
#1533=DIRECTION('',(0.E0,0.E0,1.E0));
#1534=VECTOR('',#1533,1.378944E0);
#1535=CARTESIAN_POINT('',(6.804E-1,9.072E-3,-6.89472E-1));
#1536=LINE('',#1535,#1534);
#1537=CARTESIAN_POINT('',(9.072E-3,9.072E-3,6.89472E-1));
#1538=DIRECTION('',(0.E0,-1.E0,0.E0));
#1539=DIRECTION('',(1.E0,0.E0,0.E0));
#1540=AXIS2_PLACEMENT_3D('',#1537,#1538,#1539);
#1542=DIRECTION('',(-1.E0,0.E0,0.E0));
#1543=VECTOR('',#1542,1.8144E-2);
#1544=CARTESIAN_POINT('',(9.072E-3,9.072E-3,1.3608E0));
#1545=LINE('',#1544,#1543);
#1546=CARTESIAN_POINT('',(-9.072E-3,9.072E-3,6.89472E-1));
#1547=DIRECTION('',(0.E0,-1.E0,0.E0));
#1548=DIRECTION('',(0.E0,0.E0,1.E0));
#1549=AXIS2_PLACEMENT_3D('',#1546,#1547,#1548);
#1551=DIRECTION('',(0.E0,0.E0,-1.E0));
#1552=VECTOR('',#1551,1.378944E0);
#1553=CARTESIAN_POINT('',(-6.804E-1,9.072E-3,6.89472E-1));
#1554=LINE('',#1553,#1552);
#1555=DIRECTION('',(-1.E0,0.E0,0.E0));
#1556=VECTOR('',#1555,3.229714357993E-3);
#1557=CARTESIAN_POINT('',(1.614857178996E-3,9.072E-3,-9.893949743223E-1));
#1558=LINE('',#1557,#1556);
#1559=CARTESIAN_POINT('',(-1.614857178996E-3,9.072E-3,-5.811549743223E-1));
#1560=DIRECTION('',(0.E0,1.E0,0.E0));
#1561=DIRECTION('',(0.E0,0.E0,-1.E0));
#1562=AXIS2_PLACEMENT_3D('',#1559,#1560,#1561);
#1564=DIRECTION('',(0.E0,0.E0,1.E0));
#1565=VECTOR('',#1564,1.162309948645E0);
#1566=CARTESIAN_POINT('',(-4.098548571790E-1,9.072E-3,-5.811549743223E-1));
#1567=LINE('',#1566,#1565);
#1568=CARTESIAN_POINT('',(-1.614857178996E-3,9.072E-3,5.811549743223E-1));
#1569=DIRECTION('',(0.E0,1.E0,0.E0));
#1570=DIRECTION('',(-1.E0,0.E0,-1.117728941605E-13));
#1571=AXIS2_PLACEMENT_3D('',#1568,#1569,#1570);
#1573=DIRECTION('',(1.E0,0.E0,0.E0));
#1574=VECTOR('',#1573,3.229714357993E-3);
#1575=CARTESIAN_POINT('',(-1.614857178996E-3,9.072E-3,9.893949743223E-1));
#1576=LINE('',#1575,#1574);
#1577=CARTESIAN_POINT('',(1.614857178996E-3,9.072E-3,5.811549743223E-1));
#1578=DIRECTION('',(0.E0,1.E0,0.E0));
#1579=DIRECTION('',(0.E0,0.E0,1.E0));
#1580=AXIS2_PLACEMENT_3D('',#1577,#1578,#1579);
#1582=DIRECTION('',(0.E0,0.E0,-1.E0));
#1583=VECTOR('',#1582,1.162309948645E0);
#1584=CARTESIAN_POINT('',(4.098548571790E-1,9.072E-3,5.811549743223E-1));
#1585=LINE('',#1584,#1583);
#1586=CARTESIAN_POINT('',(1.614857178996E-3,9.072E-3,-5.811549743223E-1));
#1587=DIRECTION('',(0.E0,1.E0,0.E0));
#1588=DIRECTION('',(1.E0,0.E0,1.117728941605E-13));
#1589=AXIS2_PLACEMENT_3D('',#1586,#1587,#1588);
#1591=DIRECTION('',(-1.E0,0.E0,0.E0));
#1592=VECTOR('',#1591,3.229714357993E-3);
#1593=CARTESIAN_POINT('',(1.614857178996E-3,0.E0,-9.893949743223E-1));
#1594=LINE('',#1593,#1592);
#1595=DIRECTION('',(0.E0,1.E0,0.E0));
#1596=VECTOR('',#1595,9.072E-3);
#1597=CARTESIAN_POINT('',(-4.098548571790E-1,0.E0,-5.811549743223E-1));
#1598=LINE('',#1597,#1596);
#1599=DIRECTION('',(0.E0,-1.E0,0.E0));
#1600=VECTOR('',#1599,9.072E-3);
#1601=CARTESIAN_POINT('',(-1.614857178996E-3,9.072E-3,-9.893949743223E-1));
#1602=LINE('',#1601,#1600);
#1603=DIRECTION('',(0.E0,0.E0,1.E0));
#1604=VECTOR('',#1603,1.162309948645E0);
#1605=CARTESIAN_POINT('',(-4.098548571790E-1,0.E0,-5.811549743223E-1));
#1606=LINE('',#1605,#1604);
#1607=DIRECTION('',(0.E0,1.E0,0.E0));
#1608=VECTOR('',#1607,9.072E-3);
#1609=CARTESIAN_POINT('',(-1.614857178996E-3,0.E0,9.893949743223E-1));
#1610=LINE('',#1609,#1608);
#1611=DIRECTION('',(0.E0,-1.E0,0.E0));
#1612=VECTOR('',#1611,9.072E-3);
#1613=CARTESIAN_POINT('',(-4.098548571790E-1,9.072E-3,5.811549743223E-1));
#1614=LINE('',#1613,#1612);
#1615=DIRECTION('',(1.E0,0.E0,0.E0));
#1616=VECTOR('',#1615,3.229714357993E-3);
#1617=CARTESIAN_POINT('',(-1.614857178996E-3,0.E0,9.893949743223E-1));
#1618=LINE('',#1617,#1616);
#1619=DIRECTION('',(0.E0,1.E0,0.E0));
#1620=VECTOR('',#1619,9.072E-3);
#1621=CARTESIAN_POINT('',(4.098548571790E-1,0.E0,5.811549743223E-1));
#1622=LINE('',#1621,#1620);
#1623=DIRECTION('',(0.E0,-1.E0,0.E0));
#1624=VECTOR('',#1623,9.072E-3);
#1625=CARTESIAN_POINT('',(1.614857178996E-3,9.072E-3,9.893949743223E-1));
#1626=LINE('',#1625,#1624);
#1627=DIRECTION('',(0.E0,0.E0,-1.E0));
#1628=VECTOR('',#1627,1.162309948645E0);
#1629=CARTESIAN_POINT('',(4.098548571790E-1,0.E0,5.811549743223E-1));
#1630=LINE('',#1629,#1628);
#1631=DIRECTION('',(0.E0,1.E0,0.E0));
#1632=VECTOR('',#1631,9.072E-3);
#1633=CARTESIAN_POINT('',(1.614857178996E-3,0.E0,-9.893949743223E-1));
#1634=LINE('',#1633,#1632);
#1635=DIRECTION('',(0.E0,-1.E0,0.E0));
#1636=VECTOR('',#1635,9.072E-3);
#1637=CARTESIAN_POINT('',(4.098548571790E-1,9.072E-3,-5.811549743223E-1));
#1638=LINE('',#1637,#1636);
#1639=CARTESIAN_POINT('',(-9.072E-3,0.E0,-1.3608E0));
#1640=CARTESIAN_POINT('',(-6.804E-1,0.E0,-6.89472E-1));
#1641=VERTEX_POINT('',#1639);
#1642=VERTEX_POINT('',#1640);
#1643=CARTESIAN_POINT('',(-6.804E-1,0.E0,6.89472E-1));
#1644=VERTEX_POINT('',#1643);
#1645=CARTESIAN_POINT('',(-9.072E-3,0.E0,1.3608E0));
#1646=VERTEX_POINT('',#1645);
#1647=CARTESIAN_POINT('',(9.072E-3,0.E0,1.3608E0));
#1648=VERTEX_POINT('',#1647);
#1649=CARTESIAN_POINT('',(6.804E-1,0.E0,6.89472E-1));
#1650=VERTEX_POINT('',#1649);
#1651=CARTESIAN_POINT('',(6.804E-1,0.E0,-6.89472E-1));
#1652=VERTEX_POINT('',#1651);
#1653=CARTESIAN_POINT('',(9.072E-3,0.E0,-1.3608E0));
#1654=VERTEX_POINT('',#1653);
#1655=CARTESIAN_POINT('',(1.614857178996E-3,0.E0,-9.893949743223E-1));
#1656=CARTESIAN_POINT('',(-1.614857178996E-3,0.E0,-9.893949743223E-1));
#1657=VERTEX_POINT('',#1655);
#1658=VERTEX_POINT('',#1656);
#1659=CARTESIAN_POINT('',(4.098548571790E-1,0.E0,-5.811549743223E-1));
#1660=VERTEX_POINT('',#1659);
#1661=CARTESIAN_POINT('',(4.098548571790E-1,0.E0,5.811549743223E-1));
#1662=VERTEX_POINT('',#1661);
#1663=CARTESIAN_POINT('',(1.614857178997E-3,0.E0,9.893949743223E-1));
#1664=VERTEX_POINT('',#1663);
#1665=CARTESIAN_POINT('',(-1.614857178996E-3,0.E0,9.893949743223E-1));
#1666=VERTEX_POINT('',#1665);
#1667=CARTESIAN_POINT('',(-4.098548571790E-1,0.E0,5.811549743223E-1));
#1668=VERTEX_POINT('',#1667);
#1669=CARTESIAN_POINT('',(-4.098548571790E-1,0.E0,-5.811549743223E-1));
#1670=VERTEX_POINT('',#1669);
#1671=CARTESIAN_POINT('',(-9.072E-3,9.072E-3,-1.3608E0));
#1672=VERTEX_POINT('',#1671);
#1673=CARTESIAN_POINT('',(-6.804E-1,9.072E-3,-6.89472E-1));
#1674=VERTEX_POINT('',#1673);
#1675=CARTESIAN_POINT('',(9.072E-3,9.072E-3,-1.3608E0));
#1676=VERTEX_POINT('',#1675);
#1677=CARTESIAN_POINT('',(6.804E-1,9.072E-3,-6.89472E-1));
#1678=VERTEX_POINT('',#1677);
#1679=CARTESIAN_POINT('',(6.804E-1,9.072E-3,6.89472E-1));
#1680=VERTEX_POINT('',#1679);
#1681=CARTESIAN_POINT('',(9.072E-3,9.072E-3,1.3608E0));
#1682=VERTEX_POINT('',#1681);
#1683=CARTESIAN_POINT('',(-9.072E-3,9.072E-3,1.3608E0));
#1684=VERTEX_POINT('',#1683);
#1685=CARTESIAN_POINT('',(-6.804E-1,9.072E-3,6.89472E-1));
#1686=VERTEX_POINT('',#1685);
#1687=CARTESIAN_POINT('',(1.614857178996E-3,9.072E-3,-9.893949743223E-1));
#1688=CARTESIAN_POINT('',(-1.614857178996E-3,9.072E-3,-9.893949743223E-1));
#1689=VERTEX_POINT('',#1687);
#1690=VERTEX_POINT('',#1688);
#1691=CARTESIAN_POINT('',(-4.098548571790E-1,9.072E-3,-5.811549743223E-1));
#1692=VERTEX_POINT('',#1691);
#1693=CARTESIAN_POINT('',(-4.098548571790E-1,9.072E-3,5.811549743223E-1));
#1694=VERTEX_POINT('',#1693);
#1695=CARTESIAN_POINT('',(-1.614857178997E-3,9.072E-3,9.893949743223E-1));
#1696=VERTEX_POINT('',#1695);
#1697=CARTESIAN_POINT('',(1.614857178996E-3,9.072E-3,9.893949743223E-1));
#1698=VERTEX_POINT('',#1697);
#1699=CARTESIAN_POINT('',(4.098548571790E-1,9.072E-3,5.811549743223E-1));
#1700=VERTEX_POINT('',#1699);
#1701=CARTESIAN_POINT('',(4.098548571790E-1,9.072E-3,-5.811549743223E-1));
#1702=VERTEX_POINT('',#1701);
#1703=CARTESIAN_POINT('',(0.E0,0.E0,0.E0));
#1704=DIRECTION('',(0.E0,1.E0,0.E0));
#1705=DIRECTION('',(1.E0,0.E0,0.E0));
#1706=AXIS2_PLACEMENT_3D('',#1703,#1704,#1705);
#1707=PLANE('',#1706);
#1709=ORIENTED_EDGE('',*,*,#1708,.T.);
#1711=ORIENTED_EDGE('',*,*,#1710,.F.);
#1713=ORIENTED_EDGE('',*,*,#1712,.T.);
#1715=ORIENTED_EDGE('',*,*,#1714,.F.);
#1717=ORIENTED_EDGE('',*,*,#1716,.T.);
#1719=ORIENTED_EDGE('',*,*,#1718,.F.);
#1721=ORIENTED_EDGE('',*,*,#1720,.T.);
#1723=ORIENTED_EDGE('',*,*,#1722,.F.);
#1724=EDGE_LOOP('',(#1709,#1711,#1713,#1715,#1717,#1719,#1721,#1723));
#1725=FACE_OUTER_BOUND('',#1724,.F.);
#1727=ORIENTED_EDGE('',*,*,#1726,.F.);
#1729=ORIENTED_EDGE('',*,*,#1728,.T.);
#1731=ORIENTED_EDGE('',*,*,#1730,.F.);
#1733=ORIENTED_EDGE('',*,*,#1732,.T.);
#1735=ORIENTED_EDGE('',*,*,#1734,.F.);
#1737=ORIENTED_EDGE('',*,*,#1736,.T.);
#1739=ORIENTED_EDGE('',*,*,#1738,.F.);
#1741=ORIENTED_EDGE('',*,*,#1740,.T.);
#1742=EDGE_LOOP('',(#1727,#1729,#1731,#1733,#1735,#1737,#1739,#1741));
#1743=FACE_BOUND('',#1742,.F.);
#1745=FILL_AREA_STYLE_COLOUR('',#12);
#1746=FILL_AREA_STYLE('',(#1745));
#1747=SURFACE_STYLE_FILL_AREA(#1746);
#1748=SURFACE_SIDE_STYLE('',(#1747));
#1749=SURFACE_STYLE_USAGE(.POSITIVE.,#1748);
#1750=PRESENTATION_STYLE_ASSIGNMENT((#1749));
#1751=STYLED_ITEM('',(#1750),#1744);
#1752=CARTESIAN_POINT('',(-9.072E-3,0.E0,-6.89472E-1));
#1753=DIRECTION('',(0.E0,1.E0,0.E0));
#1754=DIRECTION('',(1.E0,0.E0,0.E0));
#1755=AXIS2_PLACEMENT_3D('',#1752,#1753,#1754);
#1756=CYLINDRICAL_SURFACE('',#1755,6.71328E-1);
#1757=ORIENTED_EDGE('',*,*,#1708,.F.);
#1759=ORIENTED_EDGE('',*,*,#1758,.T.);
#1761=ORIENTED_EDGE('',*,*,#1760,.F.);
#1763=ORIENTED_EDGE('',*,*,#1762,.T.);
#1764=EDGE_LOOP('',(#1757,#1759,#1761,#1763));
#1765=FACE_OUTER_BOUND('',#1764,.F.);
#1767=CARTESIAN_POINT('',(9.072E-3,0.E0,-1.3608E0));
#1768=DIRECTION('',(0.E0,0.E0,-1.E0));
#1769=DIRECTION('',(-1.E0,0.E0,0.E0));
#1770=AXIS2_PLACEMENT_3D('',#1767,#1768,#1769);
#1771=PLANE('',#1770);
#1772=ORIENTED_EDGE('',*,*,#1722,.T.);
#1774=ORIENTED_EDGE('',*,*,#1773,.F.);
#1776=ORIENTED_EDGE('',*,*,#1775,.F.);
#1777=ORIENTED_EDGE('',*,*,#1758,.F.);
#1778=EDGE_LOOP('',(#1772,#1774,#1776,#1777));
#1779=FACE_OUTER_BOUND('',#1778,.F.);
#1781=CARTESIAN_POINT('',(9.072E-3,0.E0,-6.89472E-1));
#1782=DIRECTION('',(0.E0,1.E0,0.E0));
#1783=DIRECTION('',(1.E0,0.E0,0.E0));
#1784=AXIS2_PLACEMENT_3D('',#1781,#1782,#1783);
#1785=CYLINDRICAL_SURFACE('',#1784,6.71328E-1);
#1786=ORIENTED_EDGE('',*,*,#1720,.F.);
#1788=ORIENTED_EDGE('',*,*,#1787,.T.);
#1790=ORIENTED_EDGE('',*,*,#1789,.F.);
#1791=ORIENTED_EDGE('',*,*,#1773,.T.);
#1792=EDGE_LOOP('',(#1786,#1788,#1790,#1791));
#1793=FACE_OUTER_BOUND('',#1792,.F.);
#1795=CARTESIAN_POINT('',(6.804E-1,0.E0,6.89472E-1));
#1796=DIRECTION('',(1.E0,0.E0,0.E0));
#1797=DIRECTION('',(0.E0,0.E0,-1.E0));
#1798=AXIS2_PLACEMENT_3D('',#1795,#1796,#1797);
#1799=PLANE('',#1798);
#1800=ORIENTED_EDGE('',*,*,#1718,.T.);
#1802=ORIENTED_EDGE('',*,*,#1801,.F.);
#1804=ORIENTED_EDGE('',*,*,#1803,.F.);
#1805=ORIENTED_EDGE('',*,*,#1787,.F.);
#1806=EDGE_LOOP('',(#1800,#1802,#1804,#1805));
#1807=FACE_OUTER_BOUND('',#1806,.F.);
#1809=CARTESIAN_POINT('',(9.072E-3,0.E0,6.89472E-1));
#1810=DIRECTION('',(0.E0,1.E0,0.E0));
#1811=DIRECTION('',(1.E0,0.E0,0.E0));
#1812=AXIS2_PLACEMENT_3D('',#1809,#1810,#1811);
#1813=CYLINDRICAL_SURFACE('',#1812,6.71328E-1);
#1814=ORIENTED_EDGE('',*,*,#1716,.F.);
#1816=ORIENTED_EDGE('',*,*,#1815,.T.);
#1818=ORIENTED_EDGE('',*,*,#1817,.F.);
#1819=ORIENTED_EDGE('',*,*,#1801,.T.);
#1820=EDGE_LOOP('',(#1814,#1816,#1818,#1819));
#1821=FACE_OUTER_BOUND('',#1820,.F.);
#1823=CARTESIAN_POINT('',(-9.072E-3,0.E0,1.3608E0));
#1824=DIRECTION('',(0.E0,0.E0,1.E0));
#1825=DIRECTION('',(1.E0,0.E0,0.E0));
#1826=AXIS2_PLACEMENT_3D('',#1823,#1824,#1825);
#1827=PLANE('',#1826);
#1828=ORIENTED_EDGE('',*,*,#1714,.T.);
#1830=ORIENTED_EDGE('',*,*,#1829,.F.);
#1832=ORIENTED_EDGE('',*,*,#1831,.F.);
#1833=ORIENTED_EDGE('',*,*,#1815,.F.);
#1834=EDGE_LOOP('',(#1828,#1830,#1832,#1833));
#1835=FACE_OUTER_BOUND('',#1834,.F.);
#1837=CARTESIAN_POINT('',(-9.072E-3,0.E0,6.89472E-1));
#1838=DIRECTION('',(0.E0,1.E0,0.E0));
#1839=DIRECTION('',(1.E0,0.E0,0.E0));
#1840=AXIS2_PLACEMENT_3D('',#1837,#1838,#1839);
#1841=CYLINDRICAL_SURFACE('',#1840,6.71328E-1);
#1842=ORIENTED_EDGE('',*,*,#1712,.F.);
#1844=ORIENTED_EDGE('',*,*,#1843,.T.);
#1846=ORIENTED_EDGE('',*,*,#1845,.F.);
#1847=ORIENTED_EDGE('',*,*,#1829,.T.);
#1848=EDGE_LOOP('',(#1842,#1844,#1846,#1847));
#1849=FACE_OUTER_BOUND('',#1848,.F.);
#1851=CARTESIAN_POINT('',(-6.804E-1,0.E0,-6.89472E-1));
#1852=DIRECTION('',(-1.E0,0.E0,0.E0));
#1853=DIRECTION('',(0.E0,0.E0,1.E0));
#1854=AXIS2_PLACEMENT_3D('',#1851,#1852,#1853);
#1855=PLANE('',#1854);
#1856=ORIENTED_EDGE('',*,*,#1710,.T.);
#1857=ORIENTED_EDGE('',*,*,#1762,.F.);
#1859=ORIENTED_EDGE('',*,*,#1858,.F.);
#1860=ORIENTED_EDGE('',*,*,#1843,.F.);
#1861=EDGE_LOOP('',(#1856,#1857,#1859,#1860));
#1862=FACE_OUTER_BOUND('',#1861,.F.);
#1864=CARTESIAN_POINT('',(0.E0,9.072E-3,0.E0));
#1865=DIRECTION('',(0.E0,1.E0,0.E0));
#1866=DIRECTION('',(1.E0,0.E0,0.E0));
#1867=AXIS2_PLACEMENT_3D('',#1864,#1865,#1866);
#1868=PLANE('',#1867);
#1869=ORIENTED_EDGE('',*,*,#1760,.T.);
#1870=ORIENTED_EDGE('',*,*,#1775,.T.);
#1871=ORIENTED_EDGE('',*,*,#1789,.T.);
#1872=ORIENTED_EDGE('',*,*,#1803,.T.);
#1873=ORIENTED_EDGE('',*,*,#1817,.T.);
#1874=ORIENTED_EDGE('',*,*,#1831,.T.);
#1875=ORIENTED_EDGE('',*,*,#1845,.T.);
#1876=ORIENTED_EDGE('',*,*,#1858,.T.);
#1877=EDGE_LOOP('',(#1869,#1870,#1871,#1872,#1873,#1874,#1875,#1876));
#1878=FACE_OUTER_BOUND('',#1877,.F.);
#1880=ORIENTED_EDGE('',*,*,#1879,.T.);
#1882=ORIENTED_EDGE('',*,*,#1881,.T.);
#1884=ORIENTED_EDGE('',*,*,#1883,.T.);
#1886=ORIENTED_EDGE('',*,*,#1885,.T.);
#1888=ORIENTED_EDGE('',*,*,#1887,.T.);
#1890=ORIENTED_EDGE('',*,*,#1889,.T.);
#1892=ORIENTED_EDGE('',*,*,#1891,.T.);
#1894=ORIENTED_EDGE('',*,*,#1893,.T.);
#1895=EDGE_LOOP('',(#1880,#1882,#1884,#1886,#1888,#1890,#1892,#1894));
#1896=FACE_BOUND('',#1895,.F.);
#1898=FILL_AREA_STYLE_COLOUR('',#12);
#1899=FILL_AREA_STYLE('',(#1898));
#1900=SURFACE_STYLE_FILL_AREA(#1899);
#1901=SURFACE_SIDE_STYLE('',(#1900));
#1902=SURFACE_STYLE_USAGE(.POSITIVE.,#1901);
#1903=PRESENTATION_STYLE_ASSIGNMENT((#1902));
#1904=STYLED_ITEM('',(#1903),#1897);
#1905=CARTESIAN_POINT('',(-1.614857178996E-3,0.E0,-9.893949743223E-1));
#1906=DIRECTION('',(0.E0,0.E0,1.E0));
#1907=DIRECTION('',(1.E0,0.E0,0.E0));
#1908=AXIS2_PLACEMENT_3D('',#1905,#1906,#1907);
#1909=PLANE('',#1908);
#1910=ORIENTED_EDGE('',*,*,#1726,.T.);
#1912=ORIENTED_EDGE('',*,*,#1911,.F.);
#1913=ORIENTED_EDGE('',*,*,#1879,.F.);
#1915=ORIENTED_EDGE('',*,*,#1914,.F.);
#1916=EDGE_LOOP('',(#1910,#1912,#1913,#1915));
#1917=FACE_OUTER_BOUND('',#1916,.F.);
#1919=CARTESIAN_POINT('',(-1.614857178996E-3,0.E0,-5.811549743223E-1));
#1920=DIRECTION('',(0.E0,1.E0,0.E0));
#1921=DIRECTION('',(1.E0,0.E0,0.E0));
#1922=AXIS2_PLACEMENT_3D('',#1919,#1920,#1921);
#1923=CYLINDRICAL_SURFACE('',#1922,4.0824E-1);
#1924=ORIENTED_EDGE('',*,*,#1740,.F.);
#1926=ORIENTED_EDGE('',*,*,#1925,.T.);
#1927=ORIENTED_EDGE('',*,*,#1881,.F.);
#1928=ORIENTED_EDGE('',*,*,#1911,.T.);
#1929=EDGE_LOOP('',(#1924,#1926,#1927,#1928));
#1930=FACE_OUTER_BOUND('',#1929,.F.);
#1932=CARTESIAN_POINT('',(-4.098548571790E-1,0.E0,5.811549743223E-1));
#1933=DIRECTION('',(1.E0,0.E0,0.E0));
#1934=DIRECTION('',(0.E0,0.E0,-1.E0));
#1935=AXIS2_PLACEMENT_3D('',#1932,#1933,#1934);
#1936=PLANE('',#1935);
#1937=ORIENTED_EDGE('',*,*,#1738,.T.);
#1939=ORIENTED_EDGE('',*,*,#1938,.F.);
#1940=ORIENTED_EDGE('',*,*,#1883,.F.);
#1941=ORIENTED_EDGE('',*,*,#1925,.F.);
#1942=EDGE_LOOP('',(#1937,#1939,#1940,#1941));
#1943=FACE_OUTER_BOUND('',#1942,.F.);
#1945=CARTESIAN_POINT('',(-1.614857178996E-3,0.E0,5.811549743223E-1));
#1946=DIRECTION('',(0.E0,1.E0,0.E0));
#1947=DIRECTION('',(1.E0,0.E0,0.E0));
#1948=AXIS2_PLACEMENT_3D('',#1945,#1946,#1947);
#1949=CYLINDRICAL_SURFACE('',#1948,4.0824E-1);
#1950=ORIENTED_EDGE('',*,*,#1736,.F.);
#1952=ORIENTED_EDGE('',*,*,#1951,.T.);
#1953=ORIENTED_EDGE('',*,*,#1885,.F.);
#1954=ORIENTED_EDGE('',*,*,#1938,.T.);
#1955=EDGE_LOOP('',(#1950,#1952,#1953,#1954));
#1956=FACE_OUTER_BOUND('',#1955,.F.);
#1958=CARTESIAN_POINT('',(1.614857178996E-3,0.E0,9.893949743223E-1));
#1959=DIRECTION('',(0.E0,0.E0,-1.E0));
#1960=DIRECTION('',(-1.E0,0.E0,0.E0));
#1961=AXIS2_PLACEMENT_3D('',#1958,#1959,#1960);
#1962=PLANE('',#1961);
#1963=ORIENTED_EDGE('',*,*,#1734,.T.);
#1965=ORIENTED_EDGE('',*,*,#1964,.F.);
#1966=ORIENTED_EDGE('',*,*,#1887,.F.);
#1967=ORIENTED_EDGE('',*,*,#1951,.F.);
#1968=EDGE_LOOP('',(#1963,#1965,#1966,#1967));
#1969=FACE_OUTER_BOUND('',#1968,.F.);
#1971=CARTESIAN_POINT('',(1.614857178996E-3,0.E0,5.811549743223E-1));
#1972=DIRECTION('',(0.E0,1.E0,0.E0));
#1973=DIRECTION('',(1.E0,0.E0,0.E0));
#1974=AXIS2_PLACEMENT_3D('',#1971,#1972,#1973);
#1975=CYLINDRICAL_SURFACE('',#1974,4.0824E-1);
#1976=ORIENTED_EDGE('',*,*,#1732,.F.);
#1978=ORIENTED_EDGE('',*,*,#1977,.T.);
#1979=ORIENTED_EDGE('',*,*,#1889,.F.);
#1980=ORIENTED_EDGE('',*,*,#1964,.T.);
#1981=EDGE_LOOP('',(#1976,#1978,#1979,#1980));
#1982=FACE_OUTER_BOUND('',#1981,.F.);
#1984=CARTESIAN_POINT('',(4.098548571790E-1,0.E0,-5.811549743223E-1));
#1985=DIRECTION('',(-1.E0,0.E0,0.E0));
#1986=DIRECTION('',(0.E0,0.E0,1.E0));
#1987=AXIS2_PLACEMENT_3D('',#1984,#1985,#1986);
#1988=PLANE('',#1987);
#1989=ORIENTED_EDGE('',*,*,#1730,.T.);
#1991=ORIENTED_EDGE('',*,*,#1990,.F.);
#1992=ORIENTED_EDGE('',*,*,#1891,.F.);
#1993=ORIENTED_EDGE('',*,*,#1977,.F.);
#1994=EDGE_LOOP('',(#1989,#1991,#1992,#1993));
#1995=FACE_OUTER_BOUND('',#1994,.F.);
#1997=CARTESIAN_POINT('',(1.614857178996E-3,0.E0,-5.811549743223E-1));
#1998=DIRECTION('',(0.E0,1.E0,0.E0));
#1999=DIRECTION('',(1.E0,0.E0,0.E0));
#2000=AXIS2_PLACEMENT_3D('',#1997,#1998,#1999);
#2001=CYLINDRICAL_SURFACE('',#2000,4.0824E-1);
#2002=ORIENTED_EDGE('',*,*,#1728,.F.);
#2003=ORIENTED_EDGE('',*,*,#1914,.T.);
#2004=ORIENTED_EDGE('',*,*,#1893,.F.);
#2005=ORIENTED_EDGE('',*,*,#1990,.T.);
#2006=EDGE_LOOP('',(#2002,#2003,#2004,#2005));
#2007=FACE_OUTER_BOUND('',#2006,.F.);
#2009=CLOSED_SHELL('',(#1744,#1766,#1780,#1794,#1808,#1822,#1836,#1850,#1863,
#1897,#1918,#1931,#1944,#1957,#1970,#1983,#1996,#2008));
#2010=MANIFOLD_SOLID_BREP('',#2009);
#2013=PLANE_ANGLE_MEASURE_WITH_UNIT(PLANE_ANGLE_MEASURE(1.745329251994E-2),
#2012);
#2014=(CONVERSION_BASED_UNIT('DEGREE',#2013)NAMED_UNIT(*)PLANE_ANGLE_UNIT());
#2016=UNCERTAINTY_MEASURE_WITH_UNIT(LENGTH_MEASURE(3.042733113298E-4),#2011,
'distance_accuracy_value',
'Maximum model space distance between geometric entities at asserted connectivities');
#2018=CARTESIAN_POINT('',(0.E0,0.E0,0.E0));
#2019=DIRECTION('',(0.E0,0.E0,1.E0));
#2020=DIRECTION('',(1.E0,0.E0,0.E0));
#2023=PRODUCT_DEFINITION_CONTEXT('part definition',#1133,'design');
#2024=PRODUCT_CONTEXT('',#1133,'mechanical');
#2025=PRODUCT('YUAN-YELLOW','YUAN-YELLOW','NOT SPECIFIED',(#2024));
#2026=PRODUCT_DEFINITION_FORMATION('1','LAST_VERSION',#2025);
#2034=DERIVED_UNIT_ELEMENT(#2033,2.E0);
#2035=DERIVED_UNIT((#2034));
#2036=MEASURE_REPRESENTATION_ITEM('surface area measure',AREA_MEASURE(
3.783460617848E0),#2035);
#2041=DERIVED_UNIT_ELEMENT(#2040,3.E0);
#2042=DERIVED_UNIT((#2041));
#2043=MEASURE_REPRESENTATION_ITEM('volume measure',VOLUME_MEASURE(
1.667174042949E-2),#2042);
#2047=CARTESIAN_POINT('centre point',(0.E0,4.536E-3,0.E0));
#2052=DERIVED_UNIT_ELEMENT(#2051,2.E0);
#2053=DERIVED_UNIT((#2052));
#2054=MEASURE_REPRESENTATION_ITEM('surface area measure',AREA_MEASURE(
3.783460617848E0),#2053);
#2059=DERIVED_UNIT_ELEMENT(#2058,3.E0);
#2060=DERIVED_UNIT((#2059));
#2061=MEASURE_REPRESENTATION_ITEM('volume measure',VOLUME_MEASURE(
1.667174042949E-2),#2060);
#2065=CARTESIAN_POINT('centre point',(0.E0,4.536E-3,0.E0));
#2072=CARTESIAN_POINT('centre point',(4.010571012772E0,3.456529474136E1,
2.139331007555E-2));
#2076=CARTESIAN_POINT('',(4.010234624800E0,3.456529474136E1,2.591681967904E-2));
#2077=DIRECTION('',(-1.230661193729E-3,-9.999992385485E-1,-9.151735232393E-5));
#2078=DIRECTION('',(-9.972456258945E-1,1.234059317669E-3,-7.415954916211E-2));
#2079=AXIS2_PLACEMENT_3D('',#2076,#2077,#2078);
#2080=ITEM_DEFINED_TRANSFORMATION('','',#2021,#2079);
#2081=(REPRESENTATION_RELATIONSHIP('','',#2022,#1184)REPRESENTATION_RELATIONSHIP_WITH_TRANSFORMATION(#2080)SHAPE_REPRESENTATION_RELATIONSHIP());
#2082=CONTEXT_DEPENDENT_SHAPE_REPRESENTATION(#2081,#2071);
#2085=CARTESIAN_POINT('centre point',(4.004645129194E0,2.975009532215E1,
2.095263543824E-2));
#2089=CARTESIAN_POINT('',(4.004308741223E0,2.975009532215E1,2.547614504173E-2));
#2090=DIRECTION('',(-1.230661193729E-3,-9.999992385485E-1,-9.151735232393E-5));
#2091=DIRECTION('',(-9.972456258945E-1,1.234059317669E-3,-7.415954916211E-2));
#2092=AXIS2_PLACEMENT_3D('',#2089,#2090,#2091);
#2093=ITEM_DEFINED_TRANSFORMATION('','',#2021,#2092);
#2094=(REPRESENTATION_RELATIONSHIP('','',#2022,#1184)REPRESENTATION_RELATIONSHIP_WITH_TRANSFORMATION(#2093)SHAPE_REPRESENTATION_RELATIONSHIP());
#2095=CONTEXT_DEPENDENT_SHAPE_REPRESENTATION(#2094,#2084);
#2098=PLANE_ANGLE_MEASURE_WITH_UNIT(PLANE_ANGLE_MEASURE(1.745329251994E-2),
#2097);
#2099=(CONVERSION_BASED_UNIT('DEGREE',#2098)NAMED_UNIT(*)PLANE_ANGLE_UNIT());
#2101=UNCERTAINTY_MEASURE_WITH_UNIT(LENGTH_MEASURE(3.860985081030E-3),#2096,
'distance_accuracy_value',
'Maximum model space distance between geometric entities at asserted connectivities');
#2103=CARTESIAN_POINT('',(0.E0,0.E0,0.E0));
#2104=DIRECTION('',(0.E0,0.E0,1.E0));
#2105=DIRECTION('',(1.E0,0.E0,0.E0));
#2107=MECHANICAL_DESIGN_GEOMETRIC_PRESENTATION_REPRESENTATION('',(#511,#536,
#559,#584,#605,#627,#654,#683,#711,#742,#767,#792,#817,#840,#859,#884,#929,#951,
#971,#1000,#1022,#1042,#1059,#1081,#1101,#1118,#1332,#1751,#1904),#2102);
#2108=PRODUCT_CONTEXT('',#1133,'mechanical');
#2109=PRODUCT('CP-8X12-LKM_ASM','CP-8X12-LKM_ASM','NOT SPECIFIED',(#2108));
#2110=PRODUCT_DEFINITION_FORMATION('1','LAST_VERSION',#2109);
#2113=DERIVED_UNIT_ELEMENT(#2112,2.E0);
#2114=DERIVED_UNIT((#2113));
#2115=MEASURE_REPRESENTATION_ITEM('surface area measure',AREA_MEASURE(
5.448239710346E2),#2114);
#2120=DERIVED_UNIT_ELEMENT(#2119,3.E0);
#2121=DERIVED_UNIT((#2120));
#2122=MEASURE_REPRESENTATION_ITEM('volume measure',VOLUME_MEASURE(
6.094161205201E2),#2121);
#2126=CARTESIAN_POINT('centre point',(4.000000078727E0,3.058609442470E1,
-4.003037619431E0));
#2130=PRODUCT_RELATED_PRODUCT_CATEGORY('part','',(#2109,#1137,#1373,#2025));
#1=DRAUGHTING_PRE_DEFINED_COLOUR('green');
#2=COLOUR_RGB('',1.1E-2,1.2E-2,1.E0);
#3=COLOUR_RGB('',1.607843137255E-1,1.607843137255E-1,1.803921568627E-1);
#4=COLOUR_RGB('',2.392156862745E-1,2.509803921569E-1,2.588235294118E-1);
#5=COLOUR_RGB('',4.1E-1,2.61589E-1,1.12848E-1);
#6=COLOUR_RGB('',4.705882352941E-1,3.019607843137E-1,3.019607843137E-1);
#7=COLOUR_RGB('',5.04854E-1,1.5455E-2,1.5455E-2);
#8=COLOUR_RGB('',6.35294E-1,6.86275E-1,7.4902E-1);
#9=COLOUR_RGB('',6.40777E-1,6.40777E-1,6.40777E-1);
#10=COLOUR_RGB('',6.470588235294E-1,4.509803921569E-1,4.509803921569E-1);
#11=COLOUR_RGB('',6.69062E-1,6.69903E-1,6.55217E-1);
#12=COLOUR_RGB('',7.647058823529E-1,7.725490196078E-1,2.E-1);
#13=COLOUR_RGB('',8.196078431373E-1,8.117647058824E-1,8.117647058824E-1);
#14=COLOUR_RGB('',9.21569E-1,7.05882E-1,4.70588E-1);
#15=DRAUGHTING_PRE_DEFINED_COLOUR('red');
#16=DRAUGHTING_PRE_DEFINED_COLOUR('yellow');
#17=COLOUR_RGB('',1.E0,1.E0,5.3E-1);
#18=COLOUR_RGB('',1.E0,1.E0,9.49E-1);
#19=DRAUGHTING_PRE_DEFINED_COLOUR('white');
#20=COLOUR_RGB('',8.117647058824E-1,8.117647058824E-1,2.431372549020E-1);
#25=CIRCLE('',#24,3.75E0);
#30=CIRCLE('',#29,3.75E0);
#35=CIRCLE('',#34,2.9E0);
#40=CIRCLE('',#39,2.9E0);
#45=CIRCLE('',#44,4.E0);
#50=CIRCLE('',#49,4.E0);
#55=CIRCLE('',#54,3.75E0);
#60=CIRCLE('',#59,2.5E-1);
#73=CIRCLE('',#72,4.E0);
#78=CIRCLE('',#77,4.E0);
#83=CIRCLE('',#82,3.75E0);
#88=CIRCLE('',#87,2.5E-1);
#93=CIRCLE('',#92,4.E0);
#98=CIRCLE('',#97,3.833333333333E0);
#103=CIRCLE('',#102,5.E-1);
#108=CIRCLE('',#107,4.E0);
#113=CIRCLE('',#112,4.E0);
#118=CIRCLE('',#117,3.833333333333E0);
#123=CIRCLE('',#122,3.833333333333E0);
#128=CIRCLE('',#127,5.E-1);
#133=CIRCLE('',#132,2.5E-1);
#138=CIRCLE('',#137,2.5E-1);
#143=CIRCLE('',#142,3.833333333333E0);
#148=CIRCLE('',#147,3.833333333333E0);
#153=CIRCLE('',#152,2.5E-1);
#158=CIRCLE('',#157,2.5E-1);
#163=CIRCLE('',#162,3.833333333333E0);
#168=CIRCLE('',#167,3.833333333333E0);
#173=CIRCLE('',#172,4.E0);
#178=CIRCLE('',#177,4.E0);
#183=CIRCLE('',#182,3.833333333333E0);
#188=CIRCLE('',#187,3.833333333333E0);
#193=CIRCLE('',#192,5.E-1);
#198=CIRCLE('',#197,4.E0);
#203=CIRCLE('',#202,4.E0);
#212=CIRCLE('',#211,4.E0);
#217=CIRCLE('',#216,4.E0);
#222=CIRCLE('',#221,3.85E0);
#227=CIRCLE('',#226,1.5E-1);
#232=CIRCLE('',#231,4.E0);
#237=CIRCLE('',#236,4.E0);
#242=CIRCLE('',#241,3.85E0);
#247=CIRCLE('',#246,1.5E-1);
#256=CIRCLE('',#255,4.E0);
#261=CIRCLE('',#260,3.833333333333E0);
#266=CIRCLE('',#265,5.E-1);
#271=CIRCLE('',#270,3.85E0);
#276=CIRCLE('',#275,3.85E0);
#281=CIRCLE('',#280,3.E0);
#286=CIRCLE('',#285,3.E0);
#299=CIRCLE('',#298,3.E0);
#304=CIRCLE('',#303,3.E0);
#317=CIRCLE('',#316,2.9E0);
#322=CIRCLE('',#321,2.9E0);
#327=CIRCLE('',#326,3.E-1);
#332=CIRCLE('',#331,3.E-1);
#337=CIRCLE('',#336,3.E-1);
#342=CIRCLE('',#341,3.E-1);
#355=CIRCLE('',#354,3.E-1);
#360=CIRCLE('',#359,3.E-1);
#373=CIRCLE('',#372,3.E-1);
#378=CIRCLE('',#377,3.E-1);
#488=EDGE_CURVE('',#381,#382,#25,.T.);
#490=EDGE_CURVE('',#384,#382,#55,.T.);
#492=EDGE_CURVE('',#384,#386,#30,.T.);
#494=EDGE_CURVE('',#381,#386,#83,.T.);
#498=EDGE_CURVE('',#389,#390,#35,.T.);
#500=EDGE_CURVE('',#390,#389,#40,.T.);
#504=ADVANCED_FACE('',(#497,#503),#487,.F.);
#517=EDGE_CURVE('',#393,#394,#45,.T.);
#519=EDGE_CURVE('',#394,#396,#50,.T.);
#521=EDGE_CURVE('',#384,#396,#88,.T.);
#525=EDGE_CURVE('',#381,#393,#60,.T.);
#529=ADVANCED_FACE('',(#528),#516,.T.);
#544=EDGE_CURVE('',#410,#393,#68,.T.);
#546=EDGE_CURVE('',#412,#410,#108,.T.);
#548=EDGE_CURVE('',#412,#396,#64,.T.);
#552=ADVANCED_FACE('',(#551),#541,.T.);
#565=EDGE_CURVE('',#428,#393,#78,.T.);
#567=EDGE_CURVE('',#396,#428,#73,.T.);
#570=EDGE_CURVE('',#430,#412,#93,.T.);
#572=EDGE_CURVE('',#410,#430,#113,.T.);
#577=ADVANCED_FACE('',(#576),#564,.T.);
#598=ADVANCED_FACE('',(#597),#589,.T.);
#612=EDGE_CURVE('',#446,#412,#128,.T.);
#614=EDGE_CURVE('',#446,#444,#98,.T.);
#616=EDGE_CURVE('',#444,#430,#103,.T.);
#620=ADVANCED_FACE('',(#619),#610,.T.);
#636=EDGE_CURVE('',#454,#444,#168,.T.);
#638=EDGE_CURVE('',#450,#454,#163,.T.);
#640=EDGE_CURVE('',#450,#448,#118,.T.);
#642=EDGE_CURVE('',#448,#446,#123,.T.);
#647=ADVANCED_FACE('',(#646),#632,.T.);
#660=EDGE_CURVE('',#444,#442,#133,.T.);
#662=EDGE_CURVE('',#442,#440,#138,.T.);
#664=EDGE_CURVE('',#440,#438,#143,.T.);
#666=EDGE_CURVE('',#438,#436,#148,.T.);
#668=EDGE_CURVE('',#436,#452,#153,.T.);
#670=EDGE_CURVE('',#452,#450,#158,.T.);
#676=ADVANCED_FACE('',(#675),#659,.F.);
#696=EDGE_CURVE('',#435,#436,#188,.T.);
#698=EDGE_CURVE('',#432,#435,#183,.T.);
#700=EDGE_CURVE('',#440,#432,#261,.T.);
#704=ADVANCED_FACE('',(#703),#688,.F.);
#717=EDGE_CURVE('',#407,#408,#173,.T.);
#719=EDGE_CURVE('',#408,#404,#178,.T.);
#721=EDGE_CURVE('',#432,#404,#266,.T.);
#727=EDGE_CURVE('',#440,#425,#193,.T.);
#729=EDGE_CURVE('',#425,#426,#198,.T.);
#731=EDGE_CURVE('',#426,#407,#203,.T.);
#735=ADVANCED_FACE('',(#734),#716,.T.);
#748=EDGE_CURVE('',#400,#402,#217,.T.);
#750=EDGE_CURVE('',#399,#400,#212,.T.);
#752=EDGE_CURVE('',#399,#404,#207,.T.);
#756=EDGE_CURVE('',#402,#407,#251,.T.);
#760=ADVANCED_FACE('',(#759),#747,.T.);
#775=EDGE_CURVE('',#414,#402,#247,.T.);
#777=EDGE_CURVE('',#414,#418,#222,.T.);
#779=EDGE_CURVE('',#417,#418,#271,.T.);
#781=EDGE_CURVE('',#417,#399,#227,.T.);
#785=ADVANCED_FACE('',(#784),#772,.T.);
#798=EDGE_CURVE('',#402,#420,#232,.T.);
#800=EDGE_CURVE('',#420,#399,#237,.T.);
#803=EDGE_CURVE('',#417,#422,#242,.T.);
#805=EDGE_CURVE('',#414,#422,#276,.T.);
#810=ADVANCED_FACE('',(#809),#797,.T.);
#828=EDGE_CURVE('',#404,#425,#256,.T.);
#833=ADVANCED_FACE('',(#832),#822,.T.);
#852=ADVANCED_FACE('',(#851),#845,.T.);
#871=EDGE_CURVE('',#457,#458,#281,.T.);
#873=EDGE_CURVE('',#458,#457,#286,.T.);
#877=ADVANCED_FACE('',(#870,#876),#864,.T.);
#891=EDGE_CURVE('',#460,#457,#294,.T.);
#893=EDGE_CURVE('',#462,#460,#299,.T.);
#895=EDGE_CURVE('',#462,#458,#290,.T.);
#899=ADVANCED_FACE('',(#898),#889,.F.);
#907=EDGE_CURVE('',#460,#462,#304,.T.);
#912=ADVANCED_FACE('',(#911),#904,.F.);
#922=ADVANCED_FACE('',(#921),#917,.T.);
#936=EDGE_CURVE('',#464,#389,#312,.T.);
#938=EDGE_CURVE('',#466,#464,#317,.T.);
#940=EDGE_CURVE('',#466,#390,#308,.T.);
#944=ADVANCED_FACE('',(#943),#934,.F.);
#959=EDGE_CURVE('',#464,#466,#322,.T.);
#964=ADVANCED_FACE('',(#963),#956,.F.);
#981=EDGE_CURVE('',#469,#470,#327,.T.);
#983=EDGE_CURVE('',#470,#469,#332,.T.);
#987=EDGE_CURVE('',#473,#474,#337,.T.);
#989=EDGE_CURVE('',#474,#473,#342,.T.);
#993=ADVANCED_FACE('',(#980,#986,#992),#976,.T.);
#1007=EDGE_CURVE('',#476,#469,#350,.T.);
#1009=EDGE_CURVE('',#478,#476,#355,.T.);
#1011=EDGE_CURVE('',#478,#470,#346,.T.);
#1015=ADVANCED_FACE('',(#1014),#1005,.T.);
#1030=EDGE_CURVE('',#476,#478,#360,.T.);
#1035=ADVANCED_FACE('',(#1034),#1027,.T.);
#1052=ADVANCED_FACE('',(#1051),#1047,.T.);
#1066=EDGE_CURVE('',#480,#473,#368,.T.);
#1068=EDGE_CURVE('',#482,#480,#373,.T.);
#1070=EDGE_CURVE('',#482,#474,#364,.T.);
#1074=ADVANCED_FACE('',(#1073),#1064,.T.);
#1089=EDGE_CURVE('',#480,#482,#378,.T.);
#1094=ADVANCED_FACE('',(#1093),#1086,.T.);
#1111=ADVANCED_FACE('',(#1110),#1106,.T.);
#1121=(LENGTH_UNIT()NAMED_UNIT(*)SI_UNIT(.MILLI.,.METRE.));
#1122=(NAMED_UNIT(*)PLANE_ANGLE_UNIT()SI_UNIT($,.RADIAN.));
#1125=(NAMED_UNIT(*)SI_UNIT($,.STERADIAN.)SOLID_ANGLE_UNIT());
#1127=(GEOMETRIC_REPRESENTATION_CONTEXT(3)GLOBAL_UNCERTAINTY_ASSIGNED_CONTEXT((
#1126))GLOBAL_UNIT_ASSIGNED_CONTEXT((#1121,#1124,#1125))REPRESENTATION_CONTEXT(
'ID1','3'));
#1131=AXIS2_PLACEMENT_3D('',#1128,#1129,#1130);
#1132=ADVANCED_BREP_SHAPE_REPRESENTATION('',(#1131,#1120),#1127);
#1139=PRODUCT_DEFINITION('part definition','',#1138,#1135);
#1140=PRODUCT_DEFINITION_SHAPE('','SHAPE FOR 08000120-LKM.',#1139);
#1141=SHAPE_ASPECT('','solid data associated with 08000120-LKM',#1140,.F.);
#1142=PROPERTY_DEFINITION('',
'shape for solid data with which properties are associated',#1141);
#1143=SHAPE_REPRESENTATION('',(#1120),#1127);
#1144=SHAPE_DEFINITION_REPRESENTATION(#1142,#1143);
#1145=(LENGTH_UNIT()NAMED_UNIT(*)SI_UNIT(.MILLI.,.METRE.));
#1149=PROPERTY_DEFINITION('geometric validation property',
'area of 08000120-LKM',#1141);
#1150=REPRESENTATION('surface area',(#1148),#1127);
#1151=PROPERTY_DEFINITION_REPRESENTATION(#1149,#1150);
#1152=(LENGTH_UNIT()NAMED_UNIT(*)SI_UNIT(.MILLI.,.METRE.));
#1156=PROPERTY_DEFINITION('geometric validation property',
'volume of 08000120-LKM',#1141);
#1157=REPRESENTATION('volume',(#1155),#1127);
#1158=PROPERTY_DEFINITION_REPRESENTATION(#1156,#1157);
#1160=PROPERTY_DEFINITION('geometric validation property',
'centroid of 08000120-LKM',#1141);
#1161=REPRESENTATION('centroid',(#1159),#1127);
#1162=PROPERTY_DEFINITION_REPRESENTATION(#1160,#1161);
#1163=(LENGTH_UNIT()NAMED_UNIT(*)SI_UNIT(.MILLI.,.METRE.));
#1167=PROPERTY_DEFINITION('geometric validation property',
'area of 08000120-LKM',#1140);
#1168=REPRESENTATION('surface area',(#1166),#1127);
#1169=PROPERTY_DEFINITION_REPRESENTATION(#1167,#1168);
#1170=(LENGTH_UNIT()NAMED_UNIT(*)SI_UNIT(.MILLI.,.METRE.));
#1174=PROPERTY_DEFINITION('geometric validation property',
'volume of 08000120-LKM',#1140);
#1175=REPRESENTATION('volume',(#1173),#1127);
#1176=PROPERTY_DEFINITION_REPRESENTATION(#1174,#1175);
#1178=PROPERTY_DEFINITION('geometric validation property',
'centroid of 08000120-LKM',#1140);
#1179=REPRESENTATION('centroid',(#1177),#1127);
#1180=PROPERTY_DEFINITION_REPRESENTATION(#1178,#1179);
#1181=SHAPE_DEFINITION_REPRESENTATION(#1140,#1132);
#1182=SHAPE_DEFINITION_REPRESENTATION(#1183,#1184);
#1183=PRODUCT_DEFINITION_SHAPE('','SHAPE FOR CP-8X12-LKM_ASM.',#2111);
#1184=SHAPE_REPRESENTATION('',(#1194,#1427,#2079,#2092,#2106),#2102);
#1185=NEXT_ASSEMBLY_USAGE_OCCURRENCE('4','Next assembly relationship',
'08000120-LKM',#2111,#1139,$);
#1186=PRODUCT_DEFINITION_SHAPE('Placement #4',
'Placement of 08000120-LKM with respect to CP-8X12-LKM_ASM',#1185);
#1188=PROPERTY_DEFINITION('geometric validation property',
'centroid of 08000120-LKM',#1186);
#1189=REPRESENTATION('centroid',(#1187),#1127);
#1190=PROPERTY_DEFINITION_REPRESENTATION(#1188,#1189);
#1198=COLOUR_RGB('',1.9E-1,1.9E-1,2.2E-1);
#1203=CIRCLE('',#1202,4.E0);
#1208=CIRCLE('',#1207,4.005E0);
#1237=CIRCLE('',#1236,4.E0);
#1246=CIRCLE('',#1245,4.005E0);
#1272=EDGE_CURVE('',#1253,#1254,#1203,.T.);
#1274=EDGE_CURVE('',#1256,#1254,#1232,.T.);
#1276=EDGE_CURVE('',#1256,#1258,#1208,.T.);
#1278=EDGE_CURVE('',#1253,#1258,#1220,.T.);
#1282=ADVANCED_FACE('',(#1281),#1271,.F.);
#1289=EDGE_CURVE('',#1253,#1260,#1212,.T.);
#1291=EDGE_CURVE('',#1262,#1260,#1237,.T.);
#1293=EDGE_CURVE('',#1262,#1254,#1216,.T.);
#1297=ADVANCED_FACE('',(#1296),#1287,.F.);
#1304=EDGE_CURVE('',#1264,#1258,#1228,.T.);
#1306=EDGE_CURVE('',#1260,#1264,#1241,.T.);
#1311=ADVANCED_FACE('',(#1310),#1302,.T.);
#1318=EDGE_CURVE('',#1256,#1266,#1224,.T.);
#1320=EDGE_CURVE('',#1264,#1266,#1246,.T.);
#1325=ADVANCED_FACE('',(#1324),#1316,.T.);
#1340=EDGE_CURVE('',#1266,#1262,#1250,.T.);
#1345=ADVANCED_FACE('',(#1344),#1337,.T.);
#1357=ADVANCED_FACE('',(#1356),#1350,.T.);
#1360=(LENGTH_UNIT()NAMED_UNIT(*)SI_UNIT(.MILLI.,.METRE.));
#1361=(NAMED_UNIT(*)PLANE_ANGLE_UNIT()SI_UNIT($,.RADIAN.));
#1364=(NAMED_UNIT(*)SI_UNIT($,.STERADIAN.)SOLID_ANGLE_UNIT());
#1366=(GEOMETRIC_REPRESENTATION_CONTEXT(3)GLOBAL_UNCERTAINTY_ASSIGNED_CONTEXT((
#1365))GLOBAL_UNIT_ASSIGNED_CONTEXT((#1360,#1363,#1364))REPRESENTATION_CONTEXT(
'ID2','3'));
#1370=AXIS2_PLACEMENT_3D('',#1367,#1368,#1369);
#1371=ADVANCED_BREP_SHAPE_REPRESENTATION('',(#1370,#1359),#1366);
#1375=PRODUCT_DEFINITION('part definition','',#1374,#1135);
#1376=PRODUCT_DEFINITION_SHAPE('','SHAPE FOR PRT0002.',#1375);
#1377=SHAPE_ASPECT('','solid data associated with PRT0002',#1376,.F.);
#1378=PROPERTY_DEFINITION('',
'shape for solid data with which properties are associated',#1377);
#1379=SHAPE_REPRESENTATION('',(#1359),#1366);
#1380=SHAPE_DEFINITION_REPRESENTATION(#1378,#1379);
#1381=(LENGTH_UNIT()NAMED_UNIT(*)SI_UNIT(.MILLI.,.METRE.));
#1385=PROPERTY_DEFINITION('geometric validation property','area of PRT0002',
#1377);
#1386=REPRESENTATION('surface area',(#1384),#1366);
#1387=PROPERTY_DEFINITION_REPRESENTATION(#1385,#1386);
#1388=(LENGTH_UNIT()NAMED_UNIT(*)SI_UNIT(.MILLI.,.METRE.));
#1392=PROPERTY_DEFINITION('geometric validation property','volume of PRT0002',
#1377);
#1393=REPRESENTATION('volume',(#1391),#1366);
#1394=PROPERTY_DEFINITION_REPRESENTATION(#1392,#1393);
#1396=PROPERTY_DEFINITION('geometric validation property','centroid of PRT0002',
#1377);
#1397=REPRESENTATION('centroid',(#1395),#1366);
#1398=PROPERTY_DEFINITION_REPRESENTATION(#1396,#1397);
#1399=(LENGTH_UNIT()NAMED_UNIT(*)SI_UNIT(.MILLI.,.METRE.));
#1403=PROPERTY_DEFINITION('geometric validation property','area of PRT0002',
#1376);
#1404=REPRESENTATION('surface area',(#1402),#1366);
#1405=PROPERTY_DEFINITION_REPRESENTATION(#1403,#1404);
#1406=(LENGTH_UNIT()NAMED_UNIT(*)SI_UNIT(.MILLI.,.METRE.));
#1410=PROPERTY_DEFINITION('geometric validation property','volume of PRT0002',
#1376);
#1411=REPRESENTATION('volume',(#1409),#1366);
#1412=PROPERTY_DEFINITION_REPRESENTATION(#1410,#1411);
#1414=PROPERTY_DEFINITION('geometric validation property','centroid of PRT0002',
#1376);
#1415=REPRESENTATION('centroid',(#1413),#1366);
#1416=PROPERTY_DEFINITION_REPRESENTATION(#1414,#1415);
#1417=SHAPE_DEFINITION_REPRESENTATION(#1376,#1371);
#1418=NEXT_ASSEMBLY_USAGE_OCCURRENCE('5','Next assembly relationship','PRT0002',
#2111,#1375,$);
#1419=PRODUCT_DEFINITION_SHAPE('Placement #5',
'Placement of PRT0002 with respect to CP-8X12-LKM_ASM',#1418);
#1421=PROPERTY_DEFINITION('geometric validation property','centroid of PRT0002',
#1419);
#1422=REPRESENTATION('centroid',(#1420),#1366);
#1423=PROPERTY_DEFINITION_REPRESENTATION(#1421,#1422);
#1435=CIRCLE('',#1434,6.71328E-1);
#1440=CIRCLE('',#1439,6.71328E-1);
#1445=CIRCLE('',#1444,6.71328E-1);
#1450=CIRCLE('',#1449,6.71328E-1);
#1455=CIRCLE('',#1454,4.0824E-1);
#1460=CIRCLE('',#1459,4.0824E-1);
#1465=CIRCLE('',#1464,4.0824E-1);
#1470=CIRCLE('',#1469,4.0824E-1);
#1523=CIRCLE('',#1522,6.71328E-1);
#1532=CIRCLE('',#1531,6.71328E-1);
#1541=CIRCLE('',#1540,6.71328E-1);
#1550=CIRCLE('',#1549,6.71328E-1);
#1563=CIRCLE('',#1562,4.0824E-1);
#1572=CIRCLE('',#1571,4.0824E-1);
#1581=CIRCLE('',#1580,4.0824E-1);
#1590=CIRCLE('',#1589,4.0824E-1);
#1708=EDGE_CURVE('',#1641,#1642,#1435,.T.);
#1710=EDGE_CURVE('',#1644,#1642,#1518,.T.);
#1712=EDGE_CURVE('',#1644,#1646,#1440,.T.);
#1714=EDGE_CURVE('',#1648,#1646,#1506,.T.);
#1716=EDGE_CURVE('',#1648,#1650,#1445,.T.);
#1718=EDGE_CURVE('',#1652,#1650,#1494,.T.);
#1720=EDGE_CURVE('',#1652,#1654,#1450,.T.);
#1722=EDGE_CURVE('',#1641,#1654,#1482,.T.);
#1726=EDGE_CURVE('',#1657,#1658,#1594,.T.);
#1728=EDGE_CURVE('',#1657,#1660,#1455,.T.);
#1730=EDGE_CURVE('',#1662,#1660,#1630,.T.);
#1732=EDGE_CURVE('',#1662,#1664,#1460,.T.);
#1734=EDGE_CURVE('',#1666,#1664,#1618,.T.);
#1736=EDGE_CURVE('',#1666,#1668,#1465,.T.);
#1738=EDGE_CURVE('',#1670,#1668,#1606,.T.);
#1740=EDGE_CURVE('',#1670,#1658,#1470,.T.);
#1744=ADVANCED_FACE('',(#1725,#1743),#1707,.F.);
#1758=EDGE_CURVE('',#1641,#1672,#1474,.T.);
#1760=EDGE_CURVE('',#1674,#1672,#1523,.T.);
#1762=EDGE_CURVE('',#1674,#1642,#1478,.T.);
#1766=ADVANCED_FACE('',(#1765),#1756,.T.);
#1773=EDGE_CURVE('',#1676,#1654,#1490,.T.);
#1775=EDGE_CURVE('',#1672,#1676,#1527,.T.);
#1780=ADVANCED_FACE('',(#1779),#1771,.T.);
#1787=EDGE_CURVE('',#1652,#1678,#1486,.T.);
#1789=EDGE_CURVE('',#1676,#1678,#1532,.T.);
#1794=ADVANCED_FACE('',(#1793),#1785,.T.);
#1801=EDGE_CURVE('',#1680,#1650,#1502,.T.);
#1803=EDGE_CURVE('',#1678,#1680,#1536,.T.);
#1808=ADVANCED_FACE('',(#1807),#1799,.T.);
#1815=EDGE_CURVE('',#1648,#1682,#1498,.T.);
#1817=EDGE_CURVE('',#1680,#1682,#1541,.T.);
#1822=ADVANCED_FACE('',(#1821),#1813,.T.);
#1829=EDGE_CURVE('',#1684,#1646,#1514,.T.);
#1831=EDGE_CURVE('',#1682,#1684,#1545,.T.);
#1836=ADVANCED_FACE('',(#1835),#1827,.T.);
#1843=EDGE_CURVE('',#1644,#1686,#1510,.T.);
#1845=EDGE_CURVE('',#1684,#1686,#1550,.T.);
#1850=ADVANCED_FACE('',(#1849),#1841,.T.);
#1858=EDGE_CURVE('',#1686,#1674,#1554,.T.);
#1863=ADVANCED_FACE('',(#1862),#1855,.T.);
#1879=EDGE_CURVE('',#1689,#1690,#1558,.T.);
#1881=EDGE_CURVE('',#1690,#1692,#1563,.T.);
#1883=EDGE_CURVE('',#1692,#1694,#1567,.T.);
#1885=EDGE_CURVE('',#1694,#1696,#1572,.T.);
#1887=EDGE_CURVE('',#1696,#1698,#1576,.T.);
#1889=EDGE_CURVE('',#1698,#1700,#1581,.T.);
#1891=EDGE_CURVE('',#1700,#1702,#1585,.T.);
#1893=EDGE_CURVE('',#1702,#1689,#1590,.T.);
#1897=ADVANCED_FACE('',(#1878,#1896),#1868,.T.);
#1911=EDGE_CURVE('',#1690,#1658,#1602,.T.);
#1914=EDGE_CURVE('',#1657,#1689,#1634,.T.);
#1918=ADVANCED_FACE('',(#1917),#1909,.T.);
#1925=EDGE_CURVE('',#1670,#1692,#1598,.T.);
#1931=ADVANCED_FACE('',(#1930),#1923,.F.);
#1938=EDGE_CURVE('',#1694,#1668,#1614,.T.);
#1944=ADVANCED_FACE('',(#1943),#1936,.T.);
#1951=EDGE_CURVE('',#1666,#1696,#1610,.T.);
#1957=ADVANCED_FACE('',(#1956),#1949,.F.);
#1964=EDGE_CURVE('',#1698,#1664,#1626,.T.);
#1970=ADVANCED_FACE('',(#1969),#1962,.T.);
#1977=EDGE_CURVE('',#1662,#1700,#1622,.T.);
#1983=ADVANCED_FACE('',(#1982),#1975,.F.);
#1990=EDGE_CURVE('',#1702,#1660,#1638,.T.);
#1996=ADVANCED_FACE('',(#1995),#1988,.T.);
#2008=ADVANCED_FACE('',(#2007),#2001,.F.);
#2011=(LENGTH_UNIT()NAMED_UNIT(*)SI_UNIT(.MILLI.,.METRE.));
#2012=(NAMED_UNIT(*)PLANE_ANGLE_UNIT()SI_UNIT($,.RADIAN.));
#2015=(NAMED_UNIT(*)SI_UNIT($,.STERADIAN.)SOLID_ANGLE_UNIT());
#2017=(GEOMETRIC_REPRESENTATION_CONTEXT(3)GLOBAL_UNCERTAINTY_ASSIGNED_CONTEXT((
#2016))GLOBAL_UNIT_ASSIGNED_CONTEXT((#2011,#2014,#2015))REPRESENTATION_CONTEXT(
'ID3','3'));
#2021=AXIS2_PLACEMENT_3D('',#2018,#2019,#2020);
#2022=ADVANCED_BREP_SHAPE_REPRESENTATION('',(#2021,#2010),#2017);
#2027=PRODUCT_DEFINITION('part definition','',#2026,#2023);
#2028=PRODUCT_DEFINITION_SHAPE('','SHAPE FOR YUAN-YELLOW.',#2027);
#2029=SHAPE_ASPECT('','solid data associated with YUAN-YELLOW',#2028,.F.);
#2030=PROPERTY_DEFINITION('',
'shape for solid data with which properties are associated',#2029);
#2031=SHAPE_REPRESENTATION('',(#2010),#2017);
#2032=SHAPE_DEFINITION_REPRESENTATION(#2030,#2031);
#2033=(LENGTH_UNIT()NAMED_UNIT(*)SI_UNIT(.MILLI.,.METRE.));
#2037=PROPERTY_DEFINITION('geometric validation property','area of YUAN-YELLOW',
#2029);
#2038=REPRESENTATION('surface area',(#2036),#2017);
#2039=PROPERTY_DEFINITION_REPRESENTATION(#2037,#2038);
#2040=(LENGTH_UNIT()NAMED_UNIT(*)SI_UNIT(.MILLI.,.METRE.));
#2044=PROPERTY_DEFINITION('geometric validation property',
'volume of YUAN-YELLOW',#2029);
#2045=REPRESENTATION('volume',(#2043),#2017);
#2046=PROPERTY_DEFINITION_REPRESENTATION(#2044,#2045);
#2048=PROPERTY_DEFINITION('geometric validation property',
'centroid of YUAN-YELLOW',#2029);
#2049=REPRESENTATION('centroid',(#2047),#2017);
#2050=PROPERTY_DEFINITION_REPRESENTATION(#2048,#2049);
#2051=(LENGTH_UNIT()NAMED_UNIT(*)SI_UNIT(.MILLI.,.METRE.));
#2055=PROPERTY_DEFINITION('geometric validation property','area of YUAN-YELLOW',
#2028);
#2056=REPRESENTATION('surface area',(#2054),#2017);
#2057=PROPERTY_DEFINITION_REPRESENTATION(#2055,#2056);
#2058=(LENGTH_UNIT()NAMED_UNIT(*)SI_UNIT(.MILLI.,.METRE.));
#2062=PROPERTY_DEFINITION('geometric validation property',
'volume of YUAN-YELLOW',#2028);
#2063=REPRESENTATION('volume',(#2061),#2017);
#2064=PROPERTY_DEFINITION_REPRESENTATION(#2062,#2063);
#2066=PROPERTY_DEFINITION('geometric validation property',
'centroid of YUAN-YELLOW',#2028);
#2067=REPRESENTATION('centroid',(#2065),#2017);
#2068=PROPERTY_DEFINITION_REPRESENTATION(#2066,#2067);
#2069=SHAPE_DEFINITION_REPRESENTATION(#2028,#2022);
#2070=NEXT_ASSEMBLY_USAGE_OCCURRENCE('6','Next assembly relationship',
'YUAN-YELLOW',#2111,#2027,$);
#2071=PRODUCT_DEFINITION_SHAPE('Placement #6',
'Placement of YUAN-YELLOW with respect to CP-8X12-LKM_ASM',#2070);
#2073=PROPERTY_DEFINITION('geometric validation property',
'centroid of YUAN-YELLOW',#2071);
#2074=REPRESENTATION('centroid',(#2072),#2017);
#2075=PROPERTY_DEFINITION_REPRESENTATION(#2073,#2074);
#2083=NEXT_ASSEMBLY_USAGE_OCCURRENCE('7','Next assembly relationship',
'YUAN-YELLOW',#2111,#2027,$);
#2084=PRODUCT_DEFINITION_SHAPE('Placement #7',
'Placement of YUAN-YELLOW with respect to CP-8X12-LKM_ASM',#2083);
#2086=PROPERTY_DEFINITION('geometric validation property',
'centroid of YUAN-YELLOW',#2084);
#2087=REPRESENTATION('centroid',(#2085),#2017);
#2088=PROPERTY_DEFINITION_REPRESENTATION(#2086,#2087);
#2096=(LENGTH_UNIT()NAMED_UNIT(*)SI_UNIT(.MILLI.,.METRE.));
#2097=(NAMED_UNIT(*)PLANE_ANGLE_UNIT()SI_UNIT($,.RADIAN.));
#2100=(NAMED_UNIT(*)SI_UNIT($,.STERADIAN.)SOLID_ANGLE_UNIT());
#2102=(GEOMETRIC_REPRESENTATION_CONTEXT(3)GLOBAL_UNCERTAINTY_ASSIGNED_CONTEXT((
#2101))GLOBAL_UNIT_ASSIGNED_CONTEXT((#2096,#2099,#2100))REPRESENTATION_CONTEXT(
'ID4','3'));
#2106=AXIS2_PLACEMENT_3D('',#2103,#2104,#2105);
#2111=PRODUCT_DEFINITION('part definition','',#2110,#2023);
#2112=(LENGTH_UNIT()NAMED_UNIT(*)SI_UNIT(.MILLI.,.METRE.));
#2116=PROPERTY_DEFINITION('geometric validation property',
'area of CP-8X12-LKM_ASM',#1183);
#2117=REPRESENTATION('surface area',(#2115),#2102);
#2118=PROPERTY_DEFINITION_REPRESENTATION(#2116,#2117);
#2119=(LENGTH_UNIT()NAMED_UNIT(*)SI_UNIT(.MILLI.,.METRE.));
#2123=PROPERTY_DEFINITION('geometric validation property',
'volume of CP-8X12-LKM_ASM',#1183);
#2124=REPRESENTATION('volume',(#2122),#2102);
#2125=PROPERTY_DEFINITION_REPRESENTATION(#2123,#2124);
#2127=PROPERTY_DEFINITION('geometric validation property',
'centroid of CP-8X12-LKM_ASM',#1183);
#2128=REPRESENTATION('centroid',(#2126),#2102);
#2129=PROPERTY_DEFINITION_REPRESENTATION(#2127,#2128);
ENDSEC;
END-ISO-10303-21;
