ISO-10303-21;
HEADER;
FILE_DESCRIPTION((''),'2;1');
FILE_NAME('734328','2025-12-09T07:57:31',('Administrator'),(''),
'CREO PARAMETRIC BY PTC INC, 2018100','CREO PARAMETRIC BY PTC INC, 2018100','');
FILE_SCHEMA(('AUTOMOTIVE_DESIGN { 1 0 10303 214 1 1 1 1 }'));
ENDSEC;
DATA;
#16=DIRECTION('',(0.E0,0.E0,-1.E0));
#17=VECTOR('',#16,1.18E0);
#18=CARTESIAN_POINT('',(1.5E0,0.E0,3.6E0));
#19=LINE('',#18,#17);
#20=DIRECTION('',(1.E0,0.E0,0.E0));
#21=VECTOR('',#20,1.55E0);
#22=CARTESIAN_POINT('',(1.5E0,0.E0,3.6E0));
#23=LINE('',#22,#21);
#24=DIRECTION('',(0.E0,0.E0,-1.E0));
#25=VECTOR('',#24,7.2E0);
#26=CARTESIAN_POINT('',(3.05E0,0.E0,3.6E0));
#27=LINE('',#26,#25);
#28=DIRECTION('',(-1.E0,0.E0,0.E0));
#29=VECTOR('',#28,1.55E0);
#30=CARTESIAN_POINT('',(3.05E0,0.E0,-3.6E0));
#31=LINE('',#30,#29);
#32=DIRECTION('',(0.E0,0.E0,1.E0));
#33=VECTOR('',#32,1.18E0);
#34=CARTESIAN_POINT('',(1.5E0,0.E0,-3.6E0));
#35=LINE('',#34,#33);
#36=DIRECTION('',(-1.E0,0.E0,0.E0));
#37=VECTOR('',#36,3.E0);
#38=CARTESIAN_POINT('',(1.5E0,0.E0,-2.42E0));
#39=LINE('',#38,#37);
#40=DIRECTION('',(0.E0,0.E0,1.E0));
#41=VECTOR('',#40,1.18E0);
#42=CARTESIAN_POINT('',(-1.5E0,0.E0,-3.6E0));
#43=LINE('',#42,#41);
#44=DIRECTION('',(-1.E0,0.E0,0.E0));
#45=VECTOR('',#44,1.55E0);
#46=CARTESIAN_POINT('',(-1.5E0,0.E0,-3.6E0));
#47=LINE('',#46,#45);
#48=DIRECTION('',(0.E0,0.E0,1.E0));
#49=VECTOR('',#48,7.2E0);
#50=CARTESIAN_POINT('',(-3.05E0,0.E0,-3.6E0));
#51=LINE('',#50,#49);
#52=DIRECTION('',(1.E0,0.E0,0.E0));
#53=VECTOR('',#52,1.55E0);
#54=CARTESIAN_POINT('',(-3.05E0,0.E0,3.6E0));
#55=LINE('',#54,#53);
#56=DIRECTION('',(0.E0,0.E0,-1.E0));
#57=VECTOR('',#56,1.18E0);
#58=CARTESIAN_POINT('',(-1.5E0,0.E0,3.6E0));
#59=LINE('',#58,#57);
#60=DIRECTION('',(-1.E0,0.E0,0.E0));
#61=VECTOR('',#60,3.E0);
#62=CARTESIAN_POINT('',(1.5E0,0.E0,2.42E0));
#63=LINE('',#62,#61);
#64=DIRECTION('',(0.E0,0.E0,1.E0));
#65=VECTOR('',#64,1.3E0);
#66=CARTESIAN_POINT('',(1.5E0,-1.2E-1,2.42E0));
#67=LINE('',#66,#65);
#68=DIRECTION('',(0.E0,0.E0,1.E0));
#69=VECTOR('',#68,1.2E-1);
#70=CARTESIAN_POINT('',(1.5E0,1.18E0,3.6E0));
#71=LINE('',#70,#69);
#72=DIRECTION('',(0.E0,1.E0,0.E0));
#73=VECTOR('',#72,1.18E0);
#74=CARTESIAN_POINT('',(1.5E0,0.E0,3.6E0));
#75=LINE('',#74,#73);
#76=DIRECTION('',(1.E0,0.E0,0.E0));
#77=VECTOR('',#76,3.E0);
#78=CARTESIAN_POINT('',(-1.5E0,1.18E0,3.6E0));
#79=LINE('',#78,#77);
#80=DIRECTION('',(0.E0,1.E0,0.E0));
#81=VECTOR('',#80,1.18E0);
#82=CARTESIAN_POINT('',(-1.5E0,0.E0,3.6E0));
#83=LINE('',#82,#81);
#84=DIRECTION('',(0.E0,1.E0,0.E0));
#85=VECTOR('',#84,4.2E0);
#86=CARTESIAN_POINT('',(-3.05E0,0.E0,3.6E0));
#87=LINE('',#86,#85);
#88=DIRECTION('',(0.E0,0.E0,1.E0));
#89=VECTOR('',#88,1.2E-1);
#90=CARTESIAN_POINT('',(-1.5E0,1.18E0,3.6E0));
#91=LINE('',#90,#89);
#92=DIRECTION('',(0.E0,-1.E0,0.E0));
#93=VECTOR('',#92,1.3E0);
#94=CARTESIAN_POINT('',(1.5E0,1.18E0,3.72E0));
#95=LINE('',#94,#93);
#96=DIRECTION('',(-1.E0,0.E0,0.E0));
#97=VECTOR('',#96,3.E0);
#98=CARTESIAN_POINT('',(1.5E0,-1.2E-1,3.72E0));
#99=LINE('',#98,#97);
#100=DIRECTION('',(0.E0,1.E0,0.E0));
#101=VECTOR('',#100,1.3E0);
#102=CARTESIAN_POINT('',(-1.5E0,-1.2E-1,3.72E0));
#103=LINE('',#102,#101);
#104=DIRECTION('',(1.E0,0.E0,0.E0));
#105=VECTOR('',#104,3.E0);
#106=CARTESIAN_POINT('',(-1.5E0,1.18E0,3.72E0));
#107=LINE('',#106,#105);
#108=DIRECTION('',(-1.E0,0.E0,0.E0));
#109=VECTOR('',#108,3.E0);
#110=CARTESIAN_POINT('',(1.5E0,-1.2E-1,2.42E0));
#111=LINE('',#110,#109);
#112=DIRECTION('',(0.E0,-1.E0,0.E0));
#113=VECTOR('',#112,1.2E-1);
#114=CARTESIAN_POINT('',(1.5E0,0.E0,2.42E0));
#115=LINE('',#114,#113);
#116=DIRECTION('',(0.E0,0.E0,-1.E0));
#117=VECTOR('',#116,1.3E0);
#118=CARTESIAN_POINT('',(-1.5E0,-1.2E-1,3.72E0));
#119=LINE('',#118,#117);
#120=DIRECTION('',(0.E0,-1.E0,0.E0));
#121=VECTOR('',#120,1.2E-1);
#122=CARTESIAN_POINT('',(-1.5E0,0.E0,2.42E0));
#123=LINE('',#122,#121);
#124=DIRECTION('',(0.E0,1.E0,0.E0));
#125=VECTOR('',#124,4.2E0);
#126=CARTESIAN_POINT('',(-3.05E0,0.E0,-3.6E0));
#127=LINE('',#126,#125);
#128=DIRECTION('',(0.E0,1.E0,0.E0));
#129=VECTOR('',#128,1.18E0);
#130=CARTESIAN_POINT('',(1.5E0,0.E0,-3.6E0));
#131=LINE('',#130,#129);
#132=DIRECTION('',(0.E0,1.E0,0.E0));
#133=VECTOR('',#132,4.2E0);
#134=CARTESIAN_POINT('',(3.05E0,0.E0,-3.6E0));
#135=LINE('',#134,#133);
#136=DIRECTION('',(0.E0,1.E0,0.E0));
#137=VECTOR('',#136,1.18E0);
#138=CARTESIAN_POINT('',(-1.5E0,0.E0,-3.6E0));
#139=LINE('',#138,#137);
#140=DIRECTION('',(1.E0,0.E0,0.E0));
#141=VECTOR('',#140,3.E0);
#142=CARTESIAN_POINT('',(-1.5E0,1.18E0,-3.6E0));
#143=LINE('',#142,#141);
#144=DIRECTION('',(0.E0,0.E0,1.E0));
#145=VECTOR('',#144,1.3E0);
#146=CARTESIAN_POINT('',(1.5E0,-1.2E-1,-3.72E0));
#147=LINE('',#146,#145);
#148=DIRECTION('',(0.E0,0.E0,-1.E0));
#149=VECTOR('',#148,1.2E-1);
#150=CARTESIAN_POINT('',(1.5E0,1.18E0,-3.6E0));
#151=LINE('',#150,#149);
#152=DIRECTION('',(-1.E0,0.E0,0.E0));
#153=VECTOR('',#152,3.E0);
#154=CARTESIAN_POINT('',(1.5E0,-1.2E-1,-2.42E0));
#155=LINE('',#154,#153);
#156=DIRECTION('',(0.E0,-1.E0,0.E0));
#157=VECTOR('',#156,1.2E-1);
#158=CARTESIAN_POINT('',(-1.5E0,0.E0,-2.42E0));
#159=LINE('',#158,#157);
#160=DIRECTION('',(0.E0,0.E0,-1.E0));
#161=VECTOR('',#160,1.3E0);
#162=CARTESIAN_POINT('',(-1.5E0,-1.2E-1,-2.42E0));
#163=LINE('',#162,#161);
#164=DIRECTION('',(0.E0,-1.E0,0.E0));
#165=VECTOR('',#164,1.2E-1);
#166=CARTESIAN_POINT('',(1.5E0,0.E0,-2.42E0));
#167=LINE('',#166,#165);
#168=DIRECTION('',(0.E0,-1.E0,0.E0));
#169=VECTOR('',#168,1.3E0);
#170=CARTESIAN_POINT('',(1.5E0,1.18E0,-3.72E0));
#171=LINE('',#170,#169);
#172=DIRECTION('',(1.E0,0.E0,0.E0));
#173=VECTOR('',#172,3.E0);
#174=CARTESIAN_POINT('',(-1.5E0,1.18E0,-3.72E0));
#175=LINE('',#174,#173);
#176=DIRECTION('',(0.E0,1.E0,0.E0));
#177=VECTOR('',#176,1.3E0);
#178=CARTESIAN_POINT('',(-1.5E0,-1.2E-1,-3.72E0));
#179=LINE('',#178,#177);
#180=DIRECTION('',(-1.E0,0.E0,0.E0));
#181=VECTOR('',#180,3.E0);
#182=CARTESIAN_POINT('',(1.5E0,-1.2E-1,-3.72E0));
#183=LINE('',#182,#181);
#184=DIRECTION('',(0.E0,0.E0,-1.E0));
#185=VECTOR('',#184,1.2E-1);
#186=CARTESIAN_POINT('',(-1.5E0,1.18E0,-3.6E0));
#187=LINE('',#186,#185);
#188=DIRECTION('',(0.E0,1.E0,0.E0));
#189=VECTOR('',#188,4.2E0);
#190=CARTESIAN_POINT('',(3.05E0,0.E0,3.6E0));
#191=LINE('',#190,#189);
#192=DIRECTION('',(-1.E0,0.E0,0.E0));
#193=VECTOR('',#192,6.1E0);
#194=CARTESIAN_POINT('',(3.05E0,4.2E0,-3.6E0));
#195=LINE('',#194,#193);
#196=DIRECTION('',(0.E0,0.E0,-1.E0));
#197=VECTOR('',#196,7.2E0);
#198=CARTESIAN_POINT('',(3.05E0,4.2E0,3.6E0));
#199=LINE('',#198,#197);
#200=DIRECTION('',(1.E0,0.E0,0.E0));
#201=VECTOR('',#200,6.1E0);
#202=CARTESIAN_POINT('',(-3.05E0,4.2E0,3.6E0));
#203=LINE('',#202,#201);
#204=DIRECTION('',(0.E0,0.E0,1.E0));
#205=VECTOR('',#204,7.2E0);
#206=CARTESIAN_POINT('',(-3.05E0,4.2E0,-3.6E0));
#207=LINE('',#206,#205);
#208=CARTESIAN_POINT('',(-3.05E0,0.E0,-3.6E0));
#209=CARTESIAN_POINT('',(-3.05E0,0.E0,3.6E0));
#210=VERTEX_POINT('',#208);
#211=VERTEX_POINT('',#209);
#212=CARTESIAN_POINT('',(3.05E0,0.E0,3.6E0));
#213=CARTESIAN_POINT('',(3.05E0,0.E0,-3.6E0));
#214=VERTEX_POINT('',#212);
#215=VERTEX_POINT('',#213);
#216=CARTESIAN_POINT('',(3.05E0,4.2E0,-3.6E0));
#217=CARTESIAN_POINT('',(-3.05E0,4.2E0,-3.6E0));
#218=VERTEX_POINT('',#216);
#219=VERTEX_POINT('',#217);
#220=CARTESIAN_POINT('',(-3.05E0,4.2E0,3.6E0));
#221=VERTEX_POINT('',#220);
#222=CARTESIAN_POINT('',(3.05E0,4.2E0,3.6E0));
#223=VERTEX_POINT('',#222);
#224=CARTESIAN_POINT('',(1.5E0,1.18E0,-3.72E0));
#225=CARTESIAN_POINT('',(1.5E0,-1.2E-1,-3.72E0));
#226=VERTEX_POINT('',#224);
#227=VERTEX_POINT('',#225);
#228=CARTESIAN_POINT('',(-1.5E0,-1.2E-1,-3.72E0));
#229=VERTEX_POINT('',#228);
#230=CARTESIAN_POINT('',(-1.5E0,1.18E0,-3.72E0));
#231=VERTEX_POINT('',#230);
#232=CARTESIAN_POINT('',(-1.5E0,1.18E0,-3.6E0));
#233=CARTESIAN_POINT('',(1.5E0,1.18E0,-3.6E0));
#234=VERTEX_POINT('',#232);
#235=VERTEX_POINT('',#233);
#236=CARTESIAN_POINT('',(1.5E0,1.18E0,3.72E0));
#237=CARTESIAN_POINT('',(1.5E0,-1.2E-1,3.72E0));
#238=VERTEX_POINT('',#236);
#239=VERTEX_POINT('',#237);
#240=CARTESIAN_POINT('',(-1.5E0,-1.2E-1,3.72E0));
#241=VERTEX_POINT('',#240);
#242=CARTESIAN_POINT('',(-1.5E0,1.18E0,3.72E0));
#243=VERTEX_POINT('',#242);
#244=CARTESIAN_POINT('',(1.5E0,1.18E0,3.6E0));
#245=VERTEX_POINT('',#244);
#246=CARTESIAN_POINT('',(-1.5E0,1.18E0,3.6E0));
#247=VERTEX_POINT('',#246);
#248=CARTESIAN_POINT('',(1.5E0,-1.2E-1,-2.42E0));
#249=CARTESIAN_POINT('',(-1.5E0,-1.2E-1,-2.42E0));
#250=VERTEX_POINT('',#248);
#251=VERTEX_POINT('',#249);
#252=CARTESIAN_POINT('',(1.5E0,0.E0,-3.6E0));
#253=CARTESIAN_POINT('',(1.5E0,0.E0,-2.42E0));
#254=VERTEX_POINT('',#252);
#255=VERTEX_POINT('',#253);
#256=CARTESIAN_POINT('',(-1.5E0,0.E0,-2.42E0));
#257=VERTEX_POINT('',#256);
#258=CARTESIAN_POINT('',(-1.5E0,0.E0,-3.6E0));
#259=VERTEX_POINT('',#258);
#260=CARTESIAN_POINT('',(1.5E0,-1.2E-1,2.42E0));
#261=CARTESIAN_POINT('',(-1.5E0,-1.2E-1,2.42E0));
#262=VERTEX_POINT('',#260);
#263=VERTEX_POINT('',#261);
#264=CARTESIAN_POINT('',(1.5E0,0.E0,2.42E0));
#265=VERTEX_POINT('',#264);
#266=CARTESIAN_POINT('',(-1.5E0,0.E0,2.42E0));
#267=VERTEX_POINT('',#266);
#268=CARTESIAN_POINT('',(1.5E0,0.E0,3.6E0));
#269=VERTEX_POINT('',#268);
#270=CARTESIAN_POINT('',(-1.5E0,0.E0,3.6E0));
#271=VERTEX_POINT('',#270);
#272=CARTESIAN_POINT('',(0.E0,0.E0,0.E0));
#273=DIRECTION('',(0.E0,1.E0,0.E0));
#274=DIRECTION('',(0.E0,0.E0,1.E0));
#275=AXIS2_PLACEMENT_3D('',#272,#273,#274);
#276=PLANE('',#275);
#278=ORIENTED_EDGE('',*,*,#277,.F.);
#280=ORIENTED_EDGE('',*,*,#279,.T.);
#282=ORIENTED_EDGE('',*,*,#281,.T.);
#284=ORIENTED_EDGE('',*,*,#283,.T.);
#286=ORIENTED_EDGE('',*,*,#285,.T.);
#288=ORIENTED_EDGE('',*,*,#287,.T.);
#290=ORIENTED_EDGE('',*,*,#289,.F.);
#292=ORIENTED_EDGE('',*,*,#291,.T.);
#294=ORIENTED_EDGE('',*,*,#293,.T.);
#296=ORIENTED_EDGE('',*,*,#295,.T.);
#298=ORIENTED_EDGE('',*,*,#297,.T.);
#300=ORIENTED_EDGE('',*,*,#299,.F.);
#301=EDGE_LOOP('',(#278,#280,#282,#284,#286,#288,#290,#292,#294,#296,#298,
#300));
#302=FACE_OUTER_BOUND('',#301,.F.);
#304=FILL_AREA_STYLE_COLOUR('',#3);
#305=FILL_AREA_STYLE('',(#304));
#306=SURFACE_STYLE_FILL_AREA(#305);
#307=SURFACE_SIDE_STYLE('',(#306));
#308=SURFACE_STYLE_USAGE(.POSITIVE.,#307);
#309=PRESENTATION_STYLE_ASSIGNMENT((#308));
#310=STYLED_ITEM('',(#309),#303);
#311=CARTESIAN_POINT('',(1.5E0,1.18E0,3.6E0));
#312=DIRECTION('',(-1.E0,0.E0,0.E0));
#313=DIRECTION('',(0.E0,-1.E0,0.E0));
#314=AXIS2_PLACEMENT_3D('',#311,#312,#313);
#315=PLANE('',#314);
#317=ORIENTED_EDGE('',*,*,#316,.F.);
#318=ORIENTED_EDGE('',*,*,#277,.T.);
#320=ORIENTED_EDGE('',*,*,#319,.T.);
#322=ORIENTED_EDGE('',*,*,#321,.T.);
#324=ORIENTED_EDGE('',*,*,#323,.F.);
#326=ORIENTED_EDGE('',*,*,#325,.F.);
#327=EDGE_LOOP('',(#317,#318,#320,#322,#324,#326));
#328=FACE_OUTER_BOUND('',#327,.F.);
#330=FILL_AREA_STYLE_COLOUR('',#9);
#331=FILL_AREA_STYLE('',(#330));
#332=SURFACE_STYLE_FILL_AREA(#331);
#333=SURFACE_SIDE_STYLE('',(#332));
#334=SURFACE_STYLE_USAGE(.POSITIVE.,#333);
#335=PRESENTATION_STYLE_ASSIGNMENT((#334));
#336=STYLED_ITEM('',(#335),#329);
#337=CARTESIAN_POINT('',(-3.05E0,0.E0,3.6E0));
#338=DIRECTION('',(0.E0,0.E0,1.E0));
#339=DIRECTION('',(1.E0,0.E0,0.E0));
#340=AXIS2_PLACEMENT_3D('',#337,#338,#339);
#341=PLANE('',#340);
#342=ORIENTED_EDGE('',*,*,#316,.T.);
#344=ORIENTED_EDGE('',*,*,#343,.F.);
#346=ORIENTED_EDGE('',*,*,#345,.F.);
#347=ORIENTED_EDGE('',*,*,#295,.F.);
#349=ORIENTED_EDGE('',*,*,#348,.T.);
#351=ORIENTED_EDGE('',*,*,#350,.T.);
#353=ORIENTED_EDGE('',*,*,#352,.F.);
#354=ORIENTED_EDGE('',*,*,#279,.F.);
#355=EDGE_LOOP('',(#342,#344,#346,#347,#349,#351,#353,#354));
#356=FACE_OUTER_BOUND('',#355,.F.);
#358=FILL_AREA_STYLE_COLOUR('',#3);
#359=FILL_AREA_STYLE('',(#358));
#360=SURFACE_STYLE_FILL_AREA(#359);
#361=SURFACE_SIDE_STYLE('',(#360));
#362=SURFACE_STYLE_USAGE(.POSITIVE.,#361);
#363=PRESENTATION_STYLE_ASSIGNMENT((#362));
#364=STYLED_ITEM('',(#363),#357);
#365=CARTESIAN_POINT('',(-1.5E0,1.18E0,3.6E0));
#366=DIRECTION('',(0.E0,-1.E0,0.E0));
#367=DIRECTION('',(1.E0,0.E0,0.E0));
#368=AXIS2_PLACEMENT_3D('',#365,#366,#367);
#369=PLANE('',#368);
#370=ORIENTED_EDGE('',*,*,#325,.T.);
#372=ORIENTED_EDGE('',*,*,#371,.F.);
#374=ORIENTED_EDGE('',*,*,#373,.F.);
#375=ORIENTED_EDGE('',*,*,#343,.T.);
#376=EDGE_LOOP('',(#370,#372,#374,#375));
#377=FACE_OUTER_BOUND('',#376,.F.);
#379=FILL_AREA_STYLE_COLOUR('',#9);
#380=FILL_AREA_STYLE('',(#379));
#381=SURFACE_STYLE_FILL_AREA(#380);
#382=SURFACE_SIDE_STYLE('',(#381));
#383=SURFACE_STYLE_USAGE(.POSITIVE.,#382);
#384=PRESENTATION_STYLE_ASSIGNMENT((#383));
#385=STYLED_ITEM('',(#384),#378);
#386=CARTESIAN_POINT('',(0.E0,0.E0,3.72E0));
#387=DIRECTION('',(0.E0,0.E0,-1.E0));
#388=DIRECTION('',(-1.E0,0.E0,0.E0));
#389=AXIS2_PLACEMENT_3D('',#386,#387,#388);
#390=PLANE('',#389);
#391=ORIENTED_EDGE('',*,*,#323,.T.);
#393=ORIENTED_EDGE('',*,*,#392,.T.);
#395=ORIENTED_EDGE('',*,*,#394,.T.);
#396=ORIENTED_EDGE('',*,*,#371,.T.);
#397=EDGE_LOOP('',(#391,#393,#395,#396));
#398=FACE_OUTER_BOUND('',#397,.F.);
#400=FILL_AREA_STYLE_COLOUR('',#9);
#401=FILL_AREA_STYLE('',(#400));
#402=SURFACE_STYLE_FILL_AREA(#401);
#403=SURFACE_SIDE_STYLE('',(#402));
#404=SURFACE_STYLE_USAGE(.POSITIVE.,#403);
#405=PRESENTATION_STYLE_ASSIGNMENT((#404));
#406=STYLED_ITEM('',(#405),#399);
#407=CARTESIAN_POINT('',(1.5E0,-1.2E-1,3.6E0));
#408=DIRECTION('',(0.E0,1.E0,0.E0));
#409=DIRECTION('',(-1.E0,0.E0,0.E0));
#410=AXIS2_PLACEMENT_3D('',#407,#408,#409);
#411=PLANE('',#410);
#412=ORIENTED_EDGE('',*,*,#321,.F.);
#414=ORIENTED_EDGE('',*,*,#413,.T.);
#416=ORIENTED_EDGE('',*,*,#415,.F.);
#417=ORIENTED_EDGE('',*,*,#392,.F.);
#418=EDGE_LOOP('',(#412,#414,#416,#417));
#419=FACE_OUTER_BOUND('',#418,.F.);
#421=FILL_AREA_STYLE_COLOUR('',#9);
#422=FILL_AREA_STYLE('',(#421));
#423=SURFACE_STYLE_FILL_AREA(#422);
#424=SURFACE_SIDE_STYLE('',(#423));
#425=SURFACE_STYLE_USAGE(.POSITIVE.,#424);
#426=PRESENTATION_STYLE_ASSIGNMENT((#425));
#427=STYLED_ITEM('',(#426),#420);
#428=CARTESIAN_POINT('',(1.5E0,0.E0,2.42E0));
#429=DIRECTION('',(0.E0,0.E0,1.E0));
#430=DIRECTION('',(-1.E0,0.E0,0.E0));
#431=AXIS2_PLACEMENT_3D('',#428,#429,#430);
#432=PLANE('',#431);
#433=ORIENTED_EDGE('',*,*,#319,.F.);
#434=ORIENTED_EDGE('',*,*,#299,.T.);
#436=ORIENTED_EDGE('',*,*,#435,.T.);
#437=ORIENTED_EDGE('',*,*,#413,.F.);
#438=EDGE_LOOP('',(#433,#434,#436,#437));
#439=FACE_OUTER_BOUND('',#438,.F.);
#441=CARTESIAN_POINT('',(-1.5E0,-1.2E-1,3.6E0));
#442=DIRECTION('',(1.E0,0.E0,0.E0));
#443=DIRECTION('',(0.E0,1.E0,0.E0));
#444=AXIS2_PLACEMENT_3D('',#441,#442,#443);
#445=PLANE('',#444);
#446=ORIENTED_EDGE('',*,*,#415,.T.);
#447=ORIENTED_EDGE('',*,*,#435,.F.);
#448=ORIENTED_EDGE('',*,*,#297,.F.);
#449=ORIENTED_EDGE('',*,*,#345,.T.);
#450=ORIENTED_EDGE('',*,*,#373,.T.);
#451=ORIENTED_EDGE('',*,*,#394,.F.);
#452=EDGE_LOOP('',(#446,#447,#448,#449,#450,#451));
#453=FACE_OUTER_BOUND('',#452,.F.);
#455=FILL_AREA_STYLE_COLOUR('',#9);
#456=FILL_AREA_STYLE('',(#455));
#457=SURFACE_STYLE_FILL_AREA(#456);
#458=SURFACE_SIDE_STYLE('',(#457));
#459=SURFACE_STYLE_USAGE(.POSITIVE.,#458);
#460=PRESENTATION_STYLE_ASSIGNMENT((#459));
#461=STYLED_ITEM('',(#460),#454);
#462=CARTESIAN_POINT('',(-3.05E0,0.E0,-3.6E0));
#463=DIRECTION('',(-1.E0,0.E0,0.E0));
#464=DIRECTION('',(0.E0,0.E0,1.E0));
#465=AXIS2_PLACEMENT_3D('',#462,#463,#464);
#466=PLANE('',#465);
#467=ORIENTED_EDGE('',*,*,#293,.F.);
#469=ORIENTED_EDGE('',*,*,#468,.T.);
#471=ORIENTED_EDGE('',*,*,#470,.T.);
#472=ORIENTED_EDGE('',*,*,#348,.F.);
#473=EDGE_LOOP('',(#467,#469,#471,#472));
#474=FACE_OUTER_BOUND('',#473,.F.);
#476=FILL_AREA_STYLE_COLOUR('',#3);
#477=FILL_AREA_STYLE('',(#476));
#478=SURFACE_STYLE_FILL_AREA(#477);
#479=SURFACE_SIDE_STYLE('',(#478));
#480=SURFACE_STYLE_USAGE(.POSITIVE.,#479);
#481=PRESENTATION_STYLE_ASSIGNMENT((#480));
#482=STYLED_ITEM('',(#481),#475);
#483=CARTESIAN_POINT('',(3.05E0,0.E0,-3.6E0));
#484=DIRECTION('',(0.E0,0.E0,-1.E0));
#485=DIRECTION('',(-1.E0,0.E0,0.E0));
#486=AXIS2_PLACEMENT_3D('',#483,#484,#485);
#487=PLANE('',#486);
#489=ORIENTED_EDGE('',*,*,#488,.F.);
#490=ORIENTED_EDGE('',*,*,#283,.F.);
#492=ORIENTED_EDGE('',*,*,#491,.T.);
#494=ORIENTED_EDGE('',*,*,#493,.T.);
#495=ORIENTED_EDGE('',*,*,#468,.F.);
#496=ORIENTED_EDGE('',*,*,#291,.F.);
#498=ORIENTED_EDGE('',*,*,#497,.T.);
#500=ORIENTED_EDGE('',*,*,#499,.T.);
#501=EDGE_LOOP('',(#489,#490,#492,#494,#495,#496,#498,#500));
#502=FACE_OUTER_BOUND('',#501,.F.);
#504=FILL_AREA_STYLE_COLOUR('',#3);
#505=FILL_AREA_STYLE('',(#504));
#506=SURFACE_STYLE_FILL_AREA(#505);
#507=SURFACE_SIDE_STYLE('',(#506));
#508=SURFACE_STYLE_USAGE(.POSITIVE.,#507);
#509=PRESENTATION_STYLE_ASSIGNMENT((#508));
#510=STYLED_ITEM('',(#509),#503);
#511=CARTESIAN_POINT('',(1.5E0,1.18E0,-3.6E0));
#512=DIRECTION('',(1.E0,0.E0,0.E0));
#513=DIRECTION('',(0.E0,-1.E0,0.E0));
#514=AXIS2_PLACEMENT_3D('',#511,#512,#513);
#515=PLANE('',#514);
#517=ORIENTED_EDGE('',*,*,#516,.T.);
#519=ORIENTED_EDGE('',*,*,#518,.F.);
#520=ORIENTED_EDGE('',*,*,#285,.F.);
#521=ORIENTED_EDGE('',*,*,#488,.T.);
#523=ORIENTED_EDGE('',*,*,#522,.T.);
#525=ORIENTED_EDGE('',*,*,#524,.T.);
#526=EDGE_LOOP('',(#517,#519,#520,#521,#523,#525));
#527=FACE_OUTER_BOUND('',#526,.F.);
#529=FILL_AREA_STYLE_COLOUR('',#9);
#530=FILL_AREA_STYLE('',(#529));
#531=SURFACE_STYLE_FILL_AREA(#530);
#532=SURFACE_SIDE_STYLE('',(#531));
#533=SURFACE_STYLE_USAGE(.POSITIVE.,#532);
#534=PRESENTATION_STYLE_ASSIGNMENT((#533));
#535=STYLED_ITEM('',(#534),#528);
#536=CARTESIAN_POINT('',(1.5E0,-1.2E-1,-3.6E0));
#537=DIRECTION('',(0.E0,-1.E0,0.E0));
#538=DIRECTION('',(-1.E0,0.E0,0.E0));
#539=AXIS2_PLACEMENT_3D('',#536,#537,#538);
#540=PLANE('',#539);
#542=ORIENTED_EDGE('',*,*,#541,.F.);
#544=ORIENTED_EDGE('',*,*,#543,.F.);
#545=ORIENTED_EDGE('',*,*,#516,.F.);
#547=ORIENTED_EDGE('',*,*,#546,.T.);
#548=EDGE_LOOP('',(#542,#544,#545,#547));
#549=FACE_OUTER_BOUND('',#548,.F.);
#551=FILL_AREA_STYLE_COLOUR('',#9);
#552=FILL_AREA_STYLE('',(#551));
#553=SURFACE_STYLE_FILL_AREA(#552);
#554=SURFACE_SIDE_STYLE('',(#553));
#555=SURFACE_STYLE_USAGE(.POSITIVE.,#554);
#556=PRESENTATION_STYLE_ASSIGNMENT((#555));
#557=STYLED_ITEM('',(#556),#550);
#558=CARTESIAN_POINT('',(-1.5E0,-1.2E-1,-3.6E0));
#559=DIRECTION('',(-1.E0,0.E0,0.E0));
#560=DIRECTION('',(0.E0,1.E0,0.E0));
#561=AXIS2_PLACEMENT_3D('',#558,#559,#560);
#562=PLANE('',#561);
#563=ORIENTED_EDGE('',*,*,#497,.F.);
#564=ORIENTED_EDGE('',*,*,#289,.T.);
#566=ORIENTED_EDGE('',*,*,#565,.T.);
#567=ORIENTED_EDGE('',*,*,#541,.T.);
#569=ORIENTED_EDGE('',*,*,#568,.T.);
#571=ORIENTED_EDGE('',*,*,#570,.F.);
#572=EDGE_LOOP('',(#563,#564,#566,#567,#569,#571));
#573=FACE_OUTER_BOUND('',#572,.F.);
#575=FILL_AREA_STYLE_COLOUR('',#9);
#576=FILL_AREA_STYLE('',(#575));
#577=SURFACE_STYLE_FILL_AREA(#576);
#578=SURFACE_SIDE_STYLE('',(#577));
#579=SURFACE_STYLE_USAGE(.POSITIVE.,#578);
#580=PRESENTATION_STYLE_ASSIGNMENT((#579));
#581=STYLED_ITEM('',(#580),#574);
#582=CARTESIAN_POINT('',(1.5E0,0.E0,-2.42E0));
#583=DIRECTION('',(0.E0,0.E0,1.E0));
#584=DIRECTION('',(-1.E0,0.E0,0.E0));
#585=AXIS2_PLACEMENT_3D('',#582,#583,#584);
#586=PLANE('',#585);
#587=ORIENTED_EDGE('',*,*,#287,.F.);
#588=ORIENTED_EDGE('',*,*,#518,.T.);
#589=ORIENTED_EDGE('',*,*,#543,.T.);
#590=ORIENTED_EDGE('',*,*,#565,.F.);
#591=EDGE_LOOP('',(#587,#588,#589,#590));
#592=FACE_OUTER_BOUND('',#591,.F.);
#594=CARTESIAN_POINT('',(0.E0,0.E0,-3.72E0));
#595=DIRECTION('',(0.E0,0.E0,-1.E0));
#596=DIRECTION('',(-1.E0,0.E0,0.E0));
#597=AXIS2_PLACEMENT_3D('',#594,#595,#596);
#598=PLANE('',#597);
#599=ORIENTED_EDGE('',*,*,#524,.F.);
#601=ORIENTED_EDGE('',*,*,#600,.F.);
#602=ORIENTED_EDGE('',*,*,#568,.F.);
#603=ORIENTED_EDGE('',*,*,#546,.F.);
#604=EDGE_LOOP('',(#599,#601,#602,#603));
#605=FACE_OUTER_BOUND('',#604,.F.);
#607=FILL_AREA_STYLE_COLOUR('',#9);
#608=FILL_AREA_STYLE('',(#607));
#609=SURFACE_STYLE_FILL_AREA(#608);
#610=SURFACE_SIDE_STYLE('',(#609));
#611=SURFACE_STYLE_USAGE(.POSITIVE.,#610);
#612=PRESENTATION_STYLE_ASSIGNMENT((#611));
#613=STYLED_ITEM('',(#612),#606);
#614=CARTESIAN_POINT('',(-1.5E0,1.18E0,-3.6E0));
#615=DIRECTION('',(0.E0,1.E0,0.E0));
#616=DIRECTION('',(1.E0,0.E0,0.E0));
#617=AXIS2_PLACEMENT_3D('',#614,#615,#616);
#618=PLANE('',#617);
#619=ORIENTED_EDGE('',*,*,#499,.F.);
#620=ORIENTED_EDGE('',*,*,#570,.T.);
#621=ORIENTED_EDGE('',*,*,#600,.T.);
#622=ORIENTED_EDGE('',*,*,#522,.F.);
#623=EDGE_LOOP('',(#619,#620,#621,#622));
#624=FACE_OUTER_BOUND('',#623,.F.);
#626=FILL_AREA_STYLE_COLOUR('',#9);
#627=FILL_AREA_STYLE('',(#626));
#628=SURFACE_STYLE_FILL_AREA(#627);
#629=SURFACE_SIDE_STYLE('',(#628));
#630=SURFACE_STYLE_USAGE(.POSITIVE.,#629);
#631=PRESENTATION_STYLE_ASSIGNMENT((#630));
#632=STYLED_ITEM('',(#631),#625);
#633=CARTESIAN_POINT('',(3.05E0,0.E0,3.6E0));
#634=DIRECTION('',(1.E0,0.E0,0.E0));
#635=DIRECTION('',(0.E0,0.E0,-1.E0));
#636=AXIS2_PLACEMENT_3D('',#633,#634,#635);
#637=PLANE('',#636);
#638=ORIENTED_EDGE('',*,*,#281,.F.);
#639=ORIENTED_EDGE('',*,*,#352,.T.);
#641=ORIENTED_EDGE('',*,*,#640,.T.);
#642=ORIENTED_EDGE('',*,*,#491,.F.);
#643=EDGE_LOOP('',(#638,#639,#641,#642));
#644=FACE_OUTER_BOUND('',#643,.F.);
#646=FILL_AREA_STYLE_COLOUR('',#3);
#647=FILL_AREA_STYLE('',(#646));
#648=SURFACE_STYLE_FILL_AREA(#647);
#649=SURFACE_SIDE_STYLE('',(#648));
#650=SURFACE_STYLE_USAGE(.POSITIVE.,#649);
#651=PRESENTATION_STYLE_ASSIGNMENT((#650));
#652=STYLED_ITEM('',(#651),#645);
#653=CARTESIAN_POINT('',(0.E0,4.2E0,0.E0));
#654=DIRECTION('',(0.E0,1.E0,0.E0));
#655=DIRECTION('',(0.E0,0.E0,1.E0));
#656=AXIS2_PLACEMENT_3D('',#653,#654,#655);
#657=PLANE('',#656);
#658=ORIENTED_EDGE('',*,*,#493,.F.);
#659=ORIENTED_EDGE('',*,*,#640,.F.);
#660=ORIENTED_EDGE('',*,*,#350,.F.);
#661=ORIENTED_EDGE('',*,*,#470,.F.);
#662=EDGE_LOOP('',(#658,#659,#660,#661));
#663=FACE_OUTER_BOUND('',#662,.F.);
#665=FILL_AREA_STYLE_COLOUR('',#3);
#666=FILL_AREA_STYLE('',(#665));
#667=SURFACE_STYLE_FILL_AREA(#666);
#668=SURFACE_SIDE_STYLE('',(#667));
#669=SURFACE_STYLE_USAGE(.POSITIVE.,#668);
#670=PRESENTATION_STYLE_ASSIGNMENT((#669));
#671=STYLED_ITEM('',(#670),#664);
#672=CLOSED_SHELL('',(#303,#329,#357,#378,#399,#420,#440,#454,#475,#503,#528,
#550,#574,#593,#606,#625,#645,#664));
#673=MANIFOLD_SOLID_BREP('',#672);
#676=PLANE_ANGLE_MEASURE_WITH_UNIT(PLANE_ANGLE_MEASURE(1.745329251994E-2),#675);
#677=(CONVERSION_BASED_UNIT('DEGREE',#676)NAMED_UNIT(*)PLANE_ANGLE_UNIT());
#679=UNCERTAINTY_MEASURE_WITH_UNIT(LENGTH_MEASURE(1.054595192944E-3),#674,
'distance_accuracy_value',
'Maximum model space distance between geometric entities at asserted connectivities');
#682=MECHANICAL_DESIGN_GEOMETRIC_PRESENTATION_REPRESENTATION('',(#310,#336,#364,
#385,#406,#427,#461,#482,#510,#535,#557,#581,#613,#632,#652,#671),#680);
#683=APPLICATION_CONTEXT('automotive_design');
#684=APPLICATION_PROTOCOL_DEFINITION('international standard',
'automotive_design',2001,#683);
#685=PRODUCT_DEFINITION_CONTEXT('part definition',#683,'design');
#686=PRODUCT_CONTEXT('',#683,'mechanical');
#687=PRODUCT('734328','734328','NOT SPECIFIED',(#686));
#688=PRODUCT_DEFINITION_FORMATION('2','LAST_VERSION',#687);
#696=DERIVED_UNIT_ELEMENT(#695,2.E0);
#697=DERIVED_UNIT((#696));
#698=MEASURE_REPRESENTATION_ITEM('surface area measure',AREA_MEASURE
(2.036304E2),#697);
#703=DERIVED_UNIT_ELEMENT(#702,3.E0);
#704=DERIVED_UNIT((#703));
#705=MEASURE_REPRESENTATION_ITEM('volume measure',VOLUME_MEASURE(1.862496E2),
#704);
#709=CARTESIAN_POINT('centre point',(0.E0,2.082256842431E0,0.E0));
#714=DERIVED_UNIT_ELEMENT(#713,2.E0);
#715=DERIVED_UNIT((#714));
#716=MEASURE_REPRESENTATION_ITEM('surface area measure',AREA_MEASURE
(2.036304E2),#715);
#721=DERIVED_UNIT_ELEMENT(#720,3.E0);
#722=DERIVED_UNIT((#721));
#723=MEASURE_REPRESENTATION_ITEM('volume measure',VOLUME_MEASURE(1.862496E2),
#722);
#727=CARTESIAN_POINT('centre point',(0.E0,2.082256842431E0,0.E0));
#732=PRODUCT_RELATED_PRODUCT_CATEGORY('part','',(#687));
#1=DRAUGHTING_PRE_DEFINED_COLOUR('green');
#2=COLOUR_RGB('',1.1E-2,1.2E-2,1.E0);
#3=COLOUR_RGB('',1.6E-1,1.7E-1,1.7E-1);
#4=COLOUR_RGB('',4.1E-1,2.61589E-1,1.12848E-1);
#5=COLOUR_RGB('',5.04854E-1,1.5455E-2,1.5455E-2);
#6=COLOUR_RGB('',6.35294E-1,6.86275E-1,7.4902E-1);
#7=COLOUR_RGB('',6.40777E-1,6.40777E-1,6.40777E-1);
#8=COLOUR_RGB('',6.69062E-1,6.69903E-1,6.55217E-1);
#9=COLOUR_RGB('',7.7E-1,7.7E-1,7.9E-1);
#10=COLOUR_RGB('',9.21569E-1,7.05882E-1,4.70588E-1);
#11=DRAUGHTING_PRE_DEFINED_COLOUR('red');
#12=DRAUGHTING_PRE_DEFINED_COLOUR('yellow');
#13=COLOUR_RGB('',1.E0,1.E0,5.3E-1);
#14=COLOUR_RGB('',1.E0,1.E0,9.49E-1);
#15=DRAUGHTING_PRE_DEFINED_COLOUR('white');
#277=EDGE_CURVE('',#269,#265,#19,.T.);
#279=EDGE_CURVE('',#269,#214,#23,.T.);
#281=EDGE_CURVE('',#214,#215,#27,.T.);
#283=EDGE_CURVE('',#215,#254,#31,.T.);
#285=EDGE_CURVE('',#254,#255,#35,.T.);
#287=EDGE_CURVE('',#255,#257,#39,.T.);
#289=EDGE_CURVE('',#259,#257,#43,.T.);
#291=EDGE_CURVE('',#259,#210,#47,.T.);
#293=EDGE_CURVE('',#210,#211,#51,.T.);
#295=EDGE_CURVE('',#211,#271,#55,.T.);
#297=EDGE_CURVE('',#271,#267,#59,.T.);
#299=EDGE_CURVE('',#265,#267,#63,.T.);
#303=ADVANCED_FACE('',(#302),#276,.F.);
#316=EDGE_CURVE('',#269,#245,#75,.T.);
#319=EDGE_CURVE('',#265,#262,#115,.T.);
#321=EDGE_CURVE('',#262,#239,#67,.T.);
#323=EDGE_CURVE('',#238,#239,#95,.T.);
#325=EDGE_CURVE('',#245,#238,#71,.T.);
#329=ADVANCED_FACE('',(#328),#315,.F.);
#343=EDGE_CURVE('',#247,#245,#79,.T.);
#345=EDGE_CURVE('',#271,#247,#83,.T.);
#348=EDGE_CURVE('',#211,#221,#87,.T.);
#350=EDGE_CURVE('',#221,#223,#203,.T.);
#352=EDGE_CURVE('',#214,#223,#191,.T.);
#357=ADVANCED_FACE('',(#356),#341,.T.);
#371=EDGE_CURVE('',#243,#238,#107,.T.);
#373=EDGE_CURVE('',#247,#243,#91,.T.);
#378=ADVANCED_FACE('',(#377),#369,.F.);
#392=EDGE_CURVE('',#239,#241,#99,.T.);
#394=EDGE_CURVE('',#241,#243,#103,.T.);
#399=ADVANCED_FACE('',(#398),#390,.F.);
#413=EDGE_CURVE('',#262,#263,#111,.T.);
#415=EDGE_CURVE('',#241,#263,#119,.T.);
#420=ADVANCED_FACE('',(#419),#411,.F.);
#435=EDGE_CURVE('',#267,#263,#123,.T.);
#440=ADVANCED_FACE('',(#439),#432,.F.);
#454=ADVANCED_FACE('',(#453),#445,.F.);
#468=EDGE_CURVE('',#210,#219,#127,.T.);
#470=EDGE_CURVE('',#219,#221,#207,.T.);
#475=ADVANCED_FACE('',(#474),#466,.T.);
#488=EDGE_CURVE('',#254,#235,#131,.T.);
#491=EDGE_CURVE('',#215,#218,#135,.T.);
#493=EDGE_CURVE('',#218,#219,#195,.T.);
#497=EDGE_CURVE('',#259,#234,#139,.T.);
#499=EDGE_CURVE('',#234,#235,#143,.T.);
#503=ADVANCED_FACE('',(#502),#487,.T.);
#516=EDGE_CURVE('',#227,#250,#147,.T.);
#518=EDGE_CURVE('',#255,#250,#167,.T.);
#522=EDGE_CURVE('',#235,#226,#151,.T.);
#524=EDGE_CURVE('',#226,#227,#171,.T.);
#528=ADVANCED_FACE('',(#527),#515,.T.);
#541=EDGE_CURVE('',#251,#229,#163,.T.);
#543=EDGE_CURVE('',#250,#251,#155,.T.);
#546=EDGE_CURVE('',#227,#229,#183,.T.);
#550=ADVANCED_FACE('',(#549),#540,.T.);
#565=EDGE_CURVE('',#257,#251,#159,.T.);
#568=EDGE_CURVE('',#229,#231,#179,.T.);
#570=EDGE_CURVE('',#234,#231,#187,.T.);
#574=ADVANCED_FACE('',(#573),#562,.T.);
#593=ADVANCED_FACE('',(#592),#586,.T.);
#600=EDGE_CURVE('',#231,#226,#175,.T.);
#606=ADVANCED_FACE('',(#605),#598,.T.);
#625=ADVANCED_FACE('',(#624),#618,.T.);
#640=EDGE_CURVE('',#223,#218,#199,.T.);
#645=ADVANCED_FACE('',(#644),#637,.T.);
#664=ADVANCED_FACE('',(#663),#657,.T.);
#674=(LENGTH_UNIT()NAMED_UNIT(*)SI_UNIT(.MILLI.,.METRE.));
#675=(NAMED_UNIT(*)PLANE_ANGLE_UNIT()SI_UNIT($,.RADIAN.));
#678=(NAMED_UNIT(*)SI_UNIT($,.STERADIAN.)SOLID_ANGLE_UNIT());
#680=(GEOMETRIC_REPRESENTATION_CONTEXT(3)GLOBAL_UNCERTAINTY_ASSIGNED_CONTEXT((
#679))GLOBAL_UNIT_ASSIGNED_CONTEXT((#674,#677,#678))REPRESENTATION_CONTEXT
('ID1','3'));
#681=ADVANCED_BREP_SHAPE_REPRESENTATION('',(#673),#680);
#689=PRODUCT_DEFINITION('part definition','',#688,#685);
#690=PRODUCT_DEFINITION_SHAPE('','SHAPE FOR 734328.',#689);
#691=SHAPE_ASPECT('','solid data associated with 734328',#690,.F.);
#692=PROPERTY_DEFINITION('',
'shape for solid data with which properties are associated',#691);
#693=SHAPE_REPRESENTATION('',(#673),#680);
#694=SHAPE_DEFINITION_REPRESENTATION(#692,#693);
#695=(LENGTH_UNIT()NAMED_UNIT(*)SI_UNIT(.MILLI.,.METRE.));
#699=PROPERTY_DEFINITION('geometric validation property','area of 734328',#691);
#700=REPRESENTATION('surface area',(#698),#680);
#701=PROPERTY_DEFINITION_REPRESENTATION(#699,#700);
#702=(LENGTH_UNIT()NAMED_UNIT(*)SI_UNIT(.MILLI.,.METRE.));
#706=PROPERTY_DEFINITION('geometric validation property','volume of 734328',
#691);
#707=REPRESENTATION('volume',(#705),#680);
#708=PROPERTY_DEFINITION_REPRESENTATION(#706,#707);
#710=PROPERTY_DEFINITION('geometric validation property','centroid of 734328',
#691);
#711=REPRESENTATION('centroid',(#709),#680);
#712=PROPERTY_DEFINITION_REPRESENTATION(#710,#711);
#713=(LENGTH_UNIT()NAMED_UNIT(*)SI_UNIT(.MILLI.,.METRE.));
#717=PROPERTY_DEFINITION('geometric validation property','area of 734328',#690);
#718=REPRESENTATION('surface area',(#716),#680);
#719=PROPERTY_DEFINITION_REPRESENTATION(#717,#718);
#720=(LENGTH_UNIT()NAMED_UNIT(*)SI_UNIT(.MILLI.,.METRE.));
#724=PROPERTY_DEFINITION('geometric validation property','volume of 734328',
#690);
#725=REPRESENTATION('volume',(#723),#680);
#726=PROPERTY_DEFINITION_REPRESENTATION(#724,#725);
#728=PROPERTY_DEFINITION('geometric validation property','centroid of 734328',
#690);
#729=REPRESENTATION('centroid',(#727),#680);
#730=PROPERTY_DEFINITION_REPRESENTATION(#728,#729);
#731=SHAPE_DEFINITION_REPRESENTATION(#690,#681);
ENDSEC;
END-ISO-10303-21;
