ISO-10303-21;
HEADER;
FILE_DESCRIPTION((''),'2;1');
FILE_NAME('ASM0011_ASM','2026-04-07T15:41:26',('Administrator'),(''),
'CREO PARAMETRIC BY PTC INC, 2018100','CREO PARAMETRIC BY PTC INC, 2018100','');
FILE_SCHEMA(('AUTOMOTIVE_DESIGN { 1 0 10303 214 1 1 1 1 }'));
ENDSEC;
DATA;
#23=CARTESIAN_POINT('',(0.E0,0.E0,0.E0));
#24=DIRECTION('',(0.E0,1.E0,0.E0));
#25=DIRECTION('',(1.079887163902E-11,0.E0,1.E0));
#26=AXIS2_PLACEMENT_3D('',#23,#24,#25);
#28=CARTESIAN_POINT('',(0.E0,0.E0,0.E0));
#29=DIRECTION('',(0.E0,1.E0,0.E0));
#30=DIRECTION('',(-1.E0,0.E0,8.199540686651E-12));
#31=AXIS2_PLACEMENT_3D('',#28,#29,#30);
#33=CARTESIAN_POINT('',(0.E0,0.E0,0.E0));
#34=DIRECTION('',(0.E0,-1.E0,0.E0));
#35=DIRECTION('',(0.E0,0.E0,1.E0));
#36=AXIS2_PLACEMENT_3D('',#33,#34,#35);
#38=CARTESIAN_POINT('',(0.E0,0.E0,0.E0));
#39=DIRECTION('',(0.E0,-1.E0,0.E0));
#40=DIRECTION('',(0.E0,0.E0,-1.E0));
#41=AXIS2_PLACEMENT_3D('',#38,#39,#40);
#43=CARTESIAN_POINT('',(1.872856036922E-12,2.5E-1,4.749977422528E0));
#44=DIRECTION('',(1.E0,0.E0,-3.942870335782E-13));
#45=DIRECTION('',(3.942708481156E-13,9.060806412224E-3,9.999589500510E-1));
#46=AXIS2_PLACEMENT_3D('',#43,#44,#45);
#48=CARTESIAN_POINT('',(0.E0,2.522652016032E-1,0.E0));
#49=DIRECTION('',(0.E0,1.E0,0.E0));
#50=DIRECTION('',(5.551748331839E-13,0.E0,1.E0));
#51=AXIS2_PLACEMENT_3D('',#48,#49,#50);
#53=CARTESIAN_POINT('',(0.E0,7.940954244926E-1,0.E0));
#54=DIRECTION('',(0.E0,1.E0,0.E0));
#55=DIRECTION('',(-9.689964953161E-12,0.E0,1.E0));
#56=AXIS2_PLACEMENT_3D('',#53,#54,#55);
#58=CARTESIAN_POINT('',(-4.2E0,2.450165564729E-1,4.968310485243E-12));
#59=DIRECTION('',(-1.182932224397E-12,0.E0,-1.E0));
#60=DIRECTION('',(-9.999589500510E-1,9.060806412864E-3,1.182883665090E-12));
#61=AXIS2_PLACEMENT_3D('',#58,#59,#60);
#63=CARTESIAN_POINT('',(0.E0,2.522652016032E-1,0.E0));
#64=DIRECTION('',(0.E0,1.E0,0.E0));
#65=DIRECTION('',(-1.E0,0.E0,1.182790806739E-12));
#66=AXIS2_PLACEMENT_3D('',#63,#64,#65);
#68=CARTESIAN_POINT('',(2.331211612638E-12,2.450165564729E-1,4.2E0));
#69=DIRECTION('',(-1.E0,0.E0,5.550473275440E-13));
#70=DIRECTION('',(5.550245428795E-13,9.060806412863E-3,9.999589500510E-1));
#71=AXIS2_PLACEMENT_3D('',#68,#69,#70);
#73=CARTESIAN_POINT('',(-4.749977422528E0,2.5E-1,-1.125621124087E-11));
#74=DIRECTION('',(-2.369739821040E-12,0.E0,1.E0));
#75=DIRECTION('',(-9.999589500510E-1,9.060806412904E-3,-2.369642543341E-12));
#76=AXIS2_PLACEMENT_3D('',#73,#74,#75);
#78=CARTESIAN_POINT('',(0.E0,1.E0,5.E0));
#79=DIRECTION('',(-1.E0,0.E0,0.E0));
#80=DIRECTION('',(0.E0,6.863485850246E-1,-7.272727272727E-1));
#81=AXIS2_PLACEMENT_3D('',#78,#79,#80);
#83=CARTESIAN_POINT('',(0.E0,7.940954244926E-1,0.E0));
#84=DIRECTION('',(0.E0,-1.E0,0.E0));
#85=DIRECTION('',(0.E0,0.E0,1.E0));
#86=AXIS2_PLACEMENT_3D('',#83,#84,#85);
#88=CARTESIAN_POINT('',(0.E0,7.940954244926E-1,0.E0));
#89=DIRECTION('',(0.E0,-1.E0,0.E0));
#90=DIRECTION('',(-1.E0,0.E0,0.E0));
#91=AXIS2_PLACEMENT_3D('',#88,#89,#90);
#93=CARTESIAN_POINT('',(0.E0,1.E0,-5.E0));
#94=DIRECTION('',(-1.E0,0.E0,0.E0));
#95=DIRECTION('',(0.E0,-6.863485850246E-1,7.272727272727E-1));
#96=AXIS2_PLACEMENT_3D('',#93,#94,#95);
#98=CARTESIAN_POINT('',(0.E0,1.205904575507E0,0.E0));
#99=DIRECTION('',(0.E0,1.E0,0.E0));
#100=DIRECTION('',(0.E0,0.E0,-1.E0));
#101=AXIS2_PLACEMENT_3D('',#98,#99,#100);
#103=CARTESIAN_POINT('',(0.E0,1.205904575507E0,0.E0));
#104=DIRECTION('',(0.E0,1.E0,0.E0));
#105=DIRECTION('',(-1.E0,0.E0,0.E0));
#106=AXIS2_PLACEMENT_3D('',#103,#104,#105);
#108=CARTESIAN_POINT('',(0.E0,1.754983443527E0,0.E0));
#109=DIRECTION('',(0.E0,1.E0,0.E0));
#110=DIRECTION('',(1.E0,0.E0,0.E0));
#111=AXIS2_PLACEMENT_3D('',#108,#109,#110);
#113=CARTESIAN_POINT('',(0.E0,1.205904575507E0,0.E0));
#114=DIRECTION('',(0.E0,-1.E0,0.E0));
#115=DIRECTION('',(-3.709184417153E-13,0.E0,-1.E0));
#116=AXIS2_PLACEMENT_3D('',#113,#114,#115);
#118=CARTESIAN_POINT('',(-4.068877179630E-11,1.754983443527E0,4.2E0));
#119=DIRECTION('',(1.E0,0.E0,9.687802643432E-12));
#120=DIRECTION('',(-9.687802643432E-12,-6.744604874598E-14,1.E0));
#121=AXIS2_PLACEMENT_3D('',#118,#119,#120);
#123=CARTESIAN_POINT('',(0.E0,1.985E1,0.E0));
#124=DIRECTION('',(0.E0,-1.E0,0.E0));
#125=DIRECTION('',(-1.E0,0.E0,0.E0));
#126=AXIS2_PLACEMENT_3D('',#123,#124,#125);
#128=DIRECTION('',(0.E0,1.E0,1.369954511564E-13));
#129=VECTOR('',#128,1.809501655647E1);
#130=CARTESIAN_POINT('',(5.E0,1.754983443527E0,-2.474988306139E-12));
#131=LINE('',#130,#129);
#132=CARTESIAN_POINT('',(-4.85E0,1.985E1,7.694539450043E-14));
#133=DIRECTION('',(-1.586491354955E-14,0.E0,-1.E0));
#134=DIRECTION('',(-1.E0,0.E0,1.586491354955E-14));
#135=AXIS2_PLACEMENT_3D('',#132,#133,#134);
#137=CARTESIAN_POINT('',(4.85E0,1.985E1,-7.693151671262E-14));
#138=DIRECTION('',(1.586144410259E-14,0.E0,1.E0));
#139=DIRECTION('',(1.E0,0.E0,-1.586144410259E-14));
#140=AXIS2_PLACEMENT_3D('',#137,#138,#139);
#142=CARTESIAN_POINT('',(0.E0,1.985E1,0.E0));
#143=DIRECTION('',(0.E0,-1.E0,0.E0));
#144=DIRECTION('',(1.E0,0.E0,0.E0));
#145=AXIS2_PLACEMENT_3D('',#142,#143,#144);
#147=CARTESIAN_POINT('',(0.E0,1.754983443527E0,0.E0));
#148=DIRECTION('',(0.E0,1.E0,0.E0));
#149=DIRECTION('',(0.E0,0.E0,1.E0));
#150=AXIS2_PLACEMENT_3D('',#147,#148,#149);
#152=CARTESIAN_POINT('',(0.E0,1.754983443527E0,0.E0));
#153=DIRECTION('',(0.E0,1.E0,0.E0));
#154=DIRECTION('',(-1.E0,0.E0,0.E0));
#155=AXIS2_PLACEMENT_3D('',#152,#153,#154);
#157=DIRECTION('',(0.E0,1.E0,-1.654759789817E-13));
#158=VECTOR('',#157,1.809501655647E1);
#159=CARTESIAN_POINT('',(-5.E0,1.754983443527E0,2.990350171990E-12));
#160=LINE('',#159,#158);
#161=CARTESIAN_POINT('',(-4.2E0,1.754983443527E0,-2.439295293533E-11));
#162=DIRECTION('',(-5.807847258676E-12,0.E0,1.E0));
#163=DIRECTION('',(-1.E0,-4.718447854657E-14,-5.807847258676E-12));
#164=AXIS2_PLACEMENT_3D('',#161,#162,#163);
#166=CARTESIAN_POINT('',(0.E0,2.E1,0.E0));
#167=DIRECTION('',(0.E0,-1.E0,0.E0));
#168=DIRECTION('',(-1.E0,0.E0,0.E0));
#169=AXIS2_PLACEMENT_3D('',#166,#167,#168);
#171=CARTESIAN_POINT('',(0.E0,2.E1,0.E0));
#172=DIRECTION('',(0.E0,-1.E0,0.E0));
#173=DIRECTION('',(1.E0,0.E0,0.E0));
#174=AXIS2_PLACEMENT_3D('',#171,#172,#173);
#176=CARTESIAN_POINT('',(0.E0,2.E1,0.E0));
#177=DIRECTION('',(0.E0,1.E0,0.E0));
#178=DIRECTION('',(-1.E0,0.E0,0.E0));
#179=AXIS2_PLACEMENT_3D('',#176,#177,#178);
#181=CARTESIAN_POINT('',(0.E0,2.E1,0.E0));
#182=DIRECTION('',(0.E0,1.E0,0.E0));
#183=DIRECTION('',(1.E0,0.E0,0.E0));
#184=AXIS2_PLACEMENT_3D('',#181,#182,#183);
#186=DIRECTION('',(0.E0,-1.E0,0.E0));
#187=VECTOR('',#186,2.E-2);
#188=CARTESIAN_POINT('',(-3.5E0,2.E1,0.E0));
#189=LINE('',#188,#187);
#190=DIRECTION('',(0.E0,-1.E0,0.E0));
#191=VECTOR('',#190,2.E-2);
#192=CARTESIAN_POINT('',(3.5E0,2.E1,0.E0));
#193=LINE('',#192,#191);
#194=CARTESIAN_POINT('',(0.E0,1.998E1,0.E0));
#195=DIRECTION('',(0.E0,1.E0,0.E0));
#196=DIRECTION('',(-1.E0,0.E0,0.E0));
#197=AXIS2_PLACEMENT_3D('',#194,#195,#196);
#199=CARTESIAN_POINT('',(0.E0,1.998E1,0.E0));
#200=DIRECTION('',(0.E0,1.E0,0.E0));
#201=DIRECTION('',(1.E0,0.E0,0.E0));
#202=AXIS2_PLACEMENT_3D('',#199,#200,#201);
#204=DIRECTION('',(0.E0,1.E0,0.E0));
#205=VECTOR('',#204,1.E-1);
#206=CARTESIAN_POINT('',(0.E0,0.E0,3.7E0));
#207=LINE('',#206,#205);
#208=DIRECTION('',(0.E0,1.E0,0.E0));
#209=VECTOR('',#208,1.E-1);
#210=CARTESIAN_POINT('',(0.E0,0.E0,-3.7E0));
#211=LINE('',#210,#209);
#212=CARTESIAN_POINT('',(0.E0,1.E-1,0.E0));
#213=DIRECTION('',(0.E0,-1.E0,0.E0));
#214=DIRECTION('',(0.E0,0.E0,1.E0));
#215=AXIS2_PLACEMENT_3D('',#212,#213,#214);
#217=CARTESIAN_POINT('',(0.E0,1.E-1,0.E0));
#218=DIRECTION('',(0.E0,-1.E0,0.E0));
#219=DIRECTION('',(0.E0,0.E0,-1.E0));
#220=AXIS2_PLACEMENT_3D('',#217,#218,#219);
#222=CARTESIAN_POINT('',(0.E0,1.E-1,2.5E0));
#223=DIRECTION('',(0.E0,-1.E0,0.E0));
#224=DIRECTION('',(0.E0,0.E0,-1.E0));
#225=AXIS2_PLACEMENT_3D('',#222,#223,#224);
#227=CARTESIAN_POINT('',(0.E0,1.E-1,2.5E0));
#228=DIRECTION('',(0.E0,-1.E0,0.E0));
#229=DIRECTION('',(0.E0,0.E0,1.E0));
#230=AXIS2_PLACEMENT_3D('',#227,#228,#229);
#232=CARTESIAN_POINT('',(0.E0,1.E-1,-2.5E0));
#233=DIRECTION('',(0.E0,-1.E0,0.E0));
#234=DIRECTION('',(-1.E0,0.E0,0.E0));
#235=AXIS2_PLACEMENT_3D('',#232,#233,#234);
#237=CARTESIAN_POINT('',(0.E0,1.E-1,-2.5E0));
#238=DIRECTION('',(0.E0,-1.E0,0.E0));
#239=DIRECTION('',(1.E0,0.E0,0.E0));
#240=AXIS2_PLACEMENT_3D('',#237,#238,#239);
#242=DIRECTION('',(0.E0,-1.E0,0.E0));
#243=VECTOR('',#242,2.E1);
#244=CARTESIAN_POINT('',(0.E0,1.E-1,2.2E0));
#245=LINE('',#244,#243);
#246=DIRECTION('',(0.E0,-1.E0,0.E0));
#247=VECTOR('',#246,2.E1);
#248=CARTESIAN_POINT('',(0.E0,1.E-1,2.8E0));
#249=LINE('',#248,#247);
#250=CARTESIAN_POINT('',(0.E0,-1.99E1,2.5E0));
#251=DIRECTION('',(0.E0,-1.E0,0.E0));
#252=DIRECTION('',(0.E0,0.E0,-1.E0));
#253=AXIS2_PLACEMENT_3D('',#250,#251,#252);
#255=CARTESIAN_POINT('',(0.E0,-1.99E1,2.5E0));
#256=DIRECTION('',(0.E0,-1.E0,0.E0));
#257=DIRECTION('',(0.E0,0.E0,1.E0));
#258=AXIS2_PLACEMENT_3D('',#255,#256,#257);
#260=DIRECTION('',(0.E0,-1.E0,0.E0));
#261=VECTOR('',#260,2.5E1);
#262=CARTESIAN_POINT('',(-3.E-1,1.E-1,-2.5E0));
#263=LINE('',#262,#261);
#264=DIRECTION('',(0.E0,-1.E0,0.E0));
#265=VECTOR('',#264,2.5E1);
#266=CARTESIAN_POINT('',(3.E-1,1.E-1,-2.5E0));
#267=LINE('',#266,#265);
#268=CARTESIAN_POINT('',(0.E0,-2.49E1,-2.5E0));
#269=DIRECTION('',(0.E0,-1.E0,0.E0));
#270=DIRECTION('',(-1.E0,0.E0,0.E0));
#271=AXIS2_PLACEMENT_3D('',#268,#269,#270);
#273=CARTESIAN_POINT('',(0.E0,-2.49E1,-2.5E0));
#274=DIRECTION('',(0.E0,-1.E0,0.E0));
#275=DIRECTION('',(1.E0,0.E0,0.E0));
#276=AXIS2_PLACEMENT_3D('',#273,#274,#275);
#278=CARTESIAN_POINT('',(-5.E0,1.985E1,0.E0));
#279=CARTESIAN_POINT('',(5.E0,1.985E1,0.E0));
#280=VERTEX_POINT('',#278);
#281=VERTEX_POINT('',#279);
#282=CARTESIAN_POINT('',(-4.85E0,2.E1,0.E0));
#283=CARTESIAN_POINT('',(4.85E0,2.E1,0.E0));
#284=VERTEX_POINT('',#282);
#285=VERTEX_POINT('',#283);
#286=CARTESIAN_POINT('',(5.E0,1.754983443527E0,-2.474988306139E-12));
#287=VERTEX_POINT('',#286);
#288=CARTESIAN_POINT('',(-5.E0,1.754983443527E0,2.990350171990E-12));
#289=VERTEX_POINT('',#288);
#290=CARTESIAN_POINT('',(0.E0,1.205904575507E0,4.781818181818E0));
#291=CARTESIAN_POINT('',(0.E0,7.940954244926E-1,4.781818181818E0));
#292=VERTEX_POINT('',#290);
#293=VERTEX_POINT('',#291);
#294=CARTESIAN_POINT('',(0.E0,7.940954244926E-1,-4.781818181818E0));
#295=CARTESIAN_POINT('',(0.E0,1.205904575507E0,-4.781818181818E0));
#296=VERTEX_POINT('',#294);
#297=VERTEX_POINT('',#295);
#298=CARTESIAN_POINT('',(0.E0,1.E-1,3.7E0));
#299=CARTESIAN_POINT('',(0.E0,1.E-1,-3.7E0));
#300=VERTEX_POINT('',#298);
#301=VERTEX_POINT('',#299);
#302=CARTESIAN_POINT('',(0.E0,0.E0,3.7E0));
#303=CARTESIAN_POINT('',(0.E0,0.E0,-3.7E0));
#304=VERTEX_POINT('',#302);
#305=VERTEX_POINT('',#303);
#306=CARTESIAN_POINT('',(0.E0,-1.99E1,2.2E0));
#307=CARTESIAN_POINT('',(0.E0,-1.99E1,2.8E0));
#308=VERTEX_POINT('',#306);
#309=VERTEX_POINT('',#307);
#310=CARTESIAN_POINT('',(0.E0,1.E-1,2.2E0));
#311=CARTESIAN_POINT('',(0.E0,1.E-1,2.8E0));
#312=VERTEX_POINT('',#310);
#313=VERTEX_POINT('',#311);
#314=CARTESIAN_POINT('',(-3.E-1,-2.49E1,-2.5E0));
#315=CARTESIAN_POINT('',(3.E-1,-2.49E1,-2.5E0));
#316=VERTEX_POINT('',#314);
#317=VERTEX_POINT('',#315);
#318=CARTESIAN_POINT('',(-3.E-1,1.E-1,-2.5E0));
#319=CARTESIAN_POINT('',(3.E-1,1.E-1,-2.5E0));
#320=VERTEX_POINT('',#318);
#321=VERTEX_POINT('',#319);
#322=CARTESIAN_POINT('',(-4.781818181818E0,1.205904575507E0,0.E0));
#323=VERTEX_POINT('',#322);
#324=CARTESIAN_POINT('',(0.E0,1.754983443527E0,5.E0));
#325=VERTEX_POINT('',#324);
#326=CARTESIAN_POINT('',(-4.781818181818E0,7.940954244926E-1,0.E0));
#327=VERTEX_POINT('',#326);
#328=CARTESIAN_POINT('',(2.775855934001E-12,2.522652016032E-1,
4.999967160041E0));
#329=CARTESIAN_POINT('',(-4.999967160041E0,2.522652016032E-1,
5.914627546980E-12));
#330=VERTEX_POINT('',#328);
#331=VERTEX_POINT('',#329);
#332=CARTESIAN_POINT('',(5.129439647410E-11,0.E0,4.749977422528E0));
#333=CARTESIAN_POINT('',(-4.749977422528E0,0.E0,3.894501599832E-11));
#334=VERTEX_POINT('',#332);
#335=VERTEX_POINT('',#333);
#336=CARTESIAN_POINT('',(-3.5E0,1.998E1,0.E0));
#337=CARTESIAN_POINT('',(3.5E0,1.998E1,0.E0));
#338=VERTEX_POINT('',#336);
#339=VERTEX_POINT('',#337);
#340=CARTESIAN_POINT('',(-3.5E0,2.E1,0.E0));
#341=CARTESIAN_POINT('',(3.5E0,2.E1,0.E0));
#342=VERTEX_POINT('',#340);
#343=VERTEX_POINT('',#341);
#344=CARTESIAN_POINT('',(0.E0,0.E0,0.E0));
#345=DIRECTION('',(0.E0,1.E0,0.E0));
#346=DIRECTION('',(1.E0,0.E0,0.E0));
#347=AXIS2_PLACEMENT_3D('',#344,#345,#346);
#348=PLANE('',#347);
#350=ORIENTED_EDGE('',*,*,#349,.T.);
#352=ORIENTED_EDGE('',*,*,#351,.T.);
#353=EDGE_LOOP('',(#350,#352));
#354=FACE_OUTER_BOUND('',#353,.F.);
#356=ORIENTED_EDGE('',*,*,#355,.T.);
#358=ORIENTED_EDGE('',*,*,#357,.T.);
#359=EDGE_LOOP('',(#356,#358));
#360=FACE_BOUND('',#359,.F.);
#362=FILL_AREA_STYLE_COLOUR('',#6);
#363=FILL_AREA_STYLE('',(#362));
#364=SURFACE_STYLE_FILL_AREA(#363);
#365=SURFACE_SIDE_STYLE('',(#364));
#366=SURFACE_STYLE_USAGE(.BOTH.,#365);
#367=PRESENTATION_STYLE_ASSIGNMENT((#366));
#368=STYLED_ITEM('',(#367),#361);
#369=CARTESIAN_POINT('',(0.E0,2.5E-1,0.E0));
#370=DIRECTION('',(0.E0,1.E0,0.E0));
#371=DIRECTION('',(-7.986286141784E-3,0.E0,9.999681091083E-1));
#372=AXIS2_PLACEMENT_3D('',#369,#370,#371);
#373=TOROIDAL_SURFACE('',#372,4.749977422528E0,2.5E-1);
#375=ORIENTED_EDGE('',*,*,#374,.T.);
#377=ORIENTED_EDGE('',*,*,#376,.T.);
#378=ORIENTED_EDGE('',*,*,#349,.F.);
#380=ORIENTED_EDGE('',*,*,#379,.F.);
#381=EDGE_LOOP('',(#375,#377,#378,#380));
#382=FACE_OUTER_BOUND('',#381,.F.);
#384=FILL_AREA_STYLE_COLOUR('',#12);
#385=FILL_AREA_STYLE('',(#384));
#386=SURFACE_STYLE_FILL_AREA(#385);
#387=SURFACE_SIDE_STYLE('',(#386));
#388=SURFACE_STYLE_USAGE(.POSITIVE.,#387);
#389=PRESENTATION_STYLE_ASSIGNMENT((#388));
#390=STYLED_ITEM('',(#389),#383);
#391=CARTESIAN_POINT('',(0.E0,2.450165564729E-1,0.E0));
#392=DIRECTION('',(0.E0,1.E0,0.E0));
#393=DIRECTION('',(-1.138348475423E-2,0.E0,-9.999352060383E-1));
#394=AXIS2_PLACEMENT_3D('',#391,#392,#393);
#395=TOROIDAL_SURFACE('',#394,4.2E0,8.E-1);
#396=ORIENTED_EDGE('',*,*,#374,.F.);
#398=ORIENTED_EDGE('',*,*,#397,.T.);
#400=ORIENTED_EDGE('',*,*,#399,.T.);
#402=ORIENTED_EDGE('',*,*,#401,.F.);
#404=ORIENTED_EDGE('',*,*,#403,.F.);
#405=EDGE_LOOP('',(#396,#398,#400,#402,#404));
#406=FACE_OUTER_BOUND('',#405,.F.);
#408=FILL_AREA_STYLE_COLOUR('',#12);
#409=FILL_AREA_STYLE('',(#408));
#410=SURFACE_STYLE_FILL_AREA(#409);
#411=SURFACE_SIDE_STYLE('',(#410));
#412=SURFACE_STYLE_USAGE(.POSITIVE.,#411);
#413=PRESENTATION_STYLE_ASSIGNMENT((#412));
#414=STYLED_ITEM('',(#413),#407);
#415=CARTESIAN_POINT('',(0.E0,2.450165564729E-1,0.E0));
#416=DIRECTION('',(0.E0,1.E0,0.E0));
#417=DIRECTION('',(1.138348475423E-2,0.E0,9.999352060383E-1));
#418=AXIS2_PLACEMENT_3D('',#415,#416,#417);
#419=TOROIDAL_SURFACE('',#418,4.2E0,8.E-1);
#421=ORIENTED_EDGE('',*,*,#420,.F.);
#422=ORIENTED_EDGE('',*,*,#403,.T.);
#424=ORIENTED_EDGE('',*,*,#423,.F.);
#425=ORIENTED_EDGE('',*,*,#397,.F.);
#426=EDGE_LOOP('',(#421,#422,#424,#425));
#427=FACE_OUTER_BOUND('',#426,.F.);
#429=FILL_AREA_STYLE_COLOUR('',#12);
#430=FILL_AREA_STYLE('',(#429));
#431=SURFACE_STYLE_FILL_AREA(#430);
#432=SURFACE_SIDE_STYLE('',(#431));
#433=SURFACE_STYLE_USAGE(.POSITIVE.,#432);
#434=PRESENTATION_STYLE_ASSIGNMENT((#433));
#435=STYLED_ITEM('',(#434),#428);
#436=CARTESIAN_POINT('',(0.E0,2.5E-1,0.E0));
#437=DIRECTION('',(0.E0,1.E0,0.E0));
#438=DIRECTION('',(-9.999681091083E-1,0.E0,-7.986286137927E-3));
#439=AXIS2_PLACEMENT_3D('',#436,#437,#438);
#440=TOROIDAL_SURFACE('',#439,4.749977422528E0,2.5E-1);
#441=ORIENTED_EDGE('',*,*,#420,.T.);
#442=ORIENTED_EDGE('',*,*,#379,.T.);
#443=ORIENTED_EDGE('',*,*,#351,.F.);
#444=ORIENTED_EDGE('',*,*,#376,.F.);
#445=EDGE_LOOP('',(#441,#442,#443,#444));
#446=FACE_OUTER_BOUND('',#445,.F.);
#448=FILL_AREA_STYLE_COLOUR('',#12);
#449=FILL_AREA_STYLE('',(#448));
#450=SURFACE_STYLE_FILL_AREA(#449);
#451=SURFACE_SIDE_STYLE('',(#450));
#452=SURFACE_STYLE_USAGE(.POSITIVE.,#451);
#453=PRESENTATION_STYLE_ASSIGNMENT((#452));
#454=STYLED_ITEM('',(#453),#447);
#455=CARTESIAN_POINT('',(0.E0,1.E0,0.E0));
#456=DIRECTION('',(0.E0,1.E0,0.E0));
#457=DIRECTION('',(0.E0,0.E0,-1.E0));
#458=AXIS2_PLACEMENT_3D('',#455,#456,#457);
#459=TOROIDAL_SURFACE('',#458,5.E0,3.E-1);
#461=ORIENTED_EDGE('',*,*,#460,.T.);
#462=ORIENTED_EDGE('',*,*,#423,.T.);
#463=ORIENTED_EDGE('',*,*,#401,.T.);
#465=ORIENTED_EDGE('',*,*,#464,.T.);
#467=ORIENTED_EDGE('',*,*,#466,.T.);
#469=ORIENTED_EDGE('',*,*,#468,.T.);
#470=EDGE_LOOP('',(#461,#462,#463,#465,#467,#469));
#471=FACE_OUTER_BOUND('',#470,.F.);
#473=FILL_AREA_STYLE_COLOUR('',#6);
#474=FILL_AREA_STYLE('',(#473));
#475=SURFACE_STYLE_FILL_AREA(#474);
#476=SURFACE_SIDE_STYLE('',(#475));
#477=SURFACE_STYLE_USAGE(.BOTH.,#476);
#478=PRESENTATION_STYLE_ASSIGNMENT((#477));
#479=STYLED_ITEM('',(#478),#472);
#480=CARTESIAN_POINT('',(0.E0,1.E0,0.E0));
#481=DIRECTION('',(0.E0,1.E0,0.E0));
#482=DIRECTION('',(0.E0,0.E0,-1.E0));
#483=AXIS2_PLACEMENT_3D('',#480,#481,#482);
#484=TOROIDAL_SURFACE('',#483,5.E0,3.E-1);
#485=ORIENTED_EDGE('',*,*,#460,.F.);
#487=ORIENTED_EDGE('',*,*,#486,.F.);
#488=ORIENTED_EDGE('',*,*,#464,.F.);
#489=ORIENTED_EDGE('',*,*,#399,.F.);
#490=EDGE_LOOP('',(#485,#487,#488,#489));
#491=FACE_OUTER_BOUND('',#490,.F.);
#493=FILL_AREA_STYLE_COLOUR('',#6);
#494=FILL_AREA_STYLE('',(#493));
#495=SURFACE_STYLE_FILL_AREA(#494);
#496=SURFACE_SIDE_STYLE('',(#495));
#497=SURFACE_STYLE_USAGE(.BOTH.,#496);
#498=PRESENTATION_STYLE_ASSIGNMENT((#497));
#499=STYLED_ITEM('',(#498),#492);
#500=CARTESIAN_POINT('',(0.E0,1.754983443527E0,0.E0));
#501=DIRECTION('',(0.E0,1.E0,0.E0));
#502=DIRECTION('',(9.999688263178E-1,0.E0,7.895973189296E-3));
#503=AXIS2_PLACEMENT_3D('',#500,#501,#502);
#504=TOROIDAL_SURFACE('',#503,4.2E0,8.E-1);
#506=ORIENTED_EDGE('',*,*,#505,.T.);
#508=ORIENTED_EDGE('',*,*,#507,.T.);
#509=ORIENTED_EDGE('',*,*,#466,.F.);
#510=ORIENTED_EDGE('',*,*,#486,.T.);
#512=ORIENTED_EDGE('',*,*,#511,.F.);
#514=ORIENTED_EDGE('',*,*,#513,.T.);
#515=EDGE_LOOP('',(#506,#508,#509,#510,#512,#514));
#516=FACE_OUTER_BOUND('',#515,.F.);
#518=FILL_AREA_STYLE_COLOUR('',#6);
#519=FILL_AREA_STYLE('',(#518));
#520=SURFACE_STYLE_FILL_AREA(#519);
#521=SURFACE_SIDE_STYLE('',(#520));
#522=SURFACE_STYLE_USAGE(.BOTH.,#521);
#523=PRESENTATION_STYLE_ASSIGNMENT((#522));
#524=STYLED_ITEM('',(#523),#517);
#525=CARTESIAN_POINT('',(0.E0,0.E0,0.E0));
#526=DIRECTION('',(0.E0,1.E0,0.E0));
#527=DIRECTION('',(1.E0,0.E0,0.E0));
#528=AXIS2_PLACEMENT_3D('',#525,#526,#527);
#529=CYLINDRICAL_SURFACE('',#528,5.E0);
#531=ORIENTED_EDGE('',*,*,#530,.F.);
#533=ORIENTED_EDGE('',*,*,#532,.F.);
#534=ORIENTED_EDGE('',*,*,#505,.F.);
#536=ORIENTED_EDGE('',*,*,#535,.T.);
#537=EDGE_LOOP('',(#531,#533,#534,#536));
#538=FACE_OUTER_BOUND('',#537,.F.);
#540=FILL_AREA_STYLE_COLOUR('',#6);
#541=FILL_AREA_STYLE('',(#540));
#542=SURFACE_STYLE_FILL_AREA(#541);
#543=SURFACE_SIDE_STYLE('',(#542));
#544=SURFACE_STYLE_USAGE(.BOTH.,#543);
#545=PRESENTATION_STYLE_ASSIGNMENT((#544));
#546=STYLED_ITEM('',(#545),#539);
#547=CARTESIAN_POINT('',(0.E0,1.985E1,0.E0));
#548=DIRECTION('',(0.E0,1.E0,0.E0));
#549=DIRECTION('',(-9.999737699565E-1,0.E0,7.242886091697E-3));
#550=AXIS2_PLACEMENT_3D('',#547,#548,#549);
#551=TOROIDAL_SURFACE('',#550,4.85E0,1.5E-1);
#552=ORIENTED_EDGE('',*,*,#530,.T.);
#554=ORIENTED_EDGE('',*,*,#553,.T.);
#556=ORIENTED_EDGE('',*,*,#555,.F.);
#558=ORIENTED_EDGE('',*,*,#557,.F.);
#559=EDGE_LOOP('',(#552,#554,#556,#558));
#560=FACE_OUTER_BOUND('',#559,.F.);
#562=FILL_AREA_STYLE_COLOUR('',#6);
#563=FILL_AREA_STYLE('',(#562));
#564=SURFACE_STYLE_FILL_AREA(#563);
#565=SURFACE_SIDE_STYLE('',(#564));
#566=SURFACE_STYLE_USAGE(.BOTH.,#565);
#567=PRESENTATION_STYLE_ASSIGNMENT((#566));
#568=STYLED_ITEM('',(#567),#561);
#569=CARTESIAN_POINT('',(0.E0,1.985E1,0.E0));
#570=DIRECTION('',(0.E0,1.E0,0.E0));
#571=DIRECTION('',(9.999737699565E-1,0.E0,-7.242886091696E-3));
#572=AXIS2_PLACEMENT_3D('',#569,#570,#571);
#573=TOROIDAL_SURFACE('',#572,4.85E0,1.5E-1);
#575=ORIENTED_EDGE('',*,*,#574,.T.);
#576=ORIENTED_EDGE('',*,*,#557,.T.);
#578=ORIENTED_EDGE('',*,*,#577,.F.);
#579=ORIENTED_EDGE('',*,*,#553,.F.);
#580=EDGE_LOOP('',(#575,#576,#578,#579));
#581=FACE_OUTER_BOUND('',#580,.F.);
#583=FILL_AREA_STYLE_COLOUR('',#6);
#584=FILL_AREA_STYLE('',(#583));
#585=SURFACE_STYLE_FILL_AREA(#584);
#586=SURFACE_SIDE_STYLE('',(#585));
#587=SURFACE_STYLE_USAGE(.BOTH.,#586);
#588=PRESENTATION_STYLE_ASSIGNMENT((#587));
#589=STYLED_ITEM('',(#588),#582);
#590=CARTESIAN_POINT('',(0.E0,0.E0,0.E0));
#591=DIRECTION('',(0.E0,1.E0,0.E0));
#592=DIRECTION('',(1.E0,0.E0,0.E0));
#593=AXIS2_PLACEMENT_3D('',#590,#591,#592);
#594=CYLINDRICAL_SURFACE('',#593,5.E0);
#595=ORIENTED_EDGE('',*,*,#574,.F.);
#596=ORIENTED_EDGE('',*,*,#535,.F.);
#597=ORIENTED_EDGE('',*,*,#513,.F.);
#599=ORIENTED_EDGE('',*,*,#598,.F.);
#600=ORIENTED_EDGE('',*,*,#532,.T.);
#601=EDGE_LOOP('',(#595,#596,#597,#599,#600));
#602=FACE_OUTER_BOUND('',#601,.F.);
#604=FILL_AREA_STYLE_COLOUR('',#6);
#605=FILL_AREA_STYLE('',(#604));
#606=SURFACE_STYLE_FILL_AREA(#605);
#607=SURFACE_SIDE_STYLE('',(#606));
#608=SURFACE_STYLE_USAGE(.BOTH.,#607);
#609=PRESENTATION_STYLE_ASSIGNMENT((#608));
#610=STYLED_ITEM('',(#609),#603);
#611=CARTESIAN_POINT('',(0.E0,1.754983443527E0,0.E0));
#612=DIRECTION('',(0.E0,1.E0,0.E0));
#613=DIRECTION('',(-9.999688263178E-1,0.E0,-7.895973189295E-3));
#614=AXIS2_PLACEMENT_3D('',#611,#612,#613);
#615=TOROIDAL_SURFACE('',#614,4.2E0,8.E-1);
#616=ORIENTED_EDGE('',*,*,#598,.T.);
#617=ORIENTED_EDGE('',*,*,#511,.T.);
#618=ORIENTED_EDGE('',*,*,#468,.F.);
#619=ORIENTED_EDGE('',*,*,#507,.F.);
#620=EDGE_LOOP('',(#616,#617,#618,#619));
#621=FACE_OUTER_BOUND('',#620,.F.);
#623=FILL_AREA_STYLE_COLOUR('',#6);
#624=FILL_AREA_STYLE('',(#623));
#625=SURFACE_STYLE_FILL_AREA(#624);
#626=SURFACE_SIDE_STYLE('',(#625));
#627=SURFACE_STYLE_USAGE(.BOTH.,#626);
#628=PRESENTATION_STYLE_ASSIGNMENT((#627));
#629=STYLED_ITEM('',(#628),#622);
#630=CARTESIAN_POINT('',(0.E0,2.E1,0.E0));
#631=DIRECTION('',(0.E0,1.E0,0.E0));
#632=DIRECTION('',(1.E0,0.E0,0.E0));
#633=AXIS2_PLACEMENT_3D('',#630,#631,#632);
#634=PLANE('',#633);
#635=ORIENTED_EDGE('',*,*,#555,.T.);
#636=ORIENTED_EDGE('',*,*,#577,.T.);
#637=EDGE_LOOP('',(#635,#636));
#638=FACE_OUTER_BOUND('',#637,.F.);
#640=ORIENTED_EDGE('',*,*,#639,.T.);
#642=ORIENTED_EDGE('',*,*,#641,.T.);
#643=EDGE_LOOP('',(#640,#642));
#644=FACE_BOUND('',#643,.F.);
#646=FILL_AREA_STYLE_COLOUR('',#6);
#647=FILL_AREA_STYLE('',(#646));
#648=SURFACE_STYLE_FILL_AREA(#647);
#649=SURFACE_SIDE_STYLE('',(#648));
#650=SURFACE_STYLE_USAGE(.BOTH.,#649);
#651=PRESENTATION_STYLE_ASSIGNMENT((#650));
#652=STYLED_ITEM('',(#651),#645);
#653=CARTESIAN_POINT('',(0.E0,2.E1,0.E0));
#654=DIRECTION('',(0.E0,1.E0,0.E0));
#655=DIRECTION('',(-1.E0,0.E0,0.E0));
#656=AXIS2_PLACEMENT_3D('',#653,#654,#655);
#657=CYLINDRICAL_SURFACE('',#656,3.5E0);
#658=ORIENTED_EDGE('',*,*,#639,.F.);
#660=ORIENTED_EDGE('',*,*,#659,.T.);
#662=ORIENTED_EDGE('',*,*,#661,.T.);
#664=ORIENTED_EDGE('',*,*,#663,.F.);
#665=EDGE_LOOP('',(#658,#660,#662,#664));
#666=FACE_OUTER_BOUND('',#665,.F.);
#668=CARTESIAN_POINT('',(0.E0,2.E1,0.E0));
#669=DIRECTION('',(0.E0,1.E0,0.E0));
#670=DIRECTION('',(-1.E0,0.E0,0.E0));
#671=AXIS2_PLACEMENT_3D('',#668,#669,#670);
#672=CYLINDRICAL_SURFACE('',#671,3.5E0);
#673=ORIENTED_EDGE('',*,*,#641,.F.);
#674=ORIENTED_EDGE('',*,*,#663,.T.);
#676=ORIENTED_EDGE('',*,*,#675,.T.);
#677=ORIENTED_EDGE('',*,*,#659,.F.);
#678=EDGE_LOOP('',(#673,#674,#676,#677));
#679=FACE_OUTER_BOUND('',#678,.F.);
#681=CARTESIAN_POINT('',(0.E0,1.998E1,0.E0));
#682=DIRECTION('',(0.E0,1.E0,0.E0));
#683=DIRECTION('',(-1.E0,0.E0,0.E0));
#684=AXIS2_PLACEMENT_3D('',#681,#682,#683);
#685=PLANE('',#684);
#686=ORIENTED_EDGE('',*,*,#661,.F.);
#687=ORIENTED_EDGE('',*,*,#675,.F.);
#688=EDGE_LOOP('',(#686,#687));
#689=FACE_OUTER_BOUND('',#688,.F.);
#691=FILL_AREA_STYLE_COLOUR('',#21);
#692=FILL_AREA_STYLE('',(#691));
#693=SURFACE_STYLE_FILL_AREA(#692);
#694=SURFACE_SIDE_STYLE('',(#693));
#695=SURFACE_STYLE_USAGE(.POSITIVE.,#694);
#696=PRESENTATION_STYLE_ASSIGNMENT((#695));
#697=STYLED_ITEM('',(#696),#690);
#698=CARTESIAN_POINT('',(0.E0,0.E0,0.E0));
#699=DIRECTION('',(0.E0,-1.E0,0.E0));
#700=DIRECTION('',(0.E0,0.E0,1.E0));
#701=AXIS2_PLACEMENT_3D('',#698,#699,#700);
#702=CYLINDRICAL_SURFACE('',#701,3.7E0);
#703=ORIENTED_EDGE('',*,*,#355,.F.);
#705=ORIENTED_EDGE('',*,*,#704,.T.);
#707=ORIENTED_EDGE('',*,*,#706,.T.);
#709=ORIENTED_EDGE('',*,*,#708,.F.);
#710=EDGE_LOOP('',(#703,#705,#707,#709));
#711=FACE_OUTER_BOUND('',#710,.F.);
#713=FILL_AREA_STYLE_COLOUR('',#6);
#714=FILL_AREA_STYLE('',(#713));
#715=SURFACE_STYLE_FILL_AREA(#714);
#716=SURFACE_SIDE_STYLE('',(#715));
#717=SURFACE_STYLE_USAGE(.BOTH.,#716);
#718=PRESENTATION_STYLE_ASSIGNMENT((#717));
#719=STYLED_ITEM('',(#718),#712);
#720=CARTESIAN_POINT('',(0.E0,0.E0,0.E0));
#721=DIRECTION('',(0.E0,-1.E0,0.E0));
#722=DIRECTION('',(0.E0,0.E0,1.E0));
#723=AXIS2_PLACEMENT_3D('',#720,#721,#722);
#724=CYLINDRICAL_SURFACE('',#723,3.7E0);
#725=ORIENTED_EDGE('',*,*,#357,.F.);
#726=ORIENTED_EDGE('',*,*,#708,.T.);
#728=ORIENTED_EDGE('',*,*,#727,.T.);
#729=ORIENTED_EDGE('',*,*,#704,.F.);
#730=EDGE_LOOP('',(#725,#726,#728,#729));
#731=FACE_OUTER_BOUND('',#730,.F.);
#733=FILL_AREA_STYLE_COLOUR('',#6);
#734=FILL_AREA_STYLE('',(#733));
#735=SURFACE_STYLE_FILL_AREA(#734);
#736=SURFACE_SIDE_STYLE('',(#735));
#737=SURFACE_STYLE_USAGE(.BOTH.,#736);
#738=PRESENTATION_STYLE_ASSIGNMENT((#737));
#739=STYLED_ITEM('',(#738),#732);
#740=CARTESIAN_POINT('',(0.E0,1.E-1,0.E0));
#741=DIRECTION('',(0.E0,-1.E0,0.E0));
#742=DIRECTION('',(0.E0,0.E0,1.E0));
#743=AXIS2_PLACEMENT_3D('',#740,#741,#742);
#744=PLANE('',#743);
#745=ORIENTED_EDGE('',*,*,#706,.F.);
#746=ORIENTED_EDGE('',*,*,#727,.F.);
#747=EDGE_LOOP('',(#745,#746));
#748=FACE_OUTER_BOUND('',#747,.F.);
#750=ORIENTED_EDGE('',*,*,#749,.T.);
#752=ORIENTED_EDGE('',*,*,#751,.T.);
#753=EDGE_LOOP('',(#750,#752));
#754=FACE_BOUND('',#753,.F.);
#756=ORIENTED_EDGE('',*,*,#755,.T.);
#758=ORIENTED_EDGE('',*,*,#757,.T.);
#759=EDGE_LOOP('',(#756,#758));
#760=FACE_BOUND('',#759,.F.);
#762=FILL_AREA_STYLE_COLOUR('',#4);
#763=FILL_AREA_STYLE('',(#762));
#764=SURFACE_STYLE_FILL_AREA(#763);
#765=SURFACE_SIDE_STYLE('',(#764));
#766=SURFACE_STYLE_USAGE(.POSITIVE.,#765);
#767=PRESENTATION_STYLE_ASSIGNMENT((#766));
#768=STYLED_ITEM('',(#767),#761);
#769=CARTESIAN_POINT('',(0.E0,1.E-1,2.5E0));
#770=DIRECTION('',(0.E0,-1.E0,0.E0));
#771=DIRECTION('',(0.E0,0.E0,-1.E0));
#772=AXIS2_PLACEMENT_3D('',#769,#770,#771);
#773=CYLINDRICAL_SURFACE('',#772,3.E-1);
#774=ORIENTED_EDGE('',*,*,#749,.F.);
#776=ORIENTED_EDGE('',*,*,#775,.T.);
#778=ORIENTED_EDGE('',*,*,#777,.T.);
#780=ORIENTED_EDGE('',*,*,#779,.F.);
#781=EDGE_LOOP('',(#774,#776,#778,#780));
#782=FACE_OUTER_BOUND('',#781,.F.);
#784=FILL_AREA_STYLE_COLOUR('',#13);
#785=FILL_AREA_STYLE('',(#784));
#786=SURFACE_STYLE_FILL_AREA(#785);
#787=SURFACE_SIDE_STYLE('',(#786));
#788=SURFACE_STYLE_USAGE(.POSITIVE.,#787);
#789=PRESENTATION_STYLE_ASSIGNMENT((#788));
#790=STYLED_ITEM('',(#789),#783);
#791=CARTESIAN_POINT('',(0.E0,1.E-1,2.5E0));
#792=DIRECTION('',(0.E0,-1.E0,0.E0));
#793=DIRECTION('',(0.E0,0.E0,-1.E0));
#794=AXIS2_PLACEMENT_3D('',#791,#792,#793);
#795=CYLINDRICAL_SURFACE('',#794,3.E-1);
#796=ORIENTED_EDGE('',*,*,#751,.F.);
#797=ORIENTED_EDGE('',*,*,#779,.T.);
#799=ORIENTED_EDGE('',*,*,#798,.T.);
#800=ORIENTED_EDGE('',*,*,#775,.F.);
#801=EDGE_LOOP('',(#796,#797,#799,#800));
#802=FACE_OUTER_BOUND('',#801,.F.);
#804=FILL_AREA_STYLE_COLOUR('',#13);
#805=FILL_AREA_STYLE('',(#804));
#806=SURFACE_STYLE_FILL_AREA(#805);
#807=SURFACE_SIDE_STYLE('',(#806));
#808=SURFACE_STYLE_USAGE(.POSITIVE.,#807);
#809=PRESENTATION_STYLE_ASSIGNMENT((#808));
#810=STYLED_ITEM('',(#809),#803);
#811=CARTESIAN_POINT('',(0.E0,-1.99E1,0.E0));
#812=DIRECTION('',(0.E0,-1.E0,0.E0));
#813=DIRECTION('',(0.E0,0.E0,-1.E0));
#814=AXIS2_PLACEMENT_3D('',#811,#812,#813);
#815=PLANE('',#814);
#816=ORIENTED_EDGE('',*,*,#777,.F.);
#817=ORIENTED_EDGE('',*,*,#798,.F.);
#818=EDGE_LOOP('',(#816,#817));
#819=FACE_OUTER_BOUND('',#818,.F.);
#821=FILL_AREA_STYLE_COLOUR('',#13);
#822=FILL_AREA_STYLE('',(#821));
#823=SURFACE_STYLE_FILL_AREA(#822);
#824=SURFACE_SIDE_STYLE('',(#823));
#825=SURFACE_STYLE_USAGE(.POSITIVE.,#824);
#826=PRESENTATION_STYLE_ASSIGNMENT((#825));
#827=STYLED_ITEM('',(#826),#820);
#828=CARTESIAN_POINT('',(0.E0,1.E-1,-2.5E0));
#829=DIRECTION('',(0.E0,-1.E0,0.E0));
#830=DIRECTION('',(-1.E0,0.E0,0.E0));
#831=AXIS2_PLACEMENT_3D('',#828,#829,#830);
#832=CYLINDRICAL_SURFACE('',#831,3.E-1);
#833=ORIENTED_EDGE('',*,*,#755,.F.);
#835=ORIENTED_EDGE('',*,*,#834,.T.);
#837=ORIENTED_EDGE('',*,*,#836,.T.);
#839=ORIENTED_EDGE('',*,*,#838,.F.);
#840=EDGE_LOOP('',(#833,#835,#837,#839));
#841=FACE_OUTER_BOUND('',#840,.F.);
#843=FILL_AREA_STYLE_COLOUR('',#13);
#844=FILL_AREA_STYLE('',(#843));
#845=SURFACE_STYLE_FILL_AREA(#844);
#846=SURFACE_SIDE_STYLE('',(#845));
#847=SURFACE_STYLE_USAGE(.POSITIVE.,#846);
#848=PRESENTATION_STYLE_ASSIGNMENT((#847));
#849=STYLED_ITEM('',(#848),#842);
#850=CARTESIAN_POINT('',(0.E0,1.E-1,-2.5E0));
#851=DIRECTION('',(0.E0,-1.E0,0.E0));
#852=DIRECTION('',(-1.E0,0.E0,0.E0));
#853=AXIS2_PLACEMENT_3D('',#850,#851,#852);
#854=CYLINDRICAL_SURFACE('',#853,3.E-1);
#855=ORIENTED_EDGE('',*,*,#757,.F.);
#856=ORIENTED_EDGE('',*,*,#838,.T.);
#858=ORIENTED_EDGE('',*,*,#857,.T.);
#859=ORIENTED_EDGE('',*,*,#834,.F.);
#860=EDGE_LOOP('',(#855,#856,#858,#859));
#861=FACE_OUTER_BOUND('',#860,.F.);
#863=FILL_AREA_STYLE_COLOUR('',#13);
#864=FILL_AREA_STYLE('',(#863));
#865=SURFACE_STYLE_FILL_AREA(#864);
#866=SURFACE_SIDE_STYLE('',(#865));
#867=SURFACE_STYLE_USAGE(.POSITIVE.,#866);
#868=PRESENTATION_STYLE_ASSIGNMENT((#867));
#869=STYLED_ITEM('',(#868),#862);
#870=CARTESIAN_POINT('',(0.E0,-2.49E1,0.E0));
#871=DIRECTION('',(0.E0,-1.E0,0.E0));
#872=DIRECTION('',(-1.E0,0.E0,0.E0));
#873=AXIS2_PLACEMENT_3D('',#870,#871,#872);
#874=PLANE('',#873);
#875=ORIENTED_EDGE('',*,*,#836,.F.);
#876=ORIENTED_EDGE('',*,*,#857,.F.);
#877=EDGE_LOOP('',(#875,#876));
#878=FACE_OUTER_BOUND('',#877,.F.);
#880=FILL_AREA_STYLE_COLOUR('',#13);
#881=FILL_AREA_STYLE('',(#880));
#882=SURFACE_STYLE_FILL_AREA(#881);
#883=SURFACE_SIDE_STYLE('',(#882));
#884=SURFACE_STYLE_USAGE(.POSITIVE.,#883);
#885=PRESENTATION_STYLE_ASSIGNMENT((#884));
#886=STYLED_ITEM('',(#885),#879);
#887=CLOSED_SHELL('',(#361,#383,#407,#428,#447,#472,#492,#517,#539,#561,#582,
#603,#622,#645,#667,#680,#690,#712,#732,#761,#783,#803,#820,#842,#862,#879));
#888=MANIFOLD_SOLID_BREP('',#887);
#891=PLANE_ANGLE_MEASURE_WITH_UNIT(PLANE_ANGLE_MEASURE(1.745329251994E-2),#890);
#892=(CONVERSION_BASED_UNIT('DEGREE',#891)NAMED_UNIT(*)PLANE_ANGLE_UNIT());
#894=UNCERTAINTY_MEASURE_WITH_UNIT(LENGTH_MEASURE(4.707263241785E-3),#889,
'distance_accuracy_value',
'Maximum model space distance between geometric entities at asserted connectivities');
#896=CARTESIAN_POINT('',(0.E0,0.E0,0.E0));
#897=DIRECTION('',(0.E0,0.E0,1.E0));
#898=DIRECTION('',(1.E0,0.E0,0.E0));
#901=APPLICATION_CONTEXT('automotive_design');
#902=APPLICATION_PROTOCOL_DEFINITION('international standard',
'automotive_design',2001,#901);
#903=PRODUCT_DEFINITION_CONTEXT('part definition',#901,'design');
#904=PRODUCT_CONTEXT('',#901,'mechanical');
#905=PRODUCT('0100230000','0100230000','NOT SPECIFIED',(#904));
#906=PRODUCT_DEFINITION_FORMATION('76','LAST_VERSION',#905);
#914=DERIVED_UNIT_ELEMENT(#913,2.E0);
#915=DERIVED_UNIT((#914));
#916=MEASURE_REPRESENTATION_ITEM('surface area measure',AREA_MEASURE(
8.710591132784E2),#915);
#921=DERIVED_UNIT_ELEMENT(#920,3.E0);
#922=DERIVED_UNIT((#921));
#923=MEASURE_REPRESENTATION_ITEM('volume measure',VOLUME_MEASURE(
1.572105640946E3),#922);
#927=CARTESIAN_POINT('centre point',(-5.355639851501E-8,9.884781364580E0,
-2.248001045535E-3));
#932=DERIVED_UNIT_ELEMENT(#931,2.E0);
#933=DERIVED_UNIT((#932));
#934=MEASURE_REPRESENTATION_ITEM('surface area measure',AREA_MEASURE(
8.710591132784E2),#933);
#939=DERIVED_UNIT_ELEMENT(#938,3.E0);
#940=DERIVED_UNIT((#939));
#941=MEASURE_REPRESENTATION_ITEM('volume measure',VOLUME_MEASURE(
1.572105640946E3),#940);
#945=CARTESIAN_POINT('centre point',(-5.355639851501E-8,9.884781364580E0,
-2.248001045535E-3));
#955=CARTESIAN_POINT('centre point',(4.999999946444E0,3.478478136458E1,
-5.002248001046E0));
#959=CARTESIAN_POINT('',(5.E0,2.49E1,-5.E0));
#960=DIRECTION('',(0.E0,0.E0,1.E0));
#961=DIRECTION('',(1.E0,0.E0,0.E0));
#962=AXIS2_PLACEMENT_3D('',#959,#960,#961);
#963=ITEM_DEFINED_TRANSFORMATION('','',#899,#962);
#964=(REPRESENTATION_RELATIONSHIP('','',#900,#952)REPRESENTATION_RELATIONSHIP_WITH_TRANSFORMATION(#963)SHAPE_REPRESENTATION_RELATIONSHIP());
#965=CONTEXT_DEPENDENT_SHAPE_REPRESENTATION(#964,#954);
#968=PLANE_ANGLE_MEASURE_WITH_UNIT(PLANE_ANGLE_MEASURE(1.745329251994E-2),#967);
#969=(CONVERSION_BASED_UNIT('DEGREE',#968)NAMED_UNIT(*)PLANE_ANGLE_UNIT());
#971=UNCERTAINTY_MEASURE_WITH_UNIT(LENGTH_MEASURE(4.707263241785E-3),#966,
'distance_accuracy_value',
'Maximum model space distance between geometric entities at asserted connectivities');
#973=CARTESIAN_POINT('',(0.E0,0.E0,0.E0));
#974=DIRECTION('',(0.E0,0.E0,1.E0));
#975=DIRECTION('',(1.E0,0.E0,0.E0));
#977=MECHANICAL_DESIGN_GEOMETRIC_PRESENTATION_REPRESENTATION('',(#368,#390,#414,
#435,#454,#479,#499,#524,#546,#568,#589,#610,#629,#652,#697,#719,#739,#768,#790,
#810,#827,#849,#869,#886),#972);
#978=PRODUCT_CONTEXT('',#901,'mechanical');
#979=PRODUCT('ASM0011_ASM','ASM0011_ASM','NOT SPECIFIED',(#978));
#980=PRODUCT_DEFINITION_FORMATION('1','LAST_VERSION',#979);
#983=DERIVED_UNIT_ELEMENT(#982,2.E0);
#984=DERIVED_UNIT((#983));
#985=MEASURE_REPRESENTATION_ITEM('surface area measure',AREA_MEASURE(
8.710591132784E2),#984);
#990=DERIVED_UNIT_ELEMENT(#989,3.E0);
#991=DERIVED_UNIT((#990));
#992=MEASURE_REPRESENTATION_ITEM('volume measure',VOLUME_MEASURE(
1.572105640946E3),#991);
#996=CARTESIAN_POINT('centre point',(4.999999946444E0,3.478478136458E1,
-5.002248001046E0));
#1000=PRODUCT_RELATED_PRODUCT_CATEGORY('part','',(#979,#905));
#1=DRAUGHTING_PRE_DEFINED_COLOUR('green');
#2=COLOUR_RGB('',1.1E-2,1.2E-2,1.E0);
#3=COLOUR_RGB('',1.607843137255E-1,1.607843137255E-1,1.803921568627E-1);
#4=COLOUR_RGB('',2.392156862745E-1,2.509803921569E-1,2.588235294118E-1);
#5=COLOUR_RGB('',4.1E-1,2.61589E-1,1.12848E-1);
#6=COLOUR_RGB('',4.823529411765E-1,3.215686274510E-1,3.215686274510E-1);
#7=COLOUR_RGB('',5.04854E-1,1.5455E-2,1.5455E-2);
#8=COLOUR_RGB('',5.176470588235E-1,3.372549019608E-1,3.490196078431E-1);
#9=COLOUR_RGB('',6.352941176471E-1,6.862745098039E-1,7.490196078431E-1);
#10=COLOUR_RGB('',6.40777E-1,6.40777E-1,6.40777E-1);
#11=COLOUR_RGB('',6.69062E-1,6.69903E-1,6.55217E-1);
#12=COLOUR_RGB('',7.843137254902E-1,7.843137254902E-1,2.078431372549E-1);
#13=COLOUR_RGB('',8.196078431373E-1,8.117647058824E-1,8.117647058824E-1);
#14=COLOUR_RGB('',8.588235294118E-1,8.705882352941E-1,3.098039215686E-1);
#15=COLOUR_RGB('',8.705882352941E-1,9.019607843137E-1,9.098039215686E-1);
#16=COLOUR_RGB('',9.21569E-1,7.05882E-1,4.70588E-1);
#17=DRAUGHTING_PRE_DEFINED_COLOUR('red');
#18=COLOUR_RGB('',1.E0,9.215686274510E-1,4.313725490196E-1);
#19=DRAUGHTING_PRE_DEFINED_COLOUR('yellow');
#20=COLOUR_RGB('',1.E0,1.E0,5.3E-1);
#21=COLOUR_RGB('',1.E0,1.E0,9.49E-1);
#22=DRAUGHTING_PRE_DEFINED_COLOUR('white');
#27=CIRCLE('',#26,4.749977422528E0);
#32=CIRCLE('',#31,4.749977422528E0);
#37=CIRCLE('',#36,3.7E0);
#42=CIRCLE('',#41,3.7E0);
#47=CIRCLE('',#46,2.5E-1);
#52=CIRCLE('',#51,4.999967160041E0);
#57=CIRCLE('',#56,4.781818181818E0);
#62=CIRCLE('',#61,8.E-1);
#67=CIRCLE('',#66,4.999967160041E0);
#72=CIRCLE('',#71,8.E-1);
#77=CIRCLE('',#76,2.5E-1);
#82=CIRCLE('',#81,3.E-1);
#87=CIRCLE('',#86,4.781818181818E0);
#92=CIRCLE('',#91,4.781818181818E0);
#97=CIRCLE('',#96,3.E-1);
#102=CIRCLE('',#101,4.781818181818E0);
#107=CIRCLE('',#106,4.781818181818E0);
#112=CIRCLE('',#111,5.E0);
#117=CIRCLE('',#116,4.781818181818E0);
#122=CIRCLE('',#121,8.E-1);
#127=CIRCLE('',#126,5.E0);
#136=CIRCLE('',#135,1.5E-1);
#141=CIRCLE('',#140,1.5E-1);
#146=CIRCLE('',#145,5.E0);
#151=CIRCLE('',#150,5.E0);
#156=CIRCLE('',#155,5.E0);
#165=CIRCLE('',#164,8.E-1);
#170=CIRCLE('',#169,4.85E0);
#175=CIRCLE('',#174,4.85E0);
#180=CIRCLE('',#179,3.5E0);
#185=CIRCLE('',#184,3.5E0);
#198=CIRCLE('',#197,3.5E0);
#203=CIRCLE('',#202,3.5E0);
#216=CIRCLE('',#215,3.7E0);
#221=CIRCLE('',#220,3.7E0);
#226=CIRCLE('',#225,3.E-1);
#231=CIRCLE('',#230,3.E-1);
#236=CIRCLE('',#235,3.E-1);
#241=CIRCLE('',#240,3.E-1);
#254=CIRCLE('',#253,3.E-1);
#259=CIRCLE('',#258,3.E-1);
#272=CIRCLE('',#271,3.E-1);
#277=CIRCLE('',#276,3.E-1);
#349=EDGE_CURVE('',#334,#335,#27,.T.);
#351=EDGE_CURVE('',#335,#334,#32,.T.);
#355=EDGE_CURVE('',#304,#305,#37,.T.);
#357=EDGE_CURVE('',#305,#304,#42,.T.);
#361=ADVANCED_FACE('',(#354,#360),#348,.F.);
#374=EDGE_CURVE('',#330,#331,#52,.T.);
#376=EDGE_CURVE('',#331,#335,#77,.T.);
#379=EDGE_CURVE('',#330,#334,#47,.T.);
#383=ADVANCED_FACE('',(#382),#373,.T.);
#397=EDGE_CURVE('',#330,#293,#72,.T.);
#399=EDGE_CURVE('',#293,#296,#57,.T.);
#401=EDGE_CURVE('',#327,#296,#92,.T.);
#403=EDGE_CURVE('',#331,#327,#62,.T.);
#407=ADVANCED_FACE('',(#406),#395,.T.);
#420=EDGE_CURVE('',#331,#330,#67,.T.);
#423=EDGE_CURVE('',#293,#327,#87,.T.);
#428=ADVANCED_FACE('',(#427),#419,.T.);
#447=ADVANCED_FACE('',(#446),#440,.T.);
#460=EDGE_CURVE('',#292,#293,#82,.T.);
#464=EDGE_CURVE('',#296,#297,#97,.T.);
#466=EDGE_CURVE('',#297,#323,#102,.T.);
#468=EDGE_CURVE('',#323,#292,#107,.T.);
#472=ADVANCED_FACE('',(#471),#459,.F.);
#486=EDGE_CURVE('',#297,#292,#117,.T.);
#492=ADVANCED_FACE('',(#491),#484,.F.);
#505=EDGE_CURVE('',#287,#289,#112,.T.);
#507=EDGE_CURVE('',#289,#323,#165,.T.);
#511=EDGE_CURVE('',#325,#292,#122,.T.);
#513=EDGE_CURVE('',#325,#287,#151,.T.);
#517=ADVANCED_FACE('',(#516),#504,.T.);
#530=EDGE_CURVE('',#280,#281,#127,.T.);
#532=EDGE_CURVE('',#289,#280,#160,.T.);
#535=EDGE_CURVE('',#287,#281,#131,.T.);
#539=ADVANCED_FACE('',(#538),#529,.T.);
#553=EDGE_CURVE('',#281,#285,#141,.T.);
#555=EDGE_CURVE('',#284,#285,#170,.T.);
#557=EDGE_CURVE('',#280,#284,#136,.T.);
#561=ADVANCED_FACE('',(#560),#551,.T.);
#574=EDGE_CURVE('',#281,#280,#146,.T.);
#577=EDGE_CURVE('',#285,#284,#175,.T.);
#582=ADVANCED_FACE('',(#581),#573,.T.);
#598=EDGE_CURVE('',#289,#325,#156,.T.);
#603=ADVANCED_FACE('',(#602),#594,.T.);
#622=ADVANCED_FACE('',(#621),#615,.T.);
#639=EDGE_CURVE('',#342,#343,#180,.T.);
#641=EDGE_CURVE('',#343,#342,#185,.T.);
#645=ADVANCED_FACE('',(#638,#644),#634,.T.);
#659=EDGE_CURVE('',#342,#338,#189,.T.);
#661=EDGE_CURVE('',#338,#339,#198,.T.);
#663=EDGE_CURVE('',#343,#339,#193,.T.);
#667=ADVANCED_FACE('',(#666),#657,.F.);
#675=EDGE_CURVE('',#339,#338,#203,.T.);
#680=ADVANCED_FACE('',(#679),#672,.F.);
#690=ADVANCED_FACE('',(#689),#685,.T.);
#704=EDGE_CURVE('',#304,#300,#207,.T.);
#706=EDGE_CURVE('',#300,#301,#216,.T.);
#708=EDGE_CURVE('',#305,#301,#211,.T.);
#712=ADVANCED_FACE('',(#711),#702,.F.);
#727=EDGE_CURVE('',#301,#300,#221,.T.);
#732=ADVANCED_FACE('',(#731),#724,.F.);
#749=EDGE_CURVE('',#312,#313,#226,.T.);
#751=EDGE_CURVE('',#313,#312,#231,.T.);
#755=EDGE_CURVE('',#320,#321,#236,.T.);
#757=EDGE_CURVE('',#321,#320,#241,.T.);
#761=ADVANCED_FACE('',(#748,#754,#760),#744,.T.);
#775=EDGE_CURVE('',#312,#308,#245,.T.);
#777=EDGE_CURVE('',#308,#309,#254,.T.);
#779=EDGE_CURVE('',#313,#309,#249,.T.);
#783=ADVANCED_FACE('',(#782),#773,.T.);
#798=EDGE_CURVE('',#309,#308,#259,.T.);
#803=ADVANCED_FACE('',(#802),#795,.T.);
#820=ADVANCED_FACE('',(#819),#815,.T.);
#834=EDGE_CURVE('',#320,#316,#263,.T.);
#836=EDGE_CURVE('',#316,#317,#272,.T.);
#838=EDGE_CURVE('',#321,#317,#267,.T.);
#842=ADVANCED_FACE('',(#841),#832,.T.);
#857=EDGE_CURVE('',#317,#316,#277,.T.);
#862=ADVANCED_FACE('',(#861),#854,.T.);
#879=ADVANCED_FACE('',(#878),#874,.T.);
#889=(LENGTH_UNIT()NAMED_UNIT(*)SI_UNIT(.MILLI.,.METRE.));
#890=(NAMED_UNIT(*)PLANE_ANGLE_UNIT()SI_UNIT($,.RADIAN.));
#893=(NAMED_UNIT(*)SI_UNIT($,.STERADIAN.)SOLID_ANGLE_UNIT());
#895=(GEOMETRIC_REPRESENTATION_CONTEXT(3)GLOBAL_UNCERTAINTY_ASSIGNED_CONTEXT((
#894))GLOBAL_UNIT_ASSIGNED_CONTEXT((#889,#892,#893))REPRESENTATION_CONTEXT
('ID1','3'));
#899=AXIS2_PLACEMENT_3D('',#896,#897,#898);
#900=ADVANCED_BREP_SHAPE_REPRESENTATION('',(#899,#888),#895);
#907=PRODUCT_DEFINITION('part definition','',#906,#903);
#908=PRODUCT_DEFINITION_SHAPE('','SHAPE FOR 0100230000.',#907);
#909=SHAPE_ASPECT('','solid data associated with 0100230000',#908,.F.);
#910=PROPERTY_DEFINITION('',
'shape for solid data with which properties are associated',#909);
#911=SHAPE_REPRESENTATION('',(#888),#895);
#912=SHAPE_DEFINITION_REPRESENTATION(#910,#911);
#913=(LENGTH_UNIT()NAMED_UNIT(*)SI_UNIT(.MILLI.,.METRE.));
#917=PROPERTY_DEFINITION('geometric validation property','area of 0100230000',
#909);
#918=REPRESENTATION('surface area',(#916),#895);
#919=PROPERTY_DEFINITION_REPRESENTATION(#917,#918);
#920=(LENGTH_UNIT()NAMED_UNIT(*)SI_UNIT(.MILLI.,.METRE.));
#924=PROPERTY_DEFINITION('geometric validation property','volume of 0100230000',
#909);
#925=REPRESENTATION('volume',(#923),#895);
#926=PROPERTY_DEFINITION_REPRESENTATION(#924,#925);
#928=PROPERTY_DEFINITION('geometric validation property',
'centroid of 0100230000',#909);
#929=REPRESENTATION('centroid',(#927),#895);
#930=PROPERTY_DEFINITION_REPRESENTATION(#928,#929);
#931=(LENGTH_UNIT()NAMED_UNIT(*)SI_UNIT(.MILLI.,.METRE.));
#935=PROPERTY_DEFINITION('geometric validation property','area of 0100230000',
#908);
#936=REPRESENTATION('surface area',(#934),#895);
#937=PROPERTY_DEFINITION_REPRESENTATION(#935,#936);
#938=(LENGTH_UNIT()NAMED_UNIT(*)SI_UNIT(.MILLI.,.METRE.));
#942=PROPERTY_DEFINITION('geometric validation property','volume of 0100230000',
#908);
#943=REPRESENTATION('volume',(#941),#895);
#944=PROPERTY_DEFINITION_REPRESENTATION(#942,#943);
#946=PROPERTY_DEFINITION('geometric validation property',
'centroid of 0100230000',#908);
#947=REPRESENTATION('centroid',(#945),#895);
#948=PROPERTY_DEFINITION_REPRESENTATION(#946,#947);
#949=SHAPE_DEFINITION_REPRESENTATION(#908,#900);
#950=SHAPE_DEFINITION_REPRESENTATION(#951,#952);
#951=PRODUCT_DEFINITION_SHAPE('','SHAPE FOR ASM0011_ASM.',#981);
#952=SHAPE_REPRESENTATION('',(#962,#976),#972);
#953=NEXT_ASSEMBLY_USAGE_OCCURRENCE('15','Next assembly relationship',
'\X2\5F157EBF\X0\01002300',#981,#907,$);
#954=PRODUCT_DEFINITION_SHAPE('Placement #15',
'Placement of 0100230000 with respect to ASM0011_ASM',#953);
#956=PROPERTY_DEFINITION('geometric validation property',
'centroid of \X2\5F157EBF\X0\01002300',#954);
#957=REPRESENTATION('centroid',(#955),#895);
#958=PROPERTY_DEFINITION_REPRESENTATION(#956,#957);
#966=(LENGTH_UNIT()NAMED_UNIT(*)SI_UNIT(.MILLI.,.METRE.));
#967=(NAMED_UNIT(*)PLANE_ANGLE_UNIT()SI_UNIT($,.RADIAN.));
#970=(NAMED_UNIT(*)SI_UNIT($,.STERADIAN.)SOLID_ANGLE_UNIT());
#972=(GEOMETRIC_REPRESENTATION_CONTEXT(3)GLOBAL_UNCERTAINTY_ASSIGNED_CONTEXT((
#971))GLOBAL_UNIT_ASSIGNED_CONTEXT((#966,#969,#970))REPRESENTATION_CONTEXT
('ID2','3'));
#976=AXIS2_PLACEMENT_3D('',#973,#974,#975);
#981=PRODUCT_DEFINITION('part definition','',#980,#903);
#982=(LENGTH_UNIT()NAMED_UNIT(*)SI_UNIT(.MILLI.,.METRE.));
#986=PROPERTY_DEFINITION('geometric validation property','area of ASM0011_ASM',
#951);
#987=REPRESENTATION('surface area',(#985),#972);
#988=PROPERTY_DEFINITION_REPRESENTATION(#986,#987);
#989=(LENGTH_UNIT()NAMED_UNIT(*)SI_UNIT(.MILLI.,.METRE.));
#993=PROPERTY_DEFINITION('geometric validation property',
'volume of ASM0011_ASM',#951);
#994=REPRESENTATION('volume',(#992),#972);
#995=PROPERTY_DEFINITION_REPRESENTATION(#993,#994);
#997=PROPERTY_DEFINITION('geometric validation property',
'centroid of ASM0011_ASM',#951);
#998=REPRESENTATION('centroid',(#996),#972);
#999=PROPERTY_DEFINITION_REPRESENTATION(#997,#998);
ENDSEC;
END-ISO-10303-21;
