ISO-10303-21;
HEADER;
FILE_DESCRIPTION((''),'2;1');
FILE_NAME('1800204000','2025-08-06T10:47:43',('Administrator'),(''),
'CREO PARAMETRIC BY PTC INC, 2018100','CREO PARAMETRIC BY PTC INC, 2018100','');
FILE_SCHEMA(('AUTOMOTIVE_DESIGN { 1 0 10303 214 1 1 1 1 }'));
ENDSEC;
DATA;
#28=CARTESIAN_POINT('',(0.E0,0.E0,0.E0));
#29=DIRECTION('',(0.E0,1.E0,0.E0));
#30=DIRECTION('',(2.232618374437E-11,0.E0,1.E0));
#31=AXIS2_PLACEMENT_3D('',#28,#29,#30);
#33=CARTESIAN_POINT('',(0.E0,0.E0,0.E0));
#34=DIRECTION('',(0.E0,1.E0,0.E0));
#35=DIRECTION('',(-1.E0,0.E0,1.027608320602E-11));
#36=AXIS2_PLACEMENT_3D('',#33,#34,#35);
#38=CARTESIAN_POINT('',(0.E0,0.E0,0.E0));
#39=DIRECTION('',(0.E0,-1.E0,0.E0));
#40=DIRECTION('',(0.E0,0.E0,1.E0));
#41=AXIS2_PLACEMENT_3D('',#38,#39,#40);
#43=CARTESIAN_POINT('',(0.E0,0.E0,0.E0));
#44=DIRECTION('',(0.E0,-1.E0,0.E0));
#45=DIRECTION('',(0.E0,0.E0,-1.E0));
#46=AXIS2_PLACEMENT_3D('',#43,#44,#45);
#48=CARTESIAN_POINT('',(4.180976398427E-11,5.E-1,8.499674669410E0));
#49=DIRECTION('',(1.E0,0.E0,-4.918981888480E-12));
#50=DIRECTION('',(4.915781297918E-12,3.606797749847E-2,9.993493388196E-1));
#51=AXIS2_PLACEMENT_3D('',#48,#49,#50);
#53=CARTESIAN_POINT('',(0.E0,5.180339887499E-1,0.E0));
#54=DIRECTION('',(0.E0,1.E0,0.E0));
#55=DIRECTION('',(5.123476048635E-12,0.E0,1.E0));
#56=AXIS2_PLACEMENT_3D('',#53,#54,#55);
#58=CARTESIAN_POINT('',(0.E0,1.227322003750E0,0.E0));
#59=DIRECTION('',(0.E0,1.E0,0.E0));
#60=DIRECTION('',(-1.207965298302E-11,0.E0,1.E0));
#61=AXIS2_PLACEMENT_3D('',#58,#59,#60);
#63=CARTESIAN_POINT('',(-8.E0,4.819660112501E-1,-7.167169635558E-12));
#64=DIRECTION('',(8.958962044447E-13,0.E0,-1.E0));
#65=DIRECTION('',(-9.993493388196E-1,3.606797749979E-2,-8.953132795628E-13));
#66=AXIS2_PLACEMENT_3D('',#63,#64,#65);
#68=CARTESIAN_POINT('',(0.E0,5.180339887499E-1,0.E0));
#69=DIRECTION('',(0.E0,1.E0,0.E0));
#70=DIRECTION('',(-1.E0,0.E0,-8.959885433803E-13));
#71=AXIS2_PLACEMENT_3D('',#68,#69,#70);
#73=CARTESIAN_POINT('',(4.098611727787E-11,4.819660112501E-1,8.E0));
#74=DIRECTION('',(-1.E0,0.E0,5.123264659734E-12));
#75=DIRECTION('',(5.119931150303E-12,3.606797749979E-2,9.993493388196E-1));
#76=AXIS2_PLACEMENT_3D('',#73,#74,#75);
#78=CARTESIAN_POINT('',(-8.499674669410E0,5.E-1,-9.249656596211E-12));
#79=DIRECTION('',(-1.088233669844E-12,0.E0,1.E0));
#80=DIRECTION('',(-9.993493388196E-1,3.606797749961E-2,-1.087525598439E-12));
#81=AXIS2_PLACEMENT_3D('',#78,#79,#80);
#83=CARTESIAN_POINT('',(0.E0,1.6E0,9.E0));
#84=DIRECTION('',(-1.E0,0.E0,0.E0));
#85=DIRECTION('',(0.E0,7.453559924999E-1,-6.666666666667E-1));
#86=AXIS2_PLACEMENT_3D('',#83,#84,#85);
#88=CARTESIAN_POINT('',(0.E0,1.227322003750E0,0.E0));
#89=DIRECTION('',(0.E0,-1.E0,0.E0));
#90=DIRECTION('',(0.E0,0.E0,1.E0));
#91=AXIS2_PLACEMENT_3D('',#88,#89,#90);
#93=CARTESIAN_POINT('',(0.E0,1.227322003750E0,0.E0));
#94=DIRECTION('',(0.E0,-1.E0,0.E0));
#95=DIRECTION('',(-1.E0,0.E0,0.E0));
#96=AXIS2_PLACEMENT_3D('',#93,#94,#95);
#98=CARTESIAN_POINT('',(0.E0,1.6E0,-9.E0));
#99=DIRECTION('',(-1.E0,0.E0,0.E0));
#100=DIRECTION('',(0.E0,-7.453559924999E-1,6.666666666667E-1));
#101=AXIS2_PLACEMENT_3D('',#98,#99,#100);
#103=CARTESIAN_POINT('',(0.E0,1.972677996250E0,0.E0));
#104=DIRECTION('',(0.E0,1.E0,0.E0));
#105=DIRECTION('',(0.E0,0.E0,-1.E0));
#106=AXIS2_PLACEMENT_3D('',#103,#104,#105);
#108=CARTESIAN_POINT('',(0.E0,1.972677996250E0,0.E0));
#109=DIRECTION('',(0.E0,1.E0,0.E0));
#110=DIRECTION('',(-1.E0,0.E0,0.E0));
#111=AXIS2_PLACEMENT_3D('',#108,#109,#110);
#113=CARTESIAN_POINT('',(0.E0,2.718033988750E0,0.E0));
#114=DIRECTION('',(0.E0,1.E0,0.E0));
#115=DIRECTION('',(1.E0,0.E0,0.E0));
#116=AXIS2_PLACEMENT_3D('',#113,#114,#115);
#118=CARTESIAN_POINT('',(0.E0,1.972677996250E0,0.E0));
#119=DIRECTION('',(0.E0,-1.E0,0.E0));
#120=DIRECTION('',(-3.276350344876E-12,0.E0,-1.E0));
#121=AXIS2_PLACEMENT_3D('',#118,#119,#120);
#123=CARTESIAN_POINT('',(-9.661972610875E-11,2.718033988750E0,8.E0));
#124=DIRECTION('',(1.E0,0.E0,1.207746576359E-11));
#125=DIRECTION('',(-1.207746576359E-11,-1.989519660128E-13,1.E0));
#126=AXIS2_PLACEMENT_3D('',#123,#124,#125);
#128=CARTESIAN_POINT('',(0.E0,4.47E1,0.E0));
#129=DIRECTION('',(0.E0,-1.E0,0.E0));
#130=DIRECTION('',(-1.E0,0.E0,0.E0));
#131=AXIS2_PLACEMENT_3D('',#128,#129,#130);
#133=DIRECTION('',(0.E0,1.E0,-8.631959330020E-14));
#134=VECTOR('',#133,4.198196601125E1);
#135=CARTESIAN_POINT('',(9.E0,2.718033988750E0,3.639942051423E-12));
#136=LINE('',#135,#134);
#137=CARTESIAN_POINT('',(-8.7E0,4.47E1,3.331501741144E-13));
#138=DIRECTION('',(-3.829402073219E-14,0.E0,-1.E0));
#139=DIRECTION('',(-1.E0,0.E0,3.829402073219E-14));
#140=AXIS2_PLACEMENT_3D('',#137,#138,#139);
#142=CARTESIAN_POINT('',(8.7E0,4.47E1,-3.312211616091E-13));
#143=DIRECTION('',(3.807197612726E-14,0.E0,1.E0));
#144=DIRECTION('',(1.E0,0.E0,-3.807197612726E-14));
#145=AXIS2_PLACEMENT_3D('',#142,#143,#144);
#147=CARTESIAN_POINT('',(0.E0,4.47E1,0.E0));
#148=DIRECTION('',(0.E0,-1.E0,0.E0));
#149=DIRECTION('',(1.E0,0.E0,0.E0));
#150=AXIS2_PLACEMENT_3D('',#147,#148,#149);
#152=CARTESIAN_POINT('',(0.E0,2.718033988750E0,0.E0));
#153=DIRECTION('',(0.E0,1.E0,0.E0));
#154=DIRECTION('',(0.E0,0.E0,1.E0));
#155=AXIS2_PLACEMENT_3D('',#152,#153,#154);
#157=CARTESIAN_POINT('',(0.E0,2.718033988750E0,0.E0));
#158=DIRECTION('',(0.E0,1.E0,0.E0));
#159=DIRECTION('',(-1.E0,0.E0,0.E0));
#160=AXIS2_PLACEMENT_3D('',#157,#158,#159);
#162=DIRECTION('',(0.E0,1.E0,9.551019503923E-14));
#163=VECTOR('',#162,4.198196601125E1);
#164=CARTESIAN_POINT('',(-9.E0,2.718033988750E0,-4.026285697843E-12));
#165=LINE('',#164,#163);
#166=CARTESIAN_POINT('',(-8.E0,2.718033988750E0,-9.653966515089E-11));
#167=DIRECTION('',(-1.206745814386E-11,0.E0,1.E0));
#168=DIRECTION('',(-1.E0,-1.971756091734E-13,-1.206745814386E-11));
#169=AXIS2_PLACEMENT_3D('',#166,#167,#168);
#171=CARTESIAN_POINT('',(0.E0,4.5E1,0.E0));
#172=DIRECTION('',(0.E0,-1.E0,0.E0));
#173=DIRECTION('',(-1.E0,0.E0,0.E0));
#174=AXIS2_PLACEMENT_3D('',#171,#172,#173);
#176=CARTESIAN_POINT('',(0.E0,4.5E1,0.E0));
#177=DIRECTION('',(0.E0,-1.E0,0.E0));
#178=DIRECTION('',(1.E0,0.E0,0.E0));
#179=AXIS2_PLACEMENT_3D('',#176,#177,#178);
#181=CARTESIAN_POINT('',(0.E0,4.5E1,0.E0));
#182=DIRECTION('',(0.E0,1.E0,0.E0));
#183=DIRECTION('',(8.594784360631E-1,0.E0,-5.111720042633E-1));
#184=AXIS2_PLACEMENT_3D('',#181,#182,#183);
#186=DIRECTION('',(-5.020100188968E-1,0.E0,8.648618045256E-1));
#187=VECTOR('',#186,8.135376535422E-2);
#188=CARTESIAN_POINT('',(-5.817290976356E0,4.5E1,-3.423685980987E0));
#189=LINE('',#188,#187);
#190=DIRECTION('',(-5.039980074170E-1,0.E0,-8.637048156168E-1));
#191=VECTOR('',#190,1.124050837092E-1);
#192=CARTESIAN_POINT('',(5.858131381639E0,4.5E1,-3.353326216678E0));
#193=LINE('',#192,#191);
#194=CARTESIAN_POINT('',(0.E0,4.5E1,0.E0));
#195=DIRECTION('',(0.E0,-1.E0,0.E0));
#196=DIRECTION('',(8.678713157984E-1,0.E0,-4.967890691374E-1));
#197=AXIS2_PLACEMENT_3D('',#194,#195,#196);
#199=DIRECTION('',(1.421085471520E-13,1.E0,-3.197442310920E-13));
#200=VECTOR('',#199,1.E-1);
#201=CARTESIAN_POINT('',(-5.858131381639E0,4.49E1,-3.353326216678E0));
#202=LINE('',#201,#200);
#203=CARTESIAN_POINT('',(0.E0,4.49E1,0.E0));
#204=DIRECTION('',(0.E0,1.E0,0.E0));
#205=DIRECTION('',(-8.678713157983E-1,0.E0,-4.967890691375E-1));
#206=AXIS2_PLACEMENT_3D('',#203,#204,#205);
#208=DIRECTION('',(4.884981308350E-13,1.E0,8.304468224195E-13));
#209=VECTOR('',#208,1.E-1);
#210=CARTESIAN_POINT('',(5.858131381639E0,4.49E1,-3.353326216678E0));
#211=LINE('',#210,#209);
#212=DIRECTION('',(0.E0,1.E0,1.332267629550E-14));
#213=VECTOR('',#212,1.E-1);
#214=CARTESIAN_POINT('',(5.801479443426E0,4.49E1,-3.450411028777E0));
#215=LINE('',#214,#213);
#216=DIRECTION('',(2.664535259100E-14,1.E0,-4.884981308350E-14));
#217=VECTOR('',#216,1.E-1);
#218=CARTESIAN_POINT('',(-5.817290976356E0,4.49E1,-3.423685980987E0));
#219=LINE('',#218,#217);
#220=DIRECTION('',(-1.776356839401E-12,1.E0,3.019806626981E-12));
#221=VECTOR('',#220,9.999999999998E-3);
#222=CARTESIAN_POINT('',(-5.858131381639E0,4.5E1,-3.353326216678E0));
#223=LINE('',#222,#221);
#224=DIRECTION('',(0.E0,0.E0,-1.E0));
#225=VECTOR('',#224,6.74E0);
#226=CARTESIAN_POINT('',(5.E-2,4.49E1,6.74E0));
#227=LINE('',#226,#225);
#228=DIRECTION('',(8.660254037844E-1,0.E0,-5.E-1));
#229=VECTOR('',#228,6.706652433356E0);
#230=CARTESIAN_POINT('',(5.E-2,4.49E1,0.E0));
#231=LINE('',#230,#229);
#232=DIRECTION('',(8.660254037844E-1,0.E0,5.E-1));
#233=VECTOR('',#232,6.706652433356E0);
#234=CARTESIAN_POINT('',(-5.858131381639E0,4.49E1,-3.353326216678E0));
#235=LINE('',#234,#233);
#236=DIRECTION('',(0.E0,0.E0,1.E0));
#237=VECTOR('',#236,6.74E0);
#238=CARTESIAN_POINT('',(-5.E-2,4.49E1,0.E0));
#239=LINE('',#238,#237);
#240=DIRECTION('',(1.E0,0.E0,0.E0));
#241=VECTOR('',#240,1.E-1);
#242=CARTESIAN_POINT('',(-5.E-2,4.49E1,6.74E0));
#243=LINE('',#242,#241);
#244=DIRECTION('',(-8.637048156168E-1,0.E0,5.039980074171E-1));
#245=VECTOR('',#244,6.716970125126E0);
#246=CARTESIAN_POINT('',(5.801479443426E0,4.49E1,-3.450411028777E0));
#247=LINE('',#246,#245);
#248=DIRECTION('',(-8.660254037844E-1,0.E0,-5.E-1));
#249=VECTOR('',#248,6.717229022307E0);
#250=CARTESIAN_POINT('',(0.E0,4.49E1,-6.507146983359E-2));
#251=LINE('',#250,#249);
#252=CARTESIAN_POINT('',(0.E0,4.49E1,0.E0));
#253=DIRECTION('',(0.E0,1.E0,0.E0));
#254=DIRECTION('',(8.594784360631E-1,0.E0,-5.111720042633E-1));
#255=AXIS2_PLACEMENT_3D('',#252,#253,#254);
#257=DIRECTION('',(0.E0,1.E0,0.E0));
#258=VECTOR('',#257,1.1E-1);
#259=CARTESIAN_POINT('',(5.E-2,4.49E1,6.74E0));
#260=LINE('',#259,#258);
#261=DIRECTION('',(0.E0,1.E0,0.E0));
#262=VECTOR('',#261,1.1E-1);
#263=CARTESIAN_POINT('',(-5.E-2,4.49E1,6.74E0));
#264=LINE('',#263,#262);
#265=DIRECTION('',(0.E0,1.E0,0.E0));
#266=VECTOR('',#265,1.1E-1);
#267=CARTESIAN_POINT('',(-5.E-2,4.49E1,0.E0));
#268=LINE('',#267,#266);
#269=DIRECTION('',(0.E0,0.E0,-1.E0));
#270=VECTOR('',#269,6.74E0);
#271=CARTESIAN_POINT('',(5.E-2,4.501E1,6.74E0));
#272=LINE('',#271,#270);
#273=DIRECTION('',(1.E0,0.E0,0.E0));
#274=VECTOR('',#273,1.E-1);
#275=CARTESIAN_POINT('',(-5.E-2,4.501E1,6.74E0));
#276=LINE('',#275,#274);
#277=DIRECTION('',(0.E0,0.E0,1.E0));
#278=VECTOR('',#277,6.74E0);
#279=CARTESIAN_POINT('',(-5.E-2,4.501E1,0.E0));
#280=LINE('',#279,#278);
#281=DIRECTION('',(8.660254037844E-1,0.E0,5.E-1));
#282=VECTOR('',#281,6.706652433356E0);
#283=CARTESIAN_POINT('',(-5.858131381639E0,4.501E1,-3.353326216678E0));
#284=LINE('',#283,#282);
#285=DIRECTION('',(-5.020100188968E-1,0.E0,8.648618045256E-1));
#286=VECTOR('',#285,8.135376535425E-2);
#287=CARTESIAN_POINT('',(-5.817290976356E0,4.501E1,-3.423685980987E0));
#288=LINE('',#287,#286);
#289=DIRECTION('',(-8.660254037844E-1,0.E0,-5.E-1));
#290=VECTOR('',#289,6.717229022307E0);
#291=CARTESIAN_POINT('',(0.E0,4.501E1,-6.507146983359E-2));
#292=LINE('',#291,#290);
#293=DIRECTION('',(-8.637048156168E-1,0.E0,5.039980074171E-1));
#294=VECTOR('',#293,6.716970125126E0);
#295=CARTESIAN_POINT('',(5.801479443426E0,4.501E1,-3.450411028777E0));
#296=LINE('',#295,#294);
#297=DIRECTION('',(-5.039980074170E-1,0.E0,-8.637048156168E-1));
#298=VECTOR('',#297,1.124050837091E-1);
#299=CARTESIAN_POINT('',(5.858131381639E0,4.501E1,-3.353326216678E0));
#300=LINE('',#299,#298);
#301=DIRECTION('',(8.660254037844E-1,0.E0,-5.E-1));
#302=VECTOR('',#301,6.706652433356E0);
#303=CARTESIAN_POINT('',(5.E-2,4.501E1,0.E0));
#304=LINE('',#303,#302);
#305=DIRECTION('',(-3.552713678801E-13,1.E0,6.217248937902E-13));
#306=VECTOR('',#305,9.999999999998E-3);
#307=CARTESIAN_POINT('',(-5.817290976356E0,4.5E1,-3.423685980987E0));
#308=LINE('',#307,#306);
#309=DIRECTION('',(0.E0,1.E0,0.E0));
#310=VECTOR('',#309,1.1E-1);
#311=CARTESIAN_POINT('',(0.E0,4.49E1,-6.507146983359E-2));
#312=LINE('',#311,#310);
#313=DIRECTION('',(-8.881784197003E-14,1.E0,-1.332267629550E-13));
#314=VECTOR('',#313,9.999999999998E-3);
#315=CARTESIAN_POINT('',(5.801479443426E0,4.5E1,-3.450411028777E0));
#316=LINE('',#315,#314);
#317=DIRECTION('',(-4.973799150322E-12,1.E0,-8.437694987153E-12));
#318=VECTOR('',#317,9.999999999998E-3);
#319=CARTESIAN_POINT('',(5.858131381639E0,4.5E1,-3.353326216678E0));
#320=LINE('',#319,#318);
#321=DIRECTION('',(0.E0,1.E0,0.E0));
#322=VECTOR('',#321,1.1E-1);
#323=CARTESIAN_POINT('',(5.E-2,4.49E1,0.E0));
#324=LINE('',#323,#322);
#325=DIRECTION('',(0.E0,1.E0,0.E0));
#326=VECTOR('',#325,1.E-1);
#327=CARTESIAN_POINT('',(0.E0,0.E0,6.25E0));
#328=LINE('',#327,#326);
#329=DIRECTION('',(0.E0,1.E0,0.E0));
#330=VECTOR('',#329,1.E-1);
#331=CARTESIAN_POINT('',(0.E0,0.E0,-6.25E0));
#332=LINE('',#331,#330);
#333=CARTESIAN_POINT('',(0.E0,1.E-1,0.E0));
#334=DIRECTION('',(0.E0,-1.E0,0.E0));
#335=DIRECTION('',(0.E0,0.E0,1.E0));
#336=AXIS2_PLACEMENT_3D('',#333,#334,#335);
#338=CARTESIAN_POINT('',(0.E0,1.E-1,0.E0));
#339=DIRECTION('',(0.E0,-1.E0,0.E0));
#340=DIRECTION('',(0.E0,0.E0,-1.E0));
#341=AXIS2_PLACEMENT_3D('',#338,#339,#340);
#343=CARTESIAN_POINT('',(0.E0,1.E-1,3.75E0));
#344=DIRECTION('',(0.E0,-1.E0,0.E0));
#345=DIRECTION('',(0.E0,0.E0,-1.E0));
#346=AXIS2_PLACEMENT_3D('',#343,#344,#345);
#348=CARTESIAN_POINT('',(0.E0,1.E-1,3.75E0));
#349=DIRECTION('',(0.E0,-1.E0,0.E0));
#350=DIRECTION('',(0.E0,0.E0,1.E0));
#351=AXIS2_PLACEMENT_3D('',#348,#349,#350);
#353=CARTESIAN_POINT('',(0.E0,1.E-1,-3.75E0));
#354=DIRECTION('',(0.E0,-1.E0,0.E0));
#355=DIRECTION('',(-1.E0,0.E0,0.E0));
#356=AXIS2_PLACEMENT_3D('',#353,#354,#355);
#358=CARTESIAN_POINT('',(0.E0,1.E-1,-3.75E0));
#359=DIRECTION('',(0.E0,-1.E0,0.E0));
#360=DIRECTION('',(1.E0,0.E0,0.E0));
#361=AXIS2_PLACEMENT_3D('',#358,#359,#360);
#363=DIRECTION('',(0.E0,-1.E0,0.E0));
#364=VECTOR('',#363,2.E1);
#365=CARTESIAN_POINT('',(0.E0,1.E-1,3.35E0));
#366=LINE('',#365,#364);
#367=DIRECTION('',(0.E0,-1.E0,0.E0));
#368=VECTOR('',#367,2.E1);
#369=CARTESIAN_POINT('',(0.E0,1.E-1,4.15E0));
#370=LINE('',#369,#368);
#371=CARTESIAN_POINT('',(0.E0,-1.99E1,3.75E0));
#372=DIRECTION('',(0.E0,-1.E0,0.E0));
#373=DIRECTION('',(0.E0,0.E0,-1.E0));
#374=AXIS2_PLACEMENT_3D('',#371,#372,#373);
#376=CARTESIAN_POINT('',(0.E0,-1.99E1,3.75E0));
#377=DIRECTION('',(0.E0,-1.E0,0.E0));
#378=DIRECTION('',(0.E0,0.E0,1.E0));
#379=AXIS2_PLACEMENT_3D('',#376,#377,#378);
#381=DIRECTION('',(0.E0,-1.E0,0.E0));
#382=VECTOR('',#381,2.5E1);
#383=CARTESIAN_POINT('',(-4.E-1,1.E-1,-3.75E0));
#384=LINE('',#383,#382);
#385=DIRECTION('',(0.E0,-1.E0,0.E0));
#386=VECTOR('',#385,2.5E1);
#387=CARTESIAN_POINT('',(4.E-1,1.E-1,-3.75E0));
#388=LINE('',#387,#386);
#389=CARTESIAN_POINT('',(0.E0,-2.49E1,-3.75E0));
#390=DIRECTION('',(0.E0,-1.E0,0.E0));
#391=DIRECTION('',(-1.E0,0.E0,0.E0));
#392=AXIS2_PLACEMENT_3D('',#389,#390,#391);
#394=CARTESIAN_POINT('',(0.E0,-2.49E1,-3.75E0));
#395=DIRECTION('',(0.E0,-1.E0,0.E0));
#396=DIRECTION('',(1.E0,0.E0,0.E0));
#397=AXIS2_PLACEMENT_3D('',#394,#395,#396);
#399=CARTESIAN_POINT('',(-9.E0,4.47E1,0.E0));
#400=CARTESIAN_POINT('',(9.E0,4.47E1,0.E0));
#401=VERTEX_POINT('',#399);
#402=VERTEX_POINT('',#400);
#403=CARTESIAN_POINT('',(-8.7E0,4.5E1,0.E0));
#404=CARTESIAN_POINT('',(8.7E0,4.5E1,0.E0));
#405=VERTEX_POINT('',#403);
#406=VERTEX_POINT('',#404);
#407=CARTESIAN_POINT('',(9.E0,2.718033988750E0,3.639942051423E-12));
#408=VERTEX_POINT('',#407);
#409=CARTESIAN_POINT('',(-9.E0,2.718033988750E0,-4.026285697843E-12));
#410=VERTEX_POINT('',#409);
#411=CARTESIAN_POINT('',(0.E0,1.972677996250E0,8.666666666667E0));
#412=CARTESIAN_POINT('',(0.E0,1.227322003750E0,8.666666666667E0));
#413=VERTEX_POINT('',#411);
#414=VERTEX_POINT('',#412);
#415=CARTESIAN_POINT('',(0.E0,1.227322003750E0,-8.666666666667E0));
#416=CARTESIAN_POINT('',(0.E0,1.972677996250E0,-8.666666666667E0));
#417=VERTEX_POINT('',#415);
#418=VERTEX_POINT('',#416);
#419=CARTESIAN_POINT('',(0.E0,1.E-1,6.25E0));
#420=CARTESIAN_POINT('',(0.E0,1.E-1,-6.25E0));
#421=VERTEX_POINT('',#419);
#422=VERTEX_POINT('',#420);
#423=CARTESIAN_POINT('',(0.E0,0.E0,6.25E0));
#424=CARTESIAN_POINT('',(0.E0,0.E0,-6.25E0));
#425=VERTEX_POINT('',#423);
#426=VERTEX_POINT('',#424);
#427=CARTESIAN_POINT('',(0.E0,-1.99E1,3.35E0));
#428=CARTESIAN_POINT('',(0.E0,-1.99E1,4.15E0));
#429=VERTEX_POINT('',#427);
#430=VERTEX_POINT('',#428);
#431=CARTESIAN_POINT('',(0.E0,1.E-1,3.35E0));
#432=CARTESIAN_POINT('',(0.E0,1.E-1,4.15E0));
#433=VERTEX_POINT('',#431);
#434=VERTEX_POINT('',#432);
#435=CARTESIAN_POINT('',(-4.E-1,-2.49E1,-3.75E0));
#436=CARTESIAN_POINT('',(4.E-1,-2.49E1,-3.75E0));
#437=VERTEX_POINT('',#435);
#438=VERTEX_POINT('',#436);
#439=CARTESIAN_POINT('',(-4.E-1,1.E-1,-3.75E0));
#440=CARTESIAN_POINT('',(4.E-1,1.E-1,-3.75E0));
#441=VERTEX_POINT('',#439);
#442=VERTEX_POINT('',#440);
#443=CARTESIAN_POINT('',(-8.666666666667E0,1.972677996250E0,0.E0));
#444=VERTEX_POINT('',#443);
#445=CARTESIAN_POINT('',(0.E0,2.718033988750E0,9.E0));
#446=VERTEX_POINT('',#445);
#447=CARTESIAN_POINT('',(-8.666666666667E0,1.227322003750E0,0.E0));
#448=VERTEX_POINT('',#447);
#449=CARTESIAN_POINT('',(4.610795079074E-11,5.180339887499E-1,
8.999349338820E0));
#450=CARTESIAN_POINT('',(-8.999349338820E0,5.180339887499E-1,
-8.062452265568E-12));
#451=VERTEX_POINT('',#449);
#452=VERTEX_POINT('',#450);
#453=CARTESIAN_POINT('',(1.897652984366E-10,0.E0,8.499674669410E0));
#454=CARTESIAN_POINT('',(-8.499674669410E0,0.E0,8.734336600756E-11));
#455=VERTEX_POINT('',#453);
#456=VERTEX_POINT('',#454);
#457=CARTESIAN_POINT('',(5.E-2,4.501E1,6.74E0));
#458=CARTESIAN_POINT('',(5.E-2,4.501E1,0.E0));
#459=VERTEX_POINT('',#457);
#460=VERTEX_POINT('',#458);
#461=CARTESIAN_POINT('',(5.858131381639E0,4.501E1,-3.353326216678E0));
#462=VERTEX_POINT('',#461);
#463=CARTESIAN_POINT('',(5.801479443426E0,4.501E1,-3.450411028777E0));
#464=VERTEX_POINT('',#463);
#465=CARTESIAN_POINT('',(0.E0,4.501E1,-6.507146983359E-2));
#466=VERTEX_POINT('',#465);
#467=CARTESIAN_POINT('',(-5.817290976356E0,4.501E1,-3.423685980987E0));
#468=VERTEX_POINT('',#467);
#469=CARTESIAN_POINT('',(-5.858131381639E0,4.501E1,-3.353326216678E0));
#470=VERTEX_POINT('',#469);
#471=CARTESIAN_POINT('',(-5.E-2,4.501E1,0.E0));
#472=VERTEX_POINT('',#471);
#473=CARTESIAN_POINT('',(-5.E-2,4.501E1,6.74E0));
#474=VERTEX_POINT('',#473);
#475=CARTESIAN_POINT('',(5.858131381639E0,4.5E1,-3.353326216678E0));
#476=CARTESIAN_POINT('',(5.801479443426E0,4.5E1,-3.450411028777E0));
#477=VERTEX_POINT('',#475);
#478=VERTEX_POINT('',#476);
#479=CARTESIAN_POINT('',(-5.817290976356E0,4.5E1,-3.423685980987E0));
#480=CARTESIAN_POINT('',(-5.858131381639E0,4.5E1,-3.353326216678E0));
#481=VERTEX_POINT('',#479);
#482=VERTEX_POINT('',#480);
#483=CARTESIAN_POINT('',(5.E-2,4.49E1,6.74E0));
#484=CARTESIAN_POINT('',(5.E-2,4.49E1,0.E0));
#485=VERTEX_POINT('',#483);
#486=VERTEX_POINT('',#484);
#487=CARTESIAN_POINT('',(5.858131381639E0,4.49E1,-3.353326216678E0));
#488=VERTEX_POINT('',#487);
#489=CARTESIAN_POINT('',(5.801479443426E0,4.49E1,-3.450411028777E0));
#490=CARTESIAN_POINT('',(0.E0,4.49E1,-6.507146983359E-2));
#491=VERTEX_POINT('',#489);
#492=VERTEX_POINT('',#490);
#493=CARTESIAN_POINT('',(-5.817290976356E0,4.49E1,-3.423685980987E0));
#494=VERTEX_POINT('',#493);
#495=CARTESIAN_POINT('',(-5.858131381639E0,4.49E1,-3.353326216678E0));
#496=CARTESIAN_POINT('',(-5.E-2,4.49E1,0.E0));
#497=VERTEX_POINT('',#495);
#498=VERTEX_POINT('',#496);
#499=CARTESIAN_POINT('',(-5.E-2,4.49E1,6.74E0));
#500=VERTEX_POINT('',#499);
#501=CARTESIAN_POINT('',(0.E0,0.E0,0.E0));
#502=DIRECTION('',(0.E0,1.E0,0.E0));
#503=DIRECTION('',(1.E0,0.E0,0.E0));
#504=AXIS2_PLACEMENT_3D('',#501,#502,#503);
#505=PLANE('',#504);
#507=ORIENTED_EDGE('',*,*,#506,.T.);
#509=ORIENTED_EDGE('',*,*,#508,.T.);
#510=EDGE_LOOP('',(#507,#509));
#511=FACE_OUTER_BOUND('',#510,.F.);
#513=ORIENTED_EDGE('',*,*,#512,.T.);
#515=ORIENTED_EDGE('',*,*,#514,.T.);
#516=EDGE_LOOP('',(#513,#515));
#517=FACE_BOUND('',#516,.F.);
#519=FILL_AREA_STYLE_COLOUR('',#10);
#520=FILL_AREA_STYLE('',(#519));
#521=SURFACE_STYLE_FILL_AREA(#520);
#522=SURFACE_SIDE_STYLE('',(#521));
#523=SURFACE_STYLE_USAGE(.POSITIVE.,#522);
#524=PRESENTATION_STYLE_ASSIGNMENT((#523));
#525=STYLED_ITEM('',(#524),#518);
#526=CARTESIAN_POINT('',(0.E0,5.E-1,0.E0));
#527=DIRECTION('',(0.E0,1.E0,0.E0));
#528=DIRECTION('',(-9.349321459697E-3,0.E0,9.999562941390E-1));
#529=AXIS2_PLACEMENT_3D('',#526,#527,#528);
#530=TOROIDAL_SURFACE('',#529,8.499674669410E0,5.E-1);
#532=ORIENTED_EDGE('',*,*,#531,.T.);
#534=ORIENTED_EDGE('',*,*,#533,.T.);
#535=ORIENTED_EDGE('',*,*,#506,.F.);
#537=ORIENTED_EDGE('',*,*,#536,.F.);
#538=EDGE_LOOP('',(#532,#534,#535,#537));
#539=FACE_OUTER_BOUND('',#538,.F.);
#541=FILL_AREA_STYLE_COLOUR('',#10);
#542=FILL_AREA_STYLE('',(#541));
#543=SURFACE_STYLE_FILL_AREA(#542);
#544=SURFACE_SIDE_STYLE('',(#543));
#545=SURFACE_STYLE_USAGE(.POSITIVE.,#544);
#546=PRESENTATION_STYLE_ASSIGNMENT((#545));
#547=STYLED_ITEM('',(#546),#540);
#548=CARTESIAN_POINT('',(0.E0,4.819660112501E-1,0.E0));
#549=DIRECTION('',(0.E0,1.E0,0.E0));
#550=DIRECTION('',(-1.328539955434E-2,0.E0,-9.999117451849E-1));
#551=AXIS2_PLACEMENT_3D('',#548,#549,#550);
#552=TOROIDAL_SURFACE('',#551,8.E0,1.E0);
#553=ORIENTED_EDGE('',*,*,#531,.F.);
#555=ORIENTED_EDGE('',*,*,#554,.T.);
#557=ORIENTED_EDGE('',*,*,#556,.T.);
#559=ORIENTED_EDGE('',*,*,#558,.F.);
#561=ORIENTED_EDGE('',*,*,#560,.F.);
#562=EDGE_LOOP('',(#553,#555,#557,#559,#561));
#563=FACE_OUTER_BOUND('',#562,.F.);
#565=FILL_AREA_STYLE_COLOUR('',#10);
#566=FILL_AREA_STYLE('',(#565));
#567=SURFACE_STYLE_FILL_AREA(#566);
#568=SURFACE_SIDE_STYLE('',(#567));
#569=SURFACE_STYLE_USAGE(.POSITIVE.,#568);
#570=PRESENTATION_STYLE_ASSIGNMENT((#569));
#571=STYLED_ITEM('',(#570),#564);
#572=CARTESIAN_POINT('',(0.E0,4.819660112501E-1,0.E0));
#573=DIRECTION('',(0.E0,1.E0,0.E0));
#574=DIRECTION('',(1.328539955434E-2,0.E0,9.999117451849E-1));
#575=AXIS2_PLACEMENT_3D('',#572,#573,#574);
#576=TOROIDAL_SURFACE('',#575,8.E0,1.E0);
#578=ORIENTED_EDGE('',*,*,#577,.F.);
#579=ORIENTED_EDGE('',*,*,#560,.T.);
#581=ORIENTED_EDGE('',*,*,#580,.F.);
#582=ORIENTED_EDGE('',*,*,#554,.F.);
#583=EDGE_LOOP('',(#578,#579,#581,#582));
#584=FACE_OUTER_BOUND('',#583,.F.);
#586=FILL_AREA_STYLE_COLOUR('',#10);
#587=FILL_AREA_STYLE('',(#586));
#588=SURFACE_STYLE_FILL_AREA(#587);
#589=SURFACE_SIDE_STYLE('',(#588));
#590=SURFACE_STYLE_USAGE(.POSITIVE.,#589);
#591=PRESENTATION_STYLE_ASSIGNMENT((#590));
#592=STYLED_ITEM('',(#591),#585);
#593=CARTESIAN_POINT('',(0.E0,5.E-1,0.E0));
#594=DIRECTION('',(0.E0,1.E0,0.E0));
#595=DIRECTION('',(-9.999562941390E-1,0.E0,-9.349321459687E-3));
#596=AXIS2_PLACEMENT_3D('',#593,#594,#595);
#597=TOROIDAL_SURFACE('',#596,8.499674669410E0,5.E-1);
#598=ORIENTED_EDGE('',*,*,#577,.T.);
#599=ORIENTED_EDGE('',*,*,#536,.T.);
#600=ORIENTED_EDGE('',*,*,#508,.F.);
#601=ORIENTED_EDGE('',*,*,#533,.F.);
#602=EDGE_LOOP('',(#598,#599,#600,#601));
#603=FACE_OUTER_BOUND('',#602,.F.);
#605=FILL_AREA_STYLE_COLOUR('',#10);
#606=FILL_AREA_STYLE('',(#605));
#607=SURFACE_STYLE_FILL_AREA(#606);
#608=SURFACE_SIDE_STYLE('',(#607));
#609=SURFACE_STYLE_USAGE(.POSITIVE.,#608);
#610=PRESENTATION_STYLE_ASSIGNMENT((#609));
#611=STYLED_ITEM('',(#610),#604);
#612=CARTESIAN_POINT('',(0.E0,1.6E0,0.E0));
#613=DIRECTION('',(0.E0,1.E0,0.E0));
#614=DIRECTION('',(0.E0,0.E0,-1.E0));
#615=AXIS2_PLACEMENT_3D('',#612,#613,#614);
#616=TOROIDAL_SURFACE('',#615,9.E0,5.E-1);
#618=ORIENTED_EDGE('',*,*,#617,.T.);
#619=ORIENTED_EDGE('',*,*,#580,.T.);
#620=ORIENTED_EDGE('',*,*,#558,.T.);
#622=ORIENTED_EDGE('',*,*,#621,.T.);
#624=ORIENTED_EDGE('',*,*,#623,.T.);
#626=ORIENTED_EDGE('',*,*,#625,.T.);
#627=EDGE_LOOP('',(#618,#619,#620,#622,#624,#626));
#628=FACE_OUTER_BOUND('',#627,.F.);
#630=FILL_AREA_STYLE_COLOUR('',#10);
#631=FILL_AREA_STYLE('',(#630));
#632=SURFACE_STYLE_FILL_AREA(#631);
#633=SURFACE_SIDE_STYLE('',(#632));
#634=SURFACE_STYLE_USAGE(.POSITIVE.,#633);
#635=PRESENTATION_STYLE_ASSIGNMENT((#634));
#636=STYLED_ITEM('',(#635),#629);
#637=CARTESIAN_POINT('',(0.E0,1.6E0,0.E0));
#638=DIRECTION('',(0.E0,1.E0,0.E0));
#639=DIRECTION('',(0.E0,0.E0,-1.E0));
#640=AXIS2_PLACEMENT_3D('',#637,#638,#639);
#641=TOROIDAL_SURFACE('',#640,9.E0,5.E-1);
#642=ORIENTED_EDGE('',*,*,#617,.F.);
#644=ORIENTED_EDGE('',*,*,#643,.F.);
#645=ORIENTED_EDGE('',*,*,#621,.F.);
#646=ORIENTED_EDGE('',*,*,#556,.F.);
#647=EDGE_LOOP('',(#642,#644,#645,#646));
#648=FACE_OUTER_BOUND('',#647,.F.);
#650=FILL_AREA_STYLE_COLOUR('',#10);
#651=FILL_AREA_STYLE('',(#650));
#652=SURFACE_STYLE_FILL_AREA(#651);
#653=SURFACE_SIDE_STYLE('',(#652));
#654=SURFACE_STYLE_USAGE(.POSITIVE.,#653);
#655=PRESENTATION_STYLE_ASSIGNMENT((#654));
#656=STYLED_ITEM('',(#655),#649);
#657=CARTESIAN_POINT('',(0.E0,2.718033988750E0,0.E0));
#658=DIRECTION('',(0.E0,1.E0,0.E0));
#659=DIRECTION('',(9.999571362705E-1,0.E0,9.258813192205E-3));
#660=AXIS2_PLACEMENT_3D('',#657,#658,#659);
#661=TOROIDAL_SURFACE('',#660,8.E0,1.E0);
#663=ORIENTED_EDGE('',*,*,#662,.T.);
#665=ORIENTED_EDGE('',*,*,#664,.T.);
#666=ORIENTED_EDGE('',*,*,#623,.F.);
#667=ORIENTED_EDGE('',*,*,#643,.T.);
#669=ORIENTED_EDGE('',*,*,#668,.F.);
#671=ORIENTED_EDGE('',*,*,#670,.T.);
#672=EDGE_LOOP('',(#663,#665,#666,#667,#669,#671));
#673=FACE_OUTER_BOUND('',#672,.F.);
#675=FILL_AREA_STYLE_COLOUR('',#10);
#676=FILL_AREA_STYLE('',(#675));
#677=SURFACE_STYLE_FILL_AREA(#676);
#678=SURFACE_SIDE_STYLE('',(#677));
#679=SURFACE_STYLE_USAGE(.POSITIVE.,#678);
#680=PRESENTATION_STYLE_ASSIGNMENT((#679));
#681=STYLED_ITEM('',(#680),#674);
#682=CARTESIAN_POINT('',(0.E0,0.E0,0.E0));
#683=DIRECTION('',(0.E0,1.E0,0.E0));
#684=DIRECTION('',(1.E0,0.E0,0.E0));
#685=AXIS2_PLACEMENT_3D('',#682,#683,#684);
#686=CYLINDRICAL_SURFACE('',#685,9.E0);
#688=ORIENTED_EDGE('',*,*,#687,.F.);
#690=ORIENTED_EDGE('',*,*,#689,.F.);
#691=ORIENTED_EDGE('',*,*,#662,.F.);
#693=ORIENTED_EDGE('',*,*,#692,.T.);
#694=EDGE_LOOP('',(#688,#690,#691,#693));
#695=FACE_OUTER_BOUND('',#694,.F.);
#697=FILL_AREA_STYLE_COLOUR('',#10);
#698=FILL_AREA_STYLE('',(#697));
#699=SURFACE_STYLE_FILL_AREA(#698);
#700=SURFACE_SIDE_STYLE('',(#699));
#701=SURFACE_STYLE_USAGE(.POSITIVE.,#700);
#702=PRESENTATION_STYLE_ASSIGNMENT((#701));
#703=STYLED_ITEM('',(#702),#696);
#704=CARTESIAN_POINT('',(0.E0,4.47E1,0.E0));
#705=DIRECTION('',(0.E0,1.E0,0.E0));
#706=DIRECTION('',(-9.999639337493E-1,0.E0,8.493008920993E-3));
#707=AXIS2_PLACEMENT_3D('',#704,#705,#706);
#708=TOROIDAL_SURFACE('',#707,8.7E0,3.E-1);
#709=ORIENTED_EDGE('',*,*,#687,.T.);
#711=ORIENTED_EDGE('',*,*,#710,.T.);
#713=ORIENTED_EDGE('',*,*,#712,.F.);
#715=ORIENTED_EDGE('',*,*,#714,.F.);
#716=EDGE_LOOP('',(#709,#711,#713,#715));
#717=FACE_OUTER_BOUND('',#716,.F.);
#719=FILL_AREA_STYLE_COLOUR('',#10);
#720=FILL_AREA_STYLE('',(#719));
#721=SURFACE_STYLE_FILL_AREA(#720);
#722=SURFACE_SIDE_STYLE('',(#721));
#723=SURFACE_STYLE_USAGE(.POSITIVE.,#722);
#724=PRESENTATION_STYLE_ASSIGNMENT((#723));
#725=STYLED_ITEM('',(#724),#718);
#726=CARTESIAN_POINT('',(0.E0,4.47E1,0.E0));
#727=DIRECTION('',(0.E0,1.E0,0.E0));
#728=DIRECTION('',(9.999639337493E-1,0.E0,-8.493008920993E-3));
#729=AXIS2_PLACEMENT_3D('',#726,#727,#728);
#730=TOROIDAL_SURFACE('',#729,8.7E0,3.E-1);
#732=ORIENTED_EDGE('',*,*,#731,.T.);
#733=ORIENTED_EDGE('',*,*,#714,.T.);
#735=ORIENTED_EDGE('',*,*,#734,.F.);
#736=ORIENTED_EDGE('',*,*,#710,.F.);
#737=EDGE_LOOP('',(#732,#733,#735,#736));
#738=FACE_OUTER_BOUND('',#737,.F.);
#740=FILL_AREA_STYLE_COLOUR('',#10);
#741=FILL_AREA_STYLE('',(#740));
#742=SURFACE_STYLE_FILL_AREA(#741);
#743=SURFACE_SIDE_STYLE('',(#742));
#744=SURFACE_STYLE_USAGE(.POSITIVE.,#743);
#745=PRESENTATION_STYLE_ASSIGNMENT((#744));
#746=STYLED_ITEM('',(#745),#739);
#747=CARTESIAN_POINT('',(0.E0,0.E0,0.E0));
#748=DIRECTION('',(0.E0,1.E0,0.E0));
#749=DIRECTION('',(1.E0,0.E0,0.E0));
#750=AXIS2_PLACEMENT_3D('',#747,#748,#749);
#751=CYLINDRICAL_SURFACE('',#750,9.E0);
#752=ORIENTED_EDGE('',*,*,#731,.F.);
#753=ORIENTED_EDGE('',*,*,#692,.F.);
#754=ORIENTED_EDGE('',*,*,#670,.F.);
#756=ORIENTED_EDGE('',*,*,#755,.F.);
#757=ORIENTED_EDGE('',*,*,#689,.T.);
#758=EDGE_LOOP('',(#752,#753,#754,#756,#757));
#759=FACE_OUTER_BOUND('',#758,.F.);
#761=FILL_AREA_STYLE_COLOUR('',#10);
#762=FILL_AREA_STYLE('',(#761));
#763=SURFACE_STYLE_FILL_AREA(#762);
#764=SURFACE_SIDE_STYLE('',(#763));
#765=SURFACE_STYLE_USAGE(.POSITIVE.,#764);
#766=PRESENTATION_STYLE_ASSIGNMENT((#765));
#767=STYLED_ITEM('',(#766),#760);
#768=CARTESIAN_POINT('',(0.E0,2.718033988750E0,0.E0));
#769=DIRECTION('',(0.E0,1.E0,0.E0));
#770=DIRECTION('',(-9.999571362705E-1,0.E0,-9.258813192205E-3));
#771=AXIS2_PLACEMENT_3D('',#768,#769,#770);
#772=TOROIDAL_SURFACE('',#771,8.E0,1.E0);
#773=ORIENTED_EDGE('',*,*,#755,.T.);
#774=ORIENTED_EDGE('',*,*,#668,.T.);
#775=ORIENTED_EDGE('',*,*,#625,.F.);
#776=ORIENTED_EDGE('',*,*,#664,.F.);
#777=EDGE_LOOP('',(#773,#774,#775,#776));
#778=FACE_OUTER_BOUND('',#777,.F.);
#780=FILL_AREA_STYLE_COLOUR('',#10);
#781=FILL_AREA_STYLE('',(#780));
#782=SURFACE_STYLE_FILL_AREA(#781);
#783=SURFACE_SIDE_STYLE('',(#782));
#784=SURFACE_STYLE_USAGE(.POSITIVE.,#783);
#785=PRESENTATION_STYLE_ASSIGNMENT((#784));
#786=STYLED_ITEM('',(#785),#779);
#787=CARTESIAN_POINT('',(0.E0,4.5E1,0.E0));
#788=DIRECTION('',(0.E0,1.E0,0.E0));
#789=DIRECTION('',(1.E0,0.E0,0.E0));
#790=AXIS2_PLACEMENT_3D('',#787,#788,#789);
#791=PLANE('',#790);
#792=ORIENTED_EDGE('',*,*,#712,.T.);
#793=ORIENTED_EDGE('',*,*,#734,.T.);
#794=EDGE_LOOP('',(#792,#793));
#795=FACE_OUTER_BOUND('',#794,.F.);
#797=ORIENTED_EDGE('',*,*,#796,.T.);
#799=ORIENTED_EDGE('',*,*,#798,.T.);
#801=ORIENTED_EDGE('',*,*,#800,.F.);
#803=ORIENTED_EDGE('',*,*,#802,.T.);
#804=EDGE_LOOP('',(#797,#799,#801,#803));
#805=FACE_BOUND('',#804,.F.);
#807=FILL_AREA_STYLE_COLOUR('',#10);
#808=FILL_AREA_STYLE('',(#807));
#809=SURFACE_STYLE_FILL_AREA(#808);
#810=SURFACE_SIDE_STYLE('',(#809));
#811=SURFACE_STYLE_USAGE(.POSITIVE.,#810);
#812=PRESENTATION_STYLE_ASSIGNMENT((#811));
#813=STYLED_ITEM('',(#812),#806);
#814=CARTESIAN_POINT('',(0.E0,4.5E1,0.E0));
#815=DIRECTION('',(0.E0,1.E0,0.E0));
#816=DIRECTION('',(1.E0,0.E0,0.E0));
#817=AXIS2_PLACEMENT_3D('',#814,#815,#816);
#818=CYLINDRICAL_SURFACE('',#817,6.75E0);
#819=ORIENTED_EDGE('',*,*,#800,.T.);
#821=ORIENTED_EDGE('',*,*,#820,.F.);
#823=ORIENTED_EDGE('',*,*,#822,.T.);
#825=ORIENTED_EDGE('',*,*,#824,.T.);
#826=EDGE_LOOP('',(#819,#821,#823,#825));
#827=FACE_OUTER_BOUND('',#826,.F.);
#829=CARTESIAN_POINT('',(0.E0,4.5E1,0.E0));
#830=DIRECTION('',(0.E0,1.E0,0.E0));
#831=DIRECTION('',(1.E0,0.E0,0.E0));
#832=AXIS2_PLACEMENT_3D('',#829,#830,#831);
#833=CYLINDRICAL_SURFACE('',#832,6.75E0);
#835=ORIENTED_EDGE('',*,*,#834,.F.);
#837=ORIENTED_EDGE('',*,*,#836,.T.);
#839=ORIENTED_EDGE('',*,*,#838,.T.);
#840=ORIENTED_EDGE('',*,*,#796,.F.);
#841=EDGE_LOOP('',(#835,#837,#839,#840));
#842=FACE_OUTER_BOUND('',#841,.F.);
#844=CARTESIAN_POINT('',(-5.858131381639E0,4.49E1,-3.353326216678E0));
#845=DIRECTION('',(-5.E-1,0.E0,8.660254037844E-1));
#846=DIRECTION('',(8.660254037844E-1,0.E0,5.E-1));
#847=AXIS2_PLACEMENT_3D('',#844,#845,#846);
#848=PLANE('',#847);
#850=ORIENTED_EDGE('',*,*,#849,.F.);
#851=ORIENTED_EDGE('',*,*,#820,.T.);
#853=ORIENTED_EDGE('',*,*,#852,.T.);
#855=ORIENTED_EDGE('',*,*,#854,.T.);
#857=ORIENTED_EDGE('',*,*,#856,.F.);
#858=EDGE_LOOP('',(#850,#851,#853,#855,#857));
#859=FACE_OUTER_BOUND('',#858,.F.);
#861=CARTESIAN_POINT('',(0.E0,4.49E1,0.E0));
#862=DIRECTION('',(0.E0,1.E0,0.E0));
#863=DIRECTION('',(1.E0,0.E0,0.E0));
#864=AXIS2_PLACEMENT_3D('',#861,#862,#863);
#865=PLANE('',#864);
#867=ORIENTED_EDGE('',*,*,#866,.T.);
#869=ORIENTED_EDGE('',*,*,#868,.T.);
#870=ORIENTED_EDGE('',*,*,#822,.F.);
#871=ORIENTED_EDGE('',*,*,#849,.T.);
#873=ORIENTED_EDGE('',*,*,#872,.T.);
#875=ORIENTED_EDGE('',*,*,#874,.T.);
#876=EDGE_LOOP('',(#867,#869,#870,#871,#873,#875));
#877=FACE_OUTER_BOUND('',#876,.F.);
#879=FILL_AREA_STYLE_COLOUR('',#16);
#880=FILL_AREA_STYLE('',(#879));
#881=SURFACE_STYLE_FILL_AREA(#880);
#882=SURFACE_SIDE_STYLE('',(#881));
#883=SURFACE_STYLE_USAGE(.POSITIVE.,#882);
#884=PRESENTATION_STYLE_ASSIGNMENT((#883));
#885=STYLED_ITEM('',(#884),#878);
#886=CARTESIAN_POINT('',(0.E0,4.49E1,0.E0));
#887=DIRECTION('',(0.E0,1.E0,0.E0));
#888=DIRECTION('',(1.E0,0.E0,0.E0));
#889=AXIS2_PLACEMENT_3D('',#886,#887,#888);
#890=PLANE('',#889);
#892=ORIENTED_EDGE('',*,*,#891,.T.);
#894=ORIENTED_EDGE('',*,*,#893,.T.);
#895=ORIENTED_EDGE('',*,*,#836,.F.);
#896=EDGE_LOOP('',(#892,#894,#895));
#897=FACE_OUTER_BOUND('',#896,.F.);
#899=FILL_AREA_STYLE_COLOUR('',#16);
#900=FILL_AREA_STYLE('',(#899));
#901=SURFACE_STYLE_FILL_AREA(#900);
#902=SURFACE_SIDE_STYLE('',(#901));
#903=SURFACE_STYLE_USAGE(.POSITIVE.,#902);
#904=PRESENTATION_STYLE_ASSIGNMENT((#903));
#905=STYLED_ITEM('',(#904),#898);
#906=CARTESIAN_POINT('',(5.E-2,4.49E1,6.74E0));
#907=DIRECTION('',(1.E0,0.E0,0.E0));
#908=DIRECTION('',(0.E0,0.E0,-1.E0));
#909=AXIS2_PLACEMENT_3D('',#906,#907,#908);
#910=PLANE('',#909);
#911=ORIENTED_EDGE('',*,*,#866,.F.);
#913=ORIENTED_EDGE('',*,*,#912,.T.);
#915=ORIENTED_EDGE('',*,*,#914,.T.);
#917=ORIENTED_EDGE('',*,*,#916,.F.);
#918=EDGE_LOOP('',(#911,#913,#915,#917));
#919=FACE_OUTER_BOUND('',#918,.F.);
#921=CARTESIAN_POINT('',(-5.E-2,4.49E1,6.74E0));
#922=DIRECTION('',(0.E0,0.E0,1.E0));
#923=DIRECTION('',(1.E0,0.E0,0.E0));
#924=AXIS2_PLACEMENT_3D('',#921,#922,#923);
#925=PLANE('',#924);
#926=ORIENTED_EDGE('',*,*,#874,.F.);
#928=ORIENTED_EDGE('',*,*,#927,.T.);
#930=ORIENTED_EDGE('',*,*,#929,.T.);
#931=ORIENTED_EDGE('',*,*,#912,.F.);
#932=EDGE_LOOP('',(#926,#928,#930,#931));
#933=FACE_OUTER_BOUND('',#932,.F.);
#935=CARTESIAN_POINT('',(-5.E-2,4.49E1,0.E0));
#936=DIRECTION('',(-1.E0,0.E0,0.E0));
#937=DIRECTION('',(0.E0,0.E0,1.E0));
#938=AXIS2_PLACEMENT_3D('',#935,#936,#937);
#939=PLANE('',#938);
#940=ORIENTED_EDGE('',*,*,#872,.F.);
#941=ORIENTED_EDGE('',*,*,#856,.T.);
#943=ORIENTED_EDGE('',*,*,#942,.T.);
#944=ORIENTED_EDGE('',*,*,#927,.F.);
#945=EDGE_LOOP('',(#940,#941,#943,#944));
#946=FACE_OUTER_BOUND('',#945,.F.);
#948=CARTESIAN_POINT('',(0.E0,4.501E1,0.E0));
#949=DIRECTION('',(0.E0,1.E0,0.E0));
#950=DIRECTION('',(-1.E0,0.E0,0.E0));
#951=AXIS2_PLACEMENT_3D('',#948,#949,#950);
#952=PLANE('',#951);
#953=ORIENTED_EDGE('',*,*,#914,.F.);
#954=ORIENTED_EDGE('',*,*,#929,.F.);
#955=ORIENTED_EDGE('',*,*,#942,.F.);
#956=ORIENTED_EDGE('',*,*,#854,.F.);
#958=ORIENTED_EDGE('',*,*,#957,.F.);
#960=ORIENTED_EDGE('',*,*,#959,.F.);
#962=ORIENTED_EDGE('',*,*,#961,.F.);
#964=ORIENTED_EDGE('',*,*,#963,.F.);
#966=ORIENTED_EDGE('',*,*,#965,.F.);
#967=EDGE_LOOP('',(#953,#954,#955,#956,#958,#960,#962,#964,#966));
#968=FACE_OUTER_BOUND('',#967,.F.);
#970=CARTESIAN_POINT('',(-5.817290976356E0,4.49E1,-3.423685980987E0));
#971=DIRECTION('',(-8.648618045256E-1,0.E0,-5.020100188968E-1));
#972=DIRECTION('',(-5.020100188968E-1,0.E0,8.648618045256E-1));
#973=AXIS2_PLACEMENT_3D('',#970,#971,#972);
#974=PLANE('',#973);
#975=ORIENTED_EDGE('',*,*,#798,.F.);
#977=ORIENTED_EDGE('',*,*,#976,.T.);
#978=ORIENTED_EDGE('',*,*,#957,.T.);
#979=ORIENTED_EDGE('',*,*,#852,.F.);
#980=EDGE_LOOP('',(#975,#977,#978,#979));
#981=FACE_OUTER_BOUND('',#980,.F.);
#983=CARTESIAN_POINT('',(0.E0,4.49E1,-6.507146983359E-2));
#984=DIRECTION('',(5.E-1,0.E0,-8.660254037844E-1));
#985=DIRECTION('',(-8.660254037844E-1,0.E0,-5.E-1));
#986=AXIS2_PLACEMENT_3D('',#983,#984,#985);
#987=PLANE('',#986);
#988=ORIENTED_EDGE('',*,*,#893,.F.);
#990=ORIENTED_EDGE('',*,*,#989,.T.);
#991=ORIENTED_EDGE('',*,*,#959,.T.);
#992=ORIENTED_EDGE('',*,*,#976,.F.);
#993=ORIENTED_EDGE('',*,*,#838,.F.);
#994=EDGE_LOOP('',(#988,#990,#991,#992,#993));
#995=FACE_OUTER_BOUND('',#994,.F.);
#997=CARTESIAN_POINT('',(5.801479443426E0,4.49E1,-3.450411028777E0));
#998=DIRECTION('',(-5.039980074171E-1,0.E0,-8.637048156168E-1));
#999=DIRECTION('',(-8.637048156168E-1,0.E0,5.039980074171E-1));
#1000=AXIS2_PLACEMENT_3D('',#997,#998,#999);
#1001=PLANE('',#1000);
#1002=ORIENTED_EDGE('',*,*,#891,.F.);
#1003=ORIENTED_EDGE('',*,*,#834,.T.);
#1005=ORIENTED_EDGE('',*,*,#1004,.T.);
#1006=ORIENTED_EDGE('',*,*,#961,.T.);
#1007=ORIENTED_EDGE('',*,*,#989,.F.);
#1008=EDGE_LOOP('',(#1002,#1003,#1005,#1006,#1007));
#1009=FACE_OUTER_BOUND('',#1008,.F.);
#1011=CARTESIAN_POINT('',(5.858131381639E0,4.49E1,-3.353326216678E0));
#1012=DIRECTION('',(8.637048156168E-1,0.E0,-5.039980074171E-1));
#1013=DIRECTION('',(-5.039980074171E-1,0.E0,-8.637048156168E-1));
#1014=AXIS2_PLACEMENT_3D('',#1011,#1012,#1013);
#1015=PLANE('',#1014);
#1016=ORIENTED_EDGE('',*,*,#802,.F.);
#1018=ORIENTED_EDGE('',*,*,#1017,.T.);
#1019=ORIENTED_EDGE('',*,*,#963,.T.);
#1020=ORIENTED_EDGE('',*,*,#1004,.F.);
#1021=EDGE_LOOP('',(#1016,#1018,#1019,#1020));
#1022=FACE_OUTER_BOUND('',#1021,.F.);
#1024=CARTESIAN_POINT('',(5.E-2,4.49E1,0.E0));
#1025=DIRECTION('',(5.E-1,0.E0,8.660254037844E-1));
#1026=DIRECTION('',(8.660254037844E-1,0.E0,-5.E-1));
#1027=AXIS2_PLACEMENT_3D('',#1024,#1025,#1026);
#1028=PLANE('',#1027);
#1029=ORIENTED_EDGE('',*,*,#868,.F.);
#1030=ORIENTED_EDGE('',*,*,#916,.T.);
#1031=ORIENTED_EDGE('',*,*,#965,.T.);
#1032=ORIENTED_EDGE('',*,*,#1017,.F.);
#1033=ORIENTED_EDGE('',*,*,#824,.F.);
#1034=EDGE_LOOP('',(#1029,#1030,#1031,#1032,#1033));
#1035=FACE_OUTER_BOUND('',#1034,.F.);
#1037=CARTESIAN_POINT('',(0.E0,0.E0,0.E0));
#1038=DIRECTION('',(0.E0,-1.E0,0.E0));
#1039=DIRECTION('',(0.E0,0.E0,1.E0));
#1040=AXIS2_PLACEMENT_3D('',#1037,#1038,#1039);
#1041=CYLINDRICAL_SURFACE('',#1040,6.25E0);
#1042=ORIENTED_EDGE('',*,*,#512,.F.);
#1044=ORIENTED_EDGE('',*,*,#1043,.T.);
#1046=ORIENTED_EDGE('',*,*,#1045,.T.);
#1048=ORIENTED_EDGE('',*,*,#1047,.F.);
#1049=EDGE_LOOP('',(#1042,#1044,#1046,#1048));
#1050=FACE_OUTER_BOUND('',#1049,.F.);
#1052=FILL_AREA_STYLE_COLOUR('',#25);
#1053=FILL_AREA_STYLE('',(#1052));
#1054=SURFACE_STYLE_FILL_AREA(#1053);
#1055=SURFACE_SIDE_STYLE('',(#1054));
#1056=SURFACE_STYLE_USAGE(.POSITIVE.,#1055);
#1057=PRESENTATION_STYLE_ASSIGNMENT((#1056));
#1058=STYLED_ITEM('',(#1057),#1051);
#1059=CARTESIAN_POINT('',(0.E0,0.E0,0.E0));
#1060=DIRECTION('',(0.E0,-1.E0,0.E0));
#1061=DIRECTION('',(0.E0,0.E0,1.E0));
#1062=AXIS2_PLACEMENT_3D('',#1059,#1060,#1061);
#1063=CYLINDRICAL_SURFACE('',#1062,6.25E0);
#1064=ORIENTED_EDGE('',*,*,#514,.F.);
#1065=ORIENTED_EDGE('',*,*,#1047,.T.);
#1067=ORIENTED_EDGE('',*,*,#1066,.T.);
#1068=ORIENTED_EDGE('',*,*,#1043,.F.);
#1069=EDGE_LOOP('',(#1064,#1065,#1067,#1068));
#1070=FACE_OUTER_BOUND('',#1069,.F.);
#1072=FILL_AREA_STYLE_COLOUR('',#25);
#1073=FILL_AREA_STYLE('',(#1072));
#1074=SURFACE_STYLE_FILL_AREA(#1073);
#1075=SURFACE_SIDE_STYLE('',(#1074));
#1076=SURFACE_STYLE_USAGE(.POSITIVE.,#1075);
#1077=PRESENTATION_STYLE_ASSIGNMENT((#1076));
#1078=STYLED_ITEM('',(#1077),#1071);
#1079=CARTESIAN_POINT('',(0.E0,1.E-1,0.E0));
#1080=DIRECTION('',(0.E0,-1.E0,0.E0));
#1081=DIRECTION('',(0.E0,0.E0,1.E0));
#1082=AXIS2_PLACEMENT_3D('',#1079,#1080,#1081);
#1083=PLANE('',#1082);
#1084=ORIENTED_EDGE('',*,*,#1045,.F.);
#1085=ORIENTED_EDGE('',*,*,#1066,.F.);
#1086=EDGE_LOOP('',(#1084,#1085));
#1087=FACE_OUTER_BOUND('',#1086,.F.);
#1089=ORIENTED_EDGE('',*,*,#1088,.T.);
#1091=ORIENTED_EDGE('',*,*,#1090,.T.);
#1092=EDGE_LOOP('',(#1089,#1091));
#1093=FACE_BOUND('',#1092,.F.);
#1095=ORIENTED_EDGE('',*,*,#1094,.T.);
#1097=ORIENTED_EDGE('',*,*,#1096,.T.);
#1098=EDGE_LOOP('',(#1095,#1097));
#1099=FACE_BOUND('',#1098,.F.);
#1101=FILL_AREA_STYLE_COLOUR('',#6);
#1102=FILL_AREA_STYLE('',(#1101));
#1103=SURFACE_STYLE_FILL_AREA(#1102);
#1104=SURFACE_SIDE_STYLE('',(#1103));
#1105=SURFACE_STYLE_USAGE(.POSITIVE.,#1104);
#1106=PRESENTATION_STYLE_ASSIGNMENT((#1105));
#1107=STYLED_ITEM('',(#1106),#1100);
#1108=CARTESIAN_POINT('',(0.E0,1.E-1,3.75E0));
#1109=DIRECTION('',(0.E0,-1.E0,0.E0));
#1110=DIRECTION('',(0.E0,0.E0,-1.E0));
#1111=AXIS2_PLACEMENT_3D('',#1108,#1109,#1110);
#1112=CYLINDRICAL_SURFACE('',#1111,4.E-1);
#1113=ORIENTED_EDGE('',*,*,#1088,.F.);
#1115=ORIENTED_EDGE('',*,*,#1114,.T.);
#1117=ORIENTED_EDGE('',*,*,#1116,.T.);
#1119=ORIENTED_EDGE('',*,*,#1118,.F.);
#1120=EDGE_LOOP('',(#1113,#1115,#1117,#1119));
#1121=FACE_OUTER_BOUND('',#1120,.F.);
#1123=FILL_AREA_STYLE_COLOUR('',#14);
#1124=FILL_AREA_STYLE('',(#1123));
#1125=SURFACE_STYLE_FILL_AREA(#1124);
#1126=SURFACE_SIDE_STYLE('',(#1125));
#1127=SURFACE_STYLE_USAGE(.POSITIVE.,#1126);
#1128=PRESENTATION_STYLE_ASSIGNMENT((#1127));
#1129=STYLED_ITEM('',(#1128),#1122);
#1130=CARTESIAN_POINT('',(0.E0,1.E-1,3.75E0));
#1131=DIRECTION('',(0.E0,-1.E0,0.E0));
#1132=DIRECTION('',(0.E0,0.E0,-1.E0));
#1133=AXIS2_PLACEMENT_3D('',#1130,#1131,#1132);
#1134=CYLINDRICAL_SURFACE('',#1133,4.E-1);
#1135=ORIENTED_EDGE('',*,*,#1090,.F.);
#1136=ORIENTED_EDGE('',*,*,#1118,.T.);
#1138=ORIENTED_EDGE('',*,*,#1137,.T.);
#1139=ORIENTED_EDGE('',*,*,#1114,.F.);
#1140=EDGE_LOOP('',(#1135,#1136,#1138,#1139));
#1141=FACE_OUTER_BOUND('',#1140,.F.);
#1143=FILL_AREA_STYLE_COLOUR('',#14);
#1144=FILL_AREA_STYLE('',(#1143));
#1145=SURFACE_STYLE_FILL_AREA(#1144);
#1146=SURFACE_SIDE_STYLE('',(#1145));
#1147=SURFACE_STYLE_USAGE(.POSITIVE.,#1146);
#1148=PRESENTATION_STYLE_ASSIGNMENT((#1147));
#1149=STYLED_ITEM('',(#1148),#1142);
#1150=CARTESIAN_POINT('',(0.E0,-1.99E1,0.E0));
#1151=DIRECTION('',(0.E0,-1.E0,0.E0));
#1152=DIRECTION('',(0.E0,0.E0,-1.E0));
#1153=AXIS2_PLACEMENT_3D('',#1150,#1151,#1152);
#1154=PLANE('',#1153);
#1155=ORIENTED_EDGE('',*,*,#1116,.F.);
#1156=ORIENTED_EDGE('',*,*,#1137,.F.);
#1157=EDGE_LOOP('',(#1155,#1156));
#1158=FACE_OUTER_BOUND('',#1157,.F.);
#1160=FILL_AREA_STYLE_COLOUR('',#14);
#1161=FILL_AREA_STYLE('',(#1160));
#1162=SURFACE_STYLE_FILL_AREA(#1161);
#1163=SURFACE_SIDE_STYLE('',(#1162));
#1164=SURFACE_STYLE_USAGE(.POSITIVE.,#1163);
#1165=PRESENTATION_STYLE_ASSIGNMENT((#1164));
#1166=STYLED_ITEM('',(#1165),#1159);
#1167=CARTESIAN_POINT('',(0.E0,1.E-1,-3.75E0));
#1168=DIRECTION('',(0.E0,-1.E0,0.E0));
#1169=DIRECTION('',(-1.E0,0.E0,0.E0));
#1170=AXIS2_PLACEMENT_3D('',#1167,#1168,#1169);
#1171=CYLINDRICAL_SURFACE('',#1170,4.E-1);
#1172=ORIENTED_EDGE('',*,*,#1094,.F.);
#1174=ORIENTED_EDGE('',*,*,#1173,.T.);
#1176=ORIENTED_EDGE('',*,*,#1175,.T.);
#1178=ORIENTED_EDGE('',*,*,#1177,.F.);
#1179=EDGE_LOOP('',(#1172,#1174,#1176,#1178));
#1180=FACE_OUTER_BOUND('',#1179,.F.);
#1182=FILL_AREA_STYLE_COLOUR('',#14);
#1183=FILL_AREA_STYLE('',(#1182));
#1184=SURFACE_STYLE_FILL_AREA(#1183);
#1185=SURFACE_SIDE_STYLE('',(#1184));
#1186=SURFACE_STYLE_USAGE(.POSITIVE.,#1185);
#1187=PRESENTATION_STYLE_ASSIGNMENT((#1186));
#1188=STYLED_ITEM('',(#1187),#1181);
#1189=CARTESIAN_POINT('',(0.E0,1.E-1,-3.75E0));
#1190=DIRECTION('',(0.E0,-1.E0,0.E0));
#1191=DIRECTION('',(-1.E0,0.E0,0.E0));
#1192=AXIS2_PLACEMENT_3D('',#1189,#1190,#1191);
#1193=CYLINDRICAL_SURFACE('',#1192,4.E-1);
#1194=ORIENTED_EDGE('',*,*,#1096,.F.);
#1195=ORIENTED_EDGE('',*,*,#1177,.T.);
#1197=ORIENTED_EDGE('',*,*,#1196,.T.);
#1198=ORIENTED_EDGE('',*,*,#1173,.F.);
#1199=EDGE_LOOP('',(#1194,#1195,#1197,#1198));
#1200=FACE_OUTER_BOUND('',#1199,.F.);
#1202=FILL_AREA_STYLE_COLOUR('',#14);
#1203=FILL_AREA_STYLE('',(#1202));
#1204=SURFACE_STYLE_FILL_AREA(#1203);
#1205=SURFACE_SIDE_STYLE('',(#1204));
#1206=SURFACE_STYLE_USAGE(.POSITIVE.,#1205);
#1207=PRESENTATION_STYLE_ASSIGNMENT((#1206));
#1208=STYLED_ITEM('',(#1207),#1201);
#1209=CARTESIAN_POINT('',(0.E0,-2.49E1,0.E0));
#1210=DIRECTION('',(0.E0,-1.E0,0.E0));
#1211=DIRECTION('',(-1.E0,0.E0,0.E0));
#1212=AXIS2_PLACEMENT_3D('',#1209,#1210,#1211);
#1213=PLANE('',#1212);
#1214=ORIENTED_EDGE('',*,*,#1175,.F.);
#1215=ORIENTED_EDGE('',*,*,#1196,.F.);
#1216=EDGE_LOOP('',(#1214,#1215));
#1217=FACE_OUTER_BOUND('',#1216,.F.);
#1219=FILL_AREA_STYLE_COLOUR('',#14);
#1220=FILL_AREA_STYLE('',(#1219));
#1221=SURFACE_STYLE_FILL_AREA(#1220);
#1222=SURFACE_SIDE_STYLE('',(#1221));
#1223=SURFACE_STYLE_USAGE(.POSITIVE.,#1222);
#1224=PRESENTATION_STYLE_ASSIGNMENT((#1223));
#1225=STYLED_ITEM('',(#1224),#1218);
#1226=CLOSED_SHELL('',(#518,#540,#564,#585,#604,#629,#649,#674,#696,#718,#739,
#760,#779,#806,#828,#843,#860,#878,#898,#920,#934,#947,#969,#982,#996,#1010,
#1023,#1036,#1051,#1071,#1100,#1122,#1142,#1159,#1181,#1201,#1218));
#1227=MANIFOLD_SOLID_BREP('',#1226);
#1230=PLANE_ANGLE_MEASURE_WITH_UNIT(PLANE_ANGLE_MEASURE(1.745329251994E-2),
#1229);
#1231=(CONVERSION_BASED_UNIT('DEGREE',#1230)NAMED_UNIT(*)PLANE_ANGLE_UNIT());
#1233=UNCERTAINTY_MEASURE_WITH_UNIT(LENGTH_MEASURE(7.439734723906E-3),#1228,
'distance_accuracy_value',
'Maximum model space distance between geometric entities at asserted connectivities');
#1236=MECHANICAL_DESIGN_GEOMETRIC_PRESENTATION_REPRESENTATION('',(#525,#547,
#571,#592,#611,#636,#656,#681,#703,#725,#746,#767,#786,#813,#885,#905,#1058,
#1078,#1107,#1129,#1149,#1166,#1188,#1208,#1225),#1234);
#1237=APPLICATION_CONTEXT('automotive_design');
#1238=APPLICATION_PROTOCOL_DEFINITION('international standard',
'automotive_design',2001,#1237);
#1239=PRODUCT_DEFINITION_CONTEXT('part definition',#1237,'design');
#1240=PRODUCT_CONTEXT('',#1237,'mechanical');
#1241=PRODUCT('1800204000','1800204000','NOT SPECIFIED',(#1240));
#1242=PRODUCT_DEFINITION_FORMATION('91','LAST_VERSION',#1241);
#1250=DERIVED_UNIT_ELEMENT(#1249,2.E0);
#1251=DERIVED_UNIT((#1250));
#1252=MEASURE_REPRESENTATION_ITEM('surface area measure',AREA_MEASURE(
3.172428871068E3),#1251);
#1257=DERIVED_UNIT_ELEMENT(#1256,3.E0);
#1258=DERIVED_UNIT((#1257));
#1259=MEASURE_REPRESENTATION_ITEM('volume measure',VOLUME_MEASURE(
1.141627277318E4),#1258);
#1263=CARTESIAN_POINT('centre point',(4.149519280258E-6,2.248260403904E1,
-8.236947972754E-4));
#1268=DERIVED_UNIT_ELEMENT(#1267,2.E0);
#1269=DERIVED_UNIT((#1268));
#1270=MEASURE_REPRESENTATION_ITEM('surface area measure',AREA_MEASURE(
3.172428871068E3),#1269);
#1275=DERIVED_UNIT_ELEMENT(#1274,3.E0);
#1276=DERIVED_UNIT((#1275));
#1277=MEASURE_REPRESENTATION_ITEM('volume measure',VOLUME_MEASURE(
1.141627277318E4),#1276);
#1281=CARTESIAN_POINT('centre point',(4.149519280258E-6,2.248260403904E1,
-8.236947972754E-4));
#1286=PRODUCT_RELATED_PRODUCT_CATEGORY('part','',(#1241));
#1=DRAUGHTING_PRE_DEFINED_COLOUR('green');
#2=COLOUR_RGB('',1.1E-2,1.2E-2,1.E0);
#3=COLOUR_RGB('',1.6E-1,1.6E-1,1.8E-1);
#4=COLOUR_RGB('',2.117647058824E-1,2.196078431373E-1,2.196078431373E-1);
#5=COLOUR_RGB('',2.4E-1,2.5E-1,2.6E-1);
#6=COLOUR_RGB('',2.4E-1,2.5E-1,2.6E-1);
#7=COLOUR_RGB('',2.4E-1,2.5E-1,2.6E-1);
#8=COLOUR_RGB('',4.1E-1,2.61589E-1,1.12848E-1);
#9=COLOUR_RGB('',5.04854E-1,1.5455E-2,1.5455E-2);
#10=COLOUR_RGB('',6.2E-1,4.1E-1,4.2E-1);
#11=COLOUR_RGB('',6.35294E-1,6.86275E-1,7.4902E-1);
#12=COLOUR_RGB('',6.40777E-1,6.40777E-1,6.40777E-1);
#13=COLOUR_RGB('',6.69062E-1,6.69903E-1,6.55217E-1);
#14=COLOUR_RGB('',8.2E-1,8.1E-1,8.1E-1);
#15=COLOUR_RGB('',8.313725490196E-1,8.392156862745E-1,8.313725490196E-1);
#16=COLOUR_RGB('',8.8E-1,8.8E-1,8.8E-1);
#17=COLOUR_RGB('',9.019607843137E-1,9.215686274510E-1,9.215686274510E-1);
#18=COLOUR_RGB('',9.21569E-1,7.05882E-1,4.70588E-1);
#19=DRAUGHTING_PRE_DEFINED_COLOUR('red');
#20=DRAUGHTING_PRE_DEFINED_COLOUR('yellow');
#21=COLOUR_RGB('',1.E0,1.E0,5.3E-1);
#22=COLOUR_RGB('',1.E0,1.E0,9.49E-1);
#23=COLOUR_RGB('',1.E0,1.E0,9.49E-1);
#24=COLOUR_RGB('',1.E0,1.E0,9.49E-1);
#25=COLOUR_RGB('',1.E0,1.E0,9.49E-1);
#26=COLOUR_RGB('',1.E0,1.E0,9.49E-1);
#27=DRAUGHTING_PRE_DEFINED_COLOUR('white');
#32=CIRCLE('',#31,8.499674669410E0);
#37=CIRCLE('',#36,8.499674669410E0);
#42=CIRCLE('',#41,6.25E0);
#47=CIRCLE('',#46,6.25E0);
#52=CIRCLE('',#51,5.E-1);
#57=CIRCLE('',#56,8.999349338820E0);
#62=CIRCLE('',#61,8.666666666667E0);
#67=CIRCLE('',#66,1.E0);
#72=CIRCLE('',#71,8.999349338820E0);
#77=CIRCLE('',#76,1.E0);
#82=CIRCLE('',#81,5.E-1);
#87=CIRCLE('',#86,5.E-1);
#92=CIRCLE('',#91,8.666666666667E0);
#97=CIRCLE('',#96,8.666666666667E0);
#102=CIRCLE('',#101,5.E-1);
#107=CIRCLE('',#106,8.666666666667E0);
#112=CIRCLE('',#111,8.666666666667E0);
#117=CIRCLE('',#116,9.E0);
#122=CIRCLE('',#121,8.666666666667E0);
#127=CIRCLE('',#126,1.E0);
#132=CIRCLE('',#131,9.E0);
#141=CIRCLE('',#140,3.E-1);
#146=CIRCLE('',#145,3.E-1);
#151=CIRCLE('',#150,9.E0);
#156=CIRCLE('',#155,9.E0);
#161=CIRCLE('',#160,9.E0);
#170=CIRCLE('',#169,1.E0);
#175=CIRCLE('',#174,8.7E0);
#180=CIRCLE('',#179,8.7E0);
#185=CIRCLE('',#184,6.75E0);
#198=CIRCLE('',#197,6.75E0);
#207=CIRCLE('',#206,6.75E0);
#256=CIRCLE('',#255,6.75E0);
#337=CIRCLE('',#336,6.25E0);
#342=CIRCLE('',#341,6.25E0);
#347=CIRCLE('',#346,4.E-1);
#352=CIRCLE('',#351,4.E-1);
#357=CIRCLE('',#356,4.E-1);
#362=CIRCLE('',#361,4.E-1);
#375=CIRCLE('',#374,4.E-1);
#380=CIRCLE('',#379,4.E-1);
#393=CIRCLE('',#392,4.E-1);
#398=CIRCLE('',#397,4.E-1);
#506=EDGE_CURVE('',#455,#456,#32,.T.);
#508=EDGE_CURVE('',#456,#455,#37,.T.);
#512=EDGE_CURVE('',#425,#426,#42,.T.);
#514=EDGE_CURVE('',#426,#425,#47,.T.);
#518=ADVANCED_FACE('',(#511,#517),#505,.F.);
#531=EDGE_CURVE('',#451,#452,#57,.T.);
#533=EDGE_CURVE('',#452,#456,#82,.T.);
#536=EDGE_CURVE('',#451,#455,#52,.T.);
#540=ADVANCED_FACE('',(#539),#530,.T.);
#554=EDGE_CURVE('',#451,#414,#77,.T.);
#556=EDGE_CURVE('',#414,#417,#62,.T.);
#558=EDGE_CURVE('',#448,#417,#97,.T.);
#560=EDGE_CURVE('',#452,#448,#67,.T.);
#564=ADVANCED_FACE('',(#563),#552,.T.);
#577=EDGE_CURVE('',#452,#451,#72,.T.);
#580=EDGE_CURVE('',#414,#448,#92,.T.);
#585=ADVANCED_FACE('',(#584),#576,.T.);
#604=ADVANCED_FACE('',(#603),#597,.T.);
#617=EDGE_CURVE('',#413,#414,#87,.T.);
#621=EDGE_CURVE('',#417,#418,#102,.T.);
#623=EDGE_CURVE('',#418,#444,#107,.T.);
#625=EDGE_CURVE('',#444,#413,#112,.T.);
#629=ADVANCED_FACE('',(#628),#616,.F.);
#643=EDGE_CURVE('',#418,#413,#122,.T.);
#649=ADVANCED_FACE('',(#648),#641,.F.);
#662=EDGE_CURVE('',#408,#410,#117,.T.);
#664=EDGE_CURVE('',#410,#444,#170,.T.);
#668=EDGE_CURVE('',#446,#413,#127,.T.);
#670=EDGE_CURVE('',#446,#408,#156,.T.);
#674=ADVANCED_FACE('',(#673),#661,.T.);
#687=EDGE_CURVE('',#401,#402,#132,.T.);
#689=EDGE_CURVE('',#410,#401,#165,.T.);
#692=EDGE_CURVE('',#408,#402,#136,.T.);
#696=ADVANCED_FACE('',(#695),#686,.T.);
#710=EDGE_CURVE('',#402,#406,#146,.T.);
#712=EDGE_CURVE('',#405,#406,#175,.T.);
#714=EDGE_CURVE('',#401,#405,#141,.T.);
#718=ADVANCED_FACE('',(#717),#708,.T.);
#731=EDGE_CURVE('',#402,#401,#151,.T.);
#734=EDGE_CURVE('',#406,#405,#180,.T.);
#739=ADVANCED_FACE('',(#738),#730,.T.);
#755=EDGE_CURVE('',#410,#446,#161,.T.);
#760=ADVANCED_FACE('',(#759),#751,.T.);
#779=ADVANCED_FACE('',(#778),#772,.T.);
#796=EDGE_CURVE('',#478,#481,#185,.T.);
#798=EDGE_CURVE('',#481,#482,#189,.T.);
#800=EDGE_CURVE('',#477,#482,#198,.T.);
#802=EDGE_CURVE('',#477,#478,#193,.T.);
#806=ADVANCED_FACE('',(#795,#805),#791,.T.);
#820=EDGE_CURVE('',#497,#482,#202,.T.);
#822=EDGE_CURVE('',#497,#488,#207,.T.);
#824=EDGE_CURVE('',#488,#477,#211,.T.);
#828=ADVANCED_FACE('',(#827),#818,.F.);
#834=EDGE_CURVE('',#491,#478,#215,.T.);
#836=EDGE_CURVE('',#491,#494,#256,.T.);
#838=EDGE_CURVE('',#494,#481,#219,.T.);
#843=ADVANCED_FACE('',(#842),#833,.F.);
#849=EDGE_CURVE('',#497,#498,#235,.T.);
#852=EDGE_CURVE('',#482,#470,#223,.T.);
#854=EDGE_CURVE('',#470,#472,#284,.T.);
#856=EDGE_CURVE('',#498,#472,#268,.T.);
#860=ADVANCED_FACE('',(#859),#848,.T.);
#866=EDGE_CURVE('',#485,#486,#227,.T.);
#868=EDGE_CURVE('',#486,#488,#231,.T.);
#872=EDGE_CURVE('',#498,#500,#239,.T.);
#874=EDGE_CURVE('',#500,#485,#243,.T.);
#878=ADVANCED_FACE('',(#877),#865,.T.);
#891=EDGE_CURVE('',#491,#492,#247,.T.);
#893=EDGE_CURVE('',#492,#494,#251,.T.);
#898=ADVANCED_FACE('',(#897),#890,.T.);
#912=EDGE_CURVE('',#485,#459,#260,.T.);
#914=EDGE_CURVE('',#459,#460,#272,.T.);
#916=EDGE_CURVE('',#486,#460,#324,.T.);
#920=ADVANCED_FACE('',(#919),#910,.T.);
#927=EDGE_CURVE('',#500,#474,#264,.T.);
#929=EDGE_CURVE('',#474,#459,#276,.T.);
#934=ADVANCED_FACE('',(#933),#925,.T.);
#942=EDGE_CURVE('',#472,#474,#280,.T.);
#947=ADVANCED_FACE('',(#946),#939,.T.);
#957=EDGE_CURVE('',#468,#470,#288,.T.);
#959=EDGE_CURVE('',#466,#468,#292,.T.);
#961=EDGE_CURVE('',#464,#466,#296,.T.);
#963=EDGE_CURVE('',#462,#464,#300,.T.);
#965=EDGE_CURVE('',#460,#462,#304,.T.);
#969=ADVANCED_FACE('',(#968),#952,.T.);
#976=EDGE_CURVE('',#481,#468,#308,.T.);
#982=ADVANCED_FACE('',(#981),#974,.T.);
#989=EDGE_CURVE('',#492,#466,#312,.T.);
#996=ADVANCED_FACE('',(#995),#987,.T.);
#1004=EDGE_CURVE('',#478,#464,#316,.T.);
#1010=ADVANCED_FACE('',(#1009),#1001,.T.);
#1017=EDGE_CURVE('',#477,#462,#320,.T.);
#1023=ADVANCED_FACE('',(#1022),#1015,.T.);
#1036=ADVANCED_FACE('',(#1035),#1028,.T.);
#1043=EDGE_CURVE('',#425,#421,#328,.T.);
#1045=EDGE_CURVE('',#421,#422,#337,.T.);
#1047=EDGE_CURVE('',#426,#422,#332,.T.);
#1051=ADVANCED_FACE('',(#1050),#1041,.F.);
#1066=EDGE_CURVE('',#422,#421,#342,.T.);
#1071=ADVANCED_FACE('',(#1070),#1063,.F.);
#1088=EDGE_CURVE('',#433,#434,#347,.T.);
#1090=EDGE_CURVE('',#434,#433,#352,.T.);
#1094=EDGE_CURVE('',#441,#442,#357,.T.);
#1096=EDGE_CURVE('',#442,#441,#362,.T.);
#1100=ADVANCED_FACE('',(#1087,#1093,#1099),#1083,.T.);
#1114=EDGE_CURVE('',#433,#429,#366,.T.);
#1116=EDGE_CURVE('',#429,#430,#375,.T.);
#1118=EDGE_CURVE('',#434,#430,#370,.T.);
#1122=ADVANCED_FACE('',(#1121),#1112,.T.);
#1137=EDGE_CURVE('',#430,#429,#380,.T.);
#1142=ADVANCED_FACE('',(#1141),#1134,.T.);
#1159=ADVANCED_FACE('',(#1158),#1154,.T.);
#1173=EDGE_CURVE('',#441,#437,#384,.T.);
#1175=EDGE_CURVE('',#437,#438,#393,.T.);
#1177=EDGE_CURVE('',#442,#438,#388,.T.);
#1181=ADVANCED_FACE('',(#1180),#1171,.T.);
#1196=EDGE_CURVE('',#438,#437,#398,.T.);
#1201=ADVANCED_FACE('',(#1200),#1193,.T.);
#1218=ADVANCED_FACE('',(#1217),#1213,.T.);
#1228=(LENGTH_UNIT()NAMED_UNIT(*)SI_UNIT(.MILLI.,.METRE.));
#1229=(NAMED_UNIT(*)PLANE_ANGLE_UNIT()SI_UNIT($,.RADIAN.));
#1232=(NAMED_UNIT(*)SI_UNIT($,.STERADIAN.)SOLID_ANGLE_UNIT());
#1234=(GEOMETRIC_REPRESENTATION_CONTEXT(3)GLOBAL_UNCERTAINTY_ASSIGNED_CONTEXT((
#1233))GLOBAL_UNIT_ASSIGNED_CONTEXT((#1228,#1231,#1232))REPRESENTATION_CONTEXT(
'ID1','3'));
#1235=ADVANCED_BREP_SHAPE_REPRESENTATION('',(#1227),#1234);
#1243=PRODUCT_DEFINITION('part definition','',#1242,#1239);
#1244=PRODUCT_DEFINITION_SHAPE('','SHAPE FOR 1800204000.',#1243);
#1245=SHAPE_ASPECT('','solid data associated with 1800204000',#1244,.F.);
#1246=PROPERTY_DEFINITION('',
'shape for solid data with which properties are associated',#1245);
#1247=SHAPE_REPRESENTATION('',(#1227),#1234);
#1248=SHAPE_DEFINITION_REPRESENTATION(#1246,#1247);
#1249=(LENGTH_UNIT()NAMED_UNIT(*)SI_UNIT(.MILLI.,.METRE.));
#1253=PROPERTY_DEFINITION('geometric validation property','area of 1800204000',
#1245);
#1254=REPRESENTATION('surface area',(#1252),#1234);
#1255=PROPERTY_DEFINITION_REPRESENTATION(#1253,#1254);
#1256=(LENGTH_UNIT()NAMED_UNIT(*)SI_UNIT(.MILLI.,.METRE.));
#1260=PROPERTY_DEFINITION('geometric validation property',
'volume of 1800204000',#1245);
#1261=REPRESENTATION('volume',(#1259),#1234);
#1262=PROPERTY_DEFINITION_REPRESENTATION(#1260,#1261);
#1264=PROPERTY_DEFINITION('geometric validation property',
'centroid of 1800204000',#1245);
#1265=REPRESENTATION('centroid',(#1263),#1234);
#1266=PROPERTY_DEFINITION_REPRESENTATION(#1264,#1265);
#1267=(LENGTH_UNIT()NAMED_UNIT(*)SI_UNIT(.MILLI.,.METRE.));
#1271=PROPERTY_DEFINITION('geometric validation property','area of 1800204000',
#1244);
#1272=REPRESENTATION('surface area',(#1270),#1234);
#1273=PROPERTY_DEFINITION_REPRESENTATION(#1271,#1272);
#1274=(LENGTH_UNIT()NAMED_UNIT(*)SI_UNIT(.MILLI.,.METRE.));
#1278=PROPERTY_DEFINITION('geometric validation property',
'volume of 1800204000',#1244);
#1279=REPRESENTATION('volume',(#1277),#1234);
#1280=PROPERTY_DEFINITION_REPRESENTATION(#1278,#1279);
#1282=PROPERTY_DEFINITION('geometric validation property',
'centroid of 1800204000',#1244);
#1283=REPRESENTATION('centroid',(#1281),#1234);
#1284=PROPERTY_DEFINITION_REPRESENTATION(#1282,#1283);
#1285=SHAPE_DEFINITION_REPRESENTATION(#1244,#1235);
ENDSEC;
END-ISO-10303-21;
