ISO-10303-21;
HEADER;
FILE_DESCRIPTION((''),'2;1');
FILE_NAME('0004089500','2025-06-23T15:39:58',('Administrator'),(''),
'CREO PARAMETRIC BY PTC INC, 2018100','CREO PARAMETRIC BY PTC INC, 2018100','');
FILE_SCHEMA((
'AP242_MANAGED_MODEL_BASED_3D_ENGINEERING_MIM_LF { 1 0 10303 442 1 1 4 }'));
ENDSEC;
DATA;
#21=CARTESIAN_POINT('',(0.E0,0.E0,0.E0));
#22=DIRECTION('',(0.E0,1.E0,0.E0));
#23=DIRECTION('',(1.E0,0.E0,0.E0));
#24=AXIS2_PLACEMENT_3D('',#21,#22,#23);
#26=CARTESIAN_POINT('',(0.E0,0.E0,0.E0));
#27=DIRECTION('',(0.E0,1.E0,0.E0));
#28=DIRECTION('',(-1.E0,0.E0,0.E0));
#29=AXIS2_PLACEMENT_3D('',#26,#27,#28);
#31=CARTESIAN_POINT('',(0.E0,0.E0,0.E0));
#32=DIRECTION('',(0.E0,-1.E0,0.E0));
#33=DIRECTION('',(0.E0,0.E0,1.E0));
#34=AXIS2_PLACEMENT_3D('',#31,#32,#33);
#36=CARTESIAN_POINT('',(0.E0,0.E0,0.E0));
#37=DIRECTION('',(0.E0,-1.E0,0.E0));
#38=DIRECTION('',(0.E0,0.E0,-1.E0));
#39=AXIS2_PLACEMENT_3D('',#36,#37,#38);
#41=CARTESIAN_POINT('',(1.8E0,2.E-1,9.276728690777E-13));
#42=DIRECTION('',(5.153742016484E-13,0.E0,-1.E0));
#43=DIRECTION('',(1.E0,0.E0,5.153742016484E-13));
#44=AXIS2_PLACEMENT_3D('',#41,#42,#43);
#46=CARTESIAN_POINT('',(0.E0,8.8E0,0.E0));
#47=DIRECTION('',(0.E0,-1.E0,0.E0));
#48=DIRECTION('',(-1.E0,0.E0,0.E0));
#49=AXIS2_PLACEMENT_3D('',#46,#47,#48);
#51=DIRECTION('',(0.E0,1.E0,4.558190401747E-13));
#52=VECTOR('',#51,7.708688103938E0);
#53=CARTESIAN_POINT('',(2.E0,1.091311896062E0,-3.482657631395E-12));
#54=LINE('',#53,#52);
#55=CARTESIAN_POINT('',(0.E0,2.E-1,0.E0));
#56=DIRECTION('',(0.E0,1.E0,0.E0));
#57=DIRECTION('',(1.E0,0.E0,0.E0));
#58=AXIS2_PLACEMENT_3D('',#55,#56,#57);
#60=DIRECTION('',(0.E0,1.E0,-3.247223676839E-11));
#61=VECTOR('',#60,1.086881039375E-1);
#62=CARTESIAN_POINT('',(2.E0,2.E-1,4.441272123787E-14));
#63=LINE('',#62,#61);
#64=CARTESIAN_POINT('',(-1.85E0,8.8E0,8.936427986495E-13));
#65=DIRECTION('',(-4.830493643970E-13,0.E0,-1.E0));
#66=DIRECTION('',(-1.E0,0.E0,4.830493643970E-13));
#67=AXIS2_PLACEMENT_3D('',#64,#65,#66);
#69=CARTESIAN_POINT('',(0.E0,8.95E0,0.E0));
#70=DIRECTION('',(0.E0,1.E0,0.E0));
#71=DIRECTION('',(-9.449018925662E-1,0.E0,3.273536519190E-1));
#72=AXIS2_PLACEMENT_3D('',#69,#70,#71);
#74=CARTESIAN_POINT('',(1.85E0,8.8E0,-8.936323903086E-13));
#75=DIRECTION('',(4.830441602266E-13,0.E0,1.E0));
#76=DIRECTION('',(1.E0,0.E0,-4.830441602266E-13));
#77=AXIS2_PLACEMENT_3D('',#74,#75,#76);
#79=DIRECTION('',(3.774758283726E-13,1.E0,-1.110223024625E-14));
#80=VECTOR('',#79,9.999999999998E-3);
#81=CARTESIAN_POINT('',(-1.748068501248E0,8.95E0,6.056042560502E-1));
#82=LINE('',#81,#80);
#83=DIRECTION('',(-3.330669073876E-13,1.E0,0.E0));
#84=VECTOR('',#83,9.999999999998E-3);
#85=CARTESIAN_POINT('',(1.748068501248E0,8.95E0,6.056042560502E-1));
#86=LINE('',#85,#84);
#87=DIRECTION('',(-1.E0,0.E0,0.E0));
#88=VECTOR('',#87,3.496137002495E0);
#89=CARTESIAN_POINT('',(1.748068501248E0,8.95E0,6.056042560502E-1));
#90=LINE('',#89,#88);
#91=CARTESIAN_POINT('',(0.E0,8.95E0,0.E0));
#92=DIRECTION('',(0.E0,-1.E0,0.E0));
#93=DIRECTION('',(-9.449018925662E-1,0.E0,3.273536519190E-1));
#94=AXIS2_PLACEMENT_3D('',#91,#92,#93);
#96=CARTESIAN_POINT('',(0.E0,8.95E0,0.E0));
#97=DIRECTION('',(0.E0,-1.E0,0.E0));
#98=DIRECTION('',(-1.E0,0.E0,0.E0));
#99=AXIS2_PLACEMENT_3D('',#96,#97,#98);
#101=CARTESIAN_POINT('',(0.E0,8.95E0,0.E0));
#102=DIRECTION('',(0.E0,-1.E0,0.E0));
#103=DIRECTION('',(1.E0,0.E0,0.E0));
#104=AXIS2_PLACEMENT_3D('',#101,#102,#103);
#106=DIRECTION('',(-1.E0,0.E0,0.E0));
#107=VECTOR('',#106,3.496137002495E0);
#108=CARTESIAN_POINT('',(1.748068501248E0,8.96E0,6.056042560502E-1));
#109=LINE('',#108,#107);
#110=CARTESIAN_POINT('',(0.E0,8.96E0,0.E0));
#111=DIRECTION('',(0.E0,1.E0,0.E0));
#112=DIRECTION('',(-9.449018925662E-1,0.E0,3.273536519190E-1));
#113=AXIS2_PLACEMENT_3D('',#110,#111,#112);
#115=CARTESIAN_POINT('',(0.E0,8.8E0,0.E0));
#116=DIRECTION('',(0.E0,-1.E0,0.E0));
#117=DIRECTION('',(1.E0,0.E0,0.E0));
#118=AXIS2_PLACEMENT_3D('',#115,#116,#117);
#120=CARTESIAN_POINT('',(0.E0,1.091311896062E0,0.E0));
#121=DIRECTION('',(0.E0,-1.E0,0.E0));
#122=DIRECTION('',(1.E0,0.E0,0.E0));
#123=AXIS2_PLACEMENT_3D('',#120,#121,#122);
#125=CARTESIAN_POINT('',(0.E0,1.091311896062E0,0.E0));
#126=DIRECTION('',(0.E0,-1.E0,0.E0));
#127=DIRECTION('',(0.E0,0.E0,1.E0));
#128=AXIS2_PLACEMENT_3D('',#125,#126,#127);
#130=DIRECTION('',(0.E0,1.E0,-5.088049678830E-13));
#131=VECTOR('',#130,7.708688103938E0);
#132=CARTESIAN_POINT('',(-2.E0,1.091311896062E0,3.890890397855E-12));
#133=LINE('',#132,#131);
#134=CARTESIAN_POINT('',(0.E0,2.E-1,0.E0));
#135=DIRECTION('',(0.E0,1.E0,0.E0));
#136=DIRECTION('',(-1.E0,0.E0,0.E0));
#137=AXIS2_PLACEMENT_3D('',#134,#135,#136);
#139=DIRECTION('',(0.E0,1.E0,3.622682132753E-11));
#140=VECTOR('',#139,1.086881039375E-1);
#141=CARTESIAN_POINT('',(-2.E0,2.E-1,-4.393550815092E-14));
#142=LINE('',#141,#140);
#143=CARTESIAN_POINT('',(0.E0,3.086881039375E-1,0.E0));
#144=DIRECTION('',(0.E0,1.E0,0.E0));
#145=DIRECTION('',(-1.E0,0.E0,0.E0));
#146=AXIS2_PLACEMENT_3D('',#143,#144,#145);
#148=CARTESIAN_POINT('',(0.E0,3.086881039375E-1,0.E0));
#149=DIRECTION('',(0.E0,1.E0,0.E0));
#150=DIRECTION('',(0.E0,0.E0,1.E0));
#151=AXIS2_PLACEMENT_3D('',#148,#149,#150);
#153=CARTESIAN_POINT('',(0.E0,8.304372986875E-1,0.E0));
#154=DIRECTION('',(0.E0,-1.E0,0.E0));
#155=DIRECTION('',(5.788437575869E-13,0.E0,-1.E0));
#156=AXIS2_PLACEMENT_3D('',#153,#154,#155);
#158=CARTESIAN_POINT('',(0.E0,1.091311896062E0,0.E0));
#159=DIRECTION('',(0.E0,1.E0,0.E0));
#160=DIRECTION('',(1.E0,0.E0,0.E0));
#161=AXIS2_PLACEMENT_3D('',#158,#159,#160);
#163=CARTESIAN_POINT('',(-1.65E0,1.091311896062E0,2.800065804900E-11));
#164=DIRECTION('',(-1.697017006086E-11,0.E0,-1.E0));
#165=DIRECTION('',(-6.666666666645E-1,-7.453559925018E-1,1.131344670720E-11));
#166=AXIS2_PLACEMENT_3D('',#163,#164,#165);
#168=CARTESIAN_POINT('',(0.E0,5.695627013125E-1,0.E0));
#169=DIRECTION('',(0.E0,1.E0,0.E0));
#170=DIRECTION('',(-1.178347427008E-11,0.E0,1.E0));
#171=AXIS2_PLACEMENT_3D('',#168,#169,#170);
#173=CARTESIAN_POINT('',(0.E0,3.086881039375E-1,0.E0));
#174=DIRECTION('',(0.E0,-1.E0,0.E0));
#175=DIRECTION('',(-1.E0,0.E0,0.E0));
#176=AXIS2_PLACEMENT_3D('',#173,#174,#175);
#178=CARTESIAN_POINT('',(-1.944273041177E-11,3.086881039375E-1,1.65E0));
#179=DIRECTION('',(1.E0,0.E0,1.178347350250E-11));
#180=DIRECTION('',(-7.855649001654E-12,7.453559925010E-1,6.666666666654E-1));
#181=AXIS2_PLACEMENT_3D('',#178,#179,#180);
#183=CARTESIAN_POINT('',(0.E0,5.695627013125E-1,0.E0));
#184=DIRECTION('',(0.E0,1.E0,0.E0));
#185=DIRECTION('',(0.E0,0.E0,-1.E0));
#186=AXIS2_PLACEMENT_3D('',#183,#184,#185);
#188=CARTESIAN_POINT('',(0.E0,7.E-1,-2.E0));
#189=DIRECTION('',(-1.E0,0.E0,0.E0));
#190=DIRECTION('',(0.E0,-7.453559924999E-1,6.666666666667E-1));
#191=AXIS2_PLACEMENT_3D('',#188,#189,#190);
#193=CARTESIAN_POINT('',(0.E0,8.304372986875E-1,0.E0));
#194=DIRECTION('',(0.E0,-1.E0,0.E0));
#195=DIRECTION('',(-1.E0,0.E0,0.E0));
#196=AXIS2_PLACEMENT_3D('',#193,#194,#195);
#198=CARTESIAN_POINT('',(0.E0,8.304372986875E-1,0.E0));
#199=DIRECTION('',(0.E0,-1.E0,0.E0));
#200=DIRECTION('',(0.E0,0.E0,1.E0));
#201=AXIS2_PLACEMENT_3D('',#198,#199,#200);
#203=CARTESIAN_POINT('',(0.E0,7.E-1,2.E0));
#204=DIRECTION('',(-1.E0,0.E0,0.E0));
#205=DIRECTION('',(0.E0,7.453559924999E-1,-6.666666666667E-1));
#206=AXIS2_PLACEMENT_3D('',#203,#204,#205);
#208=CARTESIAN_POINT('',(0.E0,5.695627013125E-1,0.E0));
#209=DIRECTION('',(0.E0,1.E0,0.E0));
#210=DIRECTION('',(-1.E0,0.E0,0.E0));
#211=AXIS2_PLACEMENT_3D('',#208,#209,#210);
#213=CARTESIAN_POINT('',(1.655927131528E-11,1.091311896062E0,1.65E0));
#214=DIRECTION('',(-1.E0,0.E0,1.003592521587E-11));
#215=DIRECTION('',(6.690616810569E-12,-7.453559925008E-1,6.666666666657E-1));
#216=AXIS2_PLACEMENT_3D('',#213,#214,#215);
#218=CARTESIAN_POINT('',(-1.65E0,3.086881039375E-1,-1.515774415026E-11));
#219=DIRECTION('',(-9.186438068576E-12,0.E0,1.E0));
#220=DIRECTION('',(-6.666666666658E-1,7.453559925007E-1,-6.124292045709E-12));
#221=AXIS2_PLACEMENT_3D('',#218,#219,#220);
#223=CARTESIAN_POINT('',(-1.8E0,2.E-1,-9.274681717075E-13));
#224=DIRECTION('',(-5.152614446224E-13,0.E0,1.E0));
#225=DIRECTION('',(-1.E0,0.E0,-5.152614446224E-13));
#226=AXIS2_PLACEMENT_3D('',#223,#224,#225);
#228=DIRECTION('',(0.E0,1.E0,0.E0));
#229=VECTOR('',#228,1.E-1);
#230=CARTESIAN_POINT('',(0.E0,0.E0,1.5E0));
#231=LINE('',#230,#229);
#232=DIRECTION('',(0.E0,1.E0,0.E0));
#233=VECTOR('',#232,1.E-1);
#234=CARTESIAN_POINT('',(0.E0,0.E0,-1.5E0));
#235=LINE('',#234,#233);
#236=CARTESIAN_POINT('',(0.E0,1.E-1,0.E0));
#237=DIRECTION('',(0.E0,-1.E0,0.E0));
#238=DIRECTION('',(0.E0,0.E0,1.E0));
#239=AXIS2_PLACEMENT_3D('',#236,#237,#238);
#241=CARTESIAN_POINT('',(0.E0,1.E-1,0.E0));
#242=DIRECTION('',(0.E0,-1.E0,0.E0));
#243=DIRECTION('',(0.E0,0.E0,-1.E0));
#244=AXIS2_PLACEMENT_3D('',#241,#242,#243);
#246=CARTESIAN_POINT('',(0.E0,1.E-1,8.E-1));
#247=DIRECTION('',(0.E0,-1.E0,0.E0));
#248=DIRECTION('',(0.E0,0.E0,-1.E0));
#249=AXIS2_PLACEMENT_3D('',#246,#247,#248);
#251=CARTESIAN_POINT('',(0.E0,1.E-1,8.E-1));
#252=DIRECTION('',(0.E0,-1.E0,0.E0));
#253=DIRECTION('',(0.E0,0.E0,1.E0));
#254=AXIS2_PLACEMENT_3D('',#251,#252,#253);
#256=CARTESIAN_POINT('',(0.E0,1.E-1,-8.E-1));
#257=DIRECTION('',(0.E0,-1.E0,0.E0));
#258=DIRECTION('',(-1.E0,0.E0,0.E0));
#259=AXIS2_PLACEMENT_3D('',#256,#257,#258);
#261=CARTESIAN_POINT('',(0.E0,1.E-1,-8.E-1));
#262=DIRECTION('',(0.E0,-1.E0,0.E0));
#263=DIRECTION('',(1.E0,0.E0,0.E0));
#264=AXIS2_PLACEMENT_3D('',#261,#262,#263);
#266=DIRECTION('',(0.E0,-1.E0,0.E0));
#267=VECTOR('',#266,2.E1);
#268=CARTESIAN_POINT('',(0.E0,1.E-1,5.5E-1));
#269=LINE('',#268,#267);
#270=DIRECTION('',(0.E0,-1.E0,0.E0));
#271=VECTOR('',#270,2.E1);
#272=CARTESIAN_POINT('',(0.E0,1.E-1,1.05E0));
#273=LINE('',#272,#271);
#274=CARTESIAN_POINT('',(0.E0,-1.99E1,8.E-1));
#275=DIRECTION('',(0.E0,-1.E0,0.E0));
#276=DIRECTION('',(0.E0,0.E0,-1.E0));
#277=AXIS2_PLACEMENT_3D('',#274,#275,#276);
#279=CARTESIAN_POINT('',(0.E0,-1.99E1,8.E-1));
#280=DIRECTION('',(0.E0,-1.E0,0.E0));
#281=DIRECTION('',(0.E0,0.E0,1.E0));
#282=AXIS2_PLACEMENT_3D('',#279,#280,#281);
#284=DIRECTION('',(0.E0,-1.E0,0.E0));
#285=VECTOR('',#284,2.5E1);
#286=CARTESIAN_POINT('',(-2.5E-1,1.E-1,-8.E-1));
#287=LINE('',#286,#285);
#288=DIRECTION('',(0.E0,-1.E0,0.E0));
#289=VECTOR('',#288,2.5E1);
#290=CARTESIAN_POINT('',(2.5E-1,1.E-1,-8.E-1));
#291=LINE('',#290,#289);
#292=CARTESIAN_POINT('',(0.E0,-2.49E1,-8.E-1));
#293=DIRECTION('',(0.E0,-1.E0,0.E0));
#294=DIRECTION('',(-1.E0,0.E0,0.E0));
#295=AXIS2_PLACEMENT_3D('',#292,#293,#294);
#297=CARTESIAN_POINT('',(0.E0,-2.49E1,-8.E-1));
#298=DIRECTION('',(0.E0,-1.E0,0.E0));
#299=DIRECTION('',(1.E0,0.E0,0.E0));
#300=AXIS2_PLACEMENT_3D('',#297,#298,#299);
#302=CARTESIAN_POINT('',(-2.E0,8.8E0,0.E0));
#303=CARTESIAN_POINT('',(2.E0,8.8E0,0.E0));
#304=VERTEX_POINT('',#302);
#305=VERTEX_POINT('',#303);
#306=CARTESIAN_POINT('',(-1.85E0,8.95E0,0.E0));
#307=CARTESIAN_POINT('',(1.85E0,8.95E0,0.E0));
#308=VERTEX_POINT('',#306);
#309=VERTEX_POINT('',#307);
#310=CARTESIAN_POINT('',(0.E0,5.695627013125E-1,-1.883333333333E0));
#311=CARTESIAN_POINT('',(-1.883333333333E0,5.695627013125E-1,0.E0));
#312=VERTEX_POINT('',#310);
#313=VERTEX_POINT('',#311);
#314=CARTESIAN_POINT('',(0.E0,5.695627013125E-1,1.883333333333E0));
#315=VERTEX_POINT('',#314);
#316=CARTESIAN_POINT('',(-2.E0,3.086881039375E-1,0.E0));
#317=CARTESIAN_POINT('',(0.E0,3.086881039375E-1,2.E0));
#318=VERTEX_POINT('',#316);
#319=VERTEX_POINT('',#317);
#320=CARTESIAN_POINT('',(2.E0,3.086881039375E-1,0.E0));
#321=VERTEX_POINT('',#320);
#322=CARTESIAN_POINT('',(2.E0,1.091311896062E0,0.E0));
#323=CARTESIAN_POINT('',(0.E0,1.091311896062E0,2.E0));
#324=VERTEX_POINT('',#322);
#325=VERTEX_POINT('',#323);
#326=CARTESIAN_POINT('',(0.E0,8.304372986875E-1,1.883333333333E0));
#327=CARTESIAN_POINT('',(-1.883333333333E0,8.304372986875E-1,0.E0));
#328=VERTEX_POINT('',#326);
#329=VERTEX_POINT('',#327);
#330=CARTESIAN_POINT('',(-2.E0,1.091311896062E0,0.E0));
#331=VERTEX_POINT('',#330);
#332=CARTESIAN_POINT('',(0.E0,8.304372986875E-1,-1.883333333333E0));
#333=VERTEX_POINT('',#332);
#334=CARTESIAN_POINT('',(0.E0,1.E-1,1.5E0));
#335=CARTESIAN_POINT('',(0.E0,1.E-1,-1.5E0));
#336=VERTEX_POINT('',#334);
#337=VERTEX_POINT('',#335);
#338=CARTESIAN_POINT('',(0.E0,0.E0,1.5E0));
#339=CARTESIAN_POINT('',(0.E0,0.E0,-1.5E0));
#340=VERTEX_POINT('',#338);
#341=VERTEX_POINT('',#339);
#342=CARTESIAN_POINT('',(0.E0,-1.99E1,5.5E-1));
#343=CARTESIAN_POINT('',(0.E0,-1.99E1,1.05E0));
#344=VERTEX_POINT('',#342);
#345=VERTEX_POINT('',#343);
#346=CARTESIAN_POINT('',(0.E0,1.E-1,5.5E-1));
#347=CARTESIAN_POINT('',(0.E0,1.E-1,1.05E0));
#348=VERTEX_POINT('',#346);
#349=VERTEX_POINT('',#347);
#350=CARTESIAN_POINT('',(-2.5E-1,-2.49E1,-8.E-1));
#351=CARTESIAN_POINT('',(2.5E-1,-2.49E1,-8.E-1));
#352=VERTEX_POINT('',#350);
#353=VERTEX_POINT('',#351);
#354=CARTESIAN_POINT('',(-2.5E-1,1.E-1,-8.E-1));
#355=CARTESIAN_POINT('',(2.5E-1,1.E-1,-8.E-1));
#356=VERTEX_POINT('',#354);
#357=VERTEX_POINT('',#355);
#358=CARTESIAN_POINT('',(2.E0,2.E-1,0.E0));
#359=CARTESIAN_POINT('',(-2.E0,2.E-1,0.E0));
#360=VERTEX_POINT('',#358);
#361=VERTEX_POINT('',#359);
#362=CARTESIAN_POINT('',(1.8E0,0.E0,0.E0));
#363=CARTESIAN_POINT('',(-1.8E0,0.E0,0.E0));
#364=VERTEX_POINT('',#362);
#365=VERTEX_POINT('',#363);
#366=CARTESIAN_POINT('',(1.748068501248E0,8.96E0,6.056042560502E-1));
#367=CARTESIAN_POINT('',(-1.748068501248E0,8.96E0,6.056042560502E-1));
#368=VERTEX_POINT('',#366);
#369=VERTEX_POINT('',#367);
#370=CARTESIAN_POINT('',(1.748068501248E0,8.95E0,6.056042560502E-1));
#371=CARTESIAN_POINT('',(-1.748068501248E0,8.95E0,6.056042560502E-1));
#372=VERTEX_POINT('',#370);
#373=VERTEX_POINT('',#371);
#374=CARTESIAN_POINT('',(0.E0,0.E0,0.E0));
#375=DIRECTION('',(0.E0,1.E0,0.E0));
#376=DIRECTION('',(1.E0,0.E0,0.E0));
#377=AXIS2_PLACEMENT_3D('',#374,#375,#376);
#378=PLANE('',#377);
#380=ORIENTED_EDGE('',*,*,#379,.T.);
#382=ORIENTED_EDGE('',*,*,#381,.T.);
#383=EDGE_LOOP('',(#380,#382));
#384=FACE_OUTER_BOUND('',#383,.F.);
#386=ORIENTED_EDGE('',*,*,#385,.T.);
#388=ORIENTED_EDGE('',*,*,#387,.T.);
#389=EDGE_LOOP('',(#386,#388));
#390=FACE_BOUND('',#389,.F.);
#392=FILL_AREA_STYLE_COLOUR('',#16);
#393=FILL_AREA_STYLE('',(#392));
#394=SURFACE_STYLE_FILL_AREA(#393);
#395=SURFACE_SIDE_STYLE('',(#394));
#396=SURFACE_STYLE_USAGE(.POSITIVE.,#395);
#397=PRESENTATION_STYLE_ASSIGNMENT((#396));
#398=STYLED_ITEM('',(#397),#391);
#399=CARTESIAN_POINT('',(0.E0,2.E-1,0.E0));
#400=DIRECTION('',(0.E0,1.E0,0.E0));
#401=DIRECTION('',(9.999635974514E-1,0.E0,8.532512643498E-3));
#402=AXIS2_PLACEMENT_3D('',#399,#400,#401);
#403=TOROIDAL_SURFACE('',#402,1.8E0,2.E-1);
#405=ORIENTED_EDGE('',*,*,#404,.T.);
#407=ORIENTED_EDGE('',*,*,#406,.T.);
#408=ORIENTED_EDGE('',*,*,#379,.F.);
#410=ORIENTED_EDGE('',*,*,#409,.F.);
#411=EDGE_LOOP('',(#405,#407,#408,#410));
#412=FACE_OUTER_BOUND('',#411,.F.);
#414=FILL_AREA_STYLE_COLOUR('',#16);
#415=FILL_AREA_STYLE('',(#414));
#416=SURFACE_STYLE_FILL_AREA(#415);
#417=SURFACE_SIDE_STYLE('',(#416));
#418=SURFACE_STYLE_USAGE(.POSITIVE.,#417);
#419=PRESENTATION_STYLE_ASSIGNMENT((#418));
#420=STYLED_ITEM('',(#419),#413);
#421=CARTESIAN_POINT('',(0.E0,0.E0,0.E0));
#422=DIRECTION('',(0.E0,1.E0,0.E0));
#423=DIRECTION('',(1.E0,0.E0,0.E0));
#424=AXIS2_PLACEMENT_3D('',#421,#422,#423);
#425=CYLINDRICAL_SURFACE('',#424,2.E0);
#427=ORIENTED_EDGE('',*,*,#426,.F.);
#429=ORIENTED_EDGE('',*,*,#428,.F.);
#431=ORIENTED_EDGE('',*,*,#430,.F.);
#433=ORIENTED_EDGE('',*,*,#432,.T.);
#434=EDGE_LOOP('',(#427,#429,#431,#433));
#435=FACE_OUTER_BOUND('',#434,.F.);
#437=FILL_AREA_STYLE_COLOUR('',#16);
#438=FILL_AREA_STYLE('',(#437));
#439=SURFACE_STYLE_FILL_AREA(#438);
#440=SURFACE_SIDE_STYLE('',(#439));
#441=SURFACE_STYLE_USAGE(.POSITIVE.,#440);
#442=PRESENTATION_STYLE_ASSIGNMENT((#441));
#443=STYLED_ITEM('',(#442),#436);
#444=CARTESIAN_POINT('',(0.E0,0.E0,0.E0));
#445=DIRECTION('',(0.E0,1.E0,0.E0));
#446=DIRECTION('',(1.E0,0.E0,0.E0));
#447=AXIS2_PLACEMENT_3D('',#444,#445,#446);
#448=CYLINDRICAL_SURFACE('',#447,2.E0);
#449=ORIENTED_EDGE('',*,*,#404,.F.);
#451=ORIENTED_EDGE('',*,*,#450,.T.);
#453=ORIENTED_EDGE('',*,*,#452,.F.);
#455=ORIENTED_EDGE('',*,*,#454,.F.);
#456=EDGE_LOOP('',(#449,#451,#453,#455));
#457=FACE_OUTER_BOUND('',#456,.F.);
#459=FILL_AREA_STYLE_COLOUR('',#16);
#460=FILL_AREA_STYLE('',(#459));
#461=SURFACE_STYLE_FILL_AREA(#460);
#462=SURFACE_SIDE_STYLE('',(#461));
#463=SURFACE_STYLE_USAGE(.POSITIVE.,#462);
#464=PRESENTATION_STYLE_ASSIGNMENT((#463));
#465=STYLED_ITEM('',(#464),#458);
#466=CARTESIAN_POINT('',(0.E0,8.8E0,0.E0));
#467=DIRECTION('',(0.E0,1.E0,0.E0));
#468=DIRECTION('',(-9.999693702990E-1,0.E0,7.826778631772E-3));
#469=AXIS2_PLACEMENT_3D('',#466,#467,#468);
#470=TOROIDAL_SURFACE('',#469,1.85E0,1.5E-1);
#471=ORIENTED_EDGE('',*,*,#426,.T.);
#473=ORIENTED_EDGE('',*,*,#472,.T.);
#475=ORIENTED_EDGE('',*,*,#474,.F.);
#477=ORIENTED_EDGE('',*,*,#476,.F.);
#478=EDGE_LOOP('',(#471,#473,#475,#477));
#479=FACE_OUTER_BOUND('',#478,.F.);
#481=FILL_AREA_STYLE_COLOUR('',#16);
#482=FILL_AREA_STYLE('',(#481));
#483=SURFACE_STYLE_FILL_AREA(#482);
#484=SURFACE_SIDE_STYLE('',(#483));
#485=SURFACE_STYLE_USAGE(.POSITIVE.,#484);
#486=PRESENTATION_STYLE_ASSIGNMENT((#485));
#487=STYLED_ITEM('',(#486),#480);
#488=CARTESIAN_POINT('',(0.E0,8.8E0,0.E0));
#489=DIRECTION('',(0.E0,1.E0,0.E0));
#490=DIRECTION('',(9.999693702990E-1,0.E0,-7.826778631772E-3));
#491=AXIS2_PLACEMENT_3D('',#488,#489,#490);
#492=TOROIDAL_SURFACE('',#491,1.85E0,1.5E-1);
#494=ORIENTED_EDGE('',*,*,#493,.T.);
#496=ORIENTED_EDGE('',*,*,#495,.F.);
#497=ORIENTED_EDGE('',*,*,#472,.F.);
#499=ORIENTED_EDGE('',*,*,#498,.T.);
#500=ORIENTED_EDGE('',*,*,#476,.T.);
#502=ORIENTED_EDGE('',*,*,#501,.F.);
#503=EDGE_LOOP('',(#494,#496,#497,#499,#500,#502));
#504=FACE_OUTER_BOUND('',#503,.F.);
#506=FILL_AREA_STYLE_COLOUR('',#16);
#507=FILL_AREA_STYLE('',(#506));
#508=SURFACE_STYLE_FILL_AREA(#507);
#509=SURFACE_SIDE_STYLE('',(#508));
#510=SURFACE_STYLE_USAGE(.POSITIVE.,#509);
#511=PRESENTATION_STYLE_ASSIGNMENT((#510));
#512=STYLED_ITEM('',(#511),#505);
#513=CARTESIAN_POINT('',(0.E0,8.95E0,0.E0));
#514=DIRECTION('',(0.E0,1.E0,0.E0));
#515=DIRECTION('',(-1.E0,0.E0,0.E0));
#516=AXIS2_PLACEMENT_3D('',#513,#514,#515);
#517=CYLINDRICAL_SURFACE('',#516,1.85E0);
#518=ORIENTED_EDGE('',*,*,#493,.F.);
#520=ORIENTED_EDGE('',*,*,#519,.T.);
#522=ORIENTED_EDGE('',*,*,#521,.T.);
#524=ORIENTED_EDGE('',*,*,#523,.F.);
#525=EDGE_LOOP('',(#518,#520,#522,#524));
#526=FACE_OUTER_BOUND('',#525,.F.);
#528=CARTESIAN_POINT('',(1.748068501248E0,8.95E0,6.056042560502E-1));
#529=DIRECTION('',(0.E0,0.E0,-1.E0));
#530=DIRECTION('',(-1.E0,0.E0,0.E0));
#531=AXIS2_PLACEMENT_3D('',#528,#529,#530);
#532=PLANE('',#531);
#534=ORIENTED_EDGE('',*,*,#533,.F.);
#535=ORIENTED_EDGE('',*,*,#523,.T.);
#537=ORIENTED_EDGE('',*,*,#536,.T.);
#538=ORIENTED_EDGE('',*,*,#519,.F.);
#539=EDGE_LOOP('',(#534,#535,#537,#538));
#540=FACE_OUTER_BOUND('',#539,.F.);
#542=CARTESIAN_POINT('',(0.E0,8.95E0,0.E0));
#543=DIRECTION('',(0.E0,1.E0,0.E0));
#544=DIRECTION('',(1.E0,0.E0,0.E0));
#545=AXIS2_PLACEMENT_3D('',#542,#543,#544);
#546=PLANE('',#545);
#547=ORIENTED_EDGE('',*,*,#533,.T.);
#548=ORIENTED_EDGE('',*,*,#501,.T.);
#549=ORIENTED_EDGE('',*,*,#474,.T.);
#550=ORIENTED_EDGE('',*,*,#495,.T.);
#551=EDGE_LOOP('',(#547,#548,#549,#550));
#552=FACE_OUTER_BOUND('',#551,.F.);
#554=FILL_AREA_STYLE_COLOUR('',#16);
#555=FILL_AREA_STYLE('',(#554));
#556=SURFACE_STYLE_FILL_AREA(#555);
#557=SURFACE_SIDE_STYLE('',(#556));
#558=SURFACE_STYLE_USAGE(.POSITIVE.,#557);
#559=PRESENTATION_STYLE_ASSIGNMENT((#558));
#560=STYLED_ITEM('',(#559),#553);
#561=CARTESIAN_POINT('',(0.E0,8.96E0,0.E0));
#562=DIRECTION('',(0.E0,1.E0,0.E0));
#563=DIRECTION('',(-1.E0,0.E0,0.E0));
#564=AXIS2_PLACEMENT_3D('',#561,#562,#563);
#565=PLANE('',#564);
#566=ORIENTED_EDGE('',*,*,#536,.F.);
#567=ORIENTED_EDGE('',*,*,#521,.F.);
#568=EDGE_LOOP('',(#566,#567));
#569=FACE_OUTER_BOUND('',#568,.F.);
#571=FILL_AREA_STYLE_COLOUR('',#4);
#572=FILL_AREA_STYLE('',(#571));
#573=SURFACE_STYLE_FILL_AREA(#572);
#574=SURFACE_SIDE_STYLE('',(#573));
#575=SURFACE_STYLE_USAGE(.POSITIVE.,#574);
#576=PRESENTATION_STYLE_ASSIGNMENT((#575));
#577=STYLED_ITEM('',(#576),#570);
#578=CARTESIAN_POINT('',(0.E0,0.E0,0.E0));
#579=DIRECTION('',(0.E0,1.E0,0.E0));
#580=DIRECTION('',(1.E0,0.E0,0.E0));
#581=AXIS2_PLACEMENT_3D('',#578,#579,#580);
#582=CYLINDRICAL_SURFACE('',#581,2.E0);
#583=ORIENTED_EDGE('',*,*,#498,.F.);
#584=ORIENTED_EDGE('',*,*,#432,.F.);
#586=ORIENTED_EDGE('',*,*,#585,.T.);
#588=ORIENTED_EDGE('',*,*,#587,.T.);
#589=ORIENTED_EDGE('',*,*,#428,.T.);
#590=EDGE_LOOP('',(#583,#584,#586,#588,#589));
#591=FACE_OUTER_BOUND('',#590,.F.);
#593=FILL_AREA_STYLE_COLOUR('',#16);
#594=FILL_AREA_STYLE('',(#593));
#595=SURFACE_STYLE_FILL_AREA(#594);
#596=SURFACE_SIDE_STYLE('',(#595));
#597=SURFACE_STYLE_USAGE(.POSITIVE.,#596);
#598=PRESENTATION_STYLE_ASSIGNMENT((#597));
#599=STYLED_ITEM('',(#598),#592);
#600=CARTESIAN_POINT('',(0.E0,0.E0,0.E0));
#601=DIRECTION('',(0.E0,1.E0,0.E0));
#602=DIRECTION('',(1.E0,0.E0,0.E0));
#603=AXIS2_PLACEMENT_3D('',#600,#601,#602);
#604=CYLINDRICAL_SURFACE('',#603,2.E0);
#606=ORIENTED_EDGE('',*,*,#605,.F.);
#607=ORIENTED_EDGE('',*,*,#454,.T.);
#609=ORIENTED_EDGE('',*,*,#608,.T.);
#611=ORIENTED_EDGE('',*,*,#610,.T.);
#612=ORIENTED_EDGE('',*,*,#450,.F.);
#613=EDGE_LOOP('',(#606,#607,#609,#611,#612));
#614=FACE_OUTER_BOUND('',#613,.F.);
#616=FILL_AREA_STYLE_COLOUR('',#16);
#617=FILL_AREA_STYLE('',(#616));
#618=SURFACE_STYLE_FILL_AREA(#617);
#619=SURFACE_SIDE_STYLE('',(#618));
#620=SURFACE_STYLE_USAGE(.POSITIVE.,#619);
#621=PRESENTATION_STYLE_ASSIGNMENT((#620));
#622=STYLED_ITEM('',(#621),#615);
#623=CARTESIAN_POINT('',(0.E0,1.091311896062E0,0.E0));
#624=DIRECTION('',(0.E0,1.E0,0.E0));
#625=DIRECTION('',(-8.577274050994E-3,0.E0,-9.999632145083E-1));
#626=AXIS2_PLACEMENT_3D('',#623,#624,#625);
#627=TOROIDAL_SURFACE('',#626,1.65E0,3.5E-1);
#629=ORIENTED_EDGE('',*,*,#628,.T.);
#631=ORIENTED_EDGE('',*,*,#630,.T.);
#632=ORIENTED_EDGE('',*,*,#585,.F.);
#633=ORIENTED_EDGE('',*,*,#430,.T.);
#635=ORIENTED_EDGE('',*,*,#634,.F.);
#637=ORIENTED_EDGE('',*,*,#636,.T.);
#638=EDGE_LOOP('',(#629,#631,#632,#633,#635,#637));
#639=FACE_OUTER_BOUND('',#638,.F.);
#641=FILL_AREA_STYLE_COLOUR('',#16);
#642=FILL_AREA_STYLE('',(#641));
#643=SURFACE_STYLE_FILL_AREA(#642);
#644=SURFACE_SIDE_STYLE('',(#643));
#645=SURFACE_STYLE_USAGE(.POSITIVE.,#644);
#646=PRESENTATION_STYLE_ASSIGNMENT((#645));
#647=STYLED_ITEM('',(#646),#640);
#648=CARTESIAN_POINT('',(0.E0,7.E-1,0.E0));
#649=DIRECTION('',(0.E0,1.E0,0.E0));
#650=DIRECTION('',(0.E0,0.E0,-1.E0));
#651=AXIS2_PLACEMENT_3D('',#648,#649,#650);
#652=TOROIDAL_SURFACE('',#651,2.E0,1.75E-1);
#654=ORIENTED_EDGE('',*,*,#653,.F.);
#656=ORIENTED_EDGE('',*,*,#655,.F.);
#657=ORIENTED_EDGE('',*,*,#628,.F.);
#659=ORIENTED_EDGE('',*,*,#658,.F.);
#660=EDGE_LOOP('',(#654,#656,#657,#659));
#661=FACE_OUTER_BOUND('',#660,.F.);
#663=FILL_AREA_STYLE_COLOUR('',#16);
#664=FILL_AREA_STYLE('',(#663));
#665=SURFACE_STYLE_FILL_AREA(#664);
#666=SURFACE_SIDE_STYLE('',(#665));
#667=SURFACE_STYLE_USAGE(.POSITIVE.,#666);
#668=PRESENTATION_STYLE_ASSIGNMENT((#667));
#669=STYLED_ITEM('',(#668),#662);
#670=CARTESIAN_POINT('',(0.E0,3.086881039375E-1,0.E0));
#671=DIRECTION('',(0.E0,1.E0,0.E0));
#672=DIRECTION('',(9.999668701019E-1,0.E0,8.139944631343E-3));
#673=AXIS2_PLACEMENT_3D('',#670,#671,#672);
#674=TOROIDAL_SURFACE('',#673,1.65E0,3.5E-1);
#675=ORIENTED_EDGE('',*,*,#653,.T.);
#677=ORIENTED_EDGE('',*,*,#676,.T.);
#679=ORIENTED_EDGE('',*,*,#678,.T.);
#680=ORIENTED_EDGE('',*,*,#452,.T.);
#681=ORIENTED_EDGE('',*,*,#610,.F.);
#683=ORIENTED_EDGE('',*,*,#682,.F.);
#684=EDGE_LOOP('',(#675,#677,#679,#680,#681,#683));
#685=FACE_OUTER_BOUND('',#684,.F.);
#687=FILL_AREA_STYLE_COLOUR('',#16);
#688=FILL_AREA_STYLE('',(#687));
#689=SURFACE_STYLE_FILL_AREA(#688);
#690=SURFACE_SIDE_STYLE('',(#689));
#691=SURFACE_STYLE_USAGE(.POSITIVE.,#690);
#692=PRESENTATION_STYLE_ASSIGNMENT((#691));
#693=STYLED_ITEM('',(#692),#686);
#694=CARTESIAN_POINT('',(0.E0,7.E-1,0.E0));
#695=DIRECTION('',(0.E0,1.E0,0.E0));
#696=DIRECTION('',(0.E0,0.E0,-1.E0));
#697=AXIS2_PLACEMENT_3D('',#694,#695,#696);
#698=TOROIDAL_SURFACE('',#697,2.E0,1.75E-1);
#699=ORIENTED_EDGE('',*,*,#676,.F.);
#700=ORIENTED_EDGE('',*,*,#658,.T.);
#701=ORIENTED_EDGE('',*,*,#636,.F.);
#703=ORIENTED_EDGE('',*,*,#702,.F.);
#704=ORIENTED_EDGE('',*,*,#655,.T.);
#706=ORIENTED_EDGE('',*,*,#705,.F.);
#707=EDGE_LOOP('',(#699,#700,#701,#703,#704,#706));
#708=FACE_OUTER_BOUND('',#707,.F.);
#710=FILL_AREA_STYLE_COLOUR('',#16);
#711=FILL_AREA_STYLE('',(#710));
#712=SURFACE_STYLE_FILL_AREA(#711);
#713=SURFACE_SIDE_STYLE('',(#712));
#714=SURFACE_STYLE_USAGE(.POSITIVE.,#713);
#715=PRESENTATION_STYLE_ASSIGNMENT((#714));
#716=STYLED_ITEM('',(#715),#709);
#717=CARTESIAN_POINT('',(0.E0,1.091311896062E0,0.E0));
#718=DIRECTION('',(0.E0,1.E0,0.E0));
#719=DIRECTION('',(8.577274050995E-3,0.E0,9.999632145083E-1));
#720=AXIS2_PLACEMENT_3D('',#717,#718,#719);
#721=TOROIDAL_SURFACE('',#720,1.65E0,3.5E-1);
#722=ORIENTED_EDGE('',*,*,#702,.T.);
#723=ORIENTED_EDGE('',*,*,#634,.T.);
#724=ORIENTED_EDGE('',*,*,#587,.F.);
#725=ORIENTED_EDGE('',*,*,#630,.F.);
#726=EDGE_LOOP('',(#722,#723,#724,#725));
#727=FACE_OUTER_BOUND('',#726,.F.);
#729=FILL_AREA_STYLE_COLOUR('',#16);
#730=FILL_AREA_STYLE('',(#729));
#731=SURFACE_STYLE_FILL_AREA(#730);
#732=SURFACE_SIDE_STYLE('',(#731));
#733=SURFACE_STYLE_USAGE(.POSITIVE.,#732);
#734=PRESENTATION_STYLE_ASSIGNMENT((#733));
#735=STYLED_ITEM('',(#734),#728);
#736=CARTESIAN_POINT('',(0.E0,3.086881039375E-1,0.E0));
#737=DIRECTION('',(0.E0,1.E0,0.E0));
#738=DIRECTION('',(-9.999668701019E-1,0.E0,-8.139944631343E-3));
#739=AXIS2_PLACEMENT_3D('',#736,#737,#738);
#740=TOROIDAL_SURFACE('',#739,1.65E0,3.5E-1);
#741=ORIENTED_EDGE('',*,*,#705,.T.);
#742=ORIENTED_EDGE('',*,*,#682,.T.);
#743=ORIENTED_EDGE('',*,*,#608,.F.);
#744=ORIENTED_EDGE('',*,*,#678,.F.);
#745=EDGE_LOOP('',(#741,#742,#743,#744));
#746=FACE_OUTER_BOUND('',#745,.F.);
#748=FILL_AREA_STYLE_COLOUR('',#16);
#749=FILL_AREA_STYLE('',(#748));
#750=SURFACE_STYLE_FILL_AREA(#749);
#751=SURFACE_SIDE_STYLE('',(#750));
#752=SURFACE_STYLE_USAGE(.POSITIVE.,#751);
#753=PRESENTATION_STYLE_ASSIGNMENT((#752));
#754=STYLED_ITEM('',(#753),#747);
#755=CARTESIAN_POINT('',(0.E0,2.E-1,0.E0));
#756=DIRECTION('',(0.E0,1.E0,0.E0));
#757=DIRECTION('',(-9.999635974514E-1,0.E0,-8.532512643498E-3));
#758=AXIS2_PLACEMENT_3D('',#755,#756,#757);
#759=TOROIDAL_SURFACE('',#758,1.8E0,2.E-1);
#760=ORIENTED_EDGE('',*,*,#605,.T.);
#761=ORIENTED_EDGE('',*,*,#409,.T.);
#762=ORIENTED_EDGE('',*,*,#381,.F.);
#763=ORIENTED_EDGE('',*,*,#406,.F.);
#764=EDGE_LOOP('',(#760,#761,#762,#763));
#765=FACE_OUTER_BOUND('',#764,.F.);
#767=FILL_AREA_STYLE_COLOUR('',#16);
#768=FILL_AREA_STYLE('',(#767));
#769=SURFACE_STYLE_FILL_AREA(#768);
#770=SURFACE_SIDE_STYLE('',(#769));
#771=SURFACE_STYLE_USAGE(.POSITIVE.,#770);
#772=PRESENTATION_STYLE_ASSIGNMENT((#771));
#773=STYLED_ITEM('',(#772),#766);
#774=CARTESIAN_POINT('',(0.E0,0.E0,0.E0));
#775=DIRECTION('',(0.E0,-1.E0,0.E0));
#776=DIRECTION('',(0.E0,0.E0,1.E0));
#777=AXIS2_PLACEMENT_3D('',#774,#775,#776);
#778=CYLINDRICAL_SURFACE('',#777,1.5E0);
#779=ORIENTED_EDGE('',*,*,#385,.F.);
#781=ORIENTED_EDGE('',*,*,#780,.T.);
#783=ORIENTED_EDGE('',*,*,#782,.T.);
#785=ORIENTED_EDGE('',*,*,#784,.F.);
#786=EDGE_LOOP('',(#779,#781,#783,#785));
#787=FACE_OUTER_BOUND('',#786,.F.);
#789=FILL_AREA_STYLE_COLOUR('',#16);
#790=FILL_AREA_STYLE('',(#789));
#791=SURFACE_STYLE_FILL_AREA(#790);
#792=SURFACE_SIDE_STYLE('',(#791));
#793=SURFACE_STYLE_USAGE(.POSITIVE.,#792);
#794=PRESENTATION_STYLE_ASSIGNMENT((#793));
#795=STYLED_ITEM('',(#794),#788);
#796=CARTESIAN_POINT('',(0.E0,0.E0,0.E0));
#797=DIRECTION('',(0.E0,-1.E0,0.E0));
#798=DIRECTION('',(0.E0,0.E0,1.E0));
#799=AXIS2_PLACEMENT_3D('',#796,#797,#798);
#800=CYLINDRICAL_SURFACE('',#799,1.5E0);
#801=ORIENTED_EDGE('',*,*,#387,.F.);
#802=ORIENTED_EDGE('',*,*,#784,.T.);
#804=ORIENTED_EDGE('',*,*,#803,.T.);
#805=ORIENTED_EDGE('',*,*,#780,.F.);
#806=EDGE_LOOP('',(#801,#802,#804,#805));
#807=FACE_OUTER_BOUND('',#806,.F.);
#809=FILL_AREA_STYLE_COLOUR('',#16);
#810=FILL_AREA_STYLE('',(#809));
#811=SURFACE_STYLE_FILL_AREA(#810);
#812=SURFACE_SIDE_STYLE('',(#811));
#813=SURFACE_STYLE_USAGE(.POSITIVE.,#812);
#814=PRESENTATION_STYLE_ASSIGNMENT((#813));
#815=STYLED_ITEM('',(#814),#808);
#816=CARTESIAN_POINT('',(0.E0,1.E-1,0.E0));
#817=DIRECTION('',(0.E0,-1.E0,0.E0));
#818=DIRECTION('',(0.E0,0.E0,1.E0));
#819=AXIS2_PLACEMENT_3D('',#816,#817,#818);
#820=PLANE('',#819);
#821=ORIENTED_EDGE('',*,*,#782,.F.);
#822=ORIENTED_EDGE('',*,*,#803,.F.);
#823=EDGE_LOOP('',(#821,#822));
#824=FACE_OUTER_BOUND('',#823,.F.);
#826=ORIENTED_EDGE('',*,*,#825,.T.);
#828=ORIENTED_EDGE('',*,*,#827,.T.);
#829=EDGE_LOOP('',(#826,#828));
#830=FACE_BOUND('',#829,.F.);
#832=ORIENTED_EDGE('',*,*,#831,.T.);
#834=ORIENTED_EDGE('',*,*,#833,.T.);
#835=EDGE_LOOP('',(#832,#834));
#836=FACE_BOUND('',#835,.F.);
#838=FILL_AREA_STYLE_COLOUR('',#4);
#839=FILL_AREA_STYLE('',(#838));
#840=SURFACE_STYLE_FILL_AREA(#839);
#841=SURFACE_SIDE_STYLE('',(#840));
#842=SURFACE_STYLE_USAGE(.POSITIVE.,#841);
#843=PRESENTATION_STYLE_ASSIGNMENT((#842));
#844=STYLED_ITEM('',(#843),#837);
#845=CARTESIAN_POINT('',(0.E0,1.E-1,8.E-1));
#846=DIRECTION('',(0.E0,-1.E0,0.E0));
#847=DIRECTION('',(0.E0,0.E0,-1.E0));
#848=AXIS2_PLACEMENT_3D('',#845,#846,#847);
#849=CYLINDRICAL_SURFACE('',#848,2.5E-1);
#850=ORIENTED_EDGE('',*,*,#825,.F.);
#852=ORIENTED_EDGE('',*,*,#851,.T.);
#854=ORIENTED_EDGE('',*,*,#853,.T.);
#856=ORIENTED_EDGE('',*,*,#855,.F.);
#857=EDGE_LOOP('',(#850,#852,#854,#856));
#858=FACE_OUTER_BOUND('',#857,.F.);
#860=FILL_AREA_STYLE_COLOUR('',#10);
#861=FILL_AREA_STYLE('',(#860));
#862=SURFACE_STYLE_FILL_AREA(#861);
#863=SURFACE_SIDE_STYLE('',(#862));
#864=SURFACE_STYLE_USAGE(.POSITIVE.,#863);
#865=PRESENTATION_STYLE_ASSIGNMENT((#864));
#866=STYLED_ITEM('',(#865),#859);
#867=CARTESIAN_POINT('',(0.E0,1.E-1,8.E-1));
#868=DIRECTION('',(0.E0,-1.E0,0.E0));
#869=DIRECTION('',(0.E0,0.E0,-1.E0));
#870=AXIS2_PLACEMENT_3D('',#867,#868,#869);
#871=CYLINDRICAL_SURFACE('',#870,2.5E-1);
#872=ORIENTED_EDGE('',*,*,#827,.F.);
#873=ORIENTED_EDGE('',*,*,#855,.T.);
#875=ORIENTED_EDGE('',*,*,#874,.T.);
#876=ORIENTED_EDGE('',*,*,#851,.F.);
#877=EDGE_LOOP('',(#872,#873,#875,#876));
#878=FACE_OUTER_BOUND('',#877,.F.);
#880=FILL_AREA_STYLE_COLOUR('',#10);
#881=FILL_AREA_STYLE('',(#880));
#882=SURFACE_STYLE_FILL_AREA(#881);
#883=SURFACE_SIDE_STYLE('',(#882));
#884=SURFACE_STYLE_USAGE(.POSITIVE.,#883);
#885=PRESENTATION_STYLE_ASSIGNMENT((#884));
#886=STYLED_ITEM('',(#885),#879);
#887=CARTESIAN_POINT('',(0.E0,-1.99E1,0.E0));
#888=DIRECTION('',(0.E0,-1.E0,0.E0));
#889=DIRECTION('',(0.E0,0.E0,-1.E0));
#890=AXIS2_PLACEMENT_3D('',#887,#888,#889);
#891=PLANE('',#890);
#892=ORIENTED_EDGE('',*,*,#853,.F.);
#893=ORIENTED_EDGE('',*,*,#874,.F.);
#894=EDGE_LOOP('',(#892,#893));
#895=FACE_OUTER_BOUND('',#894,.F.);
#897=FILL_AREA_STYLE_COLOUR('',#10);
#898=FILL_AREA_STYLE('',(#897));
#899=SURFACE_STYLE_FILL_AREA(#898);
#900=SURFACE_SIDE_STYLE('',(#899));
#901=SURFACE_STYLE_USAGE(.POSITIVE.,#900);
#902=PRESENTATION_STYLE_ASSIGNMENT((#901));
#903=STYLED_ITEM('',(#902),#896);
#904=CARTESIAN_POINT('',(0.E0,1.E-1,-8.E-1));
#905=DIRECTION('',(0.E0,-1.E0,0.E0));
#906=DIRECTION('',(-1.E0,0.E0,0.E0));
#907=AXIS2_PLACEMENT_3D('',#904,#905,#906);
#908=CYLINDRICAL_SURFACE('',#907,2.5E-1);
#909=ORIENTED_EDGE('',*,*,#831,.F.);
#911=ORIENTED_EDGE('',*,*,#910,.T.);
#913=ORIENTED_EDGE('',*,*,#912,.T.);
#915=ORIENTED_EDGE('',*,*,#914,.F.);
#916=EDGE_LOOP('',(#909,#911,#913,#915));
#917=FACE_OUTER_BOUND('',#916,.F.);
#919=FILL_AREA_STYLE_COLOUR('',#10);
#920=FILL_AREA_STYLE('',(#919));
#921=SURFACE_STYLE_FILL_AREA(#920);
#922=SURFACE_SIDE_STYLE('',(#921));
#923=SURFACE_STYLE_USAGE(.POSITIVE.,#922);
#924=PRESENTATION_STYLE_ASSIGNMENT((#923));
#925=STYLED_ITEM('',(#924),#918);
#926=CARTESIAN_POINT('',(0.E0,1.E-1,-8.E-1));
#927=DIRECTION('',(0.E0,-1.E0,0.E0));
#928=DIRECTION('',(-1.E0,0.E0,0.E0));
#929=AXIS2_PLACEMENT_3D('',#926,#927,#928);
#930=CYLINDRICAL_SURFACE('',#929,2.5E-1);
#931=ORIENTED_EDGE('',*,*,#833,.F.);
#932=ORIENTED_EDGE('',*,*,#914,.T.);
#934=ORIENTED_EDGE('',*,*,#933,.T.);
#935=ORIENTED_EDGE('',*,*,#910,.F.);
#936=EDGE_LOOP('',(#931,#932,#934,#935));
#937=FACE_OUTER_BOUND('',#936,.F.);
#939=FILL_AREA_STYLE_COLOUR('',#10);
#940=FILL_AREA_STYLE('',(#939));
#941=SURFACE_STYLE_FILL_AREA(#940);
#942=SURFACE_SIDE_STYLE('',(#941));
#943=SURFACE_STYLE_USAGE(.POSITIVE.,#942);
#944=PRESENTATION_STYLE_ASSIGNMENT((#943));
#945=STYLED_ITEM('',(#944),#938);
#946=CARTESIAN_POINT('',(0.E0,-2.49E1,0.E0));
#947=DIRECTION('',(0.E0,-1.E0,0.E0));
#948=DIRECTION('',(-1.E0,0.E0,0.E0));
#949=AXIS2_PLACEMENT_3D('',#946,#947,#948);
#950=PLANE('',#949);
#951=ORIENTED_EDGE('',*,*,#912,.F.);
#952=ORIENTED_EDGE('',*,*,#933,.F.);
#953=EDGE_LOOP('',(#951,#952));
#954=FACE_OUTER_BOUND('',#953,.F.);
#956=FILL_AREA_STYLE_COLOUR('',#10);
#957=FILL_AREA_STYLE('',(#956));
#958=SURFACE_STYLE_FILL_AREA(#957);
#959=SURFACE_SIDE_STYLE('',(#958));
#960=SURFACE_STYLE_USAGE(.POSITIVE.,#959);
#961=PRESENTATION_STYLE_ASSIGNMENT((#960));
#962=STYLED_ITEM('',(#961),#955);
#963=CLOSED_SHELL('',(#391,#413,#436,#458,#480,#505,#527,#541,#553,#570,#592,
#615,#640,#662,#686,#709,#728,#747,#766,#788,#808,#837,#859,#879,#896,#918,#938,
#955));
#964=MANIFOLD_SOLID_BREP('',#963);
#967=PLANE_ANGLE_MEASURE_WITH_UNIT(PLANE_ANGLE_MEASURE(1.745329251994E-2),#966);
#968=(CONVERSION_BASED_UNIT('DEGREE',#967)NAMED_UNIT(*)PLANE_ANGLE_UNIT());
#970=UNCERTAINTY_MEASURE_WITH_UNIT(LENGTH_MEASURE(3.432790879034E-3),#965,
'closure',
'Maximum model space distance between geometric entities at asserted connectivities');
#973=MECHANICAL_DESIGN_GEOMETRIC_PRESENTATION_REPRESENTATION('',(#398,#420,#443,
#465,#487,#512,#560,#577,#599,#622,#647,#669,#693,#716,#735,#754,#773,#795,#815,
#844,#866,#886,#903,#925,#945,#962),#971);
#974=APPLICATION_CONTEXT('automotive design');
#975=APPLICATION_PROTOCOL_DEFINITION('international standard',
'config_control_design',1994,#974);
#976=PRODUCT_DEFINITION_CONTEXT('',#974,'design');
#977=PRODUCT_CONTEXT('',#974,'mechanical');
#978=PRODUCT('0004089500','0004089500','NOT SPECIFIED',(#977));
#979=PRODUCT_DEFINITION_FORMATION_WITH_SPECIFIED_SOURCE('28','LAST_VERSION',
#978,.MADE.);
#987=DERIVED_UNIT_ELEMENT(#986,2.E0);
#988=AREA_UNIT((#987));
#989=MEASURE_REPRESENTATION_ITEM('surface area measure',AREA_MEASURE(
2.082239882148E2),#988);
#994=DERIVED_UNIT_ELEMENT(#993,3.E0);
#995=VOLUME_UNIT((#994));
#996=MEASURE_REPRESENTATION_ITEM('volume measure',VOLUME_MEASURE(
1.197389039439E2),#995);
#1000=CARTESIAN_POINT('centre point',(1.412807600452E-7,3.363632847432E0,
-6.261602599975E-3));
#1005=DERIVED_UNIT_ELEMENT(#1004,2.E0);
#1006=AREA_UNIT((#1005));
#1007=MEASURE_REPRESENTATION_ITEM('surface area measure',AREA_MEASURE(
2.082239882148E2),#1006);
#1012=DERIVED_UNIT_ELEMENT(#1011,3.E0);
#1013=VOLUME_UNIT((#1012));
#1014=MEASURE_REPRESENTATION_ITEM('volume measure',VOLUME_MEASURE(
1.197389039439E2),#1013);
#1018=CARTESIAN_POINT('centre point',(1.412807600452E-7,3.363632847432E0,
-6.261602599975E-3));
#1=DRAUGHTING_PRE_DEFINED_COLOUR('green');
#2=COLOUR_RGB('',1.1E-2,1.2E-2,1.E0);
#3=COLOUR_RGB('',1.6E-1,1.6E-1,1.8E-1);
#4=COLOUR_RGB('',2.4E-1,2.5E-1,2.6E-1);
#5=COLOUR_RGB('',4.1E-1,2.61589E-1,1.12848E-1);
#6=COLOUR_RGB('',5.04854E-1,1.5455E-2,1.5455E-2);
#7=COLOUR_RGB('',6.35294E-1,6.86275E-1,7.4902E-1);
#8=COLOUR_RGB('',6.40777E-1,6.40777E-1,6.40777E-1);
#9=COLOUR_RGB('',6.69062E-1,6.69903E-1,6.55217E-1);
#10=COLOUR_RGB('',8.2E-1,8.1E-1,8.1E-1);
#11=COLOUR_RGB('',9.21569E-1,7.05882E-1,4.70588E-1);
#12=DRAUGHTING_PRE_DEFINED_COLOUR('red');
#13=DRAUGHTING_PRE_DEFINED_COLOUR('yellow');
#14=COLOUR_RGB('',1.E0,1.E0,5.3E-1);
#15=COLOUR_RGB('',1.E0,1.E0,9.49E-1);
#16=COLOUR_RGB('',1.E0,1.E0,9.49E-1);
#17=COLOUR_RGB('',1.E0,1.E0,9.49E-1);
#18=COLOUR_RGB('',1.E0,1.E0,9.49E-1);
#19=COLOUR_RGB('',1.E0,1.E0,9.49E-1);
#20=DRAUGHTING_PRE_DEFINED_COLOUR('white');
#25=CIRCLE('',#24,1.8E0);
#30=CIRCLE('',#29,1.8E0);
#35=CIRCLE('',#34,1.5E0);
#40=CIRCLE('',#39,1.5E0);
#45=CIRCLE('',#44,2.E-1);
#50=CIRCLE('',#49,2.E0);
#59=CIRCLE('',#58,2.E0);
#68=CIRCLE('',#67,1.5E-1);
#73=CIRCLE('',#72,1.85E0);
#78=CIRCLE('',#77,1.5E-1);
#95=CIRCLE('',#94,1.85E0);
#100=CIRCLE('',#99,1.85E0);
#105=CIRCLE('',#104,1.85E0);
#114=CIRCLE('',#113,1.85E0);
#119=CIRCLE('',#118,2.E0);
#124=CIRCLE('',#123,2.E0);
#129=CIRCLE('',#128,2.E0);
#138=CIRCLE('',#137,2.E0);
#147=CIRCLE('',#146,2.E0);
#152=CIRCLE('',#151,2.E0);
#157=CIRCLE('',#156,1.883333333333E0);
#162=CIRCLE('',#161,2.E0);
#167=CIRCLE('',#166,3.5E-1);
#172=CIRCLE('',#171,1.883333333333E0);
#177=CIRCLE('',#176,2.E0);
#182=CIRCLE('',#181,3.5E-1);
#187=CIRCLE('',#186,1.883333333333E0);
#192=CIRCLE('',#191,1.75E-1);
#197=CIRCLE('',#196,1.883333333333E0);
#202=CIRCLE('',#201,1.883333333333E0);
#207=CIRCLE('',#206,1.75E-1);
#212=CIRCLE('',#211,1.883333333333E0);
#217=CIRCLE('',#216,3.5E-1);
#222=CIRCLE('',#221,3.5E-1);
#227=CIRCLE('',#226,2.E-1);
#240=CIRCLE('',#239,1.5E0);
#245=CIRCLE('',#244,1.5E0);
#250=CIRCLE('',#249,2.5E-1);
#255=CIRCLE('',#254,2.5E-1);
#260=CIRCLE('',#259,2.5E-1);
#265=CIRCLE('',#264,2.5E-1);
#278=CIRCLE('',#277,2.5E-1);
#283=CIRCLE('',#282,2.5E-1);
#296=CIRCLE('',#295,2.5E-1);
#301=CIRCLE('',#300,2.5E-1);
#379=EDGE_CURVE('',#364,#365,#25,.T.);
#381=EDGE_CURVE('',#365,#364,#30,.T.);
#385=EDGE_CURVE('',#340,#341,#35,.T.);
#387=EDGE_CURVE('',#341,#340,#40,.T.);
#391=ADVANCED_FACE('',(#384,#390),#378,.F.);
#404=EDGE_CURVE('',#360,#361,#59,.T.);
#406=EDGE_CURVE('',#361,#365,#227,.T.);
#409=EDGE_CURVE('',#360,#364,#45,.T.);
#413=ADVANCED_FACE('',(#412),#403,.T.);
#426=EDGE_CURVE('',#304,#305,#50,.T.);
#428=EDGE_CURVE('',#331,#304,#133,.T.);
#430=EDGE_CURVE('',#324,#331,#162,.T.);
#432=EDGE_CURVE('',#324,#305,#54,.T.);
#436=ADVANCED_FACE('',(#435),#425,.T.);
#450=EDGE_CURVE('',#360,#321,#63,.T.);
#452=EDGE_CURVE('',#318,#321,#177,.T.);
#454=EDGE_CURVE('',#361,#318,#142,.T.);
#458=ADVANCED_FACE('',(#457),#448,.T.);
#472=EDGE_CURVE('',#305,#309,#78,.T.);
#474=EDGE_CURVE('',#308,#309,#100,.T.);
#476=EDGE_CURVE('',#304,#308,#68,.T.);
#480=ADVANCED_FACE('',(#479),#470,.T.);
#493=EDGE_CURVE('',#373,#372,#73,.T.);
#495=EDGE_CURVE('',#309,#372,#105,.T.);
#498=EDGE_CURVE('',#305,#304,#119,.T.);
#501=EDGE_CURVE('',#373,#308,#95,.T.);
#505=ADVANCED_FACE('',(#504),#492,.T.);
#519=EDGE_CURVE('',#373,#369,#82,.T.);
#521=EDGE_CURVE('',#369,#368,#114,.T.);
#523=EDGE_CURVE('',#372,#368,#86,.T.);
#527=ADVANCED_FACE('',(#526),#517,.T.);
#533=EDGE_CURVE('',#372,#373,#90,.T.);
#536=EDGE_CURVE('',#368,#369,#109,.T.);
#541=ADVANCED_FACE('',(#540),#532,.T.);
#553=ADVANCED_FACE('',(#552),#546,.T.);
#570=ADVANCED_FACE('',(#569),#565,.T.);
#585=EDGE_CURVE('',#324,#325,#124,.T.);
#587=EDGE_CURVE('',#325,#331,#129,.T.);
#592=ADVANCED_FACE('',(#591),#582,.T.);
#605=EDGE_CURVE('',#361,#360,#138,.T.);
#608=EDGE_CURVE('',#318,#319,#147,.T.);
#610=EDGE_CURVE('',#319,#321,#152,.T.);
#615=ADVANCED_FACE('',(#614),#604,.T.);
#628=EDGE_CURVE('',#333,#328,#157,.T.);
#630=EDGE_CURVE('',#328,#325,#217,.T.);
#634=EDGE_CURVE('',#329,#331,#167,.T.);
#636=EDGE_CURVE('',#329,#333,#197,.T.);
#640=ADVANCED_FACE('',(#639),#627,.T.);
#653=EDGE_CURVE('',#315,#312,#172,.T.);
#655=EDGE_CURVE('',#328,#315,#207,.T.);
#658=EDGE_CURVE('',#312,#333,#192,.T.);
#662=ADVANCED_FACE('',(#661),#652,.F.);
#676=EDGE_CURVE('',#312,#313,#187,.T.);
#678=EDGE_CURVE('',#313,#318,#222,.T.);
#682=EDGE_CURVE('',#315,#319,#182,.T.);
#686=ADVANCED_FACE('',(#685),#674,.T.);
#702=EDGE_CURVE('',#328,#329,#202,.T.);
#705=EDGE_CURVE('',#313,#315,#212,.T.);
#709=ADVANCED_FACE('',(#708),#698,.F.);
#728=ADVANCED_FACE('',(#727),#721,.T.);
#747=ADVANCED_FACE('',(#746),#740,.T.);
#766=ADVANCED_FACE('',(#765),#759,.T.);
#780=EDGE_CURVE('',#340,#336,#231,.T.);
#782=EDGE_CURVE('',#336,#337,#240,.T.);
#784=EDGE_CURVE('',#341,#337,#235,.T.);
#788=ADVANCED_FACE('',(#787),#778,.F.);
#803=EDGE_CURVE('',#337,#336,#245,.T.);
#808=ADVANCED_FACE('',(#807),#800,.F.);
#825=EDGE_CURVE('',#348,#349,#250,.T.);
#827=EDGE_CURVE('',#349,#348,#255,.T.);
#831=EDGE_CURVE('',#356,#357,#260,.T.);
#833=EDGE_CURVE('',#357,#356,#265,.T.);
#837=ADVANCED_FACE('',(#824,#830,#836),#820,.T.);
#851=EDGE_CURVE('',#348,#344,#269,.T.);
#853=EDGE_CURVE('',#344,#345,#278,.T.);
#855=EDGE_CURVE('',#349,#345,#273,.T.);
#859=ADVANCED_FACE('',(#858),#849,.T.);
#874=EDGE_CURVE('',#345,#344,#283,.T.);
#879=ADVANCED_FACE('',(#878),#871,.T.);
#896=ADVANCED_FACE('',(#895),#891,.T.);
#910=EDGE_CURVE('',#356,#352,#287,.T.);
#912=EDGE_CURVE('',#352,#353,#296,.T.);
#914=EDGE_CURVE('',#357,#353,#291,.T.);
#918=ADVANCED_FACE('',(#917),#908,.T.);
#933=EDGE_CURVE('',#353,#352,#301,.T.);
#938=ADVANCED_FACE('',(#937),#930,.T.);
#955=ADVANCED_FACE('',(#954),#950,.T.);
#965=(LENGTH_UNIT()NAMED_UNIT(*)SI_UNIT(.MILLI.,.METRE.));
#966=(NAMED_UNIT(*)PLANE_ANGLE_UNIT()SI_UNIT($,.RADIAN.));
#969=(NAMED_UNIT(*)SI_UNIT($,.STERADIAN.)SOLID_ANGLE_UNIT());
#971=(GEOMETRIC_REPRESENTATION_CONTEXT(3)GLOBAL_UNCERTAINTY_ASSIGNED_CONTEXT((
#970))GLOBAL_UNIT_ASSIGNED_CONTEXT((#965,#968,#969))REPRESENTATION_CONTEXT
('ID1','3'));
#972=ADVANCED_BREP_SHAPE_REPRESENTATION('',(#964),#971);
#980=PRODUCT_DEFINITION('design','',#979,#976);
#981=PRODUCT_DEFINITION_SHAPE('','SHAPE FOR 0004089500.',#980);
#982=SHAPE_ASPECT('','solid data associated with 0004089500',#981,.F.);
#983=PROPERTY_DEFINITION('',
'shape for solid data with which properties are associated',#982);
#984=SHAPE_REPRESENTATION('',(#964),#971);
#985=SHAPE_DEFINITION_REPRESENTATION(#983,#984);
#986=(LENGTH_UNIT()NAMED_UNIT(*)SI_UNIT(.MILLI.,.METRE.));
#990=PROPERTY_DEFINITION('geometric validation property','area of 0004089500',
#982);
#991=REPRESENTATION('surface area',(#989),#971);
#992=PROPERTY_DEFINITION_REPRESENTATION(#990,#991);
#993=(LENGTH_UNIT()NAMED_UNIT(*)SI_UNIT(.MILLI.,.METRE.));
#997=PROPERTY_DEFINITION('geometric validation property','volume of 0004089500',
#982);
#998=REPRESENTATION('volume',(#996),#971);
#999=PROPERTY_DEFINITION_REPRESENTATION(#997,#998);
#1001=PROPERTY_DEFINITION('geometric validation property',
'centroid of 0004089500',#982);
#1002=REPRESENTATION('centroid',(#1000),#971);
#1003=PROPERTY_DEFINITION_REPRESENTATION(#1001,#1002);
#1004=(LENGTH_UNIT()NAMED_UNIT(*)SI_UNIT(.MILLI.,.METRE.));
#1008=PROPERTY_DEFINITION('geometric validation property','area of 0004089500',
#981);
#1009=REPRESENTATION('surface area',(#1007),#971);
#1010=PROPERTY_DEFINITION_REPRESENTATION(#1008,#1009);
#1011=(LENGTH_UNIT()NAMED_UNIT(*)SI_UNIT(.MILLI.,.METRE.));
#1015=PROPERTY_DEFINITION('geometric validation property',
'volume of 0004089500',#981);
#1016=REPRESENTATION('volume',(#1014),#971);
#1017=PROPERTY_DEFINITION_REPRESENTATION(#1015,#1016);
#1019=PROPERTY_DEFINITION('geometric validation property',
'centroid of 0004089500',#981);
#1020=REPRESENTATION('centroid',(#1018),#971);
#1021=PROPERTY_DEFINITION_REPRESENTATION(#1019,#1020);
#1022=SHAPE_DEFINITION_REPRESENTATION(#981,#972);
ENDSEC;
END-ISO-10303-21;
