ISO-10303-21;
HEADER;
FILE_DESCRIPTION((''),'2;1');
FILE_NAME('ASM0011_ASM','2026-04-03T16:46:41',('Administrator'),(''),
'CREO PARAMETRIC BY PTC INC, 2018100','CREO PARAMETRIC BY PTC INC, 2018100','');
FILE_SCHEMA(('AUTOMOTIVE_DESIGN { 1 0 10303 214 1 1 1 1 }'));
ENDSEC;
DATA;
#23=CARTESIAN_POINT('',(0.E0,0.E0,0.E0));
#24=DIRECTION('',(0.E0,1.E0,0.E0));
#25=DIRECTION('',(9.579380127573E-12,0.E0,1.E0));
#26=AXIS2_PLACEMENT_3D('',#23,#24,#25);
#28=CARTESIAN_POINT('',(0.E0,0.E0,0.E0));
#29=DIRECTION('',(0.E0,1.E0,0.E0));
#30=DIRECTION('',(-1.E0,0.E0,4.425012411957E-12));
#31=AXIS2_PLACEMENT_3D('',#28,#29,#30);
#33=CARTESIAN_POINT('',(0.E0,0.E0,0.E0));
#34=DIRECTION('',(0.E0,-1.E0,0.E0));
#35=DIRECTION('',(0.E0,0.E0,1.E0));
#36=AXIS2_PLACEMENT_3D('',#33,#34,#35);
#38=CARTESIAN_POINT('',(0.E0,0.E0,0.E0));
#39=DIRECTION('',(0.E0,-1.E0,0.E0));
#40=DIRECTION('',(0.E0,0.E0,-1.E0));
#41=AXIS2_PLACEMENT_3D('',#38,#39,#40);
#43=CARTESIAN_POINT('',(9.599418482331E-12,2.5E-1,4.749977422528E0));
#44=DIRECTION('',(1.E0,0.E0,-2.020939839087E-12));
#45=DIRECTION('',(2.020856879610E-12,9.060806412371E-3,9.999589500510E-1));
#46=AXIS2_PLACEMENT_3D('',#43,#44,#45);
#48=CARTESIAN_POINT('',(0.E0,2.522652016032E-1,0.E0));
#49=DIRECTION('',(0.E0,1.E0,0.E0));
#50=DIRECTION('',(2.164781195052E-12,0.E0,1.E0));
#51=AXIS2_PLACEMENT_3D('',#48,#49,#50);
#53=CARTESIAN_POINT('',(0.E0,7.940954244926E-1,0.E0));
#54=DIRECTION('',(0.E0,1.E0,0.E0));
#55=DIRECTION('',(-5.250619199038E-12,0.E0,1.E0));
#56=AXIS2_PLACEMENT_3D('',#53,#54,#55);
#58=CARTESIAN_POINT('',(-4.2E0,2.450165564729E-1,-1.607332322795E-12));
#59=DIRECTION('',(3.826973460352E-13,0.E0,-1.E0));
#60=DIRECTION('',(-9.999589500510E-1,9.060806412865E-3,-3.826816363287E-13));
#61=AXIS2_PLACEMENT_3D('',#58,#59,#60);
#63=CARTESIAN_POINT('',(0.E0,2.522652016032E-1,0.E0));
#64=DIRECTION('',(0.E0,1.E0,0.E0));
#65=DIRECTION('',(-1.E0,0.E0,-3.826228373766E-13));
#66=AXIS2_PLACEMENT_3D('',#63,#64,#65);
#68=CARTESIAN_POINT('',(9.090395103328E-12,2.450165564729E-1,4.2E0));
#69=DIRECTION('',(-1.E0,0.E0,2.164379786507E-12));
#70=DIRECTION('',(2.164290938827E-12,9.060806412865E-3,9.999589500510E-1));
#71=AXIS2_PLACEMENT_3D('',#68,#69,#70);
#73=CARTESIAN_POINT('',(-4.749977422528E0,2.5E-1,-2.606005689021E-12));
#74=DIRECTION('',(-5.486349222150E-13,0.E0,1.E0));
#75=DIRECTION('',(-9.999589500510E-1,9.060806412808E-3,-5.486124007795E-13));
#76=AXIS2_PLACEMENT_3D('',#73,#74,#75);
#78=CARTESIAN_POINT('',(0.E0,1.E0,5.E0));
#79=DIRECTION('',(-1.E0,0.E0,0.E0));
#80=DIRECTION('',(0.E0,6.863485850246E-1,-7.272727272727E-1));
#81=AXIS2_PLACEMENT_3D('',#78,#79,#80);
#83=CARTESIAN_POINT('',(0.E0,7.940954244926E-1,0.E0));
#84=DIRECTION('',(0.E0,-1.E0,0.E0));
#85=DIRECTION('',(0.E0,0.E0,1.E0));
#86=AXIS2_PLACEMENT_3D('',#83,#84,#85);
#88=CARTESIAN_POINT('',(0.E0,7.940954244926E-1,0.E0));
#89=DIRECTION('',(0.E0,-1.E0,0.E0));
#90=DIRECTION('',(-1.E0,0.E0,0.E0));
#91=AXIS2_PLACEMENT_3D('',#88,#89,#90);
#93=CARTESIAN_POINT('',(0.E0,1.E0,-5.E0));
#94=DIRECTION('',(-1.E0,0.E0,0.E0));
#95=DIRECTION('',(0.E0,-6.863485850246E-1,7.272727272727E-1));
#96=AXIS2_PLACEMENT_3D('',#93,#94,#95);
#98=CARTESIAN_POINT('',(0.E0,1.205904575507E0,0.E0));
#99=DIRECTION('',(0.E0,1.E0,0.E0));
#100=DIRECTION('',(0.E0,0.E0,-1.E0));
#101=AXIS2_PLACEMENT_3D('',#98,#99,#100);
#103=CARTESIAN_POINT('',(0.E0,1.205904575507E0,0.E0));
#104=DIRECTION('',(0.E0,1.E0,0.E0));
#105=DIRECTION('',(-1.E0,0.E0,0.E0));
#106=AXIS2_PLACEMENT_3D('',#103,#104,#105);
#108=CARTESIAN_POINT('',(0.E0,1.754983443527E0,0.E0));
#109=DIRECTION('',(0.E0,1.E0,0.E0));
#110=DIRECTION('',(1.E0,0.E0,0.E0));
#111=AXIS2_PLACEMENT_3D('',#108,#109,#110);
#113=CARTESIAN_POINT('',(0.E0,1.205904575507E0,0.E0));
#114=DIRECTION('',(0.E0,-1.E0,0.E0));
#115=DIRECTION('',(-1.592796448179E-12,0.E0,-1.E0));
#116=AXIS2_PLACEMENT_3D('',#113,#114,#115);
#118=CARTESIAN_POINT('',(-2.194764162078E-11,1.754983443527E0,4.2E0));
#119=DIRECTION('',(1.E0,0.E0,5.225628089967E-12));
#120=DIRECTION('',(-5.225628089967E-12,-3.552713678801E-14,1.E0));
#121=AXIS2_PLACEMENT_3D('',#118,#119,#120);
#123=CARTESIAN_POINT('',(0.E0,1.785E1,0.E0));
#124=DIRECTION('',(0.E0,-1.E0,0.E0));
#125=DIRECTION('',(-1.E0,0.E0,0.E0));
#126=AXIS2_PLACEMENT_3D('',#123,#124,#125);
#128=DIRECTION('',(0.E0,1.E0,-4.714046390163E-14));
#129=VECTOR('',#128,1.609501655647E1);
#130=CARTESIAN_POINT('',(5.E0,1.754983443527E0,7.609992630474E-13));
#131=LINE('',#130,#129);
#132=CARTESIAN_POINT('',(-4.85E0,1.785E1,7.049222316979E-14));
#133=DIRECTION('',(-1.453524800521E-14,0.E0,-1.E0));
#134=DIRECTION('',(-1.E0,2.368475785867E-14,1.453524800521E-14));
#135=AXIS2_PLACEMENT_3D('',#132,#133,#134);
#137=CARTESIAN_POINT('',(4.85E0,1.785E1,-7.050610095760E-14));
#138=DIRECTION('',(1.453698272869E-14,0.E0,1.E0));
#139=DIRECTION('',(1.E0,2.368475785867E-14,-1.453698272869E-14));
#140=AXIS2_PLACEMENT_3D('',#137,#138,#139);
#142=CARTESIAN_POINT('',(0.E0,1.785E1,0.E0));
#143=DIRECTION('',(0.E0,-1.E0,0.E0));
#144=DIRECTION('',(1.E0,0.E0,0.E0));
#145=AXIS2_PLACEMENT_3D('',#142,#143,#144);
#147=CARTESIAN_POINT('',(0.E0,1.754983443527E0,0.E0));
#148=DIRECTION('',(0.E0,1.E0,0.E0));
#149=DIRECTION('',(0.E0,0.E0,1.E0));
#150=AXIS2_PLACEMENT_3D('',#147,#148,#149);
#152=CARTESIAN_POINT('',(0.E0,1.754983443527E0,0.E0));
#153=DIRECTION('',(0.E0,1.E0,0.E0));
#154=DIRECTION('',(-1.E0,0.E0,0.E0));
#155=AXIS2_PLACEMENT_3D('',#152,#153,#154);
#157=DIRECTION('',(0.E0,1.E0,5.567028542638E-14));
#158=VECTOR('',#157,1.609501655647E1);
#159=CARTESIAN_POINT('',(-5.E0,1.754983443527E0,-8.994011962342E-13));
#160=LINE('',#159,#158);
#161=CARTESIAN_POINT('',(-4.2E0,1.754983443527E0,-2.169606508340E-11));
#162=DIRECTION('',(-5.165728088341E-12,0.E0,1.E0));
#163=DIRECTION('',(-1.E0,-3.469446951954E-14,-5.165728088341E-12));
#164=AXIS2_PLACEMENT_3D('',#161,#162,#163);
#166=CARTESIAN_POINT('',(0.E0,1.8E1,0.E0));
#167=DIRECTION('',(0.E0,-1.E0,0.E0));
#168=DIRECTION('',(-1.E0,0.E0,0.E0));
#169=AXIS2_PLACEMENT_3D('',#166,#167,#168);
#171=CARTESIAN_POINT('',(0.E0,1.8E1,0.E0));
#172=DIRECTION('',(0.E0,-1.E0,0.E0));
#173=DIRECTION('',(1.E0,0.E0,0.E0));
#174=AXIS2_PLACEMENT_3D('',#171,#172,#173);
#176=CARTESIAN_POINT('',(0.E0,1.8E1,0.E0));
#177=DIRECTION('',(0.E0,1.E0,0.E0));
#178=DIRECTION('',(-1.E0,0.E0,0.E0));
#179=AXIS2_PLACEMENT_3D('',#176,#177,#178);
#181=CARTESIAN_POINT('',(0.E0,1.8E1,0.E0));
#182=DIRECTION('',(0.E0,1.E0,0.E0));
#183=DIRECTION('',(1.E0,0.E0,0.E0));
#184=AXIS2_PLACEMENT_3D('',#181,#182,#183);
#186=DIRECTION('',(0.E0,-1.E0,0.E0));
#187=VECTOR('',#186,2.E-2);
#188=CARTESIAN_POINT('',(-3.5E0,1.8E1,0.E0));
#189=LINE('',#188,#187);
#190=DIRECTION('',(0.E0,-1.E0,0.E0));
#191=VECTOR('',#190,2.E-2);
#192=CARTESIAN_POINT('',(3.5E0,1.8E1,0.E0));
#193=LINE('',#192,#191);
#194=CARTESIAN_POINT('',(0.E0,1.798E1,0.E0));
#195=DIRECTION('',(0.E0,1.E0,0.E0));
#196=DIRECTION('',(-1.E0,0.E0,0.E0));
#197=AXIS2_PLACEMENT_3D('',#194,#195,#196);
#199=CARTESIAN_POINT('',(0.E0,1.798E1,0.E0));
#200=DIRECTION('',(0.E0,1.E0,0.E0));
#201=DIRECTION('',(1.E0,0.E0,0.E0));
#202=AXIS2_PLACEMENT_3D('',#199,#200,#201);
#204=DIRECTION('',(0.E0,1.E0,0.E0));
#205=VECTOR('',#204,1.E-1);
#206=CARTESIAN_POINT('',(0.E0,0.E0,3.7E0));
#207=LINE('',#206,#205);
#208=DIRECTION('',(0.E0,1.E0,0.E0));
#209=VECTOR('',#208,1.E-1);
#210=CARTESIAN_POINT('',(0.E0,0.E0,-3.7E0));
#211=LINE('',#210,#209);
#212=CARTESIAN_POINT('',(0.E0,1.E-1,0.E0));
#213=DIRECTION('',(0.E0,-1.E0,0.E0));
#214=DIRECTION('',(0.E0,0.E0,1.E0));
#215=AXIS2_PLACEMENT_3D('',#212,#213,#214);
#217=CARTESIAN_POINT('',(0.E0,1.E-1,0.E0));
#218=DIRECTION('',(0.E0,-1.E0,0.E0));
#219=DIRECTION('',(0.E0,0.E0,-1.E0));
#220=AXIS2_PLACEMENT_3D('',#217,#218,#219);
#222=CARTESIAN_POINT('',(0.E0,1.E-1,2.5E0));
#223=DIRECTION('',(0.E0,-1.E0,0.E0));
#224=DIRECTION('',(0.E0,0.E0,-1.E0));
#225=AXIS2_PLACEMENT_3D('',#222,#223,#224);
#227=CARTESIAN_POINT('',(0.E0,1.E-1,2.5E0));
#228=DIRECTION('',(0.E0,-1.E0,0.E0));
#229=DIRECTION('',(0.E0,0.E0,1.E0));
#230=AXIS2_PLACEMENT_3D('',#227,#228,#229);
#232=CARTESIAN_POINT('',(0.E0,1.E-1,-2.5E0));
#233=DIRECTION('',(0.E0,-1.E0,0.E0));
#234=DIRECTION('',(-1.E0,0.E0,0.E0));
#235=AXIS2_PLACEMENT_3D('',#232,#233,#234);
#237=CARTESIAN_POINT('',(0.E0,1.E-1,-2.5E0));
#238=DIRECTION('',(0.E0,-1.E0,0.E0));
#239=DIRECTION('',(1.E0,0.E0,0.E0));
#240=AXIS2_PLACEMENT_3D('',#237,#238,#239);
#242=DIRECTION('',(0.E0,-1.E0,0.E0));
#243=VECTOR('',#242,2.E1);
#244=CARTESIAN_POINT('',(0.E0,1.E-1,2.2E0));
#245=LINE('',#244,#243);
#246=DIRECTION('',(0.E0,-1.E0,0.E0));
#247=VECTOR('',#246,2.E1);
#248=CARTESIAN_POINT('',(0.E0,1.E-1,2.8E0));
#249=LINE('',#248,#247);
#250=CARTESIAN_POINT('',(0.E0,-1.99E1,2.5E0));
#251=DIRECTION('',(0.E0,-1.E0,0.E0));
#252=DIRECTION('',(0.E0,0.E0,-1.E0));
#253=AXIS2_PLACEMENT_3D('',#250,#251,#252);
#255=CARTESIAN_POINT('',(0.E0,-1.99E1,2.5E0));
#256=DIRECTION('',(0.E0,-1.E0,0.E0));
#257=DIRECTION('',(0.E0,0.E0,1.E0));
#258=AXIS2_PLACEMENT_3D('',#255,#256,#257);
#260=DIRECTION('',(0.E0,-1.E0,0.E0));
#261=VECTOR('',#260,2.5E1);
#262=CARTESIAN_POINT('',(-3.E-1,1.E-1,-2.5E0));
#263=LINE('',#262,#261);
#264=DIRECTION('',(0.E0,-1.E0,0.E0));
#265=VECTOR('',#264,2.5E1);
#266=CARTESIAN_POINT('',(3.E-1,1.E-1,-2.5E0));
#267=LINE('',#266,#265);
#268=CARTESIAN_POINT('',(0.E0,-2.49E1,-2.5E0));
#269=DIRECTION('',(0.E0,-1.E0,0.E0));
#270=DIRECTION('',(-1.E0,0.E0,0.E0));
#271=AXIS2_PLACEMENT_3D('',#268,#269,#270);
#273=CARTESIAN_POINT('',(0.E0,-2.49E1,-2.5E0));
#274=DIRECTION('',(0.E0,-1.E0,0.E0));
#275=DIRECTION('',(1.E0,0.E0,0.E0));
#276=AXIS2_PLACEMENT_3D('',#273,#274,#275);
#278=CARTESIAN_POINT('',(-5.E0,1.785E1,0.E0));
#279=CARTESIAN_POINT('',(5.E0,1.785E1,0.E0));
#280=VERTEX_POINT('',#278);
#281=VERTEX_POINT('',#279);
#282=CARTESIAN_POINT('',(-4.85E0,1.8E1,0.E0));
#283=CARTESIAN_POINT('',(4.85E0,1.8E1,0.E0));
#284=VERTEX_POINT('',#282);
#285=VERTEX_POINT('',#283);
#286=CARTESIAN_POINT('',(5.E0,1.754983443527E0,7.609992630474E-13));
#287=VERTEX_POINT('',#286);
#288=CARTESIAN_POINT('',(-5.E0,1.754983443527E0,-8.994011962342E-13));
#289=VERTEX_POINT('',#288);
#290=CARTESIAN_POINT('',(0.E0,1.205904575507E0,4.781818181818E0));
#291=CARTESIAN_POINT('',(0.E0,7.940954244926E-1,4.781818181818E0));
#292=VERTEX_POINT('',#290);
#293=VERTEX_POINT('',#291);
#294=CARTESIAN_POINT('',(0.E0,7.940954244926E-1,-4.781818181818E0));
#295=CARTESIAN_POINT('',(0.E0,1.205904575507E0,-4.781818181818E0));
#296=VERTEX_POINT('',#294);
#297=VERTEX_POINT('',#295);
#298=CARTESIAN_POINT('',(0.E0,1.E-1,3.7E0));
#299=CARTESIAN_POINT('',(0.E0,1.E-1,-3.7E0));
#300=VERTEX_POINT('',#298);
#301=VERTEX_POINT('',#299);
#302=CARTESIAN_POINT('',(0.E0,0.E0,3.7E0));
#303=CARTESIAN_POINT('',(0.E0,0.E0,-3.7E0));
#304=VERTEX_POINT('',#302);
#305=VERTEX_POINT('',#303);
#306=CARTESIAN_POINT('',(0.E0,-1.99E1,2.2E0));
#307=CARTESIAN_POINT('',(0.E0,-1.99E1,2.8E0));
#308=VERTEX_POINT('',#306);
#309=VERTEX_POINT('',#307);
#310=CARTESIAN_POINT('',(0.E0,1.E-1,2.2E0));
#311=CARTESIAN_POINT('',(0.E0,1.E-1,2.8E0));
#312=VERTEX_POINT('',#310);
#313=VERTEX_POINT('',#311);
#314=CARTESIAN_POINT('',(-3.E-1,-2.49E1,-2.5E0));
#315=CARTESIAN_POINT('',(3.E-1,-2.49E1,-2.5E0));
#316=VERTEX_POINT('',#314);
#317=VERTEX_POINT('',#315);
#318=CARTESIAN_POINT('',(-3.E-1,1.E-1,-2.5E0));
#319=CARTESIAN_POINT('',(3.E-1,1.E-1,-2.5E0));
#320=VERTEX_POINT('',#318);
#321=VERTEX_POINT('',#319);
#322=CARTESIAN_POINT('',(-4.781818181818E0,1.205904575507E0,0.E0));
#323=VERTEX_POINT('',#322);
#324=CARTESIAN_POINT('',(0.E0,1.754983443527E0,5.E0));
#325=VERTEX_POINT('',#324);
#326=CARTESIAN_POINT('',(-4.781818181818E0,7.940954244926E-1,0.E0));
#327=VERTEX_POINT('',#326);
#328=CARTESIAN_POINT('',(1.082383488393E-11,2.522652016032E-1,
4.999967160041E0));
#329=CARTESIAN_POINT('',(-4.999967160041E0,2.522652016032E-1,
-1.913478480547E-12));
#330=VERTEX_POINT('',#328);
#331=VERTEX_POINT('',#329);
#332=CARTESIAN_POINT('',(4.550183932779E-11,0.E0,4.749977422528E0));
#333=CARTESIAN_POINT('',(-4.749977422528E0,0.E0,2.101911113241E-11));
#334=VERTEX_POINT('',#332);
#335=VERTEX_POINT('',#333);
#336=CARTESIAN_POINT('',(-3.5E0,1.798E1,0.E0));
#337=CARTESIAN_POINT('',(3.5E0,1.798E1,0.E0));
#338=VERTEX_POINT('',#336);
#339=VERTEX_POINT('',#337);
#340=CARTESIAN_POINT('',(-3.5E0,1.8E1,0.E0));
#341=CARTESIAN_POINT('',(3.5E0,1.8E1,0.E0));
#342=VERTEX_POINT('',#340);
#343=VERTEX_POINT('',#341);
#344=CARTESIAN_POINT('',(0.E0,0.E0,0.E0));
#345=DIRECTION('',(0.E0,1.E0,0.E0));
#346=DIRECTION('',(1.E0,0.E0,0.E0));
#347=AXIS2_PLACEMENT_3D('',#344,#345,#346);
#348=PLANE('',#347);
#350=ORIENTED_EDGE('',*,*,#349,.T.);
#352=ORIENTED_EDGE('',*,*,#351,.T.);
#353=EDGE_LOOP('',(#350,#352));
#354=FACE_OUTER_BOUND('',#353,.F.);
#356=ORIENTED_EDGE('',*,*,#355,.T.);
#358=ORIENTED_EDGE('',*,*,#357,.T.);
#359=EDGE_LOOP('',(#356,#358));
#360=FACE_BOUND('',#359,.F.);
#362=FILL_AREA_STYLE_COLOUR('',#6);
#363=FILL_AREA_STYLE('',(#362));
#364=SURFACE_STYLE_FILL_AREA(#363);
#365=SURFACE_SIDE_STYLE('',(#364));
#366=SURFACE_STYLE_USAGE(.POSITIVE.,#365);
#367=PRESENTATION_STYLE_ASSIGNMENT((#366));
#368=STYLED_ITEM('',(#367),#361);
#369=CARTESIAN_POINT('',(0.E0,2.5E-1,0.E0));
#370=DIRECTION('',(0.E0,1.E0,0.E0));
#371=DIRECTION('',(-7.463378539196E-3,0.E0,9.999721486025E-1));
#372=AXIS2_PLACEMENT_3D('',#369,#370,#371);
#373=TOROIDAL_SURFACE('',#372,4.749977422528E0,2.5E-1);
#375=ORIENTED_EDGE('',*,*,#374,.T.);
#377=ORIENTED_EDGE('',*,*,#376,.T.);
#378=ORIENTED_EDGE('',*,*,#349,.F.);
#380=ORIENTED_EDGE('',*,*,#379,.F.);
#381=EDGE_LOOP('',(#375,#377,#378,#380));
#382=FACE_OUTER_BOUND('',#381,.F.);
#384=FILL_AREA_STYLE_COLOUR('',#6);
#385=FILL_AREA_STYLE('',(#384));
#386=SURFACE_STYLE_FILL_AREA(#385);
#387=SURFACE_SIDE_STYLE('',(#386));
#388=SURFACE_STYLE_USAGE(.POSITIVE.,#387);
#389=PRESENTATION_STYLE_ASSIGNMENT((#388));
#390=STYLED_ITEM('',(#389),#383);
#391=CARTESIAN_POINT('',(0.E0,2.450165564729E-1,0.E0));
#392=DIRECTION('',(0.E0,1.E0,0.E0));
#393=DIRECTION('',(-1.063815801027E-2,0.E0,-9.999434131960E-1));
#394=AXIS2_PLACEMENT_3D('',#391,#392,#393);
#395=TOROIDAL_SURFACE('',#394,4.2E0,8.E-1);
#396=ORIENTED_EDGE('',*,*,#374,.F.);
#398=ORIENTED_EDGE('',*,*,#397,.T.);
#400=ORIENTED_EDGE('',*,*,#399,.T.);
#402=ORIENTED_EDGE('',*,*,#401,.F.);
#404=ORIENTED_EDGE('',*,*,#403,.F.);
#405=EDGE_LOOP('',(#396,#398,#400,#402,#404));
#406=FACE_OUTER_BOUND('',#405,.F.);
#408=FILL_AREA_STYLE_COLOUR('',#6);
#409=FILL_AREA_STYLE('',(#408));
#410=SURFACE_STYLE_FILL_AREA(#409);
#411=SURFACE_SIDE_STYLE('',(#410));
#412=SURFACE_STYLE_USAGE(.POSITIVE.,#411);
#413=PRESENTATION_STYLE_ASSIGNMENT((#412));
#414=STYLED_ITEM('',(#413),#407);
#415=CARTESIAN_POINT('',(0.E0,2.450165564729E-1,0.E0));
#416=DIRECTION('',(0.E0,1.E0,0.E0));
#417=DIRECTION('',(1.063815801027E-2,0.E0,9.999434131960E-1));
#418=AXIS2_PLACEMENT_3D('',#415,#416,#417);
#419=TOROIDAL_SURFACE('',#418,4.2E0,8.E-1);
#421=ORIENTED_EDGE('',*,*,#420,.F.);
#422=ORIENTED_EDGE('',*,*,#403,.T.);
#424=ORIENTED_EDGE('',*,*,#423,.F.);
#425=ORIENTED_EDGE('',*,*,#397,.F.);
#426=EDGE_LOOP('',(#421,#422,#424,#425));
#427=FACE_OUTER_BOUND('',#426,.F.);
#429=FILL_AREA_STYLE_COLOUR('',#6);
#430=FILL_AREA_STYLE('',(#429));
#431=SURFACE_STYLE_FILL_AREA(#430);
#432=SURFACE_SIDE_STYLE('',(#431));
#433=SURFACE_STYLE_USAGE(.POSITIVE.,#432);
#434=PRESENTATION_STYLE_ASSIGNMENT((#433));
#435=STYLED_ITEM('',(#434),#428);
#436=CARTESIAN_POINT('',(0.E0,2.5E-1,0.E0));
#437=DIRECTION('',(0.E0,1.E0,0.E0));
#438=DIRECTION('',(-9.999721486025E-1,0.E0,-7.463378539135E-3));
#439=AXIS2_PLACEMENT_3D('',#436,#437,#438);
#440=TOROIDAL_SURFACE('',#439,4.749977422528E0,2.5E-1);
#441=ORIENTED_EDGE('',*,*,#420,.T.);
#442=ORIENTED_EDGE('',*,*,#379,.T.);
#443=ORIENTED_EDGE('',*,*,#351,.F.);
#444=ORIENTED_EDGE('',*,*,#376,.F.);
#445=EDGE_LOOP('',(#441,#442,#443,#444));
#446=FACE_OUTER_BOUND('',#445,.F.);
#448=FILL_AREA_STYLE_COLOUR('',#6);
#449=FILL_AREA_STYLE('',(#448));
#450=SURFACE_STYLE_FILL_AREA(#449);
#451=SURFACE_SIDE_STYLE('',(#450));
#452=SURFACE_STYLE_USAGE(.POSITIVE.,#451);
#453=PRESENTATION_STYLE_ASSIGNMENT((#452));
#454=STYLED_ITEM('',(#453),#447);
#455=CARTESIAN_POINT('',(0.E0,1.E0,0.E0));
#456=DIRECTION('',(0.E0,1.E0,0.E0));
#457=DIRECTION('',(0.E0,0.E0,-1.E0));
#458=AXIS2_PLACEMENT_3D('',#455,#456,#457);
#459=TOROIDAL_SURFACE('',#458,5.E0,3.E-1);
#461=ORIENTED_EDGE('',*,*,#460,.T.);
#462=ORIENTED_EDGE('',*,*,#423,.T.);
#463=ORIENTED_EDGE('',*,*,#401,.T.);
#465=ORIENTED_EDGE('',*,*,#464,.T.);
#467=ORIENTED_EDGE('',*,*,#466,.T.);
#469=ORIENTED_EDGE('',*,*,#468,.T.);
#470=EDGE_LOOP('',(#461,#462,#463,#465,#467,#469));
#471=FACE_OUTER_BOUND('',#470,.F.);
#473=FILL_AREA_STYLE_COLOUR('',#6);
#474=FILL_AREA_STYLE('',(#473));
#475=SURFACE_STYLE_FILL_AREA(#474);
#476=SURFACE_SIDE_STYLE('',(#475));
#477=SURFACE_STYLE_USAGE(.POSITIVE.,#476);
#478=PRESENTATION_STYLE_ASSIGNMENT((#477));
#479=STYLED_ITEM('',(#478),#472);
#480=CARTESIAN_POINT('',(0.E0,1.E0,0.E0));
#481=DIRECTION('',(0.E0,1.E0,0.E0));
#482=DIRECTION('',(0.E0,0.E0,-1.E0));
#483=AXIS2_PLACEMENT_3D('',#480,#481,#482);
#484=TOROIDAL_SURFACE('',#483,5.E0,3.E-1);
#485=ORIENTED_EDGE('',*,*,#460,.F.);
#487=ORIENTED_EDGE('',*,*,#486,.F.);
#488=ORIENTED_EDGE('',*,*,#464,.F.);
#489=ORIENTED_EDGE('',*,*,#399,.F.);
#490=EDGE_LOOP('',(#485,#487,#488,#489));
#491=FACE_OUTER_BOUND('',#490,.F.);
#493=FILL_AREA_STYLE_COLOUR('',#6);
#494=FILL_AREA_STYLE('',(#493));
#495=SURFACE_STYLE_FILL_AREA(#494);
#496=SURFACE_SIDE_STYLE('',(#495));
#497=SURFACE_STYLE_USAGE(.POSITIVE.,#496);
#498=PRESENTATION_STYLE_ASSIGNMENT((#497));
#499=STYLED_ITEM('',(#498),#492);
#500=CARTESIAN_POINT('',(0.E0,1.754983443527E0,0.E0));
#501=DIRECTION('',(0.E0,1.E0,0.E0));
#502=DIRECTION('',(9.999727749663E-1,0.E0,7.378978669972E-3));
#503=AXIS2_PLACEMENT_3D('',#500,#501,#502);
#504=TOROIDAL_SURFACE('',#503,4.2E0,8.E-1);
#506=ORIENTED_EDGE('',*,*,#505,.T.);
#508=ORIENTED_EDGE('',*,*,#507,.T.);
#509=ORIENTED_EDGE('',*,*,#466,.F.);
#510=ORIENTED_EDGE('',*,*,#486,.T.);
#512=ORIENTED_EDGE('',*,*,#511,.F.);
#514=ORIENTED_EDGE('',*,*,#513,.T.);
#515=EDGE_LOOP('',(#506,#508,#509,#510,#512,#514));
#516=FACE_OUTER_BOUND('',#515,.F.);
#518=FILL_AREA_STYLE_COLOUR('',#6);
#519=FILL_AREA_STYLE('',(#518));
#520=SURFACE_STYLE_FILL_AREA(#519);
#521=SURFACE_SIDE_STYLE('',(#520));
#522=SURFACE_STYLE_USAGE(.POSITIVE.,#521);
#523=PRESENTATION_STYLE_ASSIGNMENT((#522));
#524=STYLED_ITEM('',(#523),#517);
#525=CARTESIAN_POINT('',(0.E0,0.E0,0.E0));
#526=DIRECTION('',(0.E0,1.E0,0.E0));
#527=DIRECTION('',(1.E0,0.E0,0.E0));
#528=AXIS2_PLACEMENT_3D('',#525,#526,#527);
#529=CYLINDRICAL_SURFACE('',#528,5.E0);
#531=ORIENTED_EDGE('',*,*,#530,.F.);
#533=ORIENTED_EDGE('',*,*,#532,.F.);
#534=ORIENTED_EDGE('',*,*,#505,.F.);
#536=ORIENTED_EDGE('',*,*,#535,.T.);
#537=EDGE_LOOP('',(#531,#533,#534,#536));
#538=FACE_OUTER_BOUND('',#537,.F.);
#540=FILL_AREA_STYLE_COLOUR('',#6);
#541=FILL_AREA_STYLE('',(#540));
#542=SURFACE_STYLE_FILL_AREA(#541);
#543=SURFACE_SIDE_STYLE('',(#542));
#544=SURFACE_STYLE_USAGE(.POSITIVE.,#543);
#545=PRESENTATION_STYLE_ASSIGNMENT((#544));
#546=STYLED_ITEM('',(#545),#539);
#547=CARTESIAN_POINT('',(0.E0,1.785E1,0.E0));
#548=DIRECTION('',(0.E0,1.E0,0.E0));
#549=DIRECTION('',(-9.999770924160E-1,0.E0,6.768651506601E-3));
#550=AXIS2_PLACEMENT_3D('',#547,#548,#549);
#551=TOROIDAL_SURFACE('',#550,4.85E0,1.5E-1);
#552=ORIENTED_EDGE('',*,*,#530,.T.);
#554=ORIENTED_EDGE('',*,*,#553,.T.);
#556=ORIENTED_EDGE('',*,*,#555,.F.);
#558=ORIENTED_EDGE('',*,*,#557,.F.);
#559=EDGE_LOOP('',(#552,#554,#556,#558));
#560=FACE_OUTER_BOUND('',#559,.F.);
#562=FILL_AREA_STYLE_COLOUR('',#6);
#563=FILL_AREA_STYLE('',(#562));
#564=SURFACE_STYLE_FILL_AREA(#563);
#565=SURFACE_SIDE_STYLE('',(#564));
#566=SURFACE_STYLE_USAGE(.POSITIVE.,#565);
#567=PRESENTATION_STYLE_ASSIGNMENT((#566));
#568=STYLED_ITEM('',(#567),#561);
#569=CARTESIAN_POINT('',(0.E0,1.785E1,0.E0));
#570=DIRECTION('',(0.E0,1.E0,0.E0));
#571=DIRECTION('',(9.999770924160E-1,0.E0,-6.768651506601E-3));
#572=AXIS2_PLACEMENT_3D('',#569,#570,#571);
#573=TOROIDAL_SURFACE('',#572,4.85E0,1.5E-1);
#575=ORIENTED_EDGE('',*,*,#574,.T.);
#576=ORIENTED_EDGE('',*,*,#557,.T.);
#578=ORIENTED_EDGE('',*,*,#577,.F.);
#579=ORIENTED_EDGE('',*,*,#553,.F.);
#580=EDGE_LOOP('',(#575,#576,#578,#579));
#581=FACE_OUTER_BOUND('',#580,.F.);
#583=FILL_AREA_STYLE_COLOUR('',#6);
#584=FILL_AREA_STYLE('',(#583));
#585=SURFACE_STYLE_FILL_AREA(#584);
#586=SURFACE_SIDE_STYLE('',(#585));
#587=SURFACE_STYLE_USAGE(.POSITIVE.,#586);
#588=PRESENTATION_STYLE_ASSIGNMENT((#587));
#589=STYLED_ITEM('',(#588),#582);
#590=CARTESIAN_POINT('',(0.E0,0.E0,0.E0));
#591=DIRECTION('',(0.E0,1.E0,0.E0));
#592=DIRECTION('',(1.E0,0.E0,0.E0));
#593=AXIS2_PLACEMENT_3D('',#590,#591,#592);
#594=CYLINDRICAL_SURFACE('',#593,5.E0);
#595=ORIENTED_EDGE('',*,*,#574,.F.);
#596=ORIENTED_EDGE('',*,*,#535,.F.);
#597=ORIENTED_EDGE('',*,*,#513,.F.);
#599=ORIENTED_EDGE('',*,*,#598,.F.);
#600=ORIENTED_EDGE('',*,*,#532,.T.);
#601=EDGE_LOOP('',(#595,#596,#597,#599,#600));
#602=FACE_OUTER_BOUND('',#601,.F.);
#604=FILL_AREA_STYLE_COLOUR('',#6);
#605=FILL_AREA_STYLE('',(#604));
#606=SURFACE_STYLE_FILL_AREA(#605);
#607=SURFACE_SIDE_STYLE('',(#606));
#608=SURFACE_STYLE_USAGE(.POSITIVE.,#607);
#609=PRESENTATION_STYLE_ASSIGNMENT((#608));
#610=STYLED_ITEM('',(#609),#603);
#611=CARTESIAN_POINT('',(0.E0,1.754983443527E0,0.E0));
#612=DIRECTION('',(0.E0,1.E0,0.E0));
#613=DIRECTION('',(-9.999727749663E-1,0.E0,-7.378978669972E-3));
#614=AXIS2_PLACEMENT_3D('',#611,#612,#613);
#615=TOROIDAL_SURFACE('',#614,4.2E0,8.E-1);
#616=ORIENTED_EDGE('',*,*,#598,.T.);
#617=ORIENTED_EDGE('',*,*,#511,.T.);
#618=ORIENTED_EDGE('',*,*,#468,.F.);
#619=ORIENTED_EDGE('',*,*,#507,.F.);
#620=EDGE_LOOP('',(#616,#617,#618,#619));
#621=FACE_OUTER_BOUND('',#620,.F.);
#623=FILL_AREA_STYLE_COLOUR('',#6);
#624=FILL_AREA_STYLE('',(#623));
#625=SURFACE_STYLE_FILL_AREA(#624);
#626=SURFACE_SIDE_STYLE('',(#625));
#627=SURFACE_STYLE_USAGE(.POSITIVE.,#626);
#628=PRESENTATION_STYLE_ASSIGNMENT((#627));
#629=STYLED_ITEM('',(#628),#622);
#630=CARTESIAN_POINT('',(0.E0,1.8E1,0.E0));
#631=DIRECTION('',(0.E0,1.E0,0.E0));
#632=DIRECTION('',(1.E0,0.E0,0.E0));
#633=AXIS2_PLACEMENT_3D('',#630,#631,#632);
#634=PLANE('',#633);
#635=ORIENTED_EDGE('',*,*,#555,.T.);
#636=ORIENTED_EDGE('',*,*,#577,.T.);
#637=EDGE_LOOP('',(#635,#636));
#638=FACE_OUTER_BOUND('',#637,.F.);
#640=ORIENTED_EDGE('',*,*,#639,.T.);
#642=ORIENTED_EDGE('',*,*,#641,.T.);
#643=EDGE_LOOP('',(#640,#642));
#644=FACE_BOUND('',#643,.F.);
#646=FILL_AREA_STYLE_COLOUR('',#6);
#647=FILL_AREA_STYLE('',(#646));
#648=SURFACE_STYLE_FILL_AREA(#647);
#649=SURFACE_SIDE_STYLE('',(#648));
#650=SURFACE_STYLE_USAGE(.POSITIVE.,#649);
#651=PRESENTATION_STYLE_ASSIGNMENT((#650));
#652=STYLED_ITEM('',(#651),#645);
#653=CARTESIAN_POINT('',(0.E0,1.8E1,0.E0));
#654=DIRECTION('',(0.E0,1.E0,0.E0));
#655=DIRECTION('',(-1.E0,0.E0,0.E0));
#656=AXIS2_PLACEMENT_3D('',#653,#654,#655);
#657=CYLINDRICAL_SURFACE('',#656,3.5E0);
#658=ORIENTED_EDGE('',*,*,#639,.F.);
#660=ORIENTED_EDGE('',*,*,#659,.T.);
#662=ORIENTED_EDGE('',*,*,#661,.T.);
#664=ORIENTED_EDGE('',*,*,#663,.F.);
#665=EDGE_LOOP('',(#658,#660,#662,#664));
#666=FACE_OUTER_BOUND('',#665,.F.);
#668=CARTESIAN_POINT('',(0.E0,1.8E1,0.E0));
#669=DIRECTION('',(0.E0,1.E0,0.E0));
#670=DIRECTION('',(-1.E0,0.E0,0.E0));
#671=AXIS2_PLACEMENT_3D('',#668,#669,#670);
#672=CYLINDRICAL_SURFACE('',#671,3.5E0);
#673=ORIENTED_EDGE('',*,*,#641,.F.);
#674=ORIENTED_EDGE('',*,*,#663,.T.);
#676=ORIENTED_EDGE('',*,*,#675,.T.);
#677=ORIENTED_EDGE('',*,*,#659,.F.);
#678=EDGE_LOOP('',(#673,#674,#676,#677));
#679=FACE_OUTER_BOUND('',#678,.F.);
#681=CARTESIAN_POINT('',(0.E0,1.798E1,0.E0));
#682=DIRECTION('',(0.E0,1.E0,0.E0));
#683=DIRECTION('',(-1.E0,0.E0,0.E0));
#684=AXIS2_PLACEMENT_3D('',#681,#682,#683);
#685=PLANE('',#684);
#686=ORIENTED_EDGE('',*,*,#661,.F.);
#687=ORIENTED_EDGE('',*,*,#675,.F.);
#688=EDGE_LOOP('',(#686,#687));
#689=FACE_OUTER_BOUND('',#688,.F.);
#691=FILL_AREA_STYLE_COLOUR('',#21);
#692=FILL_AREA_STYLE('',(#691));
#693=SURFACE_STYLE_FILL_AREA(#692);
#694=SURFACE_SIDE_STYLE('',(#693));
#695=SURFACE_STYLE_USAGE(.POSITIVE.,#694);
#696=PRESENTATION_STYLE_ASSIGNMENT((#695));
#697=STYLED_ITEM('',(#696),#690);
#698=CARTESIAN_POINT('',(0.E0,0.E0,0.E0));
#699=DIRECTION('',(0.E0,-1.E0,0.E0));
#700=DIRECTION('',(0.E0,0.E0,1.E0));
#701=AXIS2_PLACEMENT_3D('',#698,#699,#700);
#702=CYLINDRICAL_SURFACE('',#701,3.7E0);
#703=ORIENTED_EDGE('',*,*,#355,.F.);
#705=ORIENTED_EDGE('',*,*,#704,.T.);
#707=ORIENTED_EDGE('',*,*,#706,.T.);
#709=ORIENTED_EDGE('',*,*,#708,.F.);
#710=EDGE_LOOP('',(#703,#705,#707,#709));
#711=FACE_OUTER_BOUND('',#710,.F.);
#713=FILL_AREA_STYLE_COLOUR('',#6);
#714=FILL_AREA_STYLE('',(#713));
#715=SURFACE_STYLE_FILL_AREA(#714);
#716=SURFACE_SIDE_STYLE('',(#715));
#717=SURFACE_STYLE_USAGE(.POSITIVE.,#716);
#718=PRESENTATION_STYLE_ASSIGNMENT((#717));
#719=STYLED_ITEM('',(#718),#712);
#720=CARTESIAN_POINT('',(0.E0,0.E0,0.E0));
#721=DIRECTION('',(0.E0,-1.E0,0.E0));
#722=DIRECTION('',(0.E0,0.E0,1.E0));
#723=AXIS2_PLACEMENT_3D('',#720,#721,#722);
#724=CYLINDRICAL_SURFACE('',#723,3.7E0);
#725=ORIENTED_EDGE('',*,*,#357,.F.);
#726=ORIENTED_EDGE('',*,*,#708,.T.);
#728=ORIENTED_EDGE('',*,*,#727,.T.);
#729=ORIENTED_EDGE('',*,*,#704,.F.);
#730=EDGE_LOOP('',(#725,#726,#728,#729));
#731=FACE_OUTER_BOUND('',#730,.F.);
#733=FILL_AREA_STYLE_COLOUR('',#6);
#734=FILL_AREA_STYLE('',(#733));
#735=SURFACE_STYLE_FILL_AREA(#734);
#736=SURFACE_SIDE_STYLE('',(#735));
#737=SURFACE_STYLE_USAGE(.POSITIVE.,#736);
#738=PRESENTATION_STYLE_ASSIGNMENT((#737));
#739=STYLED_ITEM('',(#738),#732);
#740=CARTESIAN_POINT('',(0.E0,1.E-1,0.E0));
#741=DIRECTION('',(0.E0,-1.E0,0.E0));
#742=DIRECTION('',(0.E0,0.E0,1.E0));
#743=AXIS2_PLACEMENT_3D('',#740,#741,#742);
#744=PLANE('',#743);
#745=ORIENTED_EDGE('',*,*,#706,.F.);
#746=ORIENTED_EDGE('',*,*,#727,.F.);
#747=EDGE_LOOP('',(#745,#746));
#748=FACE_OUTER_BOUND('',#747,.F.);
#750=ORIENTED_EDGE('',*,*,#749,.T.);
#752=ORIENTED_EDGE('',*,*,#751,.T.);
#753=EDGE_LOOP('',(#750,#752));
#754=FACE_BOUND('',#753,.F.);
#756=ORIENTED_EDGE('',*,*,#755,.T.);
#758=ORIENTED_EDGE('',*,*,#757,.T.);
#759=EDGE_LOOP('',(#756,#758));
#760=FACE_BOUND('',#759,.F.);
#762=FILL_AREA_STYLE_COLOUR('',#4);
#763=FILL_AREA_STYLE('',(#762));
#764=SURFACE_STYLE_FILL_AREA(#763);
#765=SURFACE_SIDE_STYLE('',(#764));
#766=SURFACE_STYLE_USAGE(.POSITIVE.,#765);
#767=PRESENTATION_STYLE_ASSIGNMENT((#766));
#768=STYLED_ITEM('',(#767),#761);
#769=CARTESIAN_POINT('',(0.E0,1.E-1,2.5E0));
#770=DIRECTION('',(0.E0,-1.E0,0.E0));
#771=DIRECTION('',(0.E0,0.E0,-1.E0));
#772=AXIS2_PLACEMENT_3D('',#769,#770,#771);
#773=CYLINDRICAL_SURFACE('',#772,3.E-1);
#774=ORIENTED_EDGE('',*,*,#749,.F.);
#776=ORIENTED_EDGE('',*,*,#775,.T.);
#778=ORIENTED_EDGE('',*,*,#777,.T.);
#780=ORIENTED_EDGE('',*,*,#779,.F.);
#781=EDGE_LOOP('',(#774,#776,#778,#780));
#782=FACE_OUTER_BOUND('',#781,.F.);
#784=FILL_AREA_STYLE_COLOUR('',#13);
#785=FILL_AREA_STYLE('',(#784));
#786=SURFACE_STYLE_FILL_AREA(#785);
#787=SURFACE_SIDE_STYLE('',(#786));
#788=SURFACE_STYLE_USAGE(.POSITIVE.,#787);
#789=PRESENTATION_STYLE_ASSIGNMENT((#788));
#790=STYLED_ITEM('',(#789),#783);
#791=CARTESIAN_POINT('',(0.E0,1.E-1,2.5E0));
#792=DIRECTION('',(0.E0,-1.E0,0.E0));
#793=DIRECTION('',(0.E0,0.E0,-1.E0));
#794=AXIS2_PLACEMENT_3D('',#791,#792,#793);
#795=CYLINDRICAL_SURFACE('',#794,3.E-1);
#796=ORIENTED_EDGE('',*,*,#751,.F.);
#797=ORIENTED_EDGE('',*,*,#779,.T.);
#799=ORIENTED_EDGE('',*,*,#798,.T.);
#800=ORIENTED_EDGE('',*,*,#775,.F.);
#801=EDGE_LOOP('',(#796,#797,#799,#800));
#802=FACE_OUTER_BOUND('',#801,.F.);
#804=FILL_AREA_STYLE_COLOUR('',#13);
#805=FILL_AREA_STYLE('',(#804));
#806=SURFACE_STYLE_FILL_AREA(#805);
#807=SURFACE_SIDE_STYLE('',(#806));
#808=SURFACE_STYLE_USAGE(.POSITIVE.,#807);
#809=PRESENTATION_STYLE_ASSIGNMENT((#808));
#810=STYLED_ITEM('',(#809),#803);
#811=CARTESIAN_POINT('',(0.E0,-1.99E1,0.E0));
#812=DIRECTION('',(0.E0,-1.E0,0.E0));
#813=DIRECTION('',(0.E0,0.E0,-1.E0));
#814=AXIS2_PLACEMENT_3D('',#811,#812,#813);
#815=PLANE('',#814);
#816=ORIENTED_EDGE('',*,*,#777,.F.);
#817=ORIENTED_EDGE('',*,*,#798,.F.);
#818=EDGE_LOOP('',(#816,#817));
#819=FACE_OUTER_BOUND('',#818,.F.);
#821=FILL_AREA_STYLE_COLOUR('',#13);
#822=FILL_AREA_STYLE('',(#821));
#823=SURFACE_STYLE_FILL_AREA(#822);
#824=SURFACE_SIDE_STYLE('',(#823));
#825=SURFACE_STYLE_USAGE(.POSITIVE.,#824);
#826=PRESENTATION_STYLE_ASSIGNMENT((#825));
#827=STYLED_ITEM('',(#826),#820);
#828=CARTESIAN_POINT('',(0.E0,1.E-1,-2.5E0));
#829=DIRECTION('',(0.E0,-1.E0,0.E0));
#830=DIRECTION('',(-1.E0,0.E0,0.E0));
#831=AXIS2_PLACEMENT_3D('',#828,#829,#830);
#832=CYLINDRICAL_SURFACE('',#831,3.E-1);
#833=ORIENTED_EDGE('',*,*,#755,.F.);
#835=ORIENTED_EDGE('',*,*,#834,.T.);
#837=ORIENTED_EDGE('',*,*,#836,.T.);
#839=ORIENTED_EDGE('',*,*,#838,.F.);
#840=EDGE_LOOP('',(#833,#835,#837,#839));
#841=FACE_OUTER_BOUND('',#840,.F.);
#843=FILL_AREA_STYLE_COLOUR('',#13);
#844=FILL_AREA_STYLE('',(#843));
#845=SURFACE_STYLE_FILL_AREA(#844);
#846=SURFACE_SIDE_STYLE('',(#845));
#847=SURFACE_STYLE_USAGE(.POSITIVE.,#846);
#848=PRESENTATION_STYLE_ASSIGNMENT((#847));
#849=STYLED_ITEM('',(#848),#842);
#850=CARTESIAN_POINT('',(0.E0,1.E-1,-2.5E0));
#851=DIRECTION('',(0.E0,-1.E0,0.E0));
#852=DIRECTION('',(-1.E0,0.E0,0.E0));
#853=AXIS2_PLACEMENT_3D('',#850,#851,#852);
#854=CYLINDRICAL_SURFACE('',#853,3.E-1);
#855=ORIENTED_EDGE('',*,*,#757,.F.);
#856=ORIENTED_EDGE('',*,*,#838,.T.);
#858=ORIENTED_EDGE('',*,*,#857,.T.);
#859=ORIENTED_EDGE('',*,*,#834,.F.);
#860=EDGE_LOOP('',(#855,#856,#858,#859));
#861=FACE_OUTER_BOUND('',#860,.F.);
#863=FILL_AREA_STYLE_COLOUR('',#13);
#864=FILL_AREA_STYLE('',(#863));
#865=SURFACE_STYLE_FILL_AREA(#864);
#866=SURFACE_SIDE_STYLE('',(#865));
#867=SURFACE_STYLE_USAGE(.POSITIVE.,#866);
#868=PRESENTATION_STYLE_ASSIGNMENT((#867));
#869=STYLED_ITEM('',(#868),#862);
#870=CARTESIAN_POINT('',(0.E0,-2.49E1,0.E0));
#871=DIRECTION('',(0.E0,-1.E0,0.E0));
#872=DIRECTION('',(-1.E0,0.E0,0.E0));
#873=AXIS2_PLACEMENT_3D('',#870,#871,#872);
#874=PLANE('',#873);
#875=ORIENTED_EDGE('',*,*,#836,.F.);
#876=ORIENTED_EDGE('',*,*,#857,.F.);
#877=EDGE_LOOP('',(#875,#876));
#878=FACE_OUTER_BOUND('',#877,.F.);
#880=FILL_AREA_STYLE_COLOUR('',#13);
#881=FILL_AREA_STYLE('',(#880));
#882=SURFACE_STYLE_FILL_AREA(#881);
#883=SURFACE_SIDE_STYLE('',(#882));
#884=SURFACE_STYLE_USAGE(.POSITIVE.,#883);
#885=PRESENTATION_STYLE_ASSIGNMENT((#884));
#886=STYLED_ITEM('',(#885),#879);
#887=CLOSED_SHELL('',(#361,#383,#407,#428,#447,#472,#492,#517,#539,#561,#582,
#603,#622,#645,#667,#680,#690,#712,#732,#761,#783,#803,#820,#842,#862,#879));
#888=MANIFOLD_SOLID_BREP('',#887);
#891=PLANE_ANGLE_MEASURE_WITH_UNIT(PLANE_ANGLE_MEASURE(1.745329251994E-2),#890);
#892=(CONVERSION_BASED_UNIT('DEGREE',#891)NAMED_UNIT(*)PLANE_ANGLE_UNIT());
#894=UNCERTAINTY_MEASURE_WITH_UNIT(LENGTH_MEASURE(4.516909087490E-3),#889,
'distance_accuracy_value',
'Maximum model space distance between geometric entities at asserted connectivities');
#896=CARTESIAN_POINT('',(0.E0,0.E0,0.E0));
#897=DIRECTION('',(0.E0,0.E0,1.E0));
#898=DIRECTION('',(1.E0,0.E0,0.E0));
#901=APPLICATION_CONTEXT('automotive_design');
#902=APPLICATION_PROTOCOL_DEFINITION('international standard',
'automotive_design',2001,#901);
#903=PRODUCT_DEFINITION_CONTEXT('part definition',#901,'design');
#904=PRODUCT_CONTEXT('',#901,'mechanical');
#905=PRODUCT('0100200000','0100200000','NOT SPECIFIED',(#904));
#906=PRODUCT_DEFINITION_FORMATION('77','LAST_VERSION',#905);
#914=DERIVED_UNIT_ELEMENT(#913,2.E0);
#915=DERIVED_UNIT((#914));
#916=MEASURE_REPRESENTATION_ITEM('surface area measure',AREA_MEASURE(
8.082272602066E2),#915);
#921=DERIVED_UNIT_ELEMENT(#920,3.E0);
#922=DERIVED_UNIT((#921));
#923=MEASURE_REPRESENTATION_ITEM('volume measure',VOLUME_MEASURE(
1.415026008277E3),#922);
#927=CARTESIAN_POINT('centre point',(-1.233462657768E-7,8.874217281079E0,
-2.497641799934E-3));
#932=DERIVED_UNIT_ELEMENT(#931,2.E0);
#933=DERIVED_UNIT((#932));
#934=MEASURE_REPRESENTATION_ITEM('surface area measure',AREA_MEASURE(
8.082272602066E2),#933);
#939=DERIVED_UNIT_ELEMENT(#938,3.E0);
#940=DERIVED_UNIT((#939));
#941=MEASURE_REPRESENTATION_ITEM('volume measure',VOLUME_MEASURE(
1.415026008277E3),#940);
#945=CARTESIAN_POINT('centre point',(-1.233462657768E-7,8.874217281079E0,
-2.497641799934E-3));
#955=CARTESIAN_POINT('centre point',(4.999999876654E0,3.377421728108E1,
-5.002497641800E0));
#959=CARTESIAN_POINT('',(5.E0,2.49E1,-5.E0));
#960=DIRECTION('',(0.E0,0.E0,1.E0));
#961=DIRECTION('',(1.E0,0.E0,0.E0));
#962=AXIS2_PLACEMENT_3D('',#959,#960,#961);
#963=ITEM_DEFINED_TRANSFORMATION('','',#899,#962);
#964=(REPRESENTATION_RELATIONSHIP('','',#900,#952)REPRESENTATION_RELATIONSHIP_WITH_TRANSFORMATION(#963)SHAPE_REPRESENTATION_RELATIONSHIP());
#965=CONTEXT_DEPENDENT_SHAPE_REPRESENTATION(#964,#954);
#967=CARTESIAN_POINT('',(0.E0,0.E0,0.E0));
#968=DIRECTION('',(0.E0,-1.E0,0.E0));
#969=DIRECTION('',(3.230924993209E-1,0.E0,9.463673900143E-1));
#970=AXIS2_PLACEMENT_3D('',#967,#968,#969);
#972=DIRECTION('',(-1.681184052517E-13,0.E0,1.E0));
#973=VECTOR('',#972,5.283052848203E-3);
#974=CARTESIAN_POINT('',(-1.615462496604E0,0.E0,4.731836950072E0));
#975=LINE('',#974,#973);
#976=CARTESIAN_POINT('',(0.E0,0.E0,0.E0));
#977=DIRECTION('',(0.E0,1.E0,0.E0));
#978=DIRECTION('',(-3.227697295913E-1,0.E0,9.464775230609E-1));
#979=AXIS2_PLACEMENT_3D('',#976,#977,#978);
#981=DIRECTION('',(-2.521776078775E-13,0.E0,-1.E0));
#982=VECTOR('',#981,5.283052848202E-3);
#983=CARTESIAN_POINT('',(1.615462496605E0,0.E0,4.737120002920E0));
#984=LINE('',#983,#982);
#985=DIRECTION('',(0.E0,1.E0,0.E0));
#986=VECTOR('',#985,1.59E1);
#987=CARTESIAN_POINT('',(1.615462496605E0,0.E0,4.731836950072E0));
#988=LINE('',#987,#986);
#989=DIRECTION('',(0.E0,1.E0,0.E0));
#990=VECTOR('',#989,1.59E1);
#991=CARTESIAN_POINT('',(1.615462496605E0,0.E0,4.737120002920E0));
#992=LINE('',#991,#990);
#993=DIRECTION('',(0.E0,1.E0,0.E0));
#994=VECTOR('',#993,1.59E1);
#995=CARTESIAN_POINT('',(-1.615462496604E0,0.E0,4.737120002920E0));
#996=LINE('',#995,#994);
#997=DIRECTION('',(0.E0,1.E0,0.E0));
#998=VECTOR('',#997,1.59E1);
#999=CARTESIAN_POINT('',(-1.615462496604E0,0.E0,4.731836950072E0));
#1000=LINE('',#999,#998);
#1001=CARTESIAN_POINT('',(0.E0,1.59E1,0.E0));
#1002=DIRECTION('',(0.E0,-1.E0,0.E0));
#1003=DIRECTION('',(3.230924993209E-1,0.E0,9.463673900143E-1));
#1004=AXIS2_PLACEMENT_3D('',#1001,#1002,#1003);
#1006=DIRECTION('',(-2.942072091905E-13,0.E0,-1.E0));
#1007=VECTOR('',#1006,5.283052848202E-3);
#1008=CARTESIAN_POINT('',(1.615462496605E0,1.59E1,4.737120002920E0));
#1009=LINE('',#1008,#1007);
#1010=CARTESIAN_POINT('',(0.E0,1.59E1,0.E0));
#1011=DIRECTION('',(0.E0,1.E0,0.E0));
#1012=DIRECTION('',(-3.227697295913E-1,0.E0,9.464775230609E-1));
#1013=AXIS2_PLACEMENT_3D('',#1010,#1011,#1012);
#1015=DIRECTION('',(-1.681184052517E-13,0.E0,1.E0));
#1016=VECTOR('',#1015,5.283052848203E-3);
#1017=CARTESIAN_POINT('',(-1.615462496604E0,1.59E1,4.731836950072E0));
#1018=LINE('',#1017,#1016);
#1019=CARTESIAN_POINT('',(1.615462496605E0,0.E0,4.731836950072E0));
#1020=CARTESIAN_POINT('',(-1.615462496604E0,0.E0,4.731836950072E0));
#1021=VERTEX_POINT('',#1019);
#1022=VERTEX_POINT('',#1020);
#1023=CARTESIAN_POINT('',(-1.615462496604E0,0.E0,4.737120002920E0));
#1024=VERTEX_POINT('',#1023);
#1025=CARTESIAN_POINT('',(1.615462496605E0,0.E0,4.737120002920E0));
#1026=VERTEX_POINT('',#1025);
#1027=CARTESIAN_POINT('',(1.615462496605E0,1.59E1,4.731836950072E0));
#1028=CARTESIAN_POINT('',(-1.615462496604E0,1.59E1,4.731836950072E0));
#1029=VERTEX_POINT('',#1027);
#1030=VERTEX_POINT('',#1028);
#1031=CARTESIAN_POINT('',(-1.615462496604E0,1.59E1,4.737120002920E0));
#1032=VERTEX_POINT('',#1031);
#1033=CARTESIAN_POINT('',(1.615462496605E0,1.59E1,4.737120002920E0));
#1034=VERTEX_POINT('',#1033);
#1035=CARTESIAN_POINT('',(0.E0,0.E0,0.E0));
#1036=DIRECTION('',(0.E0,1.E0,0.E0));
#1037=DIRECTION('',(1.E0,0.E0,0.E0));
#1038=AXIS2_PLACEMENT_3D('',#1035,#1036,#1037);
#1039=PLANE('',#1038);
#1041=ORIENTED_EDGE('',*,*,#1040,.T.);
#1043=ORIENTED_EDGE('',*,*,#1042,.T.);
#1045=ORIENTED_EDGE('',*,*,#1044,.T.);
#1047=ORIENTED_EDGE('',*,*,#1046,.T.);
#1048=EDGE_LOOP('',(#1041,#1043,#1045,#1047));
#1049=FACE_OUTER_BOUND('',#1048,.F.);
#1051=CARTESIAN_POINT('',(0.E0,0.E0,0.E0));
#1052=DIRECTION('',(0.E0,1.E0,0.E0));
#1053=DIRECTION('',(1.E0,0.E0,0.E0));
#1054=AXIS2_PLACEMENT_3D('',#1051,#1052,#1053);
#1055=CYLINDRICAL_SURFACE('',#1054,5.E0);
#1056=ORIENTED_EDGE('',*,*,#1040,.F.);
#1058=ORIENTED_EDGE('',*,*,#1057,.T.);
#1060=ORIENTED_EDGE('',*,*,#1059,.T.);
#1062=ORIENTED_EDGE('',*,*,#1061,.F.);
#1063=EDGE_LOOP('',(#1056,#1058,#1060,#1062));
#1064=FACE_OUTER_BOUND('',#1063,.F.);
#1066=CARTESIAN_POINT('',(1.615462496605E0,0.E0,4.737120002920E0));
#1067=DIRECTION('',(1.E0,0.E0,0.E0));
#1068=DIRECTION('',(0.E0,0.E0,-1.E0));
#1069=AXIS2_PLACEMENT_3D('',#1066,#1067,#1068);
#1070=PLANE('',#1069);
#1071=ORIENTED_EDGE('',*,*,#1046,.F.);
#1073=ORIENTED_EDGE('',*,*,#1072,.T.);
#1075=ORIENTED_EDGE('',*,*,#1074,.T.);
#1076=ORIENTED_EDGE('',*,*,#1057,.F.);
#1077=EDGE_LOOP('',(#1071,#1073,#1075,#1076));
#1078=FACE_OUTER_BOUND('',#1077,.F.);
#1080=CARTESIAN_POINT('',(0.E0,0.E0,0.E0));
#1081=DIRECTION('',(0.E0,1.E0,0.E0));
#1082=DIRECTION('',(1.E0,0.E0,0.E0));
#1083=AXIS2_PLACEMENT_3D('',#1080,#1081,#1082);
#1084=CYLINDRICAL_SURFACE('',#1083,5.005E0);
#1085=ORIENTED_EDGE('',*,*,#1044,.F.);
#1087=ORIENTED_EDGE('',*,*,#1086,.T.);
#1089=ORIENTED_EDGE('',*,*,#1088,.T.);
#1090=ORIENTED_EDGE('',*,*,#1072,.F.);
#1091=EDGE_LOOP('',(#1085,#1087,#1089,#1090));
#1092=FACE_OUTER_BOUND('',#1091,.F.);
#1094=FILL_AREA_STYLE_COLOUR('',#21);
#1095=FILL_AREA_STYLE('',(#1094));
#1096=SURFACE_STYLE_FILL_AREA(#1095);
#1097=SURFACE_SIDE_STYLE('',(#1096));
#1098=SURFACE_STYLE_USAGE(.BOTH.,#1097);
#1099=PRESENTATION_STYLE_ASSIGNMENT((#1098));
#1100=STYLED_ITEM('',(#1099),#1093);
#1101=CARTESIAN_POINT('',(-1.615462496604E0,0.E0,4.731836950072E0));
#1102=DIRECTION('',(-1.E0,0.E0,0.E0));
#1103=DIRECTION('',(0.E0,0.E0,1.E0));
#1104=AXIS2_PLACEMENT_3D('',#1101,#1102,#1103);
#1105=PLANE('',#1104);
#1106=ORIENTED_EDGE('',*,*,#1042,.F.);
#1107=ORIENTED_EDGE('',*,*,#1061,.T.);
#1109=ORIENTED_EDGE('',*,*,#1108,.T.);
#1110=ORIENTED_EDGE('',*,*,#1086,.F.);
#1111=EDGE_LOOP('',(#1106,#1107,#1109,#1110));
#1112=FACE_OUTER_BOUND('',#1111,.F.);
#1114=CARTESIAN_POINT('',(0.E0,1.59E1,0.E0));
#1115=DIRECTION('',(0.E0,1.E0,0.E0));
#1116=DIRECTION('',(1.E0,0.E0,0.E0));
#1117=AXIS2_PLACEMENT_3D('',#1114,#1115,#1116);
#1118=PLANE('',#1117);
#1119=ORIENTED_EDGE('',*,*,#1059,.F.);
#1120=ORIENTED_EDGE('',*,*,#1074,.F.);
#1121=ORIENTED_EDGE('',*,*,#1088,.F.);
#1122=ORIENTED_EDGE('',*,*,#1108,.F.);
#1123=EDGE_LOOP('',(#1119,#1120,#1121,#1122));
#1124=FACE_OUTER_BOUND('',#1123,.F.);
#1126=CLOSED_SHELL('',(#1050,#1065,#1079,#1093,#1113,#1125));
#1127=MANIFOLD_SOLID_BREP('',#1126);
#1130=PLANE_ANGLE_MEASURE_WITH_UNIT(PLANE_ANGLE_MEASURE(1.745329251994E-2),
#1129);
#1131=(CONVERSION_BASED_UNIT('DEGREE',#1130)NAMED_UNIT(*)PLANE_ANGLE_UNIT());
#1133=UNCERTAINTY_MEASURE_WITH_UNIT(LENGTH_MEASURE(1.622659634382E-3),#1128,
'distance_accuracy_value',
'Maximum model space distance between geometric entities at asserted connectivities');
#1135=CARTESIAN_POINT('',(0.E0,0.E0,0.E0));
#1136=DIRECTION('',(0.E0,0.E0,1.E0));
#1137=DIRECTION('',(1.E0,0.E0,0.E0));
#1140=PRODUCT_CONTEXT('',#901,'mechanical');
#1141=PRODUCT('FJBBBB1','FJBBBB1','NOT SPECIFIED',(#1140));
#1142=PRODUCT_DEFINITION_FORMATION('1','LAST_VERSION',#1141);
#1150=DERIVED_UNIT_ELEMENT(#1149,2.E0);
#1151=DERIVED_UNIT((#1150));
#1152=MEASURE_REPRESENTATION_ITEM('surface area measure',AREA_MEASURE(
1.048194771369E2),#1151);
#1157=DERIVED_UNIT_ELEMENT(#1156,3.E0);
#1158=DERIVED_UNIT((#1157));
#1159=MEASURE_REPRESENTATION_ITEM('volume measure',VOLUME_MEASURE(
2.615464402022E-1),#1158);
#1163=CARTESIAN_POINT('centre point',(9.964071595709E-13,7.95E0,
4.912836244877E0));
#1168=DERIVED_UNIT_ELEMENT(#1167,2.E0);
#1169=DERIVED_UNIT((#1168));
#1170=MEASURE_REPRESENTATION_ITEM('surface area measure',AREA_MEASURE(
1.048194771369E2),#1169);
#1175=DERIVED_UNIT_ELEMENT(#1174,3.E0);
#1176=DERIVED_UNIT((#1175));
#1177=MEASURE_REPRESENTATION_ITEM('volume measure',VOLUME_MEASURE(
2.615464402022E-1),#1176);
#1181=CARTESIAN_POINT('centre point',(9.964071595709E-13,7.95E0,
4.912836244877E0));
#1188=CARTESIAN_POINT('centre point',(5.000000000001E0,3.462899260462E1,
-8.716375512287E-2));
#1192=CARTESIAN_POINT('',(5.E0,2.667899260462E1,-5.E0));
#1193=DIRECTION('',(0.E0,0.E0,1.E0));
#1194=DIRECTION('',(1.E0,0.E0,0.E0));
#1195=AXIS2_PLACEMENT_3D('',#1192,#1193,#1194);
#1196=ITEM_DEFINED_TRANSFORMATION('','',#1138,#1195);
#1197=(REPRESENTATION_RELATIONSHIP('','',#1139,#952)REPRESENTATION_RELATIONSHIP_WITH_TRANSFORMATION(#1196)SHAPE_REPRESENTATION_RELATIONSHIP());
#1198=CONTEXT_DEPENDENT_SHAPE_REPRESENTATION(#1197,#1187);
#1199=CARTESIAN_POINT('',(-1.134E-2,0.E0,-8.6184E-1));
#1200=DIRECTION('',(0.E0,1.E0,0.E0));
#1201=DIRECTION('',(0.E0,0.E0,-1.E0));
#1202=AXIS2_PLACEMENT_3D('',#1199,#1200,#1201);
#1204=DIRECTION('',(0.E0,0.E0,1.E0));
#1205=VECTOR('',#1204,1.72368E0);
#1206=CARTESIAN_POINT('',(-8.505E-1,0.E0,-8.6184E-1));
#1207=LINE('',#1206,#1205);
#1208=CARTESIAN_POINT('',(-1.134E-2,0.E0,8.6184E-1));
#1209=DIRECTION('',(0.E0,1.E0,0.E0));
#1210=DIRECTION('',(-1.E0,0.E0,0.E0));
#1211=AXIS2_PLACEMENT_3D('',#1208,#1209,#1210);
#1213=DIRECTION('',(1.E0,0.E0,0.E0));
#1214=VECTOR('',#1213,2.268E-2);
#1215=CARTESIAN_POINT('',(-1.134E-2,0.E0,1.701E0));
#1216=LINE('',#1215,#1214);
#1217=CARTESIAN_POINT('',(1.134E-2,0.E0,8.6184E-1));
#1218=DIRECTION('',(0.E0,1.E0,0.E0));
#1219=DIRECTION('',(0.E0,0.E0,1.E0));
#1220=AXIS2_PLACEMENT_3D('',#1217,#1218,#1219);
#1222=DIRECTION('',(0.E0,0.E0,-1.E0));
#1223=VECTOR('',#1222,1.72368E0);
#1224=CARTESIAN_POINT('',(8.505E-1,0.E0,8.6184E-1));
#1225=LINE('',#1224,#1223);
#1226=CARTESIAN_POINT('',(1.134E-2,0.E0,-8.6184E-1));
#1227=DIRECTION('',(0.E0,1.E0,0.E0));
#1228=DIRECTION('',(1.E0,0.E0,0.E0));
#1229=AXIS2_PLACEMENT_3D('',#1226,#1227,#1228);
#1231=DIRECTION('',(-1.E0,0.E0,0.E0));
#1232=VECTOR('',#1231,2.268E-2);
#1233=CARTESIAN_POINT('',(1.134E-2,0.E0,-1.701E0));
#1234=LINE('',#1233,#1232);
#1235=DIRECTION('',(1.E0,0.E0,0.E0));
#1236=VECTOR('',#1235,4.037142947491E-3);
#1237=CARTESIAN_POINT('',(-2.018571473745E-3,0.E0,-1.236743717903E0));
#1238=LINE('',#1237,#1236);
#1239=CARTESIAN_POINT('',(2.018571473746E-3,0.E0,-7.264437179028E-1));
#1240=DIRECTION('',(0.E0,-1.E0,0.E0));
#1241=DIRECTION('',(0.E0,0.E0,-1.E0));
#1242=AXIS2_PLACEMENT_3D('',#1239,#1240,#1241);
#1244=DIRECTION('',(0.E0,0.E0,1.E0));
#1245=VECTOR('',#1244,1.452887435806E0);
#1246=CARTESIAN_POINT('',(5.123185714737E-1,0.E0,-7.264437179028E-1));
#1247=LINE('',#1246,#1245);
#1248=CARTESIAN_POINT('',(2.018571473746E-3,0.E0,7.264437179028E-1));
#1249=DIRECTION('',(0.E0,-1.E0,0.E0));
#1250=DIRECTION('',(1.E0,0.E0,0.E0));
#1251=AXIS2_PLACEMENT_3D('',#1248,#1249,#1250);
#1253=DIRECTION('',(-1.E0,0.E0,0.E0));
#1254=VECTOR('',#1253,4.037142947491E-3);
#1255=CARTESIAN_POINT('',(2.018571473745E-3,0.E0,1.236743717903E0));
#1256=LINE('',#1255,#1254);
#1257=CARTESIAN_POINT('',(-2.018571473746E-3,0.E0,7.264437179028E-1));
#1258=DIRECTION('',(0.E0,-1.E0,0.E0));
#1259=DIRECTION('',(0.E0,0.E0,1.E0));
#1260=AXIS2_PLACEMENT_3D('',#1257,#1258,#1259);
#1262=DIRECTION('',(0.E0,0.E0,-1.E0));
#1263=VECTOR('',#1262,1.452887435806E0);
#1264=CARTESIAN_POINT('',(-5.123185714737E-1,0.E0,7.264437179028E-1));
#1265=LINE('',#1264,#1263);
#1266=CARTESIAN_POINT('',(-2.018571473746E-3,0.E0,-7.264437179028E-1));
#1267=DIRECTION('',(0.E0,-1.E0,0.E0));
#1268=DIRECTION('',(-1.E0,0.E0,0.E0));
#1269=AXIS2_PLACEMENT_3D('',#1266,#1267,#1268);
#1271=DIRECTION('',(0.E0,1.E0,0.E0));
#1272=VECTOR('',#1271,1.134E-2);
#1273=CARTESIAN_POINT('',(-1.134E-2,0.E0,-1.701E0));
#1274=LINE('',#1273,#1272);
#1275=DIRECTION('',(0.E0,1.E0,0.E0));
#1276=VECTOR('',#1275,1.134E-2);
#1277=CARTESIAN_POINT('',(1.134E-2,0.E0,-1.701E0));
#1278=LINE('',#1277,#1276);
#1279=DIRECTION('',(0.E0,1.E0,0.E0));
#1280=VECTOR('',#1279,1.134E-2);
#1281=CARTESIAN_POINT('',(8.505E-1,0.E0,-8.6184E-1));
#1282=LINE('',#1281,#1280);
#1283=DIRECTION('',(0.E0,1.E0,0.E0));
#1284=VECTOR('',#1283,1.134E-2);
#1285=CARTESIAN_POINT('',(8.505E-1,0.E0,8.6184E-1));
#1286=LINE('',#1285,#1284);
#1287=DIRECTION('',(0.E0,1.E0,0.E0));
#1288=VECTOR('',#1287,1.134E-2);
#1289=CARTESIAN_POINT('',(1.134E-2,0.E0,1.701E0));
#1290=LINE('',#1289,#1288);
#1291=DIRECTION('',(0.E0,1.E0,0.E0));
#1292=VECTOR('',#1291,1.134E-2);
#1293=CARTESIAN_POINT('',(-1.134E-2,0.E0,1.701E0));
#1294=LINE('',#1293,#1292);
#1295=DIRECTION('',(0.E0,1.E0,0.E0));
#1296=VECTOR('',#1295,1.134E-2);
#1297=CARTESIAN_POINT('',(-8.505E-1,0.E0,8.6184E-1));
#1298=LINE('',#1297,#1296);
#1299=DIRECTION('',(0.E0,1.E0,0.E0));
#1300=VECTOR('',#1299,1.134E-2);
#1301=CARTESIAN_POINT('',(-8.505E-1,0.E0,-8.6184E-1));
#1302=LINE('',#1301,#1300);
#1303=CARTESIAN_POINT('',(-1.134E-2,1.134E-2,-8.6184E-1));
#1304=DIRECTION('',(0.E0,1.E0,0.E0));
#1305=DIRECTION('',(0.E0,0.E0,-1.E0));
#1306=AXIS2_PLACEMENT_3D('',#1303,#1304,#1305);
#1308=DIRECTION('',(-1.E0,0.E0,0.E0));
#1309=VECTOR('',#1308,2.268E-2);
#1310=CARTESIAN_POINT('',(1.134E-2,1.134E-2,-1.701E0));
#1311=LINE('',#1310,#1309);
#1312=CARTESIAN_POINT('',(1.134E-2,1.134E-2,-8.6184E-1));
#1313=DIRECTION('',(0.E0,1.E0,0.E0));
#1314=DIRECTION('',(1.E0,0.E0,0.E0));
#1315=AXIS2_PLACEMENT_3D('',#1312,#1313,#1314);
#1317=DIRECTION('',(0.E0,0.E0,-1.E0));
#1318=VECTOR('',#1317,1.72368E0);
#1319=CARTESIAN_POINT('',(8.505E-1,1.134E-2,8.6184E-1));
#1320=LINE('',#1319,#1318);
#1321=CARTESIAN_POINT('',(1.134E-2,1.134E-2,8.6184E-1));
#1322=DIRECTION('',(0.E0,1.E0,0.E0));
#1323=DIRECTION('',(0.E0,0.E0,1.E0));
#1324=AXIS2_PLACEMENT_3D('',#1321,#1322,#1323);
#1326=DIRECTION('',(1.E0,0.E0,0.E0));
#1327=VECTOR('',#1326,2.268E-2);
#1328=CARTESIAN_POINT('',(-1.134E-2,1.134E-2,1.701E0));
#1329=LINE('',#1328,#1327);
#1330=CARTESIAN_POINT('',(-1.134E-2,1.134E-2,8.6184E-1));
#1331=DIRECTION('',(0.E0,1.E0,0.E0));
#1332=DIRECTION('',(-1.E0,0.E0,0.E0));
#1333=AXIS2_PLACEMENT_3D('',#1330,#1331,#1332);
#1335=DIRECTION('',(0.E0,0.E0,1.E0));
#1336=VECTOR('',#1335,1.72368E0);
#1337=CARTESIAN_POINT('',(-8.505E-1,1.134E-2,-8.6184E-1));
#1338=LINE('',#1337,#1336);
#1339=DIRECTION('',(1.E0,0.E0,0.E0));
#1340=VECTOR('',#1339,4.037142947491E-3);
#1341=CARTESIAN_POINT('',(-2.018571473745E-3,1.134E-2,-1.236743717903E0));
#1342=LINE('',#1341,#1340);
#1343=CARTESIAN_POINT('',(-2.018571473746E-3,1.134E-2,-7.264437179028E-1));
#1344=DIRECTION('',(0.E0,-1.E0,0.E0));
#1345=DIRECTION('',(-1.E0,0.E0,0.E0));
#1346=AXIS2_PLACEMENT_3D('',#1343,#1344,#1345);
#1348=DIRECTION('',(0.E0,0.E0,-1.E0));
#1349=VECTOR('',#1348,1.452887435806E0);
#1350=CARTESIAN_POINT('',(-5.123185714737E-1,1.134E-2,7.264437179028E-1));
#1351=LINE('',#1350,#1349);
#1352=CARTESIAN_POINT('',(-2.018571473746E-3,1.134E-2,7.264437179028E-1));
#1353=DIRECTION('',(0.E0,-1.E0,0.E0));
#1354=DIRECTION('',(0.E0,0.E0,1.E0));
#1355=AXIS2_PLACEMENT_3D('',#1352,#1353,#1354);
#1357=DIRECTION('',(-1.E0,0.E0,0.E0));
#1358=VECTOR('',#1357,4.037142947491E-3);
#1359=CARTESIAN_POINT('',(2.018571473745E-3,1.134E-2,1.236743717903E0));
#1360=LINE('',#1359,#1358);
#1361=CARTESIAN_POINT('',(2.018571473746E-3,1.134E-2,7.264437179028E-1));
#1362=DIRECTION('',(0.E0,-1.E0,0.E0));
#1363=DIRECTION('',(1.E0,0.E0,0.E0));
#1364=AXIS2_PLACEMENT_3D('',#1361,#1362,#1363);
#1366=DIRECTION('',(0.E0,0.E0,1.E0));
#1367=VECTOR('',#1366,1.452887435806E0);
#1368=CARTESIAN_POINT('',(5.123185714737E-1,1.134E-2,-7.264437179028E-1));
#1369=LINE('',#1368,#1367);
#1370=CARTESIAN_POINT('',(2.018571473746E-3,1.134E-2,-7.264437179028E-1));
#1371=DIRECTION('',(0.E0,-1.E0,0.E0));
#1372=DIRECTION('',(0.E0,0.E0,-1.E0));
#1373=AXIS2_PLACEMENT_3D('',#1370,#1371,#1372);
#1375=DIRECTION('',(0.E0,1.E0,0.E0));
#1376=VECTOR('',#1375,1.134E-2);
#1377=CARTESIAN_POINT('',(-2.018571473745E-3,0.E0,-1.236743717903E0));
#1378=LINE('',#1377,#1376);
#1379=DIRECTION('',(0.E0,1.E0,0.E0));
#1380=VECTOR('',#1379,1.134E-2);
#1381=CARTESIAN_POINT('',(-5.123185714737E-1,0.E0,-7.264437179028E-1));
#1382=LINE('',#1381,#1380);
#1383=DIRECTION('',(0.E0,1.E0,0.E0));
#1384=VECTOR('',#1383,1.134E-2);
#1385=CARTESIAN_POINT('',(-5.123185714737E-1,0.E0,7.264437179028E-1));
#1386=LINE('',#1385,#1384);
#1387=DIRECTION('',(0.E0,1.E0,0.E0));
#1388=VECTOR('',#1387,1.134E-2);
#1389=CARTESIAN_POINT('',(-2.018571473746E-3,0.E0,1.236743717903E0));
#1390=LINE('',#1389,#1388);
#1391=DIRECTION('',(0.E0,1.E0,0.E0));
#1392=VECTOR('',#1391,1.134E-2);
#1393=CARTESIAN_POINT('',(2.018571473745E-3,0.E0,1.236743717903E0));
#1394=LINE('',#1393,#1392);
#1395=DIRECTION('',(0.E0,1.E0,0.E0));
#1396=VECTOR('',#1395,1.134E-2);
#1397=CARTESIAN_POINT('',(5.123185714737E-1,0.E0,7.264437179028E-1));
#1398=LINE('',#1397,#1396);
#1399=DIRECTION('',(0.E0,1.E0,0.E0));
#1400=VECTOR('',#1399,1.134E-2);
#1401=CARTESIAN_POINT('',(5.123185714737E-1,0.E0,-7.264437179028E-1));
#1402=LINE('',#1401,#1400);
#1403=DIRECTION('',(0.E0,1.E0,0.E0));
#1404=VECTOR('',#1403,1.134E-2);
#1405=CARTESIAN_POINT('',(2.018571473746E-3,0.E0,-1.236743717903E0));
#1406=LINE('',#1405,#1404);
#1407=CARTESIAN_POINT('',(-1.134E-2,0.E0,-1.701E0));
#1408=CARTESIAN_POINT('',(-8.505E-1,0.E0,-8.6184E-1));
#1409=VERTEX_POINT('',#1407);
#1410=VERTEX_POINT('',#1408);
#1411=CARTESIAN_POINT('',(-8.505E-1,0.E0,8.6184E-1));
#1412=VERTEX_POINT('',#1411);
#1413=CARTESIAN_POINT('',(-1.134E-2,0.E0,1.701E0));
#1414=VERTEX_POINT('',#1413);
#1415=CARTESIAN_POINT('',(1.134E-2,0.E0,1.701E0));
#1416=VERTEX_POINT('',#1415);
#1417=CARTESIAN_POINT('',(8.505E-1,0.E0,8.6184E-1));
#1418=VERTEX_POINT('',#1417);
#1419=CARTESIAN_POINT('',(8.505E-1,0.E0,-8.6184E-1));
#1420=VERTEX_POINT('',#1419);
#1421=CARTESIAN_POINT('',(1.134E-2,0.E0,-1.701E0));
#1422=VERTEX_POINT('',#1421);
#1423=CARTESIAN_POINT('',(-2.018571473745E-3,0.E0,-1.236743717903E0));
#1424=CARTESIAN_POINT('',(2.018571473746E-3,0.E0,-1.236743717903E0));
#1425=VERTEX_POINT('',#1423);
#1426=VERTEX_POINT('',#1424);
#1427=CARTESIAN_POINT('',(5.123185714737E-1,0.E0,-7.264437179028E-1));
#1428=VERTEX_POINT('',#1427);
#1429=CARTESIAN_POINT('',(5.123185714737E-1,0.E0,7.264437179028E-1));
#1430=VERTEX_POINT('',#1429);
#1431=CARTESIAN_POINT('',(2.018571473745E-3,0.E0,1.236743717903E0));
#1432=VERTEX_POINT('',#1431);
#1433=CARTESIAN_POINT('',(-2.018571473746E-3,0.E0,1.236743717903E0));
#1434=VERTEX_POINT('',#1433);
#1435=CARTESIAN_POINT('',(-5.123185714737E-1,0.E0,7.264437179028E-1));
#1436=VERTEX_POINT('',#1435);
#1437=CARTESIAN_POINT('',(-5.123185714737E-1,0.E0,-7.264437179028E-1));
#1438=VERTEX_POINT('',#1437);
#1439=CARTESIAN_POINT('',(-1.134E-2,1.134E-2,-1.701E0));
#1440=CARTESIAN_POINT('',(-8.505E-1,1.134E-2,-8.6184E-1));
#1441=VERTEX_POINT('',#1439);
#1442=VERTEX_POINT('',#1440);
#1443=CARTESIAN_POINT('',(-8.505E-1,1.134E-2,8.6184E-1));
#1444=VERTEX_POINT('',#1443);
#1445=CARTESIAN_POINT('',(-1.134E-2,1.134E-2,1.701E0));
#1446=VERTEX_POINT('',#1445);
#1447=CARTESIAN_POINT('',(1.134E-2,1.134E-2,1.701E0));
#1448=VERTEX_POINT('',#1447);
#1449=CARTESIAN_POINT('',(8.505E-1,1.134E-2,8.6184E-1));
#1450=VERTEX_POINT('',#1449);
#1451=CARTESIAN_POINT('',(8.505E-1,1.134E-2,-8.6184E-1));
#1452=VERTEX_POINT('',#1451);
#1453=CARTESIAN_POINT('',(1.134E-2,1.134E-2,-1.701E0));
#1454=VERTEX_POINT('',#1453);
#1455=CARTESIAN_POINT('',(-2.018571473745E-3,1.134E-2,-1.236743717903E0));
#1456=CARTESIAN_POINT('',(2.018571473746E-3,1.134E-2,-1.236743717903E0));
#1457=VERTEX_POINT('',#1455);
#1458=VERTEX_POINT('',#1456);
#1459=CARTESIAN_POINT('',(5.123185714737E-1,1.134E-2,-7.264437179028E-1));
#1460=VERTEX_POINT('',#1459);
#1461=CARTESIAN_POINT('',(5.123185714737E-1,1.134E-2,7.264437179028E-1));
#1462=VERTEX_POINT('',#1461);
#1463=CARTESIAN_POINT('',(2.018571473745E-3,1.134E-2,1.236743717903E0));
#1464=VERTEX_POINT('',#1463);
#1465=CARTESIAN_POINT('',(-2.018571473746E-3,1.134E-2,1.236743717903E0));
#1466=VERTEX_POINT('',#1465);
#1467=CARTESIAN_POINT('',(-5.123185714737E-1,1.134E-2,7.264437179028E-1));
#1468=VERTEX_POINT('',#1467);
#1469=CARTESIAN_POINT('',(-5.123185714737E-1,1.134E-2,-7.264437179028E-1));
#1470=VERTEX_POINT('',#1469);
#1471=CARTESIAN_POINT('',(0.E0,0.E0,0.E0));
#1472=DIRECTION('',(0.E0,1.E0,0.E0));
#1473=DIRECTION('',(1.E0,0.E0,0.E0));
#1474=AXIS2_PLACEMENT_3D('',#1471,#1472,#1473);
#1475=PLANE('',#1474);
#1477=ORIENTED_EDGE('',*,*,#1476,.T.);
#1479=ORIENTED_EDGE('',*,*,#1478,.T.);
#1481=ORIENTED_EDGE('',*,*,#1480,.T.);
#1483=ORIENTED_EDGE('',*,*,#1482,.T.);
#1485=ORIENTED_EDGE('',*,*,#1484,.T.);
#1487=ORIENTED_EDGE('',*,*,#1486,.T.);
#1489=ORIENTED_EDGE('',*,*,#1488,.T.);
#1491=ORIENTED_EDGE('',*,*,#1490,.T.);
#1492=EDGE_LOOP('',(#1477,#1479,#1481,#1483,#1485,#1487,#1489,#1491));
#1493=FACE_OUTER_BOUND('',#1492,.F.);
#1495=ORIENTED_EDGE('',*,*,#1494,.T.);
#1497=ORIENTED_EDGE('',*,*,#1496,.T.);
#1499=ORIENTED_EDGE('',*,*,#1498,.T.);
#1501=ORIENTED_EDGE('',*,*,#1500,.T.);
#1503=ORIENTED_EDGE('',*,*,#1502,.T.);
#1505=ORIENTED_EDGE('',*,*,#1504,.T.);
#1507=ORIENTED_EDGE('',*,*,#1506,.T.);
#1509=ORIENTED_EDGE('',*,*,#1508,.T.);
#1510=EDGE_LOOP('',(#1495,#1497,#1499,#1501,#1503,#1505,#1507,#1509));
#1511=FACE_BOUND('',#1510,.F.);
#1513=FILL_AREA_STYLE_COLOUR('',#6);
#1514=FILL_AREA_STYLE('',(#1513));
#1515=SURFACE_STYLE_FILL_AREA(#1514);
#1516=SURFACE_SIDE_STYLE('',(#1515));
#1517=SURFACE_STYLE_USAGE(.BOTH.,#1516);
#1518=PRESENTATION_STYLE_ASSIGNMENT((#1517));
#1519=STYLED_ITEM('',(#1518),#1512);
#1520=CARTESIAN_POINT('',(-1.134E-2,0.E0,-8.6184E-1));
#1521=DIRECTION('',(0.E0,1.E0,0.E0));
#1522=DIRECTION('',(1.E0,0.E0,0.E0));
#1523=AXIS2_PLACEMENT_3D('',#1520,#1521,#1522);
#1524=CYLINDRICAL_SURFACE('',#1523,8.3916E-1);
#1525=ORIENTED_EDGE('',*,*,#1476,.F.);
#1527=ORIENTED_EDGE('',*,*,#1526,.T.);
#1529=ORIENTED_EDGE('',*,*,#1528,.T.);
#1531=ORIENTED_EDGE('',*,*,#1530,.F.);
#1532=EDGE_LOOP('',(#1525,#1527,#1529,#1531));
#1533=FACE_OUTER_BOUND('',#1532,.F.);
#1535=CARTESIAN_POINT('',(1.134E-2,0.E0,-1.701E0));
#1536=DIRECTION('',(0.E0,0.E0,-1.E0));
#1537=DIRECTION('',(-1.E0,0.E0,0.E0));
#1538=AXIS2_PLACEMENT_3D('',#1535,#1536,#1537);
#1539=PLANE('',#1538);
#1540=ORIENTED_EDGE('',*,*,#1490,.F.);
#1542=ORIENTED_EDGE('',*,*,#1541,.T.);
#1544=ORIENTED_EDGE('',*,*,#1543,.T.);
#1545=ORIENTED_EDGE('',*,*,#1526,.F.);
#1546=EDGE_LOOP('',(#1540,#1542,#1544,#1545));
#1547=FACE_OUTER_BOUND('',#1546,.F.);
#1549=CARTESIAN_POINT('',(1.134E-2,0.E0,-8.6184E-1));
#1550=DIRECTION('',(0.E0,1.E0,0.E0));
#1551=DIRECTION('',(1.E0,0.E0,0.E0));
#1552=AXIS2_PLACEMENT_3D('',#1549,#1550,#1551);
#1553=CYLINDRICAL_SURFACE('',#1552,8.3916E-1);
#1554=ORIENTED_EDGE('',*,*,#1488,.F.);
#1556=ORIENTED_EDGE('',*,*,#1555,.T.);
#1558=ORIENTED_EDGE('',*,*,#1557,.T.);
#1559=ORIENTED_EDGE('',*,*,#1541,.F.);
#1560=EDGE_LOOP('',(#1554,#1556,#1558,#1559));
#1561=FACE_OUTER_BOUND('',#1560,.F.);
#1563=CARTESIAN_POINT('',(8.505E-1,0.E0,8.6184E-1));
#1564=DIRECTION('',(1.E0,0.E0,0.E0));
#1565=DIRECTION('',(0.E0,0.E0,-1.E0));
#1566=AXIS2_PLACEMENT_3D('',#1563,#1564,#1565);
#1567=PLANE('',#1566);
#1568=ORIENTED_EDGE('',*,*,#1486,.F.);
#1570=ORIENTED_EDGE('',*,*,#1569,.T.);
#1572=ORIENTED_EDGE('',*,*,#1571,.T.);
#1573=ORIENTED_EDGE('',*,*,#1555,.F.);
#1574=EDGE_LOOP('',(#1568,#1570,#1572,#1573));
#1575=FACE_OUTER_BOUND('',#1574,.F.);
#1577=CARTESIAN_POINT('',(1.134E-2,0.E0,8.6184E-1));
#1578=DIRECTION('',(0.E0,1.E0,0.E0));
#1579=DIRECTION('',(1.E0,0.E0,0.E0));
#1580=AXIS2_PLACEMENT_3D('',#1577,#1578,#1579);
#1581=CYLINDRICAL_SURFACE('',#1580,8.3916E-1);
#1582=ORIENTED_EDGE('',*,*,#1484,.F.);
#1584=ORIENTED_EDGE('',*,*,#1583,.T.);
#1586=ORIENTED_EDGE('',*,*,#1585,.T.);
#1587=ORIENTED_EDGE('',*,*,#1569,.F.);
#1588=EDGE_LOOP('',(#1582,#1584,#1586,#1587));
#1589=FACE_OUTER_BOUND('',#1588,.F.);
#1591=CARTESIAN_POINT('',(-1.134E-2,0.E0,1.701E0));
#1592=DIRECTION('',(0.E0,0.E0,1.E0));
#1593=DIRECTION('',(1.E0,0.E0,0.E0));
#1594=AXIS2_PLACEMENT_3D('',#1591,#1592,#1593);
#1595=PLANE('',#1594);
#1596=ORIENTED_EDGE('',*,*,#1482,.F.);
#1598=ORIENTED_EDGE('',*,*,#1597,.T.);
#1600=ORIENTED_EDGE('',*,*,#1599,.T.);
#1601=ORIENTED_EDGE('',*,*,#1583,.F.);
#1602=EDGE_LOOP('',(#1596,#1598,#1600,#1601));
#1603=FACE_OUTER_BOUND('',#1602,.F.);
#1605=CARTESIAN_POINT('',(-1.134E-2,0.E0,8.6184E-1));
#1606=DIRECTION('',(0.E0,1.E0,0.E0));
#1607=DIRECTION('',(1.E0,0.E0,0.E0));
#1608=AXIS2_PLACEMENT_3D('',#1605,#1606,#1607);
#1609=CYLINDRICAL_SURFACE('',#1608,8.3916E-1);
#1610=ORIENTED_EDGE('',*,*,#1480,.F.);
#1612=ORIENTED_EDGE('',*,*,#1611,.T.);
#1614=ORIENTED_EDGE('',*,*,#1613,.T.);
#1615=ORIENTED_EDGE('',*,*,#1597,.F.);
#1616=EDGE_LOOP('',(#1610,#1612,#1614,#1615));
#1617=FACE_OUTER_BOUND('',#1616,.F.);
#1619=CARTESIAN_POINT('',(-8.505E-1,0.E0,-8.6184E-1));
#1620=DIRECTION('',(-1.E0,0.E0,0.E0));
#1621=DIRECTION('',(0.E0,0.E0,1.E0));
#1622=AXIS2_PLACEMENT_3D('',#1619,#1620,#1621);
#1623=PLANE('',#1622);
#1624=ORIENTED_EDGE('',*,*,#1478,.F.);
#1625=ORIENTED_EDGE('',*,*,#1530,.T.);
#1627=ORIENTED_EDGE('',*,*,#1626,.T.);
#1628=ORIENTED_EDGE('',*,*,#1611,.F.);
#1629=EDGE_LOOP('',(#1624,#1625,#1627,#1628));
#1630=FACE_OUTER_BOUND('',#1629,.F.);
#1632=CARTESIAN_POINT('',(0.E0,1.134E-2,0.E0));
#1633=DIRECTION('',(0.E0,1.E0,0.E0));
#1634=DIRECTION('',(1.E0,0.E0,0.E0));
#1635=AXIS2_PLACEMENT_3D('',#1632,#1633,#1634);
#1636=PLANE('',#1635);
#1637=ORIENTED_EDGE('',*,*,#1528,.F.);
#1638=ORIENTED_EDGE('',*,*,#1543,.F.);
#1639=ORIENTED_EDGE('',*,*,#1557,.F.);
#1640=ORIENTED_EDGE('',*,*,#1571,.F.);
#1641=ORIENTED_EDGE('',*,*,#1585,.F.);
#1642=ORIENTED_EDGE('',*,*,#1599,.F.);
#1643=ORIENTED_EDGE('',*,*,#1613,.F.);
#1644=ORIENTED_EDGE('',*,*,#1626,.F.);
#1645=EDGE_LOOP('',(#1637,#1638,#1639,#1640,#1641,#1642,#1643,#1644));
#1646=FACE_OUTER_BOUND('',#1645,.F.);
#1648=ORIENTED_EDGE('',*,*,#1647,.F.);
#1650=ORIENTED_EDGE('',*,*,#1649,.F.);
#1652=ORIENTED_EDGE('',*,*,#1651,.F.);
#1654=ORIENTED_EDGE('',*,*,#1653,.F.);
#1656=ORIENTED_EDGE('',*,*,#1655,.F.);
#1658=ORIENTED_EDGE('',*,*,#1657,.F.);
#1660=ORIENTED_EDGE('',*,*,#1659,.F.);
#1662=ORIENTED_EDGE('',*,*,#1661,.F.);
#1663=EDGE_LOOP('',(#1648,#1650,#1652,#1654,#1656,#1658,#1660,#1662));
#1664=FACE_BOUND('',#1663,.F.);
#1666=FILL_AREA_STYLE_COLOUR('',#21);
#1667=FILL_AREA_STYLE('',(#1666));
#1668=SURFACE_STYLE_FILL_AREA(#1667);
#1669=SURFACE_SIDE_STYLE('',(#1668));
#1670=SURFACE_STYLE_USAGE(.POSITIVE.,#1669);
#1671=PRESENTATION_STYLE_ASSIGNMENT((#1670));
#1672=STYLED_ITEM('',(#1671),#1665);
#1673=CARTESIAN_POINT('',(-2.018571473746E-3,0.E0,-1.236743717903E0));
#1674=DIRECTION('',(0.E0,0.E0,1.E0));
#1675=DIRECTION('',(1.E0,0.E0,0.E0));
#1676=AXIS2_PLACEMENT_3D('',#1673,#1674,#1675);
#1677=PLANE('',#1676);
#1678=ORIENTED_EDGE('',*,*,#1494,.F.);
#1680=ORIENTED_EDGE('',*,*,#1679,.T.);
#1681=ORIENTED_EDGE('',*,*,#1647,.T.);
#1683=ORIENTED_EDGE('',*,*,#1682,.F.);
#1684=EDGE_LOOP('',(#1678,#1680,#1681,#1683));
#1685=FACE_OUTER_BOUND('',#1684,.F.);
#1687=CARTESIAN_POINT('',(-2.018571473746E-3,0.E0,-7.264437179028E-1));
#1688=DIRECTION('',(0.E0,1.E0,0.E0));
#1689=DIRECTION('',(1.E0,0.E0,0.E0));
#1690=AXIS2_PLACEMENT_3D('',#1687,#1688,#1689);
#1691=CYLINDRICAL_SURFACE('',#1690,5.103E-1);
#1692=ORIENTED_EDGE('',*,*,#1508,.F.);
#1694=ORIENTED_EDGE('',*,*,#1693,.T.);
#1695=ORIENTED_EDGE('',*,*,#1649,.T.);
#1696=ORIENTED_EDGE('',*,*,#1679,.F.);
#1697=EDGE_LOOP('',(#1692,#1694,#1695,#1696));
#1698=FACE_OUTER_BOUND('',#1697,.F.);
#1700=CARTESIAN_POINT('',(-5.123185714737E-1,0.E0,7.264437179028E-1));
#1701=DIRECTION('',(1.E0,0.E0,0.E0));
#1702=DIRECTION('',(0.E0,0.E0,-1.E0));
#1703=AXIS2_PLACEMENT_3D('',#1700,#1701,#1702);
#1704=PLANE('',#1703);
#1705=ORIENTED_EDGE('',*,*,#1506,.F.);
#1707=ORIENTED_EDGE('',*,*,#1706,.T.);
#1708=ORIENTED_EDGE('',*,*,#1651,.T.);
#1709=ORIENTED_EDGE('',*,*,#1693,.F.);
#1710=EDGE_LOOP('',(#1705,#1707,#1708,#1709));
#1711=FACE_OUTER_BOUND('',#1710,.F.);
#1713=CARTESIAN_POINT('',(-2.018571473746E-3,0.E0,7.264437179028E-1));
#1714=DIRECTION('',(0.E0,1.E0,0.E0));
#1715=DIRECTION('',(1.E0,0.E0,0.E0));
#1716=AXIS2_PLACEMENT_3D('',#1713,#1714,#1715);
#1717=CYLINDRICAL_SURFACE('',#1716,5.103E-1);
#1718=ORIENTED_EDGE('',*,*,#1504,.F.);
#1720=ORIENTED_EDGE('',*,*,#1719,.T.);
#1721=ORIENTED_EDGE('',*,*,#1653,.T.);
#1722=ORIENTED_EDGE('',*,*,#1706,.F.);
#1723=EDGE_LOOP('',(#1718,#1720,#1721,#1722));
#1724=FACE_OUTER_BOUND('',#1723,.F.);
#1726=CARTESIAN_POINT('',(2.018571473746E-3,0.E0,1.236743717903E0));
#1727=DIRECTION('',(0.E0,0.E0,-1.E0));
#1728=DIRECTION('',(-1.E0,0.E0,0.E0));
#1729=AXIS2_PLACEMENT_3D('',#1726,#1727,#1728);
#1730=PLANE('',#1729);
#1731=ORIENTED_EDGE('',*,*,#1502,.F.);
#1733=ORIENTED_EDGE('',*,*,#1732,.T.);
#1734=ORIENTED_EDGE('',*,*,#1655,.T.);
#1735=ORIENTED_EDGE('',*,*,#1719,.F.);
#1736=EDGE_LOOP('',(#1731,#1733,#1734,#1735));
#1737=FACE_OUTER_BOUND('',#1736,.F.);
#1739=CARTESIAN_POINT('',(2.018571473746E-3,0.E0,7.264437179028E-1));
#1740=DIRECTION('',(0.E0,1.E0,0.E0));
#1741=DIRECTION('',(1.E0,0.E0,0.E0));
#1742=AXIS2_PLACEMENT_3D('',#1739,#1740,#1741);
#1743=CYLINDRICAL_SURFACE('',#1742,5.103E-1);
#1744=ORIENTED_EDGE('',*,*,#1500,.F.);
#1746=ORIENTED_EDGE('',*,*,#1745,.T.);
#1747=ORIENTED_EDGE('',*,*,#1657,.T.);
#1748=ORIENTED_EDGE('',*,*,#1732,.F.);
#1749=EDGE_LOOP('',(#1744,#1746,#1747,#1748));
#1750=FACE_OUTER_BOUND('',#1749,.F.);
#1752=CARTESIAN_POINT('',(5.123185714737E-1,0.E0,-7.264437179028E-1));
#1753=DIRECTION('',(-1.E0,0.E0,0.E0));
#1754=DIRECTION('',(0.E0,0.E0,1.E0));
#1755=AXIS2_PLACEMENT_3D('',#1752,#1753,#1754);
#1756=PLANE('',#1755);
#1757=ORIENTED_EDGE('',*,*,#1498,.F.);
#1759=ORIENTED_EDGE('',*,*,#1758,.T.);
#1760=ORIENTED_EDGE('',*,*,#1659,.T.);
#1761=ORIENTED_EDGE('',*,*,#1745,.F.);
#1762=EDGE_LOOP('',(#1757,#1759,#1760,#1761));
#1763=FACE_OUTER_BOUND('',#1762,.F.);
#1765=CARTESIAN_POINT('',(2.018571473746E-3,0.E0,-7.264437179028E-1));
#1766=DIRECTION('',(0.E0,1.E0,0.E0));
#1767=DIRECTION('',(1.E0,0.E0,0.E0));
#1768=AXIS2_PLACEMENT_3D('',#1765,#1766,#1767);
#1769=CYLINDRICAL_SURFACE('',#1768,5.103E-1);
#1770=ORIENTED_EDGE('',*,*,#1496,.F.);
#1771=ORIENTED_EDGE('',*,*,#1682,.T.);
#1772=ORIENTED_EDGE('',*,*,#1661,.T.);
#1773=ORIENTED_EDGE('',*,*,#1758,.F.);
#1774=EDGE_LOOP('',(#1770,#1771,#1772,#1773));
#1775=FACE_OUTER_BOUND('',#1774,.F.);
#1777=CLOSED_SHELL('',(#1512,#1534,#1548,#1562,#1576,#1590,#1604,#1618,#1631,
#1665,#1686,#1699,#1712,#1725,#1738,#1751,#1764,#1776));
#1778=MANIFOLD_SOLID_BREP('',#1777);
#1781=PLANE_ANGLE_MEASURE_WITH_UNIT(PLANE_ANGLE_MEASURE(1.745329251994E-2),
#1780);
#1782=(CONVERSION_BASED_UNIT('DEGREE',#1781)NAMED_UNIT(*)PLANE_ANGLE_UNIT());
#1784=UNCERTAINTY_MEASURE_WITH_UNIT(LENGTH_MEASURE(4.183739436428E-4),#1779,
'distance_accuracy_value',
'Maximum model space distance between geometric entities at asserted connectivities');
#1786=CARTESIAN_POINT('',(0.E0,0.E0,0.E0));
#1787=DIRECTION('',(0.E0,0.E0,1.E0));
#1788=DIRECTION('',(1.E0,0.E0,0.E0));
#1791=PRODUCT_DEFINITION_CONTEXT('part definition',#901,'design');
#1792=PRODUCT_CONTEXT('',#901,'mechanical');
#1793=PRODUCT('YUAN10002000','YUAN10002000','NOT SPECIFIED',(#1792));
#1794=PRODUCT_DEFINITION_FORMATION('11','LAST_VERSION',#1793);
#1802=DERIVED_UNIT_ELEMENT(#1801,2.E0);
#1803=DERIVED_UNIT((#1802));
#1804=MEASURE_REPRESENTATION_ITEM('surface area measure',AREA_MEASURE(
5.911657215386E0),#1803);
#1809=DERIVED_UNIT_ELEMENT(#1808,3.E0);
#1810=DERIVED_UNIT((#1809));
#1811=MEASURE_REPRESENTATION_ITEM('volume measure',VOLUME_MEASURE(
3.256199302635E-2),#1810);
#1815=CARTESIAN_POINT('centre point',(0.E0,5.67E-3,0.E0));
#1820=DERIVED_UNIT_ELEMENT(#1819,2.E0);
#1821=DERIVED_UNIT((#1820));
#1822=MEASURE_REPRESENTATION_ITEM('surface area measure',AREA_MEASURE(
5.911657215386E0),#1821);
#1827=DERIVED_UNIT_ELEMENT(#1826,3.E0);
#1828=DERIVED_UNIT((#1827));
#1829=MEASURE_REPRESENTATION_ITEM('volume measure',VOLUME_MEASURE(
3.256199302635E-2),#1828);
#1833=CARTESIAN_POINT('centre point',(0.E0,5.67E-3,0.E0));
#1840=CARTESIAN_POINT('centre point',(4.960294598357E0,3.886770898040E1,
2.657760740073E-2));
#1844=CARTESIAN_POINT('',(4.960702880609E0,3.886770898040E1,3.223288861412E-2));
#1845=DIRECTION('',(-1.413889686809E-3,-9.999989952478E-1,1.020755721670E-4));
#1846=DIRECTION('',(-9.974030919292E-1,1.417569564042E-3,7.200737952879E-2));
#1847=AXIS2_PLACEMENT_3D('',#1844,#1845,#1846);
#1848=ITEM_DEFINED_TRANSFORMATION('','',#1789,#1847);
#1849=(REPRESENTATION_RELATIONSHIP('','',#1790,#952)REPRESENTATION_RELATIONSHIP_WITH_TRANSFORMATION(#1848)SHAPE_REPRESENTATION_RELATIONSHIP());
#1850=CONTEXT_DEPENDENT_SHAPE_REPRESENTATION(#1849,#1839);
#1853=CARTESIAN_POINT('centre point',(4.950743337461E0,3.211240735540E1,
2.726715937209E-2));
#1857=CARTESIAN_POINT('',(4.951151619713E0,3.211240735540E1,3.292244058549E-2));
#1858=DIRECTION('',(-1.413889686798E-3,-9.999989952478E-1,1.020755721665E-4));
#1859=DIRECTION('',(-9.974030919292E-1,1.417569564031E-3,7.200737952880E-2));
#1860=AXIS2_PLACEMENT_3D('',#1857,#1858,#1859);
#1861=ITEM_DEFINED_TRANSFORMATION('','',#1789,#1860);
#1862=(REPRESENTATION_RELATIONSHIP('','',#1790,#952)REPRESENTATION_RELATIONSHIP_WITH_TRANSFORMATION(#1861)SHAPE_REPRESENTATION_RELATIONSHIP());
#1863=CONTEXT_DEPENDENT_SHAPE_REPRESENTATION(#1862,#1852);
#1866=PLANE_ANGLE_MEASURE_WITH_UNIT(PLANE_ANGLE_MEASURE(1.745329251994E-2),
#1865);
#1867=(CONVERSION_BASED_UNIT('DEGREE',#1866)NAMED_UNIT(*)PLANE_ANGLE_UNIT());
#1869=UNCERTAINTY_MEASURE_WITH_UNIT(LENGTH_MEASURE(4.519006843861E-3),#1864,
'distance_accuracy_value',
'Maximum model space distance between geometric entities at asserted connectivities');
#1871=CARTESIAN_POINT('',(0.E0,0.E0,0.E0));
#1872=DIRECTION('',(0.E0,0.E0,1.E0));
#1873=DIRECTION('',(1.E0,0.E0,0.E0));
#1875=MECHANICAL_DESIGN_GEOMETRIC_PRESENTATION_REPRESENTATION('',(#368,#390,
#414,#435,#454,#479,#499,#524,#546,#568,#589,#610,#629,#652,#697,#719,#739,#768,
#790,#810,#827,#849,#869,#886,#1100,#1519,#1672),#1870);
#1876=PRODUCT_CONTEXT('',#901,'mechanical');
#1877=PRODUCT('ASM0011_ASM','ASM0011_ASM','NOT SPECIFIED',(#1876));
#1878=PRODUCT_DEFINITION_FORMATION('1','LAST_VERSION',#1877);
#1881=DERIVED_UNIT_ELEMENT(#1880,2.E0);
#1882=DERIVED_UNIT((#1881));
#1883=MEASURE_REPRESENTATION_ITEM('surface area measure',AREA_MEASURE(
9.248700517743E2),#1882);
#1888=DERIVED_UNIT_ELEMENT(#1887,3.E0);
#1889=DERIVED_UNIT((#1888));
#1890=MEASURE_REPRESENTATION_ITEM('volume measure',VOLUME_MEASURE(
1.415352678703E3),#1889);
#1894=CARTESIAN_POINT('centre point',(4.999997829996E0,3.377445418729E1,
-5.001357908937E0));
#1898=PRODUCT_RELATED_PRODUCT_CATEGORY('part','',(#1877,#905,#1141,#1793));
#1=DRAUGHTING_PRE_DEFINED_COLOUR('green');
#2=COLOUR_RGB('',1.1E-2,1.2E-2,1.E0);
#3=COLOUR_RGB('',1.607843137255E-1,1.607843137255E-1,1.803921568627E-1);
#4=COLOUR_RGB('',2.392156862745E-1,2.509803921569E-1,2.588235294118E-1);
#5=COLOUR_RGB('',4.1E-1,2.61589E-1,1.12848E-1);
#6=COLOUR_RGB('',4.941176470588E-1,3.215686274510E-1,3.215686274510E-1);
#7=COLOUR_RGB('',5.04854E-1,1.5455E-2,1.5455E-2);
#8=COLOUR_RGB('',5.176470588235E-1,3.372549019608E-1,3.490196078431E-1);
#9=COLOUR_RGB('',6.35294E-1,6.86275E-1,7.4902E-1);
#10=COLOUR_RGB('',6.40777E-1,6.40777E-1,6.40777E-1);
#11=COLOUR_RGB('',6.69062E-1,6.69903E-1,6.55217E-1);
#12=COLOUR_RGB('',7.843137254902E-1,7.843137254902E-1,2.078431372549E-1);
#13=COLOUR_RGB('',8.196078431373E-1,8.117647058824E-1,8.117647058824E-1);
#14=COLOUR_RGB('',8.588235294118E-1,8.705882352941E-1,3.098039215686E-1);
#15=COLOUR_RGB('',8.705882352941E-1,9.019607843137E-1,9.098039215686E-1);
#16=COLOUR_RGB('',9.21569E-1,7.05882E-1,4.70588E-1);
#17=DRAUGHTING_PRE_DEFINED_COLOUR('red');
#18=COLOUR_RGB('',1.E0,9.215686274510E-1,4.313725490196E-1);
#19=DRAUGHTING_PRE_DEFINED_COLOUR('yellow');
#20=COLOUR_RGB('',1.E0,1.E0,5.3E-1);
#21=COLOUR_RGB('',1.E0,1.E0,9.49E-1);
#22=DRAUGHTING_PRE_DEFINED_COLOUR('white');
#27=CIRCLE('',#26,4.749977422528E0);
#32=CIRCLE('',#31,4.749977422528E0);
#37=CIRCLE('',#36,3.7E0);
#42=CIRCLE('',#41,3.7E0);
#47=CIRCLE('',#46,2.5E-1);
#52=CIRCLE('',#51,4.999967160041E0);
#57=CIRCLE('',#56,4.781818181818E0);
#62=CIRCLE('',#61,8.E-1);
#67=CIRCLE('',#66,4.999967160041E0);
#72=CIRCLE('',#71,8.E-1);
#77=CIRCLE('',#76,2.5E-1);
#82=CIRCLE('',#81,3.E-1);
#87=CIRCLE('',#86,4.781818181818E0);
#92=CIRCLE('',#91,4.781818181818E0);
#97=CIRCLE('',#96,3.E-1);
#102=CIRCLE('',#101,4.781818181818E0);
#107=CIRCLE('',#106,4.781818181818E0);
#112=CIRCLE('',#111,5.E0);
#117=CIRCLE('',#116,4.781818181818E0);
#122=CIRCLE('',#121,8.E-1);
#127=CIRCLE('',#126,5.E0);
#136=CIRCLE('',#135,1.5E-1);
#141=CIRCLE('',#140,1.5E-1);
#146=CIRCLE('',#145,5.E0);
#151=CIRCLE('',#150,5.E0);
#156=CIRCLE('',#155,5.E0);
#165=CIRCLE('',#164,8.E-1);
#170=CIRCLE('',#169,4.85E0);
#175=CIRCLE('',#174,4.85E0);
#180=CIRCLE('',#179,3.5E0);
#185=CIRCLE('',#184,3.5E0);
#198=CIRCLE('',#197,3.5E0);
#203=CIRCLE('',#202,3.5E0);
#216=CIRCLE('',#215,3.7E0);
#221=CIRCLE('',#220,3.7E0);
#226=CIRCLE('',#225,3.E-1);
#231=CIRCLE('',#230,3.E-1);
#236=CIRCLE('',#235,3.E-1);
#241=CIRCLE('',#240,3.E-1);
#254=CIRCLE('',#253,3.E-1);
#259=CIRCLE('',#258,3.E-1);
#272=CIRCLE('',#271,3.E-1);
#277=CIRCLE('',#276,3.E-1);
#349=EDGE_CURVE('',#334,#335,#27,.T.);
#351=EDGE_CURVE('',#335,#334,#32,.T.);
#355=EDGE_CURVE('',#304,#305,#37,.T.);
#357=EDGE_CURVE('',#305,#304,#42,.T.);
#361=ADVANCED_FACE('',(#354,#360),#348,.F.);
#374=EDGE_CURVE('',#330,#331,#52,.T.);
#376=EDGE_CURVE('',#331,#335,#77,.T.);
#379=EDGE_CURVE('',#330,#334,#47,.T.);
#383=ADVANCED_FACE('',(#382),#373,.T.);
#397=EDGE_CURVE('',#330,#293,#72,.T.);
#399=EDGE_CURVE('',#293,#296,#57,.T.);
#401=EDGE_CURVE('',#327,#296,#92,.T.);
#403=EDGE_CURVE('',#331,#327,#62,.T.);
#407=ADVANCED_FACE('',(#406),#395,.T.);
#420=EDGE_CURVE('',#331,#330,#67,.T.);
#423=EDGE_CURVE('',#293,#327,#87,.T.);
#428=ADVANCED_FACE('',(#427),#419,.T.);
#447=ADVANCED_FACE('',(#446),#440,.T.);
#460=EDGE_CURVE('',#292,#293,#82,.T.);
#464=EDGE_CURVE('',#296,#297,#97,.T.);
#466=EDGE_CURVE('',#297,#323,#102,.T.);
#468=EDGE_CURVE('',#323,#292,#107,.T.);
#472=ADVANCED_FACE('',(#471),#459,.F.);
#486=EDGE_CURVE('',#297,#292,#117,.T.);
#492=ADVANCED_FACE('',(#491),#484,.F.);
#505=EDGE_CURVE('',#287,#289,#112,.T.);
#507=EDGE_CURVE('',#289,#323,#165,.T.);
#511=EDGE_CURVE('',#325,#292,#122,.T.);
#513=EDGE_CURVE('',#325,#287,#151,.T.);
#517=ADVANCED_FACE('',(#516),#504,.T.);
#530=EDGE_CURVE('',#280,#281,#127,.T.);
#532=EDGE_CURVE('',#289,#280,#160,.T.);
#535=EDGE_CURVE('',#287,#281,#131,.T.);
#539=ADVANCED_FACE('',(#538),#529,.T.);
#553=EDGE_CURVE('',#281,#285,#141,.T.);
#555=EDGE_CURVE('',#284,#285,#170,.T.);
#557=EDGE_CURVE('',#280,#284,#136,.T.);
#561=ADVANCED_FACE('',(#560),#551,.T.);
#574=EDGE_CURVE('',#281,#280,#146,.T.);
#577=EDGE_CURVE('',#285,#284,#175,.T.);
#582=ADVANCED_FACE('',(#581),#573,.T.);
#598=EDGE_CURVE('',#289,#325,#156,.T.);
#603=ADVANCED_FACE('',(#602),#594,.T.);
#622=ADVANCED_FACE('',(#621),#615,.T.);
#639=EDGE_CURVE('',#342,#343,#180,.T.);
#641=EDGE_CURVE('',#343,#342,#185,.T.);
#645=ADVANCED_FACE('',(#638,#644),#634,.T.);
#659=EDGE_CURVE('',#342,#338,#189,.T.);
#661=EDGE_CURVE('',#338,#339,#198,.T.);
#663=EDGE_CURVE('',#343,#339,#193,.T.);
#667=ADVANCED_FACE('',(#666),#657,.F.);
#675=EDGE_CURVE('',#339,#338,#203,.T.);
#680=ADVANCED_FACE('',(#679),#672,.F.);
#690=ADVANCED_FACE('',(#689),#685,.T.);
#704=EDGE_CURVE('',#304,#300,#207,.T.);
#706=EDGE_CURVE('',#300,#301,#216,.T.);
#708=EDGE_CURVE('',#305,#301,#211,.T.);
#712=ADVANCED_FACE('',(#711),#702,.F.);
#727=EDGE_CURVE('',#301,#300,#221,.T.);
#732=ADVANCED_FACE('',(#731),#724,.F.);
#749=EDGE_CURVE('',#312,#313,#226,.T.);
#751=EDGE_CURVE('',#313,#312,#231,.T.);
#755=EDGE_CURVE('',#320,#321,#236,.T.);
#757=EDGE_CURVE('',#321,#320,#241,.T.);
#761=ADVANCED_FACE('',(#748,#754,#760),#744,.T.);
#775=EDGE_CURVE('',#312,#308,#245,.T.);
#777=EDGE_CURVE('',#308,#309,#254,.T.);
#779=EDGE_CURVE('',#313,#309,#249,.T.);
#783=ADVANCED_FACE('',(#782),#773,.T.);
#798=EDGE_CURVE('',#309,#308,#259,.T.);
#803=ADVANCED_FACE('',(#802),#795,.T.);
#820=ADVANCED_FACE('',(#819),#815,.T.);
#834=EDGE_CURVE('',#320,#316,#263,.T.);
#836=EDGE_CURVE('',#316,#317,#272,.T.);
#838=EDGE_CURVE('',#321,#317,#267,.T.);
#842=ADVANCED_FACE('',(#841),#832,.T.);
#857=EDGE_CURVE('',#317,#316,#277,.T.);
#862=ADVANCED_FACE('',(#861),#854,.T.);
#879=ADVANCED_FACE('',(#878),#874,.T.);
#889=(LENGTH_UNIT()NAMED_UNIT(*)SI_UNIT(.MILLI.,.METRE.));
#890=(NAMED_UNIT(*)PLANE_ANGLE_UNIT()SI_UNIT($,.RADIAN.));
#893=(NAMED_UNIT(*)SI_UNIT($,.STERADIAN.)SOLID_ANGLE_UNIT());
#895=(GEOMETRIC_REPRESENTATION_CONTEXT(3)GLOBAL_UNCERTAINTY_ASSIGNED_CONTEXT((
#894))GLOBAL_UNIT_ASSIGNED_CONTEXT((#889,#892,#893))REPRESENTATION_CONTEXT
('ID1','3'));
#899=AXIS2_PLACEMENT_3D('',#896,#897,#898);
#900=ADVANCED_BREP_SHAPE_REPRESENTATION('',(#899,#888),#895);
#907=PRODUCT_DEFINITION('part definition','',#906,#903);
#908=PRODUCT_DEFINITION_SHAPE('','SHAPE FOR 0100200000.',#907);
#909=SHAPE_ASPECT('','solid data associated with 0100200000',#908,.F.);
#910=PROPERTY_DEFINITION('',
'shape for solid data with which properties are associated',#909);
#911=SHAPE_REPRESENTATION('',(#888),#895);
#912=SHAPE_DEFINITION_REPRESENTATION(#910,#911);
#913=(LENGTH_UNIT()NAMED_UNIT(*)SI_UNIT(.MILLI.,.METRE.));
#917=PROPERTY_DEFINITION('geometric validation property','area of 0100200000',
#909);
#918=REPRESENTATION('surface area',(#916),#895);
#919=PROPERTY_DEFINITION_REPRESENTATION(#917,#918);
#920=(LENGTH_UNIT()NAMED_UNIT(*)SI_UNIT(.MILLI.,.METRE.));
#924=PROPERTY_DEFINITION('geometric validation property','volume of 0100200000',
#909);
#925=REPRESENTATION('volume',(#923),#895);
#926=PROPERTY_DEFINITION_REPRESENTATION(#924,#925);
#928=PROPERTY_DEFINITION('geometric validation property',
'centroid of 0100200000',#909);
#929=REPRESENTATION('centroid',(#927),#895);
#930=PROPERTY_DEFINITION_REPRESENTATION(#928,#929);
#931=(LENGTH_UNIT()NAMED_UNIT(*)SI_UNIT(.MILLI.,.METRE.));
#935=PROPERTY_DEFINITION('geometric validation property','area of 0100200000',
#908);
#936=REPRESENTATION('surface area',(#934),#895);
#937=PROPERTY_DEFINITION_REPRESENTATION(#935,#936);
#938=(LENGTH_UNIT()NAMED_UNIT(*)SI_UNIT(.MILLI.,.METRE.));
#942=PROPERTY_DEFINITION('geometric validation property','volume of 0100200000',
#908);
#943=REPRESENTATION('volume',(#941),#895);
#944=PROPERTY_DEFINITION_REPRESENTATION(#942,#943);
#946=PROPERTY_DEFINITION('geometric validation property',
'centroid of 0100200000',#908);
#947=REPRESENTATION('centroid',(#945),#895);
#948=PROPERTY_DEFINITION_REPRESENTATION(#946,#947);
#949=SHAPE_DEFINITION_REPRESENTATION(#908,#900);
#950=SHAPE_DEFINITION_REPRESENTATION(#951,#952);
#951=PRODUCT_DEFINITION_SHAPE('','SHAPE FOR ASM0011_ASM.',#1879);
#952=SHAPE_REPRESENTATION('',(#962,#1195,#1847,#1860,#1874),#1870);
#953=NEXT_ASSEMBLY_USAGE_OCCURRENCE('5','Next assembly relationship',
'\X2\5F157EBF\X0\01002000',#1879,#907,$);
#954=PRODUCT_DEFINITION_SHAPE('Placement #5',
'Placement of 0100200000 with respect to ASM0011_ASM',#953);
#956=PROPERTY_DEFINITION('geometric validation property',
'centroid of \X2\5F157EBF\X0\01002000',#954);
#957=REPRESENTATION('centroid',(#955),#895);
#958=PROPERTY_DEFINITION_REPRESENTATION(#956,#957);
#966=COLOUR_RGB('',1.9E-1,1.9E-1,2.2E-1);
#971=CIRCLE('',#970,5.E0);
#980=CIRCLE('',#979,5.005E0);
#1005=CIRCLE('',#1004,5.E0);
#1014=CIRCLE('',#1013,5.005E0);
#1040=EDGE_CURVE('',#1021,#1022,#971,.T.);
#1042=EDGE_CURVE('',#1022,#1024,#975,.T.);
#1044=EDGE_CURVE('',#1024,#1026,#980,.T.);
#1046=EDGE_CURVE('',#1026,#1021,#984,.T.);
#1050=ADVANCED_FACE('',(#1049),#1039,.F.);
#1057=EDGE_CURVE('',#1021,#1029,#988,.T.);
#1059=EDGE_CURVE('',#1029,#1030,#1005,.T.);
#1061=EDGE_CURVE('',#1022,#1030,#1000,.T.);
#1065=ADVANCED_FACE('',(#1064),#1055,.F.);
#1072=EDGE_CURVE('',#1026,#1034,#992,.T.);
#1074=EDGE_CURVE('',#1034,#1029,#1009,.T.);
#1079=ADVANCED_FACE('',(#1078),#1070,.T.);
#1086=EDGE_CURVE('',#1024,#1032,#996,.T.);
#1088=EDGE_CURVE('',#1032,#1034,#1014,.T.);
#1093=ADVANCED_FACE('',(#1092),#1084,.T.);
#1108=EDGE_CURVE('',#1030,#1032,#1018,.T.);
#1113=ADVANCED_FACE('',(#1112),#1105,.T.);
#1125=ADVANCED_FACE('',(#1124),#1118,.T.);
#1128=(LENGTH_UNIT()NAMED_UNIT(*)SI_UNIT(.MILLI.,.METRE.));
#1129=(NAMED_UNIT(*)PLANE_ANGLE_UNIT()SI_UNIT($,.RADIAN.));
#1132=(NAMED_UNIT(*)SI_UNIT($,.STERADIAN.)SOLID_ANGLE_UNIT());
#1134=(GEOMETRIC_REPRESENTATION_CONTEXT(3)GLOBAL_UNCERTAINTY_ASSIGNED_CONTEXT((
#1133))GLOBAL_UNIT_ASSIGNED_CONTEXT((#1128,#1131,#1132))REPRESENTATION_CONTEXT(
'ID2','3'));
#1138=AXIS2_PLACEMENT_3D('',#1135,#1136,#1137);
#1139=ADVANCED_BREP_SHAPE_REPRESENTATION('',(#1138,#1127),#1134);
#1143=PRODUCT_DEFINITION('part definition','',#1142,#903);
#1144=PRODUCT_DEFINITION_SHAPE('','SHAPE FOR FJBBBB1.',#1143);
#1145=SHAPE_ASPECT('','solid data associated with FJBBBB1',#1144,.F.);
#1146=PROPERTY_DEFINITION('',
'shape for solid data with which properties are associated',#1145);
#1147=SHAPE_REPRESENTATION('',(#1127),#1134);
#1148=SHAPE_DEFINITION_REPRESENTATION(#1146,#1147);
#1149=(LENGTH_UNIT()NAMED_UNIT(*)SI_UNIT(.MILLI.,.METRE.));
#1153=PROPERTY_DEFINITION('geometric validation property','area of FJBBBB1',
#1145);
#1154=REPRESENTATION('surface area',(#1152),#1134);
#1155=PROPERTY_DEFINITION_REPRESENTATION(#1153,#1154);
#1156=(LENGTH_UNIT()NAMED_UNIT(*)SI_UNIT(.MILLI.,.METRE.));
#1160=PROPERTY_DEFINITION('geometric validation property','volume of FJBBBB1',
#1145);
#1161=REPRESENTATION('volume',(#1159),#1134);
#1162=PROPERTY_DEFINITION_REPRESENTATION(#1160,#1161);
#1164=PROPERTY_DEFINITION('geometric validation property','centroid of FJBBBB1',
#1145);
#1165=REPRESENTATION('centroid',(#1163),#1134);
#1166=PROPERTY_DEFINITION_REPRESENTATION(#1164,#1165);
#1167=(LENGTH_UNIT()NAMED_UNIT(*)SI_UNIT(.MILLI.,.METRE.));
#1171=PROPERTY_DEFINITION('geometric validation property','area of FJBBBB1',
#1144);
#1172=REPRESENTATION('surface area',(#1170),#1134);
#1173=PROPERTY_DEFINITION_REPRESENTATION(#1171,#1172);
#1174=(LENGTH_UNIT()NAMED_UNIT(*)SI_UNIT(.MILLI.,.METRE.));
#1178=PROPERTY_DEFINITION('geometric validation property','volume of FJBBBB1',
#1144);
#1179=REPRESENTATION('volume',(#1177),#1134);
#1180=PROPERTY_DEFINITION_REPRESENTATION(#1178,#1179);
#1182=PROPERTY_DEFINITION('geometric validation property','centroid of FJBBBB1',
#1144);
#1183=REPRESENTATION('centroid',(#1181),#1134);
#1184=PROPERTY_DEFINITION_REPRESENTATION(#1182,#1183);
#1185=SHAPE_DEFINITION_REPRESENTATION(#1144,#1139);
#1186=NEXT_ASSEMBLY_USAGE_OCCURRENCE('6','Next assembly relationship','FJBBBB1',
#1879,#1143,$);
#1187=PRODUCT_DEFINITION_SHAPE('Placement #6',
'Placement of FJBBBB1 with respect to ASM0011_ASM',#1186);
#1189=PROPERTY_DEFINITION('geometric validation property','centroid of FJBBBB1',
#1187);
#1190=REPRESENTATION('centroid',(#1188),#1134);
#1191=PROPERTY_DEFINITION_REPRESENTATION(#1189,#1190);
#1203=CIRCLE('',#1202,8.3916E-1);
#1212=CIRCLE('',#1211,8.3916E-1);
#1221=CIRCLE('',#1220,8.3916E-1);
#1230=CIRCLE('',#1229,8.3916E-1);
#1243=CIRCLE('',#1242,5.103E-1);
#1252=CIRCLE('',#1251,5.103E-1);
#1261=CIRCLE('',#1260,5.103E-1);
#1270=CIRCLE('',#1269,5.103E-1);
#1307=CIRCLE('',#1306,8.3916E-1);
#1316=CIRCLE('',#1315,8.3916E-1);
#1325=CIRCLE('',#1324,8.3916E-1);
#1334=CIRCLE('',#1333,8.3916E-1);
#1347=CIRCLE('',#1346,5.103E-1);
#1356=CIRCLE('',#1355,5.103E-1);
#1365=CIRCLE('',#1364,5.103E-1);
#1374=CIRCLE('',#1373,5.103E-1);
#1476=EDGE_CURVE('',#1409,#1410,#1203,.T.);
#1478=EDGE_CURVE('',#1410,#1412,#1207,.T.);
#1480=EDGE_CURVE('',#1412,#1414,#1212,.T.);
#1482=EDGE_CURVE('',#1414,#1416,#1216,.T.);
#1484=EDGE_CURVE('',#1416,#1418,#1221,.T.);
#1486=EDGE_CURVE('',#1418,#1420,#1225,.T.);
#1488=EDGE_CURVE('',#1420,#1422,#1230,.T.);
#1490=EDGE_CURVE('',#1422,#1409,#1234,.T.);
#1494=EDGE_CURVE('',#1425,#1426,#1238,.T.);
#1496=EDGE_CURVE('',#1426,#1428,#1243,.T.);
#1498=EDGE_CURVE('',#1428,#1430,#1247,.T.);
#1500=EDGE_CURVE('',#1430,#1432,#1252,.T.);
#1502=EDGE_CURVE('',#1432,#1434,#1256,.T.);
#1504=EDGE_CURVE('',#1434,#1436,#1261,.T.);
#1506=EDGE_CURVE('',#1436,#1438,#1265,.T.);
#1508=EDGE_CURVE('',#1438,#1425,#1270,.T.);
#1512=ADVANCED_FACE('',(#1493,#1511),#1475,.F.);
#1526=EDGE_CURVE('',#1409,#1441,#1274,.T.);
#1528=EDGE_CURVE('',#1441,#1442,#1307,.T.);
#1530=EDGE_CURVE('',#1410,#1442,#1302,.T.);
#1534=ADVANCED_FACE('',(#1533),#1524,.T.);
#1541=EDGE_CURVE('',#1422,#1454,#1278,.T.);
#1543=EDGE_CURVE('',#1454,#1441,#1311,.T.);
#1548=ADVANCED_FACE('',(#1547),#1539,.T.);
#1555=EDGE_CURVE('',#1420,#1452,#1282,.T.);
#1557=EDGE_CURVE('',#1452,#1454,#1316,.T.);
#1562=ADVANCED_FACE('',(#1561),#1553,.T.);
#1569=EDGE_CURVE('',#1418,#1450,#1286,.T.);
#1571=EDGE_CURVE('',#1450,#1452,#1320,.T.);
#1576=ADVANCED_FACE('',(#1575),#1567,.T.);
#1583=EDGE_CURVE('',#1416,#1448,#1290,.T.);
#1585=EDGE_CURVE('',#1448,#1450,#1325,.T.);
#1590=ADVANCED_FACE('',(#1589),#1581,.T.);
#1597=EDGE_CURVE('',#1414,#1446,#1294,.T.);
#1599=EDGE_CURVE('',#1446,#1448,#1329,.T.);
#1604=ADVANCED_FACE('',(#1603),#1595,.T.);
#1611=EDGE_CURVE('',#1412,#1444,#1298,.T.);
#1613=EDGE_CURVE('',#1444,#1446,#1334,.T.);
#1618=ADVANCED_FACE('',(#1617),#1609,.T.);
#1626=EDGE_CURVE('',#1442,#1444,#1338,.T.);
#1631=ADVANCED_FACE('',(#1630),#1623,.T.);
#1647=EDGE_CURVE('',#1457,#1458,#1342,.T.);
#1649=EDGE_CURVE('',#1470,#1457,#1347,.T.);
#1651=EDGE_CURVE('',#1468,#1470,#1351,.T.);
#1653=EDGE_CURVE('',#1466,#1468,#1356,.T.);
#1655=EDGE_CURVE('',#1464,#1466,#1360,.T.);
#1657=EDGE_CURVE('',#1462,#1464,#1365,.T.);
#1659=EDGE_CURVE('',#1460,#1462,#1369,.T.);
#1661=EDGE_CURVE('',#1458,#1460,#1374,.T.);
#1665=ADVANCED_FACE('',(#1646,#1664),#1636,.T.);
#1679=EDGE_CURVE('',#1425,#1457,#1378,.T.);
#1682=EDGE_CURVE('',#1426,#1458,#1406,.T.);
#1686=ADVANCED_FACE('',(#1685),#1677,.T.);
#1693=EDGE_CURVE('',#1438,#1470,#1382,.T.);
#1699=ADVANCED_FACE('',(#1698),#1691,.F.);
#1706=EDGE_CURVE('',#1436,#1468,#1386,.T.);
#1712=ADVANCED_FACE('',(#1711),#1704,.T.);
#1719=EDGE_CURVE('',#1434,#1466,#1390,.T.);
#1725=ADVANCED_FACE('',(#1724),#1717,.F.);
#1732=EDGE_CURVE('',#1432,#1464,#1394,.T.);
#1738=ADVANCED_FACE('',(#1737),#1730,.T.);
#1745=EDGE_CURVE('',#1430,#1462,#1398,.T.);
#1751=ADVANCED_FACE('',(#1750),#1743,.F.);
#1758=EDGE_CURVE('',#1428,#1460,#1402,.T.);
#1764=ADVANCED_FACE('',(#1763),#1756,.T.);
#1776=ADVANCED_FACE('',(#1775),#1769,.F.);
#1779=(LENGTH_UNIT()NAMED_UNIT(*)SI_UNIT(.MILLI.,.METRE.));
#1780=(NAMED_UNIT(*)PLANE_ANGLE_UNIT()SI_UNIT($,.RADIAN.));
#1783=(NAMED_UNIT(*)SI_UNIT($,.STERADIAN.)SOLID_ANGLE_UNIT());
#1785=(GEOMETRIC_REPRESENTATION_CONTEXT(3)GLOBAL_UNCERTAINTY_ASSIGNED_CONTEXT((
#1784))GLOBAL_UNIT_ASSIGNED_CONTEXT((#1779,#1782,#1783))REPRESENTATION_CONTEXT(
'ID3','3'));
#1789=AXIS2_PLACEMENT_3D('',#1786,#1787,#1788);
#1790=ADVANCED_BREP_SHAPE_REPRESENTATION('',(#1789,#1778),#1785);
#1795=PRODUCT_DEFINITION('part definition','',#1794,#1791);
#1796=PRODUCT_DEFINITION_SHAPE('','SHAPE FOR YUAN10002000.',#1795);
#1797=SHAPE_ASPECT('','solid data associated with YUAN10002000',#1796,.F.);
#1798=PROPERTY_DEFINITION('',
'shape for solid data with which properties are associated',#1797);
#1799=SHAPE_REPRESENTATION('',(#1778),#1785);
#1800=SHAPE_DEFINITION_REPRESENTATION(#1798,#1799);
#1801=(LENGTH_UNIT()NAMED_UNIT(*)SI_UNIT(.MILLI.,.METRE.));
#1805=PROPERTY_DEFINITION('geometric validation property',
'area of YUAN10002000',#1797);
#1806=REPRESENTATION('surface area',(#1804),#1785);
#1807=PROPERTY_DEFINITION_REPRESENTATION(#1805,#1806);
#1808=(LENGTH_UNIT()NAMED_UNIT(*)SI_UNIT(.MILLI.,.METRE.));
#1812=PROPERTY_DEFINITION('geometric validation property',
'volume of YUAN10002000',#1797);
#1813=REPRESENTATION('volume',(#1811),#1785);
#1814=PROPERTY_DEFINITION_REPRESENTATION(#1812,#1813);
#1816=PROPERTY_DEFINITION('geometric validation property',
'centroid of YUAN10002000',#1797);
#1817=REPRESENTATION('centroid',(#1815),#1785);
#1818=PROPERTY_DEFINITION_REPRESENTATION(#1816,#1817);
#1819=(LENGTH_UNIT()NAMED_UNIT(*)SI_UNIT(.MILLI.,.METRE.));
#1823=PROPERTY_DEFINITION('geometric validation property',
'area of YUAN10002000',#1796);
#1824=REPRESENTATION('surface area',(#1822),#1785);
#1825=PROPERTY_DEFINITION_REPRESENTATION(#1823,#1824);
#1826=(LENGTH_UNIT()NAMED_UNIT(*)SI_UNIT(.MILLI.,.METRE.));
#1830=PROPERTY_DEFINITION('geometric validation property',
'volume of YUAN10002000',#1796);
#1831=REPRESENTATION('volume',(#1829),#1785);
#1832=PROPERTY_DEFINITION_REPRESENTATION(#1830,#1831);
#1834=PROPERTY_DEFINITION('geometric validation property',
'centroid of YUAN10002000',#1796);
#1835=REPRESENTATION('centroid',(#1833),#1785);
#1836=PROPERTY_DEFINITION_REPRESENTATION(#1834,#1835);
#1837=SHAPE_DEFINITION_REPRESENTATION(#1796,#1790);
#1838=NEXT_ASSEMBLY_USAGE_OCCURRENCE('7','Next assembly relationship',
'YUAN10002000',#1879,#1795,$);
#1839=PRODUCT_DEFINITION_SHAPE('Placement #7',
'Placement of YUAN10002000 with respect to ASM0011_ASM',#1838);
#1841=PROPERTY_DEFINITION('geometric validation property',
'centroid of YUAN10002000',#1839);
#1842=REPRESENTATION('centroid',(#1840),#1785);
#1843=PROPERTY_DEFINITION_REPRESENTATION(#1841,#1842);
#1851=NEXT_ASSEMBLY_USAGE_OCCURRENCE('8','Next assembly relationship',
'YUAN10002000',#1879,#1795,$);
#1852=PRODUCT_DEFINITION_SHAPE('Placement #8',
'Placement of YUAN10002000 with respect to ASM0011_ASM',#1851);
#1854=PROPERTY_DEFINITION('geometric validation property',
'centroid of YUAN10002000',#1852);
#1855=REPRESENTATION('centroid',(#1853),#1785);
#1856=PROPERTY_DEFINITION_REPRESENTATION(#1854,#1855);
#1864=(LENGTH_UNIT()NAMED_UNIT(*)SI_UNIT(.MILLI.,.METRE.));
#1865=(NAMED_UNIT(*)PLANE_ANGLE_UNIT()SI_UNIT($,.RADIAN.));
#1868=(NAMED_UNIT(*)SI_UNIT($,.STERADIAN.)SOLID_ANGLE_UNIT());
#1870=(GEOMETRIC_REPRESENTATION_CONTEXT(3)GLOBAL_UNCERTAINTY_ASSIGNED_CONTEXT((
#1869))GLOBAL_UNIT_ASSIGNED_CONTEXT((#1864,#1867,#1868))REPRESENTATION_CONTEXT(
'ID4','3'));
#1874=AXIS2_PLACEMENT_3D('',#1871,#1872,#1873);
#1879=PRODUCT_DEFINITION('part definition','',#1878,#1791);
#1880=(LENGTH_UNIT()NAMED_UNIT(*)SI_UNIT(.MILLI.,.METRE.));
#1884=PROPERTY_DEFINITION('geometric validation property','area of ASM0011_ASM',
#951);
#1885=REPRESENTATION('surface area',(#1883),#1870);
#1886=PROPERTY_DEFINITION_REPRESENTATION(#1884,#1885);
#1887=(LENGTH_UNIT()NAMED_UNIT(*)SI_UNIT(.MILLI.,.METRE.));
#1891=PROPERTY_DEFINITION('geometric validation property',
'volume of ASM0011_ASM',#951);
#1892=REPRESENTATION('volume',(#1890),#1870);
#1893=PROPERTY_DEFINITION_REPRESENTATION(#1891,#1892);
#1895=PROPERTY_DEFINITION('geometric validation property',
'centroid of ASM0011_ASM',#951);
#1896=REPRESENTATION('centroid',(#1894),#1870);
#1897=PROPERTY_DEFINITION_REPRESENTATION(#1895,#1896);
ENDSEC;
END-ISO-10303-21;
