ISO-10303-21;
HEADER;
FILE_DESCRIPTION((''),'2;1');
FILE_NAME('05001100_ASM','2025-09-28T13:48:22',('Administrator'),(''),
'CREO PARAMETRIC BY PTC INC, 2018100','CREO PARAMETRIC BY PTC INC, 2018100','');
FILE_SCHEMA(('AUTOMOTIVE_DESIGN { 1 0 10303 214 1 1 1 1 }'));
ENDSEC;
DATA;
#19=CARTESIAN_POINT('',(0.E0,0.E0,0.E0));
#20=DIRECTION('',(0.E0,1.E0,0.E0));
#21=DIRECTION('',(1.E0,0.E0,0.E0));
#22=AXIS2_PLACEMENT_3D('',#19,#20,#21);
#24=CARTESIAN_POINT('',(0.E0,0.E0,0.E0));
#25=DIRECTION('',(0.E0,1.E0,0.E0));
#26=DIRECTION('',(-1.E0,0.E0,0.E0));
#27=AXIS2_PLACEMENT_3D('',#24,#25,#26);
#29=CARTESIAN_POINT('',(0.E0,0.E0,0.E0));
#30=DIRECTION('',(0.E0,-1.E0,0.E0));
#31=DIRECTION('',(0.E0,0.E0,1.E0));
#32=AXIS2_PLACEMENT_3D('',#29,#30,#31);
#34=CARTESIAN_POINT('',(0.E0,0.E0,0.E0));
#35=DIRECTION('',(0.E0,-1.E0,0.E0));
#36=DIRECTION('',(0.E0,0.E0,-1.E0));
#37=AXIS2_PLACEMENT_3D('',#34,#35,#36);
#39=CARTESIAN_POINT('',(2.3E0,2.E-1,1.227459106579E-12));
#40=DIRECTION('',(5.336790037669E-13,0.E0,-1.E0));
#41=DIRECTION('',(1.E0,0.E0,5.336790037669E-13));
#42=AXIS2_PLACEMENT_3D('',#39,#40,#41);
#44=CARTESIAN_POINT('',(0.E0,1.085E1,0.E0));
#45=DIRECTION('',(0.E0,-1.E0,0.E0));
#46=DIRECTION('',(-1.E0,0.E0,0.E0));
#47=AXIS2_PLACEMENT_3D('',#44,#45,#46);
#49=DIRECTION('',(0.E0,1.E0,4.477266362608E-13));
#50=VECTOR('',#49,9.758688103938E0);
#51=CARTESIAN_POINT('',(2.5E0,1.091311896062E0,-4.338385215119E-12));
#52=LINE('',#51,#50);
#53=CARTESIAN_POINT('',(0.E0,2.E-1,0.E0));
#54=DIRECTION('',(0.E0,1.E0,0.E0));
#55=DIRECTION('',(1.E0,0.E0,0.E0));
#56=AXIS2_PLACEMENT_3D('',#53,#54,#55);
#58=DIRECTION('',(0.E0,1.E0,-4.047553085757E-11));
#59=VECTOR('',#58,1.086881039375E-1);
#60=CARTESIAN_POINT('',(2.5E0,2.E-1,5.779554503521E-14));
#61=LINE('',#60,#59);
#62=CARTESIAN_POINT('',(-2.35E0,1.085E1,8.011924457207E-13));
#63=DIRECTION('',(-3.409330109894E-13,0.E0,-1.E0));
#64=DIRECTION('',(-1.E0,0.E0,3.409330109894E-13));
#65=AXIS2_PLACEMENT_3D('',#62,#63,#64);
#67=CARTESIAN_POINT('',(2.35E0,1.085E1,-8.011993846146E-13));
#68=DIRECTION('',(3.409356130746E-13,0.E0,1.E0));
#69=DIRECTION('',(1.E0,0.E0,-3.409356130746E-13));
#70=AXIS2_PLACEMENT_3D('',#67,#68,#69);
#72=CARTESIAN_POINT('',(0.E0,1.085E1,0.E0));
#73=DIRECTION('',(0.E0,-1.E0,0.E0));
#74=DIRECTION('',(1.E0,0.E0,0.E0));
#75=AXIS2_PLACEMENT_3D('',#72,#73,#74);
#77=CARTESIAN_POINT('',(0.E0,1.091311896062E0,0.E0));
#78=DIRECTION('',(0.E0,-1.E0,0.E0));
#79=DIRECTION('',(1.E0,0.E0,0.E0));
#80=AXIS2_PLACEMENT_3D('',#77,#78,#79);
#82=CARTESIAN_POINT('',(0.E0,1.091311896062E0,0.E0));
#83=DIRECTION('',(0.E0,-1.E0,0.E0));
#84=DIRECTION('',(0.E0,0.E0,1.E0));
#85=AXIS2_PLACEMENT_3D('',#82,#83,#84);
#87=DIRECTION('',(0.E0,1.E0,-4.967025218675E-13));
#88=VECTOR('',#87,9.758688103938E0);
#89=CARTESIAN_POINT('',(-2.5E0,1.091311896062E0,4.816325519566E-12));
#90=LINE('',#89,#88);
#91=CARTESIAN_POINT('',(0.E0,2.E-1,0.E0));
#92=DIRECTION('',(0.E0,1.E0,0.E0));
#93=DIRECTION('',(-1.E0,0.E0,0.E0));
#94=AXIS2_PLACEMENT_3D('',#91,#92,#93);
#96=DIRECTION('',(0.E0,1.E0,4.487542300950E-11));
#97=VECTOR('',#96,1.086881039375E-1);
#98=CARTESIAN_POINT('',(-2.5E0,2.E-1,-5.741630279189E-14));
#99=LINE('',#98,#97);
#100=CARTESIAN_POINT('',(0.E0,3.086881039375E-1,0.E0));
#101=DIRECTION('',(0.E0,1.E0,0.E0));
#102=DIRECTION('',(-1.E0,0.E0,0.E0));
#103=AXIS2_PLACEMENT_3D('',#100,#101,#102);
#105=CARTESIAN_POINT('',(0.E0,3.086881039375E-1,0.E0));
#106=DIRECTION('',(0.E0,1.E0,0.E0));
#107=DIRECTION('',(0.E0,0.E0,1.E0));
#108=AXIS2_PLACEMENT_3D('',#105,#106,#107);
#110=CARTESIAN_POINT('',(0.E0,8.304372986875E-1,0.E0));
#111=DIRECTION('',(0.E0,-1.E0,0.E0));
#112=DIRECTION('',(5.465878332696E-13,0.E0,-1.E0));
#113=AXIS2_PLACEMENT_3D('',#110,#111,#112);
#115=CARTESIAN_POINT('',(0.E0,1.091311896062E0,0.E0));
#116=DIRECTION('',(0.E0,1.E0,0.E0));
#117=DIRECTION('',(1.E0,0.E0,0.E0));
#118=AXIS2_PLACEMENT_3D('',#115,#116,#117);
#120=CARTESIAN_POINT('',(-2.15E0,1.091311896062E0,3.630681476799E-11));
#121=DIRECTION('',(-1.688696231461E-11,0.E0,-1.E0));
#122=DIRECTION('',(-6.666666666633E-1,-7.453559925030E-1,1.125797487635E-11));
#123=AXIS2_PLACEMENT_3D('',#120,#121,#122);
#125=CARTESIAN_POINT('',(0.E0,5.695627013125E-1,0.E0));
#126=DIRECTION('',(0.E0,1.E0,0.E0));
#127=DIRECTION('',(-1.138061818444E-11,0.E0,1.E0));
#128=AXIS2_PLACEMENT_3D('',#125,#126,#127);
#130=CARTESIAN_POINT('',(0.E0,3.086881039375E-1,0.E0));
#131=DIRECTION('',(0.E0,-1.E0,0.E0));
#132=DIRECTION('',(-1.E0,0.E0,0.E0));
#133=AXIS2_PLACEMENT_3D('',#130,#131,#132);
#135=CARTESIAN_POINT('',(-2.446833360925E-11,3.086881039375E-1,2.15E0));
#136=DIRECTION('',(1.E0,0.E0,1.138061866968E-11));
#137=DIRECTION('',(-7.587079113096E-12,7.453559925016E-1,6.666666666648E-1));
#138=AXIS2_PLACEMENT_3D('',#135,#136,#137);
#140=CARTESIAN_POINT('',(0.E0,5.695627013125E-1,0.E0));
#141=DIRECTION('',(0.E0,1.E0,0.E0));
#142=DIRECTION('',(0.E0,0.E0,-1.E0));
#143=AXIS2_PLACEMENT_3D('',#140,#141,#142);
#145=CARTESIAN_POINT('',(0.E0,7.E-1,-2.5E0));
#146=DIRECTION('',(-1.E0,0.E0,0.E0));
#147=DIRECTION('',(0.E0,-7.453559924999E-1,6.666666666667E-1));
#148=AXIS2_PLACEMENT_3D('',#145,#146,#147);
#150=CARTESIAN_POINT('',(0.E0,8.304372986875E-1,0.E0));
#151=DIRECTION('',(0.E0,-1.E0,0.E0));
#152=DIRECTION('',(-1.E0,0.E0,0.E0));
#153=AXIS2_PLACEMENT_3D('',#150,#151,#152);
#155=CARTESIAN_POINT('',(0.E0,8.304372986875E-1,0.E0));
#156=DIRECTION('',(0.E0,-1.E0,0.E0));
#157=DIRECTION('',(0.E0,0.E0,1.E0));
#158=AXIS2_PLACEMENT_3D('',#155,#156,#157);
#160=CARTESIAN_POINT('',(0.E0,7.E-1,2.5E0));
#161=DIRECTION('',(-1.E0,0.E0,0.E0));
#162=DIRECTION('',(0.E0,7.453559924999E-1,-6.666666666667E-1));
#163=AXIS2_PLACEMENT_3D('',#160,#161,#162);
#165=CARTESIAN_POINT('',(0.E0,5.695627013125E-1,0.E0));
#166=DIRECTION('',(0.E0,1.E0,0.E0));
#167=DIRECTION('',(-1.E0,0.E0,0.E0));
#168=AXIS2_PLACEMENT_3D('',#165,#166,#167);
#170=CARTESIAN_POINT('',(2.087018405317E-11,1.091311896062E0,2.15E0));
#171=DIRECTION('',(-1.E0,0.E0,9.707061543462E-12));
#172=DIRECTION('',(6.471374362294E-12,-7.453559925012E-1,6.666666666652E-1));
#173=AXIS2_PLACEMENT_3D('',#170,#171,#172);
#175=CARTESIAN_POINT('',(-2.15E0,3.086881039375E-1,-1.973376712924E-11));
#176=DIRECTION('',(-9.178423646117E-12,0.E0,1.E0));
#177=DIRECTION('',(-6.666666666653E-1,7.453559925011E-1,-6.118949097399E-12));
#178=AXIS2_PLACEMENT_3D('',#175,#176,#177);
#180=CARTESIAN_POINT('',(-2.3E0,2.E-1,-1.227511148283E-12));
#181=DIRECTION('',(-5.336998204486E-13,0.E0,1.E0));
#182=DIRECTION('',(-1.E0,0.E0,-5.336998204486E-13));
#183=AXIS2_PLACEMENT_3D('',#180,#181,#182);
#185=CARTESIAN_POINT('',(0.E0,1.1E1,0.E0));
#186=DIRECTION('',(0.E0,-1.E0,0.E0));
#187=DIRECTION('',(-1.E0,0.E0,0.E0));
#188=AXIS2_PLACEMENT_3D('',#185,#186,#187);
#190=CARTESIAN_POINT('',(0.E0,1.1E1,0.E0));
#191=DIRECTION('',(0.E0,-1.E0,0.E0));
#192=DIRECTION('',(1.E0,0.E0,0.E0));
#193=AXIS2_PLACEMENT_3D('',#190,#191,#192);
#195=CARTESIAN_POINT('',(0.E0,1.1E1,0.E0));
#196=DIRECTION('',(0.E0,1.E0,0.E0));
#197=DIRECTION('',(0.E0,0.E0,1.E0));
#198=AXIS2_PLACEMENT_3D('',#195,#196,#197);
#200=CARTESIAN_POINT('',(0.E0,1.1E1,0.E0));
#201=DIRECTION('',(0.E0,1.E0,0.E0));
#202=DIRECTION('',(0.E0,0.E0,-1.E0));
#203=AXIS2_PLACEMENT_3D('',#200,#201,#202);
#205=DIRECTION('',(0.E0,-1.E0,0.E0));
#206=VECTOR('',#205,2.E-2);
#207=CARTESIAN_POINT('',(0.E0,1.1E1,1.75E0));
#208=LINE('',#207,#206);
#209=DIRECTION('',(0.E0,-1.E0,0.E0));
#210=VECTOR('',#209,2.E-2);
#211=CARTESIAN_POINT('',(0.E0,1.1E1,-1.75E0));
#212=LINE('',#211,#210);
#213=CARTESIAN_POINT('',(0.E0,1.098E1,0.E0));
#214=DIRECTION('',(0.E0,1.E0,0.E0));
#215=DIRECTION('',(0.E0,0.E0,1.E0));
#216=AXIS2_PLACEMENT_3D('',#213,#214,#215);
#218=CARTESIAN_POINT('',(0.E0,1.098E1,0.E0));
#219=DIRECTION('',(0.E0,1.E0,0.E0));
#220=DIRECTION('',(0.E0,0.E0,-1.E0));
#221=AXIS2_PLACEMENT_3D('',#218,#219,#220);
#223=DIRECTION('',(0.E0,1.E0,0.E0));
#224=VECTOR('',#223,1.E-1);
#225=CARTESIAN_POINT('',(0.E0,0.E0,1.9E0));
#226=LINE('',#225,#224);
#227=DIRECTION('',(0.E0,1.E0,0.E0));
#228=VECTOR('',#227,1.E-1);
#229=CARTESIAN_POINT('',(0.E0,0.E0,-1.9E0));
#230=LINE('',#229,#228);
#231=CARTESIAN_POINT('',(0.E0,1.E-1,0.E0));
#232=DIRECTION('',(0.E0,-1.E0,0.E0));
#233=DIRECTION('',(0.E0,0.E0,1.E0));
#234=AXIS2_PLACEMENT_3D('',#231,#232,#233);
#236=CARTESIAN_POINT('',(0.E0,1.E-1,0.E0));
#237=DIRECTION('',(0.E0,-1.E0,0.E0));
#238=DIRECTION('',(0.E0,0.E0,-1.E0));
#239=AXIS2_PLACEMENT_3D('',#236,#237,#238);
#241=CARTESIAN_POINT('',(0.E0,1.E-1,1.E0));
#242=DIRECTION('',(0.E0,-1.E0,0.E0));
#243=DIRECTION('',(0.E0,0.E0,-1.E0));
#244=AXIS2_PLACEMENT_3D('',#241,#242,#243);
#246=CARTESIAN_POINT('',(0.E0,1.E-1,1.E0));
#247=DIRECTION('',(0.E0,-1.E0,0.E0));
#248=DIRECTION('',(0.E0,0.E0,1.E0));
#249=AXIS2_PLACEMENT_3D('',#246,#247,#248);
#251=CARTESIAN_POINT('',(0.E0,1.E-1,-1.E0));
#252=DIRECTION('',(0.E0,-1.E0,0.E0));
#253=DIRECTION('',(-1.E0,0.E0,0.E0));
#254=AXIS2_PLACEMENT_3D('',#251,#252,#253);
#256=CARTESIAN_POINT('',(0.E0,1.E-1,-1.E0));
#257=DIRECTION('',(0.E0,-1.E0,0.E0));
#258=DIRECTION('',(1.E0,0.E0,0.E0));
#259=AXIS2_PLACEMENT_3D('',#256,#257,#258);
#261=DIRECTION('',(0.E0,-1.E0,0.E0));
#262=VECTOR('',#261,2.E1);
#263=CARTESIAN_POINT('',(0.E0,1.E-1,7.5E-1));
#264=LINE('',#263,#262);
#265=DIRECTION('',(0.E0,-1.E0,0.E0));
#266=VECTOR('',#265,2.E1);
#267=CARTESIAN_POINT('',(0.E0,1.E-1,1.25E0));
#268=LINE('',#267,#266);
#269=CARTESIAN_POINT('',(0.E0,-1.99E1,1.E0));
#270=DIRECTION('',(0.E0,-1.E0,0.E0));
#271=DIRECTION('',(0.E0,0.E0,-1.E0));
#272=AXIS2_PLACEMENT_3D('',#269,#270,#271);
#274=CARTESIAN_POINT('',(0.E0,-1.99E1,1.E0));
#275=DIRECTION('',(0.E0,-1.E0,0.E0));
#276=DIRECTION('',(0.E0,0.E0,1.E0));
#277=AXIS2_PLACEMENT_3D('',#274,#275,#276);
#279=DIRECTION('',(0.E0,-1.E0,0.E0));
#280=VECTOR('',#279,2.5E1);
#281=CARTESIAN_POINT('',(-2.5E-1,1.E-1,-1.E0));
#282=LINE('',#281,#280);
#283=DIRECTION('',(0.E0,-1.E0,0.E0));
#284=VECTOR('',#283,2.5E1);
#285=CARTESIAN_POINT('',(2.5E-1,1.E-1,-1.E0));
#286=LINE('',#285,#284);
#287=CARTESIAN_POINT('',(0.E0,-2.49E1,-1.E0));
#288=DIRECTION('',(0.E0,-1.E0,0.E0));
#289=DIRECTION('',(-1.E0,0.E0,0.E0));
#290=AXIS2_PLACEMENT_3D('',#287,#288,#289);
#292=CARTESIAN_POINT('',(0.E0,-2.49E1,-1.E0));
#293=DIRECTION('',(0.E0,-1.E0,0.E0));
#294=DIRECTION('',(1.E0,0.E0,0.E0));
#295=AXIS2_PLACEMENT_3D('',#292,#293,#294);
#297=CARTESIAN_POINT('',(-2.5E0,1.085E1,0.E0));
#298=CARTESIAN_POINT('',(2.5E0,1.085E1,0.E0));
#299=VERTEX_POINT('',#297);
#300=VERTEX_POINT('',#298);
#301=CARTESIAN_POINT('',(-2.35E0,1.1E1,0.E0));
#302=CARTESIAN_POINT('',(2.35E0,1.1E1,0.E0));
#303=VERTEX_POINT('',#301);
#304=VERTEX_POINT('',#302);
#305=CARTESIAN_POINT('',(0.E0,5.695627013125E-1,-2.383333333333E0));
#306=CARTESIAN_POINT('',(-2.383333333333E0,5.695627013125E-1,0.E0));
#307=VERTEX_POINT('',#305);
#308=VERTEX_POINT('',#306);
#309=CARTESIAN_POINT('',(0.E0,5.695627013125E-1,2.383333333333E0));
#310=VERTEX_POINT('',#309);
#311=CARTESIAN_POINT('',(-2.5E0,3.086881039375E-1,0.E0));
#312=CARTESIAN_POINT('',(0.E0,3.086881039375E-1,2.5E0));
#313=VERTEX_POINT('',#311);
#314=VERTEX_POINT('',#312);
#315=CARTESIAN_POINT('',(2.5E0,3.086881039375E-1,0.E0));
#316=VERTEX_POINT('',#315);
#317=CARTESIAN_POINT('',(2.5E0,1.091311896062E0,0.E0));
#318=CARTESIAN_POINT('',(0.E0,1.091311896062E0,2.5E0));
#319=VERTEX_POINT('',#317);
#320=VERTEX_POINT('',#318);
#321=CARTESIAN_POINT('',(0.E0,8.304372986875E-1,2.383333333333E0));
#322=CARTESIAN_POINT('',(-2.383333333333E0,8.304372986875E-1,0.E0));
#323=VERTEX_POINT('',#321);
#324=VERTEX_POINT('',#322);
#325=CARTESIAN_POINT('',(-2.5E0,1.091311896062E0,0.E0));
#326=VERTEX_POINT('',#325);
#327=CARTESIAN_POINT('',(0.E0,8.304372986875E-1,-2.383333333333E0));
#328=VERTEX_POINT('',#327);
#329=CARTESIAN_POINT('',(0.E0,1.E-1,1.9E0));
#330=CARTESIAN_POINT('',(0.E0,1.E-1,-1.9E0));
#331=VERTEX_POINT('',#329);
#332=VERTEX_POINT('',#330);
#333=CARTESIAN_POINT('',(0.E0,0.E0,1.9E0));
#334=CARTESIAN_POINT('',(0.E0,0.E0,-1.9E0));
#335=VERTEX_POINT('',#333);
#336=VERTEX_POINT('',#334);
#337=CARTESIAN_POINT('',(0.E0,-1.99E1,7.5E-1));
#338=CARTESIAN_POINT('',(0.E0,-1.99E1,1.25E0));
#339=VERTEX_POINT('',#337);
#340=VERTEX_POINT('',#338);
#341=CARTESIAN_POINT('',(0.E0,1.E-1,7.5E-1));
#342=CARTESIAN_POINT('',(0.E0,1.E-1,1.25E0));
#343=VERTEX_POINT('',#341);
#344=VERTEX_POINT('',#342);
#345=CARTESIAN_POINT('',(-2.5E-1,-2.49E1,-1.E0));
#346=CARTESIAN_POINT('',(2.5E-1,-2.49E1,-1.E0));
#347=VERTEX_POINT('',#345);
#348=VERTEX_POINT('',#346);
#349=CARTESIAN_POINT('',(-2.5E-1,1.E-1,-1.E0));
#350=CARTESIAN_POINT('',(2.5E-1,1.E-1,-1.E0));
#351=VERTEX_POINT('',#349);
#352=VERTEX_POINT('',#350);
#353=CARTESIAN_POINT('',(2.5E0,2.E-1,0.E0));
#354=CARTESIAN_POINT('',(-2.5E0,2.E-1,0.E0));
#355=VERTEX_POINT('',#353);
#356=VERTEX_POINT('',#354);
#357=CARTESIAN_POINT('',(2.3E0,0.E0,0.E0));
#358=CARTESIAN_POINT('',(-2.3E0,0.E0,0.E0));
#359=VERTEX_POINT('',#357);
#360=VERTEX_POINT('',#358);
#361=CARTESIAN_POINT('',(0.E0,1.098E1,1.75E0));
#362=CARTESIAN_POINT('',(0.E0,1.098E1,-1.75E0));
#363=VERTEX_POINT('',#361);
#364=VERTEX_POINT('',#362);
#365=CARTESIAN_POINT('',(0.E0,1.1E1,1.75E0));
#366=CARTESIAN_POINT('',(0.E0,1.1E1,-1.75E0));
#367=VERTEX_POINT('',#365);
#368=VERTEX_POINT('',#366);
#369=CARTESIAN_POINT('',(0.E0,0.E0,0.E0));
#370=DIRECTION('',(0.E0,1.E0,0.E0));
#371=DIRECTION('',(1.E0,0.E0,0.E0));
#372=AXIS2_PLACEMENT_3D('',#369,#370,#371);
#373=PLANE('',#372);
#375=ORIENTED_EDGE('',*,*,#374,.T.);
#377=ORIENTED_EDGE('',*,*,#376,.T.);
#378=EDGE_LOOP('',(#375,#377));
#379=FACE_OUTER_BOUND('',#378,.F.);
#381=ORIENTED_EDGE('',*,*,#380,.T.);
#383=ORIENTED_EDGE('',*,*,#382,.T.);
#384=EDGE_LOOP('',(#381,#383));
#385=FACE_BOUND('',#384,.F.);
#387=FILL_AREA_STYLE_COLOUR('',#8);
#388=FILL_AREA_STYLE('',(#387));
#389=SURFACE_STYLE_FILL_AREA(#388);
#390=SURFACE_SIDE_STYLE('',(#389));
#391=SURFACE_STYLE_USAGE(.POSITIVE.,#390);
#392=PRESENTATION_STYLE_ASSIGNMENT((#391));
#393=STYLED_ITEM('',(#392),#386);
#394=CARTESIAN_POINT('',(0.E0,2.E-1,0.E0));
#395=DIRECTION('',(0.E0,1.E0,0.E0));
#396=DIRECTION('',(9.999644620281E-1,0.E0,8.430580097107E-3));
#397=AXIS2_PLACEMENT_3D('',#394,#395,#396);
#398=TOROIDAL_SURFACE('',#397,2.3E0,2.E-1);
#400=ORIENTED_EDGE('',*,*,#399,.T.);
#402=ORIENTED_EDGE('',*,*,#401,.T.);
#403=ORIENTED_EDGE('',*,*,#374,.F.);
#405=ORIENTED_EDGE('',*,*,#404,.F.);
#406=EDGE_LOOP('',(#400,#402,#403,#405));
#407=FACE_OUTER_BOUND('',#406,.F.);
#409=FILL_AREA_STYLE_COLOUR('',#8);
#410=FILL_AREA_STYLE('',(#409));
#411=SURFACE_STYLE_FILL_AREA(#410);
#412=SURFACE_SIDE_STYLE('',(#411));
#413=SURFACE_STYLE_USAGE(.POSITIVE.,#412);
#414=PRESENTATION_STYLE_ASSIGNMENT((#413));
#415=STYLED_ITEM('',(#414),#408);
#416=CARTESIAN_POINT('',(0.E0,0.E0,0.E0));
#417=DIRECTION('',(0.E0,1.E0,0.E0));
#418=DIRECTION('',(1.E0,0.E0,0.E0));
#419=AXIS2_PLACEMENT_3D('',#416,#417,#418);
#420=CYLINDRICAL_SURFACE('',#419,2.5E0);
#422=ORIENTED_EDGE('',*,*,#421,.F.);
#424=ORIENTED_EDGE('',*,*,#423,.F.);
#426=ORIENTED_EDGE('',*,*,#425,.F.);
#428=ORIENTED_EDGE('',*,*,#427,.T.);
#429=EDGE_LOOP('',(#422,#424,#426,#428));
#430=FACE_OUTER_BOUND('',#429,.F.);
#432=FILL_AREA_STYLE_COLOUR('',#8);
#433=FILL_AREA_STYLE('',(#432));
#434=SURFACE_STYLE_FILL_AREA(#433);
#435=SURFACE_SIDE_STYLE('',(#434));
#436=SURFACE_STYLE_USAGE(.POSITIVE.,#435);
#437=PRESENTATION_STYLE_ASSIGNMENT((#436));
#438=STYLED_ITEM('',(#437),#431);
#439=CARTESIAN_POINT('',(0.E0,0.E0,0.E0));
#440=DIRECTION('',(0.E0,1.E0,0.E0));
#441=DIRECTION('',(1.E0,0.E0,0.E0));
#442=AXIS2_PLACEMENT_3D('',#439,#440,#441);
#443=CYLINDRICAL_SURFACE('',#442,2.5E0);
#444=ORIENTED_EDGE('',*,*,#399,.F.);
#446=ORIENTED_EDGE('',*,*,#445,.T.);
#448=ORIENTED_EDGE('',*,*,#447,.F.);
#450=ORIENTED_EDGE('',*,*,#449,.F.);
#451=EDGE_LOOP('',(#444,#446,#448,#450));
#452=FACE_OUTER_BOUND('',#451,.F.);
#454=FILL_AREA_STYLE_COLOUR('',#8);
#455=FILL_AREA_STYLE('',(#454));
#456=SURFACE_STYLE_FILL_AREA(#455);
#457=SURFACE_SIDE_STYLE('',(#456));
#458=SURFACE_STYLE_USAGE(.POSITIVE.,#457);
#459=PRESENTATION_STYLE_ASSIGNMENT((#458));
#460=STYLED_ITEM('',(#459),#453);
#461=CARTESIAN_POINT('',(0.E0,1.085E1,0.E0));
#462=DIRECTION('',(0.E0,1.E0,0.E0));
#463=DIRECTION('',(-9.999700977687E-1,0.E0,7.733276691015E-3));
#464=AXIS2_PLACEMENT_3D('',#461,#462,#463);
#465=TOROIDAL_SURFACE('',#464,2.35E0,1.5E-1);
#466=ORIENTED_EDGE('',*,*,#421,.T.);
#468=ORIENTED_EDGE('',*,*,#467,.T.);
#470=ORIENTED_EDGE('',*,*,#469,.F.);
#472=ORIENTED_EDGE('',*,*,#471,.F.);
#473=EDGE_LOOP('',(#466,#468,#470,#472));
#474=FACE_OUTER_BOUND('',#473,.F.);
#476=FILL_AREA_STYLE_COLOUR('',#8);
#477=FILL_AREA_STYLE('',(#476));
#478=SURFACE_STYLE_FILL_AREA(#477);
#479=SURFACE_SIDE_STYLE('',(#478));
#480=SURFACE_STYLE_USAGE(.POSITIVE.,#479);
#481=PRESENTATION_STYLE_ASSIGNMENT((#480));
#482=STYLED_ITEM('',(#481),#475);
#483=CARTESIAN_POINT('',(0.E0,1.085E1,0.E0));
#484=DIRECTION('',(0.E0,1.E0,0.E0));
#485=DIRECTION('',(9.999700977687E-1,0.E0,-7.733276691015E-3));
#486=AXIS2_PLACEMENT_3D('',#483,#484,#485);
#487=TOROIDAL_SURFACE('',#486,2.35E0,1.5E-1);
#489=ORIENTED_EDGE('',*,*,#488,.T.);
#490=ORIENTED_EDGE('',*,*,#471,.T.);
#492=ORIENTED_EDGE('',*,*,#491,.F.);
#493=ORIENTED_EDGE('',*,*,#467,.F.);
#494=EDGE_LOOP('',(#489,#490,#492,#493));
#495=FACE_OUTER_BOUND('',#494,.F.);
#497=FILL_AREA_STYLE_COLOUR('',#8);
#498=FILL_AREA_STYLE('',(#497));
#499=SURFACE_STYLE_FILL_AREA(#498);
#500=SURFACE_SIDE_STYLE('',(#499));
#501=SURFACE_STYLE_USAGE(.POSITIVE.,#500);
#502=PRESENTATION_STYLE_ASSIGNMENT((#501));
#503=STYLED_ITEM('',(#502),#496);
#504=CARTESIAN_POINT('',(0.E0,0.E0,0.E0));
#505=DIRECTION('',(0.E0,1.E0,0.E0));
#506=DIRECTION('',(1.E0,0.E0,0.E0));
#507=AXIS2_PLACEMENT_3D('',#504,#505,#506);
#508=CYLINDRICAL_SURFACE('',#507,2.5E0);
#509=ORIENTED_EDGE('',*,*,#488,.F.);
#510=ORIENTED_EDGE('',*,*,#427,.F.);
#512=ORIENTED_EDGE('',*,*,#511,.T.);
#514=ORIENTED_EDGE('',*,*,#513,.T.);
#515=ORIENTED_EDGE('',*,*,#423,.T.);
#516=EDGE_LOOP('',(#509,#510,#512,#514,#515));
#517=FACE_OUTER_BOUND('',#516,.F.);
#519=FILL_AREA_STYLE_COLOUR('',#8);
#520=FILL_AREA_STYLE('',(#519));
#521=SURFACE_STYLE_FILL_AREA(#520);
#522=SURFACE_SIDE_STYLE('',(#521));
#523=SURFACE_STYLE_USAGE(.POSITIVE.,#522);
#524=PRESENTATION_STYLE_ASSIGNMENT((#523));
#525=STYLED_ITEM('',(#524),#518);
#526=CARTESIAN_POINT('',(0.E0,0.E0,0.E0));
#527=DIRECTION('',(0.E0,1.E0,0.E0));
#528=DIRECTION('',(1.E0,0.E0,0.E0));
#529=AXIS2_PLACEMENT_3D('',#526,#527,#528);
#530=CYLINDRICAL_SURFACE('',#529,2.5E0);
#532=ORIENTED_EDGE('',*,*,#531,.F.);
#533=ORIENTED_EDGE('',*,*,#449,.T.);
#535=ORIENTED_EDGE('',*,*,#534,.T.);
#537=ORIENTED_EDGE('',*,*,#536,.T.);
#538=ORIENTED_EDGE('',*,*,#445,.F.);
#539=EDGE_LOOP('',(#532,#533,#535,#537,#538));
#540=FACE_OUTER_BOUND('',#539,.F.);
#542=FILL_AREA_STYLE_COLOUR('',#8);
#543=FILL_AREA_STYLE('',(#542));
#544=SURFACE_STYLE_FILL_AREA(#543);
#545=SURFACE_SIDE_STYLE('',(#544));
#546=SURFACE_STYLE_USAGE(.POSITIVE.,#545);
#547=PRESENTATION_STYLE_ASSIGNMENT((#546));
#548=STYLED_ITEM('',(#547),#541);
#549=CARTESIAN_POINT('',(0.E0,1.091311896062E0,0.E0));
#550=DIRECTION('',(0.E0,1.E0,0.E0));
#551=DIRECTION('',(-8.315338334051E-3,0.E0,-9.999654269765E-1));
#552=AXIS2_PLACEMENT_3D('',#549,#550,#551);
#553=TOROIDAL_SURFACE('',#552,2.15E0,3.5E-1);
#555=ORIENTED_EDGE('',*,*,#554,.T.);
#557=ORIENTED_EDGE('',*,*,#556,.T.);
#558=ORIENTED_EDGE('',*,*,#511,.F.);
#559=ORIENTED_EDGE('',*,*,#425,.T.);
#561=ORIENTED_EDGE('',*,*,#560,.F.);
#563=ORIENTED_EDGE('',*,*,#562,.T.);
#564=EDGE_LOOP('',(#555,#557,#558,#559,#561,#563));
#565=FACE_OUTER_BOUND('',#564,.F.);
#567=FILL_AREA_STYLE_COLOUR('',#8);
#568=FILL_AREA_STYLE('',(#567));
#569=SURFACE_STYLE_FILL_AREA(#568);
#570=SURFACE_SIDE_STYLE('',(#569));
#571=SURFACE_STYLE_USAGE(.POSITIVE.,#570);
#572=PRESENTATION_STYLE_ASSIGNMENT((#571));
#573=STYLED_ITEM('',(#572),#566);
#574=CARTESIAN_POINT('',(0.E0,7.E-1,0.E0));
#575=DIRECTION('',(0.E0,1.E0,0.E0));
#576=DIRECTION('',(0.E0,0.E0,-1.E0));
#577=AXIS2_PLACEMENT_3D('',#574,#575,#576);
#578=TOROIDAL_SURFACE('',#577,2.5E0,1.75E-1);
#580=ORIENTED_EDGE('',*,*,#579,.F.);
#582=ORIENTED_EDGE('',*,*,#581,.F.);
#583=ORIENTED_EDGE('',*,*,#554,.F.);
#585=ORIENTED_EDGE('',*,*,#584,.F.);
#586=EDGE_LOOP('',(#580,#582,#583,#585));
#587=FACE_OUTER_BOUND('',#586,.F.);
#589=FILL_AREA_STYLE_COLOUR('',#8);
#590=FILL_AREA_STYLE('',(#589));
#591=SURFACE_STYLE_FILL_AREA(#590);
#592=SURFACE_SIDE_STYLE('',(#591));
#593=SURFACE_STYLE_USAGE(.POSITIVE.,#592);
#594=PRESENTATION_STYLE_ASSIGNMENT((#593));
#595=STYLED_ITEM('',(#594),#588);
#596=CARTESIAN_POINT('',(0.E0,3.086881039375E-1,0.E0));
#597=DIRECTION('',(0.E0,1.E0,0.E0));
#598=DIRECTION('',(9.999676569521E-1,0.E0,8.042701638985E-3));
#599=AXIS2_PLACEMENT_3D('',#596,#597,#598);
#600=TOROIDAL_SURFACE('',#599,2.15E0,3.5E-1);
#601=ORIENTED_EDGE('',*,*,#579,.T.);
#603=ORIENTED_EDGE('',*,*,#602,.T.);
#605=ORIENTED_EDGE('',*,*,#604,.T.);
#606=ORIENTED_EDGE('',*,*,#447,.T.);
#607=ORIENTED_EDGE('',*,*,#536,.F.);
#609=ORIENTED_EDGE('',*,*,#608,.F.);
#610=EDGE_LOOP('',(#601,#603,#605,#606,#607,#609));
#611=FACE_OUTER_BOUND('',#610,.F.);
#613=FILL_AREA_STYLE_COLOUR('',#8);
#614=FILL_AREA_STYLE('',(#613));
#615=SURFACE_STYLE_FILL_AREA(#614);
#616=SURFACE_SIDE_STYLE('',(#615));
#617=SURFACE_STYLE_USAGE(.POSITIVE.,#616);
#618=PRESENTATION_STYLE_ASSIGNMENT((#617));
#619=STYLED_ITEM('',(#618),#612);
#620=CARTESIAN_POINT('',(0.E0,7.E-1,0.E0));
#621=DIRECTION('',(0.E0,1.E0,0.E0));
#622=DIRECTION('',(0.E0,0.E0,-1.E0));
#623=AXIS2_PLACEMENT_3D('',#620,#621,#622);
#624=TOROIDAL_SURFACE('',#623,2.5E0,1.75E-1);
#625=ORIENTED_EDGE('',*,*,#602,.F.);
#626=ORIENTED_EDGE('',*,*,#584,.T.);
#627=ORIENTED_EDGE('',*,*,#562,.F.);
#629=ORIENTED_EDGE('',*,*,#628,.F.);
#630=ORIENTED_EDGE('',*,*,#581,.T.);
#632=ORIENTED_EDGE('',*,*,#631,.F.);
#633=EDGE_LOOP('',(#625,#626,#627,#629,#630,#632));
#634=FACE_OUTER_BOUND('',#633,.F.);
#636=FILL_AREA_STYLE_COLOUR('',#8);
#637=FILL_AREA_STYLE('',(#636));
#638=SURFACE_STYLE_FILL_AREA(#637);
#639=SURFACE_SIDE_STYLE('',(#638));
#640=SURFACE_STYLE_USAGE(.POSITIVE.,#639);
#641=PRESENTATION_STYLE_ASSIGNMENT((#640));
#642=STYLED_ITEM('',(#641),#635);
#643=CARTESIAN_POINT('',(0.E0,1.091311896062E0,0.E0));
#644=DIRECTION('',(0.E0,1.E0,0.E0));
#645=DIRECTION('',(8.315338334051E-3,0.E0,9.999654269765E-1));
#646=AXIS2_PLACEMENT_3D('',#643,#644,#645);
#647=TOROIDAL_SURFACE('',#646,2.15E0,3.5E-1);
#648=ORIENTED_EDGE('',*,*,#628,.T.);
#649=ORIENTED_EDGE('',*,*,#560,.T.);
#650=ORIENTED_EDGE('',*,*,#513,.F.);
#651=ORIENTED_EDGE('',*,*,#556,.F.);
#652=EDGE_LOOP('',(#648,#649,#650,#651));
#653=FACE_OUTER_BOUND('',#652,.F.);
#655=FILL_AREA_STYLE_COLOUR('',#8);
#656=FILL_AREA_STYLE('',(#655));
#657=SURFACE_STYLE_FILL_AREA(#656);
#658=SURFACE_SIDE_STYLE('',(#657));
#659=SURFACE_STYLE_USAGE(.POSITIVE.,#658);
#660=PRESENTATION_STYLE_ASSIGNMENT((#659));
#661=STYLED_ITEM('',(#660),#654);
#662=CARTESIAN_POINT('',(0.E0,3.086881039375E-1,0.E0));
#663=DIRECTION('',(0.E0,1.E0,0.E0));
#664=DIRECTION('',(-9.999676569521E-1,0.E0,-8.042701638985E-3));
#665=AXIS2_PLACEMENT_3D('',#662,#663,#664);
#666=TOROIDAL_SURFACE('',#665,2.15E0,3.5E-1);
#667=ORIENTED_EDGE('',*,*,#631,.T.);
#668=ORIENTED_EDGE('',*,*,#608,.T.);
#669=ORIENTED_EDGE('',*,*,#534,.F.);
#670=ORIENTED_EDGE('',*,*,#604,.F.);
#671=EDGE_LOOP('',(#667,#668,#669,#670));
#672=FACE_OUTER_BOUND('',#671,.F.);
#674=FILL_AREA_STYLE_COLOUR('',#8);
#675=FILL_AREA_STYLE('',(#674));
#676=SURFACE_STYLE_FILL_AREA(#675);
#677=SURFACE_SIDE_STYLE('',(#676));
#678=SURFACE_STYLE_USAGE(.POSITIVE.,#677);
#679=PRESENTATION_STYLE_ASSIGNMENT((#678));
#680=STYLED_ITEM('',(#679),#673);
#681=CARTESIAN_POINT('',(0.E0,2.E-1,0.E0));
#682=DIRECTION('',(0.E0,1.E0,0.E0));
#683=DIRECTION('',(-9.999644620281E-1,0.E0,-8.430580097107E-3));
#684=AXIS2_PLACEMENT_3D('',#681,#682,#683);
#685=TOROIDAL_SURFACE('',#684,2.3E0,2.E-1);
#686=ORIENTED_EDGE('',*,*,#531,.T.);
#687=ORIENTED_EDGE('',*,*,#404,.T.);
#688=ORIENTED_EDGE('',*,*,#376,.F.);
#689=ORIENTED_EDGE('',*,*,#401,.F.);
#690=EDGE_LOOP('',(#686,#687,#688,#689));
#691=FACE_OUTER_BOUND('',#690,.F.);
#693=FILL_AREA_STYLE_COLOUR('',#8);
#694=FILL_AREA_STYLE('',(#693));
#695=SURFACE_STYLE_FILL_AREA(#694);
#696=SURFACE_SIDE_STYLE('',(#695));
#697=SURFACE_STYLE_USAGE(.POSITIVE.,#696);
#698=PRESENTATION_STYLE_ASSIGNMENT((#697));
#699=STYLED_ITEM('',(#698),#692);
#700=CARTESIAN_POINT('',(0.E0,1.1E1,0.E0));
#701=DIRECTION('',(0.E0,1.E0,0.E0));
#702=DIRECTION('',(1.E0,0.E0,0.E0));
#703=AXIS2_PLACEMENT_3D('',#700,#701,#702);
#704=PLANE('',#703);
#705=ORIENTED_EDGE('',*,*,#469,.T.);
#706=ORIENTED_EDGE('',*,*,#491,.T.);
#707=EDGE_LOOP('',(#705,#706));
#708=FACE_OUTER_BOUND('',#707,.F.);
#710=ORIENTED_EDGE('',*,*,#709,.T.);
#712=ORIENTED_EDGE('',*,*,#711,.T.);
#713=EDGE_LOOP('',(#710,#712));
#714=FACE_BOUND('',#713,.F.);
#716=FILL_AREA_STYLE_COLOUR('',#8);
#717=FILL_AREA_STYLE('',(#716));
#718=SURFACE_STYLE_FILL_AREA(#717);
#719=SURFACE_SIDE_STYLE('',(#718));
#720=SURFACE_STYLE_USAGE(.POSITIVE.,#719);
#721=PRESENTATION_STYLE_ASSIGNMENT((#720));
#722=STYLED_ITEM('',(#721),#715);
#723=CARTESIAN_POINT('',(0.E0,1.1E1,0.E0));
#724=DIRECTION('',(0.E0,1.E0,0.E0));
#725=DIRECTION('',(0.E0,0.E0,1.E0));
#726=AXIS2_PLACEMENT_3D('',#723,#724,#725);
#727=CYLINDRICAL_SURFACE('',#726,1.75E0);
#728=ORIENTED_EDGE('',*,*,#709,.F.);
#730=ORIENTED_EDGE('',*,*,#729,.T.);
#732=ORIENTED_EDGE('',*,*,#731,.T.);
#734=ORIENTED_EDGE('',*,*,#733,.F.);
#735=EDGE_LOOP('',(#728,#730,#732,#734));
#736=FACE_OUTER_BOUND('',#735,.F.);
#738=CARTESIAN_POINT('',(0.E0,1.1E1,0.E0));
#739=DIRECTION('',(0.E0,1.E0,0.E0));
#740=DIRECTION('',(0.E0,0.E0,1.E0));
#741=AXIS2_PLACEMENT_3D('',#738,#739,#740);
#742=CYLINDRICAL_SURFACE('',#741,1.75E0);
#743=ORIENTED_EDGE('',*,*,#711,.F.);
#744=ORIENTED_EDGE('',*,*,#733,.T.);
#746=ORIENTED_EDGE('',*,*,#745,.T.);
#747=ORIENTED_EDGE('',*,*,#729,.F.);
#748=EDGE_LOOP('',(#743,#744,#746,#747));
#749=FACE_OUTER_BOUND('',#748,.F.);
#751=CARTESIAN_POINT('',(0.E0,1.098E1,0.E0));
#752=DIRECTION('',(0.E0,1.E0,0.E0));
#753=DIRECTION('',(0.E0,0.E0,1.E0));
#754=AXIS2_PLACEMENT_3D('',#751,#752,#753);
#755=PLANE('',#754);
#756=ORIENTED_EDGE('',*,*,#731,.F.);
#757=ORIENTED_EDGE('',*,*,#745,.F.);
#758=EDGE_LOOP('',(#756,#757));
#759=FACE_OUTER_BOUND('',#758,.F.);
#761=FILL_AREA_STYLE_COLOUR('',#18);
#762=FILL_AREA_STYLE('',(#761));
#763=SURFACE_STYLE_FILL_AREA(#762);
#764=SURFACE_SIDE_STYLE('',(#763));
#765=SURFACE_STYLE_USAGE(.POSITIVE.,#764);
#766=PRESENTATION_STYLE_ASSIGNMENT((#765));
#767=STYLED_ITEM('',(#766),#760);
#768=CARTESIAN_POINT('',(0.E0,0.E0,0.E0));
#769=DIRECTION('',(0.E0,-1.E0,0.E0));
#770=DIRECTION('',(0.E0,0.E0,1.E0));
#771=AXIS2_PLACEMENT_3D('',#768,#769,#770);
#772=CYLINDRICAL_SURFACE('',#771,1.9E0);
#773=ORIENTED_EDGE('',*,*,#380,.F.);
#775=ORIENTED_EDGE('',*,*,#774,.T.);
#777=ORIENTED_EDGE('',*,*,#776,.T.);
#779=ORIENTED_EDGE('',*,*,#778,.F.);
#780=EDGE_LOOP('',(#773,#775,#777,#779));
#781=FACE_OUTER_BOUND('',#780,.F.);
#783=FILL_AREA_STYLE_COLOUR('',#17);
#784=FILL_AREA_STYLE('',(#783));
#785=SURFACE_STYLE_FILL_AREA(#784);
#786=SURFACE_SIDE_STYLE('',(#785));
#787=SURFACE_STYLE_USAGE(.POSITIVE.,#786);
#788=PRESENTATION_STYLE_ASSIGNMENT((#787));
#789=STYLED_ITEM('',(#788),#782);
#790=CARTESIAN_POINT('',(0.E0,0.E0,0.E0));
#791=DIRECTION('',(0.E0,-1.E0,0.E0));
#792=DIRECTION('',(0.E0,0.E0,1.E0));
#793=AXIS2_PLACEMENT_3D('',#790,#791,#792);
#794=CYLINDRICAL_SURFACE('',#793,1.9E0);
#795=ORIENTED_EDGE('',*,*,#382,.F.);
#796=ORIENTED_EDGE('',*,*,#778,.T.);
#798=ORIENTED_EDGE('',*,*,#797,.T.);
#799=ORIENTED_EDGE('',*,*,#774,.F.);
#800=EDGE_LOOP('',(#795,#796,#798,#799));
#801=FACE_OUTER_BOUND('',#800,.F.);
#803=FILL_AREA_STYLE_COLOUR('',#17);
#804=FILL_AREA_STYLE('',(#803));
#805=SURFACE_STYLE_FILL_AREA(#804);
#806=SURFACE_SIDE_STYLE('',(#805));
#807=SURFACE_STYLE_USAGE(.POSITIVE.,#806);
#808=PRESENTATION_STYLE_ASSIGNMENT((#807));
#809=STYLED_ITEM('',(#808),#802);
#810=CARTESIAN_POINT('',(0.E0,1.E-1,0.E0));
#811=DIRECTION('',(0.E0,-1.E0,0.E0));
#812=DIRECTION('',(0.E0,0.E0,1.E0));
#813=AXIS2_PLACEMENT_3D('',#810,#811,#812);
#814=PLANE('',#813);
#815=ORIENTED_EDGE('',*,*,#776,.F.);
#816=ORIENTED_EDGE('',*,*,#797,.F.);
#817=EDGE_LOOP('',(#815,#816));
#818=FACE_OUTER_BOUND('',#817,.F.);
#820=ORIENTED_EDGE('',*,*,#819,.T.);
#822=ORIENTED_EDGE('',*,*,#821,.T.);
#823=EDGE_LOOP('',(#820,#822));
#824=FACE_BOUND('',#823,.F.);
#826=ORIENTED_EDGE('',*,*,#825,.T.);
#828=ORIENTED_EDGE('',*,*,#827,.T.);
#829=EDGE_LOOP('',(#826,#828));
#830=FACE_BOUND('',#829,.F.);
#832=FILL_AREA_STYLE_COLOUR('',#17);
#833=FILL_AREA_STYLE('',(#832));
#834=SURFACE_STYLE_FILL_AREA(#833);
#835=SURFACE_SIDE_STYLE('',(#834));
#836=SURFACE_STYLE_USAGE(.POSITIVE.,#835);
#837=PRESENTATION_STYLE_ASSIGNMENT((#836));
#838=STYLED_ITEM('',(#837),#831);
#839=CARTESIAN_POINT('',(0.E0,1.E-1,1.E0));
#840=DIRECTION('',(0.E0,-1.E0,0.E0));
#841=DIRECTION('',(0.E0,0.E0,-1.E0));
#842=AXIS2_PLACEMENT_3D('',#839,#840,#841);
#843=CYLINDRICAL_SURFACE('',#842,2.5E-1);
#844=ORIENTED_EDGE('',*,*,#819,.F.);
#846=ORIENTED_EDGE('',*,*,#845,.T.);
#848=ORIENTED_EDGE('',*,*,#847,.T.);
#850=ORIENTED_EDGE('',*,*,#849,.F.);
#851=EDGE_LOOP('',(#844,#846,#848,#850));
#852=FACE_OUTER_BOUND('',#851,.F.);
#854=FILL_AREA_STYLE_COLOUR('',#18);
#855=FILL_AREA_STYLE('',(#854));
#856=SURFACE_STYLE_FILL_AREA(#855);
#857=SURFACE_SIDE_STYLE('',(#856));
#858=SURFACE_STYLE_USAGE(.POSITIVE.,#857);
#859=PRESENTATION_STYLE_ASSIGNMENT((#858));
#860=STYLED_ITEM('',(#859),#853);
#861=CARTESIAN_POINT('',(0.E0,1.E-1,1.E0));
#862=DIRECTION('',(0.E0,-1.E0,0.E0));
#863=DIRECTION('',(0.E0,0.E0,-1.E0));
#864=AXIS2_PLACEMENT_3D('',#861,#862,#863);
#865=CYLINDRICAL_SURFACE('',#864,2.5E-1);
#866=ORIENTED_EDGE('',*,*,#821,.F.);
#867=ORIENTED_EDGE('',*,*,#849,.T.);
#869=ORIENTED_EDGE('',*,*,#868,.T.);
#870=ORIENTED_EDGE('',*,*,#845,.F.);
#871=EDGE_LOOP('',(#866,#867,#869,#870));
#872=FACE_OUTER_BOUND('',#871,.F.);
#874=FILL_AREA_STYLE_COLOUR('',#18);
#875=FILL_AREA_STYLE('',(#874));
#876=SURFACE_STYLE_FILL_AREA(#875);
#877=SURFACE_SIDE_STYLE('',(#876));
#878=SURFACE_STYLE_USAGE(.POSITIVE.,#877);
#879=PRESENTATION_STYLE_ASSIGNMENT((#878));
#880=STYLED_ITEM('',(#879),#873);
#881=CARTESIAN_POINT('',(0.E0,-1.99E1,0.E0));
#882=DIRECTION('',(0.E0,-1.E0,0.E0));
#883=DIRECTION('',(0.E0,0.E0,-1.E0));
#884=AXIS2_PLACEMENT_3D('',#881,#882,#883);
#885=PLANE('',#884);
#886=ORIENTED_EDGE('',*,*,#847,.F.);
#887=ORIENTED_EDGE('',*,*,#868,.F.);
#888=EDGE_LOOP('',(#886,#887));
#889=FACE_OUTER_BOUND('',#888,.F.);
#891=FILL_AREA_STYLE_COLOUR('',#18);
#892=FILL_AREA_STYLE('',(#891));
#893=SURFACE_STYLE_FILL_AREA(#892);
#894=SURFACE_SIDE_STYLE('',(#893));
#895=SURFACE_STYLE_USAGE(.POSITIVE.,#894);
#896=PRESENTATION_STYLE_ASSIGNMENT((#895));
#897=STYLED_ITEM('',(#896),#890);
#898=CARTESIAN_POINT('',(0.E0,1.E-1,-1.E0));
#899=DIRECTION('',(0.E0,-1.E0,0.E0));
#900=DIRECTION('',(-1.E0,0.E0,0.E0));
#901=AXIS2_PLACEMENT_3D('',#898,#899,#900);
#902=CYLINDRICAL_SURFACE('',#901,2.5E-1);
#903=ORIENTED_EDGE('',*,*,#825,.F.);
#905=ORIENTED_EDGE('',*,*,#904,.T.);
#907=ORIENTED_EDGE('',*,*,#906,.T.);
#909=ORIENTED_EDGE('',*,*,#908,.F.);
#910=EDGE_LOOP('',(#903,#905,#907,#909));
#911=FACE_OUTER_BOUND('',#910,.F.);
#913=FILL_AREA_STYLE_COLOUR('',#18);
#914=FILL_AREA_STYLE('',(#913));
#915=SURFACE_STYLE_FILL_AREA(#914);
#916=SURFACE_SIDE_STYLE('',(#915));
#917=SURFACE_STYLE_USAGE(.POSITIVE.,#916);
#918=PRESENTATION_STYLE_ASSIGNMENT((#917));
#919=STYLED_ITEM('',(#918),#912);
#920=CARTESIAN_POINT('',(0.E0,1.E-1,-1.E0));
#921=DIRECTION('',(0.E0,-1.E0,0.E0));
#922=DIRECTION('',(-1.E0,0.E0,0.E0));
#923=AXIS2_PLACEMENT_3D('',#920,#921,#922);
#924=CYLINDRICAL_SURFACE('',#923,2.5E-1);
#925=ORIENTED_EDGE('',*,*,#827,.F.);
#926=ORIENTED_EDGE('',*,*,#908,.T.);
#928=ORIENTED_EDGE('',*,*,#927,.T.);
#929=ORIENTED_EDGE('',*,*,#904,.F.);
#930=EDGE_LOOP('',(#925,#926,#928,#929));
#931=FACE_OUTER_BOUND('',#930,.F.);
#933=FILL_AREA_STYLE_COLOUR('',#18);
#934=FILL_AREA_STYLE('',(#933));
#935=SURFACE_STYLE_FILL_AREA(#934);
#936=SURFACE_SIDE_STYLE('',(#935));
#937=SURFACE_STYLE_USAGE(.POSITIVE.,#936);
#938=PRESENTATION_STYLE_ASSIGNMENT((#937));
#939=STYLED_ITEM('',(#938),#932);
#940=CARTESIAN_POINT('',(0.E0,-2.49E1,0.E0));
#941=DIRECTION('',(0.E0,-1.E0,0.E0));
#942=DIRECTION('',(-1.E0,0.E0,0.E0));
#943=AXIS2_PLACEMENT_3D('',#940,#941,#942);
#944=PLANE('',#943);
#945=ORIENTED_EDGE('',*,*,#906,.F.);
#946=ORIENTED_EDGE('',*,*,#927,.F.);
#947=EDGE_LOOP('',(#945,#946));
#948=FACE_OUTER_BOUND('',#947,.F.);
#950=FILL_AREA_STYLE_COLOUR('',#18);
#951=FILL_AREA_STYLE('',(#950));
#952=SURFACE_STYLE_FILL_AREA(#951);
#953=SURFACE_SIDE_STYLE('',(#952));
#954=SURFACE_STYLE_USAGE(.POSITIVE.,#953);
#955=PRESENTATION_STYLE_ASSIGNMENT((#954));
#956=STYLED_ITEM('',(#955),#949);
#957=CLOSED_SHELL('',(#386,#408,#431,#453,#475,#496,#518,#541,#566,#588,#612,
#635,#654,#673,#692,#715,#737,#750,#760,#782,#802,#831,#853,#873,#890,#912,#932,
#949));
#958=MANIFOLD_SOLID_BREP('',#957);
#961=PLANE_ANGLE_MEASURE_WITH_UNIT(PLANE_ANGLE_MEASURE(1.745329251994E-2),#960);
#962=(CONVERSION_BASED_UNIT('DEGREE',#961)NAMED_UNIT(*)PLANE_ANGLE_UNIT());
#964=UNCERTAINTY_MEASURE_WITH_UNIT(LENGTH_MEASURE(3.658828907372E-3),#959,
'distance_accuracy_value',
'Maximum model space distance between geometric entities at asserted connectivities');
#966=CARTESIAN_POINT('',(0.E0,0.E0,0.E0));
#967=DIRECTION('',(0.E0,0.E0,1.E0));
#968=DIRECTION('',(1.E0,0.E0,0.E0));
#971=APPLICATION_CONTEXT('automotive_design');
#972=APPLICATION_PROTOCOL_DEFINITION('international standard',
'automotive_design',2001,#971);
#973=PRODUCT_DEFINITION_CONTEXT('part definition',#971,'design');
#974=PRODUCT_CONTEXT('',#971,'mechanical');
#975=PRODUCT('0500110000','0500110000','NOT SPECIFIED',(#974));
#976=PRODUCT_DEFINITION_FORMATION('38','LAST_VERSION',#975);
#984=DERIVED_UNIT_ELEMENT(#983,2.E0);
#985=DERIVED_UNIT((#984));
#986=MEASURE_REPRESENTATION_ITEM('surface area measure',AREA_MEASURE(
2.829140223967E2),#985);
#991=DERIVED_UNIT_ELEMENT(#990,3.E0);
#992=DERIVED_UNIT((#991));
#993=MEASURE_REPRESENTATION_ITEM('volume measure',VOLUME_MEASURE(
2.223732966767E2),#992);
#997=CARTESIAN_POINT('centre point',(-1.884336302807E-7,4.877078228871E0,
-4.414717301430E-3));
#1002=DERIVED_UNIT_ELEMENT(#1001,2.E0);
#1003=DERIVED_UNIT((#1002));
#1004=MEASURE_REPRESENTATION_ITEM('surface area measure',AREA_MEASURE(
2.829140223967E2),#1003);
#1009=DERIVED_UNIT_ELEMENT(#1008,3.E0);
#1010=DERIVED_UNIT((#1009));
#1011=MEASURE_REPRESENTATION_ITEM('volume measure',VOLUME_MEASURE(
2.223732966767E2),#1010);
#1015=CARTESIAN_POINT('centre point',(-1.884336302807E-7,4.877078228871E0,
-4.414717301430E-3));
#1025=CARTESIAN_POINT('centre point',(2.499999811566E0,2.977707822887E1,
-2.504414717301E0));
#1029=CARTESIAN_POINT('',(2.5E0,2.49E1,-2.5E0));
#1030=DIRECTION('',(0.E0,0.E0,1.E0));
#1031=DIRECTION('',(1.E0,0.E0,0.E0));
#1032=AXIS2_PLACEMENT_3D('',#1029,#1030,#1031);
#1033=ITEM_DEFINED_TRANSFORMATION('','',#969,#1032);
#1034=(REPRESENTATION_RELATIONSHIP('','',#970,#1022)REPRESENTATION_RELATIONSHIP_WITH_TRANSFORMATION(#1033)SHAPE_REPRESENTATION_RELATIONSHIP());
#1035=CONTEXT_DEPENDENT_SHAPE_REPRESENTATION(#1034,#1024);
#1037=CARTESIAN_POINT('',(0.E0,0.E0,0.E0));
#1038=DIRECTION('',(0.E0,-1.E0,0.E0));
#1039=DIRECTION('',(2.856484868784E-1,0.E0,9.583344624629E-1));
#1040=AXIS2_PLACEMENT_3D('',#1037,#1038,#1039);
#1042=DIRECTION('',(-4.256237262905E-14,0.E0,1.E0));
#1043=VECTOR('',#1042,5.216922629296E-3);
#1044=CARTESIAN_POINT('',(-7.141212171956E-1,0.E0,2.395836156157E0));
#1045=LINE('',#1044,#1043);
#1046=CARTESIAN_POINT('',(0.E0,0.E0,0.E0));
#1047=DIRECTION('',(0.E0,1.E0,0.E0));
#1048=DIRECTION('',(-2.850783302178E-1,0.E0,9.585042230685E-1));
#1049=AXIS2_PLACEMENT_3D('',#1046,#1047,#1048);
#1051=DIRECTION('',(2.128118631452E-14,0.E0,-1.E0));
#1052=VECTOR('',#1051,5.216922629296E-3);
#1053=CARTESIAN_POINT('',(7.141212171959E-1,0.E0,2.401053078787E0));
#1054=LINE('',#1053,#1052);
#1055=DIRECTION('',(0.E0,1.E0,0.E0));
#1056=VECTOR('',#1055,9.7E0);
#1057=CARTESIAN_POINT('',(7.141212171959E-1,0.E0,2.395836156157E0));
#1058=LINE('',#1057,#1056);
#1059=DIRECTION('',(0.E0,1.E0,0.E0));
#1060=VECTOR('',#1059,9.7E0);
#1061=CARTESIAN_POINT('',(7.141212171959E-1,0.E0,2.401053078787E0));
#1062=LINE('',#1061,#1060);
#1063=DIRECTION('',(0.E0,1.E0,0.E0));
#1064=VECTOR('',#1063,9.7E0);
#1065=CARTESIAN_POINT('',(-7.141212171956E-1,0.E0,2.401053078787E0));
#1066=LINE('',#1065,#1064);
#1067=DIRECTION('',(0.E0,1.E0,0.E0));
#1068=VECTOR('',#1067,9.7E0);
#1069=CARTESIAN_POINT('',(-7.141212171956E-1,0.E0,2.395836156157E0));
#1070=LINE('',#1069,#1068);
#1071=CARTESIAN_POINT('',(0.E0,9.7E0,0.E0));
#1072=DIRECTION('',(0.E0,-1.E0,0.E0));
#1073=DIRECTION('',(2.856484868784E-1,0.E0,9.583344624629E-1));
#1074=AXIS2_PLACEMENT_3D('',#1071,#1072,#1073);
#1076=DIRECTION('',(2.128118631453E-14,0.E0,-1.E0));
#1077=VECTOR('',#1076,5.216922629296E-3);
#1078=CARTESIAN_POINT('',(7.141212171959E-1,9.7E0,2.401053078787E0));
#1079=LINE('',#1078,#1077);
#1080=CARTESIAN_POINT('',(0.E0,9.7E0,0.E0));
#1081=DIRECTION('',(0.E0,1.E0,0.E0));
#1082=DIRECTION('',(-2.850783302178E-1,0.E0,9.585042230685E-1));
#1083=AXIS2_PLACEMENT_3D('',#1080,#1081,#1082);
#1085=DIRECTION('',(-6.384355894358E-14,0.E0,1.E0));
#1086=VECTOR('',#1085,5.216922629296E-3);
#1087=CARTESIAN_POINT('',(-7.141212171956E-1,9.7E0,2.395836156157E0));
#1088=LINE('',#1087,#1086);
#1089=CARTESIAN_POINT('',(7.141212171959E-1,0.E0,2.395836156157E0));
#1090=CARTESIAN_POINT('',(-7.141212171956E-1,0.E0,2.395836156157E0));
#1091=VERTEX_POINT('',#1089);
#1092=VERTEX_POINT('',#1090);
#1093=CARTESIAN_POINT('',(-7.141212171956E-1,0.E0,2.401053078787E0));
#1094=VERTEX_POINT('',#1093);
#1095=CARTESIAN_POINT('',(7.141212171959E-1,0.E0,2.401053078787E0));
#1096=VERTEX_POINT('',#1095);
#1097=CARTESIAN_POINT('',(7.141212171959E-1,9.7E0,2.395836156157E0));
#1098=CARTESIAN_POINT('',(-7.141212171956E-1,9.7E0,2.395836156157E0));
#1099=VERTEX_POINT('',#1097);
#1100=VERTEX_POINT('',#1098);
#1101=CARTESIAN_POINT('',(-7.141212171956E-1,9.7E0,2.401053078787E0));
#1102=VERTEX_POINT('',#1101);
#1103=CARTESIAN_POINT('',(7.141212171959E-1,9.7E0,2.401053078787E0));
#1104=VERTEX_POINT('',#1103);
#1105=CARTESIAN_POINT('',(0.E0,0.E0,0.E0));
#1106=DIRECTION('',(0.E0,1.E0,0.E0));
#1107=DIRECTION('',(1.E0,0.E0,0.E0));
#1108=AXIS2_PLACEMENT_3D('',#1105,#1106,#1107);
#1109=PLANE('',#1108);
#1111=ORIENTED_EDGE('',*,*,#1110,.T.);
#1113=ORIENTED_EDGE('',*,*,#1112,.T.);
#1115=ORIENTED_EDGE('',*,*,#1114,.T.);
#1117=ORIENTED_EDGE('',*,*,#1116,.T.);
#1118=EDGE_LOOP('',(#1111,#1113,#1115,#1117));
#1119=FACE_OUTER_BOUND('',#1118,.F.);
#1121=CARTESIAN_POINT('',(0.E0,0.E0,0.E0));
#1122=DIRECTION('',(0.E0,1.E0,0.E0));
#1123=DIRECTION('',(1.E0,0.E0,0.E0));
#1124=AXIS2_PLACEMENT_3D('',#1121,#1122,#1123);
#1125=CYLINDRICAL_SURFACE('',#1124,2.5E0);
#1126=ORIENTED_EDGE('',*,*,#1110,.F.);
#1128=ORIENTED_EDGE('',*,*,#1127,.T.);
#1130=ORIENTED_EDGE('',*,*,#1129,.T.);
#1132=ORIENTED_EDGE('',*,*,#1131,.F.);
#1133=EDGE_LOOP('',(#1126,#1128,#1130,#1132));
#1134=FACE_OUTER_BOUND('',#1133,.F.);
#1136=CARTESIAN_POINT('',(7.141212171959E-1,0.E0,2.401053078787E0));
#1137=DIRECTION('',(1.E0,0.E0,0.E0));
#1138=DIRECTION('',(0.E0,0.E0,-1.E0));
#1139=AXIS2_PLACEMENT_3D('',#1136,#1137,#1138);
#1140=PLANE('',#1139);
#1141=ORIENTED_EDGE('',*,*,#1116,.F.);
#1143=ORIENTED_EDGE('',*,*,#1142,.T.);
#1145=ORIENTED_EDGE('',*,*,#1144,.T.);
#1146=ORIENTED_EDGE('',*,*,#1127,.F.);
#1147=EDGE_LOOP('',(#1141,#1143,#1145,#1146));
#1148=FACE_OUTER_BOUND('',#1147,.F.);
#1150=CARTESIAN_POINT('',(0.E0,0.E0,0.E0));
#1151=DIRECTION('',(0.E0,1.E0,0.E0));
#1152=DIRECTION('',(1.E0,0.E0,0.E0));
#1153=AXIS2_PLACEMENT_3D('',#1150,#1151,#1152);
#1154=CYLINDRICAL_SURFACE('',#1153,2.505E0);
#1155=ORIENTED_EDGE('',*,*,#1114,.F.);
#1157=ORIENTED_EDGE('',*,*,#1156,.T.);
#1159=ORIENTED_EDGE('',*,*,#1158,.T.);
#1160=ORIENTED_EDGE('',*,*,#1142,.F.);
#1161=EDGE_LOOP('',(#1155,#1157,#1159,#1160));
#1162=FACE_OUTER_BOUND('',#1161,.F.);
#1164=FILL_AREA_STYLE_COLOUR('',#1036);
#1165=FILL_AREA_STYLE('',(#1164));
#1166=SURFACE_STYLE_FILL_AREA(#1165);
#1167=SURFACE_SIDE_STYLE('',(#1166));
#1168=SURFACE_STYLE_USAGE(.POSITIVE.,#1167);
#1169=PRESENTATION_STYLE_ASSIGNMENT((#1168));
#1170=STYLED_ITEM('',(#1169),#1163);
#1171=CARTESIAN_POINT('',(-7.141212171956E-1,0.E0,2.395836156157E0));
#1172=DIRECTION('',(-1.E0,0.E0,0.E0));
#1173=DIRECTION('',(0.E0,0.E0,1.E0));
#1174=AXIS2_PLACEMENT_3D('',#1171,#1172,#1173);
#1175=PLANE('',#1174);
#1176=ORIENTED_EDGE('',*,*,#1112,.F.);
#1177=ORIENTED_EDGE('',*,*,#1131,.T.);
#1179=ORIENTED_EDGE('',*,*,#1178,.T.);
#1180=ORIENTED_EDGE('',*,*,#1156,.F.);
#1181=EDGE_LOOP('',(#1176,#1177,#1179,#1180));
#1182=FACE_OUTER_BOUND('',#1181,.F.);
#1184=CARTESIAN_POINT('',(0.E0,9.7E0,0.E0));
#1185=DIRECTION('',(0.E0,1.E0,0.E0));
#1186=DIRECTION('',(1.E0,0.E0,0.E0));
#1187=AXIS2_PLACEMENT_3D('',#1184,#1185,#1186);
#1188=PLANE('',#1187);
#1189=ORIENTED_EDGE('',*,*,#1129,.F.);
#1190=ORIENTED_EDGE('',*,*,#1144,.F.);
#1191=ORIENTED_EDGE('',*,*,#1158,.F.);
#1192=ORIENTED_EDGE('',*,*,#1178,.F.);
#1193=EDGE_LOOP('',(#1189,#1190,#1191,#1192));
#1194=FACE_OUTER_BOUND('',#1193,.F.);
#1196=CLOSED_SHELL('',(#1120,#1135,#1149,#1163,#1183,#1195));
#1197=MANIFOLD_SOLID_BREP('',#1196);
#1200=PLANE_ANGLE_MEASURE_WITH_UNIT(PLANE_ANGLE_MEASURE(1.745329251994E-2),
#1199);
#1201=(CONVERSION_BASED_UNIT('DEGREE',#1200)NAMED_UNIT(*)PLANE_ANGLE_UNIT());
#1203=UNCERTAINTY_MEASURE_WITH_UNIT(LENGTH_MEASURE(9.804799947300E-4),#1198,
'distance_accuracy_value',
'Maximum model space distance between geometric entities at asserted connectivities');
#1205=CARTESIAN_POINT('',(0.E0,0.E0,0.E0));
#1206=DIRECTION('',(0.E0,0.E0,1.E0));
#1207=DIRECTION('',(1.E0,0.E0,0.E0));
#1210=PRODUCT_CONTEXT('',#971,'mechanical');
#1211=PRODUCT('FJB05001100','FJB05001100','NOT SPECIFIED',(#1210));
#1212=PRODUCT_DEFINITION_FORMATION('1','LAST_VERSION',#1211);
#1220=DERIVED_UNIT_ELEMENT(#1219,2.E0);
#1221=DERIVED_UNIT((#1220));
#1222=MEASURE_REPRESENTATION_ITEM('surface area measure',AREA_MEASURE(
2.821413628099E1),#1221);
#1227=DERIVED_UNIT_ELEMENT(#1226,3.E0);
#1228=DERIVED_UNIT((#1227));
#1229=MEASURE_REPRESENTATION_ITEM('volume measure',VOLUME_MEASURE(
7.024610848921E-2),#1228);
#1233=CARTESIAN_POINT('centre point',(-3.489572020054E-12,4.85E0,
2.467717761089E0));
#1238=DERIVED_UNIT_ELEMENT(#1237,2.E0);
#1239=DERIVED_UNIT((#1238));
#1240=MEASURE_REPRESENTATION_ITEM('surface area measure',AREA_MEASURE(
2.821413628099E1),#1239);
#1245=DERIVED_UNIT_ELEMENT(#1244,3.E0);
#1246=DERIVED_UNIT((#1245));
#1247=MEASURE_REPRESENTATION_ITEM('volume measure',VOLUME_MEASURE(
7.024610848921E-2),#1246);
#1251=CARTESIAN_POINT('centre point',(-3.489572020054E-12,4.85E0,
2.467717761089E0));
#1258=CARTESIAN_POINT('centre point',(2.499999999997E0,3.093944203260E1,
-3.228223891149E-2));
#1262=CARTESIAN_POINT('',(2.5E0,2.608944203260E1,-2.5E0));
#1263=DIRECTION('',(0.E0,0.E0,1.E0));
#1264=DIRECTION('',(1.E0,0.E0,0.E0));
#1265=AXIS2_PLACEMENT_3D('',#1262,#1263,#1264);
#1266=ITEM_DEFINED_TRANSFORMATION('','',#1208,#1265);
#1267=(REPRESENTATION_RELATIONSHIP('','',#1209,#1022)REPRESENTATION_RELATIONSHIP_WITH_TRANSFORMATION(#1266)SHAPE_REPRESENTATION_RELATIONSHIP());
#1268=CONTEXT_DEPENDENT_SHAPE_REPRESENTATION(#1267,#1257);
#1269=CARTESIAN_POINT('',(-5.103E-3,0.E0,-3.87828E-1));
#1270=DIRECTION('',(0.E0,1.E0,0.E0));
#1271=DIRECTION('',(0.E0,0.E0,-1.E0));
#1272=AXIS2_PLACEMENT_3D('',#1269,#1270,#1271);
#1274=DIRECTION('',(0.E0,0.E0,1.E0));
#1275=VECTOR('',#1274,7.75656E-1);
#1276=CARTESIAN_POINT('',(-3.82725E-1,0.E0,-3.87828E-1));
#1277=LINE('',#1276,#1275);
#1278=CARTESIAN_POINT('',(-5.103E-3,0.E0,3.87828E-1));
#1279=DIRECTION('',(0.E0,1.E0,0.E0));
#1280=DIRECTION('',(-1.E0,0.E0,0.E0));
#1281=AXIS2_PLACEMENT_3D('',#1278,#1279,#1280);
#1283=DIRECTION('',(1.E0,0.E0,0.E0));
#1284=VECTOR('',#1283,1.0206E-2);
#1285=CARTESIAN_POINT('',(-5.103E-3,0.E0,7.6545E-1));
#1286=LINE('',#1285,#1284);
#1287=CARTESIAN_POINT('',(5.103E-3,0.E0,3.87828E-1));
#1288=DIRECTION('',(0.E0,1.E0,0.E0));
#1289=DIRECTION('',(0.E0,0.E0,1.E0));
#1290=AXIS2_PLACEMENT_3D('',#1287,#1288,#1289);
#1292=DIRECTION('',(0.E0,0.E0,-1.E0));
#1293=VECTOR('',#1292,7.75656E-1);
#1294=CARTESIAN_POINT('',(3.82725E-1,0.E0,3.87828E-1));
#1295=LINE('',#1294,#1293);
#1296=CARTESIAN_POINT('',(5.103E-3,0.E0,-3.87828E-1));
#1297=DIRECTION('',(0.E0,1.E0,0.E0));
#1298=DIRECTION('',(1.E0,0.E0,0.E0));
#1299=AXIS2_PLACEMENT_3D('',#1296,#1297,#1298);
#1301=DIRECTION('',(-1.E0,0.E0,0.E0));
#1302=VECTOR('',#1301,1.0206E-2);
#1303=CARTESIAN_POINT('',(5.103E-3,0.E0,-7.6545E-1));
#1304=LINE('',#1303,#1302);
#1305=DIRECTION('',(1.E0,0.E0,0.E0));
#1306=VECTOR('',#1305,1.816714326371E-3);
#1307=CARTESIAN_POINT('',(-9.083571631854E-4,0.E0,-5.565346730563E-1));
#1308=LINE('',#1307,#1306);
#1309=CARTESIAN_POINT('',(9.083571631854E-4,0.E0,-3.268996730563E-1));
#1310=DIRECTION('',(0.E0,-1.E0,0.E0));
#1311=DIRECTION('',(0.E0,0.E0,-1.E0));
#1312=AXIS2_PLACEMENT_3D('',#1309,#1310,#1311);
#1314=DIRECTION('',(0.E0,0.E0,1.E0));
#1315=VECTOR('',#1314,6.537993461125E-1);
#1316=CARTESIAN_POINT('',(2.305433571632E-1,0.E0,-3.268996730563E-1));
#1317=LINE('',#1316,#1315);
#1318=CARTESIAN_POINT('',(9.083571631854E-4,0.E0,3.268996730563E-1));
#1319=DIRECTION('',(0.E0,-1.E0,0.E0));
#1320=DIRECTION('',(1.E0,0.E0,0.E0));
#1321=AXIS2_PLACEMENT_3D('',#1318,#1319,#1320);
#1323=DIRECTION('',(-1.E0,0.E0,0.E0));
#1324=VECTOR('',#1323,1.816714326371E-3);
#1325=CARTESIAN_POINT('',(9.083571631854E-4,0.E0,5.565346730563E-1));
#1326=LINE('',#1325,#1324);
#1327=CARTESIAN_POINT('',(-9.083571631854E-4,0.E0,3.268996730563E-1));
#1328=DIRECTION('',(0.E0,-1.E0,0.E0));
#1329=DIRECTION('',(0.E0,0.E0,1.E0));
#1330=AXIS2_PLACEMENT_3D('',#1327,#1328,#1329);
#1332=DIRECTION('',(0.E0,0.E0,-1.E0));
#1333=VECTOR('',#1332,6.537993461125E-1);
#1334=CARTESIAN_POINT('',(-2.305433571632E-1,0.E0,3.268996730563E-1));
#1335=LINE('',#1334,#1333);
#1336=CARTESIAN_POINT('',(-9.083571631854E-4,0.E0,-3.268996730563E-1));
#1337=DIRECTION('',(0.E0,-1.E0,0.E0));
#1338=DIRECTION('',(-1.E0,0.E0,0.E0));
#1339=AXIS2_PLACEMENT_3D('',#1336,#1337,#1338);
#1341=DIRECTION('',(0.E0,1.E0,0.E0));
#1342=VECTOR('',#1341,5.103E-3);
#1343=CARTESIAN_POINT('',(-5.103E-3,0.E0,-7.6545E-1));
#1344=LINE('',#1343,#1342);
#1345=DIRECTION('',(0.E0,1.E0,0.E0));
#1346=VECTOR('',#1345,5.103E-3);
#1347=CARTESIAN_POINT('',(5.103E-3,0.E0,-7.6545E-1));
#1348=LINE('',#1347,#1346);
#1349=DIRECTION('',(0.E0,1.E0,0.E0));
#1350=VECTOR('',#1349,5.103E-3);
#1351=CARTESIAN_POINT('',(3.82725E-1,0.E0,-3.87828E-1));
#1352=LINE('',#1351,#1350);
#1353=DIRECTION('',(0.E0,1.E0,0.E0));
#1354=VECTOR('',#1353,5.103E-3);
#1355=CARTESIAN_POINT('',(3.82725E-1,0.E0,3.87828E-1));
#1356=LINE('',#1355,#1354);
#1357=DIRECTION('',(0.E0,1.E0,0.E0));
#1358=VECTOR('',#1357,5.103E-3);
#1359=CARTESIAN_POINT('',(5.103E-3,0.E0,7.6545E-1));
#1360=LINE('',#1359,#1358);
#1361=DIRECTION('',(0.E0,1.E0,0.E0));
#1362=VECTOR('',#1361,5.103E-3);
#1363=CARTESIAN_POINT('',(-5.103E-3,0.E0,7.6545E-1));
#1364=LINE('',#1363,#1362);
#1365=DIRECTION('',(0.E0,1.E0,0.E0));
#1366=VECTOR('',#1365,5.103E-3);
#1367=CARTESIAN_POINT('',(-3.82725E-1,0.E0,3.87828E-1));
#1368=LINE('',#1367,#1366);
#1369=DIRECTION('',(0.E0,1.E0,0.E0));
#1370=VECTOR('',#1369,5.103E-3);
#1371=CARTESIAN_POINT('',(-3.82725E-1,0.E0,-3.87828E-1));
#1372=LINE('',#1371,#1370);
#1373=CARTESIAN_POINT('',(-5.103E-3,5.103E-3,-3.87828E-1));
#1374=DIRECTION('',(0.E0,1.E0,0.E0));
#1375=DIRECTION('',(0.E0,0.E0,-1.E0));
#1376=AXIS2_PLACEMENT_3D('',#1373,#1374,#1375);
#1378=DIRECTION('',(-1.E0,0.E0,0.E0));
#1379=VECTOR('',#1378,1.0206E-2);
#1380=CARTESIAN_POINT('',(5.103E-3,5.103E-3,-7.6545E-1));
#1381=LINE('',#1380,#1379);
#1382=CARTESIAN_POINT('',(5.103E-3,5.103E-3,-3.87828E-1));
#1383=DIRECTION('',(0.E0,1.E0,0.E0));
#1384=DIRECTION('',(1.E0,0.E0,0.E0));
#1385=AXIS2_PLACEMENT_3D('',#1382,#1383,#1384);
#1387=DIRECTION('',(0.E0,0.E0,-1.E0));
#1388=VECTOR('',#1387,7.75656E-1);
#1389=CARTESIAN_POINT('',(3.82725E-1,5.103E-3,3.87828E-1));
#1390=LINE('',#1389,#1388);
#1391=CARTESIAN_POINT('',(5.103E-3,5.103E-3,3.87828E-1));
#1392=DIRECTION('',(0.E0,1.E0,0.E0));
#1393=DIRECTION('',(0.E0,0.E0,1.E0));
#1394=AXIS2_PLACEMENT_3D('',#1391,#1392,#1393);
#1396=DIRECTION('',(1.E0,0.E0,0.E0));
#1397=VECTOR('',#1396,1.0206E-2);
#1398=CARTESIAN_POINT('',(-5.103E-3,5.103E-3,7.6545E-1));
#1399=LINE('',#1398,#1397);
#1400=CARTESIAN_POINT('',(-5.103E-3,5.103E-3,3.87828E-1));
#1401=DIRECTION('',(0.E0,1.E0,0.E0));
#1402=DIRECTION('',(-1.E0,0.E0,0.E0));
#1403=AXIS2_PLACEMENT_3D('',#1400,#1401,#1402);
#1405=DIRECTION('',(0.E0,0.E0,1.E0));
#1406=VECTOR('',#1405,7.75656E-1);
#1407=CARTESIAN_POINT('',(-3.82725E-1,5.103E-3,-3.87828E-1));
#1408=LINE('',#1407,#1406);
#1409=DIRECTION('',(1.E0,0.E0,0.E0));
#1410=VECTOR('',#1409,1.816714326371E-3);
#1411=CARTESIAN_POINT('',(-9.083571631854E-4,5.103E-3,-5.565346730563E-1));
#1412=LINE('',#1411,#1410);
#1413=CARTESIAN_POINT('',(-9.083571631854E-4,5.103E-3,-3.268996730563E-1));
#1414=DIRECTION('',(0.E0,-1.E0,0.E0));
#1415=DIRECTION('',(-1.E0,0.E0,0.E0));
#1416=AXIS2_PLACEMENT_3D('',#1413,#1414,#1415);
#1418=DIRECTION('',(0.E0,0.E0,-1.E0));
#1419=VECTOR('',#1418,6.537993461125E-1);
#1420=CARTESIAN_POINT('',(-2.305433571632E-1,5.103E-3,3.268996730563E-1));
#1421=LINE('',#1420,#1419);
#1422=CARTESIAN_POINT('',(-9.083571631854E-4,5.103E-3,3.268996730563E-1));
#1423=DIRECTION('',(0.E0,-1.E0,0.E0));
#1424=DIRECTION('',(0.E0,0.E0,1.E0));
#1425=AXIS2_PLACEMENT_3D('',#1422,#1423,#1424);
#1427=DIRECTION('',(-1.E0,0.E0,0.E0));
#1428=VECTOR('',#1427,1.816714326371E-3);
#1429=CARTESIAN_POINT('',(9.083571631854E-4,5.103E-3,5.565346730563E-1));
#1430=LINE('',#1429,#1428);
#1431=CARTESIAN_POINT('',(9.083571631854E-4,5.103E-3,3.268996730563E-1));
#1432=DIRECTION('',(0.E0,-1.E0,0.E0));
#1433=DIRECTION('',(1.E0,0.E0,0.E0));
#1434=AXIS2_PLACEMENT_3D('',#1431,#1432,#1433);
#1436=DIRECTION('',(0.E0,0.E0,1.E0));
#1437=VECTOR('',#1436,6.537993461125E-1);
#1438=CARTESIAN_POINT('',(2.305433571632E-1,5.103E-3,-3.268996730563E-1));
#1439=LINE('',#1438,#1437);
#1440=CARTESIAN_POINT('',(9.083571631854E-4,5.103E-3,-3.268996730563E-1));
#1441=DIRECTION('',(0.E0,-1.E0,0.E0));
#1442=DIRECTION('',(0.E0,0.E0,-1.E0));
#1443=AXIS2_PLACEMENT_3D('',#1440,#1441,#1442);
#1445=DIRECTION('',(0.E0,1.E0,0.E0));
#1446=VECTOR('',#1445,5.103E-3);
#1447=CARTESIAN_POINT('',(-9.083571631854E-4,0.E0,-5.565346730563E-1));
#1448=LINE('',#1447,#1446);
#1449=DIRECTION('',(0.E0,1.E0,0.E0));
#1450=VECTOR('',#1449,5.103E-3);
#1451=CARTESIAN_POINT('',(-2.305433571632E-1,0.E0,-3.268996730563E-1));
#1452=LINE('',#1451,#1450);
#1453=DIRECTION('',(0.E0,1.E0,-1.087814055090E-14));
#1454=VECTOR('',#1453,5.103E-3);
#1455=CARTESIAN_POINT('',(-2.305433571632E-1,0.E0,3.268996730563E-1));
#1456=LINE('',#1455,#1454);
#1457=DIRECTION('',(0.E0,1.E0,0.E0));
#1458=VECTOR('',#1457,5.103E-3);
#1459=CARTESIAN_POINT('',(-9.083571631855E-4,0.E0,5.565346730563E-1));
#1460=LINE('',#1459,#1458);
#1461=DIRECTION('',(0.E0,1.E0,0.E0));
#1462=VECTOR('',#1461,5.103E-3);
#1463=CARTESIAN_POINT('',(9.083571631854E-4,0.E0,5.565346730563E-1));
#1464=LINE('',#1463,#1462);
#1465=DIRECTION('',(0.E0,1.E0,0.E0));
#1466=VECTOR('',#1465,5.103E-3);
#1467=CARTESIAN_POINT('',(2.305433571632E-1,0.E0,3.268996730563E-1));
#1468=LINE('',#1467,#1466);
#1469=DIRECTION('',(0.E0,1.E0,0.E0));
#1470=VECTOR('',#1469,5.103E-3);
#1471=CARTESIAN_POINT('',(2.305433571632E-1,0.E0,-3.268996730563E-1));
#1472=LINE('',#1471,#1470);
#1473=DIRECTION('',(0.E0,1.E0,0.E0));
#1474=VECTOR('',#1473,5.103E-3);
#1475=CARTESIAN_POINT('',(9.083571631854E-4,0.E0,-5.565346730563E-1));
#1476=LINE('',#1475,#1474);
#1477=CARTESIAN_POINT('',(-5.103E-3,0.E0,-7.6545E-1));
#1478=CARTESIAN_POINT('',(-3.82725E-1,0.E0,-3.87828E-1));
#1479=VERTEX_POINT('',#1477);
#1480=VERTEX_POINT('',#1478);
#1481=CARTESIAN_POINT('',(-3.82725E-1,0.E0,3.87828E-1));
#1482=VERTEX_POINT('',#1481);
#1483=CARTESIAN_POINT('',(-5.103E-3,0.E0,7.6545E-1));
#1484=VERTEX_POINT('',#1483);
#1485=CARTESIAN_POINT('',(5.103E-3,0.E0,7.6545E-1));
#1486=VERTEX_POINT('',#1485);
#1487=CARTESIAN_POINT('',(3.82725E-1,0.E0,3.87828E-1));
#1488=VERTEX_POINT('',#1487);
#1489=CARTESIAN_POINT('',(3.82725E-1,0.E0,-3.87828E-1));
#1490=VERTEX_POINT('',#1489);
#1491=CARTESIAN_POINT('',(5.103E-3,0.E0,-7.6545E-1));
#1492=VERTEX_POINT('',#1491);
#1493=CARTESIAN_POINT('',(-9.083571631854E-4,0.E0,-5.565346730563E-1));
#1494=CARTESIAN_POINT('',(9.083571631854E-4,0.E0,-5.565346730563E-1));
#1495=VERTEX_POINT('',#1493);
#1496=VERTEX_POINT('',#1494);
#1497=CARTESIAN_POINT('',(2.305433571632E-1,0.E0,-3.268996730563E-1));
#1498=VERTEX_POINT('',#1497);
#1499=CARTESIAN_POINT('',(2.305433571632E-1,0.E0,3.268996730563E-1));
#1500=VERTEX_POINT('',#1499);
#1501=CARTESIAN_POINT('',(9.083571631854E-4,0.E0,5.565346730563E-1));
#1502=VERTEX_POINT('',#1501);
#1503=CARTESIAN_POINT('',(-9.083571631855E-4,0.E0,5.565346730563E-1));
#1504=VERTEX_POINT('',#1503);
#1505=CARTESIAN_POINT('',(-2.305433571632E-1,0.E0,3.268996730563E-1));
#1506=VERTEX_POINT('',#1505);
#1507=CARTESIAN_POINT('',(-2.305433571632E-1,0.E0,-3.268996730563E-1));
#1508=VERTEX_POINT('',#1507);
#1509=CARTESIAN_POINT('',(-5.103E-3,5.103E-3,-7.6545E-1));
#1510=CARTESIAN_POINT('',(-3.82725E-1,5.103E-3,-3.87828E-1));
#1511=VERTEX_POINT('',#1509);
#1512=VERTEX_POINT('',#1510);
#1513=CARTESIAN_POINT('',(-3.82725E-1,5.103E-3,3.87828E-1));
#1514=VERTEX_POINT('',#1513);
#1515=CARTESIAN_POINT('',(-5.103E-3,5.103E-3,7.6545E-1));
#1516=VERTEX_POINT('',#1515);
#1517=CARTESIAN_POINT('',(5.103E-3,5.103E-3,7.6545E-1));
#1518=VERTEX_POINT('',#1517);
#1519=CARTESIAN_POINT('',(3.82725E-1,5.103E-3,3.87828E-1));
#1520=VERTEX_POINT('',#1519);
#1521=CARTESIAN_POINT('',(3.82725E-1,5.103E-3,-3.87828E-1));
#1522=VERTEX_POINT('',#1521);
#1523=CARTESIAN_POINT('',(5.103E-3,5.103E-3,-7.6545E-1));
#1524=VERTEX_POINT('',#1523);
#1525=CARTESIAN_POINT('',(-9.083571631854E-4,5.103E-3,-5.565346730563E-1));
#1526=CARTESIAN_POINT('',(9.083571631854E-4,5.103E-3,-5.565346730563E-1));
#1527=VERTEX_POINT('',#1525);
#1528=VERTEX_POINT('',#1526);
#1529=CARTESIAN_POINT('',(2.305433571632E-1,5.103E-3,-3.268996730563E-1));
#1530=VERTEX_POINT('',#1529);
#1531=CARTESIAN_POINT('',(2.305433571632E-1,5.103E-3,3.268996730563E-1));
#1532=VERTEX_POINT('',#1531);
#1533=CARTESIAN_POINT('',(9.083571631854E-4,5.103E-3,5.565346730563E-1));
#1534=VERTEX_POINT('',#1533);
#1535=CARTESIAN_POINT('',(-9.083571631855E-4,5.103E-3,5.565346730563E-1));
#1536=VERTEX_POINT('',#1535);
#1537=CARTESIAN_POINT('',(-2.305433571632E-1,5.103E-3,3.268996730563E-1));
#1538=VERTEX_POINT('',#1537);
#1539=CARTESIAN_POINT('',(-2.305433571632E-1,5.103E-3,-3.268996730563E-1));
#1540=VERTEX_POINT('',#1539);
#1541=CARTESIAN_POINT('',(0.E0,0.E0,0.E0));
#1542=DIRECTION('',(0.E0,1.E0,0.E0));
#1543=DIRECTION('',(1.E0,0.E0,0.E0));
#1544=AXIS2_PLACEMENT_3D('',#1541,#1542,#1543);
#1545=PLANE('',#1544);
#1547=ORIENTED_EDGE('',*,*,#1546,.T.);
#1549=ORIENTED_EDGE('',*,*,#1548,.T.);
#1551=ORIENTED_EDGE('',*,*,#1550,.T.);
#1553=ORIENTED_EDGE('',*,*,#1552,.T.);
#1555=ORIENTED_EDGE('',*,*,#1554,.T.);
#1557=ORIENTED_EDGE('',*,*,#1556,.T.);
#1559=ORIENTED_EDGE('',*,*,#1558,.T.);
#1561=ORIENTED_EDGE('',*,*,#1560,.T.);
#1562=EDGE_LOOP('',(#1547,#1549,#1551,#1553,#1555,#1557,#1559,#1561));
#1563=FACE_OUTER_BOUND('',#1562,.F.);
#1565=ORIENTED_EDGE('',*,*,#1564,.T.);
#1567=ORIENTED_EDGE('',*,*,#1566,.T.);
#1569=ORIENTED_EDGE('',*,*,#1568,.T.);
#1571=ORIENTED_EDGE('',*,*,#1570,.T.);
#1573=ORIENTED_EDGE('',*,*,#1572,.T.);
#1575=ORIENTED_EDGE('',*,*,#1574,.T.);
#1577=ORIENTED_EDGE('',*,*,#1576,.T.);
#1579=ORIENTED_EDGE('',*,*,#1578,.T.);
#1580=EDGE_LOOP('',(#1565,#1567,#1569,#1571,#1573,#1575,#1577,#1579));
#1581=FACE_BOUND('',#1580,.F.);
#1583=FILL_AREA_STYLE_COLOUR('',#8);
#1584=FILL_AREA_STYLE('',(#1583));
#1585=SURFACE_STYLE_FILL_AREA(#1584);
#1586=SURFACE_SIDE_STYLE('',(#1585));
#1587=SURFACE_STYLE_USAGE(.BOTH.,#1586);
#1588=PRESENTATION_STYLE_ASSIGNMENT((#1587));
#1589=STYLED_ITEM('',(#1588),#1582);
#1590=CARTESIAN_POINT('',(-5.103E-3,0.E0,-3.87828E-1));
#1591=DIRECTION('',(0.E0,1.E0,0.E0));
#1592=DIRECTION('',(1.E0,0.E0,0.E0));
#1593=AXIS2_PLACEMENT_3D('',#1590,#1591,#1592);
#1594=CYLINDRICAL_SURFACE('',#1593,3.77622E-1);
#1595=ORIENTED_EDGE('',*,*,#1546,.F.);
#1597=ORIENTED_EDGE('',*,*,#1596,.T.);
#1599=ORIENTED_EDGE('',*,*,#1598,.T.);
#1601=ORIENTED_EDGE('',*,*,#1600,.F.);
#1602=EDGE_LOOP('',(#1595,#1597,#1599,#1601));
#1603=FACE_OUTER_BOUND('',#1602,.F.);
#1605=CARTESIAN_POINT('',(5.103E-3,0.E0,-7.6545E-1));
#1606=DIRECTION('',(0.E0,0.E0,-1.E0));
#1607=DIRECTION('',(-1.E0,0.E0,0.E0));
#1608=AXIS2_PLACEMENT_3D('',#1605,#1606,#1607);
#1609=PLANE('',#1608);
#1610=ORIENTED_EDGE('',*,*,#1560,.F.);
#1612=ORIENTED_EDGE('',*,*,#1611,.T.);
#1614=ORIENTED_EDGE('',*,*,#1613,.T.);
#1615=ORIENTED_EDGE('',*,*,#1596,.F.);
#1616=EDGE_LOOP('',(#1610,#1612,#1614,#1615));
#1617=FACE_OUTER_BOUND('',#1616,.F.);
#1619=CARTESIAN_POINT('',(5.103E-3,0.E0,-3.87828E-1));
#1620=DIRECTION('',(0.E0,1.E0,0.E0));
#1621=DIRECTION('',(1.E0,0.E0,0.E0));
#1622=AXIS2_PLACEMENT_3D('',#1619,#1620,#1621);
#1623=CYLINDRICAL_SURFACE('',#1622,3.77622E-1);
#1624=ORIENTED_EDGE('',*,*,#1558,.F.);
#1626=ORIENTED_EDGE('',*,*,#1625,.T.);
#1628=ORIENTED_EDGE('',*,*,#1627,.T.);
#1629=ORIENTED_EDGE('',*,*,#1611,.F.);
#1630=EDGE_LOOP('',(#1624,#1626,#1628,#1629));
#1631=FACE_OUTER_BOUND('',#1630,.F.);
#1633=CARTESIAN_POINT('',(3.82725E-1,0.E0,3.87828E-1));
#1634=DIRECTION('',(1.E0,0.E0,0.E0));
#1635=DIRECTION('',(0.E0,0.E0,-1.E0));
#1636=AXIS2_PLACEMENT_3D('',#1633,#1634,#1635);
#1637=PLANE('',#1636);
#1638=ORIENTED_EDGE('',*,*,#1556,.F.);
#1640=ORIENTED_EDGE('',*,*,#1639,.T.);
#1642=ORIENTED_EDGE('',*,*,#1641,.T.);
#1643=ORIENTED_EDGE('',*,*,#1625,.F.);
#1644=EDGE_LOOP('',(#1638,#1640,#1642,#1643));
#1645=FACE_OUTER_BOUND('',#1644,.F.);
#1647=CARTESIAN_POINT('',(5.103E-3,0.E0,3.87828E-1));
#1648=DIRECTION('',(0.E0,1.E0,0.E0));
#1649=DIRECTION('',(1.E0,0.E0,0.E0));
#1650=AXIS2_PLACEMENT_3D('',#1647,#1648,#1649);
#1651=CYLINDRICAL_SURFACE('',#1650,3.77622E-1);
#1652=ORIENTED_EDGE('',*,*,#1554,.F.);
#1654=ORIENTED_EDGE('',*,*,#1653,.T.);
#1656=ORIENTED_EDGE('',*,*,#1655,.T.);
#1657=ORIENTED_EDGE('',*,*,#1639,.F.);
#1658=EDGE_LOOP('',(#1652,#1654,#1656,#1657));
#1659=FACE_OUTER_BOUND('',#1658,.F.);
#1661=CARTESIAN_POINT('',(-5.103E-3,0.E0,7.6545E-1));
#1662=DIRECTION('',(0.E0,0.E0,1.E0));
#1663=DIRECTION('',(1.E0,0.E0,0.E0));
#1664=AXIS2_PLACEMENT_3D('',#1661,#1662,#1663);
#1665=PLANE('',#1664);
#1666=ORIENTED_EDGE('',*,*,#1552,.F.);
#1668=ORIENTED_EDGE('',*,*,#1667,.T.);
#1670=ORIENTED_EDGE('',*,*,#1669,.T.);
#1671=ORIENTED_EDGE('',*,*,#1653,.F.);
#1672=EDGE_LOOP('',(#1666,#1668,#1670,#1671));
#1673=FACE_OUTER_BOUND('',#1672,.F.);
#1675=CARTESIAN_POINT('',(-5.103E-3,0.E0,3.87828E-1));
#1676=DIRECTION('',(0.E0,1.E0,0.E0));
#1677=DIRECTION('',(1.E0,0.E0,0.E0));
#1678=AXIS2_PLACEMENT_3D('',#1675,#1676,#1677);
#1679=CYLINDRICAL_SURFACE('',#1678,3.77622E-1);
#1680=ORIENTED_EDGE('',*,*,#1550,.F.);
#1682=ORIENTED_EDGE('',*,*,#1681,.T.);
#1684=ORIENTED_EDGE('',*,*,#1683,.T.);
#1685=ORIENTED_EDGE('',*,*,#1667,.F.);
#1686=EDGE_LOOP('',(#1680,#1682,#1684,#1685));
#1687=FACE_OUTER_BOUND('',#1686,.F.);
#1689=CARTESIAN_POINT('',(-3.82725E-1,0.E0,-3.87828E-1));
#1690=DIRECTION('',(-1.E0,0.E0,0.E0));
#1691=DIRECTION('',(0.E0,0.E0,1.E0));
#1692=AXIS2_PLACEMENT_3D('',#1689,#1690,#1691);
#1693=PLANE('',#1692);
#1694=ORIENTED_EDGE('',*,*,#1548,.F.);
#1695=ORIENTED_EDGE('',*,*,#1600,.T.);
#1697=ORIENTED_EDGE('',*,*,#1696,.T.);
#1698=ORIENTED_EDGE('',*,*,#1681,.F.);
#1699=EDGE_LOOP('',(#1694,#1695,#1697,#1698));
#1700=FACE_OUTER_BOUND('',#1699,.F.);
#1702=CARTESIAN_POINT('',(0.E0,5.103E-3,0.E0));
#1703=DIRECTION('',(0.E0,1.E0,0.E0));
#1704=DIRECTION('',(1.E0,0.E0,0.E0));
#1705=AXIS2_PLACEMENT_3D('',#1702,#1703,#1704);
#1706=PLANE('',#1705);
#1707=ORIENTED_EDGE('',*,*,#1598,.F.);
#1708=ORIENTED_EDGE('',*,*,#1613,.F.);
#1709=ORIENTED_EDGE('',*,*,#1627,.F.);
#1710=ORIENTED_EDGE('',*,*,#1641,.F.);
#1711=ORIENTED_EDGE('',*,*,#1655,.F.);
#1712=ORIENTED_EDGE('',*,*,#1669,.F.);
#1713=ORIENTED_EDGE('',*,*,#1683,.F.);
#1714=ORIENTED_EDGE('',*,*,#1696,.F.);
#1715=EDGE_LOOP('',(#1707,#1708,#1709,#1710,#1711,#1712,#1713,#1714));
#1716=FACE_OUTER_BOUND('',#1715,.F.);
#1718=ORIENTED_EDGE('',*,*,#1717,.F.);
#1720=ORIENTED_EDGE('',*,*,#1719,.F.);
#1722=ORIENTED_EDGE('',*,*,#1721,.F.);
#1724=ORIENTED_EDGE('',*,*,#1723,.F.);
#1726=ORIENTED_EDGE('',*,*,#1725,.F.);
#1728=ORIENTED_EDGE('',*,*,#1727,.F.);
#1730=ORIENTED_EDGE('',*,*,#1729,.F.);
#1732=ORIENTED_EDGE('',*,*,#1731,.F.);
#1733=EDGE_LOOP('',(#1718,#1720,#1722,#1724,#1726,#1728,#1730,#1732));
#1734=FACE_BOUND('',#1733,.F.);
#1736=FILL_AREA_STYLE_COLOUR('',#13);
#1737=FILL_AREA_STYLE('',(#1736));
#1738=SURFACE_STYLE_FILL_AREA(#1737);
#1739=SURFACE_SIDE_STYLE('',(#1738));
#1740=SURFACE_STYLE_USAGE(.POSITIVE.,#1739);
#1741=PRESENTATION_STYLE_ASSIGNMENT((#1740));
#1742=STYLED_ITEM('',(#1741),#1735);
#1743=CARTESIAN_POINT('',(-9.083571631854E-4,0.E0,-5.565346730563E-1));
#1744=DIRECTION('',(0.E0,0.E0,1.E0));
#1745=DIRECTION('',(1.E0,0.E0,0.E0));
#1746=AXIS2_PLACEMENT_3D('',#1743,#1744,#1745);
#1747=PLANE('',#1746);
#1748=ORIENTED_EDGE('',*,*,#1564,.F.);
#1750=ORIENTED_EDGE('',*,*,#1749,.T.);
#1751=ORIENTED_EDGE('',*,*,#1717,.T.);
#1753=ORIENTED_EDGE('',*,*,#1752,.F.);
#1754=EDGE_LOOP('',(#1748,#1750,#1751,#1753));
#1755=FACE_OUTER_BOUND('',#1754,.F.);
#1757=CARTESIAN_POINT('',(-9.083571631854E-4,0.E0,-3.268996730563E-1));
#1758=DIRECTION('',(0.E0,1.E0,0.E0));
#1759=DIRECTION('',(1.E0,0.E0,0.E0));
#1760=AXIS2_PLACEMENT_3D('',#1757,#1758,#1759);
#1761=CYLINDRICAL_SURFACE('',#1760,2.29635E-1);
#1762=ORIENTED_EDGE('',*,*,#1578,.F.);
#1764=ORIENTED_EDGE('',*,*,#1763,.T.);
#1765=ORIENTED_EDGE('',*,*,#1719,.T.);
#1766=ORIENTED_EDGE('',*,*,#1749,.F.);
#1767=EDGE_LOOP('',(#1762,#1764,#1765,#1766));
#1768=FACE_OUTER_BOUND('',#1767,.F.);
#1770=CARTESIAN_POINT('',(-2.305433571632E-1,0.E0,3.268996730563E-1));
#1771=DIRECTION('',(1.E0,0.E0,0.E0));
#1772=DIRECTION('',(0.E0,0.E0,-1.E0));
#1773=AXIS2_PLACEMENT_3D('',#1770,#1771,#1772);
#1774=PLANE('',#1773);
#1775=ORIENTED_EDGE('',*,*,#1576,.F.);
#1777=ORIENTED_EDGE('',*,*,#1776,.T.);
#1778=ORIENTED_EDGE('',*,*,#1721,.T.);
#1779=ORIENTED_EDGE('',*,*,#1763,.F.);
#1780=EDGE_LOOP('',(#1775,#1777,#1778,#1779));
#1781=FACE_OUTER_BOUND('',#1780,.F.);
#1783=CARTESIAN_POINT('',(-9.083571631854E-4,0.E0,3.268996730563E-1));
#1784=DIRECTION('',(0.E0,1.E0,0.E0));
#1785=DIRECTION('',(1.E0,0.E0,0.E0));
#1786=AXIS2_PLACEMENT_3D('',#1783,#1784,#1785);
#1787=CYLINDRICAL_SURFACE('',#1786,2.29635E-1);
#1788=ORIENTED_EDGE('',*,*,#1574,.F.);
#1790=ORIENTED_EDGE('',*,*,#1789,.T.);
#1791=ORIENTED_EDGE('',*,*,#1723,.T.);
#1792=ORIENTED_EDGE('',*,*,#1776,.F.);
#1793=EDGE_LOOP('',(#1788,#1790,#1791,#1792));
#1794=FACE_OUTER_BOUND('',#1793,.F.);
#1796=CARTESIAN_POINT('',(9.083571631854E-4,0.E0,5.565346730563E-1));
#1797=DIRECTION('',(0.E0,0.E0,-1.E0));
#1798=DIRECTION('',(-1.E0,0.E0,0.E0));
#1799=AXIS2_PLACEMENT_3D('',#1796,#1797,#1798);
#1800=PLANE('',#1799);
#1801=ORIENTED_EDGE('',*,*,#1572,.F.);
#1803=ORIENTED_EDGE('',*,*,#1802,.T.);
#1804=ORIENTED_EDGE('',*,*,#1725,.T.);
#1805=ORIENTED_EDGE('',*,*,#1789,.F.);
#1806=EDGE_LOOP('',(#1801,#1803,#1804,#1805));
#1807=FACE_OUTER_BOUND('',#1806,.F.);
#1809=CARTESIAN_POINT('',(9.083571631854E-4,0.E0,3.268996730563E-1));
#1810=DIRECTION('',(0.E0,1.E0,0.E0));
#1811=DIRECTION('',(1.E0,0.E0,0.E0));
#1812=AXIS2_PLACEMENT_3D('',#1809,#1810,#1811);
#1813=CYLINDRICAL_SURFACE('',#1812,2.29635E-1);
#1814=ORIENTED_EDGE('',*,*,#1570,.F.);
#1816=ORIENTED_EDGE('',*,*,#1815,.T.);
#1817=ORIENTED_EDGE('',*,*,#1727,.T.);
#1818=ORIENTED_EDGE('',*,*,#1802,.F.);
#1819=EDGE_LOOP('',(#1814,#1816,#1817,#1818));
#1820=FACE_OUTER_BOUND('',#1819,.F.);
#1822=CARTESIAN_POINT('',(2.305433571632E-1,0.E0,-3.268996730563E-1));
#1823=DIRECTION('',(-1.E0,0.E0,0.E0));
#1824=DIRECTION('',(0.E0,0.E0,1.E0));
#1825=AXIS2_PLACEMENT_3D('',#1822,#1823,#1824);
#1826=PLANE('',#1825);
#1827=ORIENTED_EDGE('',*,*,#1568,.F.);
#1829=ORIENTED_EDGE('',*,*,#1828,.T.);
#1830=ORIENTED_EDGE('',*,*,#1729,.T.);
#1831=ORIENTED_EDGE('',*,*,#1815,.F.);
#1832=EDGE_LOOP('',(#1827,#1829,#1830,#1831));
#1833=FACE_OUTER_BOUND('',#1832,.F.);
#1835=CARTESIAN_POINT('',(9.083571631854E-4,0.E0,-3.268996730563E-1));
#1836=DIRECTION('',(0.E0,1.E0,0.E0));
#1837=DIRECTION('',(1.E0,0.E0,0.E0));
#1838=AXIS2_PLACEMENT_3D('',#1835,#1836,#1837);
#1839=CYLINDRICAL_SURFACE('',#1838,2.29635E-1);
#1840=ORIENTED_EDGE('',*,*,#1566,.F.);
#1841=ORIENTED_EDGE('',*,*,#1752,.T.);
#1842=ORIENTED_EDGE('',*,*,#1731,.T.);
#1843=ORIENTED_EDGE('',*,*,#1828,.F.);
#1844=EDGE_LOOP('',(#1840,#1841,#1842,#1843));
#1845=FACE_OUTER_BOUND('',#1844,.F.);
#1847=CLOSED_SHELL('',(#1582,#1604,#1618,#1632,#1646,#1660,#1674,#1688,#1701,
#1735,#1756,#1769,#1782,#1795,#1808,#1821,#1834,#1846));
#1848=MANIFOLD_SOLID_BREP('',#1847);
#1851=PLANE_ANGLE_MEASURE_WITH_UNIT(PLANE_ANGLE_MEASURE(1.745329251994E-2),
#1850);
#1852=(CONVERSION_BASED_UNIT('DEGREE',#1851)NAMED_UNIT(*)PLANE_ANGLE_UNIT());
#1854=UNCERTAINTY_MEASURE_WITH_UNIT(LENGTH_MEASURE(1.882682746393E-4),#1849,
'distance_accuracy_value',
'Maximum model space distance between geometric entities at asserted connectivities');
#1856=CARTESIAN_POINT('',(0.E0,0.E0,0.E0));
#1857=DIRECTION('',(0.E0,0.E0,1.E0));
#1858=DIRECTION('',(1.E0,0.E0,0.E0));
#1861=PRODUCT_DEFINITION_CONTEXT('part definition',#971,'design');
#1862=PRODUCT_CONTEXT('',#971,'mechanical');
#1863=PRODUCT('YUAN05001100','YUAN05001100','NOT SPECIFIED',(#1862));
#1864=PRODUCT_DEFINITION_FORMATION('8','LAST_VERSION',#1863);
#1872=DERIVED_UNIT_ELEMENT(#1871,2.E0);
#1873=DERIVED_UNIT((#1872));
#1874=MEASURE_REPRESENTATION_ITEM('surface area measure',AREA_MEASURE(
1.197110586116E0),#1873);
#1879=DERIVED_UNIT_ELEMENT(#1878,3.E0);
#1880=DERIVED_UNIT((#1879));
#1881=MEASURE_REPRESENTATION_ITEM('volume measure',VOLUME_MEASURE(
2.967211614553E-3),#1880);
#1885=CARTESIAN_POINT('centre point',(0.E0,2.5515E-3,0.E0));
#1890=DERIVED_UNIT_ELEMENT(#1889,2.E0);
#1891=DERIVED_UNIT((#1890));
#1892=MEASURE_REPRESENTATION_ITEM('surface area measure',AREA_MEASURE(
1.197110586116E0),#1891);
#1897=DERIVED_UNIT_ELEMENT(#1896,3.E0);
#1898=DERIVED_UNIT((#1897));
#1899=MEASURE_REPRESENTATION_ITEM('volume measure',VOLUME_MEASURE(
2.967211614553E-3),#1898);
#1903=CARTESIAN_POINT('centre point',(0.E0,2.5515E-3,0.E0));
#1910=CARTESIAN_POINT('centre point',(2.486965053867E0,3.315876276423E1,
1.071750422055E-2));
#1914=CARTESIAN_POINT('',(2.486823050115E0,3.315876276423E1,1.326504954584E-2));
#1915=DIRECTION('',(-2.610224047870E-4,-9.999999658278E-1,-1.454975520843E-5));
#1916=DIRECTION('',(-9.984500247818E-1,2.614276021721E-4,-5.565500578459E-2));
#1917=AXIS2_PLACEMENT_3D('',#1914,#1915,#1916);
#1918=ITEM_DEFINED_TRANSFORMATION('','',#1859,#1917);
#1919=(REPRESENTATION_RELATIONSHIP('','',#1860,#1022)REPRESENTATION_RELATIONSHIP_WITH_TRANSFORMATION(#1918)SHAPE_REPRESENTATION_RELATIONSHIP());
#1920=CONTEXT_DEPENDENT_SHAPE_REPRESENTATION(#1919,#1909);
#1923=CARTESIAN_POINT('centre point',(2.485928562536E0,2.918787261447E1,
1.065972873894E-2));
#1927=CARTESIAN_POINT('',(2.485786558784E0,2.918787261447E1,1.320727406423E-2));
#1928=DIRECTION('',(-2.610224047870E-4,-9.999999658278E-1,-1.454975520843E-5));
#1929=DIRECTION('',(-9.984500247818E-1,2.614276021721E-4,-5.565500578459E-2));
#1930=AXIS2_PLACEMENT_3D('',#1927,#1928,#1929);
#1931=ITEM_DEFINED_TRANSFORMATION('','',#1859,#1930);
#1932=(REPRESENTATION_RELATIONSHIP('','',#1860,#1022)REPRESENTATION_RELATIONSHIP_WITH_TRANSFORMATION(#1931)SHAPE_REPRESENTATION_RELATIONSHIP());
#1933=CONTEXT_DEPENDENT_SHAPE_REPRESENTATION(#1932,#1922);
#1936=PLANE_ANGLE_MEASURE_WITH_UNIT(PLANE_ANGLE_MEASURE(1.745329251994E-2),
#1935);
#1937=(CONVERSION_BASED_UNIT('DEGREE',#1936)NAMED_UNIT(*)PLANE_ANGLE_UNIT());
#1939=UNCERTAINTY_MEASURE_WITH_UNIT(LENGTH_MEASURE(3.659302983663E-3),#1934,
'distance_accuracy_value',
'Maximum model space distance between geometric entities at asserted connectivities');
#1941=CARTESIAN_POINT('',(0.E0,0.E0,0.E0));
#1942=DIRECTION('',(0.E0,0.E0,1.E0));
#1943=DIRECTION('',(1.E0,0.E0,0.E0));
#1945=MECHANICAL_DESIGN_GEOMETRIC_PRESENTATION_REPRESENTATION('',(#393,#415,
#438,#460,#482,#503,#525,#548,#573,#595,#619,#642,#661,#680,#699,#722,#767,#789,
#809,#838,#860,#880,#897,#919,#939,#956,#1170,#1589,#1742),#1940);
#1946=PRODUCT_CONTEXT('',#971,'mechanical');
#1947=PRODUCT('05001100_ASM','05001100_ASM','NOT SPECIFIED',(#1946));
#1948=PRODUCT_DEFINITION_FORMATION('1','LAST_VERSION',#1947);
#1951=DERIVED_UNIT_ELEMENT(#1950,2.E0);
#1952=DERIVED_UNIT((#1951));
#1953=MEASURE_REPRESENTATION_ITEM('surface area measure',AREA_MEASURE(
3.135223798499E2),#1952);
#1958=DERIVED_UNIT_ELEMENT(#1957,3.E0);
#1959=DERIVED_UNIT((#1958));
#1960=MEASURE_REPRESENTATION_ITEM('volume measure',VOLUME_MEASURE(
2.224494772085E2),#1959);
#1964=CARTESIAN_POINT('centre point',(2.499999450064E0,2.977748253375E1,
-2.503566959077E0));
#1968=PRODUCT_RELATED_PRODUCT_CATEGORY('part','',(#1947,#975,#1211,#1863));
#1=DRAUGHTING_PRE_DEFINED_COLOUR('green');
#2=COLOUR_RGB('',1.1E-2,1.2E-2,1.E0);
#3=COLOUR_RGB('',4.1E-1,2.61589E-1,1.12848E-1);
#4=COLOUR_RGB('',5.04854E-1,1.5455E-2,1.5455E-2);
#5=COLOUR_RGB('',6.35294E-1,6.86275E-1,7.4902E-1);
#6=COLOUR_RGB('',6.40777E-1,6.40777E-1,6.40777E-1);
#7=COLOUR_RGB('',6.69062E-1,6.69903E-1,6.55217E-1);
#8=COLOUR_RGB('',7.843137254902E-1,7.843137254902E-1,2.078431372549E-1);
#9=COLOUR_RGB('',9.21569E-1,7.05882E-1,4.70588E-1);
#10=DRAUGHTING_PRE_DEFINED_COLOUR('red');
#11=DRAUGHTING_PRE_DEFINED_COLOUR('yellow');
#12=COLOUR_RGB('',1.E0,1.E0,5.3E-1);
#13=COLOUR_RGB('',1.E0,1.E0,9.49E-1);
#14=DRAUGHTING_PRE_DEFINED_COLOUR('white');
#15=COLOUR_RGB('',1.6E-1,1.6E-1,1.8E-1);
#16=COLOUR_RGB('',2.4E-1,2.5E-1,2.6E-1);
#17=COLOUR_RGB('',2.9E-1,3.E-1,3.E-1);
#18=COLOUR_RGB('',9.2E-1,9.3E-1,9.4E-1);
#23=CIRCLE('',#22,2.3E0);
#28=CIRCLE('',#27,2.3E0);
#33=CIRCLE('',#32,1.9E0);
#38=CIRCLE('',#37,1.9E0);
#43=CIRCLE('',#42,2.E-1);
#48=CIRCLE('',#47,2.5E0);
#57=CIRCLE('',#56,2.5E0);
#66=CIRCLE('',#65,1.5E-1);
#71=CIRCLE('',#70,1.5E-1);
#76=CIRCLE('',#75,2.5E0);
#81=CIRCLE('',#80,2.5E0);
#86=CIRCLE('',#85,2.5E0);
#95=CIRCLE('',#94,2.5E0);
#104=CIRCLE('',#103,2.5E0);
#109=CIRCLE('',#108,2.5E0);
#114=CIRCLE('',#113,2.383333333333E0);
#119=CIRCLE('',#118,2.5E0);
#124=CIRCLE('',#123,3.5E-1);
#129=CIRCLE('',#128,2.383333333333E0);
#134=CIRCLE('',#133,2.5E0);
#139=CIRCLE('',#138,3.5E-1);
#144=CIRCLE('',#143,2.383333333333E0);
#149=CIRCLE('',#148,1.75E-1);
#154=CIRCLE('',#153,2.383333333333E0);
#159=CIRCLE('',#158,2.383333333333E0);
#164=CIRCLE('',#163,1.75E-1);
#169=CIRCLE('',#168,2.383333333333E0);
#174=CIRCLE('',#173,3.5E-1);
#179=CIRCLE('',#178,3.5E-1);
#184=CIRCLE('',#183,2.E-1);
#189=CIRCLE('',#188,2.35E0);
#194=CIRCLE('',#193,2.35E0);
#199=CIRCLE('',#198,1.75E0);
#204=CIRCLE('',#203,1.75E0);
#217=CIRCLE('',#216,1.75E0);
#222=CIRCLE('',#221,1.75E0);
#235=CIRCLE('',#234,1.9E0);
#240=CIRCLE('',#239,1.9E0);
#245=CIRCLE('',#244,2.5E-1);
#250=CIRCLE('',#249,2.5E-1);
#255=CIRCLE('',#254,2.5E-1);
#260=CIRCLE('',#259,2.5E-1);
#273=CIRCLE('',#272,2.5E-1);
#278=CIRCLE('',#277,2.5E-1);
#291=CIRCLE('',#290,2.5E-1);
#296=CIRCLE('',#295,2.5E-1);
#374=EDGE_CURVE('',#359,#360,#23,.T.);
#376=EDGE_CURVE('',#360,#359,#28,.T.);
#380=EDGE_CURVE('',#335,#336,#33,.T.);
#382=EDGE_CURVE('',#336,#335,#38,.T.);
#386=ADVANCED_FACE('',(#379,#385),#373,.F.);
#399=EDGE_CURVE('',#355,#356,#57,.T.);
#401=EDGE_CURVE('',#356,#360,#184,.T.);
#404=EDGE_CURVE('',#355,#359,#43,.T.);
#408=ADVANCED_FACE('',(#407),#398,.T.);
#421=EDGE_CURVE('',#299,#300,#48,.T.);
#423=EDGE_CURVE('',#326,#299,#90,.T.);
#425=EDGE_CURVE('',#319,#326,#119,.T.);
#427=EDGE_CURVE('',#319,#300,#52,.T.);
#431=ADVANCED_FACE('',(#430),#420,.T.);
#445=EDGE_CURVE('',#355,#316,#61,.T.);
#447=EDGE_CURVE('',#313,#316,#134,.T.);
#449=EDGE_CURVE('',#356,#313,#99,.T.);
#453=ADVANCED_FACE('',(#452),#443,.T.);
#467=EDGE_CURVE('',#300,#304,#71,.T.);
#469=EDGE_CURVE('',#303,#304,#189,.T.);
#471=EDGE_CURVE('',#299,#303,#66,.T.);
#475=ADVANCED_FACE('',(#474),#465,.T.);
#488=EDGE_CURVE('',#300,#299,#76,.T.);
#491=EDGE_CURVE('',#304,#303,#194,.T.);
#496=ADVANCED_FACE('',(#495),#487,.T.);
#511=EDGE_CURVE('',#319,#320,#81,.T.);
#513=EDGE_CURVE('',#320,#326,#86,.T.);
#518=ADVANCED_FACE('',(#517),#508,.T.);
#531=EDGE_CURVE('',#356,#355,#95,.T.);
#534=EDGE_CURVE('',#313,#314,#104,.T.);
#536=EDGE_CURVE('',#314,#316,#109,.T.);
#541=ADVANCED_FACE('',(#540),#530,.T.);
#554=EDGE_CURVE('',#328,#323,#114,.T.);
#556=EDGE_CURVE('',#323,#320,#174,.T.);
#560=EDGE_CURVE('',#324,#326,#124,.T.);
#562=EDGE_CURVE('',#324,#328,#154,.T.);
#566=ADVANCED_FACE('',(#565),#553,.T.);
#579=EDGE_CURVE('',#310,#307,#129,.T.);
#581=EDGE_CURVE('',#323,#310,#164,.T.);
#584=EDGE_CURVE('',#307,#328,#149,.T.);
#588=ADVANCED_FACE('',(#587),#578,.F.);
#602=EDGE_CURVE('',#307,#308,#144,.T.);
#604=EDGE_CURVE('',#308,#313,#179,.T.);
#608=EDGE_CURVE('',#310,#314,#139,.T.);
#612=ADVANCED_FACE('',(#611),#600,.T.);
#628=EDGE_CURVE('',#323,#324,#159,.T.);
#631=EDGE_CURVE('',#308,#310,#169,.T.);
#635=ADVANCED_FACE('',(#634),#624,.F.);
#654=ADVANCED_FACE('',(#653),#647,.T.);
#673=ADVANCED_FACE('',(#672),#666,.T.);
#692=ADVANCED_FACE('',(#691),#685,.T.);
#709=EDGE_CURVE('',#367,#368,#199,.T.);
#711=EDGE_CURVE('',#368,#367,#204,.T.);
#715=ADVANCED_FACE('',(#708,#714),#704,.T.);
#729=EDGE_CURVE('',#367,#363,#208,.T.);
#731=EDGE_CURVE('',#363,#364,#217,.T.);
#733=EDGE_CURVE('',#368,#364,#212,.T.);
#737=ADVANCED_FACE('',(#736),#727,.F.);
#745=EDGE_CURVE('',#364,#363,#222,.T.);
#750=ADVANCED_FACE('',(#749),#742,.F.);
#760=ADVANCED_FACE('',(#759),#755,.T.);
#774=EDGE_CURVE('',#335,#331,#226,.T.);
#776=EDGE_CURVE('',#331,#332,#235,.T.);
#778=EDGE_CURVE('',#336,#332,#230,.T.);
#782=ADVANCED_FACE('',(#781),#772,.F.);
#797=EDGE_CURVE('',#332,#331,#240,.T.);
#802=ADVANCED_FACE('',(#801),#794,.F.);
#819=EDGE_CURVE('',#343,#344,#245,.T.);
#821=EDGE_CURVE('',#344,#343,#250,.T.);
#825=EDGE_CURVE('',#351,#352,#255,.T.);
#827=EDGE_CURVE('',#352,#351,#260,.T.);
#831=ADVANCED_FACE('',(#818,#824,#830),#814,.T.);
#845=EDGE_CURVE('',#343,#339,#264,.T.);
#847=EDGE_CURVE('',#339,#340,#273,.T.);
#849=EDGE_CURVE('',#344,#340,#268,.T.);
#853=ADVANCED_FACE('',(#852),#843,.T.);
#868=EDGE_CURVE('',#340,#339,#278,.T.);
#873=ADVANCED_FACE('',(#872),#865,.T.);
#890=ADVANCED_FACE('',(#889),#885,.T.);
#904=EDGE_CURVE('',#351,#347,#282,.T.);
#906=EDGE_CURVE('',#347,#348,#291,.T.);
#908=EDGE_CURVE('',#352,#348,#286,.T.);
#912=ADVANCED_FACE('',(#911),#902,.T.);
#927=EDGE_CURVE('',#348,#347,#296,.T.);
#932=ADVANCED_FACE('',(#931),#924,.T.);
#949=ADVANCED_FACE('',(#948),#944,.T.);
#959=(LENGTH_UNIT()NAMED_UNIT(*)SI_UNIT(.MILLI.,.METRE.));
#960=(NAMED_UNIT(*)PLANE_ANGLE_UNIT()SI_UNIT($,.RADIAN.));
#963=(NAMED_UNIT(*)SI_UNIT($,.STERADIAN.)SOLID_ANGLE_UNIT());
#965=(GEOMETRIC_REPRESENTATION_CONTEXT(3)GLOBAL_UNCERTAINTY_ASSIGNED_CONTEXT((
#964))GLOBAL_UNIT_ASSIGNED_CONTEXT((#959,#962,#963))REPRESENTATION_CONTEXT
('ID1','3'));
#969=AXIS2_PLACEMENT_3D('',#966,#967,#968);
#970=ADVANCED_BREP_SHAPE_REPRESENTATION('',(#969,#958),#965);
#977=PRODUCT_DEFINITION('part definition','',#976,#973);
#978=PRODUCT_DEFINITION_SHAPE('','SHAPE FOR 0500110000.',#977);
#979=SHAPE_ASPECT('','solid data associated with 0500110000',#978,.F.);
#980=PROPERTY_DEFINITION('',
'shape for solid data with which properties are associated',#979);
#981=SHAPE_REPRESENTATION('',(#958),#965);
#982=SHAPE_DEFINITION_REPRESENTATION(#980,#981);
#983=(LENGTH_UNIT()NAMED_UNIT(*)SI_UNIT(.MILLI.,.METRE.));
#987=PROPERTY_DEFINITION('geometric validation property','area of 0500110000',
#979);
#988=REPRESENTATION('surface area',(#986),#965);
#989=PROPERTY_DEFINITION_REPRESENTATION(#987,#988);
#990=(LENGTH_UNIT()NAMED_UNIT(*)SI_UNIT(.MILLI.,.METRE.));
#994=PROPERTY_DEFINITION('geometric validation property','volume of 0500110000',
#979);
#995=REPRESENTATION('volume',(#993),#965);
#996=PROPERTY_DEFINITION_REPRESENTATION(#994,#995);
#998=PROPERTY_DEFINITION('geometric validation property',
'centroid of 0500110000',#979);
#999=REPRESENTATION('centroid',(#997),#965);
#1000=PROPERTY_DEFINITION_REPRESENTATION(#998,#999);
#1001=(LENGTH_UNIT()NAMED_UNIT(*)SI_UNIT(.MILLI.,.METRE.));
#1005=PROPERTY_DEFINITION('geometric validation property','area of 0500110000',
#978);
#1006=REPRESENTATION('surface area',(#1004),#965);
#1007=PROPERTY_DEFINITION_REPRESENTATION(#1005,#1006);
#1008=(LENGTH_UNIT()NAMED_UNIT(*)SI_UNIT(.MILLI.,.METRE.));
#1012=PROPERTY_DEFINITION('geometric validation property',
'volume of 0500110000',#978);
#1013=REPRESENTATION('volume',(#1011),#965);
#1014=PROPERTY_DEFINITION_REPRESENTATION(#1012,#1013);
#1016=PROPERTY_DEFINITION('geometric validation property',
'centroid of 0500110000',#978);
#1017=REPRESENTATION('centroid',(#1015),#965);
#1018=PROPERTY_DEFINITION_REPRESENTATION(#1016,#1017);
#1019=SHAPE_DEFINITION_REPRESENTATION(#978,#970);
#1020=SHAPE_DEFINITION_REPRESENTATION(#1021,#1022);
#1021=PRODUCT_DEFINITION_SHAPE('','SHAPE FOR 05001100_ASM.',#1949);
#1022=SHAPE_REPRESENTATION('',(#1032,#1265,#1917,#1930,#1944),#1940);
#1023=NEXT_ASSEMBLY_USAGE_OCCURRENCE('0','Next assembly relationship',
'\X2\5F157EBF\X0\05001100',#1949,#977,$);
#1024=PRODUCT_DEFINITION_SHAPE('Placement #0',
'Placement of 0500110000 with respect to 05001100_ASM',#1023);
#1026=PROPERTY_DEFINITION('geometric validation property',
'centroid of \X2\5F157EBF\X0\05001100',#1024);
#1027=REPRESENTATION('centroid',(#1025),#965);
#1028=PROPERTY_DEFINITION_REPRESENTATION(#1026,#1027);
#1036=COLOUR_RGB('',2.5E-1,2.5E-1,2.7E-1);
#1041=CIRCLE('',#1040,2.5E0);
#1050=CIRCLE('',#1049,2.505E0);
#1075=CIRCLE('',#1074,2.5E0);
#1084=CIRCLE('',#1083,2.505E0);
#1110=EDGE_CURVE('',#1091,#1092,#1041,.T.);
#1112=EDGE_CURVE('',#1092,#1094,#1045,.T.);
#1114=EDGE_CURVE('',#1094,#1096,#1050,.T.);
#1116=EDGE_CURVE('',#1096,#1091,#1054,.T.);
#1120=ADVANCED_FACE('',(#1119),#1109,.F.);
#1127=EDGE_CURVE('',#1091,#1099,#1058,.T.);
#1129=EDGE_CURVE('',#1099,#1100,#1075,.T.);
#1131=EDGE_CURVE('',#1092,#1100,#1070,.T.);
#1135=ADVANCED_FACE('',(#1134),#1125,.F.);
#1142=EDGE_CURVE('',#1096,#1104,#1062,.T.);
#1144=EDGE_CURVE('',#1104,#1099,#1079,.T.);
#1149=ADVANCED_FACE('',(#1148),#1140,.T.);
#1156=EDGE_CURVE('',#1094,#1102,#1066,.T.);
#1158=EDGE_CURVE('',#1102,#1104,#1084,.T.);
#1163=ADVANCED_FACE('',(#1162),#1154,.T.);
#1178=EDGE_CURVE('',#1100,#1102,#1088,.T.);
#1183=ADVANCED_FACE('',(#1182),#1175,.T.);
#1195=ADVANCED_FACE('',(#1194),#1188,.T.);
#1198=(LENGTH_UNIT()NAMED_UNIT(*)SI_UNIT(.MILLI.,.METRE.));
#1199=(NAMED_UNIT(*)PLANE_ANGLE_UNIT()SI_UNIT($,.RADIAN.));
#1202=(NAMED_UNIT(*)SI_UNIT($,.STERADIAN.)SOLID_ANGLE_UNIT());
#1204=(GEOMETRIC_REPRESENTATION_CONTEXT(3)GLOBAL_UNCERTAINTY_ASSIGNED_CONTEXT((
#1203))GLOBAL_UNIT_ASSIGNED_CONTEXT((#1198,#1201,#1202))REPRESENTATION_CONTEXT(
'ID2','3'));
#1208=AXIS2_PLACEMENT_3D('',#1205,#1206,#1207);
#1209=ADVANCED_BREP_SHAPE_REPRESENTATION('',(#1208,#1197),#1204);
#1213=PRODUCT_DEFINITION('part definition','',#1212,#973);
#1214=PRODUCT_DEFINITION_SHAPE('','SHAPE FOR FJB05001100.',#1213);
#1215=SHAPE_ASPECT('','solid data associated with FJB05001100',#1214,.F.);
#1216=PROPERTY_DEFINITION('',
'shape for solid data with which properties are associated',#1215);
#1217=SHAPE_REPRESENTATION('',(#1197),#1204);
#1218=SHAPE_DEFINITION_REPRESENTATION(#1216,#1217);
#1219=(LENGTH_UNIT()NAMED_UNIT(*)SI_UNIT(.MILLI.,.METRE.));
#1223=PROPERTY_DEFINITION('geometric validation property','area of FJB05001100',
#1215);
#1224=REPRESENTATION('surface area',(#1222),#1204);
#1225=PROPERTY_DEFINITION_REPRESENTATION(#1223,#1224);
#1226=(LENGTH_UNIT()NAMED_UNIT(*)SI_UNIT(.MILLI.,.METRE.));
#1230=PROPERTY_DEFINITION('geometric validation property',
'volume of FJB05001100',#1215);
#1231=REPRESENTATION('volume',(#1229),#1204);
#1232=PROPERTY_DEFINITION_REPRESENTATION(#1230,#1231);
#1234=PROPERTY_DEFINITION('geometric validation property',
'centroid of FJB05001100',#1215);
#1235=REPRESENTATION('centroid',(#1233),#1204);
#1236=PROPERTY_DEFINITION_REPRESENTATION(#1234,#1235);
#1237=(LENGTH_UNIT()NAMED_UNIT(*)SI_UNIT(.MILLI.,.METRE.));
#1241=PROPERTY_DEFINITION('geometric validation property','area of FJB05001100',
#1214);
#1242=REPRESENTATION('surface area',(#1240),#1204);
#1243=PROPERTY_DEFINITION_REPRESENTATION(#1241,#1242);
#1244=(LENGTH_UNIT()NAMED_UNIT(*)SI_UNIT(.MILLI.,.METRE.));
#1248=PROPERTY_DEFINITION('geometric validation property',
'volume of FJB05001100',#1214);
#1249=REPRESENTATION('volume',(#1247),#1204);
#1250=PROPERTY_DEFINITION_REPRESENTATION(#1248,#1249);
#1252=PROPERTY_DEFINITION('geometric validation property',
'centroid of FJB05001100',#1214);
#1253=REPRESENTATION('centroid',(#1251),#1204);
#1254=PROPERTY_DEFINITION_REPRESENTATION(#1252,#1253);
#1255=SHAPE_DEFINITION_REPRESENTATION(#1214,#1209);
#1256=NEXT_ASSEMBLY_USAGE_OCCURRENCE('1','Next assembly relationship',
'FJB05001100',#1949,#1213,$);
#1257=PRODUCT_DEFINITION_SHAPE('Placement #1',
'Placement of FJB05001100 with respect to 05001100_ASM',#1256);
#1259=PROPERTY_DEFINITION('geometric validation property',
'centroid of FJB05001100',#1257);
#1260=REPRESENTATION('centroid',(#1258),#1204);
#1261=PROPERTY_DEFINITION_REPRESENTATION(#1259,#1260);
#1273=CIRCLE('',#1272,3.77622E-1);
#1282=CIRCLE('',#1281,3.77622E-1);
#1291=CIRCLE('',#1290,3.77622E-1);
#1300=CIRCLE('',#1299,3.77622E-1);
#1313=CIRCLE('',#1312,2.29635E-1);
#1322=CIRCLE('',#1321,2.29635E-1);
#1331=CIRCLE('',#1330,2.29635E-1);
#1340=CIRCLE('',#1339,2.29635E-1);
#1377=CIRCLE('',#1376,3.77622E-1);
#1386=CIRCLE('',#1385,3.77622E-1);
#1395=CIRCLE('',#1394,3.77622E-1);
#1404=CIRCLE('',#1403,3.77622E-1);
#1417=CIRCLE('',#1416,2.29635E-1);
#1426=CIRCLE('',#1425,2.29635E-1);
#1435=CIRCLE('',#1434,2.29635E-1);
#1444=CIRCLE('',#1443,2.29635E-1);
#1546=EDGE_CURVE('',#1479,#1480,#1273,.T.);
#1548=EDGE_CURVE('',#1480,#1482,#1277,.T.);
#1550=EDGE_CURVE('',#1482,#1484,#1282,.T.);
#1552=EDGE_CURVE('',#1484,#1486,#1286,.T.);
#1554=EDGE_CURVE('',#1486,#1488,#1291,.T.);
#1556=EDGE_CURVE('',#1488,#1490,#1295,.T.);
#1558=EDGE_CURVE('',#1490,#1492,#1300,.T.);
#1560=EDGE_CURVE('',#1492,#1479,#1304,.T.);
#1564=EDGE_CURVE('',#1495,#1496,#1308,.T.);
#1566=EDGE_CURVE('',#1496,#1498,#1313,.T.);
#1568=EDGE_CURVE('',#1498,#1500,#1317,.T.);
#1570=EDGE_CURVE('',#1500,#1502,#1322,.T.);
#1572=EDGE_CURVE('',#1502,#1504,#1326,.T.);
#1574=EDGE_CURVE('',#1504,#1506,#1331,.T.);
#1576=EDGE_CURVE('',#1506,#1508,#1335,.T.);
#1578=EDGE_CURVE('',#1508,#1495,#1340,.T.);
#1582=ADVANCED_FACE('',(#1563,#1581),#1545,.F.);
#1596=EDGE_CURVE('',#1479,#1511,#1344,.T.);
#1598=EDGE_CURVE('',#1511,#1512,#1377,.T.);
#1600=EDGE_CURVE('',#1480,#1512,#1372,.T.);
#1604=ADVANCED_FACE('',(#1603),#1594,.T.);
#1611=EDGE_CURVE('',#1492,#1524,#1348,.T.);
#1613=EDGE_CURVE('',#1524,#1511,#1381,.T.);
#1618=ADVANCED_FACE('',(#1617),#1609,.T.);
#1625=EDGE_CURVE('',#1490,#1522,#1352,.T.);
#1627=EDGE_CURVE('',#1522,#1524,#1386,.T.);
#1632=ADVANCED_FACE('',(#1631),#1623,.T.);
#1639=EDGE_CURVE('',#1488,#1520,#1356,.T.);
#1641=EDGE_CURVE('',#1520,#1522,#1390,.T.);
#1646=ADVANCED_FACE('',(#1645),#1637,.T.);
#1653=EDGE_CURVE('',#1486,#1518,#1360,.T.);
#1655=EDGE_CURVE('',#1518,#1520,#1395,.T.);
#1660=ADVANCED_FACE('',(#1659),#1651,.T.);
#1667=EDGE_CURVE('',#1484,#1516,#1364,.T.);
#1669=EDGE_CURVE('',#1516,#1518,#1399,.T.);
#1674=ADVANCED_FACE('',(#1673),#1665,.T.);
#1681=EDGE_CURVE('',#1482,#1514,#1368,.T.);
#1683=EDGE_CURVE('',#1514,#1516,#1404,.T.);
#1688=ADVANCED_FACE('',(#1687),#1679,.T.);
#1696=EDGE_CURVE('',#1512,#1514,#1408,.T.);
#1701=ADVANCED_FACE('',(#1700),#1693,.T.);
#1717=EDGE_CURVE('',#1527,#1528,#1412,.T.);
#1719=EDGE_CURVE('',#1540,#1527,#1417,.T.);
#1721=EDGE_CURVE('',#1538,#1540,#1421,.T.);
#1723=EDGE_CURVE('',#1536,#1538,#1426,.T.);
#1725=EDGE_CURVE('',#1534,#1536,#1430,.T.);
#1727=EDGE_CURVE('',#1532,#1534,#1435,.T.);
#1729=EDGE_CURVE('',#1530,#1532,#1439,.T.);
#1731=EDGE_CURVE('',#1528,#1530,#1444,.T.);
#1735=ADVANCED_FACE('',(#1716,#1734),#1706,.T.);
#1749=EDGE_CURVE('',#1495,#1527,#1448,.T.);
#1752=EDGE_CURVE('',#1496,#1528,#1476,.T.);
#1756=ADVANCED_FACE('',(#1755),#1747,.T.);
#1763=EDGE_CURVE('',#1508,#1540,#1452,.T.);
#1769=ADVANCED_FACE('',(#1768),#1761,.F.);
#1776=EDGE_CURVE('',#1506,#1538,#1456,.T.);
#1782=ADVANCED_FACE('',(#1781),#1774,.T.);
#1789=EDGE_CURVE('',#1504,#1536,#1460,.T.);
#1795=ADVANCED_FACE('',(#1794),#1787,.F.);
#1802=EDGE_CURVE('',#1502,#1534,#1464,.T.);
#1808=ADVANCED_FACE('',(#1807),#1800,.T.);
#1815=EDGE_CURVE('',#1500,#1532,#1468,.T.);
#1821=ADVANCED_FACE('',(#1820),#1813,.F.);
#1828=EDGE_CURVE('',#1498,#1530,#1472,.T.);
#1834=ADVANCED_FACE('',(#1833),#1826,.T.);
#1846=ADVANCED_FACE('',(#1845),#1839,.F.);
#1849=(LENGTH_UNIT()NAMED_UNIT(*)SI_UNIT(.MILLI.,.METRE.));
#1850=(NAMED_UNIT(*)PLANE_ANGLE_UNIT()SI_UNIT($,.RADIAN.));
#1853=(NAMED_UNIT(*)SI_UNIT($,.STERADIAN.)SOLID_ANGLE_UNIT());
#1855=(GEOMETRIC_REPRESENTATION_CONTEXT(3)GLOBAL_UNCERTAINTY_ASSIGNED_CONTEXT((
#1854))GLOBAL_UNIT_ASSIGNED_CONTEXT((#1849,#1852,#1853))REPRESENTATION_CONTEXT(
'ID3','3'));
#1859=AXIS2_PLACEMENT_3D('',#1856,#1857,#1858);
#1860=ADVANCED_BREP_SHAPE_REPRESENTATION('',(#1859,#1848),#1855);
#1865=PRODUCT_DEFINITION('part definition','',#1864,#1861);
#1866=PRODUCT_DEFINITION_SHAPE('','SHAPE FOR YUAN05001100.',#1865);
#1867=SHAPE_ASPECT('','solid data associated with YUAN05001100',#1866,.F.);
#1868=PROPERTY_DEFINITION('',
'shape for solid data with which properties are associated',#1867);
#1869=SHAPE_REPRESENTATION('',(#1848),#1855);
#1870=SHAPE_DEFINITION_REPRESENTATION(#1868,#1869);
#1871=(LENGTH_UNIT()NAMED_UNIT(*)SI_UNIT(.MILLI.,.METRE.));
#1875=PROPERTY_DEFINITION('geometric validation property',
'area of YUAN05001100',#1867);
#1876=REPRESENTATION('surface area',(#1874),#1855);
#1877=PROPERTY_DEFINITION_REPRESENTATION(#1875,#1876);
#1878=(LENGTH_UNIT()NAMED_UNIT(*)SI_UNIT(.MILLI.,.METRE.));
#1882=PROPERTY_DEFINITION('geometric validation property',
'volume of YUAN05001100',#1867);
#1883=REPRESENTATION('volume',(#1881),#1855);
#1884=PROPERTY_DEFINITION_REPRESENTATION(#1882,#1883);
#1886=PROPERTY_DEFINITION('geometric validation property',
'centroid of YUAN05001100',#1867);
#1887=REPRESENTATION('centroid',(#1885),#1855);
#1888=PROPERTY_DEFINITION_REPRESENTATION(#1886,#1887);
#1889=(LENGTH_UNIT()NAMED_UNIT(*)SI_UNIT(.MILLI.,.METRE.));
#1893=PROPERTY_DEFINITION('geometric validation property',
'area of YUAN05001100',#1866);
#1894=REPRESENTATION('surface area',(#1892),#1855);
#1895=PROPERTY_DEFINITION_REPRESENTATION(#1893,#1894);
#1896=(LENGTH_UNIT()NAMED_UNIT(*)SI_UNIT(.MILLI.,.METRE.));
#1900=PROPERTY_DEFINITION('geometric validation property',
'volume of YUAN05001100',#1866);
#1901=REPRESENTATION('volume',(#1899),#1855);
#1902=PROPERTY_DEFINITION_REPRESENTATION(#1900,#1901);
#1904=PROPERTY_DEFINITION('geometric validation property',
'centroid of YUAN05001100',#1866);
#1905=REPRESENTATION('centroid',(#1903),#1855);
#1906=PROPERTY_DEFINITION_REPRESENTATION(#1904,#1905);
#1907=SHAPE_DEFINITION_REPRESENTATION(#1866,#1860);
#1908=NEXT_ASSEMBLY_USAGE_OCCURRENCE('2','Next assembly relationship',
'YUAN05001100',#1949,#1865,$);
#1909=PRODUCT_DEFINITION_SHAPE('Placement #2',
'Placement of YUAN05001100 with respect to 05001100_ASM',#1908);
#1911=PROPERTY_DEFINITION('geometric validation property',
'centroid of YUAN05001100',#1909);
#1912=REPRESENTATION('centroid',(#1910),#1855);
#1913=PROPERTY_DEFINITION_REPRESENTATION(#1911,#1912);
#1921=NEXT_ASSEMBLY_USAGE_OCCURRENCE('3','Next assembly relationship',
'YUAN05001100',#1949,#1865,$);
#1922=PRODUCT_DEFINITION_SHAPE('Placement #3',
'Placement of YUAN05001100 with respect to 05001100_ASM',#1921);
#1924=PROPERTY_DEFINITION('geometric validation property',
'centroid of YUAN05001100',#1922);
#1925=REPRESENTATION('centroid',(#1923),#1855);
#1926=PROPERTY_DEFINITION_REPRESENTATION(#1924,#1925);
#1934=(LENGTH_UNIT()NAMED_UNIT(*)SI_UNIT(.MILLI.,.METRE.));
#1935=(NAMED_UNIT(*)PLANE_ANGLE_UNIT()SI_UNIT($,.RADIAN.));
#1938=(NAMED_UNIT(*)SI_UNIT($,.STERADIAN.)SOLID_ANGLE_UNIT());
#1940=(GEOMETRIC_REPRESENTATION_CONTEXT(3)GLOBAL_UNCERTAINTY_ASSIGNED_CONTEXT((
#1939))GLOBAL_UNIT_ASSIGNED_CONTEXT((#1934,#1937,#1938))REPRESENTATION_CONTEXT(
'ID4','3'));
#1944=AXIS2_PLACEMENT_3D('',#1941,#1942,#1943);
#1949=PRODUCT_DEFINITION('part definition','',#1948,#1861);
#1950=(LENGTH_UNIT()NAMED_UNIT(*)SI_UNIT(.MILLI.,.METRE.));
#1954=PROPERTY_DEFINITION('geometric validation property',
'area of 05001100_ASM',#1021);
#1955=REPRESENTATION('surface area',(#1953),#1940);
#1956=PROPERTY_DEFINITION_REPRESENTATION(#1954,#1955);
#1957=(LENGTH_UNIT()NAMED_UNIT(*)SI_UNIT(.MILLI.,.METRE.));
#1961=PROPERTY_DEFINITION('geometric validation property',
'volume of 05001100_ASM',#1021);
#1962=REPRESENTATION('volume',(#1960),#1940);
#1963=PROPERTY_DEFINITION_REPRESENTATION(#1961,#1962);
#1965=PROPERTY_DEFINITION('geometric validation property',
'centroid of 05001100_ASM',#1021);
#1966=REPRESENTATION('centroid',(#1964),#1940);
#1967=PROPERTY_DEFINITION_REPRESENTATION(#1965,#1966);
ENDSEC;
END-ISO-10303-21;
