ISO-10303-21;
HEADER;
FILE_DESCRIPTION((''),'2;1');
FILE_NAME('0545079500','2025-06-14T15:36:35',('Administrator'),(''),
'CREO PARAMETRIC BY PTC INC, 2018100','CREO PARAMETRIC BY PTC INC, 2018100','');
FILE_SCHEMA(('AUTOMOTIVE_DESIGN { 1 0 10303 214 1 1 1 1 }'));
ENDSEC;
DATA;
#22=CARTESIAN_POINT('',(0.E0,0.E0,0.E0));
#23=DIRECTION('',(0.E0,1.E0,0.E0));
#24=DIRECTION('',(1.E0,0.E0,0.E0));
#25=AXIS2_PLACEMENT_3D('',#22,#23,#24);
#27=CARTESIAN_POINT('',(0.E0,0.E0,0.E0));
#28=DIRECTION('',(0.E0,1.E0,0.E0));
#29=DIRECTION('',(-1.E0,0.E0,0.E0));
#30=AXIS2_PLACEMENT_3D('',#27,#28,#29);
#32=CARTESIAN_POINT('',(0.E0,0.E0,0.E0));
#33=DIRECTION('',(0.E0,-1.E0,0.E0));
#34=DIRECTION('',(0.E0,0.E0,1.E0));
#35=AXIS2_PLACEMENT_3D('',#32,#33,#34);
#37=CARTESIAN_POINT('',(0.E0,0.E0,0.E0));
#38=DIRECTION('',(0.E0,-1.E0,0.E0));
#39=DIRECTION('',(0.E0,0.E0,-1.E0));
#40=AXIS2_PLACEMENT_3D('',#37,#38,#39);
#42=CARTESIAN_POINT('',(2.525E0,2.E-1,5.125830315755E-13));
#43=DIRECTION('',(2.030025453292E-13,0.E0,-1.E0));
#44=DIRECTION('',(1.E0,0.E0,2.030025453292E-13));
#45=AXIS2_PLACEMENT_3D('',#42,#43,#44);
#47=CARTESIAN_POINT('',(0.E0,7.8E0,0.E0));
#48=DIRECTION('',(0.E0,-1.E0,0.E0));
#49=DIRECTION('',(-1.E0,0.E0,0.E0));
#50=AXIS2_PLACEMENT_3D('',#47,#48,#49);
#52=DIRECTION('',(0.E0,1.E0,2.713447315664E-13));
#53=VECTOR('',#52,6.708688103938E0);
#54=CARTESIAN_POINT('',(2.725E0,1.091311896062E0,-1.805812338708E-12));
#55=LINE('',#54,#53);
#56=CARTESIAN_POINT('',(0.E0,2.E-1,0.E0));
#57=DIRECTION('',(0.E0,1.E0,0.E0));
#58=DIRECTION('',(1.E0,0.E0,0.E0));
#59=AXIS2_PLACEMENT_3D('',#56,#57,#58);
#61=DIRECTION('',(0.E0,1.E0,-1.683332434409E-11));
#62=VECTOR('',#61,1.086881039375E-1);
#63=CARTESIAN_POINT('',(2.725E0,2.E-1,2.499639570704E-14));
#64=LINE('',#63,#62);
#65=CARTESIAN_POINT('',(-2.575E0,7.8E0,4.656726393382E-13));
#66=DIRECTION('',(-1.808440550088E-13,0.E0,-1.E0));
#67=DIRECTION('',(-1.E0,0.E0,1.808440550088E-13));
#68=AXIS2_PLACEMENT_3D('',#65,#66,#67);
#70=CARTESIAN_POINT('',(0.E0,7.95E0,0.E0));
#71=DIRECTION('',(0.E0,1.E0,0.E0));
#72=DIRECTION('',(-8.333098254508E-1,0.E0,5.528062362232E-1));
#73=AXIS2_PLACEMENT_3D('',#70,#71,#72);
#75=CARTESIAN_POINT('',(2.575E0,7.8E0,-4.662468328087E-13));
#76=DIRECTION('',(1.810669669755E-13,0.E0,1.E0));
#77=DIRECTION('',(1.E0,0.E0,-1.810669669755E-13));
#78=AXIS2_PLACEMENT_3D('',#75,#76,#77);
#80=DIRECTION('',(-1.E0,-5.604677972144E-14,0.E0));
#81=VECTOR('',#80,1.584709102137E-2);
#82=CARTESIAN_POINT('',(-2.145772800536E0,7.95E0,1.423476058275E0));
#83=LINE('',#82,#81);
#84=DIRECTION('',(0.E0,0.E0,1.E0));
#85=VECTOR('',#84,3.625070458289E-2);
#86=CARTESIAN_POINT('',(-2.161619891557E0,7.95E0,1.423476058275E0));
#87=LINE('',#86,#85);
#88=DIRECTION('',(1.E0,2.201659286025E-14,0.E0));
#89=VECTOR('',#88,4.034132008245E-2);
#90=CARTESIAN_POINT('',(-2.161619891557E0,7.95E0,1.459726762858E0));
#91=LINE('',#90,#89);
#92=DIRECTION('',(0.E0,1.E0,0.E0));
#93=VECTOR('',#92,9.999999999999E-3);
#94=CARTESIAN_POINT('',(2.060296769351E0,7.95E0,1.423476058275E0));
#95=LINE('',#94,#93);
#96=DIRECTION('',(1.E0,0.E0,0.E0));
#97=VECTOR('',#96,4.181575340825E0);
#98=CARTESIAN_POINT('',(-2.121278571475E0,7.95E0,1.459726762858E0));
#99=LINE('',#98,#97);
#100=DIRECTION('',(0.E0,0.E0,-1.E0));
#101=VECTOR('',#100,3.625070458289E-2);
#102=CARTESIAN_POINT('',(2.060296769351E0,7.95E0,1.459726762858E0));
#103=LINE('',#102,#101);
#104=DIRECTION('',(-1.E0,0.E0,0.E0));
#105=VECTOR('',#104,4.206069569887E0);
#106=CARTESIAN_POINT('',(2.060296769351E0,7.95E0,1.423476058275E0));
#107=LINE('',#106,#105);
#108=CARTESIAN_POINT('',(0.E0,7.95E0,0.E0));
#109=DIRECTION('',(0.E0,-1.E0,0.E0));
#110=DIRECTION('',(-8.333098254508E-1,0.E0,5.528062362232E-1));
#111=AXIS2_PLACEMENT_3D('',#108,#109,#110);
#113=CARTESIAN_POINT('',(0.E0,7.95E0,0.E0));
#114=DIRECTION('',(0.E0,-1.E0,0.E0));
#115=DIRECTION('',(-1.E0,0.E0,0.E0));
#116=AXIS2_PLACEMENT_3D('',#113,#114,#115);
#118=CARTESIAN_POINT('',(0.E0,7.95E0,0.E0));
#119=DIRECTION('',(0.E0,-1.E0,0.E0));
#120=DIRECTION('',(1.E0,0.E0,0.E0));
#121=AXIS2_PLACEMENT_3D('',#118,#119,#120);
#123=DIRECTION('',(0.E0,1.E0,0.E0));
#124=VECTOR('',#123,9.999999999999E-3);
#125=CARTESIAN_POINT('',(-2.161619891557E0,7.95E0,1.459726762858E0));
#126=LINE('',#125,#124);
#127=DIRECTION('',(0.E0,1.E0,0.E0));
#128=VECTOR('',#127,9.999999999999E-3);
#129=CARTESIAN_POINT('',(-2.161619891557E0,7.95E0,1.423476058275E0));
#130=LINE('',#129,#128);
#131=DIRECTION('',(1.E0,0.E0,0.E0));
#132=VECTOR('',#131,4.221916660908E0);
#133=CARTESIAN_POINT('',(-2.161619891557E0,7.96E0,1.459726762858E0));
#134=LINE('',#133,#132);
#135=DIRECTION('',(0.E0,0.E0,1.E0));
#136=VECTOR('',#135,3.625070458289E-2);
#137=CARTESIAN_POINT('',(-2.161619891557E0,7.96E0,1.423476058275E0));
#138=LINE('',#137,#136);
#139=DIRECTION('',(-1.E0,0.E0,0.E0));
#140=VECTOR('',#139,4.221916660908E0);
#141=CARTESIAN_POINT('',(2.060296769351E0,7.96E0,1.423476058275E0));
#142=LINE('',#141,#140);
#143=DIRECTION('',(0.E0,0.E0,-1.E0));
#144=VECTOR('',#143,3.625070458289E-2);
#145=CARTESIAN_POINT('',(2.060296769351E0,7.96E0,1.459726762858E0));
#146=LINE('',#145,#144);
#147=DIRECTION('',(0.E0,1.E0,0.E0));
#148=VECTOR('',#147,9.999999999999E-3);
#149=CARTESIAN_POINT('',(2.060296769351E0,7.95E0,1.459726762858E0));
#150=LINE('',#149,#148);
#151=CARTESIAN_POINT('',(0.E0,7.8E0,0.E0));
#152=DIRECTION('',(0.E0,-1.E0,0.E0));
#153=DIRECTION('',(1.E0,0.E0,0.E0));
#154=AXIS2_PLACEMENT_3D('',#151,#152,#153);
#156=CARTESIAN_POINT('',(0.E0,1.091311896062E0,0.E0));
#157=DIRECTION('',(0.E0,-1.E0,0.E0));
#158=DIRECTION('',(1.E0,0.E0,0.E0));
#159=AXIS2_PLACEMENT_3D('',#156,#157,#158);
#161=CARTESIAN_POINT('',(0.E0,1.091311896062E0,0.E0));
#162=DIRECTION('',(0.E0,-1.E0,0.E0));
#163=DIRECTION('',(0.E0,0.E0,1.E0));
#164=AXIS2_PLACEMENT_3D('',#161,#162,#163);
#166=DIRECTION('',(0.E0,1.E0,-3.011484224918E-13));
#167=VECTOR('',#166,6.708688103938E0);
#168=CARTESIAN_POINT('',(-2.725E0,1.091311896062E0,2.005304289389E-12));
#169=LINE('',#168,#167);
#170=CARTESIAN_POINT('',(0.E0,2.E-1,0.E0));
#171=DIRECTION('',(0.E0,1.E0,0.E0));
#172=DIRECTION('',(-1.E0,0.E0,0.E0));
#173=AXIS2_PLACEMENT_3D('',#170,#171,#172);
#175=DIRECTION('',(0.E0,1.E0,1.867222282732E-11));
#176=VECTOR('',#175,1.086881039375E-1);
#177=CARTESIAN_POINT('',(-2.725E0,2.E-1,-2.513386575438E-14));
#178=LINE('',#177,#176);
#179=CARTESIAN_POINT('',(0.E0,3.086881039375E-1,0.E0));
#180=DIRECTION('',(0.E0,1.E0,0.E0));
#181=DIRECTION('',(-1.E0,0.E0,0.E0));
#182=AXIS2_PLACEMENT_3D('',#179,#180,#181);
#184=CARTESIAN_POINT('',(0.E0,3.086881039375E-1,0.E0));
#185=DIRECTION('',(0.E0,1.E0,0.E0));
#186=DIRECTION('',(0.E0,0.E0,1.E0));
#187=AXIS2_PLACEMENT_3D('',#184,#185,#186);
#189=CARTESIAN_POINT('',(0.E0,8.304372986875E-1,0.E0));
#190=DIRECTION('',(0.E0,-1.E0,0.E0));
#191=DIRECTION('',(2.027797525209E-13,0.E0,-1.E0));
#192=AXIS2_PLACEMENT_3D('',#189,#190,#191);
#194=CARTESIAN_POINT('',(0.E0,1.091311896062E0,0.E0));
#195=DIRECTION('',(0.E0,1.E0,0.E0));
#196=DIRECTION('',(1.E0,0.E0,0.E0));
#197=AXIS2_PLACEMENT_3D('',#194,#195,#196);
#199=CARTESIAN_POINT('',(-2.375E0,1.091311896062E0,1.556447299662E-11));
#200=DIRECTION('',(-6.553532022613E-12,0.E0,-1.E0));
#201=DIRECTION('',(-6.666666666654E-1,-7.453559925011E-1,4.369021348400E-12));
#202=AXIS2_PLACEMENT_3D('',#199,#200,#201);
#204=CARTESIAN_POINT('',(0.E0,5.695627013125E-1,0.E0));
#205=DIRECTION('',(0.E0,1.E0,0.E0));
#206=DIRECTION('',(-4.396697329960E-12,0.E0,1.E0));
#207=AXIS2_PLACEMENT_3D('',#204,#205,#206);
#209=CARTESIAN_POINT('',(0.E0,3.086881039375E-1,0.E0));
#210=DIRECTION('',(0.E0,-1.E0,0.E0));
#211=DIRECTION('',(-1.E0,0.E0,0.E0));
#212=AXIS2_PLACEMENT_3D('',#209,#210,#211);
#214=CARTESIAN_POINT('',(-1.044215582058E-11,3.086881039375E-1,2.375E0));
#215=DIRECTION('',(1.E0,0.E0,4.396697415865E-12));
#216=DIRECTION('',(-2.931131610574E-12,7.453559925005E-1,6.666666666660E-1));
#217=AXIS2_PLACEMENT_3D('',#214,#215,#216);
#219=CARTESIAN_POINT('',(0.E0,5.695627013125E-1,0.E0));
#220=DIRECTION('',(0.E0,1.E0,0.E0));
#221=DIRECTION('',(0.E0,0.E0,-1.E0));
#222=AXIS2_PLACEMENT_3D('',#219,#220,#221);
#224=CARTESIAN_POINT('',(0.E0,7.E-1,-2.725E0));
#225=DIRECTION('',(-1.E0,0.E0,0.E0));
#226=DIRECTION('',(0.E0,-7.453559924999E-1,6.666666666667E-1));
#227=AXIS2_PLACEMENT_3D('',#224,#225,#226);
#229=CARTESIAN_POINT('',(0.E0,8.304372986875E-1,0.E0));
#230=DIRECTION('',(0.E0,-1.E0,0.E0));
#231=DIRECTION('',(-1.E0,0.E0,0.E0));
#232=AXIS2_PLACEMENT_3D('',#229,#230,#231);
#234=CARTESIAN_POINT('',(0.E0,8.304372986875E-1,0.E0));
#235=DIRECTION('',(0.E0,-1.E0,0.E0));
#236=DIRECTION('',(0.E0,0.E0,1.E0));
#237=AXIS2_PLACEMENT_3D('',#234,#235,#236);
#239=CARTESIAN_POINT('',(0.E0,7.E-1,2.725E0));
#240=DIRECTION('',(-1.E0,0.E0,0.E0));
#241=DIRECTION('',(0.E0,7.453559924999E-1,-6.666666666667E-1));
#242=AXIS2_PLACEMENT_3D('',#239,#240,#241);
#244=CARTESIAN_POINT('',(0.E0,5.695627013125E-1,0.E0));
#245=DIRECTION('',(0.E0,1.E0,0.E0));
#246=DIRECTION('',(-1.E0,0.E0,0.E0));
#247=AXIS2_PLACEMENT_3D('',#244,#245,#246);
#249=CARTESIAN_POINT('',(8.963794984052E-12,1.091311896062E0,2.375E0));
#250=DIRECTION('',(-1.E0,0.E0,3.774229193065E-12));
#251=DIRECTION('',(2.516152795375E-12,-7.453559925004E-1,6.666666666661E-1));
#252=AXIS2_PLACEMENT_3D('',#249,#250,#251);
#254=CARTESIAN_POINT('',(-2.375E0,3.086881039375E-1,-8.574153864615E-12));
#255=DIRECTION('',(-3.610100066109E-12,0.E0,1.E0));
#256=DIRECTION('',(-6.666666666662E-1,7.453559925004E-1,-2.406733377404E-12));
#257=AXIS2_PLACEMENT_3D('',#254,#255,#256);
#259=CARTESIAN_POINT('',(-2.525E0,2.E-1,-5.127599733701E-13));
#260=DIRECTION('',(-2.030728016300E-13,0.E0,1.E0));
#261=DIRECTION('',(-1.E0,0.E0,-2.030728016300E-13));
#262=AXIS2_PLACEMENT_3D('',#259,#260,#261);
#264=DIRECTION('',(0.E0,1.E0,0.E0));
#265=VECTOR('',#264,1.E-1);
#266=CARTESIAN_POINT('',(0.E0,0.E0,2.05E0));
#267=LINE('',#266,#265);
#268=DIRECTION('',(0.E0,1.E0,0.E0));
#269=VECTOR('',#268,1.E-1);
#270=CARTESIAN_POINT('',(0.E0,0.E0,-2.05E0));
#271=LINE('',#270,#269);
#272=CARTESIAN_POINT('',(0.E0,1.E-1,0.E0));
#273=DIRECTION('',(0.E0,-1.E0,0.E0));
#274=DIRECTION('',(0.E0,0.E0,1.E0));
#275=AXIS2_PLACEMENT_3D('',#272,#273,#274);
#277=CARTESIAN_POINT('',(0.E0,1.E-1,0.E0));
#278=DIRECTION('',(0.E0,-1.E0,0.E0));
#279=DIRECTION('',(0.E0,0.E0,-1.E0));
#280=AXIS2_PLACEMENT_3D('',#277,#278,#279);
#282=CARTESIAN_POINT('',(0.E0,1.E-1,1.3E0));
#283=DIRECTION('',(0.E0,-1.E0,0.E0));
#284=DIRECTION('',(0.E0,0.E0,-1.E0));
#285=AXIS2_PLACEMENT_3D('',#282,#283,#284);
#287=CARTESIAN_POINT('',(0.E0,1.E-1,1.3E0));
#288=DIRECTION('',(0.E0,-1.E0,0.E0));
#289=DIRECTION('',(0.E0,0.E0,1.E0));
#290=AXIS2_PLACEMENT_3D('',#287,#288,#289);
#292=CARTESIAN_POINT('',(0.E0,1.E-1,-1.3E0));
#293=DIRECTION('',(0.E0,-1.E0,0.E0));
#294=DIRECTION('',(-1.E0,0.E0,0.E0));
#295=AXIS2_PLACEMENT_3D('',#292,#293,#294);
#297=CARTESIAN_POINT('',(0.E0,1.E-1,-1.3E0));
#298=DIRECTION('',(0.E0,-1.E0,0.E0));
#299=DIRECTION('',(1.E0,0.E0,0.E0));
#300=AXIS2_PLACEMENT_3D('',#297,#298,#299);
#302=DIRECTION('',(0.E0,-1.E0,0.E0));
#303=VECTOR('',#302,2.E1);
#304=CARTESIAN_POINT('',(0.E0,1.E-1,1.05E0));
#305=LINE('',#304,#303);
#306=DIRECTION('',(0.E0,-1.E0,0.E0));
#307=VECTOR('',#306,2.E1);
#308=CARTESIAN_POINT('',(0.E0,1.E-1,1.55E0));
#309=LINE('',#308,#307);
#310=CARTESIAN_POINT('',(0.E0,-1.99E1,1.3E0));
#311=DIRECTION('',(0.E0,-1.E0,0.E0));
#312=DIRECTION('',(0.E0,0.E0,-1.E0));
#313=AXIS2_PLACEMENT_3D('',#310,#311,#312);
#315=CARTESIAN_POINT('',(0.E0,-1.99E1,1.3E0));
#316=DIRECTION('',(0.E0,-1.E0,0.E0));
#317=DIRECTION('',(0.E0,0.E0,1.E0));
#318=AXIS2_PLACEMENT_3D('',#315,#316,#317);
#320=DIRECTION('',(0.E0,-1.E0,0.E0));
#321=VECTOR('',#320,2.5E1);
#322=CARTESIAN_POINT('',(-2.5E-1,1.E-1,-1.3E0));
#323=LINE('',#322,#321);
#324=DIRECTION('',(0.E0,-1.E0,0.E0));
#325=VECTOR('',#324,2.5E1);
#326=CARTESIAN_POINT('',(2.5E-1,1.E-1,-1.3E0));
#327=LINE('',#326,#325);
#328=CARTESIAN_POINT('',(0.E0,-2.49E1,-1.3E0));
#329=DIRECTION('',(0.E0,-1.E0,0.E0));
#330=DIRECTION('',(-1.E0,0.E0,0.E0));
#331=AXIS2_PLACEMENT_3D('',#328,#329,#330);
#333=CARTESIAN_POINT('',(0.E0,-2.49E1,-1.3E0));
#334=DIRECTION('',(0.E0,-1.E0,0.E0));
#335=DIRECTION('',(1.E0,0.E0,0.E0));
#336=AXIS2_PLACEMENT_3D('',#333,#334,#335);
#338=CARTESIAN_POINT('',(-2.725E0,7.8E0,0.E0));
#339=CARTESIAN_POINT('',(2.725E0,7.8E0,0.E0));
#340=VERTEX_POINT('',#338);
#341=VERTEX_POINT('',#339);
#342=CARTESIAN_POINT('',(-2.575E0,7.95E0,0.E0));
#343=CARTESIAN_POINT('',(2.575E0,7.95E0,0.E0));
#344=VERTEX_POINT('',#342);
#345=VERTEX_POINT('',#343);
#346=CARTESIAN_POINT('',(0.E0,5.695627013125E-1,-2.608333333333E0));
#347=CARTESIAN_POINT('',(-2.608333333333E0,5.695627013125E-1,0.E0));
#348=VERTEX_POINT('',#346);
#349=VERTEX_POINT('',#347);
#350=CARTESIAN_POINT('',(0.E0,5.695627013125E-1,2.608333333333E0));
#351=VERTEX_POINT('',#350);
#352=CARTESIAN_POINT('',(-2.725E0,3.086881039375E-1,0.E0));
#353=CARTESIAN_POINT('',(0.E0,3.086881039375E-1,2.725E0));
#354=VERTEX_POINT('',#352);
#355=VERTEX_POINT('',#353);
#356=CARTESIAN_POINT('',(2.725E0,3.086881039375E-1,0.E0));
#357=VERTEX_POINT('',#356);
#358=CARTESIAN_POINT('',(2.725E0,1.091311896062E0,0.E0));
#359=CARTESIAN_POINT('',(0.E0,1.091311896062E0,2.725E0));
#360=VERTEX_POINT('',#358);
#361=VERTEX_POINT('',#359);
#362=CARTESIAN_POINT('',(0.E0,8.304372986875E-1,2.608333333333E0));
#363=CARTESIAN_POINT('',(-2.608333333333E0,8.304372986875E-1,0.E0));
#364=VERTEX_POINT('',#362);
#365=VERTEX_POINT('',#363);
#366=CARTESIAN_POINT('',(-2.725E0,1.091311896062E0,0.E0));
#367=VERTEX_POINT('',#366);
#368=CARTESIAN_POINT('',(0.E0,8.304372986875E-1,-2.608333333333E0));
#369=VERTEX_POINT('',#368);
#370=CARTESIAN_POINT('',(0.E0,1.E-1,2.05E0));
#371=CARTESIAN_POINT('',(0.E0,1.E-1,-2.05E0));
#372=VERTEX_POINT('',#370);
#373=VERTEX_POINT('',#371);
#374=CARTESIAN_POINT('',(0.E0,0.E0,2.05E0));
#375=CARTESIAN_POINT('',(0.E0,0.E0,-2.05E0));
#376=VERTEX_POINT('',#374);
#377=VERTEX_POINT('',#375);
#378=CARTESIAN_POINT('',(0.E0,-1.99E1,1.05E0));
#379=CARTESIAN_POINT('',(0.E0,-1.99E1,1.55E0));
#380=VERTEX_POINT('',#378);
#381=VERTEX_POINT('',#379);
#382=CARTESIAN_POINT('',(0.E0,1.E-1,1.05E0));
#383=CARTESIAN_POINT('',(0.E0,1.E-1,1.55E0));
#384=VERTEX_POINT('',#382);
#385=VERTEX_POINT('',#383);
#386=CARTESIAN_POINT('',(-2.5E-1,-2.49E1,-1.3E0));
#387=CARTESIAN_POINT('',(2.5E-1,-2.49E1,-1.3E0));
#388=VERTEX_POINT('',#386);
#389=VERTEX_POINT('',#387);
#390=CARTESIAN_POINT('',(-2.5E-1,1.E-1,-1.3E0));
#391=CARTESIAN_POINT('',(2.5E-1,1.E-1,-1.3E0));
#392=VERTEX_POINT('',#390);
#393=VERTEX_POINT('',#391);
#394=CARTESIAN_POINT('',(2.725E0,2.E-1,0.E0));
#395=CARTESIAN_POINT('',(-2.725E0,2.E-1,0.E0));
#396=VERTEX_POINT('',#394);
#397=VERTEX_POINT('',#395);
#398=CARTESIAN_POINT('',(2.525E0,0.E0,0.E0));
#399=CARTESIAN_POINT('',(-2.525E0,0.E0,0.E0));
#400=VERTEX_POINT('',#398);
#401=VERTEX_POINT('',#399);
#402=CARTESIAN_POINT('',(-2.161619891557E0,7.95E0,1.423476058275E0));
#403=CARTESIAN_POINT('',(-2.161619891557E0,7.95E0,1.459726762858E0));
#404=VERTEX_POINT('',#402);
#405=VERTEX_POINT('',#403);
#406=CARTESIAN_POINT('',(-2.161619891557E0,7.96E0,1.459726762858E0));
#407=CARTESIAN_POINT('',(2.060296769351E0,7.96E0,1.459726762858E0));
#408=VERTEX_POINT('',#406);
#409=VERTEX_POINT('',#407);
#410=CARTESIAN_POINT('',(2.060296769351E0,7.96E0,1.423476058275E0));
#411=VERTEX_POINT('',#410);
#412=CARTESIAN_POINT('',(-2.161619891557E0,7.96E0,1.423476058275E0));
#413=VERTEX_POINT('',#412);
#414=CARTESIAN_POINT('',(-2.121278571475E0,7.95E0,1.459726762858E0));
#415=CARTESIAN_POINT('',(2.060296769351E0,7.95E0,1.459726762858E0));
#416=VERTEX_POINT('',#414);
#417=VERTEX_POINT('',#415);
#418=CARTESIAN_POINT('',(2.060296769351E0,7.95E0,1.423476058275E0));
#419=VERTEX_POINT('',#418);
#420=CARTESIAN_POINT('',(-2.145772800536E0,7.95E0,1.423476058275E0));
#421=VERTEX_POINT('',#420);
#422=CARTESIAN_POINT('',(0.E0,0.E0,0.E0));
#423=DIRECTION('',(0.E0,1.E0,0.E0));
#424=DIRECTION('',(1.E0,0.E0,0.E0));
#425=AXIS2_PLACEMENT_3D('',#422,#423,#424);
#426=PLANE('',#425);
#428=ORIENTED_EDGE('',*,*,#427,.T.);
#430=ORIENTED_EDGE('',*,*,#429,.T.);
#431=EDGE_LOOP('',(#428,#430));
#432=FACE_OUTER_BOUND('',#431,.F.);
#434=ORIENTED_EDGE('',*,*,#433,.T.);
#436=ORIENTED_EDGE('',*,*,#435,.T.);
#437=EDGE_LOOP('',(#434,#436));
#438=FACE_BOUND('',#437,.F.);
#440=FILL_AREA_STYLE_COLOUR('',#17);
#441=FILL_AREA_STYLE('',(#440));
#442=SURFACE_STYLE_FILL_AREA(#441);
#443=SURFACE_SIDE_STYLE('',(#442));
#444=SURFACE_STYLE_USAGE(.POSITIVE.,#443);
#445=PRESENTATION_STYLE_ASSIGNMENT((#444));
#446=STYLED_ITEM('',(#445),#439);
#447=CARTESIAN_POINT('',(0.E0,2.E-1,0.E0));
#448=DIRECTION('',(0.E0,1.E0,0.E0));
#449=DIRECTION('',(9.999785532450E-1,0.E0,6.549278584413E-3));
#450=AXIS2_PLACEMENT_3D('',#447,#448,#449);
#451=TOROIDAL_SURFACE('',#450,2.525E0,2.E-1);
#453=ORIENTED_EDGE('',*,*,#452,.T.);
#455=ORIENTED_EDGE('',*,*,#454,.T.);
#456=ORIENTED_EDGE('',*,*,#427,.F.);
#458=ORIENTED_EDGE('',*,*,#457,.F.);
#459=EDGE_LOOP('',(#453,#455,#456,#458));
#460=FACE_OUTER_BOUND('',#459,.F.);
#462=FILL_AREA_STYLE_COLOUR('',#17);
#463=FILL_AREA_STYLE('',(#462));
#464=SURFACE_STYLE_FILL_AREA(#463);
#465=SURFACE_SIDE_STYLE('',(#464));
#466=SURFACE_STYLE_USAGE(.POSITIVE.,#465);
#467=PRESENTATION_STYLE_ASSIGNMENT((#466));
#468=STYLED_ITEM('',(#467),#461);
#469=CARTESIAN_POINT('',(0.E0,0.E0,0.E0));
#470=DIRECTION('',(0.E0,1.E0,0.E0));
#471=DIRECTION('',(1.E0,0.E0,0.E0));
#472=AXIS2_PLACEMENT_3D('',#469,#470,#471);
#473=CYLINDRICAL_SURFACE('',#472,2.725E0);
#475=ORIENTED_EDGE('',*,*,#474,.F.);
#477=ORIENTED_EDGE('',*,*,#476,.F.);
#479=ORIENTED_EDGE('',*,*,#478,.F.);
#481=ORIENTED_EDGE('',*,*,#480,.T.);
#482=EDGE_LOOP('',(#475,#477,#479,#481));
#483=FACE_OUTER_BOUND('',#482,.F.);
#485=FILL_AREA_STYLE_COLOUR('',#17);
#486=FILL_AREA_STYLE('',(#485));
#487=SURFACE_STYLE_FILL_AREA(#486);
#488=SURFACE_SIDE_STYLE('',(#487));
#489=SURFACE_STYLE_USAGE(.POSITIVE.,#488);
#490=PRESENTATION_STYLE_ASSIGNMENT((#489));
#491=STYLED_ITEM('',(#490),#484);
#492=CARTESIAN_POINT('',(0.E0,0.E0,0.E0));
#493=DIRECTION('',(0.E0,1.E0,0.E0));
#494=DIRECTION('',(1.E0,0.E0,0.E0));
#495=AXIS2_PLACEMENT_3D('',#492,#493,#494);
#496=CYLINDRICAL_SURFACE('',#495,2.725E0);
#497=ORIENTED_EDGE('',*,*,#452,.F.);
#499=ORIENTED_EDGE('',*,*,#498,.T.);
#501=ORIENTED_EDGE('',*,*,#500,.F.);
#503=ORIENTED_EDGE('',*,*,#502,.F.);
#504=EDGE_LOOP('',(#497,#499,#501,#503));
#505=FACE_OUTER_BOUND('',#504,.F.);
#507=FILL_AREA_STYLE_COLOUR('',#17);
#508=FILL_AREA_STYLE('',(#507));
#509=SURFACE_STYLE_FILL_AREA(#508);
#510=SURFACE_SIDE_STYLE('',(#509));
#511=SURFACE_STYLE_USAGE(.POSITIVE.,#510);
#512=PRESENTATION_STYLE_ASSIGNMENT((#511));
#513=STYLED_ITEM('',(#512),#506);
#514=CARTESIAN_POINT('',(0.E0,7.8E0,0.E0));
#515=DIRECTION('',(0.E0,1.E0,0.E0));
#516=DIRECTION('',(-9.999819543560E-1,0.E0,6.007575411118E-3));
#517=AXIS2_PLACEMENT_3D('',#514,#515,#516);
#518=TOROIDAL_SURFACE('',#517,2.575E0,1.5E-1);
#519=ORIENTED_EDGE('',*,*,#474,.T.);
#521=ORIENTED_EDGE('',*,*,#520,.T.);
#523=ORIENTED_EDGE('',*,*,#522,.F.);
#525=ORIENTED_EDGE('',*,*,#524,.F.);
#526=EDGE_LOOP('',(#519,#521,#523,#525));
#527=FACE_OUTER_BOUND('',#526,.F.);
#529=FILL_AREA_STYLE_COLOUR('',#17);
#530=FILL_AREA_STYLE('',(#529));
#531=SURFACE_STYLE_FILL_AREA(#530);
#532=SURFACE_SIDE_STYLE('',(#531));
#533=SURFACE_STYLE_USAGE(.POSITIVE.,#532);
#534=PRESENTATION_STYLE_ASSIGNMENT((#533));
#535=STYLED_ITEM('',(#534),#528);
#536=CARTESIAN_POINT('',(0.E0,7.8E0,0.E0));
#537=DIRECTION('',(0.E0,1.E0,0.E0));
#538=DIRECTION('',(9.999819543560E-1,0.E0,-6.007575411119E-3));
#539=AXIS2_PLACEMENT_3D('',#536,#537,#538);
#540=TOROIDAL_SURFACE('',#539,2.575E0,1.5E-1);
#542=ORIENTED_EDGE('',*,*,#541,.T.);
#544=ORIENTED_EDGE('',*,*,#543,.F.);
#545=ORIENTED_EDGE('',*,*,#520,.F.);
#547=ORIENTED_EDGE('',*,*,#546,.T.);
#548=ORIENTED_EDGE('',*,*,#524,.T.);
#550=ORIENTED_EDGE('',*,*,#549,.F.);
#551=EDGE_LOOP('',(#542,#544,#545,#547,#548,#550));
#552=FACE_OUTER_BOUND('',#551,.F.);
#554=FILL_AREA_STYLE_COLOUR('',#17);
#555=FILL_AREA_STYLE('',(#554));
#556=SURFACE_STYLE_FILL_AREA(#555);
#557=SURFACE_SIDE_STYLE('',(#556));
#558=SURFACE_STYLE_USAGE(.POSITIVE.,#557);
#559=PRESENTATION_STYLE_ASSIGNMENT((#558));
#560=STYLED_ITEM('',(#559),#553);
#561=CARTESIAN_POINT('',(0.E0,7.95E0,0.E0));
#562=DIRECTION('',(0.E0,1.E0,0.E0));
#563=DIRECTION('',(1.E0,0.E0,0.E0));
#564=AXIS2_PLACEMENT_3D('',#561,#562,#563);
#565=PLANE('',#564);
#566=ORIENTED_EDGE('',*,*,#541,.F.);
#568=ORIENTED_EDGE('',*,*,#567,.T.);
#570=ORIENTED_EDGE('',*,*,#569,.T.);
#572=ORIENTED_EDGE('',*,*,#571,.T.);
#573=EDGE_LOOP('',(#566,#568,#570,#572));
#574=FACE_OUTER_BOUND('',#573,.F.);
#576=CARTESIAN_POINT('',(2.060296769351E0,7.95E0,1.423476058275E0));
#577=DIRECTION('',(0.E0,0.E0,-1.E0));
#578=DIRECTION('',(-1.E0,0.E0,0.E0));
#579=AXIS2_PLACEMENT_3D('',#576,#577,#578);
#580=PLANE('',#579);
#582=ORIENTED_EDGE('',*,*,#581,.F.);
#584=ORIENTED_EDGE('',*,*,#583,.T.);
#586=ORIENTED_EDGE('',*,*,#585,.T.);
#588=ORIENTED_EDGE('',*,*,#587,.F.);
#589=ORIENTED_EDGE('',*,*,#567,.F.);
#590=EDGE_LOOP('',(#582,#584,#586,#588,#589));
#591=FACE_OUTER_BOUND('',#590,.F.);
#593=CARTESIAN_POINT('',(0.E0,7.95E0,0.E0));
#594=DIRECTION('',(0.E0,1.E0,0.E0));
#595=DIRECTION('',(1.E0,0.E0,0.E0));
#596=AXIS2_PLACEMENT_3D('',#593,#594,#595);
#597=PLANE('',#596);
#599=ORIENTED_EDGE('',*,*,#598,.T.);
#601=ORIENTED_EDGE('',*,*,#600,.T.);
#602=ORIENTED_EDGE('',*,*,#581,.T.);
#603=ORIENTED_EDGE('',*,*,#549,.T.);
#604=ORIENTED_EDGE('',*,*,#522,.T.);
#605=ORIENTED_EDGE('',*,*,#543,.T.);
#606=EDGE_LOOP('',(#599,#601,#602,#603,#604,#605));
#607=FACE_OUTER_BOUND('',#606,.F.);
#609=FILL_AREA_STYLE_COLOUR('',#17);
#610=FILL_AREA_STYLE('',(#609));
#611=SURFACE_STYLE_FILL_AREA(#610);
#612=SURFACE_SIDE_STYLE('',(#611));
#613=SURFACE_STYLE_USAGE(.POSITIVE.,#612);
#614=PRESENTATION_STYLE_ASSIGNMENT((#613));
#615=STYLED_ITEM('',(#614),#608);
#616=CARTESIAN_POINT('',(-2.161619891557E0,7.95E0,1.459726762858E0));
#617=DIRECTION('',(0.E0,0.E0,1.E0));
#618=DIRECTION('',(1.E0,0.E0,0.E0));
#619=AXIS2_PLACEMENT_3D('',#616,#617,#618);
#620=PLANE('',#619);
#621=ORIENTED_EDGE('',*,*,#598,.F.);
#622=ORIENTED_EDGE('',*,*,#571,.F.);
#624=ORIENTED_EDGE('',*,*,#623,.T.);
#626=ORIENTED_EDGE('',*,*,#625,.T.);
#628=ORIENTED_EDGE('',*,*,#627,.F.);
#629=EDGE_LOOP('',(#621,#622,#624,#626,#628));
#630=FACE_OUTER_BOUND('',#629,.F.);
#632=CARTESIAN_POINT('',(-2.161619891557E0,7.95E0,1.423476058275E0));
#633=DIRECTION('',(-1.E0,0.E0,0.E0));
#634=DIRECTION('',(0.E0,0.E0,1.E0));
#635=AXIS2_PLACEMENT_3D('',#632,#633,#634);
#636=PLANE('',#635);
#637=ORIENTED_EDGE('',*,*,#569,.F.);
#638=ORIENTED_EDGE('',*,*,#587,.T.);
#640=ORIENTED_EDGE('',*,*,#639,.T.);
#641=ORIENTED_EDGE('',*,*,#623,.F.);
#642=EDGE_LOOP('',(#637,#638,#640,#641));
#643=FACE_OUTER_BOUND('',#642,.F.);
#645=CARTESIAN_POINT('',(0.E0,7.96E0,0.E0));
#646=DIRECTION('',(0.E0,1.E0,0.E0));
#647=DIRECTION('',(1.E0,0.E0,0.E0));
#648=AXIS2_PLACEMENT_3D('',#645,#646,#647);
#649=PLANE('',#648);
#650=ORIENTED_EDGE('',*,*,#625,.F.);
#651=ORIENTED_EDGE('',*,*,#639,.F.);
#652=ORIENTED_EDGE('',*,*,#585,.F.);
#654=ORIENTED_EDGE('',*,*,#653,.F.);
#655=EDGE_LOOP('',(#650,#651,#652,#654));
#656=FACE_OUTER_BOUND('',#655,.F.);
#658=FILL_AREA_STYLE_COLOUR('',#4);
#659=FILL_AREA_STYLE('',(#658));
#660=SURFACE_STYLE_FILL_AREA(#659);
#661=SURFACE_SIDE_STYLE('',(#660));
#662=SURFACE_STYLE_USAGE(.POSITIVE.,#661);
#663=PRESENTATION_STYLE_ASSIGNMENT((#662));
#664=STYLED_ITEM('',(#663),#657);
#665=CARTESIAN_POINT('',(2.060296769351E0,7.95E0,1.459726762858E0));
#666=DIRECTION('',(1.E0,0.E0,0.E0));
#667=DIRECTION('',(0.E0,0.E0,-1.E0));
#668=AXIS2_PLACEMENT_3D('',#665,#666,#667);
#669=PLANE('',#668);
#670=ORIENTED_EDGE('',*,*,#600,.F.);
#671=ORIENTED_EDGE('',*,*,#627,.T.);
#672=ORIENTED_EDGE('',*,*,#653,.T.);
#673=ORIENTED_EDGE('',*,*,#583,.F.);
#674=EDGE_LOOP('',(#670,#671,#672,#673));
#675=FACE_OUTER_BOUND('',#674,.F.);
#677=CARTESIAN_POINT('',(0.E0,0.E0,0.E0));
#678=DIRECTION('',(0.E0,1.E0,0.E0));
#679=DIRECTION('',(1.E0,0.E0,0.E0));
#680=AXIS2_PLACEMENT_3D('',#677,#678,#679);
#681=CYLINDRICAL_SURFACE('',#680,2.725E0);
#682=ORIENTED_EDGE('',*,*,#546,.F.);
#683=ORIENTED_EDGE('',*,*,#480,.F.);
#685=ORIENTED_EDGE('',*,*,#684,.T.);
#687=ORIENTED_EDGE('',*,*,#686,.T.);
#688=ORIENTED_EDGE('',*,*,#476,.T.);
#689=EDGE_LOOP('',(#682,#683,#685,#687,#688));
#690=FACE_OUTER_BOUND('',#689,.F.);
#692=FILL_AREA_STYLE_COLOUR('',#17);
#693=FILL_AREA_STYLE('',(#692));
#694=SURFACE_STYLE_FILL_AREA(#693);
#695=SURFACE_SIDE_STYLE('',(#694));
#696=SURFACE_STYLE_USAGE(.POSITIVE.,#695);
#697=PRESENTATION_STYLE_ASSIGNMENT((#696));
#698=STYLED_ITEM('',(#697),#691);
#699=CARTESIAN_POINT('',(0.E0,0.E0,0.E0));
#700=DIRECTION('',(0.E0,1.E0,0.E0));
#701=DIRECTION('',(1.E0,0.E0,0.E0));
#702=AXIS2_PLACEMENT_3D('',#699,#700,#701);
#703=CYLINDRICAL_SURFACE('',#702,2.725E0);
#705=ORIENTED_EDGE('',*,*,#704,.F.);
#706=ORIENTED_EDGE('',*,*,#502,.T.);
#708=ORIENTED_EDGE('',*,*,#707,.T.);
#710=ORIENTED_EDGE('',*,*,#709,.T.);
#711=ORIENTED_EDGE('',*,*,#498,.F.);
#712=EDGE_LOOP('',(#705,#706,#708,#710,#711));
#713=FACE_OUTER_BOUND('',#712,.F.);
#715=FILL_AREA_STYLE_COLOUR('',#17);
#716=FILL_AREA_STYLE('',(#715));
#717=SURFACE_STYLE_FILL_AREA(#716);
#718=SURFACE_SIDE_STYLE('',(#717));
#719=SURFACE_STYLE_USAGE(.POSITIVE.,#718);
#720=PRESENTATION_STYLE_ASSIGNMENT((#719));
#721=STYLED_ITEM('',(#720),#714);
#722=CARTESIAN_POINT('',(0.E0,1.091311896062E0,0.E0));
#723=DIRECTION('',(0.E0,1.E0,0.E0));
#724=DIRECTION('',(-6.419854515903E-3,0.E0,-9.999793925217E-1));
#725=AXIS2_PLACEMENT_3D('',#722,#723,#724);
#726=TOROIDAL_SURFACE('',#725,2.375E0,3.5E-1);
#728=ORIENTED_EDGE('',*,*,#727,.T.);
#730=ORIENTED_EDGE('',*,*,#729,.T.);
#731=ORIENTED_EDGE('',*,*,#684,.F.);
#732=ORIENTED_EDGE('',*,*,#478,.T.);
#734=ORIENTED_EDGE('',*,*,#733,.F.);
#736=ORIENTED_EDGE('',*,*,#735,.T.);
#737=EDGE_LOOP('',(#728,#730,#731,#732,#734,#736));
#738=FACE_OUTER_BOUND('',#737,.F.);
#740=FILL_AREA_STYLE_COLOUR('',#17);
#741=FILL_AREA_STYLE('',(#740));
#742=SURFACE_STYLE_FILL_AREA(#741);
#743=SURFACE_SIDE_STYLE('',(#742));
#744=SURFACE_STYLE_USAGE(.POSITIVE.,#743);
#745=PRESENTATION_STYLE_ASSIGNMENT((#744));
#746=STYLED_ITEM('',(#745),#739);
#747=CARTESIAN_POINT('',(0.E0,7.E-1,0.E0));
#748=DIRECTION('',(0.E0,1.E0,0.E0));
#749=DIRECTION('',(0.E0,0.E0,-1.E0));
#750=AXIS2_PLACEMENT_3D('',#747,#748,#749);
#751=TOROIDAL_SURFACE('',#750,2.725E0,1.75E-1);
#753=ORIENTED_EDGE('',*,*,#752,.F.);
#755=ORIENTED_EDGE('',*,*,#754,.F.);
#756=ORIENTED_EDGE('',*,*,#727,.F.);
#758=ORIENTED_EDGE('',*,*,#757,.F.);
#759=EDGE_LOOP('',(#753,#755,#756,#758));
#760=FACE_OUTER_BOUND('',#759,.F.);
#762=FILL_AREA_STYLE_COLOUR('',#17);
#763=FILL_AREA_STYLE('',(#762));
#764=SURFACE_STYLE_FILL_AREA(#763);
#765=SURFACE_SIDE_STYLE('',(#764));
#766=SURFACE_STYLE_USAGE(.POSITIVE.,#765);
#767=PRESENTATION_STYLE_ASSIGNMENT((#766));
#768=STYLED_ITEM('',(#767),#761);
#769=CARTESIAN_POINT('',(0.E0,3.086881039375E-1,0.E0));
#770=DIRECTION('',(0.E0,1.E0,0.E0));
#771=DIRECTION('',(9.999804813488E-1,0.E0,6.247953373903E-3));
#772=AXIS2_PLACEMENT_3D('',#769,#770,#771);
#773=TOROIDAL_SURFACE('',#772,2.375E0,3.5E-1);
#774=ORIENTED_EDGE('',*,*,#752,.T.);
#776=ORIENTED_EDGE('',*,*,#775,.T.);
#778=ORIENTED_EDGE('',*,*,#777,.T.);
#779=ORIENTED_EDGE('',*,*,#500,.T.);
#780=ORIENTED_EDGE('',*,*,#709,.F.);
#782=ORIENTED_EDGE('',*,*,#781,.F.);
#783=EDGE_LOOP('',(#774,#776,#778,#779,#780,#782));
#784=FACE_OUTER_BOUND('',#783,.F.);
#786=FILL_AREA_STYLE_COLOUR('',#17);
#787=FILL_AREA_STYLE('',(#786));
#788=SURFACE_STYLE_FILL_AREA(#787);
#789=SURFACE_SIDE_STYLE('',(#788));
#790=SURFACE_STYLE_USAGE(.POSITIVE.,#789);
#791=PRESENTATION_STYLE_ASSIGNMENT((#790));
#792=STYLED_ITEM('',(#791),#785);
#793=CARTESIAN_POINT('',(0.E0,7.E-1,0.E0));
#794=DIRECTION('',(0.E0,1.E0,0.E0));
#795=DIRECTION('',(0.E0,0.E0,-1.E0));
#796=AXIS2_PLACEMENT_3D('',#793,#794,#795);
#797=TOROIDAL_SURFACE('',#796,2.725E0,1.75E-1);
#798=ORIENTED_EDGE('',*,*,#775,.F.);
#799=ORIENTED_EDGE('',*,*,#757,.T.);
#800=ORIENTED_EDGE('',*,*,#735,.F.);
#802=ORIENTED_EDGE('',*,*,#801,.F.);
#803=ORIENTED_EDGE('',*,*,#754,.T.);
#805=ORIENTED_EDGE('',*,*,#804,.F.);
#806=EDGE_LOOP('',(#798,#799,#800,#802,#803,#805));
#807=FACE_OUTER_BOUND('',#806,.F.);
#809=FILL_AREA_STYLE_COLOUR('',#17);
#810=FILL_AREA_STYLE('',(#809));
#811=SURFACE_STYLE_FILL_AREA(#810);
#812=SURFACE_SIDE_STYLE('',(#811));
#813=SURFACE_STYLE_USAGE(.POSITIVE.,#812);
#814=PRESENTATION_STYLE_ASSIGNMENT((#813));
#815=STYLED_ITEM('',(#814),#808);
#816=CARTESIAN_POINT('',(0.E0,1.091311896062E0,0.E0));
#817=DIRECTION('',(0.E0,1.E0,0.E0));
#818=DIRECTION('',(6.419854515904E-3,0.E0,9.999793925217E-1));
#819=AXIS2_PLACEMENT_3D('',#816,#817,#818);
#820=TOROIDAL_SURFACE('',#819,2.375E0,3.5E-1);
#821=ORIENTED_EDGE('',*,*,#801,.T.);
#822=ORIENTED_EDGE('',*,*,#733,.T.);
#823=ORIENTED_EDGE('',*,*,#686,.F.);
#824=ORIENTED_EDGE('',*,*,#729,.F.);
#825=EDGE_LOOP('',(#821,#822,#823,#824));
#826=FACE_OUTER_BOUND('',#825,.F.);
#828=FILL_AREA_STYLE_COLOUR('',#17);
#829=FILL_AREA_STYLE('',(#828));
#830=SURFACE_STYLE_FILL_AREA(#829);
#831=SURFACE_SIDE_STYLE('',(#830));
#832=SURFACE_STYLE_USAGE(.POSITIVE.,#831);
#833=PRESENTATION_STYLE_ASSIGNMENT((#832));
#834=STYLED_ITEM('',(#833),#827);
#835=CARTESIAN_POINT('',(0.E0,3.086881039375E-1,0.E0));
#836=DIRECTION('',(0.E0,1.E0,0.E0));
#837=DIRECTION('',(-9.999804813488E-1,0.E0,-6.247953373903E-3));
#838=AXIS2_PLACEMENT_3D('',#835,#836,#837);
#839=TOROIDAL_SURFACE('',#838,2.375E0,3.5E-1);
#840=ORIENTED_EDGE('',*,*,#804,.T.);
#841=ORIENTED_EDGE('',*,*,#781,.T.);
#842=ORIENTED_EDGE('',*,*,#707,.F.);
#843=ORIENTED_EDGE('',*,*,#777,.F.);
#844=EDGE_LOOP('',(#840,#841,#842,#843));
#845=FACE_OUTER_BOUND('',#844,.F.);
#847=FILL_AREA_STYLE_COLOUR('',#17);
#848=FILL_AREA_STYLE('',(#847));
#849=SURFACE_STYLE_FILL_AREA(#848);
#850=SURFACE_SIDE_STYLE('',(#849));
#851=SURFACE_STYLE_USAGE(.POSITIVE.,#850);
#852=PRESENTATION_STYLE_ASSIGNMENT((#851));
#853=STYLED_ITEM('',(#852),#846);
#854=CARTESIAN_POINT('',(0.E0,2.E-1,0.E0));
#855=DIRECTION('',(0.E0,1.E0,0.E0));
#856=DIRECTION('',(-9.999785532450E-1,0.E0,-6.549278584413E-3));
#857=AXIS2_PLACEMENT_3D('',#854,#855,#856);
#858=TOROIDAL_SURFACE('',#857,2.525E0,2.E-1);
#859=ORIENTED_EDGE('',*,*,#704,.T.);
#860=ORIENTED_EDGE('',*,*,#457,.T.);
#861=ORIENTED_EDGE('',*,*,#429,.F.);
#862=ORIENTED_EDGE('',*,*,#454,.F.);
#863=EDGE_LOOP('',(#859,#860,#861,#862));
#864=FACE_OUTER_BOUND('',#863,.F.);
#866=FILL_AREA_STYLE_COLOUR('',#17);
#867=FILL_AREA_STYLE('',(#866));
#868=SURFACE_STYLE_FILL_AREA(#867);
#869=SURFACE_SIDE_STYLE('',(#868));
#870=SURFACE_STYLE_USAGE(.POSITIVE.,#869);
#871=PRESENTATION_STYLE_ASSIGNMENT((#870));
#872=STYLED_ITEM('',(#871),#865);
#873=CARTESIAN_POINT('',(0.E0,0.E0,0.E0));
#874=DIRECTION('',(0.E0,-1.E0,0.E0));
#875=DIRECTION('',(0.E0,0.E0,1.E0));
#876=AXIS2_PLACEMENT_3D('',#873,#874,#875);
#877=CYLINDRICAL_SURFACE('',#876,2.05E0);
#878=ORIENTED_EDGE('',*,*,#433,.F.);
#880=ORIENTED_EDGE('',*,*,#879,.T.);
#882=ORIENTED_EDGE('',*,*,#881,.T.);
#884=ORIENTED_EDGE('',*,*,#883,.F.);
#885=EDGE_LOOP('',(#878,#880,#882,#884));
#886=FACE_OUTER_BOUND('',#885,.F.);
#888=FILL_AREA_STYLE_COLOUR('',#17);
#889=FILL_AREA_STYLE('',(#888));
#890=SURFACE_STYLE_FILL_AREA(#889);
#891=SURFACE_SIDE_STYLE('',(#890));
#892=SURFACE_STYLE_USAGE(.POSITIVE.,#891);
#893=PRESENTATION_STYLE_ASSIGNMENT((#892));
#894=STYLED_ITEM('',(#893),#887);
#895=CARTESIAN_POINT('',(0.E0,0.E0,0.E0));
#896=DIRECTION('',(0.E0,-1.E0,0.E0));
#897=DIRECTION('',(0.E0,0.E0,1.E0));
#898=AXIS2_PLACEMENT_3D('',#895,#896,#897);
#899=CYLINDRICAL_SURFACE('',#898,2.05E0);
#900=ORIENTED_EDGE('',*,*,#435,.F.);
#901=ORIENTED_EDGE('',*,*,#883,.T.);
#903=ORIENTED_EDGE('',*,*,#902,.T.);
#904=ORIENTED_EDGE('',*,*,#879,.F.);
#905=EDGE_LOOP('',(#900,#901,#903,#904));
#906=FACE_OUTER_BOUND('',#905,.F.);
#908=FILL_AREA_STYLE_COLOUR('',#17);
#909=FILL_AREA_STYLE('',(#908));
#910=SURFACE_STYLE_FILL_AREA(#909);
#911=SURFACE_SIDE_STYLE('',(#910));
#912=SURFACE_STYLE_USAGE(.POSITIVE.,#911);
#913=PRESENTATION_STYLE_ASSIGNMENT((#912));
#914=STYLED_ITEM('',(#913),#907);
#915=CARTESIAN_POINT('',(0.E0,1.E-1,0.E0));
#916=DIRECTION('',(0.E0,-1.E0,0.E0));
#917=DIRECTION('',(0.E0,0.E0,1.E0));
#918=AXIS2_PLACEMENT_3D('',#915,#916,#917);
#919=PLANE('',#918);
#920=ORIENTED_EDGE('',*,*,#881,.F.);
#921=ORIENTED_EDGE('',*,*,#902,.F.);
#922=EDGE_LOOP('',(#920,#921));
#923=FACE_OUTER_BOUND('',#922,.F.);
#925=ORIENTED_EDGE('',*,*,#924,.T.);
#927=ORIENTED_EDGE('',*,*,#926,.T.);
#928=EDGE_LOOP('',(#925,#927));
#929=FACE_BOUND('',#928,.F.);
#931=ORIENTED_EDGE('',*,*,#930,.T.);
#933=ORIENTED_EDGE('',*,*,#932,.T.);
#934=EDGE_LOOP('',(#931,#933));
#935=FACE_BOUND('',#934,.F.);
#937=FILL_AREA_STYLE_COLOUR('',#4);
#938=FILL_AREA_STYLE('',(#937));
#939=SURFACE_STYLE_FILL_AREA(#938);
#940=SURFACE_SIDE_STYLE('',(#939));
#941=SURFACE_STYLE_USAGE(.POSITIVE.,#940);
#942=PRESENTATION_STYLE_ASSIGNMENT((#941));
#943=STYLED_ITEM('',(#942),#936);
#944=CARTESIAN_POINT('',(0.E0,1.E-1,1.3E0));
#945=DIRECTION('',(0.E0,-1.E0,0.E0));
#946=DIRECTION('',(0.E0,0.E0,-1.E0));
#947=AXIS2_PLACEMENT_3D('',#944,#945,#946);
#948=CYLINDRICAL_SURFACE('',#947,2.5E-1);
#949=ORIENTED_EDGE('',*,*,#924,.F.);
#951=ORIENTED_EDGE('',*,*,#950,.T.);
#953=ORIENTED_EDGE('',*,*,#952,.T.);
#955=ORIENTED_EDGE('',*,*,#954,.F.);
#956=EDGE_LOOP('',(#949,#951,#953,#955));
#957=FACE_OUTER_BOUND('',#956,.F.);
#959=FILL_AREA_STYLE_COLOUR('',#11);
#960=FILL_AREA_STYLE('',(#959));
#961=SURFACE_STYLE_FILL_AREA(#960);
#962=SURFACE_SIDE_STYLE('',(#961));
#963=SURFACE_STYLE_USAGE(.POSITIVE.,#962);
#964=PRESENTATION_STYLE_ASSIGNMENT((#963));
#965=STYLED_ITEM('',(#964),#958);
#966=CARTESIAN_POINT('',(0.E0,1.E-1,1.3E0));
#967=DIRECTION('',(0.E0,-1.E0,0.E0));
#968=DIRECTION('',(0.E0,0.E0,-1.E0));
#969=AXIS2_PLACEMENT_3D('',#966,#967,#968);
#970=CYLINDRICAL_SURFACE('',#969,2.5E-1);
#971=ORIENTED_EDGE('',*,*,#926,.F.);
#972=ORIENTED_EDGE('',*,*,#954,.T.);
#974=ORIENTED_EDGE('',*,*,#973,.T.);
#975=ORIENTED_EDGE('',*,*,#950,.F.);
#976=EDGE_LOOP('',(#971,#972,#974,#975));
#977=FACE_OUTER_BOUND('',#976,.F.);
#979=FILL_AREA_STYLE_COLOUR('',#11);
#980=FILL_AREA_STYLE('',(#979));
#981=SURFACE_STYLE_FILL_AREA(#980);
#982=SURFACE_SIDE_STYLE('',(#981));
#983=SURFACE_STYLE_USAGE(.POSITIVE.,#982);
#984=PRESENTATION_STYLE_ASSIGNMENT((#983));
#985=STYLED_ITEM('',(#984),#978);
#986=CARTESIAN_POINT('',(0.E0,-1.99E1,0.E0));
#987=DIRECTION('',(0.E0,-1.E0,0.E0));
#988=DIRECTION('',(0.E0,0.E0,-1.E0));
#989=AXIS2_PLACEMENT_3D('',#986,#987,#988);
#990=PLANE('',#989);
#991=ORIENTED_EDGE('',*,*,#952,.F.);
#992=ORIENTED_EDGE('',*,*,#973,.F.);
#993=EDGE_LOOP('',(#991,#992));
#994=FACE_OUTER_BOUND('',#993,.F.);
#996=FILL_AREA_STYLE_COLOUR('',#11);
#997=FILL_AREA_STYLE('',(#996));
#998=SURFACE_STYLE_FILL_AREA(#997);
#999=SURFACE_SIDE_STYLE('',(#998));
#1000=SURFACE_STYLE_USAGE(.POSITIVE.,#999);
#1001=PRESENTATION_STYLE_ASSIGNMENT((#1000));
#1002=STYLED_ITEM('',(#1001),#995);
#1003=CARTESIAN_POINT('',(0.E0,1.E-1,-1.3E0));
#1004=DIRECTION('',(0.E0,-1.E0,0.E0));
#1005=DIRECTION('',(-1.E0,0.E0,0.E0));
#1006=AXIS2_PLACEMENT_3D('',#1003,#1004,#1005);
#1007=CYLINDRICAL_SURFACE('',#1006,2.5E-1);
#1008=ORIENTED_EDGE('',*,*,#930,.F.);
#1010=ORIENTED_EDGE('',*,*,#1009,.T.);
#1012=ORIENTED_EDGE('',*,*,#1011,.T.);
#1014=ORIENTED_EDGE('',*,*,#1013,.F.);
#1015=EDGE_LOOP('',(#1008,#1010,#1012,#1014));
#1016=FACE_OUTER_BOUND('',#1015,.F.);
#1018=FILL_AREA_STYLE_COLOUR('',#11);
#1019=FILL_AREA_STYLE('',(#1018));
#1020=SURFACE_STYLE_FILL_AREA(#1019);
#1021=SURFACE_SIDE_STYLE('',(#1020));
#1022=SURFACE_STYLE_USAGE(.POSITIVE.,#1021);
#1023=PRESENTATION_STYLE_ASSIGNMENT((#1022));
#1024=STYLED_ITEM('',(#1023),#1017);
#1025=CARTESIAN_POINT('',(0.E0,1.E-1,-1.3E0));
#1026=DIRECTION('',(0.E0,-1.E0,0.E0));
#1027=DIRECTION('',(-1.E0,0.E0,0.E0));
#1028=AXIS2_PLACEMENT_3D('',#1025,#1026,#1027);
#1029=CYLINDRICAL_SURFACE('',#1028,2.5E-1);
#1030=ORIENTED_EDGE('',*,*,#932,.F.);
#1031=ORIENTED_EDGE('',*,*,#1013,.T.);
#1033=ORIENTED_EDGE('',*,*,#1032,.T.);
#1034=ORIENTED_EDGE('',*,*,#1009,.F.);
#1035=EDGE_LOOP('',(#1030,#1031,#1033,#1034));
#1036=FACE_OUTER_BOUND('',#1035,.F.);
#1038=FILL_AREA_STYLE_COLOUR('',#11);
#1039=FILL_AREA_STYLE('',(#1038));
#1040=SURFACE_STYLE_FILL_AREA(#1039);
#1041=SURFACE_SIDE_STYLE('',(#1040));
#1042=SURFACE_STYLE_USAGE(.POSITIVE.,#1041);
#1043=PRESENTATION_STYLE_ASSIGNMENT((#1042));
#1044=STYLED_ITEM('',(#1043),#1037);
#1045=CARTESIAN_POINT('',(0.E0,-2.49E1,0.E0));
#1046=DIRECTION('',(0.E0,-1.E0,0.E0));
#1047=DIRECTION('',(-1.E0,0.E0,0.E0));
#1048=AXIS2_PLACEMENT_3D('',#1045,#1046,#1047);
#1049=PLANE('',#1048);
#1050=ORIENTED_EDGE('',*,*,#1011,.F.);
#1051=ORIENTED_EDGE('',*,*,#1032,.F.);
#1052=EDGE_LOOP('',(#1050,#1051));
#1053=FACE_OUTER_BOUND('',#1052,.F.);
#1055=FILL_AREA_STYLE_COLOUR('',#11);
#1056=FILL_AREA_STYLE('',(#1055));
#1057=SURFACE_STYLE_FILL_AREA(#1056);
#1058=SURFACE_SIDE_STYLE('',(#1057));
#1059=SURFACE_STYLE_USAGE(.POSITIVE.,#1058);
#1060=PRESENTATION_STYLE_ASSIGNMENT((#1059));
#1061=STYLED_ITEM('',(#1060),#1054);
#1062=CLOSED_SHELL('',(#439,#461,#484,#506,#528,#553,#575,#592,#608,#631,#644,
#657,#676,#691,#714,#739,#761,#785,#808,#827,#846,#865,#887,#907,#936,#958,#978,
#995,#1017,#1037,#1054));
#1063=MANIFOLD_SOLID_BREP('',#1062);
#1066=PLANE_ANGLE_MEASURE_WITH_UNIT(PLANE_ANGLE_MEASURE(1.745329251994E-2),
#1065);
#1067=(CONVERSION_BASED_UNIT('DEGREE',#1066)NAMED_UNIT(*)PLANE_ANGLE_UNIT());
#1069=UNCERTAINTY_MEASURE_WITH_UNIT(LENGTH_MEASURE(3.375045876806E-3),#1064,
'distance_accuracy_value',
'Maximum model space distance between geometric entities at asserted connectivities');
#1072=MECHANICAL_DESIGN_GEOMETRIC_PRESENTATION_REPRESENTATION('',(#446,#468,
#491,#513,#535,#560,#615,#664,#698,#721,#746,#768,#792,#815,#834,#853,#872,#894,
#914,#943,#965,#985,#1002,#1024,#1044,#1061),#1070);
#1073=APPLICATION_CONTEXT('automotive_design');
#1074=APPLICATION_PROTOCOL_DEFINITION('international standard',
'automotive_design',2001,#1073);
#1075=PRODUCT_DEFINITION_CONTEXT('part definition',#1073,'design');
#1076=PRODUCT_CONTEXT('',#1073,'mechanical');
#1077=PRODUCT('0545079500','0545079500','NOT SPECIFIED',(#1076));
#1078=PRODUCT_DEFINITION_FORMATION('38','LAST_VERSION',#1077);
#1086=DERIVED_UNIT_ELEMENT(#1085,2.E0);
#1087=DERIVED_UNIT((#1086));
#1088=MEASURE_REPRESENTATION_ITEM('surface area measure',AREA_MEASURE(
2.535216887669E2),#1087);
#1093=DERIVED_UNIT_ELEMENT(#1092,3.E0);
#1094=DERIVED_UNIT((#1093));
#1095=MEASURE_REPRESENTATION_ITEM('volume measure',VOLUME_MEASURE(
1.917531718422E2),#1094);
#1099=CARTESIAN_POINT('centre point',(-4.377587130457E-7,3.317037748656E0,
-6.644325149345E-3));
#1104=DERIVED_UNIT_ELEMENT(#1103,2.E0);
#1105=DERIVED_UNIT((#1104));
#1106=MEASURE_REPRESENTATION_ITEM('surface area measure',AREA_MEASURE(
2.535216887669E2),#1105);
#1111=DERIVED_UNIT_ELEMENT(#1110,3.E0);
#1112=DERIVED_UNIT((#1111));
#1113=MEASURE_REPRESENTATION_ITEM('volume measure',VOLUME_MEASURE(
1.917531718422E2),#1112);
#1117=CARTESIAN_POINT('centre point',(-4.377587130457E-7,3.317037748656E0,
-6.644325149345E-3));
#1122=PRODUCT_RELATED_PRODUCT_CATEGORY('part','',(#1077));
#1=DRAUGHTING_PRE_DEFINED_COLOUR('green');
#2=COLOUR_RGB('',1.1E-2,1.2E-2,1.E0);
#3=COLOUR_RGB('',1.6E-1,1.6E-1,1.8E-1);
#4=COLOUR_RGB('',2.4E-1,2.5E-1,2.6E-1);
#5=COLOUR_RGB('',2.4E-1,2.5E-1,2.6E-1);
#6=COLOUR_RGB('',4.1E-1,2.61589E-1,1.12848E-1);
#7=COLOUR_RGB('',5.04854E-1,1.5455E-2,1.5455E-2);
#8=COLOUR_RGB('',6.35294E-1,6.86275E-1,7.4902E-1);
#9=COLOUR_RGB('',6.40777E-1,6.40777E-1,6.40777E-1);
#10=COLOUR_RGB('',6.69062E-1,6.69903E-1,6.55217E-1);
#11=COLOUR_RGB('',8.2E-1,8.1E-1,8.1E-1);
#12=COLOUR_RGB('',9.21569E-1,7.05882E-1,4.70588E-1);
#13=DRAUGHTING_PRE_DEFINED_COLOUR('red');
#14=DRAUGHTING_PRE_DEFINED_COLOUR('yellow');
#15=COLOUR_RGB('',1.E0,1.E0,5.3E-1);
#16=COLOUR_RGB('',1.E0,1.E0,9.49E-1);
#17=COLOUR_RGB('',1.E0,1.E0,9.49E-1);
#18=COLOUR_RGB('',1.E0,1.E0,9.49E-1);
#19=COLOUR_RGB('',1.E0,1.E0,9.49E-1);
#20=COLOUR_RGB('',1.E0,1.E0,9.49E-1);
#21=DRAUGHTING_PRE_DEFINED_COLOUR('white');
#26=CIRCLE('',#25,2.525E0);
#31=CIRCLE('',#30,2.525E0);
#36=CIRCLE('',#35,2.05E0);
#41=CIRCLE('',#40,2.05E0);
#46=CIRCLE('',#45,2.E-1);
#51=CIRCLE('',#50,2.725E0);
#60=CIRCLE('',#59,2.725E0);
#69=CIRCLE('',#68,1.5E-1);
#74=CIRCLE('',#73,2.575E0);
#79=CIRCLE('',#78,1.5E-1);
#112=CIRCLE('',#111,2.575E0);
#117=CIRCLE('',#116,2.575E0);
#122=CIRCLE('',#121,2.575E0);
#155=CIRCLE('',#154,2.725E0);
#160=CIRCLE('',#159,2.725E0);
#165=CIRCLE('',#164,2.725E0);
#174=CIRCLE('',#173,2.725E0);
#183=CIRCLE('',#182,2.725E0);
#188=CIRCLE('',#187,2.725E0);
#193=CIRCLE('',#192,2.608333333333E0);
#198=CIRCLE('',#197,2.725E0);
#203=CIRCLE('',#202,3.5E-1);
#208=CIRCLE('',#207,2.608333333333E0);
#213=CIRCLE('',#212,2.725E0);
#218=CIRCLE('',#217,3.5E-1);
#223=CIRCLE('',#222,2.608333333333E0);
#228=CIRCLE('',#227,1.75E-1);
#233=CIRCLE('',#232,2.608333333333E0);
#238=CIRCLE('',#237,2.608333333333E0);
#243=CIRCLE('',#242,1.75E-1);
#248=CIRCLE('',#247,2.608333333333E0);
#253=CIRCLE('',#252,3.5E-1);
#258=CIRCLE('',#257,3.5E-1);
#263=CIRCLE('',#262,2.E-1);
#276=CIRCLE('',#275,2.05E0);
#281=CIRCLE('',#280,2.05E0);
#286=CIRCLE('',#285,2.5E-1);
#291=CIRCLE('',#290,2.5E-1);
#296=CIRCLE('',#295,2.5E-1);
#301=CIRCLE('',#300,2.5E-1);
#314=CIRCLE('',#313,2.5E-1);
#319=CIRCLE('',#318,2.5E-1);
#332=CIRCLE('',#331,2.5E-1);
#337=CIRCLE('',#336,2.5E-1);
#427=EDGE_CURVE('',#400,#401,#26,.T.);
#429=EDGE_CURVE('',#401,#400,#31,.T.);
#433=EDGE_CURVE('',#376,#377,#36,.T.);
#435=EDGE_CURVE('',#377,#376,#41,.T.);
#439=ADVANCED_FACE('',(#432,#438),#426,.F.);
#452=EDGE_CURVE('',#396,#397,#60,.T.);
#454=EDGE_CURVE('',#397,#401,#263,.T.);
#457=EDGE_CURVE('',#396,#400,#46,.T.);
#461=ADVANCED_FACE('',(#460),#451,.T.);
#474=EDGE_CURVE('',#340,#341,#51,.T.);
#476=EDGE_CURVE('',#367,#340,#169,.T.);
#478=EDGE_CURVE('',#360,#367,#198,.T.);
#480=EDGE_CURVE('',#360,#341,#55,.T.);
#484=ADVANCED_FACE('',(#483),#473,.T.);
#498=EDGE_CURVE('',#396,#357,#64,.T.);
#500=EDGE_CURVE('',#354,#357,#213,.T.);
#502=EDGE_CURVE('',#397,#354,#178,.T.);
#506=ADVANCED_FACE('',(#505),#496,.T.);
#520=EDGE_CURVE('',#341,#345,#79,.T.);
#522=EDGE_CURVE('',#344,#345,#117,.T.);
#524=EDGE_CURVE('',#340,#344,#69,.T.);
#528=ADVANCED_FACE('',(#527),#518,.T.);
#541=EDGE_CURVE('',#421,#416,#74,.T.);
#543=EDGE_CURVE('',#345,#416,#122,.T.);
#546=EDGE_CURVE('',#341,#340,#155,.T.);
#549=EDGE_CURVE('',#421,#344,#112,.T.);
#553=ADVANCED_FACE('',(#552),#540,.T.);
#567=EDGE_CURVE('',#421,#404,#83,.T.);
#569=EDGE_CURVE('',#404,#405,#87,.T.);
#571=EDGE_CURVE('',#405,#416,#91,.T.);
#575=ADVANCED_FACE('',(#574),#565,.F.);
#581=EDGE_CURVE('',#419,#421,#107,.T.);
#583=EDGE_CURVE('',#419,#411,#95,.T.);
#585=EDGE_CURVE('',#411,#413,#142,.T.);
#587=EDGE_CURVE('',#404,#413,#130,.T.);
#592=ADVANCED_FACE('',(#591),#580,.T.);
#598=EDGE_CURVE('',#416,#417,#99,.T.);
#600=EDGE_CURVE('',#417,#419,#103,.T.);
#608=ADVANCED_FACE('',(#607),#597,.T.);
#623=EDGE_CURVE('',#405,#408,#126,.T.);
#625=EDGE_CURVE('',#408,#409,#134,.T.);
#627=EDGE_CURVE('',#417,#409,#150,.T.);
#631=ADVANCED_FACE('',(#630),#620,.T.);
#639=EDGE_CURVE('',#413,#408,#138,.T.);
#644=ADVANCED_FACE('',(#643),#636,.T.);
#653=EDGE_CURVE('',#409,#411,#146,.T.);
#657=ADVANCED_FACE('',(#656),#649,.T.);
#676=ADVANCED_FACE('',(#675),#669,.T.);
#684=EDGE_CURVE('',#360,#361,#160,.T.);
#686=EDGE_CURVE('',#361,#367,#165,.T.);
#691=ADVANCED_FACE('',(#690),#681,.T.);
#704=EDGE_CURVE('',#397,#396,#174,.T.);
#707=EDGE_CURVE('',#354,#355,#183,.T.);
#709=EDGE_CURVE('',#355,#357,#188,.T.);
#714=ADVANCED_FACE('',(#713),#703,.T.);
#727=EDGE_CURVE('',#369,#364,#193,.T.);
#729=EDGE_CURVE('',#364,#361,#253,.T.);
#733=EDGE_CURVE('',#365,#367,#203,.T.);
#735=EDGE_CURVE('',#365,#369,#233,.T.);
#739=ADVANCED_FACE('',(#738),#726,.T.);
#752=EDGE_CURVE('',#351,#348,#208,.T.);
#754=EDGE_CURVE('',#364,#351,#243,.T.);
#757=EDGE_CURVE('',#348,#369,#228,.T.);
#761=ADVANCED_FACE('',(#760),#751,.F.);
#775=EDGE_CURVE('',#348,#349,#223,.T.);
#777=EDGE_CURVE('',#349,#354,#258,.T.);
#781=EDGE_CURVE('',#351,#355,#218,.T.);
#785=ADVANCED_FACE('',(#784),#773,.T.);
#801=EDGE_CURVE('',#364,#365,#238,.T.);
#804=EDGE_CURVE('',#349,#351,#248,.T.);
#808=ADVANCED_FACE('',(#807),#797,.F.);
#827=ADVANCED_FACE('',(#826),#820,.T.);
#846=ADVANCED_FACE('',(#845),#839,.T.);
#865=ADVANCED_FACE('',(#864),#858,.T.);
#879=EDGE_CURVE('',#376,#372,#267,.T.);
#881=EDGE_CURVE('',#372,#373,#276,.T.);
#883=EDGE_CURVE('',#377,#373,#271,.T.);
#887=ADVANCED_FACE('',(#886),#877,.F.);
#902=EDGE_CURVE('',#373,#372,#281,.T.);
#907=ADVANCED_FACE('',(#906),#899,.F.);
#924=EDGE_CURVE('',#384,#385,#286,.T.);
#926=EDGE_CURVE('',#385,#384,#291,.T.);
#930=EDGE_CURVE('',#392,#393,#296,.T.);
#932=EDGE_CURVE('',#393,#392,#301,.T.);
#936=ADVANCED_FACE('',(#923,#929,#935),#919,.T.);
#950=EDGE_CURVE('',#384,#380,#305,.T.);
#952=EDGE_CURVE('',#380,#381,#314,.T.);
#954=EDGE_CURVE('',#385,#381,#309,.T.);
#958=ADVANCED_FACE('',(#957),#948,.T.);
#973=EDGE_CURVE('',#381,#380,#319,.T.);
#978=ADVANCED_FACE('',(#977),#970,.T.);
#995=ADVANCED_FACE('',(#994),#990,.T.);
#1009=EDGE_CURVE('',#392,#388,#323,.T.);
#1011=EDGE_CURVE('',#388,#389,#332,.T.);
#1013=EDGE_CURVE('',#393,#389,#327,.T.);
#1017=ADVANCED_FACE('',(#1016),#1007,.T.);
#1032=EDGE_CURVE('',#389,#388,#337,.T.);
#1037=ADVANCED_FACE('',(#1036),#1029,.T.);
#1054=ADVANCED_FACE('',(#1053),#1049,.T.);
#1064=(LENGTH_UNIT()NAMED_UNIT(*)SI_UNIT(.MILLI.,.METRE.));
#1065=(NAMED_UNIT(*)PLANE_ANGLE_UNIT()SI_UNIT($,.RADIAN.));
#1068=(NAMED_UNIT(*)SI_UNIT($,.STERADIAN.)SOLID_ANGLE_UNIT());
#1070=(GEOMETRIC_REPRESENTATION_CONTEXT(3)GLOBAL_UNCERTAINTY_ASSIGNED_CONTEXT((
#1069))GLOBAL_UNIT_ASSIGNED_CONTEXT((#1064,#1067,#1068))REPRESENTATION_CONTEXT(
'ID1','3'));
#1071=ADVANCED_BREP_SHAPE_REPRESENTATION('',(#1063),#1070);
#1079=PRODUCT_DEFINITION('part definition','',#1078,#1075);
#1080=PRODUCT_DEFINITION_SHAPE('','SHAPE FOR 0545079500.',#1079);
#1081=SHAPE_ASPECT('','solid data associated with 0545079500',#1080,.F.);
#1082=PROPERTY_DEFINITION('',
'shape for solid data with which properties are associated',#1081);
#1083=SHAPE_REPRESENTATION('',(#1063),#1070);
#1084=SHAPE_DEFINITION_REPRESENTATION(#1082,#1083);
#1085=(LENGTH_UNIT()NAMED_UNIT(*)SI_UNIT(.MILLI.,.METRE.));
#1089=PROPERTY_DEFINITION('geometric validation property','area of 0545079500',
#1081);
#1090=REPRESENTATION('surface area',(#1088),#1070);
#1091=PROPERTY_DEFINITION_REPRESENTATION(#1089,#1090);
#1092=(LENGTH_UNIT()NAMED_UNIT(*)SI_UNIT(.MILLI.,.METRE.));
#1096=PROPERTY_DEFINITION('geometric validation property',
'volume of 0545079500',#1081);
#1097=REPRESENTATION('volume',(#1095),#1070);
#1098=PROPERTY_DEFINITION_REPRESENTATION(#1096,#1097);
#1100=PROPERTY_DEFINITION('geometric validation property',
'centroid of 0545079500',#1081);
#1101=REPRESENTATION('centroid',(#1099),#1070);
#1102=PROPERTY_DEFINITION_REPRESENTATION(#1100,#1101);
#1103=(LENGTH_UNIT()NAMED_UNIT(*)SI_UNIT(.MILLI.,.METRE.));
#1107=PROPERTY_DEFINITION('geometric validation property','area of 0545079500',
#1080);
#1108=REPRESENTATION('surface area',(#1106),#1070);
#1109=PROPERTY_DEFINITION_REPRESENTATION(#1107,#1108);
#1110=(LENGTH_UNIT()NAMED_UNIT(*)SI_UNIT(.MILLI.,.METRE.));
#1114=PROPERTY_DEFINITION('geometric validation property',
'volume of 0545079500',#1080);
#1115=REPRESENTATION('volume',(#1113),#1070);
#1116=PROPERTY_DEFINITION_REPRESENTATION(#1114,#1115);
#1118=PROPERTY_DEFINITION('geometric validation property',
'centroid of 0545079500',#1080);
#1119=REPRESENTATION('centroid',(#1117),#1070);
#1120=PROPERTY_DEFINITION_REPRESENTATION(#1118,#1119);
#1121=SHAPE_DEFINITION_REPRESENTATION(#1080,#1071);
ENDSEC;
END-ISO-10303-21;
