ISO-10303-21;
HEADER;
FILE_DESCRIPTION((''),'2;1');
FILE_NAME('0004113500','2025-06-07T13:54:44',('Administrator'),(''),
'CREO PARAMETRIC BY PTC INC, 2018100','CREO PARAMETRIC BY PTC INC, 2018100','');
FILE_SCHEMA(('AUTOMOTIVE_DESIGN { 1 0 10303 214 1 1 1 1 }'));
ENDSEC;
DATA;
#21=CARTESIAN_POINT('',(0.E0,0.E0,0.E0));
#22=DIRECTION('',(0.E0,1.E0,0.E0));
#23=DIRECTION('',(1.E0,0.E0,0.E0));
#24=AXIS2_PLACEMENT_3D('',#21,#22,#23);
#26=CARTESIAN_POINT('',(0.E0,0.E0,0.E0));
#27=DIRECTION('',(0.E0,1.E0,0.E0));
#28=DIRECTION('',(-1.E0,0.E0,0.E0));
#29=AXIS2_PLACEMENT_3D('',#26,#27,#28);
#31=CARTESIAN_POINT('',(0.E0,0.E0,0.E0));
#32=DIRECTION('',(0.E0,-1.E0,0.E0));
#33=DIRECTION('',(0.E0,0.E0,1.E0));
#34=AXIS2_PLACEMENT_3D('',#31,#32,#33);
#36=CARTESIAN_POINT('',(0.E0,0.E0,0.E0));
#37=DIRECTION('',(0.E0,-1.E0,0.E0));
#38=DIRECTION('',(0.E0,0.E0,-1.E0));
#39=AXIS2_PLACEMENT_3D('',#36,#37,#38);
#41=CARTESIAN_POINT('',(1.8E0,2.E-1,1.314420794429E-12));
#42=DIRECTION('',(7.302353166594E-13,0.E0,-1.E0));
#43=DIRECTION('',(1.E0,0.E0,7.302353166594E-13));
#44=AXIS2_PLACEMENT_3D('',#41,#42,#43);
#46=CARTESIAN_POINT('',(0.E0,1.12E1,0.E0));
#47=DIRECTION('',(0.E0,-1.E0,0.E0));
#48=DIRECTION('',(-1.E0,0.E0,0.E0));
#49=AXIS2_PLACEMENT_3D('',#46,#47,#48);
#51=DIRECTION('',(0.E0,1.E0,4.882365792781E-13));
#52=VECTOR('',#51,1.010868810394E1);
#53=CARTESIAN_POINT('',(2.E0,1.091311896062E0,-4.889660367193E-12));
#54=LINE('',#53,#52);
#55=CARTESIAN_POINT('',(0.E0,2.E-1,0.E0));
#56=DIRECTION('',(0.E0,1.E0,0.E0));
#57=DIRECTION('',(1.E0,0.E0,0.E0));
#58=AXIS2_PLACEMENT_3D('',#55,#56,#57);
#60=DIRECTION('',(0.E0,1.E0,-4.558410106359E-11));
#61=VECTOR('',#60,1.086881039375E-1);
#62=CARTESIAN_POINT('',(2.E0,2.E-1,6.124821257223E-14));
#63=LINE('',#62,#61);
#64=CARTESIAN_POINT('',(-1.85E0,1.12E1,1.283462919277E-12));
#65=DIRECTION('',(-6.937627555770E-13,0.E0,-1.E0));
#66=DIRECTION('',(-1.E0,1.184237892934E-14,6.937627555770E-13));
#67=AXIS2_PLACEMENT_3D('',#64,#65,#66);
#69=CARTESIAN_POINT('',(0.E0,1.135E1,0.E0));
#70=DIRECTION('',(0.E0,1.E0,0.E0));
#71=DIRECTION('',(-9.033293285757E-1,0.E0,4.289476939383E-1));
#72=AXIS2_PLACEMENT_3D('',#69,#70,#71);
#74=CARTESIAN_POINT('',(0.E0,1.135E1,0.E0));
#75=DIRECTION('',(0.E0,1.E0,0.E0));
#76=DIRECTION('',(8.863840029652E-1,0.E0,4.629507525509E-1));
#77=AXIS2_PLACEMENT_3D('',#74,#75,#76);
#79=CARTESIAN_POINT('',(1.85E0,1.12E1,-1.283851497336E-12));
#80=DIRECTION('',(6.939743918410E-13,0.E0,1.E0));
#81=DIRECTION('',(1.E0,1.184237892934E-14,-6.939743918410E-13));
#82=AXIS2_PLACEMENT_3D('',#79,#80,#81);
#84=DIRECTION('',(-9.999984500794E-1,0.E0,-1.760635929180E-3));
#85=VECTOR('',#84,3.685739655128E-2);
#86=CARTESIAN_POINT('',(-1.671159257865E0,1.135E1,7.935532337859E-1));
#87=LINE('',#86,#85);
#88=CARTESIAN_POINT('',(0.E0,1.135E1,0.E0));
#89=DIRECTION('',(0.E0,1.E0,0.E0));
#90=DIRECTION('',(-9.069114675877E-1,0.E0,4.213212431837E-1));
#91=AXIS2_PLACEMENT_3D('',#88,#89,#90);
#93=DIRECTION('',(1.E0,0.E0,0.E0));
#94=VECTOR('',#93,3.751562435573E-2);
#95=CARTESIAN_POINT('',(-1.677326029841E0,1.135E1,8.564588922191E-1));
#96=LINE('',#95,#94);
#97=DIRECTION('',(1.E0,0.E0,0.E0));
#98=VECTOR('',#97,3.751562435573E-2);
#99=CARTESIAN_POINT('',(1.639810405486E0,1.135E1,8.564588922191E-1));
#100=LINE('',#99,#98);
#101=CARTESIAN_POINT('',(0.E0,1.135E1,0.E0));
#102=DIRECTION('',(0.E0,1.E0,0.E0));
#103=DIRECTION('',(8.906155910662E-1,0.E0,4.547569339216E-1));
#104=AXIS2_PLACEMENT_3D('',#101,#102,#103);
#106=DIRECTION('',(-9.999984500794E-1,0.E0,-1.760635929171E-3));
#107=VECTOR('',#106,3.685739655128E-2);
#108=CARTESIAN_POINT('',(1.705211924302E0,1.135E1,7.994978034131E-1));
#109=LINE('',#108,#107);
#110=DIRECTION('',(0.E0,1.E0,0.E0));
#111=VECTOR('',#110,1.E-2);
#112=CARTESIAN_POINT('',(1.705211924302E0,1.135E1,7.994978034131E-1));
#113=LINE('',#112,#111);
#114=DIRECTION('',(1.E0,0.E0,0.E0));
#115=VECTOR('',#114,3.279620810971E0);
#116=CARTESIAN_POINT('',(-1.639810405486E0,1.135E1,8.564588922191E-1));
#117=LINE('',#116,#115);
#118=CARTESIAN_POINT('',(0.E0,1.135E1,0.E0));
#119=DIRECTION('',(0.E0,-1.E0,0.E0));
#120=DIRECTION('',(8.863840029652E-1,0.E0,4.629507525509E-1));
#121=AXIS2_PLACEMENT_3D('',#118,#119,#120);
#123=DIRECTION('',(-9.999984500794E-1,0.E0,-1.760635929172E-3));
#124=VECTOR('',#123,3.339519018731E0);
#125=CARTESIAN_POINT('',(1.668354584877E0,1.135E1,7.994329109564E-1));
#126=LINE('',#125,#124);
#127=CARTESIAN_POINT('',(0.E0,1.135E1,0.E0));
#128=DIRECTION('',(0.E0,-1.E0,0.E0));
#129=DIRECTION('',(-9.033293285757E-1,0.E0,4.289476939383E-1));
#130=AXIS2_PLACEMENT_3D('',#127,#128,#129);
#132=CARTESIAN_POINT('',(0.E0,1.135E1,0.E0));
#133=DIRECTION('',(0.E0,-1.E0,0.E0));
#134=DIRECTION('',(-1.E0,0.E0,0.E0));
#135=AXIS2_PLACEMENT_3D('',#132,#133,#134);
#137=CARTESIAN_POINT('',(0.E0,1.135E1,0.E0));
#138=DIRECTION('',(0.E0,-1.E0,0.E0));
#139=DIRECTION('',(1.E0,0.E0,0.E0));
#140=AXIS2_PLACEMENT_3D('',#137,#138,#139);
#142=DIRECTION('',(-4.440892098500E-14,1.E0,0.E0));
#143=VECTOR('',#142,1.E-2);
#144=CARTESIAN_POINT('',(-1.677326029841E0,1.135E1,8.564588922191E-1));
#145=LINE('',#144,#143);
#146=DIRECTION('',(4.440892098500E-14,1.E0,0.E0));
#147=VECTOR('',#146,1.E-2);
#148=CARTESIAN_POINT('',(-1.708016597290E0,1.135E1,7.934883413293E-1));
#149=LINE('',#148,#147);
#150=CARTESIAN_POINT('',(0.E0,1.136E1,0.E0));
#151=DIRECTION('',(0.E0,1.E0,0.E0));
#152=DIRECTION('',(-9.069114675877E-1,0.E0,4.213212431837E-1));
#153=AXIS2_PLACEMENT_3D('',#150,#151,#152);
#155=DIRECTION('',(-9.999984500794E-1,0.E0,-1.760635929172E-3));
#156=VECTOR('',#155,3.413233811834E0);
#157=CARTESIAN_POINT('',(1.705211924302E0,1.136E1,7.994978034131E-1));
#158=LINE('',#157,#156);
#159=CARTESIAN_POINT('',(0.E0,1.136E1,0.E0));
#160=DIRECTION('',(0.E0,1.E0,0.E0));
#161=DIRECTION('',(8.906155910662E-1,0.E0,4.547569339216E-1));
#162=AXIS2_PLACEMENT_3D('',#159,#160,#161);
#164=DIRECTION('',(1.E0,0.E0,0.E0));
#165=VECTOR('',#164,3.354652059683E0);
#166=CARTESIAN_POINT('',(-1.677326029841E0,1.136E1,8.564588922191E-1));
#167=LINE('',#166,#165);
#168=DIRECTION('',(0.E0,1.E0,0.E0));
#169=VECTOR('',#168,1.E-2);
#170=CARTESIAN_POINT('',(1.677326029841E0,1.135E1,8.564588922191E-1));
#171=LINE('',#170,#169);
#172=CARTESIAN_POINT('',(0.E0,1.12E1,0.E0));
#173=DIRECTION('',(0.E0,-1.E0,0.E0));
#174=DIRECTION('',(1.E0,0.E0,0.E0));
#175=AXIS2_PLACEMENT_3D('',#172,#173,#174);
#177=CARTESIAN_POINT('',(0.E0,1.091311896062E0,0.E0));
#178=DIRECTION('',(0.E0,-1.E0,0.E0));
#179=DIRECTION('',(1.E0,0.E0,0.E0));
#180=AXIS2_PLACEMENT_3D('',#177,#178,#179);
#182=CARTESIAN_POINT('',(0.E0,1.091311896062E0,0.E0));
#183=DIRECTION('',(0.E0,-1.E0,0.E0));
#184=DIRECTION('',(0.E0,0.E0,1.E0));
#185=AXIS2_PLACEMENT_3D('',#182,#183,#184);
#187=DIRECTION('',(0.E0,1.E0,-5.428947127382E-13));
#188=VECTOR('',#187,1.010868810394E1);
#189=CARTESIAN_POINT('',(-2.E0,1.091311896062E0,5.442077527988E-12));
#190=LINE('',#189,#188);
#191=CARTESIAN_POINT('',(0.E0,2.E-1,0.E0));
#192=DIRECTION('',(0.E0,1.E0,0.E0));
#193=DIRECTION('',(-1.E0,0.E0,0.E0));
#194=AXIS2_PLACEMENT_3D('',#191,#192,#193);
#196=DIRECTION('',(0.E0,1.E0,5.067092456863E-11));
#197=VECTOR('',#196,1.086881039375E-1);
#198=CARTESIAN_POINT('',(-2.E0,2.E-1,-6.096528851459E-14));
#199=LINE('',#198,#197);
#200=CARTESIAN_POINT('',(0.E0,3.086881039375E-1,0.E0));
#201=DIRECTION('',(0.E0,1.E0,0.E0));
#202=DIRECTION('',(-1.E0,0.E0,0.E0));
#203=AXIS2_PLACEMENT_3D('',#200,#201,#202);
#205=CARTESIAN_POINT('',(0.E0,3.086881039375E-1,0.E0));
#206=DIRECTION('',(0.E0,1.E0,0.E0));
#207=DIRECTION('',(0.E0,0.E0,1.E0));
#208=AXIS2_PLACEMENT_3D('',#205,#206,#207);
#210=CARTESIAN_POINT('',(0.E0,8.304372986875E-1,0.E0));
#211=DIRECTION('',(0.E0,-1.E0,0.E0));
#212=DIRECTION('',(8.151278324888E-13,0.E0,-1.E0));
#213=AXIS2_PLACEMENT_3D('',#210,#211,#212);
#215=CARTESIAN_POINT('',(0.E0,1.091311896062E0,0.E0));
#216=DIRECTION('',(0.E0,1.E0,0.E0));
#217=DIRECTION('',(1.E0,0.E0,0.E0));
#218=AXIS2_PLACEMENT_3D('',#215,#216,#217);
#220=CARTESIAN_POINT('',(-1.65E0,1.091311896062E0,3.877931552945E-11));
#221=DIRECTION('',(-2.350269284745E-11,0.E0,-1.E0));
#222=DIRECTION('',(-6.666666666632E-1,-7.453559925030E-1,1.566846189822E-11));
#223=AXIS2_PLACEMENT_3D('',#220,#221,#222);
#225=CARTESIAN_POINT('',(0.E0,5.695627013125E-1,0.E0));
#226=DIRECTION('',(0.E0,1.E0,0.E0));
#227=DIRECTION('',(-1.628402980305E-11,0.E0,1.E0));
#228=AXIS2_PLACEMENT_3D('',#225,#226,#227);
#230=CARTESIAN_POINT('',(0.E0,3.086881039375E-1,0.E0));
#231=DIRECTION('',(0.E0,-1.E0,0.E0));
#232=DIRECTION('',(-1.E0,0.E0,0.E0));
#233=AXIS2_PLACEMENT_3D('',#230,#231,#232);
#235=CARTESIAN_POINT('',(-2.686864619683E-11,3.086881039375E-1,1.65E0));
#236=DIRECTION('',(1.E0,0.E0,1.628402794551E-11));
#237=DIRECTION('',(-1.085601863031E-11,7.453559925017E-1,6.666666666647E-1));
#238=AXIS2_PLACEMENT_3D('',#235,#236,#237);
#240=CARTESIAN_POINT('',(0.E0,5.695627013125E-1,0.E0));
#241=DIRECTION('',(0.E0,1.E0,0.E0));
#242=DIRECTION('',(0.E0,0.E0,-1.E0));
#243=AXIS2_PLACEMENT_3D('',#240,#241,#242);
#245=CARTESIAN_POINT('',(0.E0,7.E-1,-2.E0));
#246=DIRECTION('',(-1.E0,0.E0,0.E0));
#247=DIRECTION('',(0.E0,-7.453559924999E-1,6.666666666667E-1));
#248=AXIS2_PLACEMENT_3D('',#245,#246,#247);
#250=CARTESIAN_POINT('',(0.E0,8.304372986875E-1,0.E0));
#251=DIRECTION('',(0.E0,-1.E0,0.E0));
#252=DIRECTION('',(-1.E0,0.E0,0.E0));
#253=AXIS2_PLACEMENT_3D('',#250,#251,#252);
#255=CARTESIAN_POINT('',(0.E0,8.304372986875E-1,0.E0));
#256=DIRECTION('',(0.E0,-1.E0,0.E0));
#257=DIRECTION('',(0.E0,0.E0,1.E0));
#258=AXIS2_PLACEMENT_3D('',#255,#256,#257);
#260=CARTESIAN_POINT('',(0.E0,7.E-1,2.E0));
#261=DIRECTION('',(-1.E0,0.E0,0.E0));
#262=DIRECTION('',(0.E0,7.453559924999E-1,-6.666666666667E-1));
#263=AXIS2_PLACEMENT_3D('',#260,#261,#262);
#265=CARTESIAN_POINT('',(0.E0,5.695627013125E-1,0.E0));
#266=DIRECTION('',(0.E0,1.E0,0.E0));
#267=DIRECTION('',(-1.E0,0.E0,0.E0));
#268=AXIS2_PLACEMENT_3D('',#265,#266,#267);
#270=CARTESIAN_POINT('',(2.277635718917E-11,1.091311896062E0,1.65E0));
#271=DIRECTION('',(-1.E0,0.E0,1.380385389327E-11));
#272=DIRECTION('',(9.202569262157E-12,-7.453559925013E-1,6.666666666651E-1));
#273=AXIS2_PLACEMENT_3D('',#270,#271,#272);
#275=CARTESIAN_POINT('',(-1.65E0,3.086881039375E-1,-2.081538517260E-11));
#276=DIRECTION('',(-1.261531157315E-11,0.E0,1.E0));
#277=DIRECTION('',(-6.666666666653E-1,7.453559925011E-1,-8.410207715416E-12));
#278=AXIS2_PLACEMENT_3D('',#275,#276,#277);
#280=CARTESIAN_POINT('',(-1.8E0,2.E-1,-1.314375691619E-12));
#281=DIRECTION('',(-7.302092958072E-13,0.E0,1.E0));
#282=DIRECTION('',(-1.E0,0.E0,-7.302092958072E-13));
#283=AXIS2_PLACEMENT_3D('',#280,#281,#282);
#285=DIRECTION('',(0.E0,1.E0,0.E0));
#286=VECTOR('',#285,1.E-1);
#287=CARTESIAN_POINT('',(0.E0,0.E0,1.5E0));
#288=LINE('',#287,#286);
#289=DIRECTION('',(0.E0,1.E0,0.E0));
#290=VECTOR('',#289,1.E-1);
#291=CARTESIAN_POINT('',(0.E0,0.E0,-1.5E0));
#292=LINE('',#291,#290);
#293=CARTESIAN_POINT('',(0.E0,1.E-1,0.E0));
#294=DIRECTION('',(0.E0,-1.E0,0.E0));
#295=DIRECTION('',(0.E0,0.E0,1.E0));
#296=AXIS2_PLACEMENT_3D('',#293,#294,#295);
#298=CARTESIAN_POINT('',(0.E0,1.E-1,0.E0));
#299=DIRECTION('',(0.E0,-1.E0,0.E0));
#300=DIRECTION('',(0.E0,0.E0,-1.E0));
#301=AXIS2_PLACEMENT_3D('',#298,#299,#300);
#303=CARTESIAN_POINT('',(0.E0,1.E-1,8.25E-1));
#304=DIRECTION('',(0.E0,-1.E0,0.E0));
#305=DIRECTION('',(0.E0,0.E0,-1.E0));
#306=AXIS2_PLACEMENT_3D('',#303,#304,#305);
#308=CARTESIAN_POINT('',(0.E0,1.E-1,8.25E-1));
#309=DIRECTION('',(0.E0,-1.E0,0.E0));
#310=DIRECTION('',(0.E0,0.E0,1.E0));
#311=AXIS2_PLACEMENT_3D('',#308,#309,#310);
#313=CARTESIAN_POINT('',(0.E0,1.E-1,-8.25E-1));
#314=DIRECTION('',(0.E0,-1.E0,0.E0));
#315=DIRECTION('',(-1.E0,0.E0,0.E0));
#316=AXIS2_PLACEMENT_3D('',#313,#314,#315);
#318=CARTESIAN_POINT('',(0.E0,1.E-1,-8.25E-1));
#319=DIRECTION('',(0.E0,-1.E0,0.E0));
#320=DIRECTION('',(1.E0,0.E0,0.E0));
#321=AXIS2_PLACEMENT_3D('',#318,#319,#320);
#323=DIRECTION('',(0.E0,-1.E0,0.E0));
#324=VECTOR('',#323,2.E1);
#325=CARTESIAN_POINT('',(0.E0,1.E-1,5.75E-1));
#326=LINE('',#325,#324);
#327=DIRECTION('',(0.E0,-1.E0,0.E0));
#328=VECTOR('',#327,2.E1);
#329=CARTESIAN_POINT('',(0.E0,1.E-1,1.075E0));
#330=LINE('',#329,#328);
#331=CARTESIAN_POINT('',(0.E0,-1.99E1,8.25E-1));
#332=DIRECTION('',(0.E0,-1.E0,0.E0));
#333=DIRECTION('',(0.E0,0.E0,-1.E0));
#334=AXIS2_PLACEMENT_3D('',#331,#332,#333);
#336=CARTESIAN_POINT('',(0.E0,-1.99E1,8.25E-1));
#337=DIRECTION('',(0.E0,-1.E0,0.E0));
#338=DIRECTION('',(0.E0,0.E0,1.E0));
#339=AXIS2_PLACEMENT_3D('',#336,#337,#338);
#341=DIRECTION('',(0.E0,-1.E0,0.E0));
#342=VECTOR('',#341,2.5E1);
#343=CARTESIAN_POINT('',(-2.5E-1,1.E-1,-8.25E-1));
#344=LINE('',#343,#342);
#345=DIRECTION('',(0.E0,-1.E0,0.E0));
#346=VECTOR('',#345,2.5E1);
#347=CARTESIAN_POINT('',(2.5E-1,1.E-1,-8.25E-1));
#348=LINE('',#347,#346);
#349=CARTESIAN_POINT('',(0.E0,-2.49E1,-8.25E-1));
#350=DIRECTION('',(0.E0,-1.E0,0.E0));
#351=DIRECTION('',(-1.E0,0.E0,0.E0));
#352=AXIS2_PLACEMENT_3D('',#349,#350,#351);
#354=CARTESIAN_POINT('',(0.E0,-2.49E1,-8.25E-1));
#355=DIRECTION('',(0.E0,-1.E0,0.E0));
#356=DIRECTION('',(1.E0,0.E0,0.E0));
#357=AXIS2_PLACEMENT_3D('',#354,#355,#356);
#359=CARTESIAN_POINT('',(-2.E0,1.12E1,0.E0));
#360=CARTESIAN_POINT('',(2.E0,1.12E1,0.E0));
#361=VERTEX_POINT('',#359);
#362=VERTEX_POINT('',#360);
#363=CARTESIAN_POINT('',(-1.85E0,1.135E1,0.E0));
#364=CARTESIAN_POINT('',(1.85E0,1.135E1,0.E0));
#365=VERTEX_POINT('',#363);
#366=VERTEX_POINT('',#364);
#367=CARTESIAN_POINT('',(0.E0,5.695627013125E-1,-1.883333333333E0));
#368=CARTESIAN_POINT('',(-1.883333333333E0,5.695627013125E-1,0.E0));
#369=VERTEX_POINT('',#367);
#370=VERTEX_POINT('',#368);
#371=CARTESIAN_POINT('',(0.E0,5.695627013125E-1,1.883333333333E0));
#372=VERTEX_POINT('',#371);
#373=CARTESIAN_POINT('',(-2.E0,3.086881039375E-1,0.E0));
#374=CARTESIAN_POINT('',(0.E0,3.086881039375E-1,2.E0));
#375=VERTEX_POINT('',#373);
#376=VERTEX_POINT('',#374);
#377=CARTESIAN_POINT('',(2.E0,3.086881039375E-1,0.E0));
#378=VERTEX_POINT('',#377);
#379=CARTESIAN_POINT('',(2.E0,1.091311896062E0,0.E0));
#380=CARTESIAN_POINT('',(0.E0,1.091311896062E0,2.E0));
#381=VERTEX_POINT('',#379);
#382=VERTEX_POINT('',#380);
#383=CARTESIAN_POINT('',(0.E0,8.304372986875E-1,1.883333333333E0));
#384=CARTESIAN_POINT('',(-1.883333333333E0,8.304372986875E-1,0.E0));
#385=VERTEX_POINT('',#383);
#386=VERTEX_POINT('',#384);
#387=CARTESIAN_POINT('',(-2.E0,1.091311896062E0,0.E0));
#388=VERTEX_POINT('',#387);
#389=CARTESIAN_POINT('',(0.E0,8.304372986875E-1,-1.883333333333E0));
#390=VERTEX_POINT('',#389);
#391=CARTESIAN_POINT('',(0.E0,1.E-1,1.5E0));
#392=CARTESIAN_POINT('',(0.E0,1.E-1,-1.5E0));
#393=VERTEX_POINT('',#391);
#394=VERTEX_POINT('',#392);
#395=CARTESIAN_POINT('',(0.E0,0.E0,1.5E0));
#396=CARTESIAN_POINT('',(0.E0,0.E0,-1.5E0));
#397=VERTEX_POINT('',#395);
#398=VERTEX_POINT('',#396);
#399=CARTESIAN_POINT('',(0.E0,-1.99E1,5.75E-1));
#400=CARTESIAN_POINT('',(0.E0,-1.99E1,1.075E0));
#401=VERTEX_POINT('',#399);
#402=VERTEX_POINT('',#400);
#403=CARTESIAN_POINT('',(0.E0,1.E-1,5.75E-1));
#404=CARTESIAN_POINT('',(0.E0,1.E-1,1.075E0));
#405=VERTEX_POINT('',#403);
#406=VERTEX_POINT('',#404);
#407=CARTESIAN_POINT('',(-2.5E-1,-2.49E1,-8.25E-1));
#408=CARTESIAN_POINT('',(2.5E-1,-2.49E1,-8.25E-1));
#409=VERTEX_POINT('',#407);
#410=VERTEX_POINT('',#408);
#411=CARTESIAN_POINT('',(-2.5E-1,1.E-1,-8.25E-1));
#412=CARTESIAN_POINT('',(2.5E-1,1.E-1,-8.25E-1));
#413=VERTEX_POINT('',#411);
#414=VERTEX_POINT('',#412);
#415=CARTESIAN_POINT('',(2.E0,2.E-1,0.E0));
#416=CARTESIAN_POINT('',(-2.E0,2.E-1,0.E0));
#417=VERTEX_POINT('',#415);
#418=VERTEX_POINT('',#416);
#419=CARTESIAN_POINT('',(1.8E0,0.E0,0.E0));
#420=CARTESIAN_POINT('',(-1.8E0,0.E0,0.E0));
#421=VERTEX_POINT('',#419);
#422=VERTEX_POINT('',#420);
#423=CARTESIAN_POINT('',(-1.708016597290E0,1.135E1,7.934883413293E-1));
#424=CARTESIAN_POINT('',(-1.677326029841E0,1.135E1,8.564588922191E-1));
#425=VERTEX_POINT('',#423);
#426=VERTEX_POINT('',#424);
#427=CARTESIAN_POINT('',(1.677326029841E0,1.135E1,8.564588922191E-1));
#428=CARTESIAN_POINT('',(1.705211924302E0,1.135E1,7.994978034131E-1));
#429=VERTEX_POINT('',#427);
#430=VERTEX_POINT('',#428);
#431=CARTESIAN_POINT('',(-1.708016597290E0,1.136E1,7.934883413293E-1));
#432=CARTESIAN_POINT('',(-1.677326029841E0,1.136E1,8.564588922191E-1));
#433=VERTEX_POINT('',#431);
#434=VERTEX_POINT('',#432);
#435=CARTESIAN_POINT('',(1.677326029841E0,1.136E1,8.564588922191E-1));
#436=VERTEX_POINT('',#435);
#437=CARTESIAN_POINT('',(1.705211924302E0,1.136E1,7.994978034131E-1));
#438=VERTEX_POINT('',#437);
#439=CARTESIAN_POINT('',(-1.639810405486E0,1.135E1,8.564588922191E-1));
#440=CARTESIAN_POINT('',(1.639810405486E0,1.135E1,8.564588922191E-1));
#441=VERTEX_POINT('',#439);
#442=VERTEX_POINT('',#440);
#443=CARTESIAN_POINT('',(1.668354584877E0,1.135E1,7.994329109564E-1));
#444=CARTESIAN_POINT('',(-1.671159257865E0,1.135E1,7.935532337859E-1));
#445=VERTEX_POINT('',#443);
#446=VERTEX_POINT('',#444);
#447=CARTESIAN_POINT('',(0.E0,0.E0,0.E0));
#448=DIRECTION('',(0.E0,1.E0,0.E0));
#449=DIRECTION('',(1.E0,0.E0,0.E0));
#450=AXIS2_PLACEMENT_3D('',#447,#448,#449);
#451=PLANE('',#450);
#453=ORIENTED_EDGE('',*,*,#452,.T.);
#455=ORIENTED_EDGE('',*,*,#454,.T.);
#456=EDGE_LOOP('',(#453,#455));
#457=FACE_OUTER_BOUND('',#456,.F.);
#459=ORIENTED_EDGE('',*,*,#458,.T.);
#461=ORIENTED_EDGE('',*,*,#460,.T.);
#462=EDGE_LOOP('',(#459,#461));
#463=FACE_BOUND('',#462,.F.);
#465=FILL_AREA_STYLE_COLOUR('',#16);
#466=FILL_AREA_STYLE('',(#465));
#467=SURFACE_STYLE_FILL_AREA(#466);
#468=SURFACE_SIDE_STYLE('',(#467));
#469=SURFACE_STYLE_USAGE(.POSITIVE.,#468);
#470=PRESENTATION_STYLE_ASSIGNMENT((#469));
#471=STYLED_ITEM('',(#470),#464);
#472=CARTESIAN_POINT('',(0.E0,2.E-1,0.E0));
#473=DIRECTION('',(0.E0,1.E0,0.E0));
#474=DIRECTION('',(9.999477769592E-1,0.E0,1.021975314616E-2));
#475=AXIS2_PLACEMENT_3D('',#472,#473,#474);
#476=TOROIDAL_SURFACE('',#475,1.8E0,2.E-1);
#478=ORIENTED_EDGE('',*,*,#477,.T.);
#480=ORIENTED_EDGE('',*,*,#479,.T.);
#481=ORIENTED_EDGE('',*,*,#452,.F.);
#483=ORIENTED_EDGE('',*,*,#482,.F.);
#484=EDGE_LOOP('',(#478,#480,#481,#483));
#485=FACE_OUTER_BOUND('',#484,.F.);
#487=FILL_AREA_STYLE_COLOUR('',#16);
#488=FILL_AREA_STYLE('',(#487));
#489=SURFACE_STYLE_FILL_AREA(#488);
#490=SURFACE_SIDE_STYLE('',(#489));
#491=SURFACE_STYLE_USAGE(.POSITIVE.,#490);
#492=PRESENTATION_STYLE_ASSIGNMENT((#491));
#493=STYLED_ITEM('',(#492),#486);
#494=CARTESIAN_POINT('',(0.E0,0.E0,0.E0));
#495=DIRECTION('',(0.E0,1.E0,0.E0));
#496=DIRECTION('',(1.E0,0.E0,0.E0));
#497=AXIS2_PLACEMENT_3D('',#494,#495,#496);
#498=CYLINDRICAL_SURFACE('',#497,2.E0);
#500=ORIENTED_EDGE('',*,*,#499,.F.);
#502=ORIENTED_EDGE('',*,*,#501,.F.);
#504=ORIENTED_EDGE('',*,*,#503,.F.);
#506=ORIENTED_EDGE('',*,*,#505,.T.);
#507=EDGE_LOOP('',(#500,#502,#504,#506));
#508=FACE_OUTER_BOUND('',#507,.F.);
#510=FILL_AREA_STYLE_COLOUR('',#16);
#511=FILL_AREA_STYLE('',(#510));
#512=SURFACE_STYLE_FILL_AREA(#511);
#513=SURFACE_SIDE_STYLE('',(#512));
#514=SURFACE_STYLE_USAGE(.POSITIVE.,#513);
#515=PRESENTATION_STYLE_ASSIGNMENT((#514));
#516=STYLED_ITEM('',(#515),#509);
#517=CARTESIAN_POINT('',(0.E0,0.E0,0.E0));
#518=DIRECTION('',(0.E0,1.E0,0.E0));
#519=DIRECTION('',(1.E0,0.E0,0.E0));
#520=AXIS2_PLACEMENT_3D('',#517,#518,#519);
#521=CYLINDRICAL_SURFACE('',#520,2.E0);
#522=ORIENTED_EDGE('',*,*,#477,.F.);
#524=ORIENTED_EDGE('',*,*,#523,.T.);
#526=ORIENTED_EDGE('',*,*,#525,.F.);
#528=ORIENTED_EDGE('',*,*,#527,.F.);
#529=EDGE_LOOP('',(#522,#524,#526,#528));
#530=FACE_OUTER_BOUND('',#529,.F.);
#532=FILL_AREA_STYLE_COLOUR('',#16);
#533=FILL_AREA_STYLE('',(#532));
#534=SURFACE_STYLE_FILL_AREA(#533);
#535=SURFACE_SIDE_STYLE('',(#534));
#536=SURFACE_STYLE_USAGE(.POSITIVE.,#535);
#537=PRESENTATION_STYLE_ASSIGNMENT((#536));
#538=STYLED_ITEM('',(#537),#531);
#539=CARTESIAN_POINT('',(0.E0,1.12E1,0.E0));
#540=DIRECTION('',(0.E0,1.E0,0.E0));
#541=DIRECTION('',(-9.999560586592E-1,0.E0,9.374473356608E-3));
#542=AXIS2_PLACEMENT_3D('',#539,#540,#541);
#543=TOROIDAL_SURFACE('',#542,1.85E0,1.5E-1);
#544=ORIENTED_EDGE('',*,*,#499,.T.);
#546=ORIENTED_EDGE('',*,*,#545,.T.);
#548=ORIENTED_EDGE('',*,*,#547,.F.);
#550=ORIENTED_EDGE('',*,*,#549,.F.);
#551=EDGE_LOOP('',(#544,#546,#548,#550));
#552=FACE_OUTER_BOUND('',#551,.F.);
#554=FILL_AREA_STYLE_COLOUR('',#16);
#555=FILL_AREA_STYLE('',(#554));
#556=SURFACE_STYLE_FILL_AREA(#555);
#557=SURFACE_SIDE_STYLE('',(#556));
#558=SURFACE_STYLE_USAGE(.POSITIVE.,#557);
#559=PRESENTATION_STYLE_ASSIGNMENT((#558));
#560=STYLED_ITEM('',(#559),#553);
#561=CARTESIAN_POINT('',(0.E0,1.12E1,0.E0));
#562=DIRECTION('',(0.E0,1.E0,0.E0));
#563=DIRECTION('',(9.999560586592E-1,0.E0,-9.374473356607E-3));
#564=AXIS2_PLACEMENT_3D('',#561,#562,#563);
#565=TOROIDAL_SURFACE('',#564,1.85E0,1.5E-1);
#567=ORIENTED_EDGE('',*,*,#566,.T.);
#569=ORIENTED_EDGE('',*,*,#568,.F.);
#571=ORIENTED_EDGE('',*,*,#570,.T.);
#573=ORIENTED_EDGE('',*,*,#572,.F.);
#574=ORIENTED_EDGE('',*,*,#545,.F.);
#576=ORIENTED_EDGE('',*,*,#575,.T.);
#577=ORIENTED_EDGE('',*,*,#549,.T.);
#579=ORIENTED_EDGE('',*,*,#578,.F.);
#580=EDGE_LOOP('',(#567,#569,#571,#573,#574,#576,#577,#579));
#581=FACE_OUTER_BOUND('',#580,.F.);
#583=FILL_AREA_STYLE_COLOUR('',#16);
#584=FILL_AREA_STYLE('',(#583));
#585=SURFACE_STYLE_FILL_AREA(#584);
#586=SURFACE_SIDE_STYLE('',(#585));
#587=SURFACE_STYLE_USAGE(.POSITIVE.,#586);
#588=PRESENTATION_STYLE_ASSIGNMENT((#587));
#589=STYLED_ITEM('',(#588),#582);
#590=CARTESIAN_POINT('',(0.E0,1.135E1,0.E0));
#591=DIRECTION('',(0.E0,1.E0,0.E0));
#592=DIRECTION('',(1.E0,0.E0,0.E0));
#593=AXIS2_PLACEMENT_3D('',#590,#591,#592);
#594=PLANE('',#593);
#595=ORIENTED_EDGE('',*,*,#566,.F.);
#597=ORIENTED_EDGE('',*,*,#596,.T.);
#599=ORIENTED_EDGE('',*,*,#598,.T.);
#601=ORIENTED_EDGE('',*,*,#600,.T.);
#602=EDGE_LOOP('',(#595,#597,#599,#601));
#603=FACE_OUTER_BOUND('',#602,.F.);
#605=CARTESIAN_POINT('',(0.E0,1.135E1,0.E0));
#606=DIRECTION('',(0.E0,1.E0,0.E0));
#607=DIRECTION('',(1.E0,0.E0,0.E0));
#608=AXIS2_PLACEMENT_3D('',#605,#606,#607);
#609=PLANE('',#608);
#610=ORIENTED_EDGE('',*,*,#570,.F.);
#612=ORIENTED_EDGE('',*,*,#611,.T.);
#614=ORIENTED_EDGE('',*,*,#613,.T.);
#616=ORIENTED_EDGE('',*,*,#615,.T.);
#617=EDGE_LOOP('',(#610,#612,#614,#616));
#618=FACE_OUTER_BOUND('',#617,.F.);
#620=CARTESIAN_POINT('',(1.705211924302E0,1.135E1,7.994978034131E-1));
#621=DIRECTION('',(1.760635929172E-3,0.E0,-9.999984500794E-1));
#622=DIRECTION('',(-9.999984500794E-1,0.E0,-1.760635929172E-3));
#623=AXIS2_PLACEMENT_3D('',#620,#621,#622);
#624=PLANE('',#623);
#626=ORIENTED_EDGE('',*,*,#625,.F.);
#627=ORIENTED_EDGE('',*,*,#615,.F.);
#629=ORIENTED_EDGE('',*,*,#628,.T.);
#631=ORIENTED_EDGE('',*,*,#630,.T.);
#633=ORIENTED_EDGE('',*,*,#632,.F.);
#634=ORIENTED_EDGE('',*,*,#596,.F.);
#635=EDGE_LOOP('',(#626,#627,#629,#631,#633,#634));
#636=FACE_OUTER_BOUND('',#635,.F.);
#638=CARTESIAN_POINT('',(0.E0,1.135E1,0.E0));
#639=DIRECTION('',(0.E0,1.E0,0.E0));
#640=DIRECTION('',(1.E0,0.E0,0.E0));
#641=AXIS2_PLACEMENT_3D('',#638,#639,#640);
#642=PLANE('',#641);
#644=ORIENTED_EDGE('',*,*,#643,.T.);
#645=ORIENTED_EDGE('',*,*,#568,.T.);
#646=EDGE_LOOP('',(#644,#645));
#647=FACE_OUTER_BOUND('',#646,.F.);
#649=FILL_AREA_STYLE_COLOUR('',#16);
#650=FILL_AREA_STYLE('',(#649));
#651=SURFACE_STYLE_FILL_AREA(#650);
#652=SURFACE_SIDE_STYLE('',(#651));
#653=SURFACE_STYLE_USAGE(.POSITIVE.,#652);
#654=PRESENTATION_STYLE_ASSIGNMENT((#653));
#655=STYLED_ITEM('',(#654),#648);
#656=CARTESIAN_POINT('',(0.E0,1.135E1,0.E0));
#657=DIRECTION('',(0.E0,1.E0,0.E0));
#658=DIRECTION('',(1.E0,0.E0,0.E0));
#659=AXIS2_PLACEMENT_3D('',#656,#657,#658);
#660=PLANE('',#659);
#661=ORIENTED_EDGE('',*,*,#625,.T.);
#662=ORIENTED_EDGE('',*,*,#578,.T.);
#663=ORIENTED_EDGE('',*,*,#547,.T.);
#664=ORIENTED_EDGE('',*,*,#572,.T.);
#665=EDGE_LOOP('',(#661,#662,#663,#664));
#666=FACE_OUTER_BOUND('',#665,.F.);
#668=FILL_AREA_STYLE_COLOUR('',#16);
#669=FILL_AREA_STYLE('',(#668));
#670=SURFACE_STYLE_FILL_AREA(#669);
#671=SURFACE_SIDE_STYLE('',(#670));
#672=SURFACE_STYLE_USAGE(.POSITIVE.,#671);
#673=PRESENTATION_STYLE_ASSIGNMENT((#672));
#674=STYLED_ITEM('',(#673),#667);
#675=CARTESIAN_POINT('',(-1.677326029841E0,1.135E1,8.564588922191E-1));
#676=DIRECTION('',(0.E0,0.E0,1.E0));
#677=DIRECTION('',(1.E0,0.E0,0.E0));
#678=AXIS2_PLACEMENT_3D('',#675,#676,#677);
#679=PLANE('',#678);
#680=ORIENTED_EDGE('',*,*,#643,.F.);
#681=ORIENTED_EDGE('',*,*,#600,.F.);
#683=ORIENTED_EDGE('',*,*,#682,.T.);
#685=ORIENTED_EDGE('',*,*,#684,.T.);
#687=ORIENTED_EDGE('',*,*,#686,.F.);
#688=ORIENTED_EDGE('',*,*,#611,.F.);
#689=EDGE_LOOP('',(#680,#681,#683,#685,#687,#688));
#690=FACE_OUTER_BOUND('',#689,.F.);
#692=CARTESIAN_POINT('',(0.E0,1.135E1,0.E0));
#693=DIRECTION('',(0.E0,1.E0,0.E0));
#694=DIRECTION('',(1.E0,0.E0,0.E0));
#695=AXIS2_PLACEMENT_3D('',#692,#693,#694);
#696=CYLINDRICAL_SURFACE('',#695,1.883333333333E0);
#697=ORIENTED_EDGE('',*,*,#598,.F.);
#698=ORIENTED_EDGE('',*,*,#632,.T.);
#700=ORIENTED_EDGE('',*,*,#699,.T.);
#701=ORIENTED_EDGE('',*,*,#682,.F.);
#702=EDGE_LOOP('',(#697,#698,#700,#701));
#703=FACE_OUTER_BOUND('',#702,.F.);
#705=CARTESIAN_POINT('',(0.E0,1.136E1,0.E0));
#706=DIRECTION('',(0.E0,1.E0,0.E0));
#707=DIRECTION('',(1.E0,0.E0,0.E0));
#708=AXIS2_PLACEMENT_3D('',#705,#706,#707);
#709=PLANE('',#708);
#710=ORIENTED_EDGE('',*,*,#699,.F.);
#711=ORIENTED_EDGE('',*,*,#630,.F.);
#713=ORIENTED_EDGE('',*,*,#712,.F.);
#714=ORIENTED_EDGE('',*,*,#684,.F.);
#715=EDGE_LOOP('',(#710,#711,#713,#714));
#716=FACE_OUTER_BOUND('',#715,.F.);
#718=FILL_AREA_STYLE_COLOUR('',#4);
#719=FILL_AREA_STYLE('',(#718));
#720=SURFACE_STYLE_FILL_AREA(#719);
#721=SURFACE_SIDE_STYLE('',(#720));
#722=SURFACE_STYLE_USAGE(.POSITIVE.,#721);
#723=PRESENTATION_STYLE_ASSIGNMENT((#722));
#724=STYLED_ITEM('',(#723),#717);
#725=CARTESIAN_POINT('',(0.E0,1.135E1,0.E0));
#726=DIRECTION('',(0.E0,1.E0,0.E0));
#727=DIRECTION('',(1.E0,0.E0,0.E0));
#728=AXIS2_PLACEMENT_3D('',#725,#726,#727);
#729=CYLINDRICAL_SURFACE('',#728,1.883333333333E0);
#730=ORIENTED_EDGE('',*,*,#613,.F.);
#731=ORIENTED_EDGE('',*,*,#686,.T.);
#732=ORIENTED_EDGE('',*,*,#712,.T.);
#733=ORIENTED_EDGE('',*,*,#628,.F.);
#734=EDGE_LOOP('',(#730,#731,#732,#733));
#735=FACE_OUTER_BOUND('',#734,.F.);
#737=CARTESIAN_POINT('',(0.E0,0.E0,0.E0));
#738=DIRECTION('',(0.E0,1.E0,0.E0));
#739=DIRECTION('',(1.E0,0.E0,0.E0));
#740=AXIS2_PLACEMENT_3D('',#737,#738,#739);
#741=CYLINDRICAL_SURFACE('',#740,2.E0);
#742=ORIENTED_EDGE('',*,*,#575,.F.);
#743=ORIENTED_EDGE('',*,*,#505,.F.);
#745=ORIENTED_EDGE('',*,*,#744,.T.);
#747=ORIENTED_EDGE('',*,*,#746,.T.);
#748=ORIENTED_EDGE('',*,*,#501,.T.);
#749=EDGE_LOOP('',(#742,#743,#745,#747,#748));
#750=FACE_OUTER_BOUND('',#749,.F.);
#752=FILL_AREA_STYLE_COLOUR('',#16);
#753=FILL_AREA_STYLE('',(#752));
#754=SURFACE_STYLE_FILL_AREA(#753);
#755=SURFACE_SIDE_STYLE('',(#754));
#756=SURFACE_STYLE_USAGE(.POSITIVE.,#755);
#757=PRESENTATION_STYLE_ASSIGNMENT((#756));
#758=STYLED_ITEM('',(#757),#751);
#759=CARTESIAN_POINT('',(0.E0,0.E0,0.E0));
#760=DIRECTION('',(0.E0,1.E0,0.E0));
#761=DIRECTION('',(1.E0,0.E0,0.E0));
#762=AXIS2_PLACEMENT_3D('',#759,#760,#761);
#763=CYLINDRICAL_SURFACE('',#762,2.E0);
#765=ORIENTED_EDGE('',*,*,#764,.F.);
#766=ORIENTED_EDGE('',*,*,#527,.T.);
#768=ORIENTED_EDGE('',*,*,#767,.T.);
#770=ORIENTED_EDGE('',*,*,#769,.T.);
#771=ORIENTED_EDGE('',*,*,#523,.F.);
#772=EDGE_LOOP('',(#765,#766,#768,#770,#771));
#773=FACE_OUTER_BOUND('',#772,.F.);
#775=FILL_AREA_STYLE_COLOUR('',#16);
#776=FILL_AREA_STYLE('',(#775));
#777=SURFACE_STYLE_FILL_AREA(#776);
#778=SURFACE_SIDE_STYLE('',(#777));
#779=SURFACE_STYLE_USAGE(.POSITIVE.,#778);
#780=PRESENTATION_STYLE_ASSIGNMENT((#779));
#781=STYLED_ITEM('',(#780),#774);
#782=CARTESIAN_POINT('',(0.E0,1.091311896062E0,0.E0));
#783=DIRECTION('',(0.E0,1.E0,0.E0));
#784=DIRECTION('',(-1.027336521697E-2,0.E0,-9.999472275911E-1));
#785=AXIS2_PLACEMENT_3D('',#782,#783,#784);
#786=TOROIDAL_SURFACE('',#785,1.65E0,3.5E-1);
#788=ORIENTED_EDGE('',*,*,#787,.T.);
#790=ORIENTED_EDGE('',*,*,#789,.T.);
#791=ORIENTED_EDGE('',*,*,#744,.F.);
#792=ORIENTED_EDGE('',*,*,#503,.T.);
#794=ORIENTED_EDGE('',*,*,#793,.F.);
#796=ORIENTED_EDGE('',*,*,#795,.T.);
#797=EDGE_LOOP('',(#788,#790,#791,#792,#794,#796));
#798=FACE_OUTER_BOUND('',#797,.F.);
#800=FILL_AREA_STYLE_COLOUR('',#16);
#801=FILL_AREA_STYLE('',(#800));
#802=SURFACE_STYLE_FILL_AREA(#801);
#803=SURFACE_SIDE_STYLE('',(#802));
#804=SURFACE_STYLE_USAGE(.POSITIVE.,#803);
#805=PRESENTATION_STYLE_ASSIGNMENT((#804));
#806=STYLED_ITEM('',(#805),#799);
#807=CARTESIAN_POINT('',(0.E0,7.E-1,0.E0));
#808=DIRECTION('',(0.E0,1.E0,0.E0));
#809=DIRECTION('',(0.E0,0.E0,-1.E0));
#810=AXIS2_PLACEMENT_3D('',#807,#808,#809);
#811=TOROIDAL_SURFACE('',#810,2.E0,1.75E-1);
#813=ORIENTED_EDGE('',*,*,#812,.F.);
#815=ORIENTED_EDGE('',*,*,#814,.F.);
#816=ORIENTED_EDGE('',*,*,#787,.F.);
#818=ORIENTED_EDGE('',*,*,#817,.F.);
#819=EDGE_LOOP('',(#813,#815,#816,#818));
#820=FACE_OUTER_BOUND('',#819,.F.);
#822=FILL_AREA_STYLE_COLOUR('',#16);
#823=FILL_AREA_STYLE('',(#822));
#824=SURFACE_STYLE_FILL_AREA(#823);
#825=SURFACE_SIDE_STYLE('',(#824));
#826=SURFACE_STYLE_USAGE(.POSITIVE.,#825);
#827=PRESENTATION_STYLE_ASSIGNMENT((#826));
#828=STYLED_ITEM('',(#827),#821);
#829=CARTESIAN_POINT('',(0.E0,3.086881039375E-1,0.E0));
#830=DIRECTION('',(0.E0,1.E0,0.E0));
#831=DIRECTION('',(9.999524718873E-1,0.E0,9.749562370657E-3));
#832=AXIS2_PLACEMENT_3D('',#829,#830,#831);
#833=TOROIDAL_SURFACE('',#832,1.65E0,3.5E-1);
#834=ORIENTED_EDGE('',*,*,#812,.T.);
#836=ORIENTED_EDGE('',*,*,#835,.T.);
#838=ORIENTED_EDGE('',*,*,#837,.T.);
#839=ORIENTED_EDGE('',*,*,#525,.T.);
#840=ORIENTED_EDGE('',*,*,#769,.F.);
#842=ORIENTED_EDGE('',*,*,#841,.F.);
#843=EDGE_LOOP('',(#834,#836,#838,#839,#840,#842));
#844=FACE_OUTER_BOUND('',#843,.F.);
#846=FILL_AREA_STYLE_COLOUR('',#16);
#847=FILL_AREA_STYLE('',(#846));
#848=SURFACE_STYLE_FILL_AREA(#847);
#849=SURFACE_SIDE_STYLE('',(#848));
#850=SURFACE_STYLE_USAGE(.POSITIVE.,#849);
#851=PRESENTATION_STYLE_ASSIGNMENT((#850));
#852=STYLED_ITEM('',(#851),#845);
#853=CARTESIAN_POINT('',(0.E0,7.E-1,0.E0));
#854=DIRECTION('',(0.E0,1.E0,0.E0));
#855=DIRECTION('',(0.E0,0.E0,-1.E0));
#856=AXIS2_PLACEMENT_3D('',#853,#854,#855);
#857=TOROIDAL_SURFACE('',#856,2.E0,1.75E-1);
#858=ORIENTED_EDGE('',*,*,#835,.F.);
#859=ORIENTED_EDGE('',*,*,#817,.T.);
#860=ORIENTED_EDGE('',*,*,#795,.F.);
#862=ORIENTED_EDGE('',*,*,#861,.F.);
#863=ORIENTED_EDGE('',*,*,#814,.T.);
#865=ORIENTED_EDGE('',*,*,#864,.F.);
#866=EDGE_LOOP('',(#858,#859,#860,#862,#863,#865));
#867=FACE_OUTER_BOUND('',#866,.F.);
#869=FILL_AREA_STYLE_COLOUR('',#16);
#870=FILL_AREA_STYLE('',(#869));
#871=SURFACE_STYLE_FILL_AREA(#870);
#872=SURFACE_SIDE_STYLE('',(#871));
#873=SURFACE_STYLE_USAGE(.POSITIVE.,#872);
#874=PRESENTATION_STYLE_ASSIGNMENT((#873));
#875=STYLED_ITEM('',(#874),#868);
#876=CARTESIAN_POINT('',(0.E0,1.091311896062E0,0.E0));
#877=DIRECTION('',(0.E0,1.E0,0.E0));
#878=DIRECTION('',(1.027336521697E-2,0.E0,9.999472275911E-1));
#879=AXIS2_PLACEMENT_3D('',#876,#877,#878);
#880=TOROIDAL_SURFACE('',#879,1.65E0,3.5E-1);
#881=ORIENTED_EDGE('',*,*,#861,.T.);
#882=ORIENTED_EDGE('',*,*,#793,.T.);
#883=ORIENTED_EDGE('',*,*,#746,.F.);
#884=ORIENTED_EDGE('',*,*,#789,.F.);
#885=EDGE_LOOP('',(#881,#882,#883,#884));
#886=FACE_OUTER_BOUND('',#885,.F.);
#888=FILL_AREA_STYLE_COLOUR('',#16);
#889=FILL_AREA_STYLE('',(#888));
#890=SURFACE_STYLE_FILL_AREA(#889);
#891=SURFACE_SIDE_STYLE('',(#890));
#892=SURFACE_STYLE_USAGE(.POSITIVE.,#891);
#893=PRESENTATION_STYLE_ASSIGNMENT((#892));
#894=STYLED_ITEM('',(#893),#887);
#895=CARTESIAN_POINT('',(0.E0,3.086881039375E-1,0.E0));
#896=DIRECTION('',(0.E0,1.E0,0.E0));
#897=DIRECTION('',(-9.999524718873E-1,0.E0,-9.749562370657E-3));
#898=AXIS2_PLACEMENT_3D('',#895,#896,#897);
#899=TOROIDAL_SURFACE('',#898,1.65E0,3.5E-1);
#900=ORIENTED_EDGE('',*,*,#864,.T.);
#901=ORIENTED_EDGE('',*,*,#841,.T.);
#902=ORIENTED_EDGE('',*,*,#767,.F.);
#903=ORIENTED_EDGE('',*,*,#837,.F.);
#904=EDGE_LOOP('',(#900,#901,#902,#903));
#905=FACE_OUTER_BOUND('',#904,.F.);
#907=FILL_AREA_STYLE_COLOUR('',#16);
#908=FILL_AREA_STYLE('',(#907));
#909=SURFACE_STYLE_FILL_AREA(#908);
#910=SURFACE_SIDE_STYLE('',(#909));
#911=SURFACE_STYLE_USAGE(.POSITIVE.,#910);
#912=PRESENTATION_STYLE_ASSIGNMENT((#911));
#913=STYLED_ITEM('',(#912),#906);
#914=CARTESIAN_POINT('',(0.E0,2.E-1,0.E0));
#915=DIRECTION('',(0.E0,1.E0,0.E0));
#916=DIRECTION('',(-9.999477769592E-1,0.E0,-1.021975314616E-2));
#917=AXIS2_PLACEMENT_3D('',#914,#915,#916);
#918=TOROIDAL_SURFACE('',#917,1.8E0,2.E-1);
#919=ORIENTED_EDGE('',*,*,#764,.T.);
#920=ORIENTED_EDGE('',*,*,#482,.T.);
#921=ORIENTED_EDGE('',*,*,#454,.F.);
#922=ORIENTED_EDGE('',*,*,#479,.F.);
#923=EDGE_LOOP('',(#919,#920,#921,#922));
#924=FACE_OUTER_BOUND('',#923,.F.);
#926=FILL_AREA_STYLE_COLOUR('',#16);
#927=FILL_AREA_STYLE('',(#926));
#928=SURFACE_STYLE_FILL_AREA(#927);
#929=SURFACE_SIDE_STYLE('',(#928));
#930=SURFACE_STYLE_USAGE(.POSITIVE.,#929);
#931=PRESENTATION_STYLE_ASSIGNMENT((#930));
#932=STYLED_ITEM('',(#931),#925);
#933=CARTESIAN_POINT('',(0.E0,0.E0,0.E0));
#934=DIRECTION('',(0.E0,-1.E0,0.E0));
#935=DIRECTION('',(0.E0,0.E0,1.E0));
#936=AXIS2_PLACEMENT_3D('',#933,#934,#935);
#937=CYLINDRICAL_SURFACE('',#936,1.5E0);
#938=ORIENTED_EDGE('',*,*,#458,.F.);
#940=ORIENTED_EDGE('',*,*,#939,.T.);
#942=ORIENTED_EDGE('',*,*,#941,.T.);
#944=ORIENTED_EDGE('',*,*,#943,.F.);
#945=EDGE_LOOP('',(#938,#940,#942,#944));
#946=FACE_OUTER_BOUND('',#945,.F.);
#948=FILL_AREA_STYLE_COLOUR('',#16);
#949=FILL_AREA_STYLE('',(#948));
#950=SURFACE_STYLE_FILL_AREA(#949);
#951=SURFACE_SIDE_STYLE('',(#950));
#952=SURFACE_STYLE_USAGE(.POSITIVE.,#951);
#953=PRESENTATION_STYLE_ASSIGNMENT((#952));
#954=STYLED_ITEM('',(#953),#947);
#955=CARTESIAN_POINT('',(0.E0,0.E0,0.E0));
#956=DIRECTION('',(0.E0,-1.E0,0.E0));
#957=DIRECTION('',(0.E0,0.E0,1.E0));
#958=AXIS2_PLACEMENT_3D('',#955,#956,#957);
#959=CYLINDRICAL_SURFACE('',#958,1.5E0);
#960=ORIENTED_EDGE('',*,*,#460,.F.);
#961=ORIENTED_EDGE('',*,*,#943,.T.);
#963=ORIENTED_EDGE('',*,*,#962,.T.);
#964=ORIENTED_EDGE('',*,*,#939,.F.);
#965=EDGE_LOOP('',(#960,#961,#963,#964));
#966=FACE_OUTER_BOUND('',#965,.F.);
#968=FILL_AREA_STYLE_COLOUR('',#16);
#969=FILL_AREA_STYLE('',(#968));
#970=SURFACE_STYLE_FILL_AREA(#969);
#971=SURFACE_SIDE_STYLE('',(#970));
#972=SURFACE_STYLE_USAGE(.POSITIVE.,#971);
#973=PRESENTATION_STYLE_ASSIGNMENT((#972));
#974=STYLED_ITEM('',(#973),#967);
#975=CARTESIAN_POINT('',(0.E0,1.E-1,0.E0));
#976=DIRECTION('',(0.E0,-1.E0,0.E0));
#977=DIRECTION('',(0.E0,0.E0,1.E0));
#978=AXIS2_PLACEMENT_3D('',#975,#976,#977);
#979=PLANE('',#978);
#980=ORIENTED_EDGE('',*,*,#941,.F.);
#981=ORIENTED_EDGE('',*,*,#962,.F.);
#982=EDGE_LOOP('',(#980,#981));
#983=FACE_OUTER_BOUND('',#982,.F.);
#985=ORIENTED_EDGE('',*,*,#984,.T.);
#987=ORIENTED_EDGE('',*,*,#986,.T.);
#988=EDGE_LOOP('',(#985,#987));
#989=FACE_BOUND('',#988,.F.);
#991=ORIENTED_EDGE('',*,*,#990,.T.);
#993=ORIENTED_EDGE('',*,*,#992,.T.);
#994=EDGE_LOOP('',(#991,#993));
#995=FACE_BOUND('',#994,.F.);
#997=FILL_AREA_STYLE_COLOUR('',#4);
#998=FILL_AREA_STYLE('',(#997));
#999=SURFACE_STYLE_FILL_AREA(#998);
#1000=SURFACE_SIDE_STYLE('',(#999));
#1001=SURFACE_STYLE_USAGE(.POSITIVE.,#1000);
#1002=PRESENTATION_STYLE_ASSIGNMENT((#1001));
#1003=STYLED_ITEM('',(#1002),#996);
#1004=CARTESIAN_POINT('',(0.E0,1.E-1,8.25E-1));
#1005=DIRECTION('',(0.E0,-1.E0,0.E0));
#1006=DIRECTION('',(0.E0,0.E0,-1.E0));
#1007=AXIS2_PLACEMENT_3D('',#1004,#1005,#1006);
#1008=CYLINDRICAL_SURFACE('',#1007,2.5E-1);
#1009=ORIENTED_EDGE('',*,*,#984,.F.);
#1011=ORIENTED_EDGE('',*,*,#1010,.T.);
#1013=ORIENTED_EDGE('',*,*,#1012,.T.);
#1015=ORIENTED_EDGE('',*,*,#1014,.F.);
#1016=EDGE_LOOP('',(#1009,#1011,#1013,#1015));
#1017=FACE_OUTER_BOUND('',#1016,.F.);
#1019=FILL_AREA_STYLE_COLOUR('',#10);
#1020=FILL_AREA_STYLE('',(#1019));
#1021=SURFACE_STYLE_FILL_AREA(#1020);
#1022=SURFACE_SIDE_STYLE('',(#1021));
#1023=SURFACE_STYLE_USAGE(.POSITIVE.,#1022);
#1024=PRESENTATION_STYLE_ASSIGNMENT((#1023));
#1025=STYLED_ITEM('',(#1024),#1018);
#1026=CARTESIAN_POINT('',(0.E0,1.E-1,8.25E-1));
#1027=DIRECTION('',(0.E0,-1.E0,0.E0));
#1028=DIRECTION('',(0.E0,0.E0,-1.E0));
#1029=AXIS2_PLACEMENT_3D('',#1026,#1027,#1028);
#1030=CYLINDRICAL_SURFACE('',#1029,2.5E-1);
#1031=ORIENTED_EDGE('',*,*,#986,.F.);
#1032=ORIENTED_EDGE('',*,*,#1014,.T.);
#1034=ORIENTED_EDGE('',*,*,#1033,.T.);
#1035=ORIENTED_EDGE('',*,*,#1010,.F.);
#1036=EDGE_LOOP('',(#1031,#1032,#1034,#1035));
#1037=FACE_OUTER_BOUND('',#1036,.F.);
#1039=FILL_AREA_STYLE_COLOUR('',#10);
#1040=FILL_AREA_STYLE('',(#1039));
#1041=SURFACE_STYLE_FILL_AREA(#1040);
#1042=SURFACE_SIDE_STYLE('',(#1041));
#1043=SURFACE_STYLE_USAGE(.POSITIVE.,#1042);
#1044=PRESENTATION_STYLE_ASSIGNMENT((#1043));
#1045=STYLED_ITEM('',(#1044),#1038);
#1046=CARTESIAN_POINT('',(0.E0,-1.99E1,0.E0));
#1047=DIRECTION('',(0.E0,-1.E0,0.E0));
#1048=DIRECTION('',(0.E0,0.E0,-1.E0));
#1049=AXIS2_PLACEMENT_3D('',#1046,#1047,#1048);
#1050=PLANE('',#1049);
#1051=ORIENTED_EDGE('',*,*,#1012,.F.);
#1052=ORIENTED_EDGE('',*,*,#1033,.F.);
#1053=EDGE_LOOP('',(#1051,#1052));
#1054=FACE_OUTER_BOUND('',#1053,.F.);
#1056=FILL_AREA_STYLE_COLOUR('',#10);
#1057=FILL_AREA_STYLE('',(#1056));
#1058=SURFACE_STYLE_FILL_AREA(#1057);
#1059=SURFACE_SIDE_STYLE('',(#1058));
#1060=SURFACE_STYLE_USAGE(.POSITIVE.,#1059);
#1061=PRESENTATION_STYLE_ASSIGNMENT((#1060));
#1062=STYLED_ITEM('',(#1061),#1055);
#1063=CARTESIAN_POINT('',(0.E0,1.E-1,-8.25E-1));
#1064=DIRECTION('',(0.E0,-1.E0,0.E0));
#1065=DIRECTION('',(-1.E0,0.E0,0.E0));
#1066=AXIS2_PLACEMENT_3D('',#1063,#1064,#1065);
#1067=CYLINDRICAL_SURFACE('',#1066,2.5E-1);
#1068=ORIENTED_EDGE('',*,*,#990,.F.);
#1070=ORIENTED_EDGE('',*,*,#1069,.T.);
#1072=ORIENTED_EDGE('',*,*,#1071,.T.);
#1074=ORIENTED_EDGE('',*,*,#1073,.F.);
#1075=EDGE_LOOP('',(#1068,#1070,#1072,#1074));
#1076=FACE_OUTER_BOUND('',#1075,.F.);
#1078=FILL_AREA_STYLE_COLOUR('',#10);
#1079=FILL_AREA_STYLE('',(#1078));
#1080=SURFACE_STYLE_FILL_AREA(#1079);
#1081=SURFACE_SIDE_STYLE('',(#1080));
#1082=SURFACE_STYLE_USAGE(.POSITIVE.,#1081);
#1083=PRESENTATION_STYLE_ASSIGNMENT((#1082));
#1084=STYLED_ITEM('',(#1083),#1077);
#1085=CARTESIAN_POINT('',(0.E0,1.E-1,-8.25E-1));
#1086=DIRECTION('',(0.E0,-1.E0,0.E0));
#1087=DIRECTION('',(-1.E0,0.E0,0.E0));
#1088=AXIS2_PLACEMENT_3D('',#1085,#1086,#1087);
#1089=CYLINDRICAL_SURFACE('',#1088,2.5E-1);
#1090=ORIENTED_EDGE('',*,*,#992,.F.);
#1091=ORIENTED_EDGE('',*,*,#1073,.T.);
#1093=ORIENTED_EDGE('',*,*,#1092,.T.);
#1094=ORIENTED_EDGE('',*,*,#1069,.F.);
#1095=EDGE_LOOP('',(#1090,#1091,#1093,#1094));
#1096=FACE_OUTER_BOUND('',#1095,.F.);
#1098=FILL_AREA_STYLE_COLOUR('',#10);
#1099=FILL_AREA_STYLE('',(#1098));
#1100=SURFACE_STYLE_FILL_AREA(#1099);
#1101=SURFACE_SIDE_STYLE('',(#1100));
#1102=SURFACE_STYLE_USAGE(.POSITIVE.,#1101);
#1103=PRESENTATION_STYLE_ASSIGNMENT((#1102));
#1104=STYLED_ITEM('',(#1103),#1097);
#1105=CARTESIAN_POINT('',(0.E0,-2.49E1,0.E0));
#1106=DIRECTION('',(0.E0,-1.E0,0.E0));
#1107=DIRECTION('',(-1.E0,0.E0,0.E0));
#1108=AXIS2_PLACEMENT_3D('',#1105,#1106,#1107);
#1109=PLANE('',#1108);
#1110=ORIENTED_EDGE('',*,*,#1071,.F.);
#1111=ORIENTED_EDGE('',*,*,#1092,.F.);
#1112=EDGE_LOOP('',(#1110,#1111));
#1113=FACE_OUTER_BOUND('',#1112,.F.);
#1115=FILL_AREA_STYLE_COLOUR('',#10);
#1116=FILL_AREA_STYLE('',(#1115));
#1117=SURFACE_STYLE_FILL_AREA(#1116);
#1118=SURFACE_SIDE_STYLE('',(#1117));
#1119=SURFACE_STYLE_USAGE(.POSITIVE.,#1118);
#1120=PRESENTATION_STYLE_ASSIGNMENT((#1119));
#1121=STYLED_ITEM('',(#1120),#1114);
#1122=CLOSED_SHELL('',(#464,#486,#509,#531,#553,#582,#604,#619,#637,#648,#667,
#691,#704,#717,#736,#751,#774,#799,#821,#845,#868,#887,#906,#925,#947,#967,#996,
#1018,#1038,#1055,#1077,#1097,#1114));
#1123=MANIFOLD_SOLID_BREP('',#1122);
#1126=PLANE_ANGLE_MEASURE_WITH_UNIT(PLANE_ANGLE_MEASURE(1.745329251994E-2),
#1125);
#1127=(CONVERSION_BASED_UNIT('DEGREE',#1126)NAMED_UNIT(*)PLANE_ANGLE_UNIT());
#1129=UNCERTAINTY_MEASURE_WITH_UNIT(LENGTH_MEASURE(3.669713693392E-3),#1124,
'distance_accuracy_value',
'Maximum model space distance between geometric entities at asserted connectivities');
#1132=MECHANICAL_DESIGN_GEOMETRIC_PRESENTATION_REPRESENTATION('',(#471,#493,
#516,#538,#560,#589,#655,#674,#724,#758,#781,#806,#828,#852,#875,#894,#913,#932,
#954,#974,#1003,#1025,#1045,#1062,#1084,#1104,#1121),#1130);
#1133=APPLICATION_CONTEXT('automotive_design');
#1134=APPLICATION_PROTOCOL_DEFINITION('international standard',
'automotive_design',2001,#1133);
#1135=PRODUCT_DEFINITION_CONTEXT('part definition',#1133,'design');
#1136=PRODUCT_CONTEXT('',#1133,'mechanical');
#1137=PRODUCT('0004113500','0004113500','NOT SPECIFIED',(#1136));
#1138=PRODUCT_DEFINITION_FORMATION('28','LAST_VERSION',#1137);
#1146=DERIVED_UNIT_ELEMENT(#1145,2.E0);
#1147=DERIVED_UNIT((#1146));
#1148=MEASURE_REPRESENTATION_ITEM('surface area measure',AREA_MEASURE(
2.383804679044E2),#1147);
#1153=DERIVED_UNIT_ELEMENT(#1152,3.E0);
#1154=DERIVED_UNIT((#1153));
#1155=MEASURE_REPRESENTATION_ITEM('volume measure',VOLUME_MEASURE(
1.498684628082E2),#1154);
#1159=CARTESIAN_POINT('centre point',(-4.812863350742E-7,4.727278391608E0,
-5.393024771761E-3));
#1164=DERIVED_UNIT_ELEMENT(#1163,2.E0);
#1165=DERIVED_UNIT((#1164));
#1166=MEASURE_REPRESENTATION_ITEM('surface area measure',AREA_MEASURE(
2.383804679044E2),#1165);
#1171=DERIVED_UNIT_ELEMENT(#1170,3.E0);
#1172=DERIVED_UNIT((#1171));
#1173=MEASURE_REPRESENTATION_ITEM('volume measure',VOLUME_MEASURE(
1.498684628082E2),#1172);
#1177=CARTESIAN_POINT('centre point',(-4.812863350742E-7,4.727278391608E0,
-5.393024771761E-3));
#1182=PRODUCT_RELATED_PRODUCT_CATEGORY('part','',(#1137));
#1=DRAUGHTING_PRE_DEFINED_COLOUR('green');
#2=COLOUR_RGB('',1.1E-2,1.2E-2,1.E0);
#3=COLOUR_RGB('',1.6E-1,1.6E-1,1.8E-1);
#4=COLOUR_RGB('',2.4E-1,2.5E-1,2.6E-1);
#5=COLOUR_RGB('',4.1E-1,2.61589E-1,1.12848E-1);
#6=COLOUR_RGB('',5.04854E-1,1.5455E-2,1.5455E-2);
#7=COLOUR_RGB('',6.35294E-1,6.86275E-1,7.4902E-1);
#8=COLOUR_RGB('',6.40777E-1,6.40777E-1,6.40777E-1);
#9=COLOUR_RGB('',6.69062E-1,6.69903E-1,6.55217E-1);
#10=COLOUR_RGB('',8.2E-1,8.1E-1,8.1E-1);
#11=COLOUR_RGB('',9.21569E-1,7.05882E-1,4.70588E-1);
#12=DRAUGHTING_PRE_DEFINED_COLOUR('red');
#13=DRAUGHTING_PRE_DEFINED_COLOUR('yellow');
#14=COLOUR_RGB('',1.E0,1.E0,5.3E-1);
#15=COLOUR_RGB('',1.E0,1.E0,9.49E-1);
#16=COLOUR_RGB('',1.E0,1.E0,9.49E-1);
#17=COLOUR_RGB('',1.E0,1.E0,9.49E-1);
#18=COLOUR_RGB('',1.E0,1.E0,9.49E-1);
#19=COLOUR_RGB('',1.E0,1.E0,9.49E-1);
#20=DRAUGHTING_PRE_DEFINED_COLOUR('white');
#25=CIRCLE('',#24,1.8E0);
#30=CIRCLE('',#29,1.8E0);
#35=CIRCLE('',#34,1.5E0);
#40=CIRCLE('',#39,1.5E0);
#45=CIRCLE('',#44,2.E-1);
#50=CIRCLE('',#49,2.E0);
#59=CIRCLE('',#58,2.E0);
#68=CIRCLE('',#67,1.5E-1);
#73=CIRCLE('',#72,1.85E0);
#78=CIRCLE('',#77,1.85E0);
#83=CIRCLE('',#82,1.5E-1);
#92=CIRCLE('',#91,1.883333333333E0);
#105=CIRCLE('',#104,1.883333333333E0);
#122=CIRCLE('',#121,1.85E0);
#131=CIRCLE('',#130,1.85E0);
#136=CIRCLE('',#135,1.85E0);
#141=CIRCLE('',#140,1.85E0);
#154=CIRCLE('',#153,1.883333333333E0);
#163=CIRCLE('',#162,1.883333333333E0);
#176=CIRCLE('',#175,2.E0);
#181=CIRCLE('',#180,2.E0);
#186=CIRCLE('',#185,2.E0);
#195=CIRCLE('',#194,2.E0);
#204=CIRCLE('',#203,2.E0);
#209=CIRCLE('',#208,2.E0);
#214=CIRCLE('',#213,1.883333333333E0);
#219=CIRCLE('',#218,2.E0);
#224=CIRCLE('',#223,3.5E-1);
#229=CIRCLE('',#228,1.883333333333E0);
#234=CIRCLE('',#233,2.E0);
#239=CIRCLE('',#238,3.5E-1);
#244=CIRCLE('',#243,1.883333333333E0);
#249=CIRCLE('',#248,1.75E-1);
#254=CIRCLE('',#253,1.883333333333E0);
#259=CIRCLE('',#258,1.883333333333E0);
#264=CIRCLE('',#263,1.75E-1);
#269=CIRCLE('',#268,1.883333333333E0);
#274=CIRCLE('',#273,3.5E-1);
#279=CIRCLE('',#278,3.5E-1);
#284=CIRCLE('',#283,2.E-1);
#297=CIRCLE('',#296,1.5E0);
#302=CIRCLE('',#301,1.5E0);
#307=CIRCLE('',#306,2.5E-1);
#312=CIRCLE('',#311,2.5E-1);
#317=CIRCLE('',#316,2.5E-1);
#322=CIRCLE('',#321,2.5E-1);
#335=CIRCLE('',#334,2.5E-1);
#340=CIRCLE('',#339,2.5E-1);
#353=CIRCLE('',#352,2.5E-1);
#358=CIRCLE('',#357,2.5E-1);
#452=EDGE_CURVE('',#421,#422,#25,.T.);
#454=EDGE_CURVE('',#422,#421,#30,.T.);
#458=EDGE_CURVE('',#397,#398,#35,.T.);
#460=EDGE_CURVE('',#398,#397,#40,.T.);
#464=ADVANCED_FACE('',(#457,#463),#451,.F.);
#477=EDGE_CURVE('',#417,#418,#59,.T.);
#479=EDGE_CURVE('',#418,#422,#284,.T.);
#482=EDGE_CURVE('',#417,#421,#45,.T.);
#486=ADVANCED_FACE('',(#485),#476,.T.);
#499=EDGE_CURVE('',#361,#362,#50,.T.);
#501=EDGE_CURVE('',#388,#361,#190,.T.);
#503=EDGE_CURVE('',#381,#388,#219,.T.);
#505=EDGE_CURVE('',#381,#362,#54,.T.);
#509=ADVANCED_FACE('',(#508),#498,.T.);
#523=EDGE_CURVE('',#417,#378,#63,.T.);
#525=EDGE_CURVE('',#375,#378,#234,.T.);
#527=EDGE_CURVE('',#418,#375,#199,.T.);
#531=ADVANCED_FACE('',(#530),#521,.T.);
#545=EDGE_CURVE('',#362,#366,#83,.T.);
#547=EDGE_CURVE('',#365,#366,#136,.T.);
#549=EDGE_CURVE('',#361,#365,#68,.T.);
#553=ADVANCED_FACE('',(#552),#543,.T.);
#566=EDGE_CURVE('',#446,#441,#73,.T.);
#568=EDGE_CURVE('',#442,#441,#122,.T.);
#570=EDGE_CURVE('',#442,#445,#78,.T.);
#572=EDGE_CURVE('',#366,#445,#141,.T.);
#575=EDGE_CURVE('',#362,#361,#176,.T.);
#578=EDGE_CURVE('',#446,#365,#131,.T.);
#582=ADVANCED_FACE('',(#581),#565,.T.);
#596=EDGE_CURVE('',#446,#425,#87,.T.);
#598=EDGE_CURVE('',#425,#426,#92,.T.);
#600=EDGE_CURVE('',#426,#441,#96,.T.);
#604=ADVANCED_FACE('',(#603),#594,.F.);
#611=EDGE_CURVE('',#442,#429,#100,.T.);
#613=EDGE_CURVE('',#429,#430,#105,.T.);
#615=EDGE_CURVE('',#430,#445,#109,.T.);
#619=ADVANCED_FACE('',(#618),#609,.F.);
#625=EDGE_CURVE('',#445,#446,#126,.T.);
#628=EDGE_CURVE('',#430,#438,#113,.T.);
#630=EDGE_CURVE('',#438,#433,#158,.T.);
#632=EDGE_CURVE('',#425,#433,#149,.T.);
#637=ADVANCED_FACE('',(#636),#624,.T.);
#643=EDGE_CURVE('',#441,#442,#117,.T.);
#648=ADVANCED_FACE('',(#647),#642,.T.);
#667=ADVANCED_FACE('',(#666),#660,.T.);
#682=EDGE_CURVE('',#426,#434,#145,.T.);
#684=EDGE_CURVE('',#434,#436,#167,.T.);
#686=EDGE_CURVE('',#429,#436,#171,.T.);
#691=ADVANCED_FACE('',(#690),#679,.T.);
#699=EDGE_CURVE('',#433,#434,#154,.T.);
#704=ADVANCED_FACE('',(#703),#696,.T.);
#712=EDGE_CURVE('',#436,#438,#163,.T.);
#717=ADVANCED_FACE('',(#716),#709,.T.);
#736=ADVANCED_FACE('',(#735),#729,.T.);
#744=EDGE_CURVE('',#381,#382,#181,.T.);
#746=EDGE_CURVE('',#382,#388,#186,.T.);
#751=ADVANCED_FACE('',(#750),#741,.T.);
#764=EDGE_CURVE('',#418,#417,#195,.T.);
#767=EDGE_CURVE('',#375,#376,#204,.T.);
#769=EDGE_CURVE('',#376,#378,#209,.T.);
#774=ADVANCED_FACE('',(#773),#763,.T.);
#787=EDGE_CURVE('',#390,#385,#214,.T.);
#789=EDGE_CURVE('',#385,#382,#274,.T.);
#793=EDGE_CURVE('',#386,#388,#224,.T.);
#795=EDGE_CURVE('',#386,#390,#254,.T.);
#799=ADVANCED_FACE('',(#798),#786,.T.);
#812=EDGE_CURVE('',#372,#369,#229,.T.);
#814=EDGE_CURVE('',#385,#372,#264,.T.);
#817=EDGE_CURVE('',#369,#390,#249,.T.);
#821=ADVANCED_FACE('',(#820),#811,.F.);
#835=EDGE_CURVE('',#369,#370,#244,.T.);
#837=EDGE_CURVE('',#370,#375,#279,.T.);
#841=EDGE_CURVE('',#372,#376,#239,.T.);
#845=ADVANCED_FACE('',(#844),#833,.T.);
#861=EDGE_CURVE('',#385,#386,#259,.T.);
#864=EDGE_CURVE('',#370,#372,#269,.T.);
#868=ADVANCED_FACE('',(#867),#857,.F.);
#887=ADVANCED_FACE('',(#886),#880,.T.);
#906=ADVANCED_FACE('',(#905),#899,.T.);
#925=ADVANCED_FACE('',(#924),#918,.T.);
#939=EDGE_CURVE('',#397,#393,#288,.T.);
#941=EDGE_CURVE('',#393,#394,#297,.T.);
#943=EDGE_CURVE('',#398,#394,#292,.T.);
#947=ADVANCED_FACE('',(#946),#937,.F.);
#962=EDGE_CURVE('',#394,#393,#302,.T.);
#967=ADVANCED_FACE('',(#966),#959,.F.);
#984=EDGE_CURVE('',#405,#406,#307,.T.);
#986=EDGE_CURVE('',#406,#405,#312,.T.);
#990=EDGE_CURVE('',#413,#414,#317,.T.);
#992=EDGE_CURVE('',#414,#413,#322,.T.);
#996=ADVANCED_FACE('',(#983,#989,#995),#979,.T.);
#1010=EDGE_CURVE('',#405,#401,#326,.T.);
#1012=EDGE_CURVE('',#401,#402,#335,.T.);
#1014=EDGE_CURVE('',#406,#402,#330,.T.);
#1018=ADVANCED_FACE('',(#1017),#1008,.T.);
#1033=EDGE_CURVE('',#402,#401,#340,.T.);
#1038=ADVANCED_FACE('',(#1037),#1030,.T.);
#1055=ADVANCED_FACE('',(#1054),#1050,.T.);
#1069=EDGE_CURVE('',#413,#409,#344,.T.);
#1071=EDGE_CURVE('',#409,#410,#353,.T.);
#1073=EDGE_CURVE('',#414,#410,#348,.T.);
#1077=ADVANCED_FACE('',(#1076),#1067,.T.);
#1092=EDGE_CURVE('',#410,#409,#358,.T.);
#1097=ADVANCED_FACE('',(#1096),#1089,.T.);
#1114=ADVANCED_FACE('',(#1113),#1109,.T.);
#1124=(LENGTH_UNIT()NAMED_UNIT(*)SI_UNIT(.MILLI.,.METRE.));
#1125=(NAMED_UNIT(*)PLANE_ANGLE_UNIT()SI_UNIT($,.RADIAN.));
#1128=(NAMED_UNIT(*)SI_UNIT($,.STERADIAN.)SOLID_ANGLE_UNIT());
#1130=(GEOMETRIC_REPRESENTATION_CONTEXT(3)GLOBAL_UNCERTAINTY_ASSIGNED_CONTEXT((
#1129))GLOBAL_UNIT_ASSIGNED_CONTEXT((#1124,#1127,#1128))REPRESENTATION_CONTEXT(
'ID1','3'));
#1131=ADVANCED_BREP_SHAPE_REPRESENTATION('',(#1123),#1130);
#1139=PRODUCT_DEFINITION('part definition','',#1138,#1135);
#1140=PRODUCT_DEFINITION_SHAPE('','SHAPE FOR 0004113500.',#1139);
#1141=SHAPE_ASPECT('','solid data associated with 0004113500',#1140,.F.);
#1142=PROPERTY_DEFINITION('',
'shape for solid data with which properties are associated',#1141);
#1143=SHAPE_REPRESENTATION('',(#1123),#1130);
#1144=SHAPE_DEFINITION_REPRESENTATION(#1142,#1143);
#1145=(LENGTH_UNIT()NAMED_UNIT(*)SI_UNIT(.MILLI.,.METRE.));
#1149=PROPERTY_DEFINITION('geometric validation property','area of 0004113500',
#1141);
#1150=REPRESENTATION('surface area',(#1148),#1130);
#1151=PROPERTY_DEFINITION_REPRESENTATION(#1149,#1150);
#1152=(LENGTH_UNIT()NAMED_UNIT(*)SI_UNIT(.MILLI.,.METRE.));
#1156=PROPERTY_DEFINITION('geometric validation property',
'volume of 0004113500',#1141);
#1157=REPRESENTATION('volume',(#1155),#1130);
#1158=PROPERTY_DEFINITION_REPRESENTATION(#1156,#1157);
#1160=PROPERTY_DEFINITION('geometric validation property',
'centroid of 0004113500',#1141);
#1161=REPRESENTATION('centroid',(#1159),#1130);
#1162=PROPERTY_DEFINITION_REPRESENTATION(#1160,#1161);
#1163=(LENGTH_UNIT()NAMED_UNIT(*)SI_UNIT(.MILLI.,.METRE.));
#1167=PROPERTY_DEFINITION('geometric validation property','area of 0004113500',
#1140);
#1168=REPRESENTATION('surface area',(#1166),#1130);
#1169=PROPERTY_DEFINITION_REPRESENTATION(#1167,#1168);
#1170=(LENGTH_UNIT()NAMED_UNIT(*)SI_UNIT(.MILLI.,.METRE.));
#1174=PROPERTY_DEFINITION('geometric validation property',
'volume of 0004113500',#1140);
#1175=REPRESENTATION('volume',(#1173),#1130);
#1176=PROPERTY_DEFINITION_REPRESENTATION(#1174,#1175);
#1178=PROPERTY_DEFINITION('geometric validation property',
'centroid of 0004113500',#1140);
#1179=REPRESENTATION('centroid',(#1177),#1130);
#1180=PROPERTY_DEFINITION_REPRESENTATION(#1178,#1179);
#1181=SHAPE_DEFINITION_REPRESENTATION(#1140,#1131);
ENDSEC;
END-ISO-10303-21;
